<svg width="480" height="283" viewBox="0 0 480 283" fill="none" xmlns="http://www.w3.org/2000/svg">
<g clip-path="url(#clip0_763_11936)">
<path d="M63.7171 281.845C63.7171 281.845 -50.9835 209.761 27.4072 132.468C105.798 55.1743 210.7 -23.8315 281.019 6.73453C351.338 37.3006 345.01 75.9473 422.262 131.89C499.515 187.833 481.633 232.25 467.798 254.74C453.963 277.229 451.659 283.016 451.659 283.016L63.7171 281.845Z" fill="#F2F4F8"/>
</g>
<path d="M127.07 267.015H102.843C101.825 267.015 101 267.839 101 268.857V275.364C101 276.381 101.825 277.205 102.843 277.205H127.07C128.088 277.205 128.914 276.381 128.914 275.364V268.857C128.914 267.839 128.088 267.015 127.07 267.015Z" fill="#DBE2EA"/>
<path d="M158.742 267.015H134.515C133.497 267.015 132.672 267.839 132.672 268.857V275.364C132.672 276.381 133.497 277.205 134.515 277.205H158.742C159.76 277.205 160.586 276.381 160.586 275.364V268.857C160.586 267.839 159.76 267.015 158.742 267.015Z" fill="#DBE2EA"/>
<path d="M142.68 253H118.453C117.435 253 116.609 253.825 116.609 254.842V261.349C116.609 262.366 117.435 263.19 118.453 263.19H142.68C143.698 263.19 144.523 262.366 144.523 261.349V254.842C144.523 253.825 143.698 253 142.68 253Z" fill="#DBE2EA"/>
<path d="M109 65.6636V200.326C109.001 202.006 109.671 203.618 110.861 204.806C112.051 205.994 113.665 206.662 115.347 206.662H326.625C327.458 206.662 328.284 206.498 329.054 206.18C329.824 205.861 330.524 205.394 331.114 204.805C331.703 204.216 332.171 203.517 332.489 202.747C332.808 201.978 332.972 201.153 332.972 200.32V65.6636H109Z" fill="white"/>
<path d="M120.067 62.0268C121.31 61.9148 122.228 60.8165 122.116 59.5737C122.004 58.3309 120.904 57.4142 119.661 57.5262C118.417 57.6382 117.499 58.7365 117.611 59.9793C117.723 61.2221 118.823 62.1388 120.067 62.0268Z" fill="white"/>
<path d="M128.889 62.0278C130.133 61.9158 131.05 60.8175 130.938 59.5747C130.826 58.3319 129.727 57.4152 128.483 57.5272C127.239 57.6392 126.321 58.7375 126.433 59.9803C126.546 61.2231 127.645 62.1398 128.889 62.0278Z" fill="white"/>
<path d="M137.713 62.0285C138.957 61.9165 139.874 60.8182 139.762 59.5754C139.65 58.3326 138.551 57.4159 137.307 57.5279C136.063 57.6399 135.146 58.7382 135.258 59.981C135.37 61.2238 136.469 62.1405 137.713 62.0285Z" fill="white"/>
<path d="M332.998 60.3416C332.998 59.5087 332.836 58.6839 332.521 57.9143C332.207 57.1448 331.745 56.4455 331.164 55.8566C330.582 55.2677 329.891 54.8006 329.131 54.482C328.371 54.1634 327.557 53.9996 326.734 54H118.236C116.575 54 114.982 54.6681 113.807 55.8574C112.633 57.0467 111.973 58.6597 111.973 60.3416V65.5412H332.998V60.3416Z" fill="white"/>
<path d="M326.733 206.881H118.236C116.487 206.879 114.811 206.175 113.575 204.923C112.339 203.671 111.644 201.974 111.643 200.203V65.2051H333.329V200.203C333.328 201.974 332.632 203.672 331.396 204.924C330.159 206.176 328.482 206.88 326.733 206.881ZM112.304 65.875V200.203C112.306 201.796 112.931 203.323 114.043 204.449C115.155 205.575 116.663 206.209 118.236 206.211H326.733C328.306 206.209 329.815 205.576 330.927 204.449C332.039 203.323 332.665 201.796 332.667 200.203V65.875H112.304Z" fill="#1DA1F2"/>
<path d="M333.329 65.8752H111.643V60.342C111.644 58.5718 112.339 56.8745 113.575 55.6225C114.811 54.3706 116.487 53.6662 118.236 53.6641H326.733C328.482 53.6655 330.159 54.3695 331.396 55.6216C332.632 56.8736 333.328 58.5713 333.329 60.342V65.8752ZM112.304 65.2053H332.667V60.342C332.665 58.7492 332.039 57.2223 330.927 56.0961C329.815 54.9698 328.306 54.3362 326.733 54.334H118.236C116.663 54.3362 115.155 54.9699 114.043 56.0963C112.931 57.2226 112.306 58.7495 112.304 60.342V65.2053Z" fill="#1DA1F2"/>
<path d="M122.689 62.3678C122.181 62.3673 121.685 62.2145 121.264 61.9286C120.842 61.6428 120.513 61.2367 120.32 60.7619C120.126 60.287 120.075 59.7646 120.175 59.2608C120.274 58.7569 120.519 58.2941 120.878 57.931C121.237 57.5679 121.694 57.3207 122.192 57.2206C122.69 57.1206 123.206 57.1722 123.674 57.369C124.143 57.5657 124.544 57.8988 124.826 58.326C125.108 58.7533 125.258 59.2556 125.258 59.7694C125.257 60.4588 124.986 61.1197 124.505 61.6069C124.023 62.0942 123.37 62.3678 122.689 62.3678ZM122.689 57.849C122.314 57.8495 121.947 57.9626 121.636 58.174C121.324 58.3853 121.082 58.6854 120.938 59.0363C120.795 59.3873 120.758 59.7733 120.832 60.1457C120.905 60.518 121.086 60.8599 121.351 61.1282C121.617 61.3965 121.955 61.5792 122.323 61.653C122.69 61.7269 123.072 61.6887 123.418 61.5433C123.764 61.3979 124.061 61.1517 124.269 60.836C124.477 60.5202 124.588 60.1491 124.588 59.7694C124.588 59.2598 124.387 58.7714 124.031 58.4113C123.675 58.0512 123.192 57.849 122.689 57.849Z" fill="#1F3965"/>
<path d="M131.396 62.3678C130.888 62.3673 130.392 62.2145 129.971 61.9286C129.549 61.6428 129.22 61.2367 129.027 60.7619C128.833 60.287 128.782 59.7646 128.882 59.2608C128.981 58.7569 129.226 58.2941 129.585 57.931C129.944 57.5679 130.401 57.3207 130.899 57.2206C131.397 57.1206 131.913 57.1722 132.381 57.369C132.85 57.5657 133.251 57.8988 133.533 58.326C133.815 58.7533 133.965 59.2556 133.965 59.7694C133.964 60.4588 133.693 61.1197 133.212 61.6069C132.73 62.0942 132.077 62.3678 131.396 62.3678ZM131.396 57.849C131.021 57.8495 130.654 57.9626 130.343 58.174C130.031 58.3853 129.789 58.6854 129.645 59.0363C129.502 59.3873 129.465 59.7733 129.539 60.1457C129.612 60.518 129.793 60.8599 130.058 61.1282C130.324 61.3965 130.662 61.5792 131.03 61.653C131.397 61.7269 131.779 61.6887 132.125 61.5433C132.471 61.3979 132.768 61.1517 132.976 60.836C133.184 60.5202 133.295 60.1491 133.295 59.7694C133.295 59.2598 133.094 58.7714 132.738 58.4113C132.382 58.0512 131.899 57.849 131.396 57.849Z" fill="#1F3965"/>
<path d="M140.103 62.3678C139.595 62.3673 139.099 62.2145 138.678 61.9286C138.256 61.6428 137.928 61.2367 137.734 60.7619C137.54 60.287 137.489 59.7646 137.589 59.2608C137.688 58.7569 137.933 58.2941 138.292 57.931C138.651 57.5679 139.108 57.3207 139.606 57.2206C140.104 57.1206 140.62 57.1722 141.088 57.369C141.557 57.5657 141.958 57.8988 142.24 58.326C142.522 58.7533 142.672 59.2556 142.672 59.7694C142.671 60.4588 142.4 61.1197 141.919 61.6069C141.437 62.0942 140.784 62.3678 140.103 62.3678ZM140.103 57.849C139.728 57.8495 139.361 57.9626 139.05 58.174C138.738 58.3853 138.496 58.6854 138.352 59.0363C138.209 59.3873 138.172 59.7733 138.246 60.1457C138.319 60.518 138.5 60.8599 138.765 61.1282C139.031 61.3965 139.369 61.5792 139.737 61.653C140.104 61.7269 140.486 61.6887 140.832 61.5433C141.179 61.3979 141.475 61.1517 141.683 60.836C141.891 60.5202 142.002 60.1491 142.002 59.7694C142.002 59.2598 141.801 58.7714 141.445 58.4113C141.089 58.0512 140.606 57.849 140.103 57.849Z" fill="#1F3965"/>
<path d="M111.961 65.6641V200.326C111.962 202.007 112.623 203.619 113.797 204.807C114.972 205.995 116.564 206.662 118.225 206.662H326.722C327.545 206.663 328.359 206.499 329.12 206.18C329.88 205.862 330.57 205.394 331.152 204.806C331.734 204.217 332.195 203.517 332.51 202.748C332.824 201.978 332.986 201.153 332.986 200.321V65.6641H111.961Z" fill="white"/>
<g clip-path="url(#clip1_763_11936)">
<path d="M312 79H132C128.686 79 126 81.6863 126 85V102C126 105.314 128.686 108 132 108H312C315.314 108 318 105.314 318 102V85C318 81.6863 315.314 79 312 79Z" fill="#F7F9FC"/>
<rect x="155.381" y="87" width="76.9737" height="7" rx="1" fill="#DBE2EA"/>
<rect x="174.736" y="98" width="27.3132" height="2" rx="0.5" fill="#A6B4CD"/>
<rect x="155.381" y="98" width="17.3812" height="2" rx="0.5" fill="#A6B4CD"/>
<rect x="133.67" y="87" width="13.8158" height="14" rx="6.90789" fill="#1F3965"/>
<path d="M312.998 116H132.998C129.684 116 126.998 118.686 126.998 122V139C126.998 142.314 129.684 145 132.998 145H312.998C316.312 145 318.998 142.314 318.998 139V122C318.998 118.686 316.312 116 312.998 116Z" fill="#F7F9FC"/>
<rect x="156.367" y="124" width="76.9737" height="7" rx="1" fill="#DBE2EA"/>
<rect x="175.723" y="135" width="27.3132" height="2" rx="0.5" fill="#A6B4CD"/>
<rect x="156.367" y="135" width="17.3812" height="2" rx="0.5" fill="#A6B4CD"/>
<rect x="134.656" y="124" width="13.8158" height="14" rx="6.90789" fill="#1F3965"/>
<path d="M312.998 153H132.998C129.684 153 126.998 155.686 126.998 159V176C126.998 179.314 129.684 182 132.998 182H312.998C316.312 182 318.998 179.314 318.998 176V159C318.998 155.686 316.312 153 312.998 153Z" fill="#F7F9FC"/>
<rect x="156.367" y="161" width="76.9737" height="7" rx="1" fill="#DBE2EA"/>
<rect x="175.723" y="172" width="27.3132" height="2" rx="0.5" fill="#A6B4CD"/>
<rect x="156.367" y="172" width="17.3812" height="2" rx="0.5" fill="#A6B4CD"/>
<rect x="134.656" y="161" width="13.8158" height="14" rx="6.90789" fill="#1F3965"/>
<path d="M312.998 190H132.998C129.684 190 126.998 192.686 126.998 196V213C126.998 216.314 129.684 219 132.998 219H312.998C316.312 219 318.998 216.314 318.998 213V196C318.998 192.686 316.312 190 312.998 190Z" fill="#F7F9FC"/>
<rect x="156.367" y="198" width="76.9737" height="7" rx="1" fill="#DBE2EA"/>
<rect x="134.656" y="198" width="13.8158" height="14" rx="6.90789" fill="#1F3965"/>
</g>
<defs>
<clipPath id="clip0_763_11936">
<rect width="480" height="283" fill="white"/>
</clipPath>
<clipPath id="clip1_763_11936">
<rect width="209.211" height="131" fill="white" transform="translate(117.881 69.6641)"/>
</clipPath>
</defs>
</svg>
