<svg width="490" height="205" fill="none" xmlns="http://www.w3.org/2000/svg">
  <path d="M489.496 27.52a7.883 7.883 0 0 0-.564-2.937 7.69 7.69 0 0 0-1.611-2.49 7.418 7.418 0 0 0-2.41-1.664 7.224 7.224 0 0 0-2.844-.583H234.764c-1.971 0-3.86.808-5.254 2.247a7.806 7.806 0 0 0-2.176 5.427v6.292h262.162V27.52Z" fill="#fff"/>
  <path d="M482.066 204.857H234.763a7.707 7.707 0 0 1-5.528-2.37 8.226 8.226 0 0 1-2.292-5.711V33.406H489.89v163.37a8.228 8.228 0 0 1-2.293 5.712 7.708 7.708 0 0 1-5.531 2.369ZM227.728 34.217v162.559a7.397 7.397 0 0 0 2.062 5.138 6.931 6.931 0 0 0 4.973 2.132h247.303a6.936 6.936 0 0 0 4.975-2.132 7.408 7.408 0 0 0 2.064-5.138V34.217H227.728Z" fill="#1DA1F2"/>
  <path d="M489.89 34.215H226.943V27.52a8.227 8.227 0 0 1 2.292-5.711 7.705 7.705 0 0 1 5.528-2.37h247.303a7.706 7.706 0 0 1 5.531 2.369 8.23 8.23 0 0 1 2.293 5.712v6.696Zm-262.162-.81h261.377v-5.886a7.408 7.408 0 0 0-2.064-5.138 6.939 6.939 0 0 0-4.975-2.132H234.763a6.934 6.934 0 0 0-4.973 2.132 7.397 7.397 0 0 0-2.062 5.138v5.886Z" fill="#1DA1F2"/>
  <path d="M240.045 29.972a2.98 2.98 0 0 1-1.691-.531 3.125 3.125 0 0 1-1.119-1.412 3.239 3.239 0 0 1-.172-1.817c.118-.61.408-1.17.834-1.609.425-.44.968-.739 1.558-.86a2.955 2.955 0 0 1 1.759.18 3.072 3.072 0 0 1 1.366 1.158c.334.517.512 1.125.512 1.747 0 .834-.322 1.634-.893 2.223a3 3 0 0 1-2.154.921Zm0-5.468c-.445 0-.88.137-1.249.393a2.3 2.3 0 0 0-.827 1.044c-.17.424-.214.892-.127 1.342.087.45.302.864.616 1.19a2.23 2.23 0 0 0 1.152.634c.437.09.889.043 1.3-.133a2.266 2.266 0 0 0 1.009-.855 2.38 2.38 0 0 0-.282-2.935 2.216 2.216 0 0 0-1.592-.68ZM250.372 29.972c-.602 0-1.19-.185-1.69-.531-.5-.346-.89-.838-1.12-1.412a3.239 3.239 0 0 1-.172-1.817c.118-.61.408-1.17.834-1.609.426-.44.968-.739 1.559-.86a2.953 2.953 0 0 1 1.758.18 3.067 3.067 0 0 1 1.366 1.158 3.222 3.222 0 0 1-.381 3.97c-.571.59-1.346.921-2.154.921Zm0-5.468c-.444 0-.879.137-1.249.393a2.314 2.314 0 0 0-.827 1.044c-.17.424-.214.892-.127 1.342.088.45.302.864.617 1.19a2.23 2.23 0 0 0 1.152.634c.436.09.888.043 1.299-.133a2.274 2.274 0 0 0 1.01-.855c.247-.383.378-.832.378-1.291a2.36 2.36 0 0 0-.661-1.644 2.216 2.216 0 0 0-1.592-.68ZM260.7 29.972c-.602 0-1.19-.185-1.69-.531a3.12 3.12 0 0 1-1.12-1.412 3.239 3.239 0 0 1-.172-1.817c.118-.61.408-1.17.834-1.609.426-.44.968-.739 1.558-.86a2.955 2.955 0 0 1 1.759.18 3.072 3.072 0 0 1 1.366 1.158c.334.517.512 1.125.512 1.747 0 .834-.322 1.634-.893 2.223a3 3 0 0 1-2.154.921Zm0-5.468c-.445 0-.88.137-1.249.393a2.3 2.3 0 0 0-.827 1.044c-.17.424-.214.892-.127 1.342.087.45.302.864.616 1.19a2.23 2.23 0 0 0 1.152.634c.437.09.889.043 1.3-.133a2.266 2.266 0 0 0 1.009-.855 2.38 2.38 0 0 0-.282-2.935 2.216 2.216 0 0 0-1.592-.68Z" fill="#1F3965"/>
  <path d="M227.321 33.96v162.962a7.801 7.801 0 0 0 2.178 5.422 7.31 7.31 0 0 0 5.251 2.246h247.303c.976 0 1.942-.198 2.844-.584a7.398 7.398 0 0 0 2.411-1.663 7.693 7.693 0 0 0 1.61-2.49 7.91 7.91 0 0 0 .565-2.938V33.959H227.321Z" fill="#fff"/>
  <g clip-path="url(#a)">
    <path stroke="#F7F9FC" stroke-width="1.181" d="M238.049 62.414h240.828"/>
    <rect x="243.973" y="51.31" width="56.934" height="4.841" rx="1.181" fill="#DBE2EA"/>
    <rect x="434.798" y="43.643" width="42.7" height="14.522" rx="2.362" fill="#1DA1F2"/>
    <path d="M443.187 50.761c.126 0 .236-.015.331-.046a.694.694 0 0 0 .243-.129.55.55 0 0 0 .145-.2.677.677 0 0 0 .048-.259c0-.19-.063-.334-.189-.43-.124-.098-.312-.146-.562-.146h-.464v1.21h.448Zm1.544 1.716h-.438c-.088 0-.151-.035-.191-.104l-.819-1.148a.228.228 0 0 0-.085-.08.296.296 0 0 0-.138-.026h-.321v1.358h-.491v-3.31h.955c.213 0 .397.021.551.066.155.043.282.105.382.187.102.08.176.176.224.29a.957.957 0 0 1 .074.383.99.99 0 0 1-.053.325.87.87 0 0 1-.157.274.987.987 0 0 1-.249.208c-.098.058-.21.103-.334.133a.516.516 0 0 1 .159.155l.931 1.289Zm1.732-1.432a.751.751 0 0 0-.039-.247.556.556 0 0 0-.111-.196.506.506 0 0 0-.18-.129.605.605 0 0 0-.244-.046.604.604 0 0 0-.447.164.792.792 0 0 0-.205.454h1.226Zm.371 1.097a.91.91 0 0 1-.191.169 1.13 1.13 0 0 1-.231.112c-.081.03-.166.051-.253.065a1.62 1.62 0 0 1-.256.02c-.161 0-.311-.026-.45-.08a1.034 1.034 0 0 1-.357-.24 1.13 1.13 0 0 1-.235-.392 1.626 1.626 0 0 1-.083-.539c0-.163.025-.314.076-.454a1.01 1.01 0 0 1 .565-.616c.137-.06.29-.09.461-.09.143 0 .274.024.394.072a.863.863 0 0 1 .519.532c.051.131.076.28.076.448 0 .069-.008.116-.023.14-.016.023-.044.035-.085.035h-1.536c.005.14.025.262.06.366a.75.75 0 0 0 .145.259c.063.069.138.12.224.154s.182.05.288.05a.85.85 0 0 0 .258-.034 1.256 1.256 0 0 0 .323-.15.19.19 0 0 1 .097-.034c.037 0 .065.014.085.041l.129.166Zm2.028-1.44a.604.604 0 0 0-.237-.201.689.689 0 0 0-.289-.06.568.568 0 0 0-.479.224c-.112.147-.168.363-.168.647 0 .15.012.277.037.383a.78.78 0 0 0 .11.258.458.458 0 0 0 .18.148c.071.03.151.046.24.046a.64.64 0 0 0 .339-.088c.095-.058.184-.14.267-.246V50.7Zm.452-.568v3.129h-.452v-1.12c-.097.11-.207.2-.33.267a.886.886 0 0 1-.426.099.771.771 0 0 1-.641-.307 1.095 1.095 0 0 1-.177-.375 1.901 1.901 0 0 1-.063-.515c0-.173.023-.335.069-.484a1.17 1.17 0 0 1 .201-.387.921.921 0 0 1 .74-.35c.075 0 .144.006.207.02a.737.737 0 0 1 .323.154c.046.038.089.08.129.127l.03-.168c.016-.06.055-.09.118-.09h.272Zm2.575 0v2.343h-.27c-.061 0-.101-.03-.12-.09l-.032-.236a1.66 1.66 0 0 1-.159.148 1.022 1.022 0 0 1-.177.115.964.964 0 0 1-.429.1.843.843 0 0 1-.341-.065.684.684 0 0 1-.245-.18.801.801 0 0 1-.15-.281c-.033-.11-.05-.23-.05-.362v-1.492h.452v1.492c0 .167.038.298.115.392.077.092.194.138.353.138a.668.668 0 0 0 .322-.08c.1-.056.194-.131.282-.227v-1.715h.449Zm2.179.91a.751.751 0 0 0-.039-.246.556.556 0 0 0-.111-.196.506.506 0 0 0-.18-.129.605.605 0 0 0-.244-.046.604.604 0 0 0-.447.164.792.792 0 0 0-.205.454h1.226Zm.371 1.098a.91.91 0 0 1-.191.169 1.13 1.13 0 0 1-.231.112c-.081.03-.166.051-.253.065a1.62 1.62 0 0 1-.256.02c-.162 0-.311-.026-.45-.08a1.034 1.034 0 0 1-.357-.24 1.13 1.13 0 0 1-.235-.392 1.626 1.626 0 0 1-.083-.539c0-.163.025-.314.076-.454a1.01 1.01 0 0 1 .565-.616c.137-.06.29-.09.461-.09.143 0 .274.024.394.072a.871.871 0 0 1 .519.532c.05.131.076.28.076.448 0 .069-.008.116-.023.14-.016.023-.044.035-.086.035h-1.535c.005.14.025.262.06.366a.75.75 0 0 0 .145.259c.063.069.138.12.224.154s.182.05.288.05a.85.85 0 0 0 .258-.034 1.256 1.256 0 0 0 .323-.15.19.19 0 0 1 .097-.034c.037 0 .065.014.085.041l.129.166Zm1.899-1.604a.135.135 0 0 1-.039.044.11.11 0 0 1-.053.011.172.172 0 0 1-.083-.025 1.588 1.588 0 0 0-.109-.056.96.96 0 0 0-.147-.055.72.72 0 0 0-.381 0 .39.39 0 0 0-.133.067.286.286 0 0 0-.116.226c0 .058.017.107.051.145a.463.463 0 0 0 .136.1c.057.027.121.052.192.075.072.022.145.045.219.07.075.024.148.053.219.085.072.03.136.07.191.117a.512.512 0 0 1 .189.41c0 .11-.02.211-.06.305a.642.642 0 0 1-.173.24.802.802 0 0 1-.281.159 1.188 1.188 0 0 1-.385.057 1.205 1.205 0 0 1-.791-.285l.106-.173a.128.128 0 0 1 .12-.067c.029 0 .059.01.09.032s.068.045.111.072a.956.956 0 0 0 .156.069c.062.02.139.03.231.03.077 0 .144-.01.2-.028a.426.426 0 0 0 .141-.078.322.322 0 0 0 .113-.252.223.223 0 0 0-.053-.152.42.42 0 0 0-.136-.106 1.048 1.048 0 0 0-.191-.076 8.72 8.72 0 0 1-.222-.07 2.265 2.265 0 0 1-.221-.084.79.79 0 0 1-.194-.123.608.608 0 0 1-.136-.18.607.607 0 0 1-.05-.258.633.633 0 0 1 .219-.48.799.799 0 0 1 .265-.149c.106-.038.226-.058.362-.058.155 0 .295.025.419.074.126.05.234.117.323.203l-.099.164Zm1.356 1.975c-.189 0-.335-.053-.438-.159-.102-.106-.152-.257-.152-.454V50.5h-.272a.099.099 0 0 1-.067-.024c-.017-.016-.026-.041-.026-.073v-.182l.381-.053.101-.699a.105.105 0 0 1 .035-.06.102.102 0 0 1 .069-.023h.228v.786h.664v.328h-.664v1.371c0 .093.022.162.067.208a.24.24 0 0 0 .175.067.306.306 0 0 0 .106-.017.496.496 0 0 0 .079-.034l.055-.037a.073.073 0 0 1 .041-.016c.016 0 .027.004.035.011a.113.113 0 0 1 .028.033l.133.216a.77.77 0 0 1-.262.157.92.92 0 0 1-.316.055Zm4.091-.45v.414h-1.895v-3.31h.491v2.897h1.404Zm1.784-1.018a.726.726 0 0 0-.04-.247.506.506 0 0 0-.29-.325.609.609 0 0 0-.244-.046c-.189 0-.339.055-.448.164a.798.798 0 0 0-.205.454h1.227Zm.371 1.097a.916.916 0 0 1-.192.169 1.147 1.147 0 0 1-.23.112 1.61 1.61 0 0 1-.51.085c-.161 0-.311-.026-.449-.08a1.025 1.025 0 0 1-.357-.24 1.133 1.133 0 0 1-.236-.392 1.626 1.626 0 0 1-.083-.539c0-.163.026-.314.076-.454a1.01 1.01 0 0 1 .565-.616c.137-.06.291-.09.461-.09.143 0 .275.024.395.072a.867.867 0 0 1 .518.532c.051.131.076.28.076.448 0 .069-.007.116-.023.14-.015.023-.044.035-.085.035h-1.535c.004.14.024.262.06.366.035.103.083.19.145.259a.59.59 0 0 0 .223.154c.086.034.183.05.289.05a.854.854 0 0 0 .258-.034 1.256 1.256 0 0 0 .323-.15.187.187 0 0 1 .096-.034.1.1 0 0 1 .086.041l.129.166Zm1.776-.705c-.183.006-.338.02-.465.044-.128.021-.232.05-.312.087a.42.42 0 0 0-.173.132.28.28 0 0 0-.053.166c0 .058.01.109.028.152.02.041.046.076.078.103a.335.335 0 0 0 .118.058.546.546 0 0 0 .145.019.803.803 0 0 0 .353-.079.85.85 0 0 0 .145-.094c.046-.037.092-.08.136-.127v-.461Zm-1.318-.975c.13-.125.272-.218.424-.28.153-.06.322-.092.505-.092.133 0 .252.023.355.067a.718.718 0 0 1 .419.464c.037.109.056.23.056.362v1.494h-.201a.197.197 0 0 1-.101-.021.16.16 0 0 1-.056-.083l-.048-.205c-.06.055-.119.104-.178.147a.96.96 0 0 1-.387.175 1.15 1.15 0 0 1-.24.023.892.892 0 0 1-.26-.036.558.558 0 0 1-.353-.314.684.684 0 0 1-.051-.274c0-.093.025-.18.074-.265a.686.686 0 0 1 .244-.23c.114-.069.262-.124.443-.167.183-.043.407-.068.673-.074v-.17c0-.177-.037-.31-.113-.397-.075-.087-.186-.131-.332-.131a.736.736 0 0 0-.422.12l-.126.08a.194.194 0 0 1-.111.037.133.133 0 0 1-.081-.025.23.23 0 0 1-.053-.06l-.08-.145Zm4.344-.328-.95 2.343h-.405l-.95-2.343h.371c.035 0 .065.009.088.026a.122.122 0 0 1 .046.064l.56 1.439a3.695 3.695 0 0 1 .092.355 2.782 2.782 0 0 1 .097-.355l.567-1.439a.132.132 0 0 1 .048-.064.137.137 0 0 1 .083-.026h.353Zm1.842.91a.726.726 0 0 0-.04-.246.506.506 0 0 0-.29-.325.609.609 0 0 0-.244-.046.608.608 0 0 0-.448.164.798.798 0 0 0-.205.454h1.227Zm.371 1.098a.892.892 0 0 1-.192.169 1.147 1.147 0 0 1-.23.112 1.61 1.61 0 0 1-.51.085c-.161 0-.311-.026-.449-.08a1.025 1.025 0 0 1-.357-.24 1.133 1.133 0 0 1-.236-.392 1.626 1.626 0 0 1-.083-.539c0-.163.026-.314.077-.454.05-.142.123-.264.216-.369a1.03 1.03 0 0 1 .348-.247c.137-.06.291-.09.461-.09.143 0 .275.024.395.072a.859.859 0 0 1 .313.203c.088.089.156.199.205.33.051.13.076.28.076.447 0 .069-.007.116-.023.14-.015.023-.043.035-.085.035h-1.535c.004.14.024.262.06.366.035.103.083.19.145.259.063.069.137.12.224.154.086.034.182.05.288.05a.85.85 0 0 0 .258-.034 1.256 1.256 0 0 0 .323-.15.19.19 0 0 1 .096-.034.1.1 0 0 1 .086.041l.129.166Z" fill="#fff"/>
    <rect x="238.032" y="66.465" width="239.756" height="15.548" rx=".922" fill="#F2F4F8"/>
    <path d="M245.945 75.585v.413h-1.895v-3.31h.491v2.897h1.404Zm2.532.014-.002.399h-2.052v-3.31h2.052v.398h-1.558v1.049h1.254v.385h-1.254v1.079h1.56Zm2.366-.835-.491-1.284a3.07 3.07 0 0 1-.106-.332 2.764 2.764 0 0 1-.053.185 2.188 2.188 0 0 1-.051.152l-.488 1.28h1.189Zm.971 1.234h-.378a.166.166 0 0 1-.166-.116l-.293-.767h-1.459l-.293.767a.199.199 0 0 1-.06.081.167.167 0 0 1-.106.035h-.378l1.318-3.31h.496l1.319 3.31Zm2.89-3.31-1.346 3.31h-.44l-1.346-3.31h.391c.043 0 .078.01.104.031.028.022.049.05.062.083l.895 2.25c.021.056.042.116.062.182.022.067.041.136.058.208a2.319 2.319 0 0 1 .11-.39l.893-2.25a.166.166 0 0 1 .163-.115h.394Zm2.468 2.91-.002.4h-2.052v-3.31h2.052v.398h-1.559v1.049h1.254v.385h-1.254v1.079h1.561Zm3.89-2.5h-1.051v2.9h-.489v-2.9h-1.055v-.41h2.595v.41Zm1.765 1.59v1.31h-.489v-1.31l-1.212-2h.431c.043 0 .078.01.104.031.026.02.047.047.064.081l.72 1.238a3.956 3.956 0 0 1 .142.311c.017-.049.037-.099.058-.15.023-.05.049-.104.078-.161l.717-1.238a.307.307 0 0 1 .063-.076.148.148 0 0 1 .103-.037h.434l-1.213 2.001Zm2.619-.297c.124 0 .233-.016.327-.049a.652.652 0 0 0 .237-.136.58.58 0 0 0 .146-.212.756.756 0 0 0 .048-.274.611.611 0 0 0-.189-.475c-.125-.115-.314-.173-.569-.173h-.512v1.319h.512Zm0-1.704c.212 0 .396.025.553.074.157.049.286.119.389.21.103.089.179.197.229.325.05.127.076.269.076.424 0 .155-.027.298-.081.429a.925.925 0 0 1-.237.334 1.11 1.11 0 0 1-.392.219c-.156.05-.335.076-.537.076h-.512v1.22h-.491v-3.31h1.003Zm3.842 2.912-.002.399h-2.052v-3.31h2.052v.398h-1.558v1.049h1.254v.385h-1.254v1.079h1.56ZM316.107 73.922c.126 0 .237-.015.332-.046a.677.677 0 0 0 .242-.13.552.552 0 0 0 .146-.2.677.677 0 0 0 .048-.258c0-.19-.063-.334-.189-.431-.124-.097-.312-.145-.563-.145h-.463v1.21h.447Zm1.545 1.715h-.438c-.088 0-.151-.034-.191-.103l-.819-1.149a.23.23 0 0 0-.085-.08.296.296 0 0 0-.138-.026h-.321v1.358h-.491v-3.31h.954c.214 0 .398.022.551.067.156.043.283.105.383.186a.72.72 0 0 1 .224.29.958.958 0 0 1 .074.383.99.99 0 0 1-.053.326.87.87 0 0 1-.157.274.987.987 0 0 1-.249.207c-.099.059-.21.103-.334.134a.515.515 0 0 1 .159.154l.931 1.29Zm2.48-.399-.002.4h-2.052v-3.311h2.052v.399h-1.559v1.049h1.254v.384h-1.254v1.08h1.561Zm2.366-.834-.491-1.284a2.683 2.683 0 0 1-.106-.332 3.473 3.473 0 0 1-.104.336l-.489 1.28h1.19Zm.97 1.233h-.378a.168.168 0 0 1-.106-.032.191.191 0 0 1-.06-.083l-.292-.768h-1.46l-.293.768a.187.187 0 0 1-.059.08.169.169 0 0 1-.107.035h-.378l1.319-3.31h.496l1.318 3.31Zm2.127-2.77a.196.196 0 0 1-.049.057.106.106 0 0 1-.064.018.171.171 0 0 1-.095-.037 1.304 1.304 0 0 0-.323-.17.793.793 0 0 0-.265-.04.767.767 0 0 0-.256.04.515.515 0 0 0-.182.103.433.433 0 0 0-.15.346c0 .09.023.163.067.222a.597.597 0 0 0 .18.15c.074.041.158.077.251.108.094.03.19.063.288.097.099.032.195.07.289.113.093.043.177.097.251.163a.766.766 0 0 1 .247.586c0 .146-.026.283-.077.41a.95.95 0 0 1-.569.56 1.45 1.45 0 0 1-.781.048c-.1-.02-.195-.048-.284-.085a1.322 1.322 0 0 1-.459-.316l.141-.235a.207.207 0 0 1 .048-.046.127.127 0 0 1 .067-.018c.032 0 .069.017.111.05a1.316 1.316 0 0 0 .38.224c.088.034.194.051.318.051a.872.872 0 0 0 .272-.04.52.52 0 0 0 .328-.297.614.614 0 0 0 .044-.235.398.398 0 0 0-.067-.237.549.549 0 0 0-.178-.155 1.297 1.297 0 0 0-.251-.106l-.288-.09a2.957 2.957 0 0 1-.288-.11.953.953 0 0 1-.252-.162.738.738 0 0 1-.177-.25.92.92 0 0 1-.067-.374.886.886 0 0 1 .27-.637.978.978 0 0 1 .327-.205c.129-.052.277-.078.443-.078.186 0 .356.03.511.09.157.058.293.143.408.253l-.119.233Zm3.879 1.115c0 .247-.04.475-.12.682a1.57 1.57 0 0 1-.334.535c-.144.15-.317.265-.519.348a1.744 1.744 0 0 1-.671.125 1.75 1.75 0 0 1-.67-.125 1.509 1.509 0 0 1-.519-.348 1.617 1.617 0 0 1-.334-.535 1.882 1.882 0 0 1-.12-.682c0-.246.04-.473.12-.68.08-.208.191-.386.334-.535.144-.15.317-.267.519-.35.202-.085.426-.127.67-.127.246 0 .47.042.671.127.202.083.375.2.519.35.144.15.256.327.334.535.08.207.12.434.12.68Zm-.502 0c0-.197-.027-.373-.081-.53a1.123 1.123 0 0 0-.231-.4.98.98 0 0 0-.359-.25 1.213 1.213 0 0 0-.471-.088c-.173 0-.331.03-.472.088-.14.058-.26.142-.36.25-.1.11-.177.243-.23.4a1.622 1.622 0 0 0-.081.53c0 .198.027.376.081.532.053.156.13.288.23.397.1.11.22.193.36.251.141.057.299.086.472.086.174 0 .331-.029.471-.086a.98.98 0 0 0 .359-.251c.1-.11.177-.241.231-.397a1.63 1.63 0 0 0 .081-.532Zm3.83-1.655v3.31h-.249a.204.204 0 0 1-.097-.02.286.286 0 0 1-.076-.067l-1.87-2.419c.003.042.006.082.007.123.003.04.005.077.005.112v2.271h-.431v-3.31h.253c.043 0 .076.005.097.016.022.01.046.031.072.067l1.874 2.42a3.269 3.269 0 0 1-.012-.129l-.002-.12v-2.254h.429ZM385.262 75.225v.412h-1.895v-3.31h.491v2.898h1.404Zm2.532.013-.002.4h-2.052v-3.311h2.052v.399h-1.559v1.049h1.254v.384h-1.254v1.08h1.561Zm2.366-.834-.491-1.284a2.864 2.864 0 0 1-.106-.332 3.473 3.473 0 0 1-.104.336l-.489 1.28h1.19Zm.97 1.233h-.378a.168.168 0 0 1-.106-.032.191.191 0 0 1-.06-.083l-.292-.768h-1.46l-.292.768a.199.199 0 0 1-.06.08.168.168 0 0 1-.106.035h-.378l1.318-3.31h.496l1.318 3.31Zm2.891-3.31-1.346 3.31h-.44l-1.347-3.31h.392c.043 0 .078.01.104.032.028.022.048.05.062.083l.895 2.25c.021.055.042.116.062.182.021.066.041.135.057.208a2.333 2.333 0 0 1 .111-.39l.892-2.25a.184.184 0 0 1 .058-.08.165.165 0 0 1 .106-.035h.394Zm2.468 2.911-.003.4h-2.052v-3.311h2.052v.399h-1.558v1.049h1.254v.384h-1.254v1.08h1.561Zm4.661-1.256c0 .247-.04.473-.12.675a1.491 1.491 0 0 1-.334.524 1.503 1.503 0 0 1-.519.336c-.201.08-.425.12-.67.12h-1.245v-3.31h1.245c.245 0 .469.04.67.12a1.487 1.487 0 0 1 .853.862c.08.203.12.427.12.673Zm-.502 0c0-.197-.027-.373-.081-.528a1.113 1.113 0 0 0-.23-.396.967.967 0 0 0-.36-.25 1.24 1.24 0 0 0-.47-.085h-.752v2.518h.752c.173 0 .33-.029.47-.086a.98.98 0 0 0 .36-.246 1.14 1.14 0 0 0 .23-.397 1.61 1.61 0 0 0 .081-.53Zm2.79.422-.491-1.284a2.864 2.864 0 0 1-.106-.332 2.73 2.73 0 0 1-.053.184 2.192 2.192 0 0 1-.051.152l-.488 1.28h1.189Zm.971 1.233h-.378a.166.166 0 0 1-.166-.115l-.293-.768h-1.459l-.293.768a.199.199 0 0 1-.06.08.166.166 0 0 1-.106.035h-.378l1.318-3.31h.496l1.319 3.31Zm2.346-2.9h-1.051v2.9h-.489v-2.9h-1.056v-.41h2.596v.41Zm2.53 2.501-.002.4h-2.052v-3.311h2.052v.399h-1.559v1.049h1.254v.384h-1.254v1.08h1.561Zm2.32-2.372a.196.196 0 0 1-.049.058.104.104 0 0 1-.064.018.174.174 0 0 1-.095-.037 1.395 1.395 0 0 0-.133-.085.94.94 0 0 0-.189-.085.802.802 0 0 0-.265-.04.763.763 0 0 0-.256.04.52.52 0 0 0-.183.103.43.43 0 0 0-.112.155.48.48 0 0 0-.037.191c0 .09.022.163.067.222a.605.605 0 0 0 .179.15c.074.041.158.077.252.108.093.03.189.063.288.097.098.032.194.07.288.113a.997.997 0 0 1 .251.163.721.721 0 0 1 .178.24.78.78 0 0 1 .069.346c0 .146-.025.283-.076.41a.953.953 0 0 1-.217.335 1.02 1.02 0 0 1-.353.225 1.466 1.466 0 0 1-.781.048c-.1-.02-.195-.048-.284-.085a1.27 1.27 0 0 1-.458-.316l.14-.235a.193.193 0 0 1 .049-.046.124.124 0 0 1 .066-.018c.033 0 .07.017.111.05a1.316 1.316 0 0 0 .38.224.89.89 0 0 0 .319.051.877.877 0 0 0 .272-.04.567.567 0 0 0 .2-.114.495.495 0 0 0 .127-.182.614.614 0 0 0 .044-.236.392.392 0 0 0-.067-.237.549.549 0 0 0-.178-.155 1.27 1.27 0 0 0-.251-.106l-.288-.09a3.168 3.168 0 0 1-.288-.11.932.932 0 0 1-.251-.162.754.754 0 0 1-.178-.25.92.92 0 0 1-.067-.374.886.886 0 0 1 .27-.637.978.978 0 0 1 .327-.205c.129-.052.277-.078.443-.078.186 0 .356.03.512.09.156.058.292.143.408.253l-.12.233ZM454.172 74.404l-.491-1.284a2.864 2.864 0 0 1-.106-.332 2.73 2.73 0 0 1-.053.184 2.192 2.192 0 0 1-.051.152l-.488 1.28h1.189Zm.971 1.233h-.378a.166.166 0 0 1-.166-.115l-.293-.768h-1.459l-.293.768a.199.199 0 0 1-.06.08.166.166 0 0 1-.106.035h-.378l1.318-3.31h.496l1.319 3.31Zm2.635-.71c.028 0 .052.01.072.032l.193.212c-.135.16-.3.284-.495.372a1.697 1.697 0 0 1-.701.131c-.24 0-.457-.041-.653-.124a1.448 1.448 0 0 1-.497-.349 1.586 1.586 0 0 1-.319-.534 2.001 2.001 0 0 1-.113-.685c0-.249.04-.477.118-.685a1.51 1.51 0 0 1 .846-.883c.2-.083.42-.124.662-.124.235 0 .444.038.627.115.183.077.342.18.477.307l-.161.228a.137.137 0 0 1-.042.041.106.106 0 0 1-.062.017c-.029 0-.064-.015-.104-.044a1.26 1.26 0 0 0-.154-.097 1.14 1.14 0 0 0-.236-.1 1.188 1.188 0 0 0-.35-.043c-.164 0-.315.03-.452.088a.992.992 0 0 0-.355.249 1.14 1.14 0 0 0-.23.398 1.63 1.63 0 0 0-.081.533c0 .201.028.38.085.537.057.157.136.29.235.399a1 1 0 0 0 .353.249c.135.057.281.085.438.085.095 0 .181-.005.256-.016.077-.012.147-.03.21-.053a.972.972 0 0 0 .35-.219.187.187 0 0 1 .039-.025.09.09 0 0 1 .044-.012Zm3.016-2.19h-1.052v2.9h-.488v-2.9h-1.056v-.41h2.596v.41Zm.969 2.9h-.493v-3.31h.493v3.31Zm3.902-1.655c0 .247-.04.475-.12.682-.079.206-.19.385-.334.535-.145.15-.318.265-.519.348a1.747 1.747 0 0 1-.671.125c-.244 0-.468-.042-.671-.125a1.528 1.528 0 0 1-.519-.348 1.617 1.617 0 0 1-.334-.535 1.882 1.882 0 0 1-.12-.682c0-.246.04-.473.12-.68a1.511 1.511 0 0 1 .853-.885 1.73 1.73 0 0 1 .671-.127c.246 0 .469.042.671.127a1.511 1.511 0 0 1 .853.885c.08.207.12.434.12.68Zm-.503 0c0-.197-.027-.373-.081-.53a1.107 1.107 0 0 0-.23-.4.975.975 0 0 0-.36-.25 1.208 1.208 0 0 0-.47-.088c-.174 0-.331.03-.473.088a1.014 1.014 0 0 0-.359.25c-.1.11-.177.243-.231.4-.054.157-.08.333-.08.53 0 .198.026.376.08.532.054.156.131.288.231.397.1.11.22.193.359.251.142.057.299.086.473.086s.33-.029.47-.086a.975.975 0 0 0 .36-.251c.1-.11.177-.241.23-.397a1.63 1.63 0 0 0 .081-.532Zm3.83-1.655v3.31h-.249a.203.203 0 0 1-.096-.02.305.305 0 0 1-.077-.067l-1.869-2.419.007.123a1.5 1.5 0 0 1 .004.112v2.271h-.431v-3.31h.254c.043 0 .075.005.097.016a.2.2 0 0 1 .071.067l1.874 2.42-.011-.129c-.002-.043-.002-.083-.002-.12v-2.254h.428Zm2.532.54a.181.181 0 0 1-.048.057.109.109 0 0 1-.065.018.171.171 0 0 1-.094-.037 1.424 1.424 0 0 0-.134-.085.892.892 0 0 0-.189-.085.798.798 0 0 0-.265-.04.767.767 0 0 0-.256.04.515.515 0 0 0-.182.103.433.433 0 0 0-.15.346c0 .09.022.163.067.222a.597.597 0 0 0 .18.15c.073.041.157.077.251.108.094.03.19.063.288.097.098.032.195.07.288.113.094.043.178.097.252.163a.719.719 0 0 1 .177.24.78.78 0 0 1 .069.346c0 .146-.025.283-.076.41a.94.94 0 0 1-.217.335c-.095.095-.212.17-.352.225a1.466 1.466 0 0 1-.782.048c-.1-.02-.194-.048-.283-.085a1.613 1.613 0 0 1-.252-.135 1.314 1.314 0 0 1-.207-.18l.141-.236a.19.19 0 0 1 .048-.046.124.124 0 0 1 .067-.018c.032 0 .069.017.11.05a1.328 1.328 0 0 0 .381.224c.087.034.194.051.318.051a.877.877 0 0 0 .272-.04.505.505 0 0 0 .327-.297c.03-.07.044-.149.044-.235a.392.392 0 0 0-.067-.237.535.535 0 0 0-.177-.155 1.324 1.324 0 0 0-.251-.106l-.289-.09a3.168 3.168 0 0 1-.288-.11.948.948 0 0 1-.251-.162.754.754 0 0 1-.178-.25.938.938 0 0 1-.066-.374.886.886 0 0 1 .269-.637.983.983 0 0 1 .328-.205 1.17 1.17 0 0 1 .442-.078c.186 0 .357.03.512.09.157.058.293.143.408.253l-.12.233Z" fill="#A6B4CD"/>
    <rect x="238.032" y="85.702" width="239.756" height="22.131" rx="1" fill="#F7F9FC"/>
    <path fill="#DBE2EA" d="M243.565 95.845h18.443v1.844h-18.443zM313.647 95.845h18.443v1.844h-18.443zM383.73 95.845h18.443v1.844H383.73zM453.812 95.845h18.443v1.844h-18.443z"/>
    <rect x="238.032" y="111.521" width="239.756" height="22.131" rx="1" fill="#F7F9FC"/>
    <path fill="#DBE2EA" d="M243.565 121.665h18.443v1.844h-18.443zM313.647 121.665h18.443v1.844h-18.443zM383.73 121.665h18.443v1.844H383.73zM453.812 121.665h18.443v1.844h-18.443z"/>
    <rect x="238.032" y="137.341" width="239.756" height="22.131" rx="1" fill="#F7F9FC"/>
    <path fill="#DBE2EA" d="M243.565 147.485h18.443v1.844h-18.443zM313.647 147.485h18.443v1.844h-18.443zM383.73 147.485h18.443v1.844H383.73zM453.812 147.485h18.443v1.844h-18.443z"/>
    <rect x="238.032" y="163.161" width="239.756" height="22.131" rx="1" fill="#F7F9FC"/>
    <path fill="#DBE2EA" d="M243.565 173.305h18.443v1.844h-18.443zM313.647 173.305h18.443v1.844h-18.443zM383.73 173.305h18.443v1.844H383.73zM453.812 173.305h18.443v1.844h-18.443z"/>
    <rect x="238.032" y="188.981" width="239.756" height="22.131" rx="1" fill="#F7F9FC"/>
  </g>
  <g clip-path="url(#b)">
    <path d="M194.284 0H.5v117.185h193.784V0Z" fill="#fff"/>
    <rect x="29.086" y="20.287" width="134.863" height="73.771" rx="3.689" fill="#F2F4F8"/>
    <rect x="39.46" y="29.509" width="110.656" height="13.832" rx="1.153" fill="#DBE2EA"/>
    <rect x="67.124" y="50.257" width="32.275" height="2.305" rx="1.153" fill="#fff"/>
    <rect x="101.704" y="50.257" width="19.595" height="2.305" rx="1.153" fill="#fff"/>
    <rect x="67.124" y="57.172" width="19.595" height="2.305" rx="1.153" fill="#fff"/>
    <rect x="89.025" y="57.172" width="32.275" height="2.305" rx="1.153" fill="#fff"/>
    <rect x="67.124" y="64.089" width="43.801" height="2.305" rx="1.153" fill="#fff"/>
    <rect x="113.231" y="64.089" width="8.069" height="2.305" rx="1.153" fill="#fff"/>
    <rect x="74.041" y="73.31" width="41.496" height="13.832" rx="2.305" fill="#1DA1F2"/>
    <path d="m104.679 83.766-7.864-2.359a.679.679 0 0 0-.845.846l2.359 7.863a.679.679 0 0 0 1.28.057l1.465-3.662 3.662-1.464a.679.679 0 0 0-.057-1.28Z" fill="#1F3965"/>
    <path d="M81.668 80.733c.126 0 .237-.015.332-.046a.688.688 0 0 0 .242-.13.548.548 0 0 0 .146-.2.672.672 0 0 0 .048-.258c0-.19-.063-.334-.189-.431-.124-.097-.312-.145-.563-.145h-.463v1.21h.447Zm1.545 1.715h-.438c-.088 0-.151-.034-.191-.103l-.819-1.149a.233.233 0 0 0-.085-.08.294.294 0 0 0-.138-.026h-.32v1.358h-.492v-3.31h.954c.214 0 .398.022.552.067.155.043.282.105.382.186a.72.72 0 0 1 .224.29c.049.115.073.242.073.383a.98.98 0 0 1-.053.326.853.853 0 0 1-.156.274.974.974 0 0 1-.25.207c-.098.059-.209.103-.334.134a.507.507 0 0 1 .16.155l.93 1.288Zm1.732-1.431a.748.748 0 0 0-.04-.247.508.508 0 0 0-.29-.325.609.609 0 0 0-.244-.046.604.604 0 0 0-.447.163.796.796 0 0 0-.206.455h1.227Zm.371 1.097a.915.915 0 0 1-.191.168c-.073.046-.15.084-.23.113a1.615 1.615 0 0 1-.51.085 1.23 1.23 0 0 1-.45-.08 1.03 1.03 0 0 1-.357-.24 1.131 1.131 0 0 1-.235-.392 1.618 1.618 0 0 1-.083-.54c0-.162.025-.314.076-.453a1.018 1.018 0 0 1 .565-.616c.136-.06.29-.09.46-.09.144 0 .275.024.395.072a.862.862 0 0 1 .519.532c.05.13.076.28.076.447 0 .07-.008.116-.023.141-.016.023-.044.035-.086.035h-1.535c.005.14.025.262.06.366a.75.75 0 0 0 .145.258.59.59 0 0 0 .224.155c.086.034.182.05.288.05.1 0 .186-.011.258-.034a1.268 1.268 0 0 0 .323-.15.19.19 0 0 1 .097-.035c.037 0 .065.014.085.042l.13.166Zm2.028-1.44a.605.605 0 0 0-.238-.201.685.685 0 0 0-.288-.06.568.568 0 0 0-.48.223c-.111.148-.167.364-.167.648 0 .15.012.277.036.383.027.104.063.19.111.258a.46.46 0 0 0 .18.148c.07.03.15.046.24.046.13 0 .243-.03.338-.088.096-.058.185-.14.268-.247v-1.11Zm.452-.568v3.128h-.452v-1.12c-.097.11-.207.2-.33.267a.887.887 0 0 1-.426.1.772.772 0 0 1-.64-.307 1.108 1.108 0 0 1-.179-.376 1.922 1.922 0 0 1-.062-.514c0-.174.023-.335.07-.484.045-.15.112-.278.2-.387a.934.934 0 0 1 .74-.35c.075 0 .144.006.207.02a.784.784 0 0 1 .452.281l.03-.168c.015-.06.055-.09.118-.09h.272Zm2.575 0v2.342h-.27c-.061 0-.101-.03-.12-.09l-.032-.235c-.05.054-.104.103-.159.148a1.036 1.036 0 0 1-.178.115.975.975 0 0 1-.428.1.845.845 0 0 1-.341-.065.684.684 0 0 1-.245-.18.796.796 0 0 1-.15-.281c-.034-.11-.05-.23-.05-.362v-1.492h.451v1.492c0 .167.039.298.116.392.076.092.194.138.352.138a.67.67 0 0 0 .323-.08c.1-.056.194-.132.281-.227v-1.715h.45Zm2.179.91a.748.748 0 0 0-.04-.246.507.507 0 0 0-.29-.325.608.608 0 0 0-.244-.046.604.604 0 0 0-.447.163.796.796 0 0 0-.206.455h1.227Zm.371 1.098a.918.918 0 0 1-.191.168c-.073.046-.15.084-.23.113a1.615 1.615 0 0 1-.51.085 1.23 1.23 0 0 1-.45-.08 1.032 1.032 0 0 1-.357-.24 1.13 1.13 0 0 1-.235-.392 1.615 1.615 0 0 1-.083-.54c0-.162.025-.314.076-.453a1.017 1.017 0 0 1 .565-.616c.136-.06.29-.09.46-.09.144 0 .275.024.395.072a.862.862 0 0 1 .519.532c.05.13.076.28.076.447 0 .07-.008.116-.023.141-.016.023-.044.035-.086.035h-1.535c.005.14.025.262.06.366.035.103.084.19.145.258a.59.59 0 0 0 .224.155c.086.034.182.05.288.05.1 0 .186-.011.258-.034a1.262 1.262 0 0 0 .323-.15.19.19 0 0 1 .097-.035c.037 0 .065.014.085.042l.13.166Zm1.899-1.605a.138.138 0 0 1-.04.044.108.108 0 0 1-.052.012.176.176 0 0 1-.084-.026 1.393 1.393 0 0 0-.255-.11.717.717 0 0 0-.38 0 .39.39 0 0 0-.135.067.285.285 0 0 0-.115.226c0 .058.017.106.051.145.035.038.08.071.136.099.057.028.12.053.191.076.073.022.146.045.22.07.075.024.148.052.218.084a.73.73 0 0 1 .192.118.507.507 0 0 1 .189.41c0 .11-.02.21-.06.305a.648.648 0 0 1-.173.24.806.806 0 0 1-.281.158c-.113.039-.24.058-.385.058a1.211 1.211 0 0 1-.791-.286l.106-.173a.126.126 0 0 1 .046-.048.13.13 0 0 1 .074-.018c.029 0 .059.01.09.032a.948.948 0 0 0 .267.14c.062.02.139.03.23.03a.65.65 0 0 0 .201-.027.425.425 0 0 0 .14-.079.323.323 0 0 0 .114-.25.221.221 0 0 0-.053-.153.418.418 0 0 0-.136-.106 1.054 1.054 0 0 0-.192-.076 8.684 8.684 0 0 1-.22-.07 2.272 2.272 0 0 1-.222-.085.782.782 0 0 1-.194-.122.59.59 0 0 1-.136-.18.595.595 0 0 1-.05-.258.634.634 0 0 1 .218-.48.805.805 0 0 1 .266-.15c.106-.038.226-.057.362-.057.155 0 .295.025.42.074.125.05.233.117.322.203l-.1.163Zm1.356 1.976c-.19 0-.335-.053-.438-.159-.102-.106-.153-.257-.153-.454V80.47h-.272a.101.101 0 0 1-.067-.023c-.016-.017-.025-.041-.025-.074v-.182l.38-.053.102-.698a.106.106 0 0 1 .035-.06.105.105 0 0 1 .069-.023h.228v.786h.664v.327h-.664v1.372c0 .092.022.161.067.207a.242.242 0 0 0 .175.067.307.307 0 0 0 .106-.016.47.47 0 0 0 .134-.071.075.075 0 0 1 .041-.016c.016 0 .027.003.035.011.01.006.018.017.028.032l.133.217a.775.775 0 0 1-.263.157.916.916 0 0 1-.315.055Zm4.09-.45v.413h-1.895v-3.31h.491v2.898h1.404Zm1.784-1.018a.751.751 0 0 0-.039-.247.523.523 0 0 0-.29-.325.61.61 0 0 0-.245-.046.604.604 0 0 0-.447.163.798.798 0 0 0-.205.455h1.226Zm.372 1.097a.942.942 0 0 1-.422.281 1.61 1.61 0 0 1-.51.085c-.161 0-.311-.026-.449-.08a1.036 1.036 0 0 1-.358-.24 1.13 1.13 0 0 1-.235-.392 1.626 1.626 0 0 1-.083-.54c0-.162.026-.314.076-.453a1.012 1.012 0 0 1 .565-.616c.137-.06.291-.09.461-.09.143 0 .275.024.394.072a.863.863 0 0 1 .519.532c.051.13.076.28.076.447 0 .07-.008.116-.023.141-.015.023-.044.035-.085.035h-1.536c.005.14.025.262.06.366.036.103.084.19.146.258a.59.59 0 0 0 .223.155c.086.034.182.05.288.05a.86.86 0 0 0 .259-.034 1.334 1.334 0 0 0 .322-.15.193.193 0 0 1 .097-.035c.037 0 .066.014.085.042l.13.166Zm1.776-.706c-.183.007-.338.021-.466.044-.127.022-.231.051-.311.088a.422.422 0 0 0-.173.131.28.28 0 0 0-.053.166c0 .059.009.11.028.153.02.041.046.076.078.103a.337.337 0 0 0 .118.058.545.545 0 0 0 .145.018.798.798 0 0 0 .353-.078.85.85 0 0 0 .145-.095c.046-.036.091-.079.136-.126v-.462Zm-1.319-.975c.131-.124.272-.217.425-.279.153-.061.322-.092.504-.092.134 0 .253.023.355.067a.722.722 0 0 1 .42.463c.037.11.055.23.055.362v1.494h-.2a.201.201 0 0 1-.102-.02.159.159 0 0 1-.055-.084l-.048-.205c-.06.056-.119.105-.178.148a.96.96 0 0 1-.387.175 1.157 1.157 0 0 1-.24.023.892.892 0 0 1-.26-.037.558.558 0 0 1-.353-.314.685.685 0 0 1-.051-.274c0-.092.025-.18.074-.265a.687.687 0 0 1 .244-.23c.114-.068.262-.123.443-.166.183-.043.407-.068.673-.074v-.17c0-.177-.038-.31-.113-.397-.075-.088-.186-.132-.332-.132a.739.739 0 0 0-.422.12c-.047.03-.09.056-.127.081a.19.19 0 0 1-.11.037.132.132 0 0 1-.081-.026.23.23 0 0 1-.053-.06l-.081-.145Zm4.345-.327-.95 2.342h-.406l-.949-2.342h.371c.035 0 .064.009.087.025a.124.124 0 0 1 .047.065l.56 1.439c.02.06.037.12.05.18.016.058.03.116.042.175a2.444 2.444 0 0 1 .097-.355l.567-1.44a.132.132 0 0 1 .048-.064.137.137 0 0 1 .083-.025h.353Zm1.842.91a.751.751 0 0 0-.04-.246.513.513 0 0 0-.29-.325.61.61 0 0 0-.245-.046.604.604 0 0 0-.447.163.798.798 0 0 0-.205.455h1.227Zm.371 1.098a.916.916 0 0 1-.192.168 1.147 1.147 0 0 1-.23.113 1.61 1.61 0 0 1-.51.085c-.161 0-.311-.026-.449-.08a1.036 1.036 0 0 1-.358-.24 1.146 1.146 0 0 1-.235-.392 1.626 1.626 0 0 1-.083-.54c0-.162.026-.314.076-.453a1.012 1.012 0 0 1 .565-.616c.137-.06.291-.09.461-.09.143 0 .275.024.394.072a.863.863 0 0 1 .519.532c.051.13.076.28.076.447 0 .07-.007.116-.023.141-.015.023-.044.035-.085.035h-1.535c.004.14.024.262.059.366.036.103.084.19.146.258a.59.59 0 0 0 .223.155c.086.034.182.05.289.05a.858.858 0 0 0 .258-.034 1.334 1.334 0 0 0 .322-.15.193.193 0 0 1 .097-.035.1.1 0 0 1 .086.042l.129.166Z" fill="#fff"/>
  </g>
  <path d="M215.876 186.565a.924.924 0 0 0-.022-1.305l-5.961-5.809a.919.919 0 1 0-1.28 1.319l5.298 5.164-5.122 5.279a.924.924 0 0 0 .022 1.305.92.92 0 0 0 1.303-.015l5.762-5.938Zm-69.552-11.791-.397.83.397-.83Zm68.89 11.146-.016-.923h-.03l-.095.001-.376.001c-.332.001-.823.001-1.457-.004a239.883 239.883 0 0 1-5.39-.103 286.824 286.824 0 0 1-17.993-1.099c-14.206-1.33-31.286-4.107-43.136-9.85l-.794 1.661c12.17 5.898 29.536 8.694 43.77 10.027 7.134.668 13.513.971 18.109 1.107 2.299.068 4.152.094 5.432.103.64.005 1.137.005 1.474.004l.384-.001.099-.001h.034l-.015-.923Zm-68.493-11.977c-16.165-7.834-27.236-20.128-34.272-30.491a103.085 103.085 0 0 1-7.64-13.254 77.66 77.66 0 0 1-1.787-4.005 51.162 51.162 0 0 1-.532-1.356l-.025-.068-.006-.016-.001-.004-.868.305c-.868.304-.868.305-.867.305v.002l.002.006.008.021.028.078.112.297c.098.258.246.637.445 1.123a79.182 79.182 0 0 0 1.831 4.102 104.78 104.78 0 0 0 7.779 13.496c7.151 10.533 18.448 23.099 34.999 31.12l.794-1.661Z" fill="#DBE2EA"/>
  <defs>
    <clipPath id="a">
      <path fill="#fff" transform="translate(234.344 38.802)" d="M0 0h248.149v158.531H0z"/>
    </clipPath>
    <clipPath id="b">
      <rect x=".5" width="193.589" height="117.185" rx="7.377" fill="#fff"/>
    </clipPath>
  </defs>
</svg>