<svg width="20" height="20" viewBox="0 0 20 20" fill="none" xmlns="http://www.w3.org/2000/svg">
<g clip-path="url(#clip0_11619_68883)">
<path d="M18.3327 10.0013C18.3327 5.4013 14.5993 1.66797 9.99935 1.66797C5.39935 1.66797 1.66602 5.4013 1.66602 10.0013C1.66602 14.6013 5.39935 18.3346 9.99935 18.3346C14.5993 18.3346 18.3327 14.6013 18.3327 10.0013ZM12.4993 5.41797L15.1243 8.04297C15.291 8.20964 15.291 8.46797 15.1243 8.63464L12.4993 11.2513V9.16797H9.16602V7.5013H12.4993V5.41797ZM7.49935 14.5846L4.87435 11.9596C4.70768 11.793 4.70768 11.5346 4.87435 11.368L7.49935 8.7513V10.8346H10.8327V12.5013H7.49935V14.5846Z" fill="white"/>
</g>
<defs>
<clipPath id="clip0_11619_68883">
<rect width="20" height="20" fill="white" transform="translate(0 0.000976562)"/>
</clipPath>
</defs>
</svg>
