<svg width="20" height="20" viewBox="0 0 20 20" fill="none" xmlns="http://www.w3.org/2000/svg">
<path d="M17.5006 2.50098H2.50065C1.58398 2.50098 0.833984 3.25098 0.833984 4.16764V15.8343C0.833984 16.751 1.58398 17.501 2.50065 17.501H17.5006C18.4173 17.501 19.1673 16.751 19.1673 15.8343V4.16764C19.1673 3.25098 18.4173 2.50098 17.5006 2.50098ZM9.16732 9.16764H3.33398C2.87565 9.16764 2.50065 8.79264 2.50065 8.33431C2.50065 7.87598 2.87565 7.50098 3.33398 7.50098H9.16732C9.62565 7.50098 10.0007 7.87598 10.0007 8.33431C10.0007 8.79264 9.62565 9.16764 9.16732 9.16764ZM9.16732 5.83431H3.33398C2.87565 5.83431 2.50065 5.45931 2.50065 5.00098C2.50065 4.54264 2.87565 4.16764 3.33398 4.16764H9.16732C9.62565 4.16764 10.0007 4.54264 10.0007 5.00098C10.0007 5.45931 9.62565 5.83431 9.16732 5.83431Z" fill="white"/>
</svg>
