<svg width="20" height="20" viewBox="0 0 20 20" fill="none" xmlns="http://www.w3.org/2000/svg">
<g clip-path="url(#clip0_11619_68799)">
<path d="M3.33333 11.667H5C5.45833 11.667 5.83333 11.292 5.83333 10.8337V9.16699C5.83333 8.70866 5.45833 8.33366 5 8.33366H3.33333C2.875 8.33366 2.5 8.70866 2.5 9.16699V10.8337C2.5 11.292 2.875 11.667 3.33333 11.667ZM3.33333 15.8337H5C5.45833 15.8337 5.83333 15.4587 5.83333 15.0003V13.3337C5.83333 12.8753 5.45833 12.5003 5 12.5003H3.33333C2.875 12.5003 2.5 12.8753 2.5 13.3337V15.0003C2.5 15.4587 2.875 15.8337 3.33333 15.8337ZM3.33333 7.50033H5C5.45833 7.50033 5.83333 7.12533 5.83333 6.66699V5.00033C5.83333 4.54199 5.45833 4.16699 5 4.16699H3.33333C2.875 4.16699 2.5 4.54199 2.5 5.00033V6.66699C2.5 7.12533 2.875 7.50033 3.33333 7.50033ZM7.5 11.667H15.8333C16.2917 11.667 16.6667 11.292 16.6667 10.8337V9.16699C16.6667 8.70866 16.2917 8.33366 15.8333 8.33366H7.5C7.04167 8.33366 6.66667 8.70866 6.66667 9.16699V10.8337C6.66667 11.292 7.04167 11.667 7.5 11.667ZM7.5 15.8337H15.8333C16.2917 15.8337 16.6667 15.4587 16.6667 15.0003V13.3337C16.6667 12.8753 16.2917 12.5003 15.8333 12.5003H7.5C7.04167 12.5003 6.66667 12.8753 6.66667 13.3337V15.0003C6.66667 15.4587 7.04167 15.8337 7.5 15.8337ZM6.66667 5.00033V6.66699C6.66667 7.12533 7.04167 7.50033 7.5 7.50033H15.8333C16.2917 7.50033 16.6667 7.12533 16.6667 6.66699V5.00033C16.6667 4.54199 16.2917 4.16699 15.8333 4.16699H7.5C7.04167 4.16699 6.66667 4.54199 6.66667 5.00033Z" fill="white"/>
</g>
<defs>
<clipPath id="clip0_11619_68799">
<rect width="20" height="20" fill="white"/>
</clipPath>
</defs>
</svg>
