<svg width="242" height="178" viewBox="0 0 242 178" fill="none" xmlns="http://www.w3.org/2000/svg">
<path d="M214.988 85.782C216.427 81.2338 224.767 76.9305 235.619 80.0089C235.619 80.0089 233.149 91.0103 227.006 94.1726C220.863 97.3349 214.538 93.9174 212.083 94.7774C212.085 94.7654 214.593 87.0394 214.988 85.782Z" fill="#36B37E"/>
<path d="M211.957 94.9468C212.003 94.9108 213.531 93.7476 215.775 92.127C217.146 91.7279 218.593 91.6737 219.99 91.969C221.386 92.2642 222.688 92.8999 223.78 93.8196C223.793 93.8356 223.808 93.8488 223.826 93.8583C223.844 93.8678 223.864 93.8735 223.884 93.8748C223.905 93.8762 223.925 93.8732 223.944 93.8661C223.963 93.8591 223.98 93.8481 223.995 93.8338C224.009 93.8196 224.02 93.8025 224.028 93.7835C224.035 93.7646 224.038 93.7444 224.037 93.7242C224.036 93.7039 224.031 93.684 224.022 93.6659C224.013 93.6478 224 93.6319 223.984 93.6192C222.946 92.7336 221.717 92.1003 220.394 91.7689C219.07 91.4376 217.688 91.4171 216.356 91.7091C217.356 90.9948 218.47 90.2068 219.645 89.3982C221.012 89.0015 222.457 88.9489 223.849 89.2451C225.242 89.5413 226.54 90.177 227.628 91.0958C227.654 91.123 227.691 91.1385 227.729 91.1389C227.768 91.1392 227.804 91.1244 227.832 91.0976C227.859 91.0708 227.874 91.0342 227.875 90.9959C227.875 90.9577 227.86 90.9209 227.833 90.8937C226.803 90.0145 225.585 89.384 224.272 89.051C222.96 88.718 221.588 88.6914 220.263 88.9733C220.508 88.802 223.05 87.0889 223.198 87.0307C225.739 86.1032 228.53 86.1221 231.059 87.0838C231.076 87.0919 231.095 87.0966 231.114 87.0975C231.132 87.0985 231.151 87.0957 231.169 87.0894C231.187 87.083 231.203 87.0732 231.217 87.0605C231.231 87.0478 231.243 87.0324 231.251 87.0153C231.259 86.9983 231.264 86.9797 231.265 86.9607C231.266 86.9418 231.263 86.9228 231.257 86.9049C231.251 86.887 231.241 86.8706 231.228 86.8566C231.215 86.8426 231.2 86.8314 231.182 86.8235C228.897 85.9485 226.391 85.8284 224.032 86.4808C226.551 84.7706 229.241 83.3272 232.059 82.1741C232.078 82.1685 232.095 82.1592 232.11 82.1468C232.125 82.1344 232.137 82.1193 232.146 82.1022C232.154 82.085 232.159 82.0663 232.161 82.0471C232.162 82.0278 232.16 82.0085 232.154 81.9903C232.148 81.972 232.138 81.9552 232.125 81.9408C232.112 81.9264 232.097 81.9147 232.079 81.9064C232.062 81.8982 232.043 81.8935 232.023 81.8927C232.004 81.8919 231.985 81.895 231.967 81.9017C229.376 82.9468 226.899 84.2544 224.575 85.8041C224.8 85.52 225.009 85.2232 225.2 84.9151C226.061 83.6969 226.403 82.1866 226.151 80.7164C226.141 80.681 226.117 80.651 226.085 80.6325C226.053 80.614 226.016 80.6084 225.98 80.6169C225.961 80.6215 225.944 80.6298 225.928 80.6413C225.913 80.6528 225.9 80.6672 225.891 80.6837C225.881 80.7001 225.875 80.7183 225.873 80.7372C225.87 80.756 225.872 80.7752 225.877 80.7934C226.001 81.8205 225.872 82.8624 225.501 83.8281C225.13 84.7938 224.528 85.654 223.748 86.3335C222.675 87.0187 221.596 87.7382 220.549 88.4422C220.688 88.2606 220.815 88.0757 220.931 87.8856C221.897 86.1076 222.35 84.0967 222.242 82.0764C222.236 82.0406 222.217 82.0083 222.188 81.9858C222.16 81.9633 222.124 81.9522 222.088 81.9548C222.052 81.9574 222.018 81.9736 221.994 82C221.969 82.0264 221.956 82.061 221.956 82.097C221.956 82.1433 222.252 86.8148 219.482 89.1498C219.465 89.1563 219.449 89.1662 219.436 89.1788C219.423 89.1915 219.412 89.2067 219.405 89.2235C218.578 89.7939 217.779 90.3558 217.031 90.8851C217.145 90.7298 217.249 90.5739 217.343 90.4174C218.307 88.6398 218.76 86.6296 218.651 84.6101C218.646 84.5744 218.627 84.5421 218.599 84.5196C218.57 84.4971 218.535 84.4861 218.499 84.4887C218.463 84.4913 218.429 84.5073 218.404 84.5337C218.379 84.56 218.365 84.5946 218.365 84.6307C218.365 84.6769 218.663 89.3622 215.881 91.692L215.859 91.7177L215.659 91.8616C215.638 91.8653 215.618 91.8737 215.601 91.8861C215.584 91.8986 215.571 91.9148 215.561 91.9335C213.334 93.5387 211.83 94.6864 211.792 94.7207C211.775 94.7311 211.76 94.7449 211.749 94.7614C211.737 94.7778 211.729 94.7966 211.725 94.8163C211.721 94.836 211.722 94.8562 211.726 94.8758C211.731 94.8953 211.739 94.9138 211.751 94.9299C211.763 94.946 211.778 94.9594 211.796 94.9692C211.813 94.9791 211.833 94.9852 211.853 94.9871C211.873 94.989 211.893 94.9867 211.912 94.9803C211.931 94.974 211.949 94.9637 211.963 94.9502L211.957 94.9468Z" fill="#1D7E8E"/>
<path d="M35.6023 176.472C27.7222 180.573 11.0557 175.257 0.804688 156.914C0.804688 156.914 18.5538 145.678 30.8108 149.595C43.0679 153.513 46.9137 166.353 51.2752 168.451C51.27 168.446 37.7847 175.329 35.6023 176.472Z" fill="#36B37E"/>
<path d="M51.6686 168.383C51.5607 168.369 48.0146 167.888 42.9182 167.068C40.5866 165.789 38.6073 163.954 37.1566 161.726C35.7058 159.497 34.8285 156.944 34.603 154.295C34.5976 154.227 34.567 154.165 34.5173 154.119C34.4676 154.073 34.4025 154.047 34.3349 154.047C34.2673 154.047 34.2022 154.073 34.1525 154.119C34.1028 154.165 34.0722 154.227 34.0668 154.295C34.2686 156.828 35.0541 159.281 36.3617 161.46C37.6694 163.64 39.4638 165.487 41.6043 166.857C39.3465 166.485 36.8402 166.053 34.2278 165.574C31.9046 164.295 29.9327 162.463 28.4864 160.24C27.0402 158.017 26.1645 155.472 25.9366 152.83C25.9366 152.759 25.9084 152.691 25.8583 152.641C25.8082 152.591 25.7402 152.563 25.6693 152.563C25.5985 152.563 25.5305 152.591 25.4804 152.641C25.4303 152.691 25.4021 152.759 25.4021 152.83C25.6009 155.347 26.3762 157.783 27.6682 159.952C28.9601 162.121 30.734 163.963 32.8522 165.336C30.7537 164.94 28.6038 164.517 26.4762 164.063C26.4599 164.049 26.4421 164.038 26.4231 164.029C21.8526 161.903 18.2004 158.202 16.1344 153.605C16.1058 153.544 16.0557 153.497 15.9939 153.471C15.9321 153.446 15.863 153.444 15.8002 153.467C15.7373 153.489 15.6851 153.535 15.6538 153.594C15.6225 153.653 15.6143 153.721 15.6308 153.786C17.4807 157.954 20.625 161.415 24.597 163.655C19.0249 162.591 13.5784 160.95 8.34509 158.761C8.28149 158.73 8.20793 158.725 8.14079 158.748C8.07364 158.77 8.01833 158.819 7.98698 158.882C7.95563 158.946 7.95089 159.02 7.9737 159.087C7.99651 159.154 8.04508 159.209 8.10869 159.24C12.898 161.277 17.8834 162.818 22.9867 163.838C22.3158 163.917 21.65 164.034 20.9927 164.19C19.6361 164.422 18.3388 164.92 17.175 165.655C16.0112 166.39 15.0038 167.347 14.2106 168.472C14.1907 168.503 14.1773 168.538 14.1713 168.574C14.1652 168.61 14.1666 168.647 14.1754 168.683C14.1842 168.718 14.2002 168.752 14.2224 168.781C14.2446 168.81 14.2725 168.834 14.3045 168.852C14.3364 168.87 14.3716 168.882 14.4081 168.886C14.4445 168.89 14.4815 168.886 14.5165 168.875C14.5515 168.864 14.5839 168.846 14.6118 168.822C14.6396 168.798 14.6622 168.769 14.6783 168.736C14.7022 168.693 17.1914 164.481 24.7854 164.241C27.1032 164.755 29.4672 165.228 31.7781 165.673C31.362 165.727 30.9492 165.804 30.5413 165.903C26.9279 166.975 23.6825 169.028 21.1656 171.833C21.1267 171.888 21.1095 171.955 21.1173 172.021C21.1252 172.088 21.1575 172.149 21.2081 172.193C21.2586 172.237 21.3237 172.26 21.3906 172.259C21.4576 172.257 21.5215 172.231 21.57 172.184C21.6282 172.118 27.3944 165.574 34.1164 166.144C34.1803 166.169 34.2514 166.169 34.3152 166.144C36.1602 166.487 37.9486 166.797 39.6257 167.08C39.2831 167.131 38.9405 167.197 38.5979 167.277C34.9845 168.349 31.7391 170.402 29.2222 173.207C29.1933 173.233 29.1701 173.264 29.1544 173.299C29.1386 173.334 29.1305 173.372 29.1307 173.41C29.131 173.449 29.1395 173.487 29.1557 173.521C29.1719 173.556 29.1955 173.587 29.2247 173.612C29.254 173.637 29.2883 173.655 29.3253 173.666C29.3623 173.676 29.4011 173.678 29.4391 173.673C29.477 173.667 29.5132 173.653 29.5453 173.632C29.5774 173.61 29.6045 173.582 29.6249 173.55C29.6831 173.483 35.4663 166.922 42.2004 167.513H42.2639L42.7161 167.585C42.7481 167.607 42.7845 167.621 42.8226 167.627C42.8608 167.634 42.8999 167.631 42.9371 167.621C47.9787 168.433 51.4785 168.906 51.5847 168.919C51.6537 168.927 51.7228 168.907 51.7774 168.864C51.8319 168.821 51.8677 168.758 51.877 168.69C51.8864 168.621 51.8686 168.551 51.8275 168.495C51.7863 168.439 51.725 168.402 51.6566 168.39L51.6686 168.383Z" fill="#00A09D"/>
<path d="M71.7328 153.575C71.0065 153.842 63.3627 151.065 62.7717 146.651C62.5011 144.633 65.0177 137.241 65.7217 135.334C70.801 121.52 76.7745 105.013 81.8537 91.202C82.8816 88.4217 85.2148 85.7065 86.4396 85.5146C88.1703 85.0754 89.9717 84.9892 91.7364 85.2611C93.2867 85.7647 97.0178 99.8633 95.93 102.935C94.9021 105.835 82.7393 134.753 81.487 137.301C80.0069 140.341 76.0361 151.999 71.7328 153.575Z" fill="#FBAE3E"/>
<path d="M148.126 149.553C149.462 150.166 156.65 147.804 156.977 146.032C157.064 142.901 156.692 139.773 155.874 136.749C151.944 122.565 147.346 105.625 143.418 91.4386C142.628 88.5863 140.52 85.686 139.307 85.3948C137.618 84.8154 135.83 84.5823 134.049 84.7095C132.465 85.083 127.584 98.8305 128.418 101.979C129.198 104.955 138.959 134.776 139.989 137.416C141.224 140.564 143.959 147.65 148.126 149.553Z" fill="#FBAE3E"/>
<path d="M91.6443 135.333C92.2725 138.03 92.6107 140.787 92.6533 143.556C92.5146 150.778 91.3738 163.744 90.9078 168.808H134.834C134.286 163.718 132.964 150.769 132.82 143.556C132.864 140.787 133.203 138.03 133.83 135.333C137.027 119.033 136.554 103.831 136.015 87.0003C135.953 85.0851 135.672 84.6996 133.788 84.1171L126.497 81.8628C124.302 81.1824 122.018 80.8359 119.72 80.835H105.765C103.468 80.8363 101.183 81.1828 98.9883 81.8628L91.6991 84.1171C89.8147 84.6996 89.5356 85.0868 89.4723 87.0003C88.9189 103.879 88.4546 119.093 91.6443 135.333Z" fill="#D6E4EF"/>
<path d="M160.806 87.593C161.624 105.089 159.524 122.392 158.45 139.919C157.251 144.942 155.105 149.772 151.769 150.368C146.346 148.28 144.917 140.455 145.032 134.692C145.146 128.929 151.542 101.411 154.625 83.8792C154.628 83.886 160.684 84.9857 160.806 87.593Z" fill="#FFAE94"/>
<path d="M154.925 76.6839C155.978 73.5798 155.406 71.6407 157.223 68.8175C158.765 66.4192 162.114 61.1858 163.709 58.7395C164.802 57.0624 165.905 60.5348 164.812 62.2102C163.18 64.7062 162.548 67.4453 160.898 70.6916C159.56 73.3246 159.553 76.2334 158.618 78.9983C157.986 80.857 154.294 78.5409 154.925 76.6839Z" fill="#FFAE94"/>
<path d="M155.094 72.6841C155.533 72.9547 155.522 72.9548 161.321 76.9394C162.254 77.4894 163.067 78.2218 163.711 79.0927C164.175 79.9027 164.386 80.8326 164.317 81.7633C164.061 84.4345 163.034 86.9738 161.362 89.0731C160.392 89.9255 159.207 90.4965 157.936 90.7244C155.231 89.5253 152.668 84.6688 151.598 82.4161C150.562 79.9773 150.022 77.3568 150.01 74.7073C149.88 74.2604 149.883 73.7855 150.018 73.3403C150.154 72.8951 150.416 72.499 150.772 72.2001C151.129 71.9012 151.565 71.7125 152.027 71.657C152.489 71.6015 152.957 71.6816 153.374 71.8876C153.983 72.0677 154.563 72.3361 155.094 72.6841Z" fill="#FFAE94"/>
<path d="M161.321 76.9463C155.569 72.9925 155.325 72.8109 154.704 72.4597C155.598 74.918 157.035 77.6863 155.577 80.5745C156.773 79.8545 158.112 79.407 159.5 79.264C160.432 79.268 161.35 79.4848 162.186 79.8977C163.021 80.3107 163.75 80.909 164.319 81.6469C164.36 79.228 163.303 78.3013 161.321 76.9463Z" fill="#ED7C67"/>
<path d="M162.925 75.4008C163.489 74.8609 163.938 74.2131 164.247 73.4959C164.35 73.2078 164.361 72.8945 164.277 72.6002C164.193 72.3058 164.019 72.0452 163.78 71.8548C163.514 71.7041 163.214 71.6262 162.909 71.6292C162.604 71.6322 162.305 71.716 162.042 71.8719C161.383 72.2265 161.107 72.6376 158.973 75.1833C157.186 77.0796 156.06 78.3558 156.434 80.3327C156.45 80.5318 156.545 80.7165 156.696 80.8467C156.82 80.9075 156.957 80.9374 157.095 80.9338C157.233 80.9302 157.368 80.8933 157.489 80.8261C158.529 80.3072 159.432 79.5514 160.126 78.6196L162.925 75.4008Z" fill="#FFAE94"/>
<path d="M165.073 77.5304C165.637 76.9898 166.087 76.3415 166.396 75.6238C166.499 75.3355 166.509 75.0221 166.425 74.7278C166.34 74.4334 166.166 74.1729 165.926 73.9827C165.661 73.832 165.36 73.7542 165.055 73.7572C164.75 73.7602 164.451 73.8439 164.189 73.9998C163.529 74.3544 163.252 74.7655 161.119 77.3129C159.334 79.2092 158.216 80.4855 158.582 82.4624C158.59 82.5613 158.617 82.6576 158.663 82.7458C158.708 82.834 158.77 82.9123 158.846 82.9763C158.97 83.0374 159.107 83.0674 159.246 83.0638C159.384 83.0603 159.52 83.0232 159.641 82.9557C160.68 82.4368 161.582 81.6811 162.276 80.7493L165.073 77.5304Z" fill="#FFAE94"/>
<path d="M166.767 79.6407C167.243 79.1812 167.625 78.6323 167.889 78.0252C167.979 77.7814 167.988 77.5155 167.917 77.2657C167.846 77.016 167.696 76.7954 167.491 76.6359C167.268 76.5058 167.013 76.4386 166.755 76.441C166.496 76.4434 166.243 76.5154 166.022 76.6496C165.462 76.9494 165.23 77.2954 163.421 79.459C161.907 81.0642 160.96 82.1469 161.27 83.8291C161.284 83.9981 161.364 84.1548 161.492 84.266C161.598 84.317 161.714 84.3419 161.831 84.3386C161.948 84.3354 162.063 84.3039 162.165 84.247C163.044 83.8062 163.807 83.1648 164.393 82.3747L166.767 79.6407Z" fill="#FFAE94"/>
<path d="M162.837 70.4452C162.695 69.282 156.078 70.0597 152.902 71.0704C152.064 71.3691 151.284 71.812 150.599 72.3792C150.098 73.8404 150.058 75.4204 150.484 76.9051C150.699 77.1898 150.99 77.4073 151.324 77.5321C151.658 77.6568 152.02 77.6836 152.369 77.6092C152.879 77.4137 153.33 77.0911 153.681 76.6722C154.879 75.3906 156.428 74.4908 158.135 74.0854C159.281 73.9163 160.4 73.5937 161.46 73.1261C161.913 72.8485 162.281 72.4515 162.524 71.9787C162.767 71.5059 162.876 70.9754 162.837 70.4452Z" fill="#FFAE94"/>
<path d="M91.3644 145.582C91.2411 151.981 87.0698 162.662 84.4316 168.805H110.213C110.808 163.837 110.931 158.684 111.186 155.467C112.124 141.682 109.131 125.62 108.617 116.972C108.103 108.325 100.394 94.089 98.8746 81.5647C98.2493 81.736 99.421 81.3935 90.8814 84.0247C90.0608 84.28 87.481 84.8641 86.9688 85.5545C86.4772 86.2158 87.0699 120.023 90.0729 135.867C90.8366 139.053 91.2693 142.308 91.3644 145.582Z" fill="#FFCD56"/>
<path d="M96.7573 83.4626C97.213 95.5448 97.929 109.116 99.0373 119.711C99.1127 120.429 103.824 120.167 106.559 119.255C106.559 120.395 105.646 121.763 106.332 122.447C107.702 124.442 108.877 126.564 109.84 128.785C109.307 124.187 108.798 120.095 108.607 116.965C108.079 108.316 100.384 94.0819 98.8627 81.5576C98.6914 81.6073 98.52 81.6536 98.3487 81.7135C97.8125 81.878 96.7025 83.0291 96.7573 83.4626Z" fill="#FBAE3E"/>
<path d="M95.7744 135.828C91.8343 132.825 87.7639 129.661 85.2525 124.941C83.9264 122.635 83.3399 119.977 83.5721 117.327C84.141 114.79 85.1561 112.374 86.5699 110.192C88.8124 105.794 90.114 100.977 90.3917 96.0488L95.7744 135.828Z" fill="#FFCD56"/>
<path d="M96.0735 132.479C89.8157 129.349 83.5681 123.165 83.9398 115.673C83.7712 116.213 83.6481 116.766 83.5716 117.326C83.3382 119.977 83.9242 122.635 85.2503 124.941C86.3037 126.881 87.6269 128.662 89.1802 130.231C89.3013 131.168 89.4285 132.067 89.5621 132.929C91.7111 132.554 93.8933 132.403 96.0735 132.479Z" fill="#FBAE3E"/>
<path d="M133.818 145.582C133.916 142.308 134.352 139.052 135.12 135.867C138.123 120.022 138.709 86.2158 138.224 85.5545C137.71 84.8693 135.13 84.2783 134.31 84.0247C125.772 81.3866 126.935 81.7411 126.318 81.5647C124.794 94.089 117.112 108.323 116.574 116.972C116.036 125.621 113.064 141.682 113.994 155.467C114.25 158.684 114.373 163.842 114.971 168.805H140.751C138.113 162.662 133.941 151.975 133.818 145.582Z" fill="#FFCD56"/>
<path d="M128.423 83.4626C127.968 95.5448 127.25 109.116 126.143 119.711C126.068 120.429 121.357 120.167 118.619 119.255C118.619 120.395 119.531 121.763 118.847 122.447C117.475 124.441 116.3 126.564 115.339 128.785C115.868 124.187 116.38 120.095 116.572 116.965C117.102 108.316 124.795 94.0819 126.316 81.5576C126.487 81.6073 126.659 81.6536 126.83 81.7135C127.368 81.878 128.478 83.0291 128.423 83.4626Z" fill="#FBAE3E"/>
<path d="M129.408 135.828C133.348 132.825 137.42 129.661 139.933 124.941C141.26 122.635 141.845 119.977 141.61 117.327C141.043 114.79 140.028 112.373 138.613 110.192C136.371 105.794 135.069 100.977 134.791 96.0488L129.408 135.828Z" fill="#FFCD56"/>
<path d="M129.109 132.479C135.368 129.349 141.614 123.165 141.243 115.673C141.411 116.213 141.533 116.766 141.609 117.326C141.843 119.977 141.257 122.635 139.93 124.941C138.878 126.881 137.555 128.662 136.002 130.231C135.879 131.168 135.751 132.067 135.619 132.929C133.47 132.554 131.289 132.403 129.109 132.479Z" fill="#A82B58"/>
<path d="M96.982 128.566C92.8055 127.968 87.9285 127.367 84.9512 124.165C86.0444 126.409 87.4975 128.458 89.2527 130.233C90.6865 141.208 92.5777 142.995 90.5322 151.622C92.492 149.27 94.1503 146.654 96.0244 144.151C101.088 144.047 106.152 144.085 111.212 144.114C110.978 139.305 110.493 134.531 110.001 130.159C105.637 129.847 101.292 129.315 96.982 128.566Z" fill="#FFCD56"/>
<path d="M129.487 143.922C131.214 146.512 132.944 149.104 134.721 151.648C133.141 145.027 133.835 142.636 135.116 135.864C135.503 133.825 135.937 130.781 135.997 130.231C136.694 129.513 137.351 128.755 137.963 127.963C138.33 127.495 138.537 127.192 138.866 126.706C131.24 129.325 123.208 130.564 115.147 130.363C114.659 134.683 114.184 139.388 113.948 144.126C119.137 144.153 124.319 144.133 129.487 143.922Z" fill="#FFCD56"/>
<path d="M110.943 160.09C96.4045 159.704 84.7881 155.618 70.3709 153.535C66.3143 152.131 65.5109 149.131 65.9169 145.576C66.3229 142.022 70.1293 140.281 75.534 141.429C80.2159 142.421 99.5804 152.011 113.854 155.887C113.857 155.896 113.11 160.146 110.943 160.09Z" fill="#FFAE94"/>
<path d="M110.233 154.54C110.882 154.197 111.551 153.893 112.237 153.63C114.175 153.145 116.136 152.758 118.113 152.47C118.344 152.436 118.495 152.453 118.681 152.782C118.922 153.251 119.045 153.77 119.041 154.297C119.037 154.823 118.906 155.341 118.659 155.806C117.712 157.659 115.368 158.583 113.432 159.348C112.448 159.81 111.386 160.083 110.301 160.153C110.14 160.164 109.979 160.133 109.833 160.064C109.449 159.039 109.279 157.946 109.337 156.852C109.337 156.852 109.72 154.737 110.233 154.54Z" fill="#FFAE94"/>
<path d="M109.161 158.516C109.129 157.988 108.166 155.986 108.32 155.504C108.568 154.723 116.956 155.191 119.959 154.485C120.299 154.347 120.67 154.305 121.032 154.363C121.395 154.421 121.734 154.577 122.014 154.814C125.915 157.406 129.137 161.922 133.372 163.271C133.34 163.617 133.21 163.946 132.998 164.221C132.785 164.495 132.499 164.704 132.173 164.822C131.494 164.954 130.79 164.852 130.177 164.531C127.903 163.592 125.803 162.276 123.967 160.638C123.186 159.801 122.238 159.138 121.183 158.692C119.164 158.101 117.72 159.646 110.905 160.986C110.723 161.05 110.528 161.07 110.337 161.047C110.145 161.023 109.961 160.955 109.8 160.849C109.459 160.439 109.267 159.926 109.254 159.393C109.218 159.107 109.18 158.812 109.161 158.516Z" fill="#FFAE94"/>
<path d="M109.573 159.3C109.787 158.505 115.875 157.323 118.35 156.545C118.621 156.401 118.932 156.35 119.235 156.4C119.537 156.45 119.815 156.598 120.026 156.821C123.195 159.319 124.795 161.316 128.034 164.102C128.701 165.106 127.376 166.618 126.421 166.024C124.686 165.058 123.095 163.854 121.692 162.449C121.038 161.693 120.217 161.098 119.294 160.713C117.648 160.177 116.43 161.757 110.837 163.259C110.691 163.328 110.529 163.354 110.369 163.335C110.209 163.316 110.058 163.252 109.932 163.151C109.649 162.725 109.5 162.224 109.504 161.712C109.384 160.91 109.407 160.094 109.573 159.3Z" fill="#FFAE94"/>
<path d="M109.531 160.208C109.73 159.473 115.356 158.38 117.646 157.662C117.896 157.53 118.182 157.483 118.46 157.53C118.739 157.576 118.994 157.712 119.188 157.918C122.117 160.218 123.596 162.072 126.592 164.647C127.207 165.582 125.984 166.973 125.098 166.421C123.588 165.394 122.13 164.292 120.73 163.119C120.072 162.481 119.325 161.94 118.513 161.515C116.994 161.017 115.861 162.478 110.698 163.867C110.563 163.93 110.413 163.954 110.265 163.936C110.117 163.919 109.977 163.86 109.86 163.768C109.599 163.373 109.462 162.91 109.465 162.437C109.35 161.696 109.373 160.94 109.531 160.208Z" fill="#FFAE94"/>
<path d="M110.357 160.967C110.566 160.419 114.469 160.26 116.093 159.982C116.281 159.912 116.488 159.913 116.675 159.985C116.863 160.057 117.017 160.195 117.11 160.373C118.847 162.528 119.654 164.157 121.408 166.54C121.72 167.338 120.758 168.279 120.209 167.739C119.202 166.823 118.326 165.773 117.606 164.618C117.286 164.014 116.83 163.493 116.274 163.095C115.298 162.518 114.402 163.518 110.76 163.965C110.661 163.996 110.554 163.994 110.455 163.961C110.356 163.929 110.27 163.866 110.208 163.782C110.065 163.437 110.02 163.059 110.077 162.689C110.081 162.104 110.176 161.523 110.357 160.967Z" fill="#FFAE94"/>
<path d="M106.012 153.603L110.946 155.615C111.204 155.699 111.436 155.849 111.619 156.049C111.922 156.517 112.104 157.054 112.149 157.61C112.37 159.613 112.332 161.636 112.036 163.629L110.884 163.893C109.526 164.205 108.882 164.218 107.458 162.149C106.867 161.288 106.301 160.377 105.761 159.417C105.47 158.944 105.349 158.386 105.418 157.836C105.435 156.597 105.471 155.356 105.524 154.115C105.553 153.699 105.637 153.447 106.012 153.603Z" fill="#FFAE94"/>
<path d="M87.0115 74.9007C88.7319 71.5698 89.7918 67.9376 90.1327 64.2042L90.0437 62.5289C89.7319 65.2424 87.7294 71.8668 85.1769 73.3041L82.0659 70.1126C87.8904 66.2822 88.0514 48.014 89.3996 39.3064C90.7478 30.5989 92.7521 27.894 93.7097 26.9364C94.2277 26.3869 94.8933 25.9984 95.6266 25.8178C95.6266 25.8178 94.746 18.1586 106.559 17.4374C118.373 16.7162 130.979 25.6601 133.612 30.1278C136.245 34.5955 137.038 39.7844 136.733 51.8359C136.429 63.8873 143.757 69.2356 141.84 84.7971L135.695 81.6056C137.131 76.4167 137.277 70.7756 134.419 66.6831L134.762 67.6801C135.779 71.932 135.699 75.3015 134.023 81.3692C133.946 81.5251 133.431 81.1671 133.117 81.078C121.837 77.8677 96.7418 84.5898 88.3735 76.2625C86.9705 74.8681 87.0115 74.9109 87.0115 74.9007Z" fill="#003674"/>
<path d="M99.0241 81.6861C99.0241 81.6861 103.574 80.1255 103.574 73.6655V65.1653H121.889V73.1859C121.889 73.1859 121.888 78.5735 123.206 80.1289C123.587 80.5829 124.063 80.9471 124.601 81.1955C125.139 81.444 125.726 81.5705 126.318 81.5662C126.318 81.5662 122.729 89.9466 117.22 94.1351C111.711 98.3235 112.424 98.0837 112.424 98.0837C112.424 98.0837 104.761 92.8177 101.657 87.55C98.553 82.2823 99.0241 81.6861 99.0241 81.6861Z" fill="#FFAE94"/>
<path d="M111.514 76.7356C116.461 79.2093 121.964 75.9391 121.964 75.9391V66.2859L103.846 66.5977L104.002 69.4722C105.783 72.5441 108.384 75.0592 111.514 76.7356Z" fill="#ED7C67"/>
<path d="M128.651 51.2193C128.223 63.1526 119.654 72.7852 112.492 72.8246C104.659 72.864 94.2336 60.5812 96.6628 45.8728C98.1908 36.5263 104.584 29.6174 112.493 29.6174C121.847 29.6157 129.083 39.2912 128.651 51.2193Z" fill="#FFAE94"/>
<path d="M98.5835 56.4663C98.1866 56.7826 97.6963 56.9591 97.1889 56.9683C96.8205 56.977 96.4542 56.9141 96.1098 56.7832C94.5938 56.2231 90.9209 50.6368 93.237 47.764C94.2546 46.5015 95.5445 45.8384 96.8344 46.8166C97.014 46.9504 97.1746 47.1077 97.3122 47.2843C97.3071 47.298 97.3106 47.3117 98.5835 56.4663Z" fill="#FFAE94"/>
<path d="M127.874 47.286C127.874 47.286 129.63 44.8876 131.944 47.7656C134.258 50.6436 130.587 56.2265 129.071 56.7849C128.669 56.9577 128.227 57.0199 127.792 56.9651C127.357 56.9103 126.945 56.7405 126.598 56.4732C127.87 47.3134 127.874 47.2963 127.874 47.286Z" fill="#FFAE94"/>
<path d="M102.975 39.8977C106.245 43.0069 110.172 45.3397 114.467 46.7226C120.574 48.2781 122.004 47.4404 122.004 47.4404L121.167 46.2413C122.939 46.5984 124.75 46.7188 126.554 46.5994L125.398 44.6447C120.927 41.6108 111.709 36.5436 108.233 36.6635C105.924 36.8014 103.656 37.3291 101.523 38.2241L102.975 39.8977Z" fill="#FA8B77"/>
<path d="M96.4108 49.679C96.2285 49.9304 95.957 50.1026 95.652 50.1604C95.6228 49.8486 95.6349 49.9686 95.5972 49.6465C95.7716 49.5997 95.9216 49.4882 96.0169 49.3347C96.422 48.4409 96.5059 47.4345 96.2548 46.4859C96.3575 46.5247 96.4568 46.5723 96.5514 46.6281C96.5856 46.3711 96.6231 46.1141 96.666 45.8657C97.0711 47.1228 96.9799 48.4872 96.4108 49.679Z" fill="#333F48"/>
<path d="M96.0294 26.3782C96.0294 26.3782 98.9022 35.8001 106.164 40.9838C110.226 44.0274 115.136 45.7286 120.211 45.8507C117.913 45.0513 115.797 43.8034 113.986 42.1795C112.817 41.249 111.769 40.177 110.865 38.9881C113.423 40.8817 116.148 42.5382 119.007 43.9371C122.093 45.2163 125.302 46.1789 128.583 46.81C128.583 46.81 127.466 34.0424 120.922 28.6137C114.378 23.185 96.0225 26.3867 96.0225 26.3867L96.0294 26.3782Z" fill="#003674"/>
<path d="M96.2677 46.4894C99.1645 44.8616 101.626 42.56 103.445 39.7793C104.51 38.4686 105.205 36.8969 105.457 35.2273C105.71 33.5577 105.512 31.8509 104.883 30.2837C104.883 30.2837 101.457 30.2032 97.4599 36.9938C93.4633 43.7844 96.2677 46.4894 96.2677 46.4894Z" fill="#003674"/>
<path d="M128.274 53.4342C128.274 53.4342 128.274 49.4445 129.474 48.8089C129.699 48.6727 129.963 48.6143 130.224 48.6428C130.486 48.6713 130.731 48.7852 130.921 48.9668C131.112 49.1484 131.238 49.3877 131.279 49.6477C131.32 49.9077 131.274 50.1739 131.149 50.4054C130.669 51.5224 130.431 50.4055 129.313 51.9233C128.71 52.6333 128.298 53.4843 128.113 54.3969L128.274 53.4342Z" fill="#FF7962"/>
<path d="M96.9871 53.4342C96.9871 53.4342 96.9872 49.4445 95.7881 48.8089C95.5628 48.6727 95.299 48.6143 95.0373 48.6428C94.7757 48.6713 94.5307 48.7852 94.3402 48.9668C94.1496 49.1484 94.0241 49.3877 93.983 49.6477C93.9419 49.9077 93.9874 50.1739 94.1126 50.4054C94.5906 51.5224 94.8322 50.4055 95.9491 51.9233C96.5506 52.6338 96.963 53.4846 97.1482 54.3969L96.9871 53.4342Z" fill="#FF7962"/>
<path d="M128.362 58.0732C128.303 58.0355 128.643 57.4651 128.725 57.0146C128.843 56.3824 128.47 56.0466 128.524 55.9867C128.541 55.9627 128.679 56.0193 128.816 56.2026C128.978 56.4548 129.047 56.7554 129.011 57.053C128.976 57.3506 128.837 57.6265 128.62 57.8334C128.483 57.9995 128.381 58.0938 128.362 58.0732Z" fill="white"/>
<path d="M128.333 59.7518C127.024 59.5583 128.222 57.41 128.676 57.482C129.13 57.5539 129.652 59.9437 128.333 59.7518Z" fill="white"/>
<path d="M96.7006 58.0732C96.7571 58.0355 96.4196 57.4651 96.3373 57.0146C96.2191 56.3824 96.5944 56.0466 96.5396 55.9867C96.5207 55.9627 96.3819 56.0193 96.2466 56.2026C96.0843 56.4547 96.015 56.7554 96.0506 57.0531C96.0863 57.3508 96.2247 57.6267 96.4419 57.8334C96.5789 57.9995 96.6817 58.0938 96.7006 58.0732Z" fill="white"/>
<path d="M96.7346 59.7518C98.0434 59.5583 96.8443 57.41 96.3921 57.482C95.9398 57.5539 95.4207 59.9437 96.7346 59.7518Z" fill="white"/>
<path d="M97.2131 51.0957C97.5009 52.5741 97.0725 53.905 96.2571 54.0609C95.4416 54.2168 94.5442 53.1496 94.2598 51.6627C93.9754 50.1757 94.1484 48.6443 94.9656 48.4987C96.0499 48.312 96.927 49.6087 97.2131 51.0957Z" fill="#333F48"/>
<path d="M105.189 66.7125L105.018 67.1322L102.152 64.8829L95.4712 53.8473C95.671 53.9663 95.9064 54.0106 96.1358 53.9723C96.821 53.8387 97.1087 52.9599 97.1636 52.2593L102.729 64.422L105.189 66.7125Z" fill="#5B6770"/>
<path d="M96.0027 53.8727C96.8184 53.714 97.2465 52.3864 96.9588 50.9073C96.6711 49.4282 95.7766 48.3578 94.9609 48.5164C94.1452 48.6751 93.7171 50.0027 94.0048 51.4818C94.2925 52.9609 95.187 54.0313 96.0027 53.8727Z" fill="#5B6770"/>
<path d="M102.721 64.4135L102.234 64.1497L96.9922 53.0558C97.0774 52.7985 97.1297 52.5314 97.148 52.261L102.721 64.4135Z" fill="#333F48"/>
<path d="M105.715 67.3138L105.532 67.5194C105.497 67.5512 105.457 67.5756 105.412 67.591C105.368 67.6064 105.32 67.6124 105.273 67.6087C105.226 67.605 105.181 67.5916 105.139 67.5695C105.098 67.5473 105.061 67.517 105.032 67.4801L104.54 66.9266C104.52 66.9026 104.509 66.8723 104.509 66.841C104.509 66.8097 104.52 66.7794 104.54 66.7554L104.852 66.4127C104.875 66.3912 104.905 66.3783 104.936 66.3765C104.967 66.3746 104.998 66.3838 105.023 66.4025L105.626 66.8342C105.665 66.8598 105.697 66.8928 105.722 66.9312C105.748 66.9697 105.765 67.0128 105.773 67.0581C105.781 67.1033 105.78 67.1497 105.77 67.1945C105.76 67.2393 105.741 67.2816 105.714 67.3189L105.715 67.3138Z" fill="#5B6770"/>
<path d="M105.785 67.1645C105.77 67.2776 105.718 67.3101 105.53 67.5191C105.495 67.5514 105.455 67.5762 105.41 67.5915C105.365 67.6069 105.318 67.6125 105.271 67.6082C105.224 67.6043 105.178 67.5907 105.137 67.5683C105.095 67.5459 105.059 67.5152 105.029 67.478L104.538 66.923C104.518 66.9028 104.505 66.877 104.5 66.8491C104.496 66.8212 104.5 66.7925 104.512 66.7671C104.512 66.8459 104.512 66.8236 105.043 67.4197C105.072 67.4565 105.109 67.4869 105.15 67.509C105.191 67.5312 105.237 67.5445 105.284 67.5483C105.33 67.5522 105.377 67.5465 105.422 67.5314C105.466 67.5164 105.507 67.4923 105.542 67.4608C105.739 67.2501 105.758 67.2365 105.785 67.1645Z" fill="#333F48"/>
<path d="M241.813 169.555V170.782H45.8105V169.555C45.8105 169.091 47.8542 168.714 50.3793 168.712H237.224C238.311 168.702 239.396 168.784 240.469 168.959C241.33 169.116 241.813 169.332 241.813 169.555Z" fill="#1D7E8E"/>
<path d="M111.262 167.145L127.178 166.298C127.959 166.298 130.131 167.389 129.821 168.729H109.011C109.13 168.237 109.424 167.805 109.838 167.514C110.252 167.222 110.758 167.091 111.262 167.145Z" fill="#B8D1CE"/>
<path d="M185.011 166.509C166.915 167.445 149.005 167.559 131.28 166.851C130.792 166.788 130.321 166.629 129.894 166.384C129.468 166.138 129.093 165.811 128.793 165.421C128.493 165.031 128.273 164.586 128.145 164.11C128.017 163.635 127.984 163.139 128.048 162.651C128.972 147.713 131.105 132.875 134.424 118.282C134.734 117.138 135.387 116.116 136.295 115.354C137.203 114.591 138.322 114.125 139.503 114.018C160.442 113.093 181.415 113.246 202.339 114.477C202.847 114.492 203.345 114.622 203.795 114.858C204.245 115.093 204.636 115.429 204.937 115.838C205.238 116.248 205.441 116.721 205.532 117.221C205.623 117.721 205.598 118.235 205.46 118.724C201.852 133.713 196.804 148.318 190.385 162.335C189.891 163.412 189.145 164.354 188.209 165.081C187.274 165.807 186.176 166.297 185.011 166.509Z" fill="#B8D1CE"/>
<path d="M187.153 166.396C169.044 167.397 151.12 167.575 133.379 166.93C132.892 166.869 132.422 166.71 131.998 166.464C131.573 166.218 131.201 165.89 130.906 165.498C130.61 165.106 130.396 164.659 130.276 164.183C130.156 163.707 130.132 163.212 130.207 162.726C131.344 147.729 133.593 132.837 136.934 118.173C137.241 117.027 137.893 116.003 138.802 115.241C139.71 114.478 140.832 114.013 142.013 113.909C162.937 113.067 183.89 113.305 204.789 114.623C205.296 114.639 205.792 114.769 206.241 115.005C206.69 115.241 207.08 115.575 207.38 115.984C207.681 116.392 207.885 116.864 207.976 117.363C208.068 117.862 208.044 118.375 207.908 118.863C204.303 133.805 199.169 148.336 192.587 162.226C192.077 163.303 191.319 164.243 190.374 164.968C189.429 165.693 188.325 166.182 187.153 166.396Z" fill="#E5EDEA"/>
<path d="M133.952 133.039C132.206 142.947 130.957 152.843 130.207 162.726C130.133 163.211 130.157 163.706 130.277 164.182C130.398 164.658 130.612 165.105 130.908 165.496C131.203 165.888 131.574 166.217 131.999 166.463C132.423 166.709 132.893 166.868 133.38 166.93C151.12 167.555 169.045 167.376 187.155 166.394C188.326 166.18 189.43 165.69 190.374 164.965C191.319 164.24 192.077 163.301 192.587 162.224C194.605 157.919 196.455 153.618 198.178 149.313C195.834 150.055 193.442 150.637 191.019 151.055C170.428 153.414 143.744 149.482 133.952 133.039Z" fill="#E5EDEA"/>
<path d="M127.284 166.288H191.401C192.182 166.288 192.558 167.379 192.249 168.729H125.311C125.619 167.386 126.51 166.288 127.284 166.288Z" fill="#B8D1CE"/>
<path d="M172.623 134.975C174.089 136.055 175.068 137.673 175.344 139.473C175.62 141.274 175.171 143.11 174.095 144.58C173.135 146.128 171.6 147.233 169.828 147.652C168.055 148.07 166.188 147.769 164.637 146.813C163.171 145.733 162.193 144.115 161.917 142.315C161.641 140.515 162.091 138.679 163.166 137.209C164.126 135.661 165.66 134.556 167.433 134.138C169.205 133.719 171.072 134.02 172.623 134.975V134.975Z" fill="#B8D1CE"/>
<path d="M64.9614 9.46299C64.9614 12.2964 67.1302 14.8403 70.57 16.5722C71.4113 16.9939 72.1553 17.5868 72.7542 18.3127C75.1466 21.1181 78.0541 23.4394 81.3196 25.1513C81.3971 25.1915 81.4858 25.205 81.5718 25.1895C81.6578 25.174 81.7362 25.1305 81.7949 25.0658C81.8536 25.001 81.8892 24.9187 81.8962 24.8316C81.9032 24.7445 81.8811 24.6575 81.8335 24.5843C80.8548 23.1882 80.0463 21.6803 79.4249 20.0926C79.3761 19.9538 79.362 19.8051 79.3839 19.6595C79.4058 19.514 79.4631 19.376 79.5507 19.2577C79.6382 19.1394 79.7534 19.0444 79.8862 18.9809C80.019 18.9174 80.1652 18.8874 80.3123 18.8935C89.7342 19.2481 97.8712 14.9825 97.8712 9.45786C97.8712 4.23299 90.505 0 81.4069 0C80.6394 0 79.8823 0.0291256 79.1423 0.0890831C71.1439 0.728059 64.9614 4.68009 64.9614 9.46299Z" fill="#36B37E"/>
<path d="M86.9138 16.0872C86.9011 16.1318 86.8999 16.1789 86.9105 16.2241C86.921 16.2693 86.943 16.311 86.9742 16.3454C87.0055 16.3797 87.0448 16.4054 87.0888 16.4202C87.1328 16.435 87.18 16.4383 87.2256 16.4298C92.2689 15.4139 95.8851 12.661 95.8851 9.40618C95.8851 5.2948 90.0862 1.96973 82.9325 1.96973C82.599 1.96973 82.2679 1.97662 81.939 1.99032C81.8817 1.99077 81.8261 2.00936 81.78 2.04344C81.734 2.07752 81.6999 2.12534 81.6828 2.17999C81.6656 2.23464 81.6663 2.29333 81.6847 2.3476C81.703 2.40186 81.7381 2.44888 81.7848 2.48195C85.4457 5.11495 88.9712 9.50558 86.9138 16.0872Z" fill="#2F8963"/>
<path d="M69.6292 9.83803H74.8232C75.0749 9.83803 75.3164 9.73804 75.4944 9.56006C75.6724 9.38208 75.7723 9.14066 75.7723 8.88896C75.7723 8.63726 75.6724 8.39589 75.4944 8.21791C75.3164 8.03993 75.0749 7.93994 74.8232 7.93994H69.6292C69.3775 7.93994 69.1362 8.03993 68.9582 8.21791C68.7802 8.39589 68.6802 8.63726 68.6802 8.88896C68.6802 9.14066 68.7802 9.38208 68.9582 9.56006C69.1362 9.73804 69.3775 9.83803 69.6292 9.83803Z" fill="#D6E4EF"/>
<path d="M69.0863 13.4901H84.9784C85.2301 13.4901 85.4715 13.3901 85.6495 13.2122C85.8274 13.0342 85.9275 12.7928 85.9275 12.5411C85.9275 12.2894 85.8274 12.048 85.6495 11.8701C85.4715 11.6921 85.2301 11.592 84.9784 11.592H69.0863C68.8346 11.592 68.5931 11.6921 68.4151 11.8701C68.2371 12.048 68.1372 12.2894 68.1372 12.5411C68.1372 12.7928 68.2371 13.0342 68.4151 13.2122C68.5931 13.3901 68.8346 13.4901 69.0863 13.4901Z" fill="#D6E4EF"/>
<path d="M73.4999 6.1891H88.8215C89.0732 6.1891 89.3146 6.08912 89.4926 5.91114C89.6705 5.73316 89.7706 5.49179 89.7706 5.24008C89.7706 4.98838 89.6705 4.74696 89.4926 4.56898C89.3146 4.391 89.0732 4.29102 88.8215 4.29102H73.4999C73.2481 4.29102 73.0067 4.391 72.8287 4.56898C72.6507 4.74696 72.5508 4.98838 72.5508 5.24008C72.5508 5.49179 72.6507 5.73316 72.8287 5.91114C73.0067 6.08912 73.2481 6.1891 73.4999 6.1891Z" fill="#D6E4EF"/>
<path d="M78.6638 9.83803H93.9857C94.2374 9.83803 94.4787 9.73804 94.6567 9.56006C94.8347 9.38208 94.9346 9.14066 94.9346 8.88896C94.9346 8.63726 94.8347 8.39589 94.6567 8.21791C94.4787 8.03993 94.2374 7.93994 93.9857 7.93994H78.6638C78.4121 7.93994 78.1707 8.03993 77.9928 8.21791C77.8148 8.39589 77.7148 8.63726 77.7148 8.88896C77.7148 9.14066 77.8148 9.38208 77.9928 9.56006C78.1707 9.73804 78.4121 9.83803 78.6638 9.83803Z" fill="#D6E4EF"/>
<path d="M88.3964 13.4901H92.6653C92.917 13.4901 93.1584 13.3901 93.3364 13.2122C93.5143 13.0342 93.6143 12.7928 93.6143 12.5411C93.6143 12.2894 93.5143 12.048 93.3364 11.8701C93.1584 11.6921 92.917 11.592 92.6653 11.592H88.3964C88.1447 11.592 87.9032 11.6921 87.7252 11.8701C87.5472 12.048 87.4473 12.2894 87.4473 12.5411C87.4473 12.7928 87.5472 13.0342 87.7252 13.2122C87.9032 13.3901 88.1447 13.4901 88.3964 13.4901Z" fill="#D6E4EF"/>
</svg>
