<svg width="100" height="100" viewBox="0 0 100 100" fill="none" xmlns="http://www.w3.org/2000/svg">
<circle cx="50" cy="50" r="50" fill="#6B82AB" fill-opacity="0.1"/>
<path d="M31.3404 20C29.4437 20 27.8918 21.5615 27.8918 23.4701V72.0515C27.8918 73.9601 29.4437 75.5216 31.3404 75.5216H65.8259C67.7226 75.5216 69.2744 73.9601 69.2744 72.0515V33.8804L55.4802 20H31.3404Z" fill="#1DA1F2"/>
<path d="M58.9285 33.8804H69.2742L55.48 20V30.4103C55.48 32.3189 57.0318 33.8804 58.9285 33.8804Z" fill="#6EBEEF"/>
<path d="M37.9463 55.9537C38.0335 55.9537 38.1092 55.9882 38.1734 56.057L38.8136 56.7522C38.4098 57.2386 37.9142 57.6148 37.3268 57.881C36.7395 58.1425 36.0374 58.2733 35.2207 58.2733C34.4957 58.2733 33.8395 58.1494 33.2521 57.9016C32.6694 57.6492 32.1715 57.3005 31.7585 56.8554C31.3456 56.4057 31.0267 55.8711 30.8018 55.2517C30.5816 54.6322 30.4714 53.9508 30.4714 53.2074C30.4714 52.4641 30.5884 51.7827 30.8225 51.1632C31.0611 50.5392 31.3937 50.0046 31.8205 49.5595C32.2518 49.1098 32.7657 48.7611 33.3623 48.5133C33.9634 48.2655 34.6241 48.1416 35.3446 48.1416C36.0604 48.1416 36.6913 48.2586 37.2374 48.4926C37.788 48.7221 38.2652 49.0295 38.669 49.4149L38.139 50.1652C38.1023 50.2157 38.0587 50.2593 38.0083 50.296C37.9578 50.3327 37.889 50.351 37.8018 50.351C37.71 50.351 37.6045 50.3097 37.4852 50.2271C37.3704 50.1399 37.2213 50.0459 37.0378 49.9449C36.8588 49.8394 36.6317 49.7453 36.3564 49.6627C36.0856 49.5755 35.7461 49.532 35.3377 49.532C34.865 49.532 34.4314 49.6146 34.0368 49.7797C33.6422 49.9449 33.3026 50.1858 33.0181 50.5025C32.7336 50.8191 32.5111 51.2045 32.3505 51.6588C32.1945 52.1131 32.1165 52.6293 32.1165 53.2074C32.1165 53.7902 32.1991 54.311 32.3642 54.7699C32.5294 55.2241 32.7566 55.6096 33.0457 55.9262C33.3347 56.2382 33.6743 56.4768 34.0643 56.642C34.4544 56.8072 34.8742 56.8898 35.3239 56.8898C35.5992 56.8898 35.8447 56.8761 36.0604 56.8485C36.2806 56.8164 36.4825 56.7682 36.6661 56.704C36.8496 56.6352 37.0217 56.5503 37.1823 56.4493C37.3475 56.3484 37.5104 56.2245 37.671 56.0776C37.7628 55.995 37.8545 55.9537 37.9463 55.9537Z" fill="white"/>
<path d="M45.3876 49.9449C45.3372 50.0275 45.2844 50.0895 45.2293 50.1308C45.1743 50.1675 45.1054 50.1858 45.0228 50.1858C44.9357 50.1858 44.837 50.1491 44.7269 50.0757C44.6213 50.0023 44.4883 49.922 44.3277 49.8348C44.1716 49.743 43.9858 49.6604 43.7701 49.587C43.5545 49.509 43.2975 49.47 42.9993 49.47C42.7239 49.47 42.4807 49.5044 42.2697 49.5733C42.0632 49.6421 41.8888 49.7384 41.7466 49.8623C41.6043 49.9862 41.4965 50.1331 41.4231 50.3028C41.3542 50.468 41.3198 50.6493 41.3198 50.8466C41.3198 51.099 41.3863 51.31 41.5194 51.4798C41.6525 51.645 41.8269 51.7873 42.0425 51.9066C42.2628 52.0259 42.5129 52.1314 42.7928 52.2232C43.0727 52.3104 43.3572 52.4044 43.6462 52.5054C43.9399 52.6063 44.2267 52.7211 44.5066 52.8495C44.7865 52.978 45.0343 53.1409 45.25 53.3382C45.4702 53.5355 45.6469 53.7764 45.78 54.0609C45.913 54.3454 45.9796 54.6919 45.9796 55.1003C45.9796 55.5408 45.9039 55.9537 45.7524 56.3392C45.601 56.7246 45.3807 57.0619 45.0917 57.351C44.8072 57.6355 44.4538 57.8603 44.0317 58.0255C43.6141 58.1907 43.1369 58.2733 42.6 58.2733C42.2834 58.2733 41.9737 58.2412 41.6708 58.1769C41.3726 58.1173 41.0858 58.0324 40.8105 57.9223C40.5397 57.8075 40.2851 57.6699 40.0465 57.5093C39.8079 57.3487 39.5945 57.1697 39.4064 56.9724L39.8744 56.2015C39.9157 56.1373 39.9685 56.0868 40.0327 56.0501C40.0969 56.0134 40.1681 55.995 40.2461 55.995C40.3516 55.995 40.4686 56.0455 40.5971 56.1465C40.7256 56.2428 40.8793 56.3507 41.0583 56.47C41.2418 56.5847 41.4621 56.6925 41.719 56.7935C41.976 56.8898 42.2834 56.938 42.6413 56.938C43.2241 56.938 43.6738 56.7958 43.9904 56.5113C44.3116 56.2268 44.4722 55.8344 44.4722 55.3343C44.4722 55.0544 44.4057 54.8272 44.2726 54.6529C44.1395 54.4739 43.9629 54.3248 43.7426 54.2055C43.5269 54.0862 43.2792 53.9852 42.9993 53.9026C42.7193 53.82 42.4348 53.7328 42.1458 53.6411C41.8567 53.5447 41.5722 53.4346 41.2923 53.3107C41.0124 53.1822 40.7623 53.017 40.542 52.8151C40.3264 52.6086 40.152 52.3563 40.0189 52.058C39.8859 51.7551 39.8193 51.3789 39.8193 50.9292C39.8193 50.5713 39.8882 50.2248 40.0258 49.8899C40.1681 49.5549 40.3723 49.2589 40.6384 49.002C40.9091 48.7404 41.2418 48.5316 41.6364 48.3756C42.0311 48.2196 42.4807 48.1416 42.9855 48.1416C43.5545 48.1416 44.0753 48.2311 44.5479 48.41C45.0251 48.589 45.4358 48.8437 45.78 49.174L45.3876 49.9449Z" fill="white"/>
<path d="M55.8253 48.2517L51.8057 58.1632H50.3534L46.3337 48.2517H47.6208C47.7631 48.2517 47.8778 48.2884 47.965 48.3619C48.0522 48.4307 48.1187 48.5179 48.1646 48.6234L50.7181 55.0865C50.8558 55.449 50.982 55.8666 51.0967 56.3392C51.1472 56.1052 51.2 55.8826 51.255 55.6715C51.3147 55.4605 51.3789 55.2654 51.4477 55.0865L53.9944 48.6234C54.0311 48.5316 54.0954 48.4467 54.1872 48.3687C54.2789 48.2907 54.3936 48.2517 54.5313 48.2517H55.8253Z" fill="white"/>
<circle cx="64.739" cy="67.9507" r="10.9361" fill="white"/>
<path d="M64.6801 61.4903C64.5696 61.4921 64.4608 61.5208 64.362 61.5742C64.2632 61.6275 64.1769 61.7042 64.1095 61.7984C64.1085 61.7999 64.1076 61.8015 64.1066 61.803L61.2362 64.8875C61.1659 64.9603 61.1097 65.0473 61.0711 65.1436C61.0325 65.2399 61.0121 65.3435 61.0112 65.4484C61.0103 65.5532 61.0288 65.6572 61.0657 65.7543C61.1026 65.8514 61.1572 65.9396 61.2262 66.0137C61.2952 66.0879 61.3773 66.1465 61.4676 66.1862C61.5579 66.2258 61.6547 66.2458 61.7523 66.2448C61.8499 66.2438 61.9463 66.2219 62.0359 66.1804C62.1255 66.1389 62.2066 66.0786 62.2742 66.003L63.9575 64.1942V69.3894C63.9562 69.494 63.9741 69.5977 64.0104 69.6947C64.0467 69.7918 64.1005 69.88 64.1688 69.9545C64.2371 70.0289 64.3185 70.088 64.4083 70.1284C64.498 70.1687 64.5943 70.1895 64.6916 70.1895C64.7889 70.1895 64.8852 70.1687 64.975 70.1284C65.0647 70.088 65.1461 70.0289 65.2144 69.9545C65.2827 69.88 65.3366 69.7918 65.3729 69.6947C65.4091 69.5977 65.4271 69.494 65.4257 69.3894V64.1942L67.109 66.003C67.1767 66.0786 67.2577 66.1389 67.3473 66.1804C67.437 66.2219 67.5334 66.2438 67.631 66.2448C67.7285 66.2458 67.8253 66.2258 67.9157 66.1862C68.006 66.1465 68.0881 66.0879 68.1571 66.0137C68.2261 65.9396 68.2806 65.8514 68.3175 65.7543C68.3544 65.6572 68.373 65.5532 68.3721 65.4484C68.3711 65.3435 68.3508 65.2399 68.3121 65.1436C68.2735 65.0473 68.2174 64.9603 68.1471 64.8875L65.2724 61.7984C65.2028 61.7011 65.113 61.6226 65.0102 61.5691C64.9074 61.5156 64.7943 61.4886 64.6801 61.4903Z" fill="#1DA1F2"/>
<path fill-rule="evenodd" clip-rule="evenodd" d="M59.6915 72.1397C59.6915 71.6645 60.0767 71.2793 60.5519 71.2793H68.926C69.4012 71.2793 69.7864 71.6645 69.7864 72.1397C69.7864 72.6148 69.4012 73 68.926 73H60.5519C60.0767 73 59.6915 72.6148 59.6915 72.1397Z" fill="#1DA1F2"/>
</svg>
