<svg width="156" height="156" viewBox="0 0 156 156" fill="none" xmlns="http://www.w3.org/2000/svg">
<g filter="url(#filter0_d_7967_28589)">
<circle cx="78" cy="74" r="70" fill="#EFF9FF"/>
</g>
<path d="M70.5 47.75H73V59H70.5V47.75Z" fill="#C7CDD3"/>
<path d="M58 54H60.5V85.25H58V54Z" fill="#C7CDD3"/>
<path d="M58 90.25H60.5V100.406H58V90.25Z" fill="#C7CDD3"/>
<path d="M95.5 86.5H98V94H95.5V86.5Z" fill="#C7CDD3"/>
<path d="M70.5 76.5H73V94H70.5V76.5Z" fill="#C7CDD3"/>
<path d="M83 89H85.5V100.406H83V89Z" fill="#C7CDD3"/>
<path d="M84.27 101.5C83.0137 101.5 81.7475 101.127 80.6687 100.376L72.49 95.5075C71.9875 95.1612 71.4088 95.1612 70.9763 95.46L62.7638 100.42C60.6913 101.867 57.8113 101.869 55.6688 100.376L47.1988 95.2637C46.1263 94.5187 45.5 93.3425 45.5 92.125V49C45.5 48.0825 45.98 47.2087 46.7912 46.785C47.625 46.35 48.6275 46.4162 49.4062 46.96L58.4225 52.4787C58.9212 52.8225 59.5 52.8212 59.9287 52.5225L68.2437 47.5762C70.3087 46.1337 73.1875 46.1325 75.3312 47.625L83.455 52.4425L82.1787 54.5925L73.9788 49.7262C72.6138 48.78 70.8838 48.7812 69.5963 49.6775L61.2812 54.6237C60.0713 55.4675 58.3475 55.4675 57.0625 54.575L48 49V92.125C48.02 92.5337 48.2262 92.9362 48.5587 93.1675L57.0275 98.28C58.3825 99.22 60.115 99.2225 61.4025 98.3237L69.615 93.3637C70.8325 92.515 72.5563 92.5137 73.8413 93.4075L82.0212 98.2762C83.3825 99.22 85.1138 99.2225 86.4025 98.3237L94.6437 93.3625C95.8587 92.515 97.5862 92.5137 98.87 93.4075L108 99.155V61.0325H110.5V98.9987C110.5 99.9175 109.996 100.751 109.184 101.175C108.347 101.611 107.346 101.544 106.569 101.002L103.753 99.265L97.51 95.5037C97.015 95.1625 96.435 95.1587 96.0025 95.4587L87.7612 100.42C86.7337 101.139 85.5075 101.5 84.27 101.5Z" fill="#7081A8"/>
<path d="M96.75 50.25C95.4239 50.25 94.1521 50.7768 93.2145 51.7145C92.2768 52.6521 91.75 53.9239 91.75 55.25C91.75 56.5761 92.2768 57.8479 93.2145 58.7855C94.1521 59.7232 95.4239 60.25 96.75 60.25C98.0761 60.25 99.3479 59.7232 100.286 58.7855C101.223 57.8479 101.75 56.5761 101.75 55.25C101.75 53.9239 101.223 52.6521 100.286 51.7145C99.3479 50.7768 98.0761 50.25 96.75 50.25V50.25Z" fill="#4D9FEB"/>
<path d="M98 77.75H95.5C95.5 76.2675 93.3275 74.095 91.0263 71.7938C86.8938 67.6613 81.75 62.5175 81.75 55.25C81.75 46.9787 88.4787 40.25 96.75 40.25C105.021 40.25 111.75 46.9787 111.75 55.25C111.75 62.5175 106.606 67.6613 102.474 71.7938C100.172 74.095 98 76.2675 98 77.75ZM96.75 42.75C89.8575 42.75 84.25 48.3575 84.25 55.25C84.25 61.4825 88.9875 66.22 92.7937 70.0262C94.3887 71.6212 95.8012 73.0325 96.75 74.3975C97.6988 73.0325 99.1113 71.6212 100.706 70.0262C104.513 66.22 109.25 61.4825 109.25 55.25C109.25 48.3575 103.642 42.75 96.75 42.75Z" fill="#4D9FEB"/>
<defs>
<filter id="filter0_d_7967_28589" x="0" y="0" width="156" height="156" filterUnits="userSpaceOnUse" color-interpolation-filters="sRGB">
<feFlood flood-opacity="0" result="BackgroundImageFix"/>
<feColorMatrix in="SourceAlpha" type="matrix" values="0 0 0 0 0 0 0 0 0 0 0 0 0 0 0 0 0 0 127 0" result="hardAlpha"/>
<feOffset dy="4"/>
<feGaussianBlur stdDeviation="4"/>
<feComposite in2="hardAlpha" operator="out"/>
<feColorMatrix type="matrix" values="0 0 0 0 0.615686 0 0 0 0 0.713726 0 0 0 0 0.85098 0 0 0 0.2 0"/>
<feBlend mode="normal" in2="BackgroundImageFix" result="effect1_dropShadow_7967_28589"/>
<feBlend mode="normal" in="SourceGraphic" in2="effect1_dropShadow_7967_28589" result="shape"/>
</filter>
</defs>
</svg>
