<svg width="267" height="171" viewBox="0 0 267 171" fill="none" xmlns="http://www.w3.org/2000/svg">
<path d="M248.341 161.151C258.586 161.151 266.953 152.864 267 142.587C267 142.521 267 142.456 267 142.39C267 119.457 248.735 99.6113 222.155 90.0459C214.54 61.4519 190.29 40.5484 161.551 40.5484C157.333 40.5484 153.214 41.0003 149.227 41.8582C139.759 25.0926 125.667 14.4607 109.93 14.4607C85.9261 14.4607 65.7502 39.1911 59.9714 72.6949C25.4423 79.3353 0 102.101 0 129.167C0 133.444 0.636422 137.615 1.84179 141.63C5.32661 153.23 16.0017 161.149 28.0792 161.149H248.341V161.151Z" fill="#E6EAEF"/>
<path d="M134.003 35H52.7465C47.916 35 44 38.9283 44 43.7741V152.685C44 157.531 47.916 161.459 52.7465 161.459H134.003C138.834 161.459 142.75 157.531 142.75 152.685V43.7741C142.75 38.9283 138.834 35 134.003 35Z" fill="#A6B4CD"/>
<path d="M131.356 39.2161H55.395C50.5644 39.2161 46.6484 43.1444 46.6484 47.9902V148.471C46.6484 153.317 50.5644 157.245 55.395 157.245H131.356C136.187 157.245 140.102 153.317 140.102 148.471V47.9902C140.102 43.1444 136.187 39.2161 131.356 39.2161Z" fill="white"/>
<path fill-rule="evenodd" clip-rule="evenodd" d="M59.3936 99H61.9608C63.2828 99 64.3544 100.075 64.3544 101.401V103.976C64.3544 105.303 63.2828 106.378 61.9608 106.378H59.3936C58.0716 106.378 57 105.303 57 103.976V101.401C57 100.075 58.0716 99 59.3936 99ZM70.337 99H114.288C115.61 99 116.682 100.075 116.682 101.401V103.976C116.682 105.303 115.61 106.378 114.288 106.378H70.337C69.015 106.378 67.9434 105.303 67.9434 103.976V101.401C67.9434 100.075 69.015 99 70.337 99ZM61.9608 111.998H59.3936C58.0716 111.998 57 113.073 57 114.399V116.975C57 118.301 58.0716 119.376 59.3936 119.376H61.9608C63.2828 119.376 64.3544 118.301 64.3544 116.975V114.399C64.3544 113.073 63.2828 111.998 61.9608 111.998ZM70.337 111.998H122.035C123.357 111.998 124.428 113.073 124.428 114.399V116.975C124.428 118.301 123.357 119.376 122.035 119.376H70.337C69.015 119.376 67.9434 118.301 67.9434 116.975V114.399C67.9434 113.073 69.015 111.998 70.337 111.998ZM61.9608 126.048H59.3936C58.0716 126.048 57 127.123 57 128.449V131.025C57 132.351 58.0716 133.426 59.3936 133.426H61.9608C63.2828 133.426 64.3544 132.351 64.3544 131.025V128.449C64.3544 127.123 63.2828 126.048 61.9608 126.048ZM70.337 126.048H102.099C103.421 126.048 104.492 127.123 104.492 128.449V131.025C104.492 132.351 103.421 133.426 102.099 133.426H70.337C69.015 133.426 67.9434 132.351 67.9434 131.025V128.449C67.9434 127.123 69.015 126.048 70.337 126.048Z" fill="#B6DCF9"/>
<path d="M124 110.197L124.914 159.087L163.946 170V118.536L124 110.197Z" fill="#87C7F6"/>
<path d="M163.946 118.536V170L202.028 156.764L200.705 110.347L163.946 118.536Z" fill="#53B1F3"/>
<path d="M124 110.197L158.234 101.011L200.706 110.347L163.946 118.536L124 110.197Z" fill="#C3E1F7"/>
<path d="M179.306 115.387L179.95 164.438L182.374 163.594L182.042 114.506L143.181 105.051L140.13 105.87L179.306 115.387Z" fill="#167BB9"/>
<path opacity="0.14" d="M179.306 115.387L179.95 164.438L182.374 163.594L182.042 114.506L179.306 115.387Z" fill="#2A3951"/>
<path d="M132.395 74.2244L133.014 107.356L159.465 114.751V79.8763L132.395 74.2244Z" fill="#87C7F6"/>
<path d="M159.465 79.8762V114.751L185.271 105.782L184.376 74.3271L159.465 79.8762Z" fill="#53B1F3"/>
<path d="M132.395 74.2244L155.593 68L184.376 74.3273L159.465 79.8764L132.395 74.2244Z" fill="#C3E1F7"/>
<path d="M169.873 77.7416L170.309 110.982L171.952 110.411L171.729 77.1448L145.393 70.7371L143.325 71.2908L169.873 77.7416Z" fill="#167BB9"/>
<path opacity="0.14" d="M169.874 77.7418L170.31 110.982L171.953 110.411L171.73 77.145L169.874 77.7418Z" fill="#2A3951"/>
<g clip-path="url(#clip0_448_29949)">
<path d="M87.1761 60.8205C87.2352 60.9988 87.4284 61.0976 87.6109 61.0376L96.3922 58.1365C96.5704 58.0774 96.6692 57.8841 96.6092 57.7014L93.8188 49.2347C93.7597 49.0564 93.5666 48.9576 93.384 49.0176L84.6027 51.9187C84.4245 51.9778 84.3258 52.1711 84.3857 52.3538L87.1761 60.8205Z" fill="#A6B4CD"/>
<path d="M88.6327 76.6808L80.7854 52.8826C80.094 50.7917 77.8318 49.6496 75.7425 50.3416C73.6533 51.0335 72.5129 53.2974 73.1991 55.3882C73.3869 55.9513 73.9893 56.2585 74.5519 56.0705C75.1146 55.8825 75.4215 55.2797 75.2337 54.7166C74.9127 53.7475 75.4409 52.6999 76.4093 52.3786C77.3776 52.0573 78.4245 52.586 78.7455 53.5551L86.3415 76.5969C87.1273 76.4539 87.9025 76.4884 88.6327 76.6817V76.6808Z" fill="#A6B4CD"/>
<path d="M107.944 73.9226C107.756 73.3595 107.153 73.0524 106.591 73.2404L91.2612 78.3011C91.7154 78.8201 92.0814 79.4379 92.3081 80.1299C92.3178 80.1546 92.3231 80.1793 92.3275 80.204L107.258 75.2765C107.826 75.0938 108.132 74.4857 107.945 73.9226H107.944Z" fill="#A6B4CD"/>
<path d="M85.9759 77.7884C83.7684 78.5148 82.5681 80.8969 83.2993 83.1069C84.0304 85.3161 86.4054 86.5173 88.6137 85.7856C90.8212 85.0592 92.0215 82.6771 91.2904 80.4671C90.5645 78.258 88.1834 77.0568 85.9759 77.7884ZM87.7786 83.2499C86.9734 83.5165 86.1047 83.0769 85.8374 82.2711C85.5711 81.4653 86.0103 80.596 86.8155 80.3285C87.6207 80.062 88.4894 80.5015 88.7566 81.3073C89.0238 82.1131 88.5837 82.9825 87.7786 83.2499Z" fill="#A6B4CD"/>
<path d="M86.1143 62.7825L90.4798 76.0231C90.5733 76.3047 90.8749 76.4583 91.1562 76.3638L104.896 71.8264C105.177 71.7329 105.33 71.431 105.236 71.1495L100.871 57.9088C100.777 57.6273 100.476 57.4737 100.194 57.5681L86.4547 62.1055C86.1734 62.1991 86.0199 62.5009 86.1143 62.7825Z" fill="#A6B4CD"/>
</g>
<defs>
<clipPath id="clip0_448_29949">
<rect width="35" height="37" fill="white" transform="translate(73 49)"/>
</clipPath>
</defs>
</svg>
