<svg width="140" height="140" viewBox="0 0 140 140" fill="none" xmlns="http://www.w3.org/2000/svg">
<circle cx="70" cy="70" r="70" fill="#EFF9FF"/>
<rect x="37.5" y="40" width="43.75" height="28.125" rx="3.75" fill="#F6F9FC"/>
<path d="M79.6875 59.0625C80.1019 59.0625 80.4993 60.4604 80.7924 60.1674C81.0854 59.8743 81.25 59.4769 81.25 59.0625V44.4219C81.25 43.2491 80.7841 42.1244 79.9549 41.2951C79.1256 40.4659 78.0009 40 76.8281 40H41.9219C40.7491 40 39.6244 40.4659 38.7951 41.2951C37.9659 42.1244 37.5 43.2491 37.5 44.4219V63.7031C37.5 64.8759 37.9659 66.0006 38.7951 66.8299C39.6244 67.6591 40.7491 68.125 41.9219 68.125H76.8281C78.0009 68.125 79.1256 67.6591 79.9549 66.8299C80.7841 66.0006 81.25 64.8759 81.25 63.7031V59.3906C81.25 58.9762 81.0854 58.5788 80.7924 58.2858C80.4993 57.9927 80.1019 57.8281 79.6875 57.8281C79.2731 57.8281 78.8757 57.9927 78.5826 58.2858C78.2896 58.5788 78.125 58.9762 78.125 59.3906V63.7031C78.125 64.0471 77.9884 64.3769 77.7452 64.6202C77.5019 64.8634 77.1721 65 76.8281 65H41.9219C41.5779 65 41.2481 64.8634 41.0048 64.6202C40.7616 64.3769 40.625 64.0471 40.625 63.7031V44.4219C40.625 44.0779 40.7616 43.7481 41.0048 43.5048C41.2481 43.2616 41.5779 43.125 41.9219 43.125H76.8281C77.1721 43.125 77.5019 43.2616 77.7452 43.5048C77.9884 43.7481 78.125 44.0779 78.125 44.4219V59.0625C78.125 59.4769 78.2896 59.8743 78.5826 60.1674C78.8757 60.4604 79.2731 59.0625 79.6875 59.0625Z" fill="#7081A8"/>
<path d="M55.2188 58.75C54.8043 58.75 54.4069 58.9146 54.1139 59.2076C53.8209 59.5007 53.6562 59.8981 53.6562 60.3125C53.6562 60.7269 53.8209 61.1243 54.1139 61.4174C54.4069 61.7104 54.8043 61.875 55.2188 61.875H59.375C59.7894 61.875 60.1868 61.7104 60.4799 61.4174C60.7729 61.1243 60.9375 60.7269 60.9375 60.3125V47.8125C60.9375 47.3981 60.7729 47.0007 60.4799 46.7076C60.1868 46.4146 59.7894 46.25 59.375 46.25H45.3125C44.8981 46.25 44.5007 46.4146 44.2076 46.7076C43.9146 47.0007 43.75 47.3981 43.75 47.8125V60.3125C43.75 60.7269 43.9146 61.1243 44.2076 61.4174C44.5007 61.7104 44.8981 61.875 45.3125 61.875H56.25C56.6644 61.875 57.0618 61.7104 57.3549 61.4174C57.6479 61.1243 57.8125 60.7269 57.8125 60.3125C57.8125 59.8981 57.6479 59.5007 57.3549 59.2076C57.0618 58.9146 56.6644 58.75 56.25 58.75H46.875V49.375H57.8125V58.75H55.2188Z" fill="#7081A8"/>
<path d="M73.4375 49.375H65.625C65.2106 49.375 64.8132 49.5396 64.5201 49.8326C64.2271 50.1257 64.0625 50.5231 64.0625 50.9375C64.0625 51.3519 64.2271 51.7493 64.5201 52.0424C64.8132 52.3354 65.2106 52.5 65.625 52.5H73.4375C73.8519 52.5 74.2493 52.3354 74.5424 52.0424C74.8354 51.7493 75 51.3519 75 50.9375C75 50.5231 74.8354 50.1257 74.5424 49.8326C74.2493 49.5396 73.8519 49.375 73.4375 49.375Z" fill="#4D9FEB"/>
<path d="M73.4375 55.625H65.625C65.2106 55.625 64.8132 55.7896 64.5201 56.0826C64.2271 56.3757 64.0625 56.7731 64.0625 57.1875C64.0625 57.6019 64.2271 57.9993 64.5201 58.2924C64.8132 58.5854 65.2106 58.75 65.625 58.75H73.4375C73.8519 58.75 74.2493 58.5854 74.5424 58.2924C74.8354 57.9993 75 57.6019 75 57.1875C75 56.7731 74.8354 56.3757 74.5424 56.0826C74.2493 55.7896 73.8519 55.625 73.4375 55.625Z" fill="#4D9FEB"/>
<rect x="48.4375" y="50.9375" width="43.75" height="28.125" rx="3.75" fill="#F6F9FC"/>
<path d="M90.625 70C91.0394 70 91.4368 71.3979 91.7299 71.1049C92.0229 70.8118 92.1875 70.4144 92.1875 70V55.3594C92.1875 54.1866 91.7216 53.0619 90.8924 52.2326C90.0631 51.4034 88.9384 50.9375 87.7656 50.9375H52.8594C51.6866 50.9375 50.5619 51.4034 49.7326 52.2326C48.9034 53.0619 48.4375 54.1866 48.4375 55.3594V74.6406C48.4375 75.8134 48.9034 76.9381 49.7326 77.7674C50.5619 78.5966 51.6866 79.0625 52.8594 79.0625H87.7656C88.9384 79.0625 90.0631 78.5966 90.8924 77.7674C91.7216 76.9381 92.1875 75.8134 92.1875 74.6406V70.3281C92.1875 69.9137 92.0229 69.5163 91.7299 69.2233C91.4368 68.9302 91.0394 68.7656 90.625 68.7656C90.2106 68.7656 89.8132 68.9302 89.5201 69.2233C89.2271 69.5163 89.0625 69.9137 89.0625 70.3281V74.6406C89.0625 74.9846 88.9259 75.3144 88.6827 75.5577C88.4394 75.8009 88.1096 75.9375 87.7656 75.9375H52.8594C52.5154 75.9375 52.1856 75.8009 51.9423 75.5577C51.6991 75.3144 51.5625 74.9846 51.5625 74.6406V55.3594C51.5625 55.0154 51.6991 54.6856 51.9423 54.4423C52.1856 54.1991 52.5154 54.0625 52.8594 54.0625H87.7656C88.1096 54.0625 88.4394 54.1991 88.6827 54.4423C88.9259 54.6856 89.0625 55.0154 89.0625 55.3594V70C89.0625 70.4144 89.2271 70.8118 89.5201 71.1049C89.8132 71.3979 90.2106 70 90.625 70Z" fill="#7081A8"/>
<path d="M66.1562 69.6875C65.7418 69.6875 65.3444 69.8521 65.0514 70.1451C64.7584 70.4382 64.5938 70.8356 64.5938 71.25C64.5938 71.6644 64.7584 72.0618 65.0514 72.3549C65.3444 72.6479 65.7418 72.8125 66.1562 72.8125H70.3125C70.7269 72.8125 71.1243 72.6479 71.4174 72.3549C71.7104 72.0618 71.875 71.6644 71.875 71.25V58.75C71.875 58.3356 71.7104 57.9382 71.4174 57.6451C71.1243 57.3521 70.7269 57.1875 70.3125 57.1875H56.25C55.8356 57.1875 55.4382 57.3521 55.1451 57.6451C54.8521 57.9382 54.6875 58.3356 54.6875 58.75V71.25C54.6875 71.6644 54.8521 72.0618 55.1451 72.3549C55.4382 72.6479 55.8356 72.8125 56.25 72.8125H67.1875C67.6019 72.8125 67.9993 72.6479 68.2924 72.3549C68.5854 72.0618 68.75 71.6644 68.75 71.25C68.75 70.8356 68.5854 70.4382 68.2924 70.1451C67.9993 69.8521 67.6019 69.6875 67.1875 69.6875H57.8125V60.3125H68.75V69.6875H66.1562Z" fill="#7081A8"/>
<path d="M84.375 60.3125H76.5625C76.1481 60.3125 75.7507 60.4771 75.4576 60.7701C75.1646 61.0632 75 61.4606 75 61.875C75 62.2894 75.1646 62.6868 75.4576 62.9799C75.7507 63.2729 76.1481 63.4375 76.5625 63.4375H84.375C84.7894 63.4375 85.1868 63.2729 85.4799 62.9799C85.7729 62.6868 85.9375 62.2894 85.9375 61.875C85.9375 61.4606 85.7729 61.0632 85.4799 60.7701C85.1868 60.4771 84.7894 60.3125 84.375 60.3125Z" fill="#4D9FEB"/>
<path d="M84.375 66.5625H76.5625C76.1481 66.5625 75.7507 66.7271 75.4576 67.0201C75.1646 67.3132 75 67.7106 75 68.125C75 68.5394 75.1646 68.9368 75.4576 69.2299C75.7507 69.5229 76.1481 69.6875 76.5625 69.6875H84.375C84.7894 69.6875 85.1868 69.5229 85.4799 69.2299C85.7729 68.9368 85.9375 68.5394 85.9375 68.125C85.9375 67.7106 85.7729 67.3132 85.4799 67.0201C85.1868 66.7271 84.7894 66.5625 84.375 66.5625Z" fill="#4D9FEB"/>
<rect x="59.375" y="61.875" width="43.75" height="28.125" rx="3.75" fill="#F6F9FC"/>
<path d="M101.562 80.9375C101.977 80.9375 102.374 82.3354 102.667 82.0424C102.96 81.7493 103.125 81.3519 103.125 80.9375V66.2969C103.125 65.1241 102.659 63.9994 101.83 63.1701C101.001 62.3409 99.8759 61.875 98.7031 61.875H63.7969C62.6241 61.875 61.4994 62.3409 60.6701 63.1701C59.8409 63.9994 59.375 65.1241 59.375 66.2969V85.5781C59.375 86.7509 59.8409 87.8756 60.6701 88.7049C61.4994 89.5341 62.6241 90 63.7969 90H98.7031C99.8759 90 101.001 89.5341 101.83 88.7049C102.659 87.8756 103.125 86.7509 103.125 85.5781V81.2656C103.125 80.8512 102.96 80.4538 102.667 80.1608C102.374 79.8677 101.977 79.7031 101.562 79.7031C101.148 79.7031 100.751 79.8677 100.458 80.1608C100.165 80.4538 100 80.8512 100 81.2656V85.5781C100 85.9221 99.8634 86.2519 99.6202 86.4952C99.3769 86.7384 99.0471 86.875 98.7031 86.875H63.7969C63.4529 86.875 63.1231 86.7384 62.8798 86.4952C62.6366 86.2519 62.5 85.9221 62.5 85.5781V66.2969C62.5 65.9529 62.6366 65.6231 62.8798 65.3798C63.1231 65.1366 63.4529 65 63.7969 65H98.7031C99.0471 65 99.3769 65.1366 99.6202 65.3798C99.8634 65.6231 100 65.9529 100 66.2969V80.9375C100 81.3519 100.165 81.7493 100.458 82.0424C100.751 82.3354 101.148 80.9375 101.562 80.9375Z" fill="#7081A8"/>
<path d="M77.0938 80.625C76.6793 80.625 76.2819 80.7896 75.9889 81.0826C75.6959 81.3757 75.5312 81.7731 75.5312 82.1875C75.5312 82.6019 75.6959 82.9993 75.9889 83.2924C76.2819 83.5854 76.6793 83.75 77.0938 83.75H81.25C81.6644 83.75 82.0618 83.5854 82.3549 83.2924C82.6479 82.9993 82.8125 82.6019 82.8125 82.1875V69.6875C82.8125 69.2731 82.6479 68.8757 82.3549 68.5826C82.0618 68.2896 81.6644 68.125 81.25 68.125H67.1875C66.7731 68.125 66.3757 68.2896 66.0826 68.5826C65.7896 68.8757 65.625 69.2731 65.625 69.6875V82.1875C65.625 82.6019 65.7896 82.9993 66.0826 83.2924C66.3757 83.5854 66.7731 83.75 67.1875 83.75H78.125C78.5394 83.75 78.9368 83.5854 79.2299 83.2924C79.5229 82.9993 79.6875 82.6019 79.6875 82.1875C79.6875 81.7731 79.5229 81.3757 79.2299 81.0826C78.9368 80.7896 78.5394 80.625 78.125 80.625H68.75V71.25H79.6875V80.625H77.0938Z" fill="#7081A8"/>
<path d="M95.3125 71.25H87.5C87.0856 71.25 86.6882 71.4146 86.3951 71.7076C86.1021 72.0007 85.9375 72.3981 85.9375 72.8125C85.9375 73.2269 86.1021 73.6243 86.3951 73.9174C86.6882 74.2104 87.0856 74.375 87.5 74.375H95.3125C95.7269 74.375 96.1243 74.2104 96.4174 73.9174C96.7104 73.6243 96.875 73.2269 96.875 72.8125C96.875 72.3981 96.7104 72.0007 96.4174 71.7076C96.1243 71.4146 95.7269 71.25 95.3125 71.25Z" fill="#4D9FEB"/>
<path d="M95.3125 77.5H87.5C87.0856 77.5 86.6882 77.6646 86.3951 77.9576C86.1021 78.2507 85.9375 78.6481 85.9375 79.0625C85.9375 79.4769 86.1021 79.8743 86.3951 80.1674C86.6882 80.4604 87.0856 80.625 87.5 80.625H95.3125C95.7269 80.625 96.1243 80.4604 96.4174 80.1674C96.7104 79.8743 96.875 79.4769 96.875 79.0625C96.875 78.6481 96.7104 78.2507 96.4174 77.9576C96.1243 77.6646 95.7269 77.5 95.3125 77.5Z" fill="#4D9FEB"/>
</svg>
