<svg width="480" height="283" viewBox="0 0 480 283" fill="none" xmlns="http://www.w3.org/2000/svg">
<path d="M113.57 242.16C113.57 242.16 31.3044 190.46 87.5276 135.024C143.751 79.5881 218.988 22.9237 269.422 44.8462C319.857 66.7688 315.318 94.4868 370.725 134.61C426.131 174.733 413.306 206.59 403.384 222.72C393.461 238.85 391.808 243 391.808 243L113.57 242.16Z" fill="#F7F9FC"/>
<path d="M128.268 226.399H111.835C111.145 226.399 110.585 226.959 110.585 227.649V232.062C110.585 232.752 111.145 233.311 111.835 233.311H128.268C128.958 233.311 129.518 232.752 129.518 232.062V227.649C129.518 226.959 128.958 226.399 128.268 226.399Z" fill="#DBE2EA"/>
<path d="M149.749 226.399H133.317C132.626 226.399 132.066 226.959 132.066 227.649V232.062C132.066 232.752 132.626 233.311 133.317 233.311H149.749C150.44 233.311 151 232.752 151 232.062V227.649C151 226.959 150.44 226.399 149.749 226.399Z" fill="#DBE2EA"/>
<path d="M138.856 216.894H122.423C121.733 216.894 121.173 217.453 121.173 218.143V222.556C121.173 223.246 121.733 223.805 122.423 223.805H138.856C139.546 223.805 140.106 223.246 140.106 222.556V218.143C140.106 217.453 139.546 216.894 138.856 216.894Z" fill="#DBE2EA"/>
<path d="M120.067 62.0268C121.31 61.9148 122.228 60.8165 122.116 59.5737C122.004 58.3309 120.904 57.4142 119.661 57.5262C118.417 57.6382 117.499 58.7365 117.611 59.9793C117.723 61.2221 118.823 62.1388 120.067 62.0268Z" fill="white"/>
<path d="M128.89 62.0278C130.134 61.9158 131.051 60.8175 130.939 59.5747C130.827 58.3319 129.728 57.4152 128.484 57.5272C127.24 57.6392 126.322 58.7375 126.434 59.9803C126.547 61.2231 127.646 62.1398 128.89 62.0278Z" fill="white"/>
<path d="M137.713 62.0282C138.957 61.9162 139.874 60.8179 139.762 59.5751C139.65 58.3323 138.551 57.4156 137.307 57.5277C136.063 57.6397 135.146 58.738 135.258 59.9808C135.37 61.2236 136.469 62.1402 137.713 62.0282Z" fill="white"/>
<path d="M141.627 74.2119V192.115C141.628 193.587 142.214 194.998 143.256 196.038C144.298 197.078 145.711 197.663 147.184 197.663H332.168C332.898 197.663 333.621 197.52 334.295 197.241C334.969 196.962 335.582 196.553 336.098 196.037C336.614 195.521 337.024 194.909 337.303 194.236C337.582 193.562 337.726 192.84 337.725 192.11V74.2119H141.627Z" fill="white"/>
<path d="M337.735 69.5524C337.735 68.8231 337.592 68.101 337.313 67.4272C337.034 66.7534 336.624 66.1412 336.108 65.6256C335.592 65.1099 334.979 64.7009 334.305 64.422C333.63 64.1431 332.908 63.9997 332.178 64H147.194C145.72 64 144.307 64.585 143.264 65.6262C142.222 66.6675 141.637 68.0798 141.637 69.5524V74.1049H337.735V69.5524Z" fill="white"/>
<path d="M332.178 197.855H147.194C145.643 197.853 144.156 197.236 143.059 196.14C141.963 195.044 141.346 193.558 141.345 192.008V73.8101H338.03V192.008C338.029 193.558 337.412 195.044 336.315 196.141C335.218 197.237 333.73 197.853 332.178 197.855ZM141.932 74.3966V192.008C141.933 193.402 142.488 194.739 143.474 195.725C144.461 196.711 145.799 197.266 147.194 197.268H332.178C333.574 197.266 334.912 196.711 335.899 195.725C336.886 194.739 337.441 193.402 337.443 192.008V74.3966H141.932Z" fill="#1DA1F2"/>
<path d="M338.03 74.397H141.345V69.5524C141.346 68.0025 141.963 66.5164 143.059 65.4203C144.156 64.3241 145.643 63.7075 147.194 63.7056H332.178C333.73 63.7068 335.218 64.3232 336.315 65.4194C337.412 66.5157 338.029 68.0021 338.03 69.5524V74.397ZM141.932 73.8104H337.443V69.5524C337.441 68.1579 336.886 66.821 335.899 65.8349C334.912 64.8488 333.574 64.294 332.178 64.2921H147.194C145.799 64.294 144.461 64.8489 143.474 65.8351C142.488 66.8212 141.933 68.1581 141.932 69.5524V73.8104Z" fill="#1DA1F2"/>
<path d="M151.144 71.3265C150.694 71.3261 150.254 71.1923 149.879 70.942C149.505 70.6917 149.214 70.3362 149.042 69.9205C148.87 69.5047 148.825 69.0473 148.913 68.6062C149.001 68.165 149.218 67.7598 149.537 67.4419C149.855 67.1239 150.261 66.9075 150.703 66.8199C151.145 66.7323 151.602 66.7775 152.018 66.9498C152.434 67.122 152.79 67.4136 153.04 67.7877C153.29 68.1618 153.423 68.6016 153.423 69.0515C153.423 69.6551 153.182 70.2337 152.755 70.6603C152.327 71.0869 151.748 71.3265 151.144 71.3265ZM151.144 67.3701C150.811 67.3705 150.486 67.4696 150.21 67.6546C149.933 67.8396 149.718 68.1024 149.591 68.4097C149.464 68.7169 149.431 69.0549 149.496 69.3809C149.561 69.7069 149.722 70.0063 149.957 70.2412C150.193 70.4761 150.492 70.636 150.819 70.7007C151.145 70.7654 151.483 70.732 151.791 70.6046C152.098 70.4773 152.361 70.2618 152.546 69.9853C152.731 69.7089 152.829 69.3839 152.829 69.0515C152.829 68.6053 152.651 68.1776 152.335 67.8624C152.019 67.5471 151.59 67.3701 151.144 67.3701Z" fill="#1F3965"/>
<path d="M158.869 71.3265C158.419 71.3261 157.979 71.1923 157.605 70.942C157.231 70.6917 156.939 70.3362 156.767 69.9205C156.595 69.5047 156.551 69.0473 156.639 68.6062C156.727 68.165 156.944 67.7598 157.263 67.4419C157.581 67.1239 157.987 66.9075 158.428 66.8199C158.87 66.7323 159.328 66.7775 159.744 66.9498C160.16 67.122 160.515 67.4136 160.765 67.7877C161.015 68.1618 161.149 68.6016 161.149 69.0515C161.148 69.6551 160.908 70.2337 160.48 70.6603C160.053 71.0869 159.474 71.3265 158.869 71.3265ZM158.869 67.3701C158.537 67.3705 158.212 67.4696 157.935 67.6546C157.659 67.8396 157.443 68.1024 157.316 68.4097C157.189 68.7169 157.156 69.0549 157.222 69.3809C157.287 69.7069 157.447 70.0063 157.683 70.2412C157.918 70.4761 158.218 70.636 158.544 70.7007C158.871 70.7654 159.209 70.732 159.516 70.6046C159.824 70.4773 160.086 70.2618 160.271 69.9853C160.456 69.7089 160.555 69.3839 160.555 69.0515C160.554 68.6053 160.376 68.1776 160.06 67.8624C159.744 67.5471 159.316 67.3701 158.869 67.3701Z" fill="#1F3965"/>
<path d="M166.595 71.3265C166.145 71.3261 165.705 71.1923 165.331 70.942C164.956 70.6917 164.665 70.3362 164.493 69.9205C164.321 69.5047 164.276 69.0473 164.364 68.6062C164.452 68.165 164.67 67.7598 164.988 67.4419C165.307 67.1239 165.712 66.9075 166.154 66.8199C166.596 66.7323 167.053 66.7775 167.469 66.9498C167.885 67.122 168.241 67.4136 168.491 67.7877C168.741 68.1618 168.875 68.6016 168.875 69.0515C168.874 69.6551 168.633 70.2337 168.206 70.6603C167.779 71.0869 167.199 71.3265 166.595 71.3265ZM166.595 67.3701C166.262 67.3705 165.937 67.4696 165.661 67.6546C165.384 67.8396 165.169 68.1024 165.042 68.4097C164.915 68.7169 164.882 69.0549 164.947 69.3809C165.012 69.7069 165.173 70.0063 165.408 70.2412C165.644 70.4761 165.944 70.636 166.27 70.7007C166.596 70.7654 166.935 70.732 167.242 70.6046C167.549 70.4773 167.812 70.2618 167.997 69.9853C168.182 69.7089 168.28 69.3839 168.28 69.0515C168.28 68.6053 168.102 68.1776 167.786 67.8624C167.47 67.5471 167.042 67.3701 166.595 67.3701Z" fill="#1F3965"/>
<g clip-path="url(#clip0_2183_168780)">
<path opacity="0.2" d="M332.496 77.7144H146.88V192.411H332.496V77.7144Z" fill="#DBE2EA"/>
<line x1="152.309" y1="78.0088" x2="152.309" y2="192.706" stroke="#DBE2EA" stroke-width="0.35022"/>
<line x1="169.82" y1="78.0088" x2="169.82" y2="192.706" stroke="#DBE2EA" stroke-width="0.35022"/>
<line x1="187.331" y1="78.0088" x2="187.331" y2="192.706" stroke="#DBE2EA" stroke-width="0.35022"/>
<line x1="204.842" y1="78.0088" x2="204.842" y2="192.706" stroke="#DBE2EA" stroke-width="0.35022"/>
<line x1="222.353" y1="78.0088" x2="222.353" y2="192.706" stroke="#DBE2EA" stroke-width="0.35022"/>
<line x1="239.864" y1="78.0088" x2="239.864" y2="192.706" stroke="#DBE2EA" stroke-width="0.35022"/>
<line x1="257.374" y1="78.0088" x2="257.374" y2="192.706" stroke="#DBE2EA" stroke-width="0.35022"/>
<line x1="274.886" y1="78.0088" x2="274.886" y2="192.706" stroke="#DBE2EA" stroke-width="0.35022"/>
<line x1="292.397" y1="78.0088" x2="292.397" y2="192.706" stroke="#DBE2EA" stroke-width="0.35022"/>
<line x1="309.908" y1="78.0088" x2="309.908" y2="192.706" stroke="#DBE2EA" stroke-width="0.35022"/>
<line x1="327.418" y1="78.0088" x2="327.418" y2="192.706" stroke="#DBE2EA" stroke-width="0.35022"/>
<line x1="146.88" y1="182.9" x2="332.496" y2="182.9" stroke="#DBE2EA" stroke-width="0.35022"/>
<line x1="146.88" y1="165.388" x2="332.496" y2="165.388" stroke="#DBE2EA" stroke-width="0.35022"/>
<line x1="146.88" y1="147.878" x2="332.496" y2="147.878" stroke="#DBE2EA" stroke-width="0.35022"/>
<line x1="146.88" y1="130.366" x2="332.496" y2="130.366" stroke="#DBE2EA" stroke-width="0.35022"/>
<line x1="146.88" y1="112.856" x2="332.496" y2="112.856" stroke="#DBE2EA" stroke-width="0.35022"/>
<line x1="146.88" y1="95.3444" x2="332.496" y2="95.3444" stroke="#DBE2EA" stroke-width="0.35022"/>
<line x1="146.88" y1="77.8337" x2="332.496" y2="77.8337" stroke="#DBE2EA" stroke-width="0.35022"/>
<g clip-path="url(#clip1_2183_168780)">
<path d="M256.561 117.794C256.56 116.993 255.913 116.346 255.113 116.344H244.795C244.795 116.319 244.795 116.293 244.795 116.266C244.795 113.358 242.437 111 239.527 111C236.618 111 234.26 113.358 234.26 116.266C234.258 116.293 234.258 116.319 234.26 116.344H223.963C223.165 116.346 222.516 116.993 222.515 117.794V123.012H256.557L256.561 117.794ZM235.627 116.272C235.627 114.112 237.378 112.361 239.536 112.361C241.695 112.361 243.445 114.112 243.445 116.272C243.444 116.299 243.444 116.323 243.445 116.348H235.622C235.625 116.323 235.627 116.299 235.627 116.272ZM249.436 121.103H229.636C229.262 121.103 228.958 120.8 228.958 120.423C228.958 120.049 229.262 119.744 229.636 119.744H249.436C249.811 119.744 250.114 120.049 250.114 120.423C250.114 120.8 249.811 121.103 249.436 121.103Z" fill="#6B82AB"/>
<path d="M255.113 160.031C255.913 160.029 256.56 159.382 256.561 158.581V124.371H222.515V158.581C222.517 159.382 223.165 160.029 223.963 160.031H255.113ZM235.554 130.498H251.609C251.984 130.498 252.288 130.801 252.288 131.178C252.288 131.552 251.984 131.856 251.609 131.856H235.554C235.18 131.856 234.876 131.552 234.876 131.178C234.876 130.801 235.18 130.498 235.554 130.498ZM235.554 137.579H251.609C251.984 137.579 252.288 137.882 252.288 138.256C252.288 138.632 251.984 138.936 251.609 138.936H235.554C235.18 138.936 234.876 138.632 234.876 138.256C234.876 137.882 235.18 137.579 235.554 137.579ZM235.554 144.658H251.609C251.984 144.658 252.288 144.964 252.288 145.338C252.288 145.714 251.984 146.017 251.609 146.017H235.554C235.18 146.017 234.876 145.714 234.876 145.338C234.876 144.964 235.18 144.658 235.554 144.658ZM235.554 151.74H251.609C251.984 151.74 252.288 152.044 252.288 152.418C252.288 152.795 251.984 153.098 251.609 153.098H235.554C235.18 153.098 234.876 152.795 234.876 152.418C234.876 152.044 235.18 151.74 235.554 151.74ZM227.881 129.769C228.188 129.553 228.612 129.627 228.827 129.936L229.482 130.875L233.231 127.936C233.534 127.712 233.958 127.776 234.181 128.079C234.395 128.368 234.345 128.772 234.07 129.003L229.741 132.381C229.622 132.474 229.475 132.525 229.325 132.525H229.225C229.043 132.498 228.878 132.395 228.773 132.245L227.703 130.72C227.489 130.411 227.565 129.987 227.872 129.775C227.875 129.772 227.878 129.771 227.881 129.769ZM227.881 136.746C228.188 136.531 228.612 136.606 228.827 136.912L229.482 137.851L233.231 134.912C233.534 134.689 233.958 134.754 234.181 135.056C234.395 135.344 234.345 135.751 234.07 135.98L229.741 139.358C229.622 139.45 229.475 139.501 229.325 139.504H229.225C229.043 139.476 228.878 139.375 228.773 139.221L227.713 137.692C227.498 137.384 227.572 136.961 227.879 136.746C227.881 136.746 227.881 136.746 227.881 136.746ZM227.881 143.745C228.188 143.529 228.612 143.605 228.827 143.913L229.482 144.85L233.231 141.907C233.52 141.666 233.948 141.706 234.188 141.995C234.429 142.282 234.389 142.709 234.1 142.951C234.092 142.96 234.08 142.967 234.07 142.975L229.741 146.358C229.622 146.452 229.475 146.503 229.325 146.503H229.225C229.043 146.475 228.878 146.374 228.773 146.223L227.703 144.697C227.487 144.389 227.559 143.965 227.866 143.751C227.871 143.748 227.875 143.743 227.881 143.741V143.745ZM227.881 150.826C228.188 150.61 228.612 150.687 228.827 150.993L229.482 151.932L233.231 149.011C233.534 148.786 233.958 148.853 234.181 149.154C234.395 149.444 234.345 149.849 234.07 150.078L229.741 153.457C229.622 153.551 229.475 153.601 229.325 153.602H229.225C229.043 153.574 228.878 153.473 228.773 153.32L227.713 151.771C227.497 151.467 227.569 151.043 227.874 150.825C227.875 150.825 227.879 150.824 227.881 150.821V150.826Z" fill="#6B82AB"/>
</g>
<g clip-path="url(#clip2_2183_168780)">
<path d="M230.204 152.42C228.476 150.692 226.178 149.74 223.735 149.74C221.291 149.74 218.993 150.692 217.265 152.42C214.315 155.37 213.805 159.849 215.733 163.328L211.605 167.456C210.638 168.423 210.638 169.996 211.605 170.962C212.073 171.431 212.696 171.689 213.358 171.689C214.02 171.689 214.643 171.431 215.111 170.962L219.221 166.853C220.581 167.627 222.126 168.039 223.735 168.039C226.179 168.039 228.476 167.088 230.204 165.36C233.772 161.792 233.772 155.988 230.204 152.42ZM228.585 163.74C227.289 165.035 225.567 165.749 223.735 165.749C221.903 165.749 220.18 165.035 218.885 163.74C216.21 161.066 216.21 156.714 218.885 154.04C220.18 152.744 221.903 152.031 223.735 152.031C225.567 152.031 227.289 152.744 228.585 154.04C231.259 156.714 231.259 161.066 228.585 163.74Z" fill="#1DA1F2"/>
</g>
</g>
<defs>
<clipPath id="clip0_2183_168780">
<rect x="146.88" y="77.7144" width="185.616" height="114.697" rx="4" fill="white"/>
</clipPath>
<clipPath id="clip1_2183_168780">
<rect width="37" height="49" fill="white" transform="translate(221 111)"/>
</clipPath>
<clipPath id="clip2_2183_168780">
<rect width="22" height="22" fill="white" transform="translate(210.88 149.714)"/>
</clipPath>
</defs>
</svg>
