<svg width="156" height="156" viewBox="0 0 156 156" fill="none" xmlns="http://www.w3.org/2000/svg">
<g filter="url(#filter0_d_7967_28601)">
<circle cx="78" cy="74" r="70" fill="#EFF9FF"/>
<path d="M69.25 85.25H61.75V87.75H69.25V85.25Z" fill="#4D9FEB"/>
<path d="M79.25 85.25H71.75V87.75H79.25V85.25Z" fill="#4D9FEB"/>
<path d="M54.25 80.25H51.75V85.25C51.75 86.6287 52.8712 87.75 54.25 87.75H59.25V85.25H54.25V80.25Z" fill="#4D9FEB"/>
<path d="M86.75 85.25H81.75V87.75H86.75C88.1287 87.75 89.25 86.6287 89.25 85.25V80.25H86.75V85.25Z" fill="#4D9FEB"/>
<path d="M54.25 70.25H51.75V77.75H54.25V70.25Z" fill="#4D9FEB"/>
<path d="M51.75 62.75V67.75H54.25V62.75H59.25V60.25H54.25C52.8712 60.25 51.75 61.3712 51.75 62.75Z" fill="#4D9FEB"/>
<path d="M86.75 72.75V77.75H89.25V72.75H96.75V70.25H89.25C87.8712 70.25 86.75 71.3712 86.75 72.75Z" fill="#4D9FEB"/>
<path d="M69.25 60.25H61.75V62.75H69.25V60.25Z" fill="#4D9FEB"/>
<path d="M108.815 52.5925L100.342 47.625C98.2 46.1338 95.3213 46.1325 93.2563 47.5763L84.9688 52.4888C84.54 52.7875 83.9613 52.7888 83.4538 52.44L75.3438 47.625C73.2013 46.1338 70.3225 46.1325 68.2575 47.5763L59.97 52.4888C59.54 52.7888 58.9613 52.7888 58.4625 52.445L49.4062 46.9588C48.6288 46.4163 47.625 46.35 46.79 46.7863C45.98 47.21 45.5 48.06 45.5 49C45.5 49 45.5 92.125 45.5 92.1475C45.5 93.3438 46.1262 94.5213 47.1975 95.265L55.6688 100.378C56.775 101.045 57.9263 101.5 59.25 101.5C60.4875 101.5 61.7338 101.139 62.765 100.421L70.9762 95.4613C71.1912 95.3113 71.4425 95.2363 71.7037 95.2425C71.965 95.2488 72.235 95.335 72.4888 95.5088L80.6562 100.376C81.6963 101.1 82.99 101.5 84.2575 101.5C85.495 101.5 86.7212 101.138 87.75 100.421L96.07 95.4788C96.5013 95.18 97.08 95.18 97.5787 95.5238L106.569 101.004C107.345 101.545 108.349 101.611 109.182 101.176C109.995 100.753 110.5 99.9188 110.5 99V55.7075C110.5 54.4888 109.901 53.3438 108.815 52.5925ZM107.999 99C105.154 97.25 102.309 95.5 99.4638 93.7488C98.6325 93.2375 97.745 92.7088 96.7687 92.7075C96.0363 92.7063 95.3512 93.0025 94.7025 93.3638C94.4912 93.4813 94.285 93.6063 94.0813 93.73C91.975 95.0088 89.87 96.2875 87.7638 97.565C86.515 98.3225 85.1375 99.11 83.6887 98.92C82.7912 98.8025 81.9888 98.3188 81.2175 97.845C79.1888 96.6013 77.1588 95.3588 75.13 94.115C73.9225 93.375 72.5925 92.6075 71.1875 92.7813C70.2962 92.8925 69.5 93.3725 68.7337 93.8425C66.6887 95.0975 64.6438 96.3525 62.5988 97.6075C61.405 98.34 60.0837 99.1025 58.6962 98.9138C57.8662 98.8013 57.1225 98.3575 56.4062 97.9225C54.0063 96.4675 51.6075 95.0138 49.2075 93.5588C48.835 93.3325 48.4462 93.0913 48.2287 92.7138C48.0025 92.3213 47.9975 91.845 47.9975 91.3925C47.9975 88.0713 47.9275 49.4075 48.015 49.0213C48.3725 49.1375 55.0837 53.3088 56.5 54.1713C56.5288 54.1888 56.5562 54.2063 56.585 54.2225C57.4187 54.73 58.31 55.255 59.2862 55.2525C60.2525 55.25 61.1337 54.7325 61.96 54.2313C64.0562 52.9588 66.1525 51.6863 68.2487 50.415C69.4875 49.6638 70.8525 48.8825 72.2887 49.0675C73.1838 49.1825 73.9825 49.6625 74.7525 50.1325C76.79 51.375 78.8275 52.6163 80.865 53.8588C82.0425 54.5763 83.3337 55.3213 84.7038 55.1688C85.6112 55.0675 86.4225 54.5813 87.2025 54.1075C89.3175 52.8188 91.4338 51.5313 93.5487 50.2425C94.5238 49.6488 95.5625 49.0363 96.7038 49.0313C97.835 49.0263 98.8713 49.62 99.845 50.1963C102.18 51.5775 104.516 52.9588 106.851 54.34C107.191 54.54 107.542 54.7538 107.751 55.0888C107.992 55.4763 108 55.96 108 56.4175C108.001 70.6125 108 84.8063 107.999 99Z" fill="#7081A8"/>
<path d="M103.824 65.6763C103.255 65.1075 102.334 65.1075 101.765 65.6763L99.03 68.4113C98.4613 68.98 97.54 68.98 96.9713 68.4113L94.2363 65.6763C93.6675 65.1075 92.7463 65.1075 92.1775 65.6763C91.6088 66.245 91.6088 67.1663 92.1775 67.735L94.9125 70.47C95.4813 71.0388 95.4813 71.96 94.9125 72.5288L92.1775 75.2638C91.6088 75.8325 91.6088 76.7538 92.1775 77.3225C92.7463 77.8913 93.6675 77.8913 94.2363 77.3225L96.9713 74.5875C97.54 74.0188 98.4613 74.0188 99.03 74.5875L101.765 77.3225C102.334 77.8913 103.255 77.8913 103.824 77.3225C104.393 76.7538 104.393 75.8325 103.824 75.2638L101.089 72.5288C100.52 71.96 100.52 71.0388 101.089 70.47L103.824 67.735C104.393 67.1663 104.393 66.245 103.824 65.6763Z" fill="#4D9FEB"/>
</g>
<defs>
<filter id="filter0_d_7967_28601" x="0" y="0" width="156" height="156" filterUnits="userSpaceOnUse" color-interpolation-filters="sRGB">
<feFlood flood-opacity="0" result="BackgroundImageFix"/>
<feColorMatrix in="SourceAlpha" type="matrix" values="0 0 0 0 0 0 0 0 0 0 0 0 0 0 0 0 0 0 127 0" result="hardAlpha"/>
<feOffset dy="4"/>
<feGaussianBlur stdDeviation="4"/>
<feComposite in2="hardAlpha" operator="out"/>
<feColorMatrix type="matrix" values="0 0 0 0 0.615686 0 0 0 0 0.713726 0 0 0 0 0.85098 0 0 0 0.2 0"/>
<feBlend mode="normal" in2="BackgroundImageFix" result="effect1_dropShadow_7967_28601"/>
<feBlend mode="normal" in="SourceGraphic" in2="effect1_dropShadow_7967_28601" result="shape"/>
</filter>
</defs>
</svg>
