<svg width="385" height="233" viewBox="0 0 385 233" fill="none" xmlns="http://www.w3.org/2000/svg">
<path d="M20.5908 230.76C9.35385 230.757 9.1242 177.715 9.70703 170.267C10.9725 154.081 15.567 138.143 23.1708 123.797C30.9408 109.135 45.9962 100.214 52.5943 84.8981C59.0941 69.8074 59.0608 52.6696 66.4175 37.8403C75.8331 18.8568 96.218 7.23887 116.997 3.11485C156.535 -4.73077 211.022 1.81094 243.176 27.7465C247.39 31.1465 267.856 29.7919 274.314 30.8407C289.878 33.3661 303.448 37.4775 314.693 49.3504C326.673 61.9998 332.667 80.0944 330.607 97.3969C329.799 104.187 328.02 111.813 332.097 117.303C335.657 122.098 342.217 123.176 347.94 124.885C386.842 136.511 392.049 179.207 377.672 211.569L368.567 230.763C368.567 230.763 21.4159 230.763 20.5924 230.763L20.5908 230.76Z" fill="#E6EAEF"/>
<path d="M171.166 87.9775H94.8574V229.303H171.166V229.352H181.536V87.9775H171.166ZM96.5869 191.807V192.063V191.807ZM169.438 209.575L149.303 209.637V209.645L143.209 209.669H143.168L143.182 215.399L143.225 215.431L143.255 227.492H96.5901V195.921H169.441V209.575H169.438ZM112.851 192.049L112.922 192.065H112.851V192.049ZM169.438 192.065L96.5869 191.808V160.496H169.438V192.067V192.065ZM169.438 156.638H96.5869V125.067H169.438V156.638ZM169.438 121.211H96.5869V89.6395H169.438V121.211Z" fill="#C0C9D9"/>
<path d="M255.236 87.9775H178.928V229.303H255.236V229.352H265.607V87.9775H255.236ZM180.657 191.807V192.063V191.807ZM253.508 209.575V227.492H180.657V195.921H253.508V209.575ZM196.921 192.049L196.992 192.065H196.921V192.049ZM253.508 192.065L180.657 191.808V160.496H253.508V192.067V192.065ZM253.508 156.638H180.657V125.067H253.508V156.638ZM253.508 121.211H180.657V89.6395H253.508V121.211Z" fill="#C0C9D9"/>
<path d="M380.158 229.343H0.471967C0.211307 229.343 0 229.554 0 229.815V229.977C0 230.237 0.211307 230.449 0.471967 230.449H380.158C380.419 230.449 380.63 230.237 380.63 229.977V229.815C380.63 229.554 380.419 229.343 380.158 229.343Z" fill="#1F3965"/>
<path d="M184.707 32.4743H184.086L183.919 13.6064H184.873L184.707 32.4743Z" fill="#36B37E"/>
<path d="M187.592 11.046L181.466 10.9082L183.92 13.6063H184.873L187.592 11.046Z" fill="#36B37E"/>
<path d="M174.251 38.3763L184.086 32.4746H184.707L193.81 39.7134C186.31 43.2924 179.68 43.2909 174.249 38.3778L174.251 38.3763Z" fill="#36B37E"/>
<path d="M174.583 38.4473C174.583 38.4473 178.345 41.9233 183.306 42.0422C188.268 42.161 193.428 39.6641 193.428 39.6641C193.428 39.6641 190.733 38.3031 185.676 38.018C180.619 37.7312 174.583 38.4473 174.583 38.4473Z" fill="white"/>
<path d="M187.668 38.4456C187.675 38.3632 187.676 38.2808 187.671 38.2C187.052 38.1239 186.39 38.0606 185.676 38.0194C184.298 37.9417 182.847 37.9386 181.466 37.9734C181.378 39.2979 182.671 40.4767 184.374 40.6113C186.086 40.7476 187.561 39.778 187.667 38.444L187.668 38.4456Z" fill="#F9DDB1"/>
<path style="mix-blend-mode:overlay" opacity="0.5" d="M184.873 33.1747L192.212 38.7579C190.57 38.3428 189.035 37.9879 187.895 37.8517L184.873 33.1747ZM184.396 32.9117L184.715 37.5016L186.702 37.6758L184.661 33.0543L184.396 32.9102V32.9117Z" fill="url(#paint0_linear_363_5850)"/>
<path style="mix-blend-mode:screen" opacity="0.4" d="M174.668 38.5995L99 114.66C99 114.66 137.001 128.335 185.503 129.06C234.005 129.786 240.042 117.666 240.042 117.666L193.512 39.8162C189.136 37.7914 182.633 37.5744 174.667 38.5995H174.668Z" fill="url(#paint1_linear_363_5850)"/>
<path d="M157.249 215.233V229.548L193.739 231.696V217.917L157.249 215.233Z" fill="#87C7F6"/>
<path d="M157.249 215.233L172.095 212.996L210.016 215.905L193.739 217.917L157.249 215.233Z" fill="#167BB9"/>
<path d="M193.739 231.696L208.407 229.057L210.016 215.905L193.739 217.917V231.696Z" fill="#53B1F3"/>
<path d="M171.647 208.97L174.867 201.098L208.586 219.17L205.545 227.043L171.647 208.97Z" fill="#E1F1FC"/>
<path d="M223.611 223.463L220.928 231.517L205.545 227.042L208.586 219.17L223.611 223.463Z" fill="#9CD7FF"/>
<path d="M223.611 223.464L190.117 205.035L174.867 201.098L208.586 219.17L223.611 223.464Z" fill="#F4FBFF"/>
<path d="M123.8 195.96V230.316L153.135 233V198.823L123.8 195.96Z" fill="#87C7F6"/>
<path d="M153.134 198.823V233L168.875 230.495V195.96L153.134 198.823Z" fill="#53B1F3"/>
<path d="M123.8 195.96L138.467 193.813L168.876 195.96L153.135 198.823L123.8 195.96Z" fill="#167BB9"/>
<path d="M117.449 191.755L123.8 195.96L138.467 193.814L132.385 189.43L117.449 191.755Z" fill="#E1F1FC"/>
<path d="M138.467 193.813L144.37 187.46L174.511 189.876L168.875 195.96L138.467 193.813Z" fill="#E1F1FC"/>
<path d="M153.134 198.823L146.964 204.452L116.644 202.133L123.8 195.96L153.134 198.823Z" fill="#E1F1FC"/>
<path d="M154.048 198.656L162.615 200.206L177.373 197.839L168.876 195.96L154.048 198.656Z" fill="#E1F1FC"/>
<defs>
<linearGradient id="paint0_linear_363_5850" x1="190.578" y1="34.1903" x2="184.199" y2="38.8018" gradientUnits="userSpaceOnUse">
<stop stop-color="#FFF7CC"/>
<stop offset="1" stop-color="#FFF7CC"/>
</linearGradient>
<linearGradient id="paint1_linear_363_5850" x1="171.423" y1="102.79" x2="181.519" y2="31.8195" gradientUnits="userSpaceOnUse">
<stop stop-color="white"/>
<stop offset="0.06" stop-color="#FFF9E9"/>
<stop offset="0.17" stop-color="#FFF2CB"/>
<stop offset="0.28" stop-color="#FFEDB3"/>
<stop offset="0.41" stop-color="#FFE9A3"/>
<stop offset="0.54" stop-color="#FFE699"/>
<stop offset="0.71" stop-color="#FDF2E0"/>
</linearGradient>
</defs>
</svg>
