<svg width="156" height="156" viewBox="0 0 156 156" fill="none" xmlns="http://www.w3.org/2000/svg">
<g filter="url(#filter0_d_7967_28614)">
<circle cx="78" cy="74" r="70" fill="#EFF9FF"/>
</g>
<path d="M79.9755 86.5603C79.8575 86.6811 79.6962 86.75 79.5268 86.75C79.3573 86.75 79.1961 86.6811 79.0781 86.5603C78.9603 86.4397 78.8951 86.2774 78.8951 86.1094V61.1094C78.8951 60.9413 78.9603 60.779 79.0781 60.6584C79.1961 60.5377 79.3573 60.4688 79.5268 60.4688C79.6962 60.4688 79.8575 60.5377 79.9755 60.6584C80.0933 60.779 80.1584 60.9413 80.1584 61.1094V86.1094C80.1584 86.2774 80.0933 86.4397 79.9755 86.5603Z" fill="#4D9FEB" stroke="#4D9FEB" stroke-width="0.5"/>
<path d="M89.1356 86.5603C89.0176 86.6811 88.8563 86.75 88.6869 86.75C88.5175 86.75 88.3562 86.6811 88.2382 86.5603C88.1204 86.4397 88.0552 86.2774 88.0552 86.1094V61.1094C88.0552 60.9413 88.1204 60.779 88.2382 60.6584C88.3562 60.5377 88.5175 60.4688 88.6869 60.4688C88.8563 60.4688 89.0176 60.5377 89.1356 60.6584C89.2534 60.779 89.3186 60.9413 89.3186 61.1094V86.1094C89.3186 86.2774 89.2534 86.4397 89.1356 86.5603Z" fill="#4D9FEB" stroke="#4D9FEB" stroke-width="0.5"/>
<path d="M111.727 86.75H118.105C118.966 86.75 119.796 86.4411 120.411 85.8846C121.028 85.3273 121.38 84.5657 121.38 83.7656V61.1094C121.38 59.4805 120.664 57.924 119.399 56.7807C118.135 55.6381 116.426 55 114.648 55H58.5343H42.1149C40.3373 55 38.6281 55.6381 37.3642 56.7807C36.0995 57.9241 35.3835 59.4805 35.3835 61.1094V83.7656C35.3835 84.5657 35.7354 85.3273 36.3518 85.8846C36.9674 86.4411 37.7974 86.75 38.6582 86.75H41.219C41.261 86.7733 41.2997 86.7793 41.3194 86.7812C41.3476 86.784 41.3712 86.7818 41.386 86.7797C41.4161 86.7755 41.442 86.7671 41.4614 86.7593C41.4805 86.7516 41.5064 86.7391 41.5325 86.7196C41.5453 86.71 41.5656 86.6932 41.5851 86.6681C41.603 86.6451 41.6357 86.595 41.6393 86.5227C41.6412 86.4846 41.6345 86.4452 41.6183 86.408C41.6152 86.4011 41.612 86.3944 41.6085 86.3881C41.6079 86.2726 41.6065 86.218 41.6048 86.1845C41.6038 86.1634 41.603 86.1542 41.6025 86.148C41.6018 86.1387 41.6015 86.1359 41.6015 86.1094C41.6015 86.1097 41.6016 86.1095 41.6016 86.1087C41.602 86.1056 41.6035 86.093 41.6094 86.063C41.6107 86.0563 41.6123 86.0483 41.6141 86.0395C41.6198 86.0116 41.6272 85.975 41.6325 85.9417C41.6394 85.8974 41.6469 85.8357 41.6406 85.7718C41.6398 85.7633 41.6386 85.7541 41.6371 85.7445C41.6394 85.7283 41.6401 85.7121 41.6393 85.6961C41.6357 85.6237 41.603 85.5737 41.5851 85.5507C41.5656 85.5256 41.5453 85.5088 41.5325 85.4992C41.5064 85.4797 41.4805 85.4672 41.4614 85.4595C41.442 85.4517 41.4161 85.4433 41.386 85.439C41.3712 85.4369 41.3476 85.4347 41.3194 85.4375C41.2997 85.4395 41.261 85.4455 41.219 85.4688H38.6582C38.1438 85.4688 37.655 85.2838 37.2982 84.9612L37.1305 85.1467L37.2982 84.9612C36.9422 84.6394 36.7477 84.2087 36.7477 83.7656V61.1096C36.7499 59.8382 37.3094 58.6138 38.3131 57.7063C39.3177 56.7981 40.6846 56.2833 42.1151 56.2812H114.648C116.079 56.2833 117.446 56.7981 118.45 57.7063C119.454 58.6138 120.013 59.8384 120.016 61.1098V83.7656C120.016 84.2087 119.821 84.6394 119.465 84.9612C119.108 85.2838 118.619 85.4688 118.105 85.4688H111.727C111.686 85.4455 111.647 85.4395 111.627 85.4375C111.599 85.4347 111.575 85.4369 111.56 85.439C111.53 85.4433 111.504 85.4517 111.485 85.4595C111.466 85.4672 111.44 85.4797 111.414 85.4992C111.401 85.5088 111.381 85.5256 111.361 85.5507C111.343 85.5737 111.311 85.6237 111.307 85.696C111.305 85.7341 111.312 85.7735 111.328 85.8107C111.331 85.8175 111.334 85.824 111.338 85.8302V85.8311V85.8321V85.833V85.8339V85.8348V85.8358V85.8367V85.8376V85.8385V85.8395V85.8404V85.8413V85.8423V85.8432V85.8442V85.8451V85.8461V85.847V85.848V85.8489V85.8499V85.8508V85.8518V85.8527V85.8537V85.8547V85.8556V85.8566V85.8576V85.8585V85.8595V85.8605V85.8614V85.8624V85.8634V85.8644V85.8654V85.8663V85.8673V85.8683V85.8693V85.8703V85.8713V85.8722V85.8732V85.8742V85.8752V85.8762V85.8772V85.8782V85.8792V85.8802V85.8812V85.8822V85.8832V85.8842V85.8852V85.8862V85.8872V85.8882V85.8892V85.8902V85.8912V85.8922V85.8933V85.8943V85.8953V85.8963V85.8973V85.8983V85.8993V85.9003V85.9014V85.9024V85.9034V85.9044V85.9054V85.9065V85.9075V85.9085V85.9095V85.9105V85.9116V85.9126V85.9136V85.9146V85.9156V85.9167V85.9177V85.9187V85.9197V85.9208V85.9218V85.9228V85.9238V85.9249V85.9259V85.9269V85.9279V85.929V85.93V85.931V85.932V85.9331V85.9341V85.9351V85.9362V85.9372V85.9382V85.9392V85.9403V85.9413V85.9423V85.9433V85.9444V85.9454V85.9464V85.9474V85.9485V85.9495V85.9505V85.9515V85.9525V85.9536V85.9546V85.9556V85.9566V85.9576V85.9587V85.9597V85.9607V85.9617V85.9627V85.9638V85.9648V85.9658V85.9668V85.9678V85.9688V85.9698V85.9708V85.9719V85.9729V85.9739V85.9749V85.9759V85.9769V85.9779V85.9789V85.9799V85.9809V85.9819V85.9829V85.9839V85.9849V85.9859V85.9869V85.9879V85.9889V85.9899V85.9909V85.9919V85.9929V85.9939V85.9948V85.9958V85.9968V85.9978V85.9988V85.9998V86.0007V86.0017V86.0027V86.0037V86.0046V86.0056V86.0066V86.0075V86.0085V86.0095V86.0104V86.0114V86.0124V86.0133V86.0143V86.0152V86.0162V86.0171V86.0181V86.019V86.02V86.0209V86.0219V86.0228V86.0237V86.0247V86.0256V86.0266V86.0275V86.0284V86.0293V86.0303V86.0312V86.0321V86.033V86.0339V86.0349V86.0358V86.0367V86.0376V86.0385V86.0394V86.0403V86.0412V86.0421V86.043V86.0439V86.0448V86.0457V86.0465V86.0474V86.0483V86.0492V86.05V86.0509V86.0518V86.0527V86.0535V86.0544V86.0552V86.0561V86.057V86.0578V86.0586V86.0595V86.0603V86.0612V86.062V86.0628V86.0637V86.0645V86.0653V86.0662V86.067V86.0678V86.0686V86.0694V86.0702V86.071V86.0718V86.0726V86.0734V86.0742V86.075V86.0758V86.0766V86.0774V86.0781V86.0789V86.0797V86.0804V86.0812V86.082V86.0827V86.0835V86.0842V86.085V86.0857V86.0864V86.0872V86.0879V86.0886V86.0894V86.0901V86.0908V86.0915V86.0922V86.0929V86.0936V86.0943V86.095V86.0957V86.0964V86.0971V86.0978V86.0985V86.0991V86.0998V86.1005V86.1011V86.1018V86.1024V86.1031V86.1037V86.1044V86.105V86.1057V86.1063V86.1069V86.1075V86.1082V86.1088V86.1094V86.11V86.1106V86.1112V86.1118V86.1125V86.1131V86.1137V86.1144V86.115V86.1157V86.1163V86.117V86.1176V86.1183V86.1189V86.1196V86.1203V86.121V86.1216V86.1223V86.123V86.1237V86.1244V86.1251V86.1258V86.1265V86.1272V86.1279V86.1287V86.1294V86.1301V86.1308V86.1316V86.1323V86.133V86.1338V86.1345V86.1353V86.136V86.1368V86.1376V86.1383V86.1391V86.1399V86.1406V86.1414V86.1422V86.143V86.1437V86.1445V86.1453V86.1461V86.1469V86.1477V86.1485V86.1493V86.1501V86.151V86.1518V86.1526V86.1534V86.1542V86.1551V86.1559V86.1567V86.1576V86.1584V86.1593V86.1601V86.161V86.1618V86.1627V86.1635V86.1644V86.1652V86.1661V86.167V86.1678V86.1687V86.1696V86.1705V86.1713V86.1722V86.1731V86.174V86.1749V86.1758V86.1767V86.1776V86.1785V86.1794V86.1803V86.1812V86.1821V86.183V86.1839V86.1848V86.1857V86.1866V86.1876V86.1885V86.1894V86.1903V86.1913V86.1922V86.1931V86.1941V86.195V86.1959V86.1969V86.1978V86.1988V86.1997V86.2007V86.2016V86.2026V86.2035V86.2045V86.2054V86.2064V86.2074V86.2083V86.2093V86.2102V86.2112V86.2122V86.2131V86.2141V86.2151V86.2161V86.217V86.218V86.219V86.22V86.221V86.2219V86.2229V86.2239V86.2249V86.2259V86.2269V86.2279V86.2289V86.2299V86.2308V86.2318V86.2328V86.2338V86.2348V86.2358V86.2368V86.2378V86.2388V86.2398V86.2408V86.2419V86.2429V86.2439V86.2449V86.2459V86.2469V86.2479V86.2489V86.2499V86.2509V86.252V86.253V86.254V86.255V86.256V86.257V86.2581V86.2591V86.2601V86.2611V86.2621V86.2631V86.2642V86.2652V86.2662V86.2672V86.2683V86.2693V86.2703V86.2713V86.2724V86.2734V86.2744V86.2754V86.2765V86.2775V86.2785V86.2795V86.2806V86.2816V86.2826V86.2836V86.2847V86.2857V86.2867V86.2877V86.2888V86.2898V86.2908V86.2918V86.2929V86.2939V86.2949V86.2959V86.297V86.298V86.299V86.3V86.3011V86.3021V86.3031V86.3041V86.3052V86.3062V86.3072V86.3082V86.3092V86.3103V86.3113V86.3123V86.3133V86.3143V86.3154V86.3164V86.3174V86.3184V86.3194V86.3204V86.3215V86.3225V86.3235V86.3245V86.3255V86.3265V86.3275V86.3285V86.3295V86.3305V86.3315V86.3326V86.3336V86.3346V86.3356V86.3366V86.3376V86.3386V86.3396V86.3406V86.3416V86.3425V86.3435V86.3445V86.3455V86.3465V86.3475V86.3485V86.3495V86.3505V86.3514V86.3524V86.3534V86.3544V86.3554V86.3563V86.3573V86.3583V86.3593V86.3602V86.3612V86.3622V86.3631V86.3641V86.3651V86.366V86.367V86.3679V86.3689V86.3698V86.3708V86.3717V86.3727V86.3736V86.3746V86.3755V86.3765V86.3774V86.3783V86.3793V86.3802V86.3811V86.3821V86.383V86.3839V86.3848V86.3858V86.3867V86.3876V86.3885C111.334 86.3947 111.331 86.4012 111.328 86.4081C111.312 86.4453 111.305 86.4846 111.307 86.5227C111.311 86.5951 111.343 86.6451 111.361 86.6681C111.381 86.6932 111.401 86.71 111.414 86.7196C111.44 86.7391 111.466 86.7516 111.485 86.7593C111.504 86.7671 111.53 86.7755 111.56 86.7797C111.575 86.7818 111.599 86.784 111.627 86.7812C111.647 86.7793 111.686 86.7733 111.727 86.75ZM111.595 86.75H111.596C111.593 86.7501 111.593 86.75 111.595 86.75ZM41.3515 86.75C41.3537 86.75 41.3532 86.7501 41.3505 86.75H41.3515ZM41.3515 85.4688H41.3505C41.3532 85.4686 41.3537 85.4688 41.3515 85.4688ZM111.595 85.4688C111.593 85.4688 111.593 85.4686 111.596 85.4688H111.595Z" fill="#7081A8" stroke="#7081A8" stroke-width="0.5"/>
<path d="M45.1756 87.2812C45.8079 87.2812 46.3206 86.7566 46.3206 86.1094C46.3206 85.4622 45.8079 84.9375 45.1756 84.9375C44.5432 84.9375 44.0305 85.4622 44.0305 86.1094C44.0305 86.7566 44.5432 87.2812 45.1756 87.2812Z" fill="#4D9FEB"/>
<path d="M107.771 87.2812C108.403 87.2812 108.916 86.7566 108.916 86.1094C108.916 85.4622 108.403 84.9375 107.771 84.9375C107.139 84.9375 106.626 85.4622 106.626 86.1094C106.626 86.7566 107.139 87.2812 107.771 87.2812Z" fill="#4D9FEB"/>
<path d="M118.458 82.5937H115.588C115.233 82.5953 114.884 82.4952 114.582 82.3047C114.28 82.1141 114.036 81.8408 113.878 81.5156L112.771 79.25C112.741 79.1923 112.725 79.1279 112.725 79.0625C112.725 78.9971 112.741 78.9327 112.771 78.875C112.808 78.8162 112.858 78.768 112.919 78.7352C112.979 78.7023 113.046 78.6859 113.114 78.6875H118.458C118.559 78.6875 118.656 78.7286 118.728 78.8019C118.799 78.8751 118.84 78.9745 118.84 79.0781V82.2031C118.84 82.3067 118.799 82.4061 118.728 82.4793C118.656 82.5526 118.559 82.5937 118.458 82.5937ZM113.733 79.4687L114.557 81.164C114.653 81.3598 114.8 81.5243 114.982 81.6389C115.164 81.7535 115.374 81.8136 115.588 81.8125H118.076V79.4687H113.733Z" fill="#4D9FEB"/>
<path d="M42.1221 81.0313H38.3053C38.204 81.0313 38.107 80.9901 38.0354 80.9169C37.9638 80.8436 37.9236 80.7442 37.9236 80.6406V77.5156C37.9236 77.412 37.9638 77.3127 38.0354 77.2394C38.107 77.1662 38.204 77.125 38.3053 77.125H39.6488C40.0037 77.1234 40.352 77.2235 40.6542 77.4141C40.9564 77.6046 41.2005 77.878 41.3587 78.2031L42.5037 80.4688C42.5338 80.5265 42.5495 80.5909 42.5495 80.6563C42.5495 80.7217 42.5338 80.7861 42.5037 80.8438C42.4639 80.9087 42.4069 80.9608 42.3394 80.9939C42.2718 81.0271 42.1965 81.0401 42.1221 81.0313ZM38.6869 80.25H41.5037L40.6793 78.5547C40.5838 78.3589 40.4367 78.1944 40.2545 78.0798C40.0724 77.9652 39.8626 77.9051 39.6488 77.9063H38.6869V80.25Z" fill="#4D9FEB"/>
<path d="M39.0672 73.6027L39.246 73.4279L39.0672 73.6027C39.2673 73.8075 39.5052 73.9703 39.7675 74.0815C40.0298 74.1927 40.3111 74.25 40.5954 74.25H51.2824C51.4519 74.25 51.6131 74.1811 51.7311 74.0603C51.8489 73.9397 51.9141 73.7774 51.9141 73.6094C51.9141 73.4413 51.8489 73.279 51.7311 73.1584C51.6131 73.0377 51.4519 72.9688 51.2824 72.9688H40.5954C40.3599 72.9688 40.1329 72.8731 39.9646 72.7008C39.796 72.5283 39.7004 72.2932 39.7004 72.0469V62.6719C39.7004 62.4255 39.796 62.1904 39.9646 62.018C40.1329 61.8457 40.3599 61.75 40.5954 61.75H75.7099C75.8793 61.75 76.0406 61.6811 76.1586 61.5603C76.2764 61.4397 76.3416 61.2774 76.3416 61.1094C76.3416 60.9413 76.2764 60.779 76.1586 60.6584C76.0406 60.5377 75.8793 60.4688 75.7099 60.4688H40.5954C40.0211 60.4688 39.4715 60.7023 39.0672 61.1161C38.663 61.5297 38.437 62.0894 38.437 62.6719V72.0469C38.437 72.3354 38.4925 72.6212 38.6005 72.8881C38.7086 73.155 38.867 73.3978 39.0672 73.6027Z" fill="#4D9FEB" stroke="#4D9FEB" stroke-width="0.5"/>
<path d="M50.8336 86.5603C50.9516 86.6811 51.1129 86.75 51.2823 86.75C51.4517 86.75 51.613 86.6811 51.731 86.5603C51.8488 86.4397 51.914 86.2774 51.914 86.1094V61.1094C51.914 60.9413 51.8488 60.779 51.731 60.6584C51.613 60.5377 51.4517 60.4688 51.2823 60.4688C51.1129 60.4688 50.9516 60.5377 50.8336 60.6584C50.7158 60.779 50.6506 60.9413 50.6506 61.1094V86.1094C50.6506 86.2774 50.7158 86.4397 50.8336 86.5603Z" fill="#4D9FEB" stroke="#4D9FEB" stroke-width="0.5"/>
<path d="M44.7269 74.0603C44.8449 74.1811 45.0062 74.25 45.1756 74.25C45.345 74.25 45.5063 74.1811 45.6243 74.0603C45.7421 73.9397 45.8073 73.7774 45.8073 73.6094V61.1094C45.8073 60.9413 45.7421 60.779 45.6243 60.6584C45.5063 60.5377 45.345 60.4688 45.1756 60.4688C45.0062 60.4688 44.8449 60.5377 44.7269 60.6584C44.6091 60.779 44.5439 60.9413 44.5439 61.1094V73.6094C44.5439 73.7774 44.6091 73.9397 44.7269 74.0603Z" fill="#4D9FEB" stroke="#4D9FEB" stroke-width="0.5"/>
<path d="M59.994 86.5603C60.112 86.6811 60.2733 86.75 60.4427 86.75C60.6121 86.75 60.7734 86.6811 60.8914 86.5603C61.0092 86.4397 61.0744 86.2774 61.0744 86.1094V61.1094C61.0744 60.9413 61.0092 60.779 60.8914 60.6584C60.7734 60.5377 60.6121 60.4688 60.4427 60.4688C60.2733 60.4688 60.112 60.5377 59.994 60.6584C59.8762 60.779 59.811 60.9413 59.811 61.1094V86.1094C59.811 86.2774 59.8762 86.4397 59.994 86.5603Z" fill="#4D9FEB" stroke="#4D9FEB" stroke-width="0.5"/>
<path d="M66.1009 74.0603C66.2189 74.1811 66.3802 74.25 66.5496 74.25C66.7191 74.25 66.8804 74.1811 66.9983 74.0603C67.1161 73.9397 67.1813 73.7774 67.1813 73.6094V61.1094C67.1813 60.9413 67.1161 60.779 66.9983 60.6584C66.8804 60.5377 66.7191 60.4688 66.5496 60.4688C66.3802 60.4688 66.2189 60.5377 66.1009 60.6584C65.9831 60.779 65.918 60.9413 65.918 61.1094V73.6094C65.918 73.7774 65.9831 73.9397 66.1009 74.0603Z" fill="#4D9FEB" stroke="#4D9FEB" stroke-width="0.5"/>
<path d="M61.3015 74.25H78.6679C79.0141 74.25 79.3564 74.2071 79.6201 74.124C79.751 74.0828 79.8718 74.0289 79.9652 73.9579C80.0548 73.8898 80.1584 73.7742 80.1584 73.6094C80.1584 73.4445 80.0548 73.3289 79.9652 73.2609C79.8718 73.1898 79.751 73.1359 79.6201 73.0947C79.3564 73.0117 79.0141 72.9688 78.6679 72.9688H61.3015C60.9553 72.9688 60.613 73.0117 60.3493 73.0947C60.2184 73.1359 60.0976 73.1898 60.0042 73.2609C59.9146 73.3289 59.811 73.4445 59.811 73.6094C59.811 73.7742 59.9146 73.8898 60.0042 73.9579C60.0976 74.0289 60.2184 74.0828 60.3493 74.124C60.613 74.2071 60.9553 74.25 61.3015 74.25Z" fill="#4D9FEB" stroke="#4D9FEB" stroke-width="0.5"/>
<path d="M103.954 86.8906H48.9923C48.891 86.8906 48.794 86.8083 48.7224 86.6618C48.6508 86.5153 48.6106 86.3166 48.6106 86.1094C48.6106 85.9022 48.6508 85.7035 48.7224 85.5569C48.794 85.4104 48.891 85.3281 48.9923 85.3281H103.954C104.055 85.3281 104.152 85.4104 104.224 85.5569C104.296 85.7035 104.336 85.9022 104.336 86.1094C104.336 86.3166 104.296 86.5153 104.224 86.6618C104.152 86.8083 104.055 86.8906 103.954 86.8906Z" fill="#7081A8"/>
<path d="M107.771 90.6563H107.771C108.952 90.6541 110.083 90.1729 110.916 89.3202C111.749 88.4676 112.217 87.3131 112.219 86.1098V86.1094C112.219 85.2114 111.959 84.3331 111.471 83.5855C110.983 82.8379 110.289 82.2543 109.475 81.9094C108.662 81.5645 107.766 81.4742 106.902 81.6501C106.038 81.826 105.245 82.26 104.623 82.8963C104.002 83.5326 103.579 84.3425 103.408 85.2234C103.237 86.1043 103.324 87.0174 103.66 87.8475C103.996 88.6777 104.566 89.3882 105.297 89.8885C106.029 90.3888 106.89 90.6563 107.771 90.6563ZM106.004 83.3926C106.527 83.0346 107.142 82.8438 107.771 82.8438C108.613 82.8457 109.422 83.189 110.019 83.8005C110.617 84.4121 110.954 85.2423 110.956 86.1097C110.956 86.7567 110.769 87.3888 110.418 87.9259C110.067 88.463 109.569 88.8808 108.988 89.1272C108.407 89.3736 107.767 89.438 107.151 89.3125C106.534 89.1869 105.967 88.8769 105.521 88.4206C105.075 87.9642 104.771 87.3821 104.647 86.7475C104.524 86.1129 104.587 85.4552 104.829 84.8578C105.071 84.2604 105.48 83.7508 106.004 83.3926Z" fill="#4D9FEB" stroke="#4D9FEB" stroke-width="0.5"/>
<path d="M45.1755 90.6563H45.176C46.3569 90.6541 47.4876 90.1729 48.3209 89.3202C49.1539 88.4676 49.6219 87.3131 49.624 86.1098V86.1094C49.624 85.2114 49.3638 84.3331 48.8758 83.5855C48.3877 82.8379 47.6933 82.2543 46.8798 81.9094C46.0662 81.5645 45.1706 81.4742 44.3066 81.6501C43.4425 81.826 42.6497 82.26 42.0279 82.8963C41.4063 83.5326 40.9835 84.3425 40.8123 85.2234C40.6411 86.1043 40.7289 87.0174 41.0649 87.8475C41.4009 88.6777 41.9703 89.3882 42.7019 89.8885C43.4335 90.3888 44.2944 90.6563 45.1755 90.6563ZM43.4082 83.3926C43.9318 83.0346 44.5467 82.8438 45.1752 82.8438C46.0176 82.8457 46.826 83.189 47.4235 83.8005C48.0211 84.4121 48.3587 85.2423 48.3606 86.1097C48.3606 86.7567 48.173 87.3888 47.8224 87.9259C47.4717 88.463 46.9739 88.8808 46.3925 89.1272C45.8112 89.3736 45.1719 89.438 44.5552 89.3125C43.9385 89.1869 43.3712 88.8769 42.9253 88.4206C42.4794 87.9642 42.1752 87.3821 42.0518 86.7475C41.9285 86.1129 41.9918 85.4552 42.2336 84.8578C42.4754 84.2604 42.8845 83.7508 43.4082 83.3926Z" fill="#4D9FEB" stroke="#4D9FEB" stroke-width="0.5"/>
<path d="M100.902 73.6027L100.724 73.4279L100.902 73.6027C100.702 73.8075 100.464 73.9703 100.202 74.0815C99.9397 74.1927 99.6583 74.25 99.3741 74.25H88.687C88.5176 74.25 88.3563 74.1811 88.2383 74.0603C88.1205 73.9397 88.0554 73.7774 88.0554 73.6094C88.0554 73.4413 88.1205 73.279 88.2383 73.1584C88.3563 73.0377 88.5176 72.9688 88.687 72.9688H99.3741C99.6096 72.9688 99.8366 72.8731 100.005 72.7008C100.173 72.5283 100.269 72.2932 100.269 72.0469V62.6719C100.269 62.4255 100.173 62.1904 100.005 62.018C99.8366 61.8457 99.6096 61.75 99.3741 61.75H64.2596C64.0901 61.75 63.9289 61.6811 63.8109 61.5603C63.6931 61.4397 63.6279 61.2774 63.6279 61.1094C63.6279 60.9413 63.6931 60.779 63.8109 60.6584C63.9289 60.5377 64.0901 60.4688 64.2596 60.4688H99.3741C99.9484 60.4688 100.498 60.7023 100.902 61.1161C101.306 61.5297 101.532 62.0894 101.532 62.6719V72.0469C101.532 72.3354 101.477 72.6212 101.369 72.8881C101.261 73.155 101.102 73.3978 100.902 73.6027Z" fill="#4D9FEB" stroke="#4D9FEB" stroke-width="0.5"/>
<path d="M95.2426 74.0603C95.1246 74.1811 94.9633 74.25 94.7939 74.25C94.6244 74.25 94.4632 74.1811 94.3452 74.0603C94.2274 73.9397 94.1622 73.7774 94.1622 73.6094V61.1094C94.1622 60.9413 94.2274 60.779 94.3452 60.6584C94.4632 60.5377 94.6244 60.4688 94.7939 60.4688C94.9633 60.4688 95.1246 60.5377 95.2426 60.6584C95.3604 60.779 95.4255 60.9413 95.4255 61.1094V73.6094C95.4255 73.7774 95.3604 73.9397 95.2426 74.0603Z" fill="#4D9FEB" stroke="#4D9FEB" stroke-width="0.5"/>
<path d="M73.8685 74.0603C73.7505 74.1811 73.5893 74.25 73.4198 74.25C73.2504 74.25 73.0891 74.1811 72.9711 74.0603C72.8533 73.9397 72.7882 73.7774 72.7882 73.6094V61.1094C72.7882 60.9413 72.8533 60.779 72.9711 60.6584C73.0891 60.5377 73.2504 60.4688 73.4198 60.4688C73.5893 60.4688 73.7505 60.5377 73.8685 60.6584C73.9863 60.779 74.0515 60.9413 74.0515 61.1094V73.6094C74.0515 73.7774 73.9863 73.9397 73.8685 74.0603Z" fill="#4D9FEB" stroke="#4D9FEB" stroke-width="0.5"/>
<path d="M107.771 74.25H115.404C116.177 74.25 116.919 73.9536 117.467 73.4234C118.016 72.8929 118.326 72.1715 118.326 71.4175V63.3012C118.326 62.5472 118.016 61.8259 117.467 61.2954C116.919 60.7652 116.177 60.4688 115.404 60.4688H107.771C106.999 60.4688 106.256 60.7652 105.708 61.2954C105.159 61.8259 104.849 62.5472 104.849 63.3012V71.4175C104.849 72.1715 105.159 72.8929 105.708 73.4234C106.256 73.9536 106.999 74.25 107.771 74.25ZM106.595 62.1766C106.906 61.8766 107.328 61.7066 107.771 61.7066H115.404C115.847 61.7066 116.27 61.8766 116.58 62.1766C116.89 62.4764 117.063 62.8811 117.063 63.3012V71.4175C117.063 71.8377 116.89 72.2424 116.58 72.5421C116.27 72.8422 115.847 73.0122 115.404 73.0122H107.771C107.328 73.0122 106.906 72.8422 106.595 72.5421C106.285 72.2424 106.112 71.8377 106.112 71.4175V63.3012C106.112 62.8811 106.285 62.4764 106.595 62.1766Z" fill="#4D9FEB" stroke="#4D9FEB" stroke-width="0.5"/>
<path d="M110.381 74.0717C110.5 74.1868 110.659 74.25 110.824 74.25C110.989 74.25 111.149 74.1868 111.268 74.0717C111.387 73.9563 111.456 73.798 111.456 73.6311V61.0877C111.456 60.9207 111.387 60.7624 111.268 60.6471C111.149 60.532 110.989 60.4688 110.824 60.4688C110.659 60.4688 110.5 60.532 110.381 60.6471C110.261 60.7624 110.193 60.9207 110.193 61.0877V73.6311C110.193 73.798 110.261 73.9563 110.381 74.0717Z" fill="#4D9FEB" stroke="#4D9FEB" stroke-width="0.5"/>
<defs>
<filter id="filter0_d_7967_28614" x="0" y="0" width="156" height="156" filterUnits="userSpaceOnUse" color-interpolation-filters="sRGB">
<feFlood flood-opacity="0" result="BackgroundImageFix"/>
<feColorMatrix in="SourceAlpha" type="matrix" values="0 0 0 0 0 0 0 0 0 0 0 0 0 0 0 0 0 0 127 0" result="hardAlpha"/>
<feOffset dy="4"/>
<feGaussianBlur stdDeviation="4"/>
<feComposite in2="hardAlpha" operator="out"/>
<feColorMatrix type="matrix" values="0 0 0 0 0.615686 0 0 0 0 0.713726 0 0 0 0 0.85098 0 0 0 0.2 0"/>
<feBlend mode="normal" in2="BackgroundImageFix" result="effect1_dropShadow_7967_28614"/>
<feBlend mode="normal" in="SourceGraphic" in2="effect1_dropShadow_7967_28614" result="shape"/>
</filter>
</defs>
</svg>
