<svg width="480" height="283" viewBox="0 0 480 283" fill="none" xmlns="http://www.w3.org/2000/svg">
<g clip-path="url(#clip0_6608_25628)">
<path d="M63.7164 281.845C63.7164 281.845 -50.9842 209.761 27.4065 132.468C105.797 55.1742 210.699 -23.8316 281.018 6.73447C351.338 37.3005 345.009 75.9472 422.262 131.89C499.514 187.833 481.632 232.25 467.797 254.74C453.963 277.229 451.658 283.016 451.658 283.016L63.7164 281.845Z" fill="white"/>
</g>
<path d="M332.983 60.3416C332.984 59.5087 332.82 58.6839 332.501 57.9143C332.182 57.1448 331.714 56.4455 331.125 55.8566C330.536 55.2677 329.836 54.8006 329.065 54.482C328.295 54.1634 327.47 53.9996 326.636 54H115.359C113.675 54 112.061 54.6681 110.87 55.8574C109.68 57.0467 109.011 58.6597 109.011 60.3416V65.5412H332.983V60.3416Z" fill="white"/>
<path d="M326.636 206.881H115.359C113.587 206.879 111.888 206.174 110.636 204.922C109.383 203.67 108.679 201.973 108.677 200.203V65.2046H333.32V200.203C333.318 201.974 332.614 203.671 331.361 204.923C330.107 206.175 328.408 206.879 326.636 206.881V206.881ZM109.348 65.8746V200.203C109.349 201.795 109.983 203.322 111.11 204.449C112.237 205.575 113.765 206.209 115.359 206.211H326.636C328.23 206.209 329.758 205.575 330.886 204.449C332.013 203.323 332.647 201.796 332.649 200.203V65.8746H109.348Z" fill="#1DA1F2"/>
<path d="M333.32 65.8747H108.677V60.3415C108.679 58.5713 109.383 56.874 110.636 55.622C111.888 54.3701 113.587 53.6657 115.359 53.6636H326.636C328.408 53.665 330.107 54.369 331.361 55.6211C332.614 56.8731 333.318 58.5708 333.32 60.3415V65.8747ZM109.348 65.2048H332.649V60.3415C332.647 58.7487 332.013 57.2218 330.886 56.0956C329.758 54.9694 328.23 54.3357 326.636 54.3335H115.359C113.765 54.3357 112.237 54.9694 111.11 56.0958C109.983 57.2221 109.349 58.749 109.348 60.3415V65.2048Z" fill="#1DA1F2"/>
<path d="M119.871 62.3676C119.356 62.3671 118.854 62.2142 118.426 61.9284C117.999 61.6425 117.666 61.2365 117.47 60.7616C117.273 60.2868 117.222 59.7644 117.323 59.2605C117.423 58.7566 117.671 58.2939 118.035 57.9308C118.399 57.5676 118.862 57.3204 119.367 57.2204C119.871 57.1203 120.394 57.172 120.869 57.3687C121.344 57.5655 121.75 57.8985 122.036 58.3258C122.322 58.753 122.474 59.2553 122.474 59.7691C122.473 60.4585 122.199 61.1195 121.711 61.6067C121.222 62.0939 120.561 62.3676 119.871 62.3676V62.3676ZM119.871 57.8488C119.491 57.8493 119.119 57.9624 118.803 58.1737C118.488 58.3851 118.242 58.6852 118.097 59.0361C117.952 59.3871 117.914 59.7731 117.988 60.1454C118.063 60.5178 118.246 60.8597 118.515 61.128C118.784 61.3963 119.127 61.5789 119.499 61.6528C119.872 61.7267 120.258 61.6885 120.609 61.5431C120.961 61.3976 121.261 61.1515 121.472 60.8357C121.683 60.52 121.795 60.1488 121.795 59.7691C121.795 59.2596 121.592 58.7711 121.231 58.411C120.87 58.051 120.381 57.8488 119.871 57.8488V57.8488Z" fill="#1F3965"/>
<path d="M128.694 62.3676C128.179 62.3671 127.677 62.2142 127.25 61.9284C126.822 61.6425 126.489 61.2365 126.293 60.7616C126.096 60.2868 126.045 59.7644 126.146 59.2605C126.247 58.7566 126.495 58.2939 126.858 57.9308C127.222 57.5676 127.686 57.3204 128.19 57.2204C128.694 57.1203 129.217 57.172 129.692 57.3687C130.167 57.5655 130.573 57.8985 130.859 58.3258C131.145 58.753 131.297 59.2553 131.297 59.7691C131.296 60.4585 131.022 61.1195 130.534 61.6067C130.046 62.0939 129.384 62.3676 128.694 62.3676ZM128.694 57.8488C128.314 57.8493 127.942 57.9624 127.627 58.1737C127.311 58.3851 127.065 58.6852 126.92 59.0361C126.775 59.3871 126.737 59.7731 126.812 60.1454C126.886 60.5178 127.069 60.8597 127.338 61.128C127.607 61.3963 127.95 61.5789 128.322 61.6528C128.695 61.7267 129.082 61.6885 129.433 61.5431C129.784 61.3976 130.084 61.1515 130.295 60.8357C130.506 60.52 130.618 60.1488 130.618 59.7691C130.618 59.2596 130.415 58.7711 130.054 58.411C129.693 58.051 129.204 57.8488 128.694 57.8488V57.8488Z" fill="#1F3965"/>
<path d="M137.517 62.3676C137.003 62.3671 136.5 62.2142 136.073 61.9284C135.645 61.6425 135.312 61.2365 135.116 60.7616C134.92 60.2868 134.868 59.7644 134.969 59.2605C135.07 58.7566 135.318 58.2939 135.682 57.9308C136.045 57.5676 136.509 57.3204 137.013 57.2204C137.518 57.1203 138.04 57.172 138.515 57.3687C138.991 57.5655 139.397 57.8985 139.682 58.3258C139.968 58.753 140.12 59.2553 140.12 59.7691C140.12 60.4585 139.845 61.1195 139.357 61.6067C138.869 62.0939 138.207 62.3676 137.517 62.3676ZM137.517 57.8488C137.137 57.8493 136.765 57.9624 136.45 58.1737C136.134 58.3851 135.888 58.6852 135.743 59.0361C135.598 59.3871 135.56 59.7731 135.635 60.1454C135.709 60.5178 135.892 60.8597 136.161 61.128C136.43 61.3963 136.773 61.5789 137.146 61.6528C137.518 61.7267 137.905 61.6885 138.256 61.5431C138.607 61.3976 138.907 61.1515 139.118 60.8357C139.329 60.52 139.442 60.1488 139.442 59.7691C139.441 59.2596 139.238 58.7711 138.877 58.411C138.516 58.051 138.027 57.8488 137.517 57.8488V57.8488Z" fill="#1F3965"/>
<g clip-path="url(#clip1_6608_25628)">
<path opacity="0.2" d="M327 69.6636H115V200.664H327V69.6636Z" fill="#DBE2EA"/>
<line x1="121.2" y1="70" x2="121.2" y2="201" stroke="#DBE2EA" stroke-width="0.4"/>
<line x1="141.2" y1="70" x2="141.2" y2="201" stroke="#DBE2EA" stroke-width="0.4"/>
<line x1="161.2" y1="70" x2="161.2" y2="201" stroke="#DBE2EA" stroke-width="0.4"/>
<line x1="181.2" y1="70" x2="181.2" y2="201" stroke="#DBE2EA" stroke-width="0.4"/>
<line x1="201.2" y1="70" x2="201.2" y2="201" stroke="#DBE2EA" stroke-width="0.4"/>
<line x1="221.2" y1="70" x2="221.2" y2="201" stroke="#DBE2EA" stroke-width="0.4"/>
<line x1="241.2" y1="70" x2="241.2" y2="201" stroke="#DBE2EA" stroke-width="0.4"/>
<line x1="261.2" y1="70" x2="261.2" y2="201" stroke="#DBE2EA" stroke-width="0.4"/>
<line x1="281.2" y1="70" x2="281.2" y2="201" stroke="#DBE2EA" stroke-width="0.4"/>
<line x1="301.2" y1="70" x2="301.2" y2="201" stroke="#DBE2EA" stroke-width="0.4"/>
<line x1="321.2" y1="70" x2="321.2" y2="201" stroke="#DBE2EA" stroke-width="0.4"/>
<line x1="115" y1="189.8" x2="327" y2="189.8" stroke="#DBE2EA" stroke-width="0.4"/>
<line x1="115" y1="169.8" x2="327" y2="169.8" stroke="#DBE2EA" stroke-width="0.4"/>
<line x1="115" y1="149.8" x2="327" y2="149.8" stroke="#DBE2EA" stroke-width="0.4"/>
<line x1="115" y1="129.8" x2="327" y2="129.8" stroke="#DBE2EA" stroke-width="0.4"/>
<line x1="115" y1="109.8" x2="327" y2="109.8" stroke="#DBE2EA" stroke-width="0.4"/>
<line x1="115" y1="89.8" x2="327" y2="89.8" stroke="#DBE2EA" stroke-width="0.4"/>
<line x1="115" y1="69.8" x2="327" y2="69.8" stroke="#DBE2EA" stroke-width="0.4"/>
<path d="M201.498 154.938C201.498 155.771 201.829 156.569 202.418 157.158C203.006 157.746 203.805 158.077 204.637 158.077H237.363C238.195 158.077 238.994 157.746 239.582 157.158C240.171 156.569 240.502 155.771 240.502 154.938V129.898H201.498V154.938ZM228.508 136.563H233.597V141.652H228.508V136.563ZM228.508 145.215H233.597V150.305H228.508V145.215ZM218.458 136.563H223.542V141.652H218.458V136.563ZM218.458 145.215H223.542V150.305H218.458V145.215ZM208.397 136.563H213.486V141.652H208.397V136.563ZM208.397 145.215H213.486V150.305H208.397V145.215Z" fill="#6B82AB"/>
<path d="M230.846 122.212C230.993 122.212 231.134 122.154 231.238 122.05C231.342 121.946 231.4 121.805 231.4 121.658V112.477C231.4 112.33 231.342 112.189 231.238 112.085C231.134 111.981 230.993 111.923 230.846 111.923C230.699 111.923 230.558 111.981 230.455 112.085C230.351 112.189 230.292 112.33 230.292 112.477V121.658C230.292 121.805 230.351 121.946 230.455 122.05C230.558 122.154 230.699 122.212 230.846 122.212V122.212Z" fill="#6B82AB"/>
<path d="M237.363 116.785H232.489V121.659C232.489 122.101 232.314 122.525 232.001 122.838C231.688 123.151 231.264 123.326 230.822 123.326C230.379 123.326 229.955 123.151 229.642 122.838C229.33 122.525 229.154 122.101 229.154 121.659V116.785H212.84V121.659C212.854 121.886 212.821 122.113 212.744 122.327C212.666 122.541 212.546 122.737 212.39 122.903C212.234 123.068 212.046 123.2 211.837 123.291C211.628 123.381 211.403 123.427 211.175 123.427C210.948 123.427 210.723 123.381 210.514 123.291C210.305 123.2 210.117 123.068 209.961 122.903C209.805 122.737 209.685 122.541 209.607 122.327C209.53 122.113 209.497 121.886 209.511 121.659V116.785H204.637C203.805 116.786 203.008 117.117 202.42 117.706C201.831 118.294 201.5 119.091 201.498 119.923V128.791H240.502V119.923C240.5 119.091 240.169 118.294 239.581 117.706C238.992 117.117 238.195 116.786 237.363 116.785V116.785Z" fill="#6B82AB"/>
<path d="M211.154 122.212C211.227 122.213 211.3 122.199 211.368 122.172C211.436 122.145 211.497 122.104 211.549 122.052C211.602 122.001 211.643 121.939 211.671 121.872C211.699 121.804 211.714 121.732 211.714 121.659V112.477C211.699 112.339 211.634 112.212 211.532 112.119C211.429 112.027 211.295 111.976 211.157 111.976C211.019 111.976 210.885 112.027 210.782 112.119C210.679 112.212 210.614 112.339 210.6 112.477V121.659C210.6 121.805 210.658 121.946 210.762 122.05C210.866 122.154 211.007 122.212 211.154 122.212V122.212Z" fill="#6B82AB"/>
</g>
<path d="M336 155.001C325.391 155.001 315.217 159.215 307.716 166.716C300.214 174.218 296 184.393 296 195.001C296 205.609 300.214 215.783 307.716 223.285C315.217 230.787 325.392 235.001 336 235.001C346.608 235.001 356.783 230.787 364.284 223.285C371.786 215.784 376 205.609 376 195.001C376 187.979 374.152 181.081 370.641 175C367.131 168.919 362.08 163.869 356 160.359C349.919 156.848 343.021 155 335.999 155L336 155.001ZM336 227.002C327.513 227.002 319.373 223.63 313.373 217.629C307.371 211.628 304 203.488 304 195.001C304 186.515 307.371 178.375 313.373 172.374C319.374 166.373 327.513 163.001 336 163.001C344.487 163.001 352.627 166.373 358.627 172.374C364.629 178.375 368 186.515 368 195.001C368 200.618 366.522 206.137 363.713 211.001C360.904 215.866 356.865 219.906 352 222.714C347.135 225.523 341.617 227.002 336 227.002L336 227.002Z" fill="#FF5E5E"/>
<path d="M336 171.001C334.939 171.001 333.921 171.422 333.171 172.173C332.421 172.923 332 173.94 332 175.001V199.001C332 200.43 332.762 201.75 334 202.465C335.237 203.18 336.763 203.18 338 202.465C339.238 201.75 340 200.43 340 199.001V175.001C340 173.94 339.579 172.923 338.829 172.173C338.079 171.422 337.061 171.001 336 171.001Z" fill="#FF5E5E"/>
<path d="M338.841 212.161C338.089 211.404 337.067 210.978 336.001 210.978C334.934 210.978 333.912 211.404 333.161 212.161C332.796 212.542 332.511 212.99 332.321 213.481C332.115 213.962 332.007 214.478 332.001 215.001C331.994 216.064 332.412 217.086 333.161 217.841C333.912 218.599 334.934 219.024 336.001 219.024C337.067 219.024 338.089 218.599 338.841 217.841C339.589 217.086 340.007 216.064 340 215.001C339.994 214.478 339.886 213.962 339.68 213.481C339.49 212.99 339.205 212.542 338.841 212.161Z" fill="#FF5E5E"/>
<defs>
<clipPath id="clip0_6608_25628">
<rect width="480" height="283" fill="white"/>
</clipPath>
<clipPath id="clip1_6608_25628">
<rect width="212" height="131" fill="white" transform="translate(115 69.6636)"/>
</clipPath>
</defs>
</svg>
