<svg width="295" height="208" viewBox="0 0 295 208" fill="none" xmlns="http://www.w3.org/2000/svg">
<path opacity="0.4" d="M292.418 125.346C298.886 93.7612 288.07 72.2894 271.5 44.5C259.693 24.7053 247.662 0.445811 224.203 0.00956019C202.075 -0.401707 130.611 12.575 108.75 15.9996C72.7884 21.6228 87.1634 0.0441399 52.2337 10.1644C33.5422 15.5801 28.5846 35.8824 20 53C11.4154 70.1176 -1.25224 83.8139 0.0999783 102.817C2.50113 136.579 17.729 170.157 43.7379 192H255.601C273.402 171.727 288.234 145.767 292.418 125.346Z" fill="#F2F4F8"/>
<path d="M263.733 61.342C263.733 60.5091 263.569 59.6843 263.25 58.9147C262.932 58.1452 262.464 57.4459 261.875 56.857C261.285 56.268 260.585 55.801 259.815 55.4824C259.045 55.1638 258.219 55 257.386 55.0004H46.1082C44.4248 55.0004 42.8104 55.6685 41.62 56.8578C40.4297 58.0471 39.761 59.6601 39.761 61.342V66.5416H263.733V61.342Z" fill="white"/>
<path d="M257.386 207.881H46.1082C44.3365 207.879 42.6379 207.175 41.3853 205.923C40.1328 204.671 39.4285 202.973 39.4271 201.203V66.205H264.069V201.203C264.068 202.974 263.363 204.672 262.11 205.924C260.857 207.176 259.158 207.88 257.386 207.881ZM40.0976 66.8749V201.203C40.0991 202.796 40.7327 204.323 41.8595 205.449C42.9863 206.575 44.5143 207.209 46.1082 207.211H257.386C258.98 207.209 260.508 206.575 261.635 205.449C262.763 204.323 263.397 202.796 263.399 201.203V66.8749H40.0976Z" fill="#1DA1F2"/>
<path d="M264.069 66.8751H39.4271V61.3418C39.4285 59.5717 40.1328 57.8744 41.3853 56.6224C42.6379 55.3704 44.3365 54.6661 46.1082 54.664H257.386C259.158 54.6654 260.857 55.3694 262.11 56.6214C263.363 57.8735 264.068 59.5712 264.069 61.3418V66.8751ZM40.0976 66.2051H263.399V61.3418C263.397 59.7491 262.763 58.2222 261.635 57.096C260.508 55.9697 258.98 55.3361 257.386 55.3339H46.1082C44.5143 55.3361 42.9863 55.9698 41.8595 57.0961C40.7327 58.2225 40.0991 59.7494 40.0976 61.3418V66.2051Z" fill="#1DA1F2"/>
<path d="M50.6202 63.368C50.106 63.3674 49.6034 63.2146 49.176 62.9287C48.7487 62.6429 48.4158 62.2369 48.2193 61.762C48.0229 61.2872 47.9718 60.7648 48.0725 60.2609C48.1731 59.757 48.421 59.2943 48.7849 58.9311C49.1487 58.568 49.6121 58.3208 50.1165 58.2208C50.621 58.1207 51.1438 58.1723 51.6188 58.3691C52.0939 58.5659 52.5 58.8989 52.7856 59.3262C53.0713 59.7534 53.2237 60.2557 53.2237 60.7695C53.223 61.4589 52.9484 62.1198 52.4602 62.6071C51.9721 63.0943 51.3102 63.368 50.6202 63.368ZM50.6202 58.8491C50.2402 58.8497 49.8688 58.9628 49.5531 59.1741C49.2374 59.3854 48.9914 59.6855 48.8464 60.0365C48.7013 60.3874 48.6636 60.7735 48.7381 61.1458C48.8126 61.5181 48.9959 61.8601 49.2648 62.1284C49.5337 62.3967 49.8762 62.5793 50.249 62.6532C50.6217 62.7271 51.0081 62.6889 51.3591 62.5434C51.7102 62.398 52.0102 62.1519 52.2213 61.8361C52.4324 61.5204 52.545 61.1492 52.545 60.7695C52.5443 60.2599 52.3412 59.7715 51.9803 59.4114C51.6194 59.0514 51.1302 58.8491 50.6202 58.8491Z" fill="#1F3965"/>
<path d="M59.4433 63.368C58.9291 63.3674 58.4265 63.2146 57.9992 62.9287C57.5718 62.6429 57.2389 62.2369 57.0425 61.762C56.846 61.2872 56.7949 60.7648 56.8956 60.2609C56.9962 59.757 57.2442 59.2943 57.608 58.9311C57.9718 58.568 58.4352 58.3208 58.9397 58.2208C59.4441 58.1207 59.9669 58.1723 60.442 58.3691C60.917 58.5659 61.3231 58.8989 61.6087 59.3262C61.8944 59.7534 62.0468 60.2557 62.0468 60.7695C62.0461 61.4589 61.7715 62.1198 61.2833 62.6071C60.7952 63.0943 60.1334 63.368 59.4433 63.368ZM59.4433 58.8491C59.0633 58.8497 58.692 58.9628 58.3762 59.1741C58.0605 59.3854 57.8146 59.6855 57.6695 60.0365C57.5245 60.3874 57.4868 60.7735 57.5612 61.1458C57.6357 61.5181 57.819 61.8601 58.0879 62.1284C58.3568 62.3967 58.6993 62.5793 59.0721 62.6532C59.4448 62.7271 59.8312 62.6889 60.1822 62.5434C60.5333 62.398 60.8333 62.1519 61.0444 61.8361C61.2555 61.5204 61.3681 61.1492 61.3681 60.7695C61.3674 60.2599 61.1643 59.7715 60.8034 59.4114C60.4425 59.0514 59.9534 58.8491 59.4433 58.8491Z" fill="#1F3965"/>
<path d="M68.2665 63.368C67.7522 63.3674 67.2497 63.2146 66.8223 62.9287C66.395 62.6429 66.0621 62.2369 65.8656 61.762C65.6692 61.2872 65.6181 60.7648 65.7187 60.2609C65.8194 59.757 66.0673 59.2943 66.4311 58.9311C66.795 58.568 67.2584 58.3208 67.7628 58.2208C68.2672 58.1207 68.79 58.1723 69.2651 58.3691C69.7402 58.5659 70.1462 58.8989 70.4319 59.3262C70.7175 59.7534 70.87 60.2557 70.87 60.7695C70.8693 61.4589 70.5947 62.1198 70.1065 62.6071C69.6183 63.0943 68.9565 63.368 68.2665 63.368ZM68.2665 58.8491C67.8865 58.8497 67.5151 58.9628 67.1994 59.1741C66.8836 59.3854 66.6377 59.6855 66.4927 60.0365C66.3476 60.3874 66.3099 60.7735 66.3844 61.1458C66.4589 61.5181 66.6421 61.8601 66.911 62.1284C67.18 62.3967 67.5225 62.5793 67.8952 62.6532C68.268 62.7271 68.6543 62.6889 69.0054 62.5434C69.3564 62.398 69.6565 62.1519 69.8675 61.8361C70.0786 61.5204 70.1913 61.1492 70.1913 60.7695C70.1906 60.2599 69.9875 59.7715 69.6266 59.4114C69.2657 59.0514 68.7765 58.8491 68.2665 58.8491Z" fill="#1F3965"/>
<path d="M39.7496 66.664V201.326C39.7511 203.007 40.4204 204.618 41.6106 205.807C42.8008 206.995 44.4144 207.662 46.0969 207.662H257.374C258.208 207.662 259.033 207.499 259.804 207.18C260.574 206.862 261.274 206.394 261.863 205.805C262.453 205.216 262.92 204.517 263.239 203.748C263.558 202.978 263.722 202.153 263.722 201.32V66.664H39.7496Z" fill="white"/>
<g clip-path="url(#clip0_6556_25615)">
<path opacity="0.2" d="M257.75 70.664H45.7496V201.664H257.75V70.664Z" fill="#A6B4CD"/>
<path d="M232.596 168.438L213.835 163.066C213.264 162.902 212.646 163.051 212.224 163.453C211.803 163.855 211.647 164.446 211.818 164.991L217.446 182.899C217.644 183.528 218.238 183.97 218.925 183.999C218.95 184 218.974 184 218.998 184C219.657 184 220.255 183.617 220.501 183.029L223.995 174.69L232.732 171.354C233.371 171.11 233.779 170.507 233.748 169.85C233.718 169.193 233.255 168.627 232.596 168.438Z" fill="#1F3965"/>
<path d="M166.485 114.421H106.753C104.778 114.421 103.177 112.82 103.177 110.845C103.177 108.869 104.778 107.269 106.753 107.269H166.485C168.461 107.269 170.062 108.87 170.062 110.845C170.062 112.821 168.461 114.421 166.485 114.421Z" fill="white"/>
<path d="M183.827 95.1532H134.693C132.717 95.1532 131.116 93.552 131.116 91.5768C131.116 89.6012 132.718 88.0005 134.693 88.0005H183.827C185.803 88.0005 187.404 89.6016 187.404 91.5768C187.404 93.552 185.803 95.1532 183.827 95.1532Z" fill="white"/>
<path d="M117.832 95.1532H106.753C104.777 95.1532 103.177 93.552 103.177 91.5768C103.177 89.6012 104.778 88.0005 106.753 88.0005H117.832C119.808 88.0005 121.409 89.6016 121.409 91.5768C121.409 93.552 119.808 95.1532 117.832 95.1532Z" fill="#A6B4CD"/>
<path d="M166.485 149.105H106.753C104.778 149.105 103.177 147.504 103.177 145.529C103.177 143.553 104.778 141.952 106.753 141.952H166.485C168.461 141.952 170.062 143.553 170.062 145.529C170.062 147.504 168.461 149.105 166.485 149.105Z" fill="white"/>
<path d="M183.827 129.836H134.693C132.717 129.836 131.116 128.235 131.116 126.26C131.116 124.284 132.718 122.683 134.693 122.683H183.827C185.803 122.683 187.404 124.284 187.404 126.26C187.404 128.235 185.802 129.836 183.827 129.836Z" fill="white"/>
<path d="M117.832 129.836H106.753C104.777 129.836 103.177 128.235 103.177 126.26C103.177 124.284 104.778 122.683 106.753 122.683H117.832C119.808 122.683 121.409 124.284 121.409 126.26C121.409 128.235 119.808 129.836 117.832 129.836Z" fill="#A6B4CD"/>
<path d="M87.4848 88.0004H65.326C63.3503 88.0004 61.7496 89.6015 61.7496 91.5767V110.845C61.7496 112.821 63.3508 114.422 65.326 114.422H87.4848C89.4604 114.422 91.0611 112.82 91.0611 110.845V91.5767C91.0611 89.6015 89.46 88.0004 87.4848 88.0004Z" fill="#1DA1F2"/>
<path d="M87.4848 122.683H65.326C63.3503 122.683 61.7496 124.284 61.7496 126.26V145.528C61.7496 147.504 63.3508 149.104 65.326 149.104H87.4848C89.4605 149.104 91.0612 147.503 91.0612 145.528V126.26C91.0612 124.284 89.46 122.683 87.4848 122.683Z" fill="#1DA1F2"/>
<path d="M87.4848 157.367H65.326C63.3503 157.367 61.7496 158.968 61.7496 160.943V180.212C61.7496 182.188 63.3508 183.788 65.326 183.788H87.4848C89.4605 183.788 91.0612 182.187 91.0612 180.212V160.943C91.0612 158.968 89.46 157.367 87.4848 157.367Z" fill="#1DA1F2"/>
<path d="M166.485 183.788H106.753C104.778 183.788 103.177 182.187 103.177 180.212C103.177 178.237 104.778 176.636 106.753 176.636H166.485C168.461 176.636 170.062 178.237 170.062 180.212C170.062 182.187 168.461 183.788 166.485 183.788Z" fill="white"/>
<path d="M183.827 164.52H134.693C132.717 164.52 131.116 162.919 131.116 160.943C131.116 158.968 132.718 157.367 134.693 157.367H183.827C185.803 157.367 187.404 158.968 187.404 160.943C187.404 162.919 185.802 164.52 183.827 164.52Z" fill="white"/>
<path d="M117.832 164.52H106.753C104.777 164.52 103.177 162.919 103.177 160.943C103.177 158.968 104.778 157.367 106.753 157.367H117.832C119.808 157.367 121.409 158.968 121.409 160.943C121.409 162.919 119.808 164.52 117.832 164.52Z" fill="#A6B4CD"/>
</g>
<defs>
<clipPath id="clip0_6556_25615">
<rect width="212" height="131" fill="white" transform="translate(45.7496 70.664)"/>
</clipPath>
</defs>
</svg>
