<svg width="135" height="154" viewBox="0 0 135 154" fill="none" xmlns="http://www.w3.org/2000/svg">
<path d="M0.811523 148.624V151C0.811523 152.33 2.07522 153.426 3.64042 153.426H130.777C132.338 153.426 133.606 152.339 133.606 151V148.624H0.811523Z" fill="#9D9D9C"/>
<path d="M0 147.005H134.55L116.943 131.552H20.9019L0 147.005Z" fill="#BBBABA"/>
<g style="mix-blend-mode:soft-light">
<path d="M121.545 140.527L114.398 134.257H22.7157L14.229 140.527H121.545Z" fill="#DEDEDE"/>
</g>
<g style="mix-blend-mode:soft-light">
<path d="M84.4502 146.06L82.2421 142.313H53.9442L51.3237 146.06H84.4502Z" fill="#DEDEDE"/>
</g>
<path d="M115.595 68.0923H22.2545C20.9126 68.0923 19.8247 69.1802 19.8247 70.5221V130.137C19.8247 131.479 20.9126 132.567 22.2545 132.567H115.595C116.937 132.567 118.025 131.479 118.025 130.137V70.5221C118.025 69.1802 116.937 68.0923 115.595 68.0923Z" fill="#EDEDED"/>
<path d="M111.006 74.2959H26.0278V125.283H111.006V74.2959Z" fill="#E94E1B"/>
<g style="mix-blend-mode:soft-light">
<path d="M50.6496 129.029C54.9308 125.803 59.0228 122.332 62.9052 118.636C70.9013 110.96 78.0691 102.465 84.2904 93.291C89.5215 85.6296 94.1341 77.5637 98.0846 69.17H23.2785C22.9683 69.1677 22.6608 69.2265 22.3734 69.3432C22.086 69.4598 21.8245 69.632 21.6037 69.8499C21.383 70.0678 21.2074 70.327 21.0869 70.6128C20.9665 70.8987 20.9036 71.2054 20.9019 71.5156V129.158C20.9065 129.784 21.1594 130.382 21.605 130.822C22.0506 131.262 22.6525 131.507 23.2785 131.503H47.2221C48.4016 130.705 49.5367 129.88 50.6496 129.029Z" fill="white"/>
</g>
<path d="M71.1482 71.8312C71.1482 72.0943 71.0702 72.3515 70.924 72.5702C70.7779 72.789 70.5701 72.9594 70.327 73.0601C70.084 73.1608 69.8165 73.1871 69.5585 73.1358C69.3005 73.0845 69.0634 72.9578 68.8774 72.7718C68.6914 72.5857 68.5647 72.3487 68.5134 72.0907C68.462 71.8327 68.4884 71.5652 68.589 71.3221C68.6897 71.0791 68.8602 70.8713 69.079 70.7252C69.2977 70.579 69.5549 70.501 69.818 70.501C70.1708 70.501 70.5091 70.6411 70.7586 70.8906C71.0081 71.14 71.1482 71.4784 71.1482 71.8312Z" fill="#9D9D9C"/>
<path d="M134.55 147.005H0V150.242H134.55V147.005Z" fill="#C6C6C6"/>
<path d="M111.01 119.089C108.35 113.976 101.477 114.176 99.291 118.122C99.0206 113.356 90.729 110.695 88.1218 116.903C89.0086 109.675 79.7947 107.015 76.15 111.516C74.7887 105.889 66.2798 103.743 61.8503 111.099C63.6239 103.947 54.4189 98.218 48.3487 103.672C39.0772 93.917 48.5128 76.0169 49.4705 72.1904C48.1004 71.9997 47.3112 70.9223 46.4465 69.9468C43.9857 71.9997 36.4434 86.5211 35.2019 89.5673C32.3375 96.573 29.1849 94.4447 29.1849 94.4447C25.1943 92.2764 15.976 98.8255 22.1836 106.771C18.0201 105.778 16.384 112.939 20.9022 115.803C14.3399 117.235 17.4082 126.445 26.0279 125.279H111.01V119.089Z" fill="white"/>
<path d="M61.4912 70.7886C55.3678 78.5304 41.8352 81.6519 41.8352 81.6519C41.8352 81.6519 41.4406 65.02 46.3535 58.8124C51.2663 52.6047 62.7593 53.6556 62.7593 53.6556C62.7593 53.6556 67.6145 63.0468 61.4912 70.7886Z" fill="#FAB200"/>
<path d="M60.6084 67.1441C56.3428 72.5359 46.9339 74.7218 46.9339 74.7218C46.9339 74.7218 46.6811 63.1579 50.1042 58.8303C53.5272 54.5027 61.4952 55.2255 61.4952 55.2255C61.4952 55.2255 64.8739 61.7523 60.6084 67.1441Z" fill="#FFCA00"/>
<path d="M73.29 77.7009C69.0865 74.3754 69.4013 62.8647 69.4013 62.8647C69.4013 62.8647 86.4146 47.2659 88.0996 48.6005C93.4869 52.8661 74.9749 79.0311 73.29 77.7009Z" fill="#EA5B0C"/>
<path d="M88.9418 49.9668C87.2771 54.5758 85.0285 58.9523 82.2508 62.9895C80.2733 65.8938 78.2602 68.9843 75.9723 71.6402C74.741 73.1564 73.2047 74.3967 71.4629 75.2805C71.8877 76.2112 72.5113 77.0376 73.2897 77.7015C74.8416 78.9253 90.7154 56.7553 88.9418 49.9668Z" fill="#EF7B00"/>
<path d="M37.1126 49.0753C41.3116 52.4008 52.441 49.4478 52.441 49.4478C52.441 49.4478 63.7078 29.3041 62.0229 27.9694C56.6311 23.7084 35.4277 47.7451 37.1126 49.0753Z" fill="#EA5B0C"/>
<path d="M60.4978 27.4905C56.3945 30.1674 52.6525 33.3609 49.3641 36.9926C46.9963 39.5865 44.4467 42.2425 42.3938 45.0935C41.2116 46.6352 40.3644 48.4067 39.9063 50.2946C38.9039 50.0978 37.9574 49.6814 37.1351 49.0753C35.5566 47.847 53.4788 27.3043 60.4978 27.4905Z" fill="#EF7B00"/>
<path d="M68.8201 65.2013C67.8358 66.4428 66.244 66.8197 65.2729 66.0393L50.1175 54.0675C49.1375 53.2871 49.1331 51.6465 50.1175 50.405L50.3702 50.0858C51.3545 48.8442 52.9508 48.4673 53.9174 49.2433L69.0684 61.2151C70.0528 61.9955 70.0528 63.6317 69.0684 64.8776L68.8201 65.2013Z" fill="#EA5B0C"/>
<path d="M104.98 0.159222C104.98 0.159222 84.4859 -3.38798 63.615 23.0032C53.4168 35.9106 49.71 50.2813 49.71 50.2813L59.314 57.8767L68.9137 65.4766C68.9137 65.4766 82.0516 58.5728 92.2631 45.6699C113.13 19.2875 104.98 0.159222 104.98 0.159222Z" fill="white"/>
<path d="M67.9736 49.39C66.0936 48.7205 63.983 50.4675 62.4533 51.372C61.7926 51.7622 60.2053 52.8175 59.5623 51.8154C58.4051 50.0418 59.7707 46.5656 60.3072 44.8363C61.6374 40.5043 63.5308 36.2299 65.3842 32.0885C69.2285 23.4998 75.3784 16.738 83.0049 11.3462C86.583 8.79254 90.3749 6.55244 94.3383 4.65087C97.8278 2.99699 101.681 2.2166 105.042 0.318846L104.98 0.159222C104.98 0.159222 84.4859 -3.38798 63.615 23.0032C53.4168 35.9106 49.71 50.2813 49.71 50.2813L68.9137 65.4766C68.9137 65.4766 69.2595 65.2904 69.8758 64.9401C66.1734 61.0071 65.2157 54.6399 67.9736 49.39Z" fill="#DADADA"/>
<path d="M105.928 17.2922C107.746 6.65059 104.979 0.159198 104.979 0.159198C104.979 0.159198 98.0225 -1.03798 88.0947 3.17432L105.928 17.2922Z" fill="#EA5B0C"/>
<path d="M90.9413 37.2458C89.5082 39.0605 87.5689 40.4094 85.369 41.1217C83.169 41.834 80.8072 41.8778 78.5824 41.2474C76.3575 40.617 74.3697 39.3408 72.8704 37.5804C71.371 35.8199 70.4276 33.6543 70.1594 31.3575C69.8913 29.0607 70.3104 26.7359 71.3639 24.6774C72.4173 22.6189 74.0577 20.9191 76.0774 19.7932C78.0972 18.6672 80.4056 18.1656 82.7105 18.352C85.0153 18.5383 87.2132 19.4042 89.0258 20.84C91.4534 22.7628 93.0187 25.5706 93.3778 28.6466C93.7369 31.7226 92.8606 34.8154 90.9413 37.2458Z" fill="#EA5B0C"/>
<path d="M88.7956 35.5469C87.6778 36.9661 86.1567 38.014 84.4322 38.5527C82.7078 39.0913 80.8608 39.0957 79.1338 38.5651C77.4069 38.0346 75.8809 36.994 74.7563 35.58C73.6318 34.1661 72.9614 32.445 72.8332 30.6429C72.7866 30.0112 72.8089 29.3764 72.8997 28.7496C72.9383 28.4386 72.9975 28.1304 73.0771 27.8273C73.2883 26.9713 73.6277 26.1521 74.0836 25.3975C74.2777 25.062 74.4971 24.7419 74.7398 24.4397C75.9767 22.8802 77.6979 21.7771 79.6316 21.3047C81.5652 20.8323 83.6011 21.0175 85.4178 21.831C87.2345 22.6445 88.7284 24.04 89.6637 25.7971C90.5989 27.5542 90.9222 29.5728 90.5825 31.5341C90.5294 31.844 90.4584 32.1504 90.3697 32.452C90.1978 33.0677 89.9584 33.6625 89.6558 34.2256C89.4093 34.691 89.1214 35.1332 88.7956 35.5469Z" fill="#0F91E0"/>
<path d="M90.5958 31.5302L73.0903 27.8278C73.3016 26.9718 73.6409 26.1526 74.0969 25.3979L90.6579 28.9053C90.7658 29.7786 90.7449 30.663 90.5958 31.5302Z" fill="white" fill-opacity="0.2"/>
<path d="M89.669 34.2081L72.8464 30.6609C72.7998 30.0292 72.8221 29.3944 72.9129 28.7676L90.3829 32.4655C90.2088 33.0706 89.9695 33.6549 89.669 34.2081Z" fill="white" fill-opacity="0.2"/>
<g style="mix-blend-mode:multiply">
<path d="M90.4537 27.854C90.6217 30.0919 89.943 32.3112 88.5522 34.0724C87.1613 35.8336 85.1597 37.0082 82.9438 37.3634C80.7279 37.7187 78.4594 37.2288 76.5877 35.9907C74.7159 34.7526 73.3775 32.8567 72.8374 30.6785C72.9301 31.914 73.2783 33.1168 73.8599 34.2108C74.4415 35.3048 75.2439 36.2661 76.2162 37.034C77.1885 37.8019 78.3097 38.3596 79.5087 38.6718C80.7077 38.984 81.9584 39.0439 83.1818 38.8478C84.4051 38.6516 85.5745 38.2037 86.6158 37.5323C87.6571 36.8609 88.5477 35.9806 89.2312 34.9473C89.9147 33.9139 90.3763 32.7499 90.5867 31.5289C90.7972 30.3079 90.7519 29.0566 90.4537 27.854Z" fill="#A4B7C2"/>
</g>
</svg>
