<svg width="50" height="16" viewBox="0 0 50 16" fill="none" xmlns="http://www.w3.org/2000/svg">
<rect x="0.5" y="0.5" width="49" height="15" rx="7.5" fill="white" stroke="#FF5E5E"/>
<path d="M24.015 11.02V12H19.855V4.8H21.025V11.02H24.015ZM25.941 6.9V12H24.866V6.9H25.941ZM26.121 5.36C26.121 5.45667 26.101 5.54833 26.061 5.635C26.0243 5.72167 25.9727 5.79833 25.906 5.865C25.8393 5.92833 25.761 5.98 25.671 6.02C25.5843 6.05667 25.491 6.075 25.391 6.075C25.2943 6.075 25.2027 6.05667 25.116 6.02C25.0327 5.98 24.9593 5.92833 24.896 5.865C24.8327 5.79833 24.781 5.72167 24.741 5.635C24.7043 5.54833 24.686 5.45667 24.686 5.36C24.686 5.26 24.7043 5.16667 24.741 5.08C24.781 4.99333 24.8327 4.91833 24.896 4.855C24.9593 4.78833 25.0327 4.73667 25.116 4.7C25.2027 4.66 25.2943 4.64 25.391 4.64C25.491 4.64 25.5843 4.66 25.671 4.7C25.761 4.73667 25.8393 4.78833 25.906 4.855C25.9727 4.91833 26.0243 4.99333 26.061 5.08C26.101 5.16667 26.121 5.26 26.121 5.36ZM31.7817 6.9L29.7317 12H28.7617L26.7117 6.9H27.5967C27.6801 6.9 27.7484 6.92167 27.8017 6.965C27.8584 7.005 27.8951 7.05333 27.9117 7.11L29.0417 10.08C29.0884 10.22 29.1301 10.3583 29.1667 10.495C29.2034 10.6317 29.2351 10.77 29.2617 10.91C29.2884 10.77 29.3201 10.6333 29.3567 10.5C29.3967 10.3633 29.4401 10.2233 29.4867 10.08L30.6367 7.11C30.6567 7.05 30.6934 7 30.7467 6.96C30.8001 6.92 30.8651 6.9 30.9417 6.9H31.7817ZM35.7148 8.875C35.7148 8.695 35.6882 8.52833 35.6348 8.375C35.5848 8.21833 35.5098 8.08333 35.4098 7.97C35.3098 7.85333 35.1848 7.76333 35.0348 7.7C34.8882 7.63333 34.7182 7.6 34.5248 7.6C34.1348 7.6 33.8282 7.71167 33.6048 7.935C33.3815 8.15833 33.2398 8.47167 33.1798 8.875H35.7148ZM33.1498 9.535C33.1632 9.825 33.2082 10.0767 33.2848 10.29C33.3615 10.5 33.4632 10.675 33.5898 10.815C33.7198 10.955 33.8732 11.06 34.0498 11.13C34.2298 11.1967 34.4298 11.23 34.6498 11.23C34.8598 11.23 35.0415 11.2067 35.1948 11.16C35.3482 11.11 35.4815 11.0567 35.5948 11C35.7082 10.94 35.8048 10.8867 35.8848 10.84C35.9648 10.79 36.0382 10.765 36.1048 10.765C36.1915 10.765 36.2582 10.7983 36.3048 10.865L36.6098 11.26C36.4832 11.41 36.3398 11.5367 36.1798 11.64C36.0198 11.7433 35.8498 11.8283 35.6698 11.895C35.4898 11.9583 35.3048 12.0033 35.1148 12.03C34.9248 12.06 34.7398 12.075 34.5598 12.075C34.2065 12.075 33.8782 12.0167 33.5748 11.9C33.2748 11.78 33.0132 11.605 32.7898 11.375C32.5698 11.145 32.3965 10.86 32.2698 10.52C32.1465 10.18 32.0848 9.78833 32.0848 9.345C32.0848 8.99167 32.1398 8.66167 32.2498 8.355C32.3632 8.04833 32.5232 7.78167 32.7298 7.555C32.9398 7.32833 33.1932 7.15 33.4898 7.02C33.7898 6.88667 34.1282 6.82 34.5048 6.82C34.8182 6.82 35.1082 6.87167 35.3748 6.975C35.6415 7.075 35.8715 7.22333 36.0648 7.42C36.2582 7.61667 36.4082 7.85833 36.5148 8.145C36.6248 8.42833 36.6798 8.75167 36.6798 9.115C36.6798 9.28167 36.6615 9.39333 36.6248 9.45C36.5882 9.50667 36.5215 9.535 36.4248 9.535H33.1498Z" fill="#FF5E5E"/>
<circle cx="14" cy="9" r="2" fill="#FF5E5E"/>
</svg>
