<svg width="229" height="154" viewBox="0 0 229 154" fill="none" xmlns="http://www.w3.org/2000/svg">
<path d="M227.9 72.2452C220.691 38.8522 180.062 19.3523 137.15 28.6954C131.515 29.9214 126.124 31.586 121.02 33.6232C114.601 16.9637 96.6979 3.54893 74.2118 0.592236C43.9462 -3.38437 16.8456 13.0849 13.678 37.3778C12.3599 47.4845 15.396 57.3507 21.5654 65.7161C4.47521 80.9118 -3.83836 101.08 1.70753 119.494C10.3105 148.057 49.008 161.572 88.1423 149.685C93.6382 148.015 98.8499 145.933 103.725 143.51C120.26 151.682 141.462 154.375 163.251 149.629C206.163 140.286 235.106 105.643 227.9 72.2478V72.2452Z" fill="#DBE2EA" fill-opacity="0.28"/>
<path d="M152.596 44.6567H89.5448C86.6842 44.6567 84.3652 46.9941 84.3652 49.8774V127.166C84.3652 130.049 86.6842 132.387 89.5448 132.387H152.596C155.457 132.387 157.776 130.049 157.776 127.166V49.8774C157.776 46.9941 155.457 44.6567 152.596 44.6567Z" fill="white"/>
<path fill-rule="evenodd" clip-rule="evenodd" d="M89.5447 45.7353C87.2751 45.7353 85.4352 47.5897 85.4352 49.8773V127.166C85.4352 129.453 87.2751 131.308 89.5447 131.308H152.596C154.866 131.308 156.706 129.453 156.706 127.166V49.8773C156.706 47.5897 154.866 45.7353 152.596 45.7353H89.5447ZM83.2949 49.8773C83.2949 46.3983 86.093 43.578 89.5447 43.578H152.596C156.048 43.578 158.846 46.3983 158.846 49.8773V127.166C158.846 130.645 156.048 133.465 152.596 133.465H89.5447C86.093 133.465 83.2949 130.645 83.2949 127.166V49.8773Z" fill="#A6B4CD"/>
<path d="M120.306 34.3209H57.2548C54.3942 34.3209 52.0752 36.6583 52.0752 39.5416V116.83C52.0752 119.713 54.3942 122.051 57.2548 122.051H120.306C123.167 122.051 125.486 119.713 125.486 116.83V39.5416C125.486 36.6583 123.167 34.3209 120.306 34.3209Z" fill="#F2F4F8"/>
<path d="M152.45 56.0245H92.9971V61.0582H152.45V56.0245Z" fill="#F2F4F8"/>
<path d="M137.501 65.4423H92.9971V70.4759H137.501V65.4423Z" fill="#F2F4F8"/>
<path d="M130.327 74.8577H92.9971V79.8913H130.327V74.8577Z" fill="#F2F4F8"/>
<path d="M151.295 110.932H92.9971V115.966H151.295V110.932Z" fill="#F2F4F8"/>
<path d="M129.264 121.39H92.9971V126.424H129.264V121.39Z" fill="#F2F4F8"/>
<path fill-rule="evenodd" clip-rule="evenodd" d="M57.2546 35.3995C54.9851 35.3995 53.1452 37.2539 53.1452 39.5415V116.83C53.1452 119.118 54.9851 120.972 57.2546 120.972H120.306C122.576 120.972 124.416 119.118 124.416 116.83V39.5415C124.416 37.2539 122.576 35.3995 120.306 35.3995H57.2546ZM51.0049 39.5415C51.0049 36.0625 53.803 33.2422 57.2546 33.2422H120.306C123.758 33.2422 126.556 36.0625 126.556 39.5415V116.83C126.556 120.309 123.758 123.129 120.306 123.129H57.2546C53.803 123.129 51.0049 120.309 51.0049 116.83V39.5415Z" fill="#A6B4CD"/>
<path d="M130.231 21.3604H67.1796C64.319 21.3604 62 23.6977 62 26.581V103.869C62 106.753 64.319 109.09 67.1796 109.09H130.231C133.092 109.09 135.411 106.753 135.411 103.869V26.581C135.411 23.6977 133.092 21.3604 130.231 21.3604Z" fill="white"/>
<path fill-rule="evenodd" clip-rule="evenodd" d="M67.2029 22.439C64.9333 22.439 63.0934 24.2935 63.0934 26.581V103.87C63.0934 106.157 64.9333 108.012 67.2029 108.012H130.254C132.524 108.012 134.364 106.157 134.364 103.87V26.581C134.364 24.2935 132.524 22.439 130.254 22.439H67.2029ZM60.9531 26.581C60.9531 23.102 63.7512 20.2817 67.2029 20.2817H130.254C133.706 20.2817 136.504 23.102 136.504 26.581V103.87C136.504 107.349 133.706 110.169 130.254 110.169H67.2029C63.7512 110.169 60.9531 107.349 60.9531 103.87V26.581Z" fill="#6B82AB"/>
<path d="M129.45 30.4689H69.9971V35.5025H129.45V30.4689Z" fill="#DBE2EA"/>
<path d="M114.501 39.8868H69.9971V44.9205H114.501V39.8868Z" fill="#DBE2EA"/>
<path d="M114.501 96.0001H69.9971V101.034H114.501V96.0001Z" fill="#DBE2EA"/>
<path d="M85 76.0001H70V90.0001H85V76.0001Z" fill="#DBE2EA"/>
<path d="M104 76.0001H89V90.0001H104V76.0001Z" fill="#DBE2EA"/>
<path d="M123 76.0001H108V90.0001H123V76.0001Z" fill="#DBE2EA"/>
<path d="M96.5998 62.4924H100.511L101.033 51H96.0782L96.5998 62.4924ZM98.5556 63.6868C97.0952 63.6868 96 64.8015 96 66.2878C96 67.7742 97.0952 68.8889 98.5556 68.8889C100.016 68.8889 101.111 67.7742 101.111 66.2878C101.111 64.8015 100.016 63.6868 98.5556 63.6868Z" fill="#EA8804"/>
</svg>
