<svg width="50" height="50" viewBox="0 0 50 50" fill="none" xmlns="http://www.w3.org/2000/svg">
<path d="M35.8119 41.1453C35.8077 41.1453 35.8036 41.1444 35.7997 41.1428L35.63 41.0726C35.6256 41.071 35.6216 41.0686 35.6182 41.0654C35.6148 41.0622 35.612 41.0583 35.61 41.0539C35.6081 41.0495 35.607 41.0447 35.6068 41.0399C35.6067 41.035 35.6074 41.0302 35.6091 41.0257C35.6108 41.0211 35.6133 41.017 35.6165 41.0136C35.6197 41.0101 35.6236 41.0074 35.6278 41.0056C35.632 41.0037 35.6366 41.0028 35.6412 41.0029C35.6457 41.003 35.6502 41.0041 35.6544 41.0061L35.8241 41.0764C35.8314 41.0794 35.8374 41.0851 35.8412 41.0923C35.845 41.0996 35.8463 41.108 35.8448 41.1162C35.8434 41.1243 35.8393 41.1317 35.8333 41.137C35.8273 41.1423 35.8197 41.1452 35.8119 41.1453V41.1453Z" fill="white"/>
<path d="M26.9684 11.9805L11.339 15.7202L16.6093 40.7229L34.2544 36.4999L29.415 13.5513L26.9684 11.9805Z" fill="#FFF8E7" stroke="#FFCD56" stroke-miterlimit="10" stroke-linecap="round"/>
<path d="M15.3875 20.469L27.2265 17.6355" stroke="#FFCD56" stroke-miterlimit="10" stroke-linecap="round"/>
<path d="M15.9287 23.0305L27.7677 20.197" stroke="#FFCD56" stroke-miterlimit="10" stroke-linecap="round"/>
<path d="M16.4675 25.5922L28.3065 22.7617" stroke="#FFCD56" stroke-miterlimit="10" stroke-linecap="round"/>
<path d="M17.009 28.157L28.8481 25.3235" stroke="#FFCD56" stroke-miterlimit="10" stroke-linecap="round"/>
<path d="M17.5507 30.7182L29.3897 27.8848" stroke="#FFCD56" stroke-miterlimit="10" stroke-linecap="round"/>
<path d="M18.0892 33.2829L29.9283 30.4495" stroke="#FFCD56" stroke-miterlimit="10" stroke-linecap="round"/>
<path d="M18.6306 35.8445L30.4696 33.011" stroke="#FFCD56" stroke-miterlimit="10" stroke-linecap="round"/>
<path d="M26.4469 12.8506L26.9345 15.1735L29.0636 14.663" stroke="#FFCD56" stroke-miterlimit="10" stroke-linecap="round"/>
<path d="M39.7857 4.10244L23.8869 2L20.9243 27.4287L38.8728 29.803L41.5916 6.46165L39.7857 4.10244Z" fill="white" stroke="#A3D5F3" stroke-miterlimit="10" stroke-linecap="round"/>
<path d="M26.1945 7.92676L38.2376 9.51869" stroke="#A3D5F3" stroke-miterlimit="10" stroke-linecap="round"/>
<path d="M25.8911 10.5337L37.9343 12.1256" stroke="#A3D5F3" stroke-miterlimit="10" stroke-linecap="round"/>
<path d="M25.5879 13.1406L37.6282 14.7326" stroke="#A3D5F3" stroke-miterlimit="10" stroke-linecap="round"/>
<path d="M25.2845 15.7444L37.3249 17.3393" stroke="#A3D5F3" stroke-miterlimit="10" stroke-linecap="round"/>
<path d="M24.9811 18.3511L37.0214 19.946" stroke="#A3D5F3" stroke-miterlimit="10" stroke-linecap="round"/>
<path d="M24.6777 20.9583L36.718 22.5532" stroke="#A3D5F3" stroke-miterlimit="10" stroke-linecap="round"/>
<path d="M24.3715 23.5652L36.4146 25.1601" stroke="#A3D5F3" stroke-miterlimit="10" stroke-linecap="round"/>
<path d="M39.0172 4.73389L38.7422 7.09611L40.9081 7.38309" stroke="#A3D5F3" stroke-miterlimit="10" stroke-linecap="round"/>
<g opacity="0.4">
<path opacity="0.4" d="M17.1564 40.7595C18.1118 42.0826 18.2082 43.6957 18.2082 45.632H9.41965C9.41965 43.6987 9.5047 42.0856 10.4601 40.7625C11.4155 39.4394 12.1895 38.9773 12.5779 38.5C12.7263 38.3583 12.8451 38.1849 12.9264 37.991C13.0078 37.7971 13.0498 37.5871 13.0498 37.3747C13.0498 37.1624 13.0078 36.9524 12.9264 36.7585C12.8451 36.5646 12.7263 36.3912 12.5779 36.2495C12.1895 35.7692 11.4155 35.3101 10.4601 33.987C9.5047 32.6639 9.39697 31.0478 9.39697 29.1145H18.2082C18.2082 31.0478 18.1203 32.6609 17.1649 33.984C16.2095 35.307 15.4356 35.7662 15.0443 36.2465C14.8958 36.3882 14.7771 36.5616 14.6957 36.7555C14.6144 36.9494 14.5724 37.1594 14.5724 37.3717C14.5724 37.5841 14.6144 37.7941 14.6957 37.988C14.7771 38.1819 14.8958 38.3553 15.0443 38.497C15.2569 38.7567 15.583 39.0105 15.9884 39.4032C16.4154 39.8168 16.8063 40.2707 17.1564 40.7595Z" fill="#85B8ED"/>
</g>
<g opacity="0.7">
<path opacity="0.7" d="M16.7539 41.2184C17.491 42.2092 17.6243 43.4598 17.6498 44.943H9.94421C9.96973 43.4598 10.0973 42.2001 10.8401 41.2184C11.5829 40.2366 12.4986 39.8077 13.797 39.8077C14.357 39.7958 14.9126 39.9161 15.4238 40.16C15.935 40.4039 16.3893 40.7654 16.7539 41.2184V41.2184Z" fill="#FFFFF8"/>
</g>
<g opacity="0.7">
<path opacity="0.7" d="M17.6129 30.7C17.525 31.7905 17.3294 32.7299 16.7624 33.5244C16.322 34.1324 15.8168 34.6839 15.257 35.1677C15.0462 35.3537 14.8481 35.5556 14.6645 35.7718C14.2691 36.2052 14.0405 36.7807 14.0238 37.3849C14.0238 37.9286 13.95 38.0676 13.8055 38.0676C13.6609 38.0676 13.5872 37.9437 13.5872 37.3849C13.5704 36.7807 13.3418 36.2052 12.9465 35.7718C12.7628 35.5556 12.5648 35.3537 12.3539 35.1677C11.7908 34.6837 11.2819 34.1323 10.8372 33.5244C10.6683 33.2917 10.5264 33.0382 10.4148 32.7692C10.3751 32.6816 10.4375 32.5789 10.514 32.603C11.2042 32.8091 11.9219 32.8908 12.6374 32.8447C14.0549 32.7329 14.6928 32.4339 15.5802 31.5005C16.116 30.9386 16.5157 30.1593 16.8729 29.972C17.3407 29.7303 17.6668 30.1502 17.6129 30.7Z" fill="#FFFFF8"/>
</g>
<path d="M18.9795 28.1323C18.9991 28.3714 18.929 28.6091 18.7844 28.7931C18.6399 28.9772 18.4327 29.0926 18.2083 29.1141H9.41979C9.30771 29.1049 9.19844 29.0722 9.0983 29.0178C8.99817 28.9634 8.90914 28.8884 8.83638 28.7971C8.76362 28.7058 8.70856 28.6 8.6744 28.4859C8.64023 28.3718 8.62763 28.2516 8.63732 28.1323H18.9795Z" fill="#9FD5F7"/>
<path d="M19.5918 26.9029V27.2956C19.606 27.4998 19.5445 27.7019 19.4204 27.8583C19.2964 28.0147 19.1197 28.1131 18.9284 28.1323H8.66846C8.4766 28.1139 8.29923 28.0158 8.1746 27.8593C8.04997 27.7028 7.98806 27.5003 8.00223 27.2956V26.9029C7.99986 26.8606 8.01303 26.819 8.03896 26.7868C8.06489 26.7547 8.10154 26.7346 8.14115 26.7307H19.4529C19.4925 26.7346 19.5291 26.7547 19.555 26.7868C19.581 26.819 19.5941 26.8606 19.5918 26.9029Z" fill="#1DA1F2"/>
<path d="M18.9795 46.6106C18.9983 46.372 18.9278 46.1351 18.7834 45.9517C18.6389 45.7683 18.4321 45.6533 18.2083 45.6318H9.41979C9.30771 45.641 9.19844 45.6737 9.0983 45.7281C8.99817 45.7825 8.90914 45.8575 8.83638 45.9488C8.76362 46.0401 8.70856 46.1459 8.6744 46.26C8.64023 46.3741 8.62763 46.4943 8.63732 46.6136L18.9795 46.6106Z" fill="#9FD5F6"/>
<path d="M19.5917 47.8278V47.4442C19.6067 47.2398 19.5454 47.0373 19.4213 46.8807C19.2971 46.7241 19.12 46.6259 18.9283 46.6074H8.66842C8.47627 46.6251 8.29845 46.723 8.17368 46.8797C8.04891 47.0364 7.98727 47.2393 8.00219 47.4442V47.8248C7.99905 47.8676 8.01187 47.91 8.03787 47.9428C8.06388 47.9756 8.10097 47.9961 8.14111 48H19.4528C19.4924 47.9961 19.5291 47.976 19.555 47.9439C19.5809 47.9117 19.5941 47.8701 19.5917 47.8278Z" fill="#1DA1F2"/>
<g opacity="0.7">
<path opacity="0.7" d="M13.5363 38.8442C13.5449 38.7915 13.5674 38.7426 13.6013 38.7031C13.6351 38.6636 13.6787 38.6353 13.7272 38.6213C13.7756 38.6074 13.8267 38.6084 13.8746 38.6244C13.9225 38.6403 13.9651 38.6705 13.9975 38.7113C14.0298 38.7521 14.0506 38.802 14.0573 38.8549C14.064 38.9079 14.0564 38.9618 14.0353 39.0103C14.0143 39.0588 13.9807 39.1 13.9385 39.1289C13.8963 39.1577 13.8472 39.1732 13.7971 39.1734C13.7595 39.1704 13.723 39.1594 13.6894 39.1412C13.6559 39.1229 13.6262 39.0977 13.6019 39.0671C13.5776 39.0364 13.5593 39.0009 13.548 38.9626C13.5368 38.9244 13.5328 38.8841 13.5363 38.8442Z" fill="#FFFFF8"/>
</g>
</svg>
