<svg width="153" height="58" viewBox="0 0 153 58" fill="none" xmlns="http://www.w3.org/2000/svg">
<mask id="mask0_4739_92383" style="mask-type:alpha" maskUnits="userSpaceOnUse" x="0" y="0" width="153" height="58">
<path d="M0 4C0 1.79086 1.79086 0 4 0H149C151.209 0 153 1.79086 153 4V54C153 56.2091 151.209 58 149 58H4C1.79086 58 0 56.2091 0 54V4Z" fill="#38BA6D"/>
</mask>
<g mask="url(#mask0_4739_92383)">
<g opacity="0.5">
<rect width="5.03464" height="346.256" rx="2.51732" transform="matrix(0.362418 0.932016 -0.128543 0.991704 21.2266 -341.205)" fill="#35AB65"/>
<rect width="5.03464" height="346.256" rx="2.51732" transform="matrix(0.362418 0.932016 -0.128543 0.991704 24.418 -332.992)" fill="#35AB65"/>
<rect width="5.03464" height="346.256" rx="2.51732" transform="matrix(0.362418 0.932016 -0.128543 0.991704 27.6133 -324.781)" fill="#35AB65"/>
<rect width="5.03464" height="346.256" rx="2.51732" transform="matrix(0.362418 0.932016 -0.128543 0.991704 30.8047 -316.57)" fill="#35AB65"/>
<rect width="5.03464" height="346.256" rx="2.51732" transform="matrix(0.362418 0.932016 -0.128543 0.991704 34 -308.359)" fill="#35AB65"/>
<rect width="5.03464" height="346.256" rx="2.51732" transform="matrix(0.362418 0.932016 -0.128543 0.991704 37.1914 -300.148)" fill="#35AB65"/>
<rect width="5.03464" height="346.256" rx="2.51732" transform="matrix(0.362418 0.932016 -0.128543 0.991704 40.3828 -291.934)" fill="#35AB65"/>
<rect width="5.03464" height="346.256" rx="2.51732" transform="matrix(0.362418 0.932016 -0.128543 0.991704 43.5781 -283.723)" fill="#35AB65"/>
<rect width="5.03464" height="346.256" rx="2.51732" transform="matrix(0.362418 0.932016 -0.128543 0.991704 46.7695 -275.512)" fill="#35AB65"/>
<rect width="5.03464" height="346.256" rx="2.51732" transform="matrix(0.362418 0.932016 -0.128543 0.991704 49.9648 -267.301)" fill="#35AB65"/>
<rect width="5.03464" height="346.256" rx="2.51732" transform="matrix(0.362418 0.932016 -0.128543 0.991704 53.1562 -259.09)" fill="#35AB65"/>
<rect width="5.03464" height="346.256" rx="2.51732" transform="matrix(0.362418 0.932016 -0.128543 0.991704 56.3516 -250.877)" fill="#35AB65"/>
<rect width="5.03464" height="346.256" rx="2.51732" transform="matrix(0.362418 0.932016 -0.128543 0.991704 59.543 -242.666)" fill="#35AB65"/>
<rect width="5.03464" height="346.256" rx="2.51732" transform="matrix(0.362418 0.932016 -0.128543 0.991704 62.7383 -234.454)" fill="#35AB65"/>
<rect width="5.03464" height="346.256" rx="2.51732" transform="matrix(0.362418 0.932016 -0.128543 0.991704 65.9297 -226.241)" fill="#35AB65"/>
<rect width="5.03464" height="346.256" rx="2.51732" transform="matrix(0.362418 0.932016 -0.128543 0.991704 69.1211 -218.03)" fill="#35AB65"/>
<rect width="5.03464" height="346.256" rx="2.51732" transform="matrix(0.362418 0.932016 -0.128543 0.991704 72.3164 -209.817)" fill="#35AB65"/>
<rect width="5.03464" height="346.256" rx="2.51732" transform="matrix(0.362418 0.932016 -0.128543 0.991704 75.5078 -201.606)" fill="#35AB65"/>
<rect width="5.03464" height="346.256" rx="2.51732" transform="matrix(0.362418 0.932016 -0.128543 0.991704 78.7031 -193.396)" fill="#35AB65"/>
<rect width="5.03464" height="346.256" rx="2.51732" transform="matrix(0.362418 0.932016 -0.128543 0.991704 81.8945 -185.185)" fill="#35AB65"/>
<rect width="5.03464" height="346.256" rx="2.51732" transform="matrix(0.362418 0.932016 -0.128543 0.991704 85.0898 -176.974)" fill="#35AB65"/>
<rect width="5.03464" height="346.256" rx="2.51732" transform="matrix(0.362418 0.932016 -0.128543 0.991704 88.2812 -168.759)" fill="#35AB65"/>
<rect width="5.03464" height="346.256" rx="2.51732" transform="matrix(0.362418 0.932016 -0.128543 0.991704 91.4727 -160.548)" fill="#35AB65"/>
<rect width="5.03464" height="346.256" rx="2.51732" transform="matrix(0.362418 0.932016 -0.128543 0.991704 94.668 -152.337)" fill="#35AB65"/>
<rect width="5.03464" height="346.256" rx="2.51732" transform="matrix(0.362418 0.932016 -0.128543 0.991704 97.8594 -144.126)" fill="#35AB65"/>
<rect width="5.03464" height="346.256" rx="2.51732" transform="matrix(0.362418 0.932016 -0.128543 0.991704 101.055 -135.915)" fill="#35AB65"/>
<rect width="5.03464" height="346.256" rx="2.51732" transform="matrix(0.362418 0.932016 -0.128543 0.991704 104.246 -127.702)" fill="#35AB65"/>
<rect width="5.03464" height="346.256" rx="2.51732" transform="matrix(0.362418 0.932016 -0.128543 0.991704 107.441 -119.49)" fill="#35AB65"/>
<rect width="5.03464" height="346.256" rx="2.51732" transform="matrix(0.362418 0.932016 -0.128543 0.991704 110.633 -111.277)" fill="#35AB65"/>
<rect width="5.03464" height="346.256" rx="2.51732" transform="matrix(0.362418 0.932016 -0.128543 0.991704 113.828 -103.066)" fill="#35AB65"/>
<rect width="5.03464" height="346.256" rx="2.51732" transform="matrix(0.362418 0.932016 -0.128543 0.991704 117.02 -94.8555)" fill="#35AB65"/>
<rect width="5.03464" height="346.256" rx="2.51732" transform="matrix(0.362418 0.932016 -0.128543 0.991704 120.211 -86.6426)" fill="#35AB65"/>
<rect width="5.03464" height="346.256" rx="2.51732" transform="matrix(0.362418 0.932016 -0.128543 0.991704 123.406 -78.4316)" fill="#35AB65"/>
<rect width="5.03464" height="346.256" rx="2.51732" transform="matrix(0.362418 0.932016 -0.128543 0.991704 126.598 -70.2207)" fill="#35AB65"/>
<rect width="5.03464" height="346.256" rx="2.51732" transform="matrix(0.362418 0.932016 -0.128543 0.991704 129.793 -62.0098)" fill="#35AB65"/>
<rect width="5.03464" height="346.256" rx="2.51732" transform="matrix(0.362418 0.932016 -0.128543 0.991704 132.984 -53.7998)" fill="#35AB65"/>
<rect width="5.03464" height="346.256" rx="2.51732" transform="matrix(0.362418 0.932016 -0.128543 0.991704 136.18 -45.585)" fill="#35AB65"/>
<rect width="5.03464" height="346.256" rx="2.51732" transform="matrix(0.362418 0.932016 -0.128543 0.991704 139.371 -37.374)" fill="#35AB65"/>
<rect width="5.03464" height="346.256" rx="2.51732" transform="matrix(0.362418 0.932016 -0.128543 0.991704 142.562 -29.1631)" fill="#35AB65"/>
<rect width="5.03464" height="346.256" rx="2.51732" transform="matrix(0.362418 0.932016 -0.128543 0.991704 145.758 -20.9521)" fill="#35AB65"/>
<rect width="5.03464" height="346.256" rx="2.51732" transform="matrix(0.362418 0.932016 -0.128543 0.991704 148.949 -12.7412)" fill="#35AB65"/>
<rect width="5.03464" height="346.256" rx="2.51732" transform="matrix(0.362418 0.932016 -0.128543 0.991704 152.145 -4.52832)" fill="#35AB65"/>
<rect width="5.03464" height="346.256" rx="2.51732" transform="matrix(0.362418 0.932016 -0.128543 0.991704 155.336 3.68262)" fill="#35AB65"/>
<rect width="5.03464" height="346.256" rx="2.51732" transform="matrix(0.362418 0.932016 -0.128543 0.991704 158.531 11.8955)" fill="#35AB65"/>
<rect width="5.03464" height="346.256" rx="2.51732" transform="matrix(0.362418 0.932016 -0.128543 0.991704 161.723 20.1064)" fill="#35AB65"/>
<rect width="5.03464" height="346.256" rx="2.51732" transform="matrix(0.362418 0.932016 -0.128543 0.991704 164.918 28.3174)" fill="#35AB65"/>
<rect width="5.03464" height="346.256" rx="2.51732" transform="matrix(0.362418 0.932016 -0.128543 0.991704 168.109 36.5303)" fill="#35AB65"/>
<rect width="5.03464" height="346.256" rx="2.51732" transform="matrix(0.362418 0.932016 -0.128543 0.991704 171.301 44.7422)" fill="#35AB65"/>
</g>
</g>
</svg>
