<svg width="386" height="228" viewBox="0 0 386 228" fill="none" xmlns="http://www.w3.org/2000/svg">
<g clip-path="url(#clip0_3912_651302)">
<path d="M51.6913 226.911C51.6913 226.911 -40.4022 168.921 22.538 106.74C85.4782 44.5593 169.704 -18.9991 226.164 5.59063C282.623 30.1804 277.542 61.2707 339.569 106.276C401.595 151.28 387.237 187.013 376.129 205.105C365.021 223.198 363.171 227.853 363.171 227.853L51.6913 226.911Z" fill="#EDF4FB"/>
</g>
<path d="M102.558 214.98H83.1065C82.2891 214.98 81.6265 215.644 81.6265 216.462V221.697C81.6265 222.515 82.2891 223.178 83.1065 223.178H102.558C103.376 223.178 104.038 222.515 104.038 221.697V216.462C104.038 215.644 103.376 214.98 102.558 214.98Z" fill="#DBE2EA"/>
<path d="M127.987 214.98H108.535C107.718 214.98 107.055 215.644 107.055 216.462V221.697C107.055 222.515 107.718 223.178 108.535 223.178H127.987C128.805 223.178 129.467 222.515 129.467 221.697V216.462C129.467 215.644 128.805 214.98 127.987 214.98Z" fill="#DBE2EA"/>
<path d="M115.092 203.706H95.6399C94.8225 203.706 94.1599 204.369 94.1599 205.188V210.422C94.1599 211.241 94.8225 211.904 95.6399 211.904H115.092C115.909 211.904 116.572 211.241 116.572 210.422V205.188C116.572 204.369 115.909 203.706 115.092 203.706Z" fill="#DBE2EA"/>
<path d="M88.0497 52.998V161.331C88.0508 162.683 88.5883 163.979 89.5439 164.935C90.4995 165.891 91.795 166.428 93.1459 166.428H262.781C263.451 166.428 264.113 166.296 264.732 166.04C265.35 165.784 265.912 165.408 266.385 164.934C266.859 164.46 267.234 163.898 267.49 163.279C267.746 162.66 267.878 161.996 267.877 161.326V52.998H88.0497Z" fill="white"/>
<path d="M96.9353 50.0727C97.9341 49.9826 98.6708 49.0991 98.5807 48.0992C98.4907 47.0994 97.6081 46.362 96.6094 46.4521C95.6106 46.5422 94.8739 47.4257 94.9639 48.4256C95.054 49.4254 95.9366 50.1628 96.9353 50.0727Z" fill="white"/>
<path d="M104.019 50.0727C105.018 49.9826 105.755 49.099 105.665 48.0992C105.575 47.0994 104.692 46.362 103.693 46.4521C102.694 46.5422 101.958 47.4257 102.048 48.4256C102.138 49.4254 103.02 50.1628 104.019 50.0727Z" fill="white"/>
<path d="M111.103 50.0737C112.102 49.9836 112.838 49.1 112.748 48.1002C112.658 47.1004 111.776 46.3629 110.777 46.4531C109.778 46.5432 109.042 47.4267 109.132 48.4265C109.222 49.4263 110.104 50.1638 111.103 50.0737Z" fill="white"/>
<path d="M267.897 48.7169C267.898 48.0468 267.768 47.3833 267.515 46.7642C267.262 46.1451 266.892 45.5826 266.425 45.1088C265.958 44.635 265.403 44.2593 264.793 44.003C264.183 43.7467 263.529 43.6149 262.868 43.6152H95.4648C94.131 43.6152 92.8518 44.1527 91.9087 45.1095C90.9655 46.0662 90.4357 47.3638 90.4357 48.7169V52.8999H267.897V48.7169Z" fill="white"/>
<path d="M262.868 166.605H95.4649C94.061 166.604 92.7152 166.037 91.7228 165.03C90.7303 164.023 90.1723 162.657 90.1711 161.233V52.6299H268.164V161.233C268.163 162.657 267.605 164.023 266.612 165.03C265.619 166.038 264.272 166.604 262.868 166.605ZM90.7024 53.1689V161.233C90.7036 162.514 91.2056 163.743 92.0985 164.649C92.9913 165.555 94.202 166.065 95.4649 166.066H262.868C264.131 166.065 265.342 165.555 266.235 164.649C267.128 163.743 267.631 162.514 267.633 161.233V53.1689H90.7024Z" fill="#1DA1F2"/>
<path d="M268.164 53.1683H90.1711V48.7169C90.1723 47.2929 90.7303 45.9274 91.7228 44.9203C92.7152 43.9131 94.061 43.3465 95.4649 43.3447H262.868C264.272 43.3459 265.619 43.9122 266.612 44.9195C267.605 45.9267 268.163 47.2925 268.164 48.7169V53.1683ZM90.7024 52.6294H267.633V48.7169C267.631 47.4356 267.128 46.2073 266.235 45.3012C265.342 44.3952 264.131 43.8854 262.868 43.8837H95.4649C94.202 43.8854 92.9913 44.3953 92.0985 45.3014C91.2056 46.2075 90.7036 47.4358 90.7024 48.7169V52.6294Z" fill="#1DA1F2"/>
<path d="M99.0399 50.3468C98.6324 50.3464 98.2342 50.2234 97.8956 49.9935C97.557 49.7635 97.2932 49.4369 97.1376 49.0549C96.9819 48.6729 96.9414 48.2526 97.0212 47.8473C97.1009 47.4419 97.2974 47.0696 97.5856 46.7775C97.8739 46.4854 98.2411 46.2865 98.6408 46.206C99.0405 46.1255 99.4547 46.1671 99.8311 46.3254C100.208 46.4836 100.529 46.7516 100.756 47.0953C100.982 47.439 101.103 47.8431 101.103 48.2564C101.102 48.811 100.885 49.3427 100.498 49.7347C100.111 50.1267 99.5866 50.3468 99.0399 50.3468ZM99.0399 46.7115C98.7388 46.712 98.4445 46.8029 98.1944 46.973C97.9442 47.143 97.7493 47.3844 97.6344 47.6667C97.5195 47.9491 97.4896 48.2596 97.5486 48.5592C97.6076 48.8587 97.7528 49.1338 97.9659 49.3496C98.179 49.5654 98.4503 49.7124 98.7457 49.7718C99.0411 49.8312 99.3472 49.8005 99.6253 49.6835C99.9035 49.5665 100.141 49.3685 100.308 49.1145C100.476 48.8605 100.565 48.5619 100.565 48.2564C100.564 47.8465 100.403 47.4535 100.118 47.1639C99.8316 46.8742 99.444 46.7115 99.0399 46.7115Z" fill="#1F3965"/>
<path d="M106.031 50.3468C105.623 50.3464 105.225 50.2234 104.886 49.9935C104.548 49.7635 104.284 49.4369 104.128 49.0549C103.973 48.6729 103.932 48.2526 104.012 47.8473C104.092 47.4419 104.288 47.0696 104.577 46.7775C104.865 46.4854 105.232 46.2865 105.632 46.206C106.031 46.1255 106.446 46.1671 106.822 46.3254C107.198 46.4836 107.52 46.7516 107.746 47.0953C107.973 47.439 108.094 47.8431 108.094 48.2564C108.093 48.811 107.875 49.3427 107.489 49.7347C107.102 50.1267 106.577 50.3468 106.031 50.3468ZM106.031 46.7115C105.73 46.712 105.435 46.8029 105.185 46.973C104.935 47.143 104.74 47.3844 104.625 47.6667C104.51 47.9491 104.481 48.2596 104.54 48.5592C104.599 48.8587 104.744 49.1338 104.957 49.3496C105.17 49.5654 105.441 49.7124 105.737 49.7718C106.032 49.8312 106.338 49.8005 106.616 49.6835C106.894 49.5665 107.132 49.3685 107.299 49.1145C107.467 48.8605 107.556 48.5619 107.556 48.2564C107.555 47.8465 107.394 47.4535 107.108 47.1639C106.822 46.8742 106.435 46.7115 106.031 46.7115Z" fill="#1F3965"/>
<path d="M113.022 50.3468C112.614 50.3464 112.216 50.2234 111.877 49.9935C111.539 49.7635 111.275 49.4369 111.119 49.0549C110.964 48.6729 110.923 48.2526 111.003 47.8473C111.083 47.4419 111.279 47.0696 111.568 46.7775C111.856 46.4854 112.223 46.2865 112.623 46.206C113.022 46.1255 113.437 46.1671 113.813 46.3254C114.189 46.4836 114.511 46.7516 114.737 47.0953C114.964 47.439 115.085 47.8431 115.085 48.2564C115.084 48.811 114.866 49.3427 114.48 49.7347C114.093 50.1267 113.568 50.3468 113.022 50.3468ZM113.022 46.7115C112.721 46.712 112.426 46.8029 112.176 46.973C111.926 47.143 111.731 47.3844 111.616 47.6667C111.501 47.9491 111.471 48.2596 111.53 48.5592C111.589 48.8587 111.735 49.1338 111.948 49.3496C112.161 49.5654 112.432 49.7124 112.728 49.7718C113.023 49.8312 113.329 49.8005 113.607 49.6835C113.885 49.5665 114.123 49.3685 114.29 49.1145C114.458 48.8605 114.547 48.5619 114.547 48.2564C114.546 47.8465 114.385 47.4535 114.099 47.1639C113.813 46.8742 113.426 46.7115 113.022 46.7115Z" fill="#1F3965"/>
<path d="M90.4267 52.999V161.332C90.4278 162.684 90.9582 163.98 91.9012 164.936C92.8442 165.892 94.1228 166.429 95.4559 166.429H262.859C263.52 166.429 264.174 166.297 264.784 166.041C265.394 165.785 265.949 165.409 266.416 164.935C266.883 164.461 267.253 163.899 267.506 163.28C267.759 162.661 267.889 161.997 267.888 161.327V52.999H90.4267Z" fill="white"/>
<g clip-path="url(#clip1_3912_651302)">
<path d="M187.431 63.7275H107.519C104.206 63.7275 101.519 66.4138 101.519 69.7275V81.0574C101.519 84.3711 104.206 87.0574 107.519 87.0574H187.431C190.744 87.0574 193.431 84.3711 193.431 81.0574V69.7275C193.431 66.4138 190.744 63.7275 187.431 63.7275Z" fill="#F7F9FC"/>
<rect x="125.29" y="70.1631" width="61.8024" height="5.63134" rx="1" fill="#DBE2EA"/>
<rect x="140.83" y="79.0127" width="21.9299" height="1.60896" rx="0.5" fill="#A6B4CD"/>
<rect x="125.29" y="79.0127" width="13.9554" height="1.60896" rx="0.5" fill="#A6B4CD"/>
<rect x="107.858" y="70.1631" width="11.0927" height="11.2627" rx="5.54637" fill="#1F3965"/>
<path d="M188.223 93.4932H108.312C104.998 93.4932 102.312 96.1795 102.312 99.4932V110.823C102.312 114.137 104.998 116.823 108.312 116.823H188.223C191.537 116.823 194.223 114.137 194.223 110.823V99.4932C194.223 96.1795 191.537 93.4932 188.223 93.4932Z" fill="#F7F9FC"/>
<rect x="126.082" y="99.9287" width="61.8024" height="5.63134" rx="1" fill="#DBE2EA"/>
<rect x="141.622" y="108.778" width="21.9299" height="1.60896" rx="0.5" fill="#A6B4CD"/>
<rect x="126.082" y="108.778" width="13.9554" height="1.60896" rx="0.5" fill="#A6B4CD"/>
<rect x="108.65" y="99.9287" width="11.0927" height="11.2627" rx="5.54637" fill="#1F3965"/>
<path d="M188.223 123.259H108.312C104.998 123.259 102.312 125.945 102.312 129.259V140.589C102.312 143.902 104.998 146.589 108.312 146.589H188.223C191.537 146.589 194.223 143.902 194.223 140.589V129.259C194.223 125.945 191.537 123.259 188.223 123.259Z" fill="#F7F9FC"/>
<rect x="126.082" y="129.694" width="61.8024" height="5.63134" rx="1" fill="#DBE2EA"/>
<rect x="141.622" y="138.544" width="21.9299" height="1.60896" rx="0.5" fill="#A6B4CD"/>
<rect x="126.082" y="138.544" width="13.9554" height="1.60896" rx="0.5" fill="#A6B4CD"/>
<rect x="108.65" y="129.694" width="11.0927" height="11.2627" rx="5.54637" fill="#1F3965"/>
<path d="M188.223 153.024H108.312C104.998 153.024 102.312 155.711 102.312 159.024V170.354C102.312 173.668 104.998 176.354 108.312 176.354H188.223C191.537 176.354 194.223 173.668 194.223 170.354V159.024C194.223 155.711 191.537 153.024 188.223 153.024Z" fill="#F7F9FC"/>
<rect x="126.082" y="159.46" width="61.8024" height="5.63134" rx="1" fill="#DBE2EA"/>
<rect x="108.65" y="159.46" width="11.0927" height="11.2627" rx="5.54637" fill="#1F3965"/>
<rect x="200.812" y="63.9775" width="67.6411" height="68.6851" rx="3.75" fill="#EFF9FF" stroke="#1DA1F2" stroke-width="0.5"/>
<rect x="206.9" y="116.823" width="37.8789" height="1.60896" rx="0.5" fill="#A6B4CD"/>
<rect x="206.9" y="113.605" width="21.9299" height="1.60896" rx="0.5" fill="white"/>
<rect x="206.9" y="108.778" width="37.8789" height="1.60896" rx="0.5" fill="#6B82AB"/>
<rect x="206.9" y="105.561" width="21.9299" height="1.60896" rx="0.5" fill="white"/>
<rect x="206.9" y="124.868" width="37.8789" height="1.60896" rx="0.5" fill="#DBE2EA"/>
<rect x="206.9" y="121.65" width="21.9299" height="1.60896" rx="0.5" fill="white"/>
<path d="M207.962 79.8094C207.233 81.6751 206.873 83.6683 206.902 85.6754C206.932 87.6824 207.35 89.6639 208.134 91.5068C208.917 93.3496 210.051 95.0177 211.469 96.4158C212.888 97.8139 214.564 98.9146 216.401 99.6551C218.239 100.396 220.202 100.761 222.179 100.732C224.155 100.702 226.107 100.277 227.922 99.4812C229.737 98.6856 231.38 97.5348 232.757 96.0945C234.134 94.6542 235.218 92.9526 235.947 91.0869L233.149 89.9592C232.566 91.4517 231.698 92.813 230.597 93.9652C229.495 95.1174 228.181 96.0381 226.729 96.6746C225.277 97.3111 223.715 97.651 222.134 97.6749C220.553 97.6987 218.982 97.4061 217.512 96.8137C216.042 96.2213 214.701 95.3408 213.566 94.2223C212.432 93.1038 211.525 91.7693 210.898 90.2951C210.271 88.8208 209.936 87.2356 209.913 85.6299C209.889 84.0243 210.177 82.4297 210.761 80.9371L207.962 79.8094Z" fill="#6B82AB"/>
<path d="M208.379 78.842C209.623 76.2066 211.585 73.9885 214.033 72.4506C216.48 70.9128 219.311 70.1195 222.189 70.1649L222.142 73.2216C219.84 73.1852 217.575 73.8198 215.617 75.0501C213.659 76.2805 212.089 78.0549 211.094 80.1633L208.379 78.842Z" fill="#DBE2EA"/>
<path d="M223.009 70.2006C225.294 70.3635 227.513 71.0538 229.496 72.2189C231.479 73.3841 233.173 74.9933 234.451 76.9241C235.729 78.8548 236.555 81.0562 236.868 83.3604C237.181 85.6647 236.972 88.011 236.257 90.2208L233.396 89.2663C233.969 87.4985 234.136 85.6214 233.886 83.778C233.635 81.9346 232.974 80.1735 231.952 78.6289C230.93 77.0843 229.574 75.7969 227.988 74.8648C226.401 73.9327 224.627 73.3804 222.798 73.2501L223.009 70.2006Z" fill="#A6B4CD"/>
<rect x="200.562" y="136.13" width="71.3105" height="26.5478" rx="4" fill="#F7F9FC"/>
<rect x="205.316" y="140.957" width="4.75403" height="4.82687" rx="2.37702" fill="#1F3965"/>
<rect x="212.447" y="140.957" width="48.3327" height="3.21791" fill="#DBE2EA"/>
<rect x="212.447" y="149.002" width="48.3327" height="3.21791" fill="#DBE2EA"/>
<rect x="212.447" y="153.829" width="25.3548" height="3.21791" fill="#DBE2EA"/>
</g>
<defs>
<clipPath id="clip0_3912_651302">
<rect width="385.394" height="227.667" fill="white" transform="translate(0.533234 0.172852)"/>
</clipPath>
<clipPath id="clip1_3912_651302">
<rect width="167.976" height="105.387" fill="white" transform="translate(95.1807 56.2168)"/>
</clipPath>
</defs>
</svg>
