<svg width="24" height="24" viewBox="0 0 24 24" fill="none" xmlns="http://www.w3.org/2000/svg">
<mask id="path-1-inside-1" fill="white">
<path d="M19.2534 13.9561C19.13 13.9565 19.0086 13.9258 18.9002 13.8668C18.7919 13.8078 18.7001 13.7225 18.6335 13.6186L18.2301 13.0134C18.0542 13.0244 17.8778 13.0244 17.7019 13.0134L17.2874 13.626C17.1917 13.7655 17.0506 13.8677 16.8882 13.9152C16.7258 13.9626 16.5519 13.9525 16.3961 13.8864L15.5965 13.5489C15.4406 13.4822 15.3126 13.3635 15.2344 13.213C15.1561 13.0626 15.1324 12.8896 15.1673 12.7237L15.3177 11.9901C15.1868 11.8768 15.0642 11.7542 14.9509 11.6233L14.2173 11.759C14.0517 11.7904 13.8803 11.7637 13.732 11.6836C13.5837 11.6034 13.4676 11.4746 13.4031 11.3188L13.0766 10.5119C13.013 10.3533 13.0068 10.1774 13.059 10.0147C13.1113 9.85196 13.2187 9.71258 13.3627 9.6206L13.9679 9.20613C13.9569 9.03024 13.9569 8.85383 13.9679 8.67795L13.3664 8.26347C13.2268 8.16774 13.1247 8.02671 13.0772 7.86427C13.0297 7.70183 13.0399 7.52797 13.106 7.37217L13.4434 6.57256C13.5102 6.41666 13.6289 6.2887 13.7793 6.21046C13.9298 6.13221 14.1027 6.10852 14.2687 6.14341L15.0023 6.2938C15.1156 6.16288 15.2382 6.04029 15.3691 5.927L15.2334 5.19342C15.202 5.02778 15.2286 4.8564 15.3088 4.7081C15.389 4.5598 15.5178 4.44363 15.6735 4.37914L16.4805 4.0527C16.6391 3.98909 16.8149 3.98287 16.9777 4.0351C17.1404 4.08734 17.2798 4.19475 17.3718 4.33879L17.7752 4.944C17.9511 4.933 18.1275 4.933 18.3034 4.944L18.7362 4.34246C18.832 4.20291 18.973 4.10074 19.1354 4.05328C19.2979 4.00582 19.4717 4.01598 19.6275 4.08204L20.4271 4.41949C20.583 4.48624 20.711 4.60495 20.7892 4.75541C20.8675 4.90588 20.8912 5.07881 20.8563 5.24477L20.7059 5.97835C20.8368 6.09164 20.9594 6.21423 21.0727 6.34515L21.8063 6.20943C21.9719 6.17807 22.1433 6.20471 22.2916 6.28487C22.4399 6.36503 22.5561 6.49383 22.6206 6.64958L22.947 7.45653C23.0106 7.61516 23.0168 7.79102 22.9646 7.95374C22.9124 8.11647 22.8049 8.25586 22.6609 8.34783L22.0374 8.7513C22.0484 8.92719 22.0484 9.1036 22.0374 9.27948L22.6389 9.7123C22.7784 9.80803 22.8806 9.94906 22.9281 10.1115C22.9755 10.2739 22.9654 10.4478 22.8993 10.6036L22.5619 11.4032C22.4951 11.5591 22.3764 11.6871 22.2259 11.7653C22.0755 11.8436 21.9026 11.8672 21.7366 11.8324L21.003 11.682C20.8897 11.8129 20.7671 11.9355 20.6362 12.0488L20.7719 12.7824C20.8033 12.948 20.7766 13.1194 20.6965 13.2677C20.6163 13.416 20.4875 13.5321 20.3318 13.5966L19.5248 13.9231C19.437 13.9498 19.3451 13.961 19.2534 13.9561V13.9561ZM18.4171 12.2542C18.4775 12.2545 18.5369 12.2697 18.59 12.2985C18.6432 12.3273 18.6883 12.3688 18.7216 12.4192L19.2497 13.2225L20.053 12.8997L19.8733 11.9534C19.8594 11.8853 19.8651 11.8147 19.8898 11.7498C19.9145 11.6849 19.9571 11.6283 20.0127 11.5866C20.2215 11.428 20.4089 11.2431 20.5702 11.0364C20.6123 10.9815 20.6691 10.9396 20.734 10.9156C20.7989 10.8916 20.8693 10.8864 20.937 10.9007L21.876 11.0988L22.2134 10.2992L21.4175 9.75998C21.3592 9.72014 21.3137 9.66435 21.2864 9.59929C21.2591 9.53423 21.2511 9.46267 21.2634 9.39319C21.2983 9.12903 21.2983 8.86142 21.2634 8.59725C21.2519 8.52705 21.2609 8.45499 21.2896 8.38987C21.3183 8.32474 21.3652 8.26936 21.4248 8.23046L22.2281 7.70228L21.9053 6.899L20.959 7.07873C20.8909 7.09261 20.8203 7.08689 20.7554 7.06221C20.6905 7.03754 20.6339 6.99493 20.5922 6.93935C20.4366 6.74275 20.258 6.56544 20.0603 6.41117C20.0054 6.36906 19.9635 6.31227 19.9395 6.24737C19.9155 6.18247 19.9103 6.11209 19.9246 6.04438L20.1227 5.10539L19.3231 4.75694L18.7839 5.54921C18.7445 5.60812 18.6889 5.65436 18.6239 5.68235C18.5588 5.71034 18.487 5.71887 18.4171 5.70693C18.1528 5.67386 17.8855 5.67386 17.6212 5.70693C17.551 5.7185 17.4789 5.70941 17.4138 5.68075C17.3487 5.6521 17.2933 5.60512 17.2544 5.54554L16.7555 4.73493L15.9523 5.05771L16.132 6.00403C16.1459 6.07209 16.1402 6.1427 16.1155 6.20763C16.0908 6.27256 16.0482 6.32916 15.9926 6.37082C15.7838 6.52938 15.5964 6.71432 15.4351 6.92101C15.393 6.97593 15.3362 7.01782 15.2713 7.04183C15.2064 7.06585 15.136 7.07101 15.0683 7.05672L14.1293 6.85866L13.7809 7.65826L13.4434 7.51155L13.7809 7.6546C14.7602 8.31849 14.7969 8.34416 14.7272 8.57524C14.696 8.83105 14.696 9.0897 14.7272 9.34551C14.7351 9.41283 14.7242 9.48103 14.6957 9.54254C14.6672 9.60405 14.6223 9.65646 14.5658 9.69396L13.7589 10.2258L14.0816 11.0291L15.028 10.8494C15.096 10.8355 15.1666 10.8412 15.2316 10.8659C15.2965 10.8906 15.3531 10.9332 15.3947 10.9887C15.5542 11.1967 15.7391 11.384 15.9449 11.5463C15.9999 11.5884 16.0417 11.6452 16.0658 11.7101C16.0898 11.775 16.0949 11.8453 16.0806 11.9131L15.8826 12.852L16.6822 13.1895L17.2214 12.3972C17.2607 12.3383 17.3163 12.2921 17.3814 12.2641C17.4465 12.2361 17.5183 12.2276 17.5882 12.2395C17.8523 12.2744 18.1199 12.2744 18.3841 12.2395L18.4171 12.2542Z"/>
</mask>
<path d="M19.2534 13.9561C19.13 13.9565 19.0086 13.9258 18.9002 13.8668C18.7919 13.8078 18.7001 13.7225 18.6335 13.6186L18.2301 13.0134C18.0542 13.0244 17.8778 13.0244 17.7019 13.0134L17.2874 13.626C17.1917 13.7655 17.0506 13.8677 16.8882 13.9152C16.7258 13.9626 16.5519 13.9525 16.3961 13.8864L15.5965 13.5489C15.4406 13.4822 15.3126 13.3635 15.2344 13.213C15.1561 13.0626 15.1324 12.8896 15.1673 12.7237L15.3177 11.9901C15.1868 11.8768 15.0642 11.7542 14.9509 11.6233L14.2173 11.759C14.0517 11.7904 13.8803 11.7637 13.732 11.6836C13.5837 11.6034 13.4676 11.4746 13.4031 11.3188L13.0766 10.5119C13.013 10.3533 13.0068 10.1774 13.059 10.0147C13.1113 9.85196 13.2187 9.71258 13.3627 9.6206L13.9679 9.20613C13.9569 9.03024 13.9569 8.85383 13.9679 8.67795L13.3664 8.26347C13.2268 8.16774 13.1247 8.02671 13.0772 7.86427C13.0297 7.70183 13.0399 7.52797 13.106 7.37217L13.4434 6.57256C13.5102 6.41666 13.6289 6.2887 13.7793 6.21046C13.9298 6.13221 14.1027 6.10852 14.2687 6.14341L15.0023 6.2938C15.1156 6.16288 15.2382 6.04029 15.3691 5.927L15.2334 5.19342C15.202 5.02778 15.2286 4.8564 15.3088 4.7081C15.389 4.5598 15.5178 4.44363 15.6735 4.37914L16.4805 4.0527C16.6391 3.98909 16.8149 3.98287 16.9777 4.0351C17.1404 4.08734 17.2798 4.19475 17.3718 4.33879L17.7752 4.944C17.9511 4.933 18.1275 4.933 18.3034 4.944L18.7362 4.34246C18.832 4.20291 18.973 4.10074 19.1354 4.05328C19.2979 4.00582 19.4717 4.01598 19.6275 4.08204L20.4271 4.41949C20.583 4.48624 20.711 4.60495 20.7892 4.75541C20.8675 4.90588 20.8912 5.07881 20.8563 5.24477L20.7059 5.97835C20.8368 6.09164 20.9594 6.21423 21.0727 6.34515L21.8063 6.20943C21.9719 6.17807 22.1433 6.20471 22.2916 6.28487C22.4399 6.36503 22.5561 6.49383 22.6206 6.64958L22.947 7.45653C23.0106 7.61516 23.0168 7.79102 22.9646 7.95374C22.9124 8.11647 22.8049 8.25586 22.6609 8.34783L22.0374 8.7513C22.0484 8.92719 22.0484 9.1036 22.0374 9.27948L22.6389 9.7123C22.7784 9.80803 22.8806 9.94906 22.9281 10.1115C22.9755 10.2739 22.9654 10.4478 22.8993 10.6036L22.5619 11.4032C22.4951 11.5591 22.3764 11.6871 22.2259 11.7653C22.0755 11.8436 21.9026 11.8672 21.7366 11.8324L21.003 11.682C20.8897 11.8129 20.7671 11.9355 20.6362 12.0488L20.7719 12.7824C20.8033 12.948 20.7766 13.1194 20.6965 13.2677C20.6163 13.416 20.4875 13.5321 20.3318 13.5966L19.5248 13.9231C19.437 13.9498 19.3451 13.961 19.2534 13.9561V13.9561ZM18.4171 12.2542C18.4775 12.2545 18.5369 12.2697 18.59 12.2985C18.6432 12.3273 18.6883 12.3688 18.7216 12.4192L19.2497 13.2225L20.053 12.8997L19.8733 11.9534C19.8594 11.8853 19.8651 11.8147 19.8898 11.7498C19.9145 11.6849 19.9571 11.6283 20.0127 11.5866C20.2215 11.428 20.4089 11.2431 20.5702 11.0364C20.6123 10.9815 20.6691 10.9396 20.734 10.9156C20.7989 10.8916 20.8693 10.8864 20.937 10.9007L21.876 11.0988L22.2134 10.2992L21.4175 9.75998C21.3592 9.72014 21.3137 9.66435 21.2864 9.59929C21.2591 9.53423 21.2511 9.46267 21.2634 9.39319C21.2983 9.12903 21.2983 8.86142 21.2634 8.59725C21.2519 8.52705 21.2609 8.45499 21.2896 8.38987C21.3183 8.32474 21.3652 8.26936 21.4248 8.23046L22.2281 7.70228L21.9053 6.899L20.959 7.07873C20.8909 7.09261 20.8203 7.08689 20.7554 7.06221C20.6905 7.03754 20.6339 6.99493 20.5922 6.93935C20.4366 6.74275 20.258 6.56544 20.0603 6.41117C20.0054 6.36906 19.9635 6.31227 19.9395 6.24737C19.9155 6.18247 19.9103 6.11209 19.9246 6.04438L20.1227 5.10539L19.3231 4.75694L18.7839 5.54921C18.7445 5.60812 18.6889 5.65436 18.6239 5.68235C18.5588 5.71034 18.487 5.71887 18.4171 5.70693C18.1528 5.67386 17.8855 5.67386 17.6212 5.70693C17.551 5.7185 17.4789 5.70941 17.4138 5.68075C17.3487 5.6521 17.2933 5.60512 17.2544 5.54554L16.7555 4.73493L15.9523 5.05771L16.132 6.00403C16.1459 6.07209 16.1402 6.1427 16.1155 6.20763C16.0908 6.27256 16.0482 6.32916 15.9926 6.37082C15.7838 6.52938 15.5964 6.71432 15.4351 6.92101C15.393 6.97593 15.3362 7.01782 15.2713 7.04183C15.2064 7.06585 15.136 7.07101 15.0683 7.05672L14.1293 6.85866L13.7809 7.65826L13.4434 7.51155L13.7809 7.6546C14.7602 8.31849 14.7969 8.34416 14.7272 8.57524C14.696 8.83105 14.696 9.0897 14.7272 9.34551C14.7351 9.41283 14.7242 9.48103 14.6957 9.54254C14.6672 9.60405 14.6223 9.65646 14.5658 9.69396L13.7589 10.2258L14.0816 11.0291L15.028 10.8494C15.096 10.8355 15.1666 10.8412 15.2316 10.8659C15.2965 10.8906 15.3531 10.9332 15.3947 10.9887C15.5542 11.1967 15.7391 11.384 15.9449 11.5463C15.9999 11.5884 16.0417 11.6452 16.0658 11.7101C16.0898 11.775 16.0949 11.8453 16.0806 11.9131L15.8826 12.852L16.6822 13.1895L17.2214 12.3972C17.2607 12.3383 17.3163 12.2921 17.3814 12.2641C17.4465 12.2361 17.5183 12.2276 17.5882 12.2395C17.8523 12.2744 18.1199 12.2744 18.3841 12.2395L18.4171 12.2542Z" fill="white" stroke="#1F3965" stroke-width="2" mask="url(#path-1-inside-1)"/>
<path d="M18.0035 7.27797L18.0047 7.01153C18.0042 7.01153 18.0037 7.01153 18.0032 7.01153C18.0026 7.01153 18.0021 7.01153 18.0016 7.01153L18.0021 7.27798C17.7034 7.27945 17.4081 7.3596 17.1472 7.51331C17.0462 7.5728 16.9524 7.64212 16.8668 7.71987C16.6445 7.92186 16.478 8.18066 16.3871 8.47132C16.3531 8.58026 16.3303 8.69157 16.3187 8.80359C16.2875 9.10545 16.3374 9.41239 16.4663 9.69166C16.5128 9.79227 16.5686 9.8874 16.6327 9.97598C16.8126 10.2245 17.0578 10.4215 17.3438 10.5434L17.3467 10.5446L18.0035 7.27797ZM18.0019 10.9458C18.0024 10.9458 18.0028 10.9458 18.0033 10.9458L18.0025 11.1795L18.0019 10.9458Z" fill="white" stroke="#1F3965"/>
<path d="M8.40714 13.1352C10.192 13.1352 11.6389 11.6325 11.6389 9.77883C11.6389 7.92517 10.192 6.42249 8.40714 6.42249C6.62231 6.42249 5.17542 7.92517 5.17542 9.77883C5.17542 11.6325 6.62231 13.1352 8.40714 13.1352Z" stroke="#1F3965"/>
<path fill-rule="evenodd" clip-rule="evenodd" d="M6.11934 14.5153C7.31965 14.5268 9.35943 14.5736 10.695 14.5153C12.3336 14.5153 13.4633 15.8831 13.6745 17.5241L13.8097 18.5736C13.8239 18.6836 13.8146 18.7954 13.7826 18.9016C13.7505 19.0077 13.6964 19.1058 13.6238 19.1891C13.5513 19.2725 13.462 19.3393 13.3618 19.385C13.2617 19.4307 13.1531 19.4543 13.0432 19.4543H3.77494C3.66485 19.4546 3.55595 19.4313 3.45554 19.3857C3.35513 19.3401 3.26553 19.2734 3.19273 19.19C3.11993 19.1066 3.06563 19.0085 3.03344 18.9021C3.00126 18.7958 2.99195 18.6838 3.00613 18.5736L3.1406 17.5271C3.35103 15.8831 4.48145 14.5153 6.11934 14.5153Z" stroke="#1F3965"/>
</svg>
