<svg width="24" height="24" viewBox="0 0 24 24" fill="none" xmlns="http://www.w3.org/2000/svg">
<path d="M14.2692 5H14.1061L9.1437 7.75871H5.55692C3.59563 7.75871 2 9.37444 2 11.3604C2 13.1368 3.27739 14.6129 4.94988 14.9062L3.79995 19H7.76743L8.90148 14.9628H9.1437L14.1063 17.7211H14.2694C15.32 17.7211 16.175 16.8556 16.175 15.7915V6.92961C16.1748 5.86575 15.3198 5 14.2692 5ZM6.80806 17.7134H5.48218L6.17942 15.231H7.5053L6.80806 17.7134ZM5.55692 13.6762C4.29605 13.6762 3.27041 12.6372 3.27041 11.3604C3.27041 10.0837 4.29605 9.04512 5.55692 9.04512H9.46956L11.1382 8.1174V14.6037L9.46956 13.6762H5.55692V13.6762ZM14.9044 15.7915C14.9044 16.0989 14.6901 16.3564 14.4053 16.4197L12.4086 15.3099V7.41137L14.4053 6.30142C14.6903 6.36467 14.9044 6.62238 14.9044 6.92983V15.7915V15.7915Z" fill="#1F3965"/>
<path d="M18.6127 8.58496L17.7041 9.50496C18.1735 10.1634 18.4535 10.9691 18.4535 11.8413C18.4535 12.7137 18.1735 13.5194 17.7041 14.1776L18.6127 15.0976C19.3078 14.1991 19.7239 13.0687 19.7239 11.8413C19.7239 10.6138 19.3078 9.48352 18.6127 8.58496Z" fill="#1F3965"/>
<path d="M20.2297 6.94727L19.3286 7.85976C20.2037 8.94656 20.7296 10.3327 20.7296 11.841C20.7296 13.3495 20.2037 14.7354 19.3286 15.8222L20.2297 16.7347C21.333 15.4118 22 13.7041 22 11.841C22 9.97783 21.333 8.27012 20.2297 6.94727Z" fill="#1F3965"/>
</svg>
