<svg width="24" height="24" viewBox="0 0 24 24" fill="none" xmlns="http://www.w3.org/2000/svg">
<mask id="mask0" mask-type="alpha" maskUnits="userSpaceOnUse" x="8" y="7" width="14" height="9">
<path d="M14.2133 9.85584L19.937 7.94793C19.994 7.92891 20.0549 7.96421 20.0666 8.02319L20.6876 11.1278C20.6932 11.1557 20.6866 11.1847 20.6695 11.2075L18.7509 13.7657C18.7441 13.7747 18.7358 13.7826 18.7263 13.7889L16.8193 15.0602C16.7972 15.0749 16.7702 15.0803 16.7442 15.0751L13.5253 14.4313L11.5695 13.7794L9.04782 13.1489C8.99875 13.1367 8.96657 13.0897 8.97285 13.0395L9.59729 8.04397C9.60554 7.97795 9.67476 7.93825 9.73591 7.96445L14.1422 9.85288C14.1648 9.86253 14.19 9.86358 14.2133 9.85584Z" fill="#1DA1F2" stroke="black"/>
</mask>
<g mask="url(#mask0)">
<path d="M14.4949 13.177C12.8369 13.177 11.4928 11.7947 11.4928 10.0895C11.4928 8.38428 12.8369 7.00195 14.4949 7.00195C15.4126 7.00195 16.2342 7.42546 16.7849 8.09281C17.2291 8.63113 17.497 9.32812 17.497 10.0895C17.497 11.7947 16.1529 13.177 14.4949 13.177Z" stroke="#1F3965"/>
</g>
<path d="M14.5252 4.0098L21.7143 6.31577C21.8058 6.34513 21.8073 6.47408 21.7164 6.5055L14.5274 8.99223C14.5062 8.99956 14.4832 8.99956 14.462 8.99223L7.27295 6.5055C7.18212 6.47408 7.18358 6.34513 7.27509 6.31577L14.4642 4.0098C14.484 4.00343 14.5054 4.00343 14.5252 4.0098Z" stroke="#1F3965"/>
<path d="M11.9555 14.8537C13.4382 14.9103 15.7028 14.8649 17.0354 14.8537C18.8538 14.8537 20.1088 16.1809 20.3424 17.776L20.4917 18.7912C20.5074 18.8982 20.4971 19.0069 20.4613 19.11C20.4256 19.2132 20.3653 19.3084 20.2845 19.3893C20.2037 19.4702 20.1042 19.535 19.9927 19.5792C19.8812 19.6234 19.7604 19.6461 19.6381 19.6457H9.34847C9.22647 19.6458 9.10585 19.6229 8.99468 19.5785C8.88351 19.5341 8.78435 19.4694 8.7038 19.3885C8.62326 19.3076 8.56319 19.2125 8.52761 19.1095C8.49203 19.0065 8.48175 18.898 8.49747 18.7912V18.3418C4.9969 15.7341 3.00226 12.0399 2.44251 10.5188C1.39944 8.95419 2.44251 8.12849 3.09442 7.91122C4.65902 7.38968 5.48478 8.56313 5.70209 9.21505C6.35401 11.8227 7.65784 13.7785 8.52761 14.4304C9.22342 14.9519 11.1028 14.9299 11.9555 14.8537Z" stroke="#1F3965" stroke-linejoin="round"/>
</svg>
