<svg width="20" height="20" viewBox="0 0 20 20" fill="none" xmlns="http://www.w3.org/2000/svg">
<path d="M16.9145 2H3.41197C3.02591 2.01623 2.66167 2.18342 2.39766 2.46557C2.13366 2.74771 1.99102 3.12225 2.00044 3.50853V4.25092C2.00278 4.57274 2.11256 4.88456 2.31233 5.13687C2.5121 5.38919 2.79043 5.56755 3.10313 5.64364V13.8376C3.08354 14.2583 3.23041 14.6697 3.51194 14.9829C3.64669 15.1332 3.81145 15.2535 3.99558 15.3362C4.17971 15.4189 4.37914 15.4621 4.58098 15.463H9.21448L6.69926 17.8307C6.61493 17.9203 6.56438 18.0365 6.55625 18.1593C6.54812 18.282 6.58293 18.4038 6.65472 18.5038C6.69033 18.5501 6.73532 18.5885 6.78674 18.6163C6.83817 18.644 6.89487 18.6607 6.95316 18.6651C7.01145 18.6695 7.07 18.6615 7.12501 18.6417C7.18002 18.622 7.23024 18.5908 7.27239 18.5503L10.1637 15.8579L13.0343 18.5503C13.0708 18.5895 13.1154 18.6201 13.165 18.6401C13.2146 18.6602 13.268 18.669 13.3214 18.6661C13.3833 18.6681 13.4449 18.6566 13.502 18.6325C13.559 18.6084 13.6102 18.5723 13.652 18.5266C13.7293 18.4251 13.7673 18.2991 13.7591 18.1718C13.7509 18.0445 13.6971 17.9244 13.6074 17.8337L11.0902 15.462H15.7237C15.9274 15.4645 16.1293 15.4237 16.3162 15.3425C16.503 15.2613 16.6705 15.1414 16.8076 14.9908C16.9494 14.8354 17.0592 14.6536 17.1307 14.4557C17.2022 14.2578 17.234 14.0478 17.2244 13.8376V5.64364C17.5371 5.56755 17.8154 5.38919 18.0152 5.13687C18.2149 4.88456 18.3247 4.57274 18.3271 4.25092V3.50853C18.3365 3.12209 18.1937 2.74741 17.9295 2.46523C17.6653 2.18306 17.3008 2.01598 16.9145 2V2ZM15.7267 14.5345H4.58197C4.4969 14.5345 4.41286 14.5159 4.33574 14.48C4.25862 14.4441 4.19029 14.3917 4.13555 14.3266C4.07879 14.2595 4.03627 14.1815 4.01057 14.0975C3.98488 14.0134 3.97655 13.925 3.98608 13.8376V5.71392H16.3414V13.8376C16.3478 13.9261 16.3366 14.015 16.3084 14.0991C16.2802 14.1832 16.2356 14.2609 16.1771 14.3276C16.1206 14.3924 16.0509 14.4443 15.9728 14.48C15.8946 14.5157 15.8097 14.5343 15.7237 14.5345H15.7267ZM17.4421 4.25191C17.4399 4.38836 17.3865 4.51898 17.2924 4.61783C17.1983 4.71668 17.0705 4.77651 16.9343 4.78544H3.38623C3.25006 4.77651 3.12224 4.71668 3.02816 4.61783C2.93408 4.51898 2.88063 4.38836 2.87844 4.25191V3.46003C2.88063 3.32359 2.93408 3.19296 3.02816 3.09411C3.12224 2.99527 3.25006 2.93543 3.38623 2.9265H16.9363C17.0725 2.93543 17.2003 2.99527 17.2944 3.09411C17.3885 3.19296 17.4419 3.32359 17.4441 3.46003L17.4421 4.25191Z" fill="#1DA1F2"/>
<path d="M12.5987 9.78905C12.6481 9.81368 12.6897 9.8516 12.7187 9.89855C12.7478 9.9455 12.7632 9.99962 12.7632 10.0548C12.7632 10.11 12.7478 10.1642 12.7187 10.2111C12.6897 10.2581 12.6481 10.296 12.5987 10.3206L9.3688 11.937C9.32356 11.9596 9.2733 11.9703 9.22278 11.968C9.17227 11.9657 9.12317 11.9506 9.08014 11.924C9.03711 11.8974 9.00159 11.8603 8.97692 11.8162C8.95226 11.772 8.93928 11.7223 8.93921 11.6718V8.43791C8.93928 8.38734 8.95226 8.33763 8.97692 8.29348C9.00159 8.24933 9.03711 8.21222 9.08014 8.18565C9.12317 8.15908 9.17227 8.14394 9.22278 8.14166C9.2733 8.13938 9.32356 8.15004 9.3688 8.17263L12.5987 9.78905Z" fill="#1DA1F2"/>
</svg>
