<svg width="24" height="24" viewBox="0 0 24 24" fill="none" xmlns="http://www.w3.org/2000/svg">
<path d="M20.4375 3.82597C16.5456 3.82597 12.5123 0.218426 12.4724 0.182285C12.2043 -0.0607617 11.7957 -0.0607617 11.5276 0.182285C11.4875 0.218707 7.46475 3.82597 3.5625 3.82597C3.17419 3.82597 2.85938 4.14078 2.85938 4.5291V12.9496C2.85938 19.7711 7.93294 22.4968 11.7492 23.9538C11.83 23.9846 11.915 24 12 24C12.085 24 12.17 23.9846 12.2508 23.9538C17.6018 21.911 21.1406 18.7244 21.1406 12.9496V4.5291C21.1406 4.14078 20.8258 3.82597 20.4375 3.82597V3.82597Z" fill="#00B59C"/>
<g clip-path="url(#clip0)">
<path d="M15.1717 11.1428C14.8717 9.6857 13.586 8.57141 12.0003 8.57141C10.7574 8.57141 9.68599 9.25713 9.17171 10.2857C7.84314 10.4571 6.85742 11.5286 6.85742 12.8571C6.85742 14.2714 8.01456 15.4286 9.42885 15.4286H15.0003C16.2003 15.4286 17.1431 14.4857 17.1431 13.2857C17.1431 12.1714 16.2431 11.2286 15.1717 11.1428ZM12.8574 12.4286V14.1428H11.1431V12.4286H9.85742L12.0003 10.2857L14.1431 12.4286H12.8574Z" fill="#EFFFF8"/>
</g>
<defs>
<clipPath id="clip0">
<rect width="10.2857" height="10.2857" fill="white" transform="translate(6.85742 6.85712)"/>
</clipPath>
</defs>
</svg>