<svg xmlns="http://www.w3.org/2000/svg" width="24" height="24" fill="none" xmlns:v="https://vecta.io/nano"><mask id="A" maskUnits="userSpaceOnUse" x="2" y="1" width="20" height="22" fill="#000"><path fill="#fff" d="M2 1h20v22H2z"/><path fill-rule="evenodd" d="M3.458 12.466v1.683.149 1.235c.002.79.688 1.441 1.55 1.448a.28.28 0 0 1 .034.002h.072 0l.318-.005a1.58 1.58 0 0 0 1.142-.605c.191-.254.283-.542.283-.849v-1.284l.002-.997h0l-.002-1.994a1.41 1.41 0 0 0-.588-1.12c-.173-.126-.376-.216-.59-.267-.179-.042-.358-.042-.54-.042h-.025c-.426 0-.825.101-1.147.372s-.506.653-.508 1.057v.007 1.21zm.078-3.242c-.043.28-.062.561-.071.841.247-.273.581-.479.948-.587.221-.065.449-.084.679-.084.212 0 .422.002.631.042.941.181 1.589.977 1.589 1.847v1.393 2.046.67c0 .212-.007.42-.066.626-.137.485-.497.91-.973 1.151a2.15 2.15 0 0 1-.793.223c-.121.011-.242.01-.363.009h0l-.109-.001c-.28-.002-.549-.057-.807-.162a1.95 1.95 0 0 1-1.074-1.05c-.099-.239-.125-.491-.125-.744-.001-.01-.002-.02-.002-.031v-.261-1.666-2.067-1.12a7.66 7.66 0 0 1 .488-2.698 8.29 8.29 0 0 1 1.541-2.54 8.88 8.88 0 0 1 2.337-1.872c.9-.502 1.901-.861 2.936-1.042 1.076-.189 2.177-.195 3.255-.023 1.044.168 2.056.515 2.97 1.008a8.81 8.81 0 0 1 2.366 1.851c.677.746 1.208 1.593 1.571 2.507A7.7 7.7 0 0 1 21 10.301v.885 1.927 2.065 1.33c0 .679-.134 1.332-.465 1.944-.477.88-1.302 1.576-2.284 1.952-.495.189-1.03.292-1.568.303l-.435.001h0 0l-.217-.001h-1.521c-.078.469-.39.895-.854 1.12-.349.166-.709.174-1.09.174H11.56c-.39 0-.764-.04-1.097-.246-.508-.313-.805-.87-.73-1.435.064-.479.374-.914.834-1.147.317-.162.65-.189 1.001-.189h1.014c.353 0 .686.008 1.017.151a1.53 1.53 0 0 1 .907 1.151h.358.572 1.146c.992-.004 1.96-.353 2.688-.977s1.199-1.5 1.263-2.422l.009-.165a1.98 1.98 0 0 1-.584.449 2.15 2.15 0 0 1-.793.223c-.121.011-.242.01-.363.009h0l-.109-.001c-.28-.002-.549-.057-.807-.162a1.95 1.95 0 0 1-1.074-1.05c-.1-.242-.125-.496-.125-.752v-1.574-1.994l-.001-.163c-.003-.439-.007-.869.21-1.28.237-.452.686-.796 1.201-.948.221-.065.449-.084.679-.084.212 0 .422.002.632.042a1.99 1.99 0 0 1 1.126.64 7.05 7.05 0 0 0-.093-.993 7.52 7.52 0 0 0-1.008-2.654c-.497-.807-1.144-1.525-1.908-2.128a8.72 8.72 0 0 0-2.571-1.393 9.24 9.24 0 0 0-3.02-.487 9.14 9.14 0 0 0-3.048.542c-.928.334-1.792.828-2.537 1.437S4.972 5.74 4.493 6.549a7.45 7.45 0 0 0-.957 2.675zM14.07 20.492c-.007-.515-.401-.958-.951-1.069-.187-.037-.393-.031-.592-.025l-.212.004h-.866c-.301 0-.586.059-.825.237-.319.238-.49.62-.435.998.066.458.456.826.939.92.167.033.348.028.523.024l.175-.003h.894c.278 0 .536-.021.782-.158.353-.198.565-.551.57-.929zm6.474-8.402v-.826-.014a1.41 1.41 0 0 0-.588-1.12c-.173-.126-.376-.216-.59-.267-.179-.042-.358-.042-.54-.042H18.8c-.426 0-.825.101-1.147.372s-.506.653-.508 1.057l-.002 2.032h0l.002 1.017v1.235c.002.79.689 1.441 1.55 1.448a.28.28 0 0 1 .034.002h.072 0l.318-.005a1.58 1.58 0 0 0 1.142-.605c.192-.254.283-.542.283-.849v-1.284-.214-1.937z"/></mask><path fill-rule="evenodd" d="M3.458 12.466v1.683.149 1.235c.002.79.688 1.441 1.55 1.448a.28.28 0 0 1 .034.002h.072 0l.318-.005a1.58 1.58 0 0 0 1.142-.605c.191-.254.283-.542.283-.849v-1.284l.002-.997h0l-.002-1.994a1.41 1.41 0 0 0-.588-1.12c-.173-.126-.376-.216-.59-.267-.179-.042-.358-.042-.54-.042h-.025c-.426 0-.825.101-1.147.372s-.506.653-.508 1.057v.007 1.21zm.078-3.242c-.043.28-.062.561-.071.841.247-.273.581-.479.948-.587.221-.065.449-.084.679-.084.212 0 .422.002.631.042.941.181 1.589.977 1.589 1.847v1.393 2.046.67c0 .212-.007.42-.066.626-.137.485-.497.91-.973 1.151a2.15 2.15 0 0 1-.793.223c-.121.011-.242.01-.363.009h0l-.109-.001c-.28-.002-.549-.057-.807-.162a1.95 1.95 0 0 1-1.074-1.05c-.099-.239-.125-.491-.125-.744-.001-.01-.002-.02-.002-.031v-.261-1.666-2.067-1.12a7.66 7.66 0 0 1 .488-2.698 8.29 8.29 0 0 1 1.541-2.54 8.88 8.88 0 0 1 2.337-1.872c.9-.502 1.901-.861 2.936-1.042 1.076-.189 2.177-.195 3.255-.023 1.044.168 2.056.515 2.97 1.008a8.81 8.81 0 0 1 2.366 1.851c.677.746 1.208 1.593 1.571 2.507A7.7 7.7 0 0 1 21 10.301v.885 1.927 2.065 1.33c0 .679-.134 1.332-.465 1.944-.477.88-1.302 1.576-2.284 1.952-.495.189-1.03.292-1.568.303l-.435.001h0 0l-.217-.001h-1.521c-.078.469-.39.895-.854 1.12-.349.166-.709.174-1.09.174H11.56c-.39 0-.764-.04-1.097-.246-.508-.313-.805-.87-.73-1.435.064-.479.374-.914.834-1.147.317-.162.65-.189 1.001-.189h1.014c.353 0 .686.008 1.017.151a1.53 1.53 0 0 1 .907 1.151h.358.572 1.146c.992-.004 1.96-.353 2.688-.977s1.199-1.5 1.263-2.422l.009-.165a1.98 1.98 0 0 1-.584.449 2.15 2.15 0 0 1-.793.223c-.121.011-.242.01-.363.009h0l-.109-.001c-.28-.002-.549-.057-.807-.162a1.95 1.95 0 0 1-1.074-1.05c-.1-.242-.125-.496-.125-.752v-1.574-1.994l-.001-.163c-.003-.439-.007-.869.21-1.28.237-.452.686-.796 1.201-.948.221-.065.449-.084.679-.084.212 0 .422.002.632.042a1.99 1.99 0 0 1 1.126.64 7.05 7.05 0 0 0-.093-.993 7.52 7.52 0 0 0-1.008-2.654c-.497-.807-1.144-1.525-1.908-2.128a8.72 8.72 0 0 0-2.571-1.393 9.24 9.24 0 0 0-3.02-.487 9.14 9.14 0 0 0-3.048.542c-.928.334-1.792.828-2.537 1.437S4.972 5.74 4.493 6.549a7.45 7.45 0 0 0-.957 2.675zM14.07 20.492c-.007-.515-.401-.958-.951-1.069-.187-.037-.393-.031-.592-.025l-.212.004h-.866c-.301 0-.586.059-.825.237-.319.238-.49.62-.435.998.066.458.456.826.939.92.167.033.348.028.523.024l.175-.003h.894c.278 0 .536-.021.782-.158.353-.198.565-.551.57-.929zm6.474-8.402v-.826-.014a1.41 1.41 0 0 0-.588-1.12c-.173-.126-.376-.216-.59-.267-.179-.042-.358-.042-.54-.042H18.8c-.426 0-.825.101-1.147.372s-.506.653-.508 1.057l-.002 2.032h0l.002 1.017v1.235c.002.79.689 1.441 1.55 1.448a.28.28 0 0 1 .034.002h.072 0l.318-.005a1.58 1.58 0 0 0 1.142-.605c.192-.254.283-.542.283-.849v-1.284-.214-1.937z" fill="#1f3965"/><path d="M3.458 14.149h-.4 0 .4zm0 .149h.4 0-.4zm0 1.235h-.4v.001l.4-.001zm1.55 1.448l-.003.4h0l.003-.4zm.034.002l-.05.397.024.003h.024l.003-.4zm.072 0l-.003.4h.003v-.4zm0 0l.003-.4h-.003v.4zm.318-.005l.024.399h.002l-.026-.399zm1.142-.605l-.32-.241-.001.002.321.239zm.285-3.13l.4.001h0l-.4-.001zm0 0l-.4-.001h0l.4.001zm-.002-1.994l.4-.004h0l-.4.004zm-.588-1.12l.238-.322-.003-.002-.235.323zm-.59-.267l-.092.389h0l.092-.389zm-.54-.042v.4h0v-.4zm-.025 0v.4h0v-.4zm-1.147.372l-.258-.306-.001.001.259.305zm-.508 1.057l.4.004v-.001l-.4-.002zm0 .007l-.4-.004v.004h.4zm.007-1.191l-.4-.012-.033 1.087.73-.806-.297-.268zm.071-.841l.395.061v-.001l-.396-.06zm.878.254l.113.384h0l-.113-.384zm1.311-.042l.075-.393h-.001l-.075.393zm1.523 6.583l-.384-.111-.001.002.385.108zm-.973 1.151l-.181-.357-.001.001.182.356zm-.793.223l-.036-.398h-.001l.037.398zm-.363.009l.004-.4h-.004v.4zm0 0l-.004.4h.004v-.4zm-.109-.001l-.003.4h.003v-.4zm-.807-.162l.151-.37-.002-.001-.149.371zm-1.074-1.05l-.369.153v.001l.369-.154zm-.125-.744l.4-.001v-.029l-.004-.029-.396.058zM3 15.413h-.4v.003l.4-.003zm.488-7.812l-.374-.141v.001l.374.141zm1.541-2.54l-.3-.265h0l.3.264zm2.337-1.872l.195.349h0l-.195-.349zm2.936-1.042l.069.394h0l-.069-.394zm3.255-.023l.064-.395h0l-.063.395zm2.97 1.008l.19-.352h0l-.19.352zm2.366 1.851l-.298.267.002.002.296-.269zm1.571 2.507l.372-.147h0l-.372.147zM21 10.301h.4 0-.4zm-.465 8.15l.352.19h0l-.352-.19zm-2.284 1.952l.143.374h0l-.143-.374zm-1.568.303l.008.4h0l-.008-.4zm-.435.001l.003-.4h-.003v.4zm0 0l-.003.4h.003v-.4zm-1.738-.001v-.4h-.339l-.055.335.395.065zm-.854 1.12l.172.361.002-.001-.174-.36zm-3.192-.071l.21-.34h-.001l-.21.341zm-.73-1.435l-.396-.053h0l.396.053zm.834-1.147l.181.357h.001l-.182-.356zm3.032-.038l.159-.367h-.001l-.159.367zm.907 1.151l-.395.064.054.336h.341v-.4zm.93 0v.4h0v-.4zm1.146 0l.002.4h0l-.002-.4zm2.688-.977l.261.304h0l-.261-.304zm1.263-2.422l-.399-.029v.002l.399.028zm.009-.165l.4.015.041-1.112-.74.832.299.266zm-.584.449l-.181-.357-.001.001.182.356zm-.793.223l-.036-.398h-.001l.037.398zm-.363.009l.004-.4h-.004v.4zm0 0l-.004.4h.004v-.4zm-.109-.001l-.003.4h.003v-.4zm-.807-.162l.151-.37-.002-.001-.149.371zm-1.074-1.05l-.369.153v.001l.369-.154zm-.126-4.483l-.4.003h0l.4-.003zm.21-1.28l.354.187v-.001l-.354-.186zm1.201-.948l.113.384h0l-.113-.384zm1.311-.042l.075-.393h-.001l-.075.393zm1.126.64l-.301.264.736.841-.035-1.117-.4.013zm-.093-.993l-.394.069h0l.394-.069zm-1.008-2.654l-.341.21h0l.341-.21zm-1.908-2.128l.248-.314-.001-.001-.247.314zm-2.571-1.393l.129-.379h0l-.128.379zm-3.02-.487l.002.4h0l-.002-.4zm-3.048.542l.136.376h0l-.136-.376zM6.351 4.4l-.253-.31h-.001l.254.309zM4.493 6.549l.344.204h0l-.344-.204zm8.626 12.873l.079-.392h-.002l-.077.392zm.951 1.069l.4.005v-.01l-.4.005zm-1.543-1.095l-.012-.4h0l.012.4zm-1.904.242l.239.321h0l-.239-.321zm-.435.998l.396-.057h0l-.396.057zm.939.92l.077-.392h-.001l-.077.393zm.523.024l-.01-.4h0l.01.4zm1.85-.161l.194.35.001-.001-.195-.349zm7.044-10.157h.4v-.004l-.4.004zm0-.014l.4-.004h0l-.4.004zm-.588-1.12l.238-.322-.003-.002-.235.323zm-.59-.267l-.092.389h0l.092-.389zm-.54-.042v.4h0v-.4zm-.025 0v.4h0v-.4zm-1.147.372l-.258-.306-.001.001.259.305zm-.508 1.057l.4.004v-.001l-.4-.002zm-.002 2.032h.4v-.001l-.4.001zm0 0h-.4v.001l.4-.001zm.002 2.252h-.4v.001l.4-.001zm1.55 1.448l-.003.4h0l.003-.4zm.034.002l-.05.397.024.003h.024l.003-.4zm.072 0l-.003.4h.003v-.4zm0 0l.003-.4h-.003v.4zm.318-.005l.024.399h.002l-.026-.399zm1.142-.605l-.319-.241-.001.002.321.239zm.283-2.133h-.4 0 .4zm0-.214h.4 0-.4zm-16.686.122v-1.683h-.8v1.683h.8zm0 .149v-.149h-.8v.149h.8zm0 1.236v-1.235h-.8v1.235h.8zm1.153 1.048c-.668-.005-1.152-.503-1.153-1.049l-.8.002c.003 1.034.892 1.839 1.947 1.846l.006-.8zm.08.005c-.027-.003-.054-.005-.081-.005l-.006.8.086-.795zm.025-.003h-.072l-.005.8h.072l.005-.8zm-.002 0h0v.8h0v-.8zm.294-.004l-.291.004-.006.8.345-.005-.047-.799zm.845-.445c-.182.244-.508.423-.847.445l.052.798a1.98 1.98 0 0 0 1.437-.765l-.641-.478zm.203-.61c0 .223-.065.426-.202.608l.639.481a1.78 1.78 0 0 0 .363-1.09h-.8zm0-1.284v1.284h.8v-1.284h-.8zm.002-.999l-.002.999h.8l.002-.996-.8-.002zm0 0h0l.8.002h0l-.8-.002zm-.002-1.989l.002 1.989.8.002-.002-1.999-.8.007zm-.426-.802a1.01 1.01 0 0 1 .426.802l.8-.008a1.81 1.81 0 0 0-.75-1.437l-.476.643zm-.444-.199c.166.039.32.108.447.201l.471-.647c-.219-.16-.472-.271-.734-.333l-.183.779zm-.449-.031c.19 0 .322.002.448.031l.184-.779c-.232-.055-.457-.053-.632-.053v.8zm-.025 0h.025v-.8h-.025v.8zm-.889.278c.228-.192.524-.278.889-.278v-.8c-.488 0-.989.116-1.405.466l.516.612zm-.366.753c.002-.279.129-.552.367-.754l-.518-.61c-.404.344-.646.832-.649 1.359l.8.005zm0 .008v-.007l-.8-.007v.007l.8.007zm0 1.206v-1.21h-.8v1.21h.8zm.007-2.388c.008-.271.027-.534.066-.793l-.791-.121a7.34 7.34 0 0 0-.075.89l.8.024zm.436-.983c-.435.128-.833.372-1.132.703l.593.537c.195-.216.464-.384.764-.472l-.225-.768zm.792-.1c-.251 0-.521.02-.792.1l.226.767c.17-.05.356-.068.566-.068v-.8zm.706.049c-.251-.048-.496-.049-.706-.049v.8c.214 0 .389.003.557.035l.15-.786zm1.914 2.24c0-1.07-.792-2.024-1.914-2.24l-.151.786c.761.146 1.264.784 1.264 1.454h.8zm0 1.393v-1.393h-.8v1.393h.8zm0 2.046v-2.046h-.8v2.046h.8zm0 .67v-.67h-.8v.67h.8zm-.082.737c.076-.264.082-.521.082-.737h-.8c0 .209-.008.368-.05.515l.769.221zm-1.177 1.397c.569-.288 1.008-.799 1.177-1.4l-.77-.217c-.104.37-.385.708-.769.903l.362.713zm-.938.264c.325-.029.643-.113.94-.265l-.365-.712a1.75 1.75 0 0 1-.647.18l.072.797zm-.402.011l.404-.011-.074-.797a3.16 3.16 0 0 1-.322.007l-.007.8zm.004 0h0v-.8h0v.8zm-.109-.001l.105.001.007-.8-.113-.001v.8zm-.958-.191a2.56 2.56 0 0 0 .955.191l.006-.8a1.76 1.76 0 0 1-.659-.132l-.302.741zm-1.292-1.267a2.35 2.35 0 0 0 1.294 1.268l.298-.742a1.55 1.55 0 0 1-.854-.833l-.738.308zm-.156-.898c.001.277.028.588.156.897l.739-.307c-.071-.17-.094-.362-.095-.592l-.8.002zm-.002-.028c0 .029.002.057.007.086l.791-.117c.001.009.002.017.002.024l-.8.007zm0-.264v.261h.8v-.261h-.8zm0-1.666v1.666h.8v-1.666h-.8zm0-2.067v2.067h.8v-2.067h-.8zm0-1.12v1.12h.8v-1.12h-.8zm.514-2.839a8.06 8.06 0 0 0-.514 2.839h.8a7.26 7.26 0 0 1 .462-2.557l-.749-.282zm1.615-2.664A8.69 8.69 0 0 0 3.114 7.46l.748.283a7.89 7.89 0 0 1 1.467-2.417l-.6-.529zM7.171 2.84a9.28 9.28 0 0 0-2.442 1.957l.6.529A8.48 8.48 0 0 1 7.56 3.539l-.389-.699zm3.062-1.087c-1.08.189-2.123.563-3.062 1.087l.39.699c.862-.481 1.82-.825 2.81-.997l-.138-.788zm3.387-.024c-1.122-.179-2.267-.173-3.388.024l.139.788c1.032-.181 2.088-.187 3.123-.022l.126-.79zm3.097 1.052c-.953-.515-2.008-.876-3.097-1.051l-.127.79c1 .161 1.969.493 2.844.966l.38-.704zm2.474 1.936a9.21 9.21 0 0 0-2.474-1.936l-.381.704a8.41 8.41 0 0 1 2.259 1.766l.595-.534zm1.645 2.626c-.381-.96-.938-1.848-1.646-2.628l-.592.538c.646.711 1.151 1.517 1.495 2.385l.744-.295zm.564 2.958a8.1 8.1 0 0 0-.564-2.957l-.744.294a7.3 7.3 0 0 1 .508 2.665l.8-.002zm0 .886v-.885h-.8v.885h.8zm0 1.927v-1.927h-.8v1.927h.8zm0 2.065v-2.065h-.8v2.065h.8zm0 1.33v-1.33h-.8v1.33h.8zm-.513 2.134c.367-.68.513-1.401.513-2.134h-.8c0 .624-.123 1.21-.417 1.753l.704.381zm-2.493 2.135c1.064-.407 1.967-1.163 2.493-2.135l-.704-.381c-.427.789-1.174 1.424-2.075 1.769l.286.747zm-1.704.329a5.07 5.07 0 0 0 1.703-.329l-.286-.747a4.27 4.27 0 0 1-1.433.276l.016.8zm-.445.001l.445-.001-.015-.8-.425.001-.005.8zm.002 0h0v-.8h0v.8zm0 0h0v-.8h0v.8zm-.217-.001l.214.001.005-.8-.219-.001v.8zm-1.521 0h1.521v-.8h-1.521v.8zm-.68 1.08c.579-.28.975-.814 1.075-1.415l-.789-.131c-.056.338-.284.656-.634.825l.349.72zm-1.264.214c.376 0 .822-.004 1.261-.213l-.344-.722c-.258.123-.533.136-.918.136v.8zm-1.005 0h1.005v-.8H11.56v.8zm-1.307-.306c.43.266.897.306 1.307.306v-.8c-.37 0-.65-.04-.886-.186l-.421.68zm-.916-1.828c-.099.741.291 1.444.916 1.828l.42-.681c-.392-.241-.594-.653-.543-1.042l-.793-.105zm1.05-1.451c-.573.29-.968.836-1.05 1.451l.793.106c.046-.343.271-.667.619-.843l-.361-.714zm1.181-.232c-.367 0-.778.027-1.183.233l.364.713c.23-.117.483-.145.819-.145v-.8zm1.014 0h-1.014v.8h1.014v-.8zm1.175.184c-.415-.179-.824-.184-1.175-.184v.8c.355 0 .612.012.858.119l.317-.734zm1.143 1.455a1.93 1.93 0 0 0-1.143-1.454l-.319.734a1.13 1.13 0 0 1 .672.848l.79-.128zm-.037-.336h-.358v.8h.358v-.8zm.573 0h-.573v.8h.572l.001-.8zm1.144 0h-1.144l-.001.8h1.148l-.003-.8zm2.429-.881c-.651.559-1.527.877-2.429.881l.003.8c1.082-.005 2.144-.384 2.947-1.073l-.521-.607zm1.124-2.146c-.056.805-.466 1.581-1.124 2.147l.521.607c.805-.691 1.33-1.659 1.401-2.698l-.798-.055zm.008-.152l-.008.151.798.058.01-.18-.799-.029zm-.003.82a2.38 2.38 0 0 0 .702-.54l-.598-.532a1.58 1.58 0 0 1-.466.358l.362.713zm-.938.264c.326-.029.643-.113.94-.265l-.365-.712a1.75 1.75 0 0 1-.647.18l.072.797zm-.402.011l.404-.011-.075-.797a3.16 3.16 0 0 1-.322.007l-.007.8zm.004 0h0v-.8h0v.8zm-.109-.001l.105.001.007-.8-.113-.001v.8zm-.958-.191a2.56 2.56 0 0 0 .955.191l.006-.8a1.76 1.76 0 0 1-.659-.132l-.302.741zm-1.292-1.267a2.35 2.35 0 0 0 1.294 1.268l.298-.742a1.55 1.55 0 0 1-.854-.833l-.738.308zm-.156-.906c0 .279.027.594.156.905l.739-.307c-.071-.172-.095-.366-.095-.599h-.8zm0-1.574v1.574h.8v-1.574h-.8zm0-1.994v1.994h.8v-1.994h-.8zm-.001-.16l.001.16h.8l-.001-.166-.8.006zm.257-1.47c-.271.514-.26 1.045-.257 1.47l.8-.006c-.003-.453.001-.782.164-1.091l-.708-.373zm1.442-1.145c-.607.178-1.15.587-1.443 1.145l.708.372c.181-.345.536-.625.96-.75l-.225-.768zm.792-.1c-.25 0-.52.02-.792.1l.226.767c.17-.05.356-.068.566-.068v-.8zm.706.049c-.252-.048-.496-.049-.706-.049v.8c.214 0 .389.003.557.035l.15-.786zm1.352.77a2.39 2.39 0 0 0-1.352-.77l-.151.786a1.59 1.59 0 0 1 .901.511l.602-.527zm-.788-.661c.053.305.078.616.088.937l.8-.025c-.011-.344-.037-.695-.099-1.05l-.788.138zm-.954-2.513c.479.778.801 1.632.954 2.512l.788-.137c-.171-.981-.529-1.93-1.061-2.795l-.681.42zM17.28 4.615a7.8 7.8 0 0 1 1.815 2.024l.681-.42a8.6 8.6 0 0 0-2.001-2.232l-.496.628zm-2.452-1.328a8.32 8.32 0 0 1 2.453 1.329l.494-.629a9.12 9.12 0 0 0-2.69-1.457l-.257.758zm-2.889-.466a8.84 8.84 0 0 1 2.89.466l.257-.758a9.64 9.64 0 0 0-3.151-.509l.005.8zm-2.914.518a8.74 8.74 0 0 1 2.914-.518l-.005-.8a9.54 9.54 0 0 0-3.181.566l.272.752zm-2.42 1.371c.711-.581 1.535-1.052 2.42-1.37l-.271-.753c-.971.35-1.875.866-2.655 1.504l.506.619zM4.837 6.753c.454-.767 1.054-1.458 1.767-2.044l-.507-.618c-.782.642-1.445 1.404-1.948 2.255l.688.407zm-.906 2.531a7.05 7.05 0 0 1 .906-2.531l-.688-.408A7.85 7.85 0 0 0 3.14 9.164l.791.12zm9.109 10.531c.389.079.626.38.63.683l.8-.011c-.01-.726-.561-1.312-1.271-1.456l-.159.784zm-.501-.017c.209-.006.368-.009.503.018l.155-.785c-.24-.047-.492-.038-.681-.033l.023.8zm-.224.004l.224-.004-.023-.8-.201.004v.8zm-.866 0h.866v-.8h-.866v.8zm-.586.158c.146-.109.335-.158.586-.158v-.8c-.351 0-.731.068-1.064.317l.478.641zm-.279.62c-.032-.221.067-.462.278-.62l-.478-.642c-.427.318-.67.841-.593 1.376l.792-.114zm.62.585c-.343-.067-.582-.321-.62-.585l-.792.114c.094.652.635 1.134 1.258 1.256l.154-.785zm.436.017c-.184.005-.319.006-.435-.017l-.155.785c.218.043.445.036.61.031l-.02-.8zm.185-.003l-.185.003.02.8.165-.003v-.8zm.894 0h-.894v.8h.894v-.8zm.588-.107c-.153.085-.325.107-.588.107v.8c.293 0 .637-.02.976-.208l-.388-.7zm.364-.584c-.003.228-.131.453-.365.584l.39.698c.472-.264.768-.745.775-1.273l-.8-.01zm6.474-9.223v.826h.8v-.826h-.8zm0-.011v.014l.8-.007v-.014l-.8.007zm-.426-.802a1.01 1.01 0 0 1 .426.802l.8-.008a1.81 1.81 0 0 0-.75-1.437l-.476.643zm-.444-.199c.166.039.32.108.447.201l.471-.647c-.219-.16-.472-.271-.734-.333l-.183.779zm-.449-.031c.19 0 .322.002.448.031l.184-.779c-.232-.055-.457-.053-.633-.053v.8zm-.025 0h.025v-.8H18.8v.8zm-.889.278c.228-.192.524-.278.889-.278v-.8c-.488 0-.989.116-1.405.466l.516.612zm-.366.753c.002-.279.129-.552.367-.754l-.518-.61c-.404.344-.646.832-.649 1.359l.8.005zm-.002 2.028l.002-2.027-.8-.007-.002 2.037.8-.002zm0 .001h0-.8 0 .8zm.002 1.017l-.002-1.018-.8.002.002 1.015h.8zm0 1.235v-1.235h-.8v1.235h.8zm1.153 1.048c-.668-.005-1.151-.503-1.153-1.049l-.8.002c.003 1.034.892 1.839 1.947 1.846l.006-.8zm.081.005c-.027-.003-.054-.005-.081-.005l-.006.8.086-.795zm.025-.003h-.072l-.005.8h.072l.005-.8zm-.002 0h0v.8h0v-.8zm.294-.004l-.291.004-.006.8.345-.005-.047-.799zm.845-.445c-.182.244-.508.423-.847.445l.052.798a1.98 1.98 0 0 0 1.437-.765l-.641-.478zm.203-.61c0 .223-.065.426-.202.608l.639.481a1.78 1.78 0 0 0 .363-1.09h-.8zm0-1.284v1.284h.8v-1.284h-.8zm0-.214v.214h.8v-.214h-.8zm0-1.937v1.938h.8v-1.937h-.8z" fill="#1f3965" mask="url(#A)"/></svg>