<svg width="24" height="24" viewBox="0 0 24 24" fill="none" xmlns="http://www.w3.org/2000/svg">
<path fill-rule="evenodd" clip-rule="evenodd" d="M3 6.98734C3 3.99659 3.03202 3 6.98734 3C10.9427 3 10.9747 3.99659 10.9747 6.98734C10.9747 9.97809 10.9873 10.9747 6.98734 10.9747C2.98739 10.9747 3 9.97809 3 6.98734Z" stroke="#1DA1F2" stroke-linecap="round" stroke-linejoin="round"/>
<path fill-rule="evenodd" clip-rule="evenodd" d="M13.0254 6.98734C13.0254 3.99659 13.0574 3 17.0127 3C20.9681 3 21.0001 3.99659 21.0001 6.98734C21.0001 9.97809 21.0127 10.9747 17.0127 10.9747C13.0128 10.9747 13.0254 9.97809 13.0254 6.98734Z" stroke="#1DA1F2" stroke-linecap="round" stroke-linejoin="round"/>
<path fill-rule="evenodd" clip-rule="evenodd" d="M3 17.0126C3 14.0219 3.03202 13.0253 6.98734 13.0253C10.9427 13.0253 10.9747 14.0219 10.9747 17.0126C10.9747 20.0034 10.9873 21 6.98734 21C2.98739 21 3 20.0034 3 17.0126Z" stroke="#1DA1F2" stroke-linecap="round" stroke-linejoin="round"/>
<path fill-rule="evenodd" clip-rule="evenodd" d="M13.0254 17.0126C13.0254 14.0219 13.0574 13.0253 17.0127 13.0253C20.9681 13.0253 21.0001 14.0219 21.0001 17.0126C21.0001 20.0034 21.0127 21 17.0127 21C13.0128 21 13.0254 20.0034 13.0254 17.0126Z" stroke="#1DA1F2" stroke-linecap="round" stroke-linejoin="round"/>
</svg>
