<svg width="24" height="24" viewBox="0 0 24 24" fill="none" xmlns="http://www.w3.org/2000/svg">
<path d="M19.3264 3.7962L19.3264 3.79622L19.3291 3.79965C19.4507 3.95242 19.5031 4.14352 19.4999 4.41142L19.4998 4.41142V4.41755V14.5888C19.4998 14.7188 19.4978 14.8516 19.4957 14.9867L19.4957 14.9899C19.4919 15.4198 19.1459 15.7728 18.7164 15.7857H18.7106H18.6919H18.681L18.67 15.7862C18.3693 15.7993 18.0785 15.7951 17.7718 15.7905C17.6103 15.7881 17.4444 15.7857 17.2703 15.7857H7.08871H6.90768L6.76861 15.9016C6.63495 16.013 6.50032 16.1288 6.3692 16.2415C6.32648 16.2783 6.28414 16.3147 6.24232 16.3505C6.24215 16.3507 6.24198 16.3508 6.24182 16.351L3.66001 18.5542L3.65966 18.5545C3.38912 18.7858 3.11801 19.0166 2.84644 19.2479L2.84612 19.2481C2.7308 19.3463 2.61541 19.4446 2.5 19.5429V4.3534C2.5 4.09275 2.58221 3.8786 2.73842 3.72398C2.89156 3.57639 3.10285 3.5 3.36789 3.5H18.6547C18.9433 3.5 19.1788 3.60727 19.3264 3.7962Z" stroke="#1F3965"/>
<path d="M11.355 6.27002V9.13002C11.355 9.43335 11.34 9.73169 11.31 10.025C11.28 10.315 11.2417 10.6234 11.195 10.95H10.355C10.3083 10.6234 10.27 10.315 10.24 10.025C10.21 9.73169 10.195 9.43335 10.195 9.13002V6.27002H11.355ZM10 12.82C10 12.7167 10.0183 12.6184 10.055 12.525C10.095 12.4317 10.1483 12.3517 10.215 12.285C10.285 12.2184 10.3667 12.165 10.46 12.125C10.5533 12.085 10.6533 12.065 10.76 12.065C10.8633 12.065 10.9617 12.085 11.055 12.125C11.1483 12.165 11.2283 12.2184 11.295 12.285C11.365 12.3517 11.42 12.4317 11.46 12.525C11.5 12.6184 11.52 12.7167 11.52 12.82C11.52 12.9267 11.5 13.0267 11.46 13.12C11.42 13.21 11.365 13.2884 11.295 13.355C11.2283 13.4217 11.1483 13.4734 11.055 13.51C10.9617 13.55 10.8633 13.57 10.76 13.57C10.6533 13.57 10.5533 13.55 10.46 13.51C10.3667 13.4734 10.285 13.4217 10.215 13.355C10.1483 13.2884 10.095 13.21 10.055 13.12C10.0183 13.0267 10 12.9267 10 12.82Z" fill="#1F3965"/>
</svg>
