<svg width="24" height="24" viewBox="0 0 24 24" fill="none" xmlns="http://www.w3.org/2000/svg">
<path d="M11.9999 6.44446C10.1669 6.44446 8.66657 7.94474 8.66657 9.77779C8.66532 9.86613 8.68164 9.95384 8.71459 10.0358C8.74753 10.1178 8.79643 10.1924 8.85846 10.2553C8.92049 10.3182 8.99441 10.3682 9.07591 10.4023C9.15742 10.4364 9.24489 10.454 9.33324 10.454C9.42159 10.454 9.50906 10.4364 9.59056 10.4023C9.67207 10.3682 9.74598 10.3182 9.80801 10.2553C9.87004 10.1924 9.91895 10.1178 9.95189 10.0358C9.98483 9.95384 10.0012 9.86613 9.9999 9.77779C9.9999 8.66533 10.8874 7.77779 11.9999 7.77779C13.1124 7.77779 13.9999 8.66533 13.9999 9.77779C14.0078 10.6907 13.5376 11.1579 12.8818 11.7778C12.554 12.0877 12.1899 12.4102 11.8818 12.8333C11.5738 13.2565 11.3332 13.8064 11.3332 14.4445C11.332 14.5328 11.3483 14.6205 11.3813 14.7025C11.4142 14.7845 11.4631 14.8591 11.5251 14.922C11.5872 14.9849 11.6611 15.0349 11.7426 15.069C11.8241 15.1031 11.9116 15.1206 11.9999 15.1206C12.0883 15.1206 12.1757 15.1031 12.2572 15.069C12.3387 15.0349 12.4126 14.9849 12.4747 14.922C12.5367 14.8591 12.5856 14.7845 12.6186 14.7025C12.6515 14.6205 12.6678 14.5328 12.6666 14.4445C12.6666 14.115 12.7631 13.8861 12.9582 13.6181C13.1534 13.35 13.4572 13.0657 13.7985 12.7431C14.48 12.0989 15.3425 11.1979 15.3332 9.77779C15.3332 9.7753 15.3333 9.77334 15.3332 9.77085C15.3294 7.94097 13.8306 6.44446 11.9999 6.44446ZM11.9999 15.7778C11.509 15.7778 11.111 16.1757 11.111 16.6667C11.111 17.1576 11.509 17.5556 11.9999 17.5556C12.4908 17.5556 12.8888 17.1576 12.8888 16.6667C12.8888 16.1757 12.4908 15.7778 11.9999 15.7778Z" fill="#1F3965"/>
<mask id="path-2-outside-1" maskUnits="userSpaceOnUse" x="2" y="2" width="20" height="20" fill="black">
<rect fill="white" x="2" y="2" width="20" height="20"/>
<path fill-rule="evenodd" clip-rule="evenodd" d="M12 21C16.9706 21 21 16.9706 21 12C21 7.02944 16.9706 3 12 3C7.02944 3 3 7.02944 3 12C3 14.054 3.68807 15.9473 4.84628 17.4619L4 20L6.53842 19.154C8.05302 20.312 9.94617 21 12 21Z"/>
</mask>
<path d="M4.84628 17.4619L5.79494 17.7783L5.96257 17.2755L5.64065 16.8545L4.84628 17.4619ZM4 20L3.05135 19.6837L2.41868 21.5811L4.31618 20.9487L4 20ZM6.53842 19.154L7.14581 18.3596L6.7249 18.0378L6.22224 18.2053L6.53842 19.154ZM20 12C20 16.4183 16.4183 20 12 20V22C17.5228 22 22 17.5228 22 12H20ZM12 4C16.4183 4 20 7.58172 20 12H22C22 6.47715 17.5228 2 12 2V4ZM4 12C4 7.58172 7.58172 4 12 4V2C6.47715 2 2 6.47715 2 12H4ZM5.64065 16.8545C4.61114 15.5082 4 13.8269 4 12H2C2 14.2811 2.76499 16.3864 4.05191 18.0694L5.64065 16.8545ZM3.89763 17.1456L3.05135 19.6837L4.94865 20.3163L5.79494 17.7783L3.89763 17.1456ZM4.31618 20.9487L6.8546 20.1027L6.22224 18.2053L3.68382 19.0513L4.31618 20.9487ZM12 20C10.1733 20 8.49211 19.389 7.14581 18.3596L5.93103 19.9484C7.61393 21.2351 9.71907 22 12 22V20Z" fill="#1F3965" mask="url(#path-2-outside-1)"/>
</svg>
