<svg width="53" height="53" viewBox="0 0 53 53" fill="none" xmlns="http://www.w3.org/2000/svg">
<circle cx="26.5" cy="26.5" r="26.5" fill="#1DA1F2"/>
<g clip-path="url(#clip0)">
<path d="M31.7632 12.2502L30.8314 11.027L31.7632 9.80399C31.9656 9.53862 31.9145 9.15944 31.6492 8.95705C31.5435 8.87649 31.4142 8.83296 31.2813 8.83326H26.5113C26.175 8.83137 25.8997 9.10046 25.894 9.43678V14.8147H27.1055V13.2247H31.2813C31.6166 13.2239 31.8878 12.9515 31.8871 12.6163C31.8868 12.484 31.8432 12.3554 31.7632 12.2502Z" fill="white"/>
<path d="M12.6332 27.9133C12.1398 27.9108 11.7377 28.3086 11.7351 28.802C11.7351 28.8059 11.7351 28.8099 11.7351 28.8138V40.6333H19.3822V27.9133H12.6332ZM14.6122 37.3019C14.6122 37.6364 14.341 37.9076 14.0065 37.9076C13.672 37.9076 13.4008 37.6364 13.4008 37.3019V36.0003C13.4008 35.6658 13.672 35.3946 14.0065 35.3946C14.341 35.3946 14.6122 35.6658 14.6122 36.0003V37.3019ZM14.6122 32.2322C14.6122 32.5667 14.341 32.838 14.0065 32.838C13.672 32.838 13.4008 32.5667 13.4008 32.2322V30.9306C13.4008 30.5961 13.672 30.3248 14.0065 30.3248C14.341 30.3248 14.6122 30.5961 14.6122 30.9306V32.2322ZM17.7165 37.3019C17.7165 37.6364 17.4453 37.9076 17.1108 37.9076C16.7763 37.9076 16.5051 37.6364 16.5051 37.3019V36.0003C16.5051 35.6658 16.7763 35.3946 17.1108 35.3946C17.4453 35.3946 17.7165 35.6658 17.7165 36.0003V37.3019ZM17.7165 32.2322C17.7165 32.5667 17.4453 32.838 17.1108 32.838C16.7763 32.838 16.5051 32.5667 16.5051 32.2322V30.9306C16.5051 30.5961 16.7763 30.3248 17.1108 30.3248C17.4453 30.3248 17.7165 30.5961 17.7165 30.9306V32.2322Z" fill="white"/>
<path d="M26.4023 19.4712L20.594 24.4119V40.6333H23.244V34.3255C23.236 34.012 23.4836 33.7514 23.7972 33.7433C23.8074 33.743 23.8176 33.743 23.8278 33.7433H29.0345C29.3416 33.7356 29.5967 33.9782 29.6044 34.2851C29.6047 34.2986 29.6047 34.312 29.604 34.3255V40.6333H32.1783V24.4062L26.4023 19.4712ZM29.0345 30.3362H23.7936C23.4591 30.3362 23.1879 30.065 23.1879 29.7305C23.1879 29.396 23.4591 29.1248 23.7936 29.1248H29.0345C29.3691 29.1248 29.6403 29.396 29.6403 29.7305C29.6403 30.065 29.3691 30.3362 29.0345 30.3362Z" fill="white"/>
<path d="M40.3776 27.9133C40.3737 27.9133 40.3697 27.9133 40.3658 27.9133H33.3896V40.6333H41.2639V28.8138C41.2679 28.3204 40.871 27.9173 40.3776 27.9133ZM36.4939 37.3019C36.4939 37.6364 36.2227 37.9076 35.8882 37.9076C35.5537 37.9076 35.2825 37.6364 35.2825 37.3019V36.0003C35.2825 35.6658 35.5537 35.3946 35.8882 35.3946C36.2227 35.3946 36.4939 35.6658 36.4939 36.0003V37.3019ZM36.4939 32.2322C36.4939 32.5667 36.2227 32.8379 35.8882 32.8379C35.5537 32.8379 35.2825 32.5667 35.2825 32.2322V30.9305C35.2825 30.596 35.5537 30.3248 35.8882 30.3248C36.2227 30.3248 36.4939 30.596 36.4939 30.9305V32.2322ZM39.5225 37.3019C39.5225 37.6364 39.2513 37.9076 38.9168 37.9076C38.5823 37.9076 38.3111 37.6364 38.3111 37.3019V36.0003C38.3111 35.6658 38.5823 35.3946 38.9168 35.3946C39.2513 35.3946 39.5225 35.6658 39.5225 36.0003V37.3019ZM39.5225 32.2322C39.5225 32.5667 39.2513 32.8379 38.9168 32.8379C38.5823 32.8379 38.3111 32.5667 38.3111 32.2322V30.9305C38.3111 30.596 38.5823 30.3248 38.9168 30.3248C39.2513 30.3248 39.5225 30.596 39.5225 30.9305V32.2322Z" fill="white"/>
<path d="M26.4317 15.6351L17.7637 23.0559L18.8591 24.3305L26.0384 18.2132C26.2652 18.02 26.5988 18.0203 26.8252 18.214L33.9746 24.333L35.0952 23.0524L26.4317 15.6351Z" fill="white"/>
<path d="M28.3925 34.9547H24.4553V40.6333H28.3925V34.9547Z" fill="white"/>
</g>
<defs>
<clipPath id="clip0">
<rect width="31.8" height="31.8" fill="white" transform="translate(10.5996 8.83325)"/>
</clipPath>
</defs>
</svg>
