<svg width="24" height="24" viewBox="0 0 24 24" fill="none" xmlns="http://www.w3.org/2000/svg">
<path d="M19.5425 9.42154V14.301" stroke="#1F3965" stroke-linecap="round" stroke-linejoin="round"/>
<path d="M22.0002 11.8612H17.0874" stroke="#1F3965" stroke-linecap="round" stroke-linejoin="round"/>
<path d="M9.04166 12.7567C11.3658 12.7567 13.2498 10.7964 13.2498 8.37835C13.2498 5.96026 11.3658 4 9.04166 4C6.71756 4 4.8335 5.96026 4.8335 8.37835C4.8335 10.7964 6.71756 12.7567 9.04166 12.7567Z" stroke="#1F3965"/>
<path fill-rule="evenodd" clip-rule="evenodd" d="M6.06222 14.5571C7.6252 14.5721 10.2813 14.6331 12.0203 14.5571C14.1541 14.5571 15.6251 16.3414 15.9001 18.4821L16.0762 19.8511C16.0946 19.9947 16.0825 20.1406 16.0408 20.279C15.9991 20.4175 15.9286 20.5454 15.8341 20.6541C15.7397 20.7629 15.6234 20.85 15.493 20.9096C15.3626 20.9693 15.2211 21.0001 15.078 21H3.00947C2.86613 21.0005 2.72432 20.97 2.59358 20.9105C2.46283 20.8511 2.34615 20.764 2.25136 20.6553C2.15656 20.5465 2.08585 20.4184 2.04395 20.2798C2.00204 20.1411 1.98992 19.9949 2.00838 19.8511L2.18348 18.4861C2.45749 16.3414 3.92945 14.5571 6.06222 14.5571Z" stroke="#1F3965"/>
</svg>
