<svg width="22" height="20" viewBox="0 0 22 20" fill="none" xmlns="http://www.w3.org/2000/svg">
<path d="M11.1076 9.95455C13.2434 9.95455 14.9748 8.17386 14.9748 5.97727C14.9748 3.78069 13.2434 2 11.1076 2C8.97173 2 7.2403 3.78069 7.2403 5.97727C7.2403 8.17386 8.97173 9.95455 11.1076 9.95455Z" stroke="#4B5C7C"/>
<path fill-rule="evenodd" clip-rule="evenodd" d="M8.36938 11.59C9.80575 11.6037 12.2467 11.6591 13.8448 11.59C15.8058 11.59 17.1576 13.2109 17.4103 15.1555L17.5721 16.3991C17.589 16.5295 17.578 16.662 17.5396 16.7878C17.5013 16.9136 17.4365 17.0298 17.3497 17.1286C17.2629 17.2273 17.156 17.3065 17.0362 17.3606C16.9164 17.4148 16.7863 17.4428 16.6548 17.4427H5.56393C5.43219 17.4432 5.30188 17.4155 5.18172 17.3615C5.06157 17.3075 4.95434 17.2284 4.86723 17.1296C4.78011 17.0308 4.71513 16.9145 4.67662 16.7885C4.6381 16.6625 4.62696 16.5298 4.64393 16.3991L4.80485 15.1591C5.05666 13.2109 6.40938 11.59 8.36938 11.59Z" stroke="#4B5C7C"/>
<path d="M6.45457 9.27282C4.94834 9.27282 3.72729 7.84827 3.72729 6.091C3.72729 4.33373 4.94834 2.90918 6.45457 2.90918" stroke="#4B5C7C" stroke-linecap="round"/>
<path d="M4.73315 11.59C2.77315 11.59 1.42043 13.2109 1.16861 15.1591L1.0077 16.3991C0.990734 16.5298 1.00187 16.6625 1.04039 16.7885C1.0789 16.9145 1.14388 17.0308 1.231 17.1296C1.31811 17.2284 1.42534 17.3075 1.54549 17.3615C1.66565 17.4155 1.79596 17.4432 1.9277 17.4427H3.27273" stroke="#4B5C7C" stroke-linecap="round"/>
<path d="M15.5454 9.27282C17.0517 9.27282 18.2727 7.84827 18.2727 6.091C18.2727 4.33373 17.0517 2.90918 15.5454 2.90918" stroke="#4B5C7C" stroke-linecap="round"/>
<path d="M17.2668 11.59C19.2268 11.59 20.5796 13.2109 20.8314 15.1591L20.9923 16.3991C21.0093 16.5298 20.9981 16.6625 20.9596 16.7885C20.9211 16.9145 20.8561 17.0308 20.769 17.1296C20.6819 17.2284 20.5747 17.3075 20.4545 17.3615C20.3344 17.4155 20.204 17.4432 20.0723 17.4427H18.7273" stroke="#4B5C7C" stroke-linecap="round"/>
<path d="M11.1076 9.95455C13.2434 9.95455 14.9748 8.17386 14.9748 5.97727C14.9748 3.78069 13.2434 2 11.1076 2C8.97173 2 7.2403 3.78069 7.2403 5.97727C7.2403 8.17386 8.97173 9.95455 11.1076 9.95455Z" stroke="#4B5C7C"/>
<path fill-rule="evenodd" clip-rule="evenodd" d="M8.36938 11.59C9.80575 11.6037 12.2467 11.6591 13.8448 11.59C15.8058 11.59 17.1576 13.2109 17.4103 15.1555L17.5721 16.3991C17.589 16.5295 17.578 16.662 17.5396 16.7878C17.5013 16.9136 17.4365 17.0298 17.3497 17.1286C17.2629 17.2273 17.156 17.3065 17.0362 17.3606C16.9164 17.4148 16.7863 17.4428 16.6548 17.4427H5.56393C5.43219 17.4432 5.30188 17.4155 5.18172 17.3615C5.06157 17.3075 4.95434 17.2284 4.86723 17.1296C4.78011 17.0308 4.71513 16.9145 4.67662 16.7885C4.6381 16.6625 4.62696 16.5298 4.64393 16.3991L4.80485 15.1591C5.05666 13.2109 6.40938 11.59 8.36938 11.59Z" stroke="#4B5C7C"/>
</svg>
