<svg width="20" height="20" viewBox="0 0 20 20" fill="none" xmlns="http://www.w3.org/2000/svg">
<path d="M10.3377 10.2416C12.4295 10.2416 14.1251 8.39666 14.1251 6.1208C14.1251 3.84495 12.4295 2 10.3377 2C8.24598 2 6.55029 3.84495 6.55029 6.1208C6.55029 8.39666 8.24598 10.2416 10.3377 10.2416Z" stroke="#4B5C7C"/>
<path fill-rule="evenodd" clip-rule="evenodd" d="M7.65607 11.936C9.06278 11.9502 11.4533 12.0076 13.0185 11.936C14.9389 11.936 16.2628 13.6154 16.5103 15.6302L16.6688 16.9187C16.6854 17.0538 16.6745 17.1911 16.637 17.3214C16.5994 17.4518 16.536 17.5721 16.451 17.6744C16.366 17.7768 16.2613 17.8588 16.1439 17.9149C16.0266 17.971 15.8992 18 15.7705 18H4.90854C4.77953 18.0004 4.65191 17.9717 4.53423 17.9158C4.41656 17.8598 4.31154 17.7779 4.22623 17.6755C4.14091 17.5731 4.07727 17.4526 4.03955 17.3221C4.00184 17.1916 3.99093 17.054 4.00754 16.9187L4.16513 15.6339C4.41175 13.6154 5.73654 11.936 7.65607 11.936Z" stroke="#4B5C7C"/>
</svg>
