<svg width="480" height="283" viewBox="0 0 480 283" fill="none" xmlns="http://www.w3.org/2000/svg">
<g clip-path="url(#clip0_370_9371)">
<path d="M63.7161 281.845C63.7161 281.845 -50.9845 209.761 27.4063 132.468C105.797 55.1743 210.699 -23.8315 281.018 6.73453C351.337 37.3006 345.009 75.9473 422.261 131.89C499.514 187.833 481.632 232.25 467.797 254.74C453.962 277.229 451.658 283.016 451.658 283.016L63.7161 281.845Z" fill="white"/>
</g>
<path d="M127.07 267.016H102.843C101.825 267.016 101 267.84 101 268.857V275.364C101 276.381 101.825 277.206 102.843 277.206H127.07C128.088 277.206 128.914 276.381 128.914 275.364V268.857C128.914 267.84 128.088 267.016 127.07 267.016Z" fill="#DBE2EA"/>
<path d="M158.741 267.016H134.514C133.496 267.016 132.671 267.84 132.671 268.857V275.364C132.671 276.381 133.496 277.206 134.514 277.206H158.741C159.759 277.206 160.585 276.381 160.585 275.364V268.857C160.585 267.84 159.759 267.016 158.741 267.016Z" fill="#DBE2EA"/>
<path d="M142.681 253H118.454C117.436 253 116.61 253.825 116.61 254.842V261.349C116.61 262.366 117.436 263.19 118.454 263.19H142.681C143.699 263.19 144.524 262.366 144.524 261.349V254.842C144.524 253.825 143.699 253 142.681 253Z" fill="#DBE2EA"/>
<path d="M129.98 76.5859V210.368C129.982 212.038 130.647 213.639 131.829 214.819C133.012 215.999 134.615 216.662 136.286 216.662H346.183C347.011 216.663 347.831 216.5 348.596 216.184C349.361 215.867 350.057 215.403 350.642 214.818C351.228 214.233 351.692 213.538 352.009 212.774C352.326 212.009 352.489 211.19 352.489 210.362V76.5859H129.98Z" fill="white"/>
<path d="M140.975 72.9748C142.211 72.8635 143.122 71.7724 143.011 70.5377C142.899 69.303 141.807 68.3923 140.572 68.5036C139.336 68.6149 138.424 69.706 138.536 70.9407C138.647 72.1754 139.739 73.0861 140.975 72.9748Z" fill="white"/>
<path d="M149.74 72.9748C150.975 72.8635 151.887 71.7724 151.775 70.5377C151.664 69.303 150.572 68.3923 149.336 68.5036C148.1 68.6149 147.189 69.706 147.3 70.9407C147.412 72.1754 148.504 73.086 149.74 72.9748Z" fill="white"/>
<path d="M158.506 72.9748C159.742 72.8635 160.653 71.7724 160.542 70.5377C160.431 69.303 159.339 68.3923 158.103 68.5036C156.867 68.6149 155.956 69.706 156.067 70.9407C156.178 72.1753 157.27 73.086 158.506 72.9748Z" fill="white"/>
<path d="M352.499 71.3001C352.5 70.4727 352.337 69.6533 352.02 68.8888C351.703 68.1242 351.239 67.4296 350.653 66.8445C350.068 66.2594 349.372 65.7953 348.607 65.4789C347.842 65.1624 347.022 64.9996 346.194 65H136.297C134.625 65 133.021 65.6638 131.838 66.8453C130.656 68.0268 129.991 69.6292 129.991 71.3001V76.4658H352.499V71.3001Z" fill="white"/>
<path d="M346.194 216.883H136.298C134.537 216.881 132.85 216.181 131.606 214.937C130.361 213.694 129.662 212.007 129.66 210.249V76.1328H352.834V210.249C352.833 212.008 352.133 213.694 350.888 214.938C349.643 216.182 347.955 216.882 346.194 216.883ZM130.326 76.7984V210.249C130.328 211.831 130.957 213.348 132.077 214.467C133.196 215.586 134.714 216.215 136.298 216.217H346.194C347.778 216.215 349.296 215.586 350.416 214.467C351.536 213.348 352.166 211.831 352.168 210.249V76.7984H130.326Z" fill="#1DA1F2"/>
<path d="M352.834 76.7974H129.66V71.3003C129.662 69.5417 130.361 67.8554 131.606 66.6117C132.85 65.3679 134.537 64.6682 136.298 64.666H346.194C347.955 64.6674 349.643 65.3669 350.888 66.6107C352.133 67.8546 352.833 69.5412 352.834 71.3003V76.7974ZM130.326 76.1318H352.168V71.3003C352.166 69.7179 351.536 68.201 350.416 67.0821C349.296 65.9633 347.778 65.3337 346.194 65.3316H136.298C134.714 65.3337 133.196 65.9634 132.077 67.0823C130.957 68.2013 130.328 69.7182 130.326 71.3003V76.1318Z" fill="#1DA1F2"/>
<path d="M140.779 73.3114C140.268 73.3109 139.769 73.159 139.345 72.8751C138.92 72.5911 138.589 72.1877 138.394 71.716C138.199 71.2442 138.148 70.7252 138.248 70.2246C138.348 69.7241 138.595 69.2643 138.956 68.9036C139.317 68.5428 139.778 68.2972 140.279 68.1978C140.78 68.0985 141.299 68.1497 141.771 68.3452C142.243 68.5407 142.647 68.8715 142.931 69.296C143.214 69.7205 143.366 70.2195 143.366 70.7299C143.365 71.4148 143.092 72.0714 142.607 72.5555C142.122 73.0395 141.465 73.3114 140.779 73.3114ZM140.779 68.8221C140.402 68.8226 140.033 68.935 139.719 69.1449C139.406 69.3549 139.161 69.653 139.017 70.0017C138.873 70.3503 138.836 70.7339 138.91 71.1038C138.984 71.4737 139.166 71.8134 139.433 72.0799C139.7 72.3465 140.04 72.5279 140.41 72.6013C140.781 72.6747 141.165 72.6367 141.513 72.4923C141.862 72.3478 142.16 72.1033 142.37 71.7896C142.58 71.4759 142.692 71.1071 142.692 70.7299C142.691 70.2237 142.489 69.7384 142.131 69.3807C141.772 69.023 141.286 68.8221 140.779 68.8221Z" fill="#1F3965"/>
<path d="M149.546 73.3114C149.035 73.3109 148.536 73.159 148.111 72.8751C147.687 72.5911 147.356 72.1877 147.161 71.716C146.966 71.2442 146.915 70.7252 147.015 70.2246C147.115 69.7241 147.361 69.2643 147.723 68.9036C148.084 68.5428 148.544 68.2972 149.046 68.1978C149.547 68.0985 150.066 68.1497 150.538 68.3452C151.01 68.5407 151.413 68.8715 151.697 69.296C151.981 69.7205 152.132 70.2195 152.132 70.7299C152.132 71.4148 151.859 72.0714 151.374 72.5555C150.889 73.0395 150.231 73.3114 149.546 73.3114ZM149.546 68.8221C149.168 68.8226 148.799 68.935 148.486 69.1449C148.172 69.3549 147.928 69.653 147.784 70.0017C147.64 70.3503 147.602 70.7339 147.676 71.1038C147.75 71.4737 147.932 71.8134 148.199 72.0799C148.466 72.3465 148.807 72.5279 149.177 72.6013C149.547 72.6747 149.931 72.6367 150.28 72.4923C150.629 72.3478 150.927 72.1033 151.137 71.7896C151.346 71.4759 151.458 71.1071 151.458 70.7299C151.457 70.2237 151.256 69.7384 150.897 69.3807C150.539 69.023 150.053 68.8221 149.546 68.8221Z" fill="#1F3965"/>
<path d="M158.311 73.3114C157.8 73.3109 157.3 73.159 156.876 72.8751C156.451 72.5911 156.121 72.1877 155.925 71.716C155.73 71.2442 155.679 70.7252 155.779 70.2246C155.879 69.7241 156.126 69.2643 156.487 68.9036C156.849 68.5428 157.309 68.2972 157.81 68.1978C158.311 68.0985 158.831 68.1497 159.303 68.3452C159.775 68.5407 160.178 68.8715 160.462 69.296C160.746 69.7205 160.897 70.2195 160.897 70.7299C160.896 71.4148 160.624 72.0714 160.139 72.5555C159.654 73.0395 158.996 73.3114 158.311 73.3114ZM158.311 68.8221C157.933 68.8226 157.564 68.935 157.25 69.1449C156.937 69.3549 156.692 69.653 156.548 70.0017C156.404 70.3503 156.367 70.7339 156.441 71.1038C156.515 71.4737 156.697 71.8134 156.964 72.0799C157.231 72.3465 157.571 72.5279 157.942 72.6013C158.312 72.6747 158.696 72.6367 159.045 72.4923C159.393 72.3478 159.691 72.1033 159.901 71.7896C160.111 71.4759 160.223 71.1071 160.223 70.7299C160.222 70.2237 160.02 69.7384 159.662 69.3807C159.303 69.023 158.817 68.8221 158.311 68.8221Z" fill="#1F3965"/>
<g clip-path="url(#clip1_370_9371)">
<path opacity="0.2" d="M346.555 80.5625H135.94V210.706H346.555V80.5625Z" fill="#DBE2EA"/>
<line x1="142.113" y1="80.8984" x2="142.113" y2="211.042" stroke="#DBE2EA" stroke-width="0.423653"/>
<line x1="161.982" y1="80.8984" x2="161.982" y2="211.042" stroke="#DBE2EA" stroke-width="0.423653"/>
<line x1="181.851" y1="80.8984" x2="181.851" y2="211.042" stroke="#DBE2EA" stroke-width="0.423653"/>
<line x1="201.721" y1="80.8984" x2="201.721" y2="211.042" stroke="#DBE2EA" stroke-width="0.423653"/>
<line x1="221.59" y1="80.8984" x2="221.59" y2="211.042" stroke="#DBE2EA" stroke-width="0.423653"/>
<line x1="241.459" y1="80.8984" x2="241.459" y2="211.042" stroke="#DBE2EA" stroke-width="0.423653"/>
<line x1="261.328" y1="80.8984" x2="261.328" y2="211.042" stroke="#DBE2EA" stroke-width="0.423653"/>
<line x1="281.198" y1="80.8984" x2="281.198" y2="211.042" stroke="#DBE2EA" stroke-width="0.423653"/>
<line x1="301.067" y1="80.8984" x2="301.067" y2="211.042" stroke="#DBE2EA" stroke-width="0.423653"/>
<line x1="320.936" y1="80.8984" x2="320.936" y2="211.042" stroke="#DBE2EA" stroke-width="0.423653"/>
<line x1="340.806" y1="80.8984" x2="340.806" y2="211.042" stroke="#DBE2EA" stroke-width="0.423653"/>
<line x1="135.938" y1="199.9" x2="346.553" y2="199.9" stroke="#DBE2EA" stroke-width="0.423653"/>
<line x1="135.938" y1="180.028" x2="346.553" y2="180.028" stroke="#DBE2EA" stroke-width="0.423653"/>
<line x1="135.938" y1="160.161" x2="346.553" y2="160.161" stroke="#DBE2EA" stroke-width="0.423653"/>
<line x1="135.938" y1="140.29" x2="346.553" y2="140.29" stroke="#DBE2EA" stroke-width="0.423653"/>
<line x1="135.938" y1="120.423" x2="346.553" y2="120.423" stroke="#DBE2EA" stroke-width="0.423653"/>
<line x1="135.938" y1="100.552" x2="346.553" y2="100.552" stroke="#DBE2EA" stroke-width="0.423653"/>
<line x1="135.938" y1="80.6847" x2="346.553" y2="80.6847" stroke="#DBE2EA" stroke-width="0.423653"/>
<path d="M221.873 165.281C221.873 166.108 222.202 166.901 222.786 167.485C223.371 168.07 224.164 168.399 224.991 168.399H257.503C258.33 168.399 259.123 168.07 259.708 167.485C260.293 166.901 260.621 166.108 260.621 165.281V140.404H221.873V165.281ZM248.706 147.025H253.762V152.081H248.706V147.025ZM248.706 155.621H253.762V160.677H248.706V155.621ZM238.722 147.025H243.772V152.081H238.722V147.025ZM238.722 155.621H243.772V160.677H238.722V155.621ZM228.726 147.025H233.782V152.081H228.726V147.025ZM228.726 155.621H233.782V160.677H228.726V155.621Z" fill="#A6B4CD"/>
<path d="M251.029 132.767C251.175 132.767 251.315 132.709 251.418 132.606C251.521 132.503 251.579 132.363 251.579 132.217V123.095C251.579 122.949 251.521 122.809 251.418 122.706C251.315 122.603 251.175 122.545 251.029 122.545C250.883 122.545 250.743 122.603 250.64 122.706C250.536 122.809 250.479 122.949 250.479 123.095V132.217C250.479 132.363 250.536 132.503 250.64 132.606C250.743 132.709 250.883 132.767 251.029 132.767Z" fill="#A6B4CD"/>
<path d="M257.503 127.375H252.661V132.217C252.661 132.656 252.487 133.078 252.176 133.389C251.865 133.699 251.444 133.874 251.004 133.874C250.565 133.874 250.144 133.699 249.833 133.389C249.522 133.078 249.348 132.656 249.348 132.217V127.375H233.14V132.217C233.154 132.443 233.122 132.669 233.045 132.881C232.968 133.094 232.848 133.288 232.693 133.453C232.538 133.618 232.351 133.749 232.144 133.838C231.936 133.928 231.713 133.974 231.487 133.974C231.261 133.974 231.037 133.928 230.83 133.838C230.622 133.749 230.435 133.618 230.28 133.453C230.125 133.288 230.006 133.094 229.929 132.881C229.852 132.669 229.819 132.443 229.833 132.217V127.375H224.991C224.165 127.377 223.372 127.706 222.788 128.29C222.204 128.874 221.875 129.667 221.873 130.493V139.303H260.621V130.493C260.62 129.667 260.291 128.874 259.706 128.29C259.122 127.706 258.33 127.377 257.503 127.375Z" fill="#A6B4CD"/>
<path d="M231.465 132.766C231.538 132.766 231.61 132.753 231.678 132.725C231.745 132.698 231.807 132.658 231.858 132.607C231.91 132.555 231.951 132.494 231.979 132.427C232.007 132.36 232.022 132.288 232.022 132.215V123.094C232.007 122.957 231.943 122.831 231.841 122.739C231.738 122.647 231.606 122.596 231.468 122.596C231.331 122.596 231.198 122.647 231.096 122.739C230.994 122.831 230.929 122.957 230.915 123.094V132.215C230.915 132.361 230.973 132.501 231.076 132.604C231.179 132.708 231.319 132.766 231.465 132.766Z" fill="#A6B4CD"/>
<rect x="320.143" y="100.076" width="21.1826" height="21.1826" fill="#DBE2EA"/>
<rect x="299.682" y="139.539" width="21.1826" height="21.1826" fill="#DBE2EA"/>
<rect x="320.143" y="180.461" width="20.4615" height="19" fill="#DBE2EA"/>
</g>
<defs>
<clipPath id="clip0_370_9371">
<rect width="480" height="283" fill="white"/>
</clipPath>
<clipPath id="clip1_370_9371">
<rect width="210.614" height="130.144" fill="white" transform="translate(135.94 80.5625)"/>
</clipPath>
</defs>
</svg>
