<svg width="44" height="44" viewBox="0 0 44 44" fill="none" xmlns="http://www.w3.org/2000/svg">
<g clip-path="url(#clip0_6909_93786)">
<path d="M22 22.0007C24.0167 22.0007 25.6667 20.3507 25.6667 18.334C25.6667 16.3174 24.0167 14.6674 22 14.6674C19.9834 14.6674 18.3334 16.3174 18.3334 18.334C18.3334 20.3507 19.9834 22.0007 22 22.0007ZM22 3.66736C29.7 3.66736 36.6667 9.57069 36.6667 18.7007C36.6667 24.5307 32.175 31.3874 23.21 39.289C22.5134 39.894 21.4684 39.894 20.7717 39.289C11.825 31.3874 7.33337 24.5307 7.33337 18.7007C7.33337 9.57069 14.3 3.66736 22 3.66736Z" fill="#EB7160"/>
<circle cx="22.0001" cy="18.3334" r="12.2222" fill="white"/>
<g clip-path="url(#clip1_6909_93786)">
<path d="M20.5333 23.6133V19.9467H23.4666V23.6133C23.4666 24.0167 23.7966 24.3467 24.2 24.3467H26.4C26.8033 24.3467 27.1333 24.0167 27.1333 23.6133V18.48H28.38C28.7173 18.48 28.8786 18.062 28.622 17.842L22.4913 12.32C22.2126 12.0707 21.7873 12.0707 21.5086 12.32L15.378 17.842C15.1286 18.062 15.2826 18.48 15.62 18.48H16.8666V23.6133C16.8666 24.0167 17.1966 24.3467 17.6 24.3467H19.8C20.2033 24.3467 20.5333 24.0167 20.5333 23.6133Z" fill="#212427"/>
</g>
</g>
<defs>
<clipPath id="clip0_6909_93786">
<rect width="44" height="44" fill="white"/>
</clipPath>
<clipPath id="clip1_6909_93786">
<rect width="17.6" height="17.6" fill="white" transform="translate(13.2 9.67999)"/>
</clipPath>
</defs>
</svg>
