<svg width="82" height="82" viewBox="0 0 82 82" fill="none" xmlns="http://www.w3.org/2000/svg">
<circle opacity="0.1" cx="41" cy="41" r="36" fill="#FF5E5E"/>
<path d="M52.7306 36.8169H51.465V29.1286C51.465 23.5434 46.9222 19 41.3382 19C35.753 19 31.2096 23.5434 31.2096 29.1286V36.8169H29.9439C27.7659 36.8169 26 38.5821 26 40.7608V59.056C26 61.2341 27.7659 63 29.9439 63H52.7306C54.9087 63 56.6751 61.2341 56.6751 59.056V40.7608C56.6751 38.5821 54.9087 36.8169 52.7306 36.8169ZM34.7531 29.1286C34.7531 25.4977 37.7072 22.5435 41.3382 22.5435C44.9679 22.5435 47.9214 25.4977 47.9214 29.1286V36.8169H34.7531V29.1286ZM43.3556 49.7088V54.6331C43.3556 55.7476 42.4526 56.6506 41.3376 56.6506C40.2231 56.6506 39.3201 55.7476 39.3201 54.6331V49.7088C38.3752 49.0639 37.7551 47.9784 37.7551 46.7488C37.7551 44.7691 39.3591 43.1651 41.3376 43.1651C43.316 43.1651 44.9201 44.7697 44.9201 46.7488C44.9201 47.9784 44.3 49.0627 43.3556 49.7088Z" fill="#FF5E5E"/>
</svg>
