<svg width="72" height="72" viewBox="0 0 72 72" fill="none" xmlns="http://www.w3.org/2000/svg">
<circle cx="36" cy="36" r="36" fill="#6B82AB" fill-opacity="0.1"/>
<path d="M38.9647 33.7366L34.9647 31.7366C34.863 31.6858 34.75 31.6618 34.6365 31.6669C34.523 31.6721 34.4126 31.7062 34.316 31.7659C34.2193 31.8257 34.1396 31.9092 34.0843 32.0085C34.0289 32.1078 33.9999 32.2196 34 32.3332V36.3332C33.9999 36.4469 34.0289 36.5587 34.0843 36.658C34.1396 36.7572 34.2193 36.8407 34.316 36.9005C34.4126 36.9603 34.523 36.9944 34.6365 36.9995C34.75 37.0047 34.863 36.9807 34.9647 36.9299L38.9647 34.9299C39.0756 34.8746 39.1689 34.7895 39.2342 34.6841C39.2994 34.5787 39.334 34.4572 39.334 34.3332C39.334 34.2093 39.2994 34.0878 39.2342 33.9824C39.1689 33.877 39.0756 33.7919 38.9647 33.7366ZM35.3333 35.2546V33.4119L37.176 34.3332L35.3333 35.2546Z" fill="#1F3965"/>
<path d="M25.3332 39.6667H46.6665C46.8433 39.6667 47.0129 39.5964 47.1379 39.4714C47.2629 39.3464 47.3332 39.1768 47.3332 39V29.6667C47.3332 29.4899 47.2629 29.3203 47.1379 29.1953C47.0129 29.0702 46.8433 29 46.6665 29H25.3332C25.1564 29 24.9868 29.0702 24.8618 29.1953C24.7367 29.3203 24.6665 29.4899 24.6665 29.6667V39C24.6665 39.1768 24.7367 39.3464 24.8618 39.4714C24.9868 39.5964 25.1564 39.6667 25.3332 39.6667ZM25.9998 30.3333H45.9998V38.3333H25.9998V30.3333Z" fill="#1F3965"/>
<path d="M52.6667 18.5H19.3333C18.4496 18.5011 17.6024 18.8526 16.9775 19.4775C16.3526 20.1024 16.0011 20.9496 16 21.8333V47.1667C16.0011 48.0504 16.3526 48.8976 16.9775 49.5225C17.6024 50.1474 18.4496 50.4989 19.3333 50.5H30.578L30.078 54.5H28.6667C28.1362 54.5 27.6275 54.7107 27.2525 55.0858C26.8774 55.4609 26.6667 55.9696 26.6667 56.5C26.6667 57.0304 26.8774 57.5391 27.2525 57.9142C27.6275 58.2893 28.1362 58.5 28.6667 58.5H43.3333C43.8638 58.5 44.3725 58.2893 44.7475 57.9142C45.1226 57.5391 45.3333 57.0304 45.3333 56.5C45.3333 55.9696 45.1226 55.4609 44.7475 55.0858C44.3725 54.7107 43.8638 54.5 43.3333 54.5H41.922L41.422 50.5H52.6667C53.5504 50.4989 54.3976 50.1474 55.0225 49.5225C55.6474 48.8976 55.9989 48.0504 56 47.1667V21.8333C55.9989 20.9496 55.6474 20.1024 55.0225 19.4775C54.3976 18.8526 53.5504 18.5011 52.6667 18.5V18.5ZM19.3333 19.8333H52.6667C53.1971 19.8333 53.7058 20.044 54.0809 20.4191C54.456 20.7942 54.6667 21.3029 54.6667 21.8333V23.8333H17.3333V21.8333C17.3333 21.3029 17.544 20.7942 17.9191 20.4191C18.2942 20.044 18.8029 19.8333 19.3333 19.8333V19.8333ZM54.6667 25.1667V43.8333H17.3333V25.1667H54.6667ZM44 56.5C44 56.6768 43.9298 56.8464 43.8047 56.9714C43.6797 57.0964 43.5101 57.1667 43.3333 57.1667H28.6667C28.4899 57.1667 28.3203 57.0964 28.1953 56.9714C28.0702 56.8464 28 56.6768 28 56.5C28 56.3232 28.0702 56.1536 28.1953 56.0286C28.3203 55.9036 28.4899 55.8333 28.6667 55.8333H43.3333C43.5101 55.8333 43.6797 55.9036 43.8047 56.0286C43.9298 56.1536 44 56.3232 44 56.5ZM40.578 54.5H31.422L31.922 50.5H40.078L40.578 54.5ZM52.6667 49.1667H19.3333C18.8029 49.1667 18.2942 48.956 17.9191 48.5809C17.544 48.2058 17.3333 47.6971 17.3333 47.1667V45.1667H54.6667V47.1667C54.6667 47.6971 54.456 48.2058 54.0809 48.5809C53.7058 48.956 53.1971 49.1667 52.6667 49.1667Z" fill="#1F3965"/>
<path d="M21.3333 21.1667H20V22.5001H21.3333V21.1667Z" fill="#1F3965"/>
<path d="M23.9998 21.1667H22.6665V22.5001H23.9998V21.1667Z" fill="#1F3965"/>
<path d="M26.6668 21.1667H25.3335V22.5001H26.6668V21.1667Z" fill="#1F3965"/>
</svg>
