<svg width="92" height="92" viewBox="0 0 92 92" fill="none" xmlns="http://www.w3.org/2000/svg">
<circle opacity="0.1" cx="46" cy="46" r="46" fill="#2EA975"/>
<path d="M64.1863 44.0845L31.9302 20.1072L36.248 14.2979L54.6312 23.1713L68.5041 38.2752L64.1863 44.0845Z" fill="#2EA975"/>
<path d="M34.4438 44.9735L34.7831 46.9749L26.7575 48.3353L26.4183 46.3339L29.2578 45.8526L27.9308 38.0242C27.9018 37.8533 27.8756 37.6786 27.8521 37.5C27.8286 37.3214 27.8078 37.139 27.7898 36.9527L26.1805 38.828C26.0658 38.9489 25.9482 39.0331 25.8278 39.0806C25.7073 39.128 25.5896 39.1514 25.4745 39.1506C25.3583 39.1432 25.253 39.1205 25.1587 39.0824C25.0632 39.0377 24.9874 38.9897 24.9314 38.9384L23.8781 37.9302L27.6436 33.458L29.8817 33.0786L31.9691 45.393L34.4438 44.9735ZM41.9631 40.1388L41.2411 35.8796C41.2033 35.6561 41.1697 35.4184 41.1405 35.1664C41.1168 34.9067 41.098 34.636 41.084 34.3544L37.9208 40.824L41.9631 40.1388ZM45.9857 39.457L46.2465 40.995C46.271 41.1396 46.2428 41.2729 46.1621 41.3948C46.0868 41.5089 45.9637 41.5805 45.7928 41.6095L44.6787 41.7983L45.2552 45.1998L42.889 45.6009L42.3124 42.1994L36.4067 43.2005C36.2358 43.2295 36.0691 43.2036 35.9067 43.123C35.7508 43.0412 35.642 42.9177 35.5801 42.7523L35.0636 41.4402L40.2454 31.3219L42.8286 30.884L44.3294 39.7377L45.9857 39.457Z" fill="#FCBF2F"/>
<path d="M49.6224 29.9897L68.504 38.2742L63.8426 44.546L44.9609 36.2616L49.6224 29.9897Z" fill="#36B37E"/>
<path d="M58.0428 39.5177L61.3128 35.1206L57.4481 33.4233L54.7426 37.0634L52.7923 39.6876L52.7848 39.6952L56.6495 41.3925L56.657 41.383L58.0428 39.5177Z" fill="#F7F7F7"/>
<path d="M49.622 29.9907L36.2476 14.2979L31.5862 20.5697L44.9606 36.2626L49.622 29.9907Z" fill="#4AC28F"/>
<path d="M41.3738 27.1259L44.0793 23.4859L41.3436 20.2744L38.0736 24.6734L36.6879 26.5387L36.6803 26.5463L39.4179 29.7596L39.4254 29.7502L41.3738 27.1259Z" fill="white"/>
<path d="M58.356 27.389L44.0924 23.4715L41.3491 20.2676L55.6128 24.1851L58.356 27.389Z" fill="#F5F5F5"/>
<path d="M49.5919 20.8857L57.4553 33.4144L61.3144 35.1173L53.4509 22.5887L49.5919 20.8857Z" fill="#F2F2F2"/>
<path d="M43.409 15.4285C43.409 15.4285 39.8389 19.0477 51.7161 23.7507L53.1321 24.385L45.6539 14.6714L43.409 15.4285Z" fill="#DEDEDE"/>
<path d="M54.6482 21.2969C54.3965 20.5731 54.1586 19.8463 53.9345 19.1162C53.3077 17.1301 53.0358 15.093 51.55 13.4976C50.7533 12.6443 49.5261 11.6965 48.2819 12.093L48.18 12.1288C45.9616 12.9803 43.4091 15.429 43.4091 15.429C43.4091 15.429 46.0296 15.2402 47.6306 19.0162C48.5906 21.2691 50.3526 23.0855 52.5752 24.1137L54.6482 21.2969Z" fill="white"/>
<g opacity="0.08">
<path opacity="0.08" d="M52.4523 23.5258C52.1877 23.2444 51.9489 22.9398 51.7386 22.6158C51.5746 22.3118 51.5006 21.9673 51.5253 21.6227C51.7788 21.9241 52.091 22.1708 52.4428 22.3477C52.4819 22.3744 52.5265 22.3918 52.5732 22.3987C52.62 22.4055 52.6678 22.4017 52.7128 22.3874C52.7429 22.3696 52.7684 22.3449 52.7871 22.3154C52.8058 22.2858 52.8172 22.2523 52.8204 22.2174C52.826 22.1478 52.8202 22.0776 52.8034 22.0098L52.5731 20.8298C52.8306 20.9671 53.0666 21.1414 53.2735 21.3471C53.3159 21.3944 53.3656 21.4345 53.4208 21.466C53.4479 21.4823 53.4789 21.491 53.5105 21.491C53.5421 21.491 53.5731 21.4823 53.6002 21.466C53.6273 21.4356 53.6471 21.3994 53.6579 21.3601C53.6687 21.3208 53.6703 21.2795 53.6625 21.2395C53.6492 21.0205 53.6379 20.7996 53.6266 20.5806C53.9114 20.7519 54.1252 21.0199 54.2289 21.3358C54.3315 21.6496 54.3625 21.9825 54.3195 22.31C54.26 22.8297 54.0726 23.3266 53.7739 23.7561C53.6266 23.9716 53.4528 24.1676 53.2566 24.3395C53.1942 24.3962 53.0508 24.5566 52.9583 24.5453C52.8657 24.534 52.8676 24.3565 52.8487 24.2829C52.7772 24.0032 52.6414 23.744 52.4523 23.5258Z" fill="black"/>
</g>
<path d="M52.7641 23.8858C52.7641 23.8858 48.4689 25.585 42.1008 24.1142L44.6024 26.8763L41.8629 30.1992C41.8629 30.1992 47.3777 29.9537 52.0146 26.4666C56.6514 22.9796 52.7641 23.8858 52.7641 23.8858Z" fill="white"/>
<g opacity="0.08">
<path opacity="0.08" d="M51.382 24.2756C51.5674 24.3923 51.7772 24.4651 51.9951 24.4883C52.2131 24.5116 52.4334 24.4846 52.6394 24.4096L51.9068 25.1082C52.2217 25.2726 52.5813 25.3308 52.932 25.2743C53.1315 25.2483 53.3188 25.1635 53.4701 25.0307C53.544 24.9631 53.5992 24.8775 53.6303 24.7822C53.6614 24.6869 53.6673 24.5853 53.6475 24.487C53.599 24.3347 53.4944 24.2064 53.3549 24.1283C53.1548 24.0242 52.9423 23.9462 52.7224 23.8961C52.6132 23.8485 52.4933 23.8309 52.375 23.8451C52.222 23.9085 52.0769 23.9896 51.9427 24.0868C51.8577 24.1302 51.4707 24.3322 51.382 24.2756Z" fill="black"/>
</g>
<path d="M65.3622 32.3908C65.3622 32.3908 62.7606 36.7577 55.2124 26.4588L54.2477 25.2505L65.5321 30.0271L65.3622 32.3908Z" fill="#DEDEDE"/>
<path d="M56.8474 22.9946C57.6026 23.0513 58.3673 23.0966 59.1281 23.1362C59.7304 23.1664 60.3345 23.1929 60.9368 23.2023C62.3641 23.225 63.8953 23.3326 65.1866 24.0311C66.2382 24.5975 67.4994 25.5944 67.3503 26.9405C67.0878 29.3024 65.3622 32.3911 65.3622 32.3911C65.3622 32.3911 64.8921 29.8046 60.8311 29.2098C58.4081 28.8472 56.206 27.5978 54.6517 25.7039L56.8474 22.9946Z" fill="white"/>
<g opacity="0.08">
<path opacity="0.08" d="M55.2447 25.6823C55.5836 25.8678 55.9388 26.022 56.3057 26.1429C56.6409 26.2259 56.9928 26.2108 57.3196 26.0995C56.9635 25.9307 56.6455 25.691 56.385 25.3953C56.3497 25.3642 56.3219 25.3253 56.3039 25.2818C56.2859 25.2383 56.2781 25.1912 56.2812 25.1442C56.2904 25.1105 56.3075 25.0796 56.3312 25.0539C56.3548 25.0283 56.3843 25.0087 56.4171 24.9969C56.4829 24.9746 56.5516 24.9626 56.621 24.961L57.8218 24.8855C57.6232 24.6716 57.3949 24.4872 57.144 24.338C57.0883 24.3087 57.0374 24.2711 56.993 24.2266C56.971 24.2038 56.9556 24.1753 56.9486 24.1444C56.9416 24.1134 56.9433 24.0811 56.9533 24.051C56.9854 23.9755 57.0779 23.951 57.1572 23.934L57.8029 23.8018C57.5663 23.5695 57.254 23.4301 56.9231 23.4091C56.5939 23.3884 56.2641 23.442 55.9584 23.5658C55.4703 23.755 55.0364 24.0618 54.6953 24.4588C54.5256 24.6565 54.3804 24.8739 54.263 25.1064C54.2233 25.1819 54.1044 25.3613 54.1384 25.4481C54.1723 25.535 54.3385 25.4916 54.4216 25.4878C54.7072 25.4887 54.9889 25.5552 55.2447 25.6823Z" fill="black"/>
</g>
<path d="M54.7709 25.4381C54.7709 25.4381 54.2045 30.024 57.2422 35.822L53.9383 34.0983L51.416 37.5778C51.416 37.5778 50.2605 32.182 52.4638 26.8163C54.6671 21.4507 54.7709 25.4381 54.7709 25.4381Z" fill="white"/>
<g opacity="0.08">
<path opacity="0.08" d="M54.7879 26.9075C54.6286 26.7573 54.5057 26.5729 54.4285 26.368C54.3513 26.1632 54.3218 25.9435 54.3423 25.7256L53.8515 26.6111C53.614 26.3496 53.467 26.0186 53.4323 25.6671C53.4065 25.4678 53.4407 25.2653 53.5305 25.0856C53.5772 24.9969 53.6461 24.922 53.7305 24.868C53.8149 24.8141 53.9119 24.783 54.012 24.7778C54.1713 24.7846 54.322 24.8521 54.433 24.9666C54.5815 25.1352 54.7083 25.3217 54.8106 25.5217C54.8841 25.6146 54.9317 25.7253 54.9484 25.8427C54.9254 26.0074 54.8836 26.1689 54.8238 26.3241C54.8143 26.4109 54.7105 26.8357 54.7879 26.9075Z" fill="black"/>
</g>
<path d="M54.9929 25.6954C56.2112 25.5382 57.0713 24.4233 56.9142 23.2051C56.757 21.9869 55.6421 21.1267 54.4239 21.2838C53.2057 21.441 52.3455 22.5559 52.5027 23.7741C52.6598 24.9923 53.7747 25.8525 54.9929 25.6954Z" fill="#DEDEDE"/>
<path d="M61.9864 51.1865L42.561 49.2344V56.994L61.9864 51.1865Z" fill="#36B37E"/>
<path d="M23 51.1865L42.5613 49.2344V56.9958L23 51.1865Z" fill="#36B37E"/>
<path d="M28.5486 50.9267L29.6814 51.7914C29.7361 51.8329 30.4611 50.9135 30.5026 50.9437L29.3604 50.079C29.3056 50.0375 28.5826 50.9588 28.541 50.9267H28.5486Z" fill="#3D91DA"/>
<path d="M39.1929 52.6733C39.3395 52.912 39.5528 53.1026 39.8064 53.2217C40.06 53.3408 40.3429 53.3832 40.6202 53.3435C40.6731 53.3435 40.809 52.8451 40.8298 52.7771C40.8505 52.7092 40.9789 52.2202 41.0186 52.2108C40.7412 52.2504 40.4583 52.208 40.2048 52.0889C39.9512 51.9699 39.7379 51.7792 39.5913 51.5405C39.6215 51.5877 39.4025 52.0352 39.3836 52.1069C39.3647 52.1787 39.14 52.5997 39.1853 52.6733H39.1929Z" fill="white"/>
<path d="M44.6646 49.3438L44.2964 51.9643C44.287 52.0341 47.0661 52.5042 47.0623 52.5307C47.1882 51.6572 47.314 50.7836 47.4399 49.9101C47.4493 49.8403 44.6683 49.3702 44.6721 49.3438H44.6646Z" fill="#F04637"/>
<path d="M53.7778 50.9405C54.2066 51.2937 54.6602 51.6155 55.1353 51.9033C55.362 52.0866 55.6328 52.207 55.9207 52.2526C56.075 52.26 56.2292 52.2363 56.3741 52.1829C56.5191 52.1295 56.6519 52.0476 56.7646 51.9419C56.8773 51.8363 56.9676 51.7091 57.0302 51.5679C57.0928 51.4266 57.1264 51.2743 57.129 51.1198C57.0635 51.0632 56.9934 51.012 56.9194 50.9669C56.7514 50.848 56.5796 50.7309 56.4097 50.612L55.898 50.2627C55.8218 50.2216 55.7492 50.1743 55.6809 50.1211C55.68 50.3195 55.6271 50.5142 55.5273 50.6858C55.4275 50.8573 55.2844 50.9996 55.1124 51.0984C54.9403 51.1973 54.7453 51.2492 54.5469 51.2489C54.3485 51.2487 54.1536 51.1964 53.9817 51.0972L54.0837 51.1614L55.2354 51.943C55.0075 51.758 54.7671 51.589 54.516 51.437C54.2628 51.2892 54.0194 51.1252 53.7873 50.9461L53.7778 50.9405Z" fill="#3D91DA"/>
<path d="M23 73.299L41.4606 80.1863V54.0794L23 51.187V73.299Z" fill="#4AC28F"/>
<path d="M61.9865 73.299L41.4604 80.1863V54.0794L61.9865 51.187V73.299Z" fill="#2EA975"/>
<path d="M50.6892 52.7802V75.9457V77.0898L54.8012 75.7097V52.1987L50.6892 52.7802Z" fill="#F7F7F7"/>
<path d="M33.6422 52.8533L29.5283 52.2095V75.7337L33.6422 77.2686V75.9451V52.8533Z" fill="#F7F7F7"/>
</svg>
