<svg width="187" height="204" viewBox="0 0 187 204" fill="none" xmlns="http://www.w3.org/2000/svg">
<path d="M113.653 56.33H110.241V59.7519H113.653V56.33Z" fill="#C0F2FF"/>
<path d="M54.858 63.6982H51.4453V67.1199H54.858V63.6982Z" fill="#C0F2FF"/>
<path d="M62.2077 63.6982H58.7952V67.1199H62.2077V63.6982Z" fill="#C0F2FF"/>
<path d="M76.9076 63.6982H73.4933V67.1199H76.9076V63.6982Z" fill="#C0F2FF"/>
<path d="M121.003 63.6982H117.591V67.1199H121.003V63.6982Z" fill="#C0F2FF"/>
<path d="M18.1122 71.0677H14.6981V74.4896H18.1122V71.0677Z" fill="#C0F2FF"/>
<path d="M18.1122 78.4359H14.6981V81.859H18.1122V78.4359Z" fill="#C0F2FF"/>
<path d="M84.2573 78.4359H80.843V81.859H84.2573V78.4359Z" fill="#C0F2FF"/>
<path d="M3.41249 12.5007H0V15.923H3.41249V12.5007Z" fill="#C0F2FF"/>
<path d="M18.1122 12.5007H14.6981V15.923H18.1122V12.5007Z" fill="#C0F2FF"/>
<path d="M54.858 12.5007H51.4453V15.923H54.858V12.5007Z" fill="#C0F2FF"/>
<path d="M106.305 12.5007H102.893V15.923H106.305V12.5007Z" fill="#C0F2FF"/>
<path d="M40.1599 19.8705H36.7474V23.2929H40.1599V19.8705Z" fill="#C0F2FF"/>
<path d="M62.2077 19.8705H58.7952V23.2929H62.2077V19.8705Z" fill="#C0F2FF"/>
<path d="M69.5576 19.8705H66.1449V23.2929H69.5576V19.8705Z" fill="#C0F2FF"/>
<path d="M105.723 20.4525H103.473V22.7104H105.723V20.4525Z" fill="#C0F2FF"/>
<path d="M25.4619 27.2382H22.0479V30.6615H25.4619V27.2382Z" fill="#C0F2FF"/>
<path d="M40.1599 27.2382H36.7474V30.6615H40.1599V27.2382Z" fill="#C0F2FF"/>
<path d="M40.1599 48.7321H36.7474V52.1553H40.1599V48.7321Z" fill="#C0F2FF"/>
<path d="M76.9076 27.2382H73.4933V30.6615H76.9076V27.2382Z" fill="#C0F2FF"/>
<path d="M54.858 85.8057H51.4453V89.2287H54.858V85.8057Z" fill="#C0F2FF"/>
<path d="M10.7624 93.1749H7.34973V96.5984H10.7624V93.1749Z" fill="#C0F2FF"/>
<path d="M25.4619 93.1749H22.0479V96.5984H25.4619V93.1749Z" fill="#C0F2FF"/>
<path d="M62.2077 93.1749H58.7952V96.5984H62.2077V93.1749Z" fill="#C0F2FF"/>
<path d="M98.9551 93.1749H95.5426V96.5984H98.9551V93.1749Z" fill="#C0F2FF"/>
<path d="M106.305 93.1749H102.893V96.5984H106.305V93.1749Z" fill="#C0F2FF"/>
<path d="M25.4619 100.544H22.0479V103.967H25.4619V100.544Z" fill="#C0F2FF"/>
<path d="M40.1599 100.544H36.7474V103.967H40.1599V100.544Z" fill="#C0F2FF"/>
<path d="M62.2077 100.544H58.7952V103.967H62.2077V100.544Z" fill="#C0F2FF"/>
<path d="M127.771 101.126H125.521V103.385H127.771V101.126Z" fill="#C0F2FF"/>
<path d="M164.519 101.126H162.268V103.385H164.519V101.126Z" fill="#C0F2FF"/>
<path d="M84.2573 107.915H80.843V111.336H84.2573V107.915Z" fill="#C0F2FF"/>
<path d="M186.566 108.496H184.316V110.754H186.566V108.496Z" fill="#C0F2FF"/>
<path d="M40.1599 115.282H36.7474V118.704H40.1599V115.282Z" fill="#C0F2FF"/>
<path d="M113.073 115.865H110.821V118.123H113.073V115.865Z" fill="#C0F2FF"/>
<path d="M120.423 115.865H118.17V118.123H120.423V115.865Z" fill="#C0F2FF"/>
<path d="M149.821 115.865H147.568V118.123H149.821V115.865Z" fill="#C0F2FF"/>
<path d="M91.6052 122.652H88.1927V126.074H91.6052V122.652Z" fill="#C0F2FF"/>
<path d="M113.073 123.234H110.821V125.494H113.073V123.234Z" fill="#C0F2FF"/>
<path d="M164.519 123.234H162.268V125.494H164.519V123.234Z" fill="#C0F2FF"/>
<path d="M120.423 130.603H118.17V132.86H120.423V130.603Z" fill="#C0F2FF"/>
<path d="M39.5797 137.973H37.3276V140.23H39.5797V137.973Z" fill="#C0F2FF"/>
<path d="M164.519 137.973H162.268V140.23H164.519V137.973Z" fill="#C0F2FF"/>
<path d="M83.5046 152.88H81.5939V154.798H83.5046V152.88Z" fill="#C0F2FF"/>
<path d="M112.904 152.88H110.991V154.798H112.904V152.88Z" fill="#C0F2FF"/>
<path d="M120.423 152.712H118.17V154.969H120.423V152.712Z" fill="#C0F2FF"/>
<path d="M76.1566 160.25H74.2455V162.168H76.1566V160.25Z" fill="#C0F2FF"/>
<path d="M83.5046 160.25H81.5939V162.168H83.5046V160.25Z" fill="#C0F2FF"/>
<path d="M90.8545 160.25H88.942V162.168H90.8545V160.25Z" fill="#C0F2FF"/>
<path d="M149.821 35.3289H147.568V37.5872H149.821V35.3289Z" fill="#C0F2FF"/>
<path d="M157.17 35.3289H154.918V37.5872H157.17V35.3289Z" fill="#C0F2FF"/>
<path d="M10.7624 166.868H7.34973V170.288H10.7624V166.868Z" fill="#C0F2FF"/>
<path d="M47.5097 174.238H44.0972V177.658H47.5097V174.238Z" fill="#C0F2FF"/>
<path d="M62.2077 174.238H58.7952V177.658H62.2077V174.238Z" fill="#C0F2FF"/>
<path d="M98.9551 174.238H95.5426V177.658H98.9551V174.238Z" fill="#C0F2FF"/>
<path d="M10.7624 181.604H7.34973V185.028H10.7624V181.604Z" fill="#C0F2FF"/>
<path d="M18.1122 181.604H14.6981V185.028H18.1122V181.604Z" fill="#C0F2FF"/>
<path d="M113.653 181.604H110.241V185.028H113.653V181.604Z" fill="#C0F2FF"/>
<path d="M128.353 181.604H124.939V185.028H128.353V181.604Z" fill="#C0F2FF"/>
<path d="M4.41249 137H1V140.423H4.41249V137Z" fill="#C0F2FF"/>
<path d="M69.5576 188.974H66.1449V192.397H69.5576V188.974Z" fill="#C0F2FF"/>
<path d="M57.8464 31H54V34.8566H57.8464V31ZM57.4132 34.4219H54.4337V31.4347H57.4132V34.4219Z" fill="#0C5785"/>
<path d="M34.0437 56.5129H30.1973V60.3695H34.0437V56.5129ZM33.61 59.9348H30.6312V56.9475H33.61V59.9348Z" fill="#0C5785"/>
<path d="M77.3418 55.713H73.494V59.568H77.3418V55.713ZM76.9081 59.1334H73.9275V56.1475H76.9081V59.1334Z" fill="#0C5785"/>
<path d="M100.187 56.5129H96.3422V60.3695H100.187V56.5129ZM99.7535 59.9348H96.7768V56.9475H99.7547L99.7535 59.9348Z" fill="#0C5785"/>
<path d="M129.585 56.5129H125.737V60.3695H129.585V56.5129ZM129.151 59.9348H126.17V56.9475H129.151V59.9348Z" fill="#0C5785"/>
<path d="M19.3439 63.8804H15.4961V67.737H19.3439V63.8804ZM18.9115 67.3023H15.9298V64.315H18.9115V67.3023Z" fill="#0C5785"/>
<path d="M100.187 63.8804H96.3422V67.737H100.187V63.8804ZM99.7535 67.3023H96.7768V64.315H99.7547L99.7535 67.3023Z" fill="#0C5785"/>
<path d="M41.3925 71.2509H37.5463V75.1077H41.3925V71.2509ZM40.9592 74.6728H37.9798V71.6853H40.9592V74.6728Z" fill="#0C5785"/>
<path d="M63.4398 78.6184H59.5936V82.4763H63.4398V78.6184ZM63.0066 82.0419H60.0271V79.0531H63.0066V82.0419Z" fill="#0C5785"/>
<path d="M92.0385 11.8832H88.1934V15.7396H92.0385V11.8832ZM91.605 15.3049H88.6271V12.3175H91.605V15.3049Z" fill="#0C5785"/>
<path d="M121.437 11.8832H117.59V15.7396H121.437V11.8832ZM121.003 15.3049H118.023V12.3175H121.003L121.003 15.3049Z" fill="#0C5785"/>
<path d="M19.3439 20.0533H15.4961V23.9099H19.3439V20.0533ZM18.9115 23.4755H15.9298V20.4891H18.9115V23.4755Z" fill="#0C5785"/>
<path d="M56.0906 20.0533H52.2446V23.9099H56.0906V20.0533ZM55.6571 23.4755H52.6779V20.4891H55.6573L55.6571 23.4755Z" fill="#0C5785"/>
<path d="M11.8478 37H8V40.8566H11.8478V37ZM11.4154 40.4228H8.43372V37.4353H11.4154V40.4228Z" fill="#0C5785"/>
<path d="M19.3439 41.5452H15.4961V45.4032H19.3439V41.5452ZM18.9115 44.9685H15.9298V41.9797H18.9115V44.9685Z" fill="#0C5785"/>
<path d="M40.5934 40.7449H36.7469V44.6031H40.5934V40.7449ZM40.1597 44.1684H37.1804V41.1796H40.1597V44.1684Z" fill="#0C5785"/>
<path d="M85.4901 27.4211H81.6423V31.279H85.4901V27.4211ZM85.057 30.8443H82.0758V27.856H85.057V30.8443Z" fill="#0C5785"/>
<path d="M4.6455 85.9897H0.799072V89.8468H4.6455V85.9897ZM4.21223 89.413H1.23279V86.4233H4.21223V89.413Z" fill="#0C5785"/>
<path d="M26.6941 85.9897H22.8468V89.8468H26.6941V85.9897ZM26.2608 89.413H23.2801V86.4233H26.2608V89.413Z" fill="#0C5785"/>
<path d="M48.7415 85.9897H44.8955V89.8468H48.7415V85.9897ZM48.3082 89.413H45.3288V86.4233H48.3082V89.413Z" fill="#0C5785"/>
<path d="M48.7415 93.3577H44.8955V97.2158H48.7415V93.3577ZM48.3082 96.7811H45.3288V93.7923H48.3082V96.7811Z" fill="#0C5785"/>
<path d="M78.1395 93.3577H74.2917V97.2158H78.1393L78.1395 93.3577ZM77.706 96.7811H74.7252V93.7923H77.706V96.7811Z" fill="#0C5785"/>
<path d="M85.4901 93.3577H81.6423V97.2158H85.4901V93.3577ZM85.057 96.7811H82.0758V93.7923H85.057V96.7811Z" fill="#0C5785"/>
<path d="M114.885 93.3577H111.04V97.2158H114.885V93.3577ZM114.452 96.7811H111.474V93.7923H114.452V96.7811Z" fill="#0C5785"/>
<path d="M19.3439 100.728H15.4961V104.585H19.3439V100.728ZM18.9115 104.151H15.9298V101.163H18.9115V104.151Z" fill="#0C5785"/>
<path d="M100.187 100.728H96.3422V104.585H100.187V100.728ZM99.7535 104.151H96.7768V101.163H99.7547L99.7535 104.151Z" fill="#0C5785"/>
<path d="M142.904 100.508H140.22V103.201H142.904V100.508ZM142.47 102.767H140.653V100.942H142.47V102.767Z" fill="#0C5785"/>
<path d="M14.8464 113H11V116.857H14.8464V113ZM14.4132 116.422H11.4337V113.434H14.4132V116.422Z" fill="#0C5785"/>
<path d="M33.2455 107.297H29.3979V111.152H33.2455V107.297ZM32.812 110.717H29.8321V107.732H32.8129L32.812 110.717Z" fill="#0C5785"/>
<path d="M172.302 107.878H169.616V110.571H172.302V107.878ZM171.868 110.136H170.049V108.313H171.868V110.136Z" fill="#0C5785"/>
<path d="M56.0906 115.466H52.2446V119.321H56.0906V115.466ZM55.6571 118.886H52.6779V115.901H55.6573L55.6571 118.886Z" fill="#0C5785"/>
<path d="M63.4398 115.466H59.5936V119.321H63.4398V115.466ZM63.0066 118.886H60.0271V115.901H63.0066V118.886Z" fill="#0C5785"/>
<path d="M70.7907 115.466H66.9447V119.321H70.7911L70.7907 115.466ZM70.357 118.886H67.3775V115.901H70.357V118.886Z" fill="#0C5785"/>
<path d="M100.187 115.466H96.3422V119.321H100.187V115.466ZM99.7535 118.886H96.7768V115.901H99.7547L99.7535 118.886Z" fill="#0C5785"/>
<path d="M142.904 115.247H140.22V117.94H142.904V115.247ZM142.47 117.505H140.653V115.682H142.47V117.505Z" fill="#0C5785"/>
<path d="M172.302 115.247H169.616V117.94H172.302V115.247ZM171.868 117.505H170.049V115.682H171.868V117.505Z" fill="#0C5785"/>
<path d="M187 115.247H184.316V117.94H187V115.247ZM186.566 117.505H184.749V115.682H186.566V117.505Z" fill="#0C5785"/>
<path d="M128.205 122.616H125.521V125.309H128.207L128.205 122.616ZM127.772 124.875H125.954V123.05H127.772V124.875Z" fill="#0C5785"/>
<path d="M150.254 122.616H147.568V125.309H150.254V122.616ZM149.821 124.875H148.001V123.05H149.821V124.875Z" fill="#0C5785"/>
<path d="M157.604 122.616H154.918V125.309H157.604V122.616ZM157.17 124.875H155.352V123.05H157.17V124.875Z" fill="#0C5785"/>
<path d="M187 122.616H184.316V125.309H187V122.616ZM186.566 124.875H184.749V123.05H186.566V124.875Z" fill="#0C5785"/>
<path d="M106.157 129.985H103.473V132.676H106.157V129.985ZM105.724 132.242H103.907V130.419H105.724V132.242Z" fill="#0C5785"/>
<path d="M142.904 129.985H140.22V132.676H142.904V129.985ZM142.47 132.242H140.653V130.419H142.47V132.242Z" fill="#0C5785"/>
<path d="M150.254 129.985H147.568V132.676H150.254V129.985ZM149.821 132.242H148.001V130.419H149.821V132.242Z" fill="#0C5785"/>
<path d="M135.554 152.095H132.871V154.786H135.554V152.095ZM135.121 154.351H133.304V152.53H135.121V154.351Z" fill="#0C5785"/>
<path d="M142.904 152.095H140.22V154.786H142.904V152.095ZM142.47 154.351H140.653V152.53H142.47V154.351Z" fill="#0C5785"/>
<path d="M3.84621 166.25H0V170.105H3.84621V166.25ZM3.41293 169.671H0.433498V166.685H3.41293V169.671Z" fill="#0C5785"/>
<path d="M34.0437 174.42H30.1973V178.276H34.0437V174.42ZM33.61 177.842H30.6312V174.855H33.61V177.842Z" fill="#0C5785"/>
<path d="M3.84621 180.986H0V184.844H3.84621V180.986ZM3.41293 184.41H0.433498V181.421H3.41293V184.41Z" fill="#0C5785"/>
<path d="M62.6421 180.986H58.7957V184.844H62.6421V180.986ZM62.2084 184.41H59.2291V181.421H62.2084V184.41Z" fill="#0C5785"/>
<path d="M85.4901 181.788H81.6423V185.646H85.4901V181.788ZM85.057 185.211H82.0758V182.222H85.057V185.211Z" fill="#0C5785"/>
<path d="M92.838 181.788H88.9916V185.646H92.838V181.788ZM92.4041 185.211H89.4251V182.222H92.4041V185.211Z" fill="#0C5785"/>
<path d="M100.187 181.788H96.3422V185.646H100.187V181.788ZM99.7535 185.211H96.7768V182.222H99.7547L99.7535 185.211Z" fill="#0C5785"/>
<path d="M107.537 181.788H103.691V185.646H107.537V181.788ZM107.104 185.211H104.124V182.222H107.103L107.104 185.211Z" fill="#0C5785"/>
<path d="M19.3439 189.157H15.4961V193.015H19.3439V189.157ZM18.9115 192.58H15.9298V189.591H18.9115V192.58Z" fill="#0C5785"/>
<path d="M121.437 188.357H117.59V192.214H121.437V188.357ZM121.003 191.78H118.023V188.792H121.003L121.003 191.78Z" fill="#0C5785"/>
<path d="M60.8226 67.5364L61.0724 67.3415C61.1645 67.2727 61.2686 67.2039 61.3773 67.1272L62.1098 66.6152C62.3779 66.4272 62.6685 66.2235 62.9755 66.0083C63.2933 65.8096 63.6289 65.6001 63.9761 65.3834L64.5037 65.052C64.6831 64.9407 64.8589 64.8203 65.0493 64.7208L66.1864 64.0863L66.7562 63.766C66.9464 63.6609 67.1442 63.5719 67.3355 63.4749L68.4656 62.9145C68.8274 62.7231 69.1954 62.577 69.5383 62.4248L70.5068 62.0019C70.6572 61.9381 70.7986 61.8695 70.9383 61.817L71.3349 61.6681L71.9786 61.4248L72.5395 61.2121L70.2799 54.9222L69.6362 55.167L68.8971 55.4468L68.4427 55.6188C68.2827 55.6793 68.12 55.7568 67.9471 55.83L66.835 56.3143C66.4415 56.4881 66.0206 56.6586 65.604 56.8761L64.3068 57.5191C64.0871 57.6303 63.8611 57.7343 63.6425 57.8545L62.9875 58.2204L61.6828 58.9501C61.465 59.0654 61.2621 59.2032 61.0561 59.3285L60.4502 59.7084L59.3028 60.4273L58.3078 61.1217L57.4674 61.7093C57.3429 61.7983 57.2233 61.8766 57.1183 61.9556L56.8315 62.1782L56.2872 62.6011L60.3472 67.9043L60.8226 67.5364Z" fill="#1DA1F2"/>
<path d="M35.8978 106.653L35.92 106.957L42.5776 106.596L42.5574 106.332L42.5434 105.747C42.5337 105.322 42.5235 104.896 42.5235 104.896L35.8572 105.01L35.8794 105.984L35.8978 106.653Z" fill="#0C5785"/>
<path d="M42.5507 102.181L35.8895 101.901L35.8429 103.85L42.5085 103.884L42.5507 102.181Z" fill="#1DA1F2"/>
<path d="M42.6715 100.323L42.7119 99.7392L42.7441 99.4752L36.1111 98.7993L36.0749 99.102L36.0268 99.7697C35.9921 100.256 35.9573 100.742 35.9573 100.742L42.6109 101.171L42.6715 100.323Z" fill="#0C5785"/>
<path d="M42.9648 97.6252C42.9943 97.4146 43.0349 97.2056 43.06 97.0483L43.1044 96.7863L36.5227 95.718L36.4721 96.0185C36.4432 96.199 36.3979 96.4387 36.3644 96.6799L36.2485 97.6479L42.8651 98.4714L42.9648 97.6252Z" fill="#1DA1F2"/>
<path d="M43.4348 94.9539C43.5255 94.5384 43.6165 94.123 43.6165 94.123L37.1094 92.665C37.1094 92.665 37.0055 93.1413 36.9019 93.6176C36.7889 94.0919 36.7152 94.5746 36.7152 94.5746L43.2718 95.7887C43.2718 95.7887 43.3344 95.3672 43.4348 94.9539Z" fill="#0C5785"/>
<path d="M44.2776 91.4937L37.8695 89.6509L37.3634 91.5338L43.8359 93.1362L44.2776 91.4937Z" fill="#1DA1F2"/>
<path d="M44.8315 89.7178L45.009 89.1614C45.0547 89.0087 45.0958 88.9106 45.0958 88.9106L38.8078 86.6874C38.8078 86.6874 38.7616 86.8002 38.7081 86.9752C38.6546 87.1501 38.5776 87.3811 38.503 87.613C38.3536 88.0771 38.2045 88.5411 38.2045 88.5411L44.5706 90.5268L44.8315 89.7178Z" fill="#1DA1F2"/>
<path d="M79.1261 148.853L77.468 148.488L75.9342 154.993L77.8342 155.41L79.1261 148.853Z" fill="#1DA1F2"/>
<path d="M71.6392 159.699L72.3542 159.894L73.3945 160.176L76.4918 148.239L75.673 148.017L75.1099 147.865C75.0326 147.846 74.97 147.824 74.9261 147.81L74.8566 147.788L71.3174 159.601L71.4062 159.629C71.4617 159.646 71.5413 159.674 71.6392 159.699Z" fill="#1DA1F2"/>
<path d="M70.9119 153.536L71.8375 153.835L73.8975 147.477L73.0904 147.217C72.8865 147.158 72.6927 147.071 72.5429 147.017L72.2951 146.923L69.9991 153.199L70.2835 153.306C70.4553 153.368 70.6788 153.466 70.9119 153.536Z" fill="#1DA1F2"/>
<path d="M68.3416 152.571L68.6328 152.683L68.9169 152.79L71.3521 146.567L71.1039 146.474L70.8502 146.377L70.5652 146.252L69.7883 145.913L67.1223 152.04L68.0144 152.429L68.3416 152.571Z" fill="#1DA1F2"/>
<path d="M68.8625 145.512L67.3443 144.76L61.7596 155.748L63.693 156.703L68.8625 145.512Z" fill="#1DA1F2"/>
<path d="M66.452 144.293L64.9714 143.465L61.5931 149.229L63.2912 150.179L66.452 144.293Z" fill="#1DA1F2"/>
<path d="M56.7343 152.851C57.1916 153.137 57.6484 153.424 57.6484 153.424L64.1153 142.933C64.1153 142.933 63.7562 142.708 63.3966 142.483C63.2177 142.369 63.0344 142.262 62.9041 142.171L62.6872 142.019L55.8323 152.26L56.1091 152.452C56.2744 152.567 56.5062 152.706 56.7343 152.851Z" fill="#1DA1F2"/>
<path d="M50.5137 142.58L50.0476 142.135L49.5244 141.584C49.1511 141.19 48.7298 140.746 48.2705 140.261C47.3944 139.253 46.357 138.087 45.359 136.744L44.973 136.244C44.8438 136.076 44.71 135.909 44.5908 135.73L43.8459 134.66C43.5986 134.297 43.3365 133.94 43.0972 133.566L42.3902 132.433C42.1576 132.052 41.9115 131.68 41.6915 131.294C41.4753 130.906 41.2604 130.52 41.0467 130.137C40.8363 129.752 40.6154 129.376 40.4196 128.993L39.8558 127.851C39.6716 127.476 39.4906 127.107 39.3127 126.746C39.1526 126.376 38.9961 126.016 38.8432 125.663C38.5398 124.96 38.2404 124.299 38.018 123.668C37.7822 123.041 37.5665 122.467 37.3743 121.958L36.9401 120.619C36.7015 119.876 36.565 119.451 36.565 119.451L32.7228 120.593C32.7228 120.593 32.8693 121.05 33.1252 121.849C33.2548 122.248 33.4078 122.734 33.5929 123.288C33.7982 123.835 34.0302 124.453 34.283 125.126C34.5238 125.805 34.8439 126.515 35.1708 127.272C35.3351 127.65 35.5037 128.038 35.6767 128.435C35.8671 128.824 36.0615 129.22 36.2598 129.624C36.4581 130.029 36.6603 130.438 36.8664 130.852C37.0773 131.264 37.3137 131.668 37.5401 132.083C37.7697 132.495 38.001 132.91 38.2339 133.328C38.4712 133.742 38.7345 134.143 38.9846 134.552L39.7455 135.77C40.003 136.172 40.2836 136.556 40.5497 136.946L41.351 138.096C41.4797 138.289 41.6229 138.468 41.7616 138.649L42.176 139.187C43.2499 140.628 44.3622 141.882 45.3058 142.964C45.799 143.484 46.2507 143.962 46.6513 144.385C46.8511 144.596 47.0402 144.793 47.2138 144.976L47.7136 145.455L48.6647 146.363L48.8774 146.565C49.0137 146.692 49.2032 146.88 49.4407 147.094L51.2198 148.627C51.3834 148.764 51.5399 148.909 51.7081 149.037L52.1951 149.416C52.5112 149.661 52.8066 149.891 53.0608 150.088L53.9053 150.742L56.2779 147.503L57.1585 146.302L58.33 144.703L61.1063 140.914L59.8394 139.929C59.6396 139.769 59.4083 139.606 59.1752 139.405L58.4206 138.753L57.5596 138.014L56.6482 137.146L56.1614 136.683C55.9969 136.525 55.8229 136.37 55.6651 136.193L54.6574 135.13C54.4864 134.945 54.3022 134.767 54.1351 134.572L53.6246 133.974L53.1043 133.368L52.8399 133.06L52.7067 132.905L52.5815 132.743C51.1564 130.955 49.8572 129.069 48.6934 127.099C47.5505 125.119 46.5516 123.058 45.7044 120.933L45.1359 119.424C45.0361 119.179 44.9679 118.927 44.8867 118.683L44.6532 117.957L44.4246 117.25C44.3462 117.019 44.2958 116.783 44.2312 116.556L43.8761 115.236C43.8139 115.025 43.77 114.815 43.7267 114.61L43.5964 114.009C43.511 113.619 43.4296 113.249 43.3522 112.9C43.2328 112.198 43.1289 111.585 43.0433 111.081C42.9989 110.829 42.9605 110.604 42.9418 110.405L42.8828 109.904L42.8331 109.486L36.2116 110.269L36.2605 110.678L36.3193 111.17C36.345 111.363 36.3623 111.587 36.4081 111.833C36.4913 112.328 36.5925 112.929 36.7086 113.619C36.7386 113.791 36.765 113.969 36.8007 114.151L36.9226 114.711C37.0063 115.094 37.0941 115.496 37.1858 115.917C37.2314 116.127 37.2782 116.341 37.3261 116.56L37.5037 117.22C37.6243 117.668 37.7487 118.13 37.8768 118.606L37.9736 118.966C38.0084 119.086 38.0493 119.204 38.0872 119.325L38.3221 120.056C38.4839 120.547 38.6355 121.054 38.8144 121.561L39.3915 123.093C39.4907 123.351 39.5831 123.614 39.6894 123.872C39.8006 124.129 39.9123 124.387 40.0243 124.646C40.2503 125.163 40.4714 125.687 40.7058 126.208L41.4653 127.748C41.5938 128.005 41.7148 128.265 41.8498 128.517C41.9887 128.768 42.1276 129.017 42.2664 129.267C42.5454 129.765 42.8173 130.265 43.0983 130.754L43.9851 132.177C44.1316 132.412 44.2769 132.645 44.4212 132.877L44.8842 133.544C45.1909 133.986 45.4919 134.419 45.7874 134.844C45.9304 135.06 46.0944 135.256 46.2469 135.458L46.7044 136.05C47.0067 136.438 47.295 136.821 47.5847 137.183L48.4563 138.201L49.2585 139.138L50.023 139.945L50.6957 140.654C50.9057 140.871 51.0891 141.08 51.2748 141.248L52.4149 142.335L51.3998 143.424L50.5137 142.58Z" fill="#0C5785"/>
<path d="M130.336 64.706L128.853 63.1436L120.154 71.8636L121.324 73.1011L130.336 64.706Z" fill="#1DA1F2"/>
<path d="M128.256 70.8843L126.991 69.4042L122.008 73.8466L123.113 75.1397L128.256 70.8843Z" fill="#1DA1F2"/>
<path d="M124.619 77.0649C124.668 77.127 124.708 77.1806 124.733 77.2196L124.775 77.2797L134.711 70.0096L134.657 69.9333C134.624 69.8843 134.575 69.8162 134.512 69.7368L134.06 69.1488L133.401 68.2946L123.741 75.9309L124.26 76.6033L124.619 77.0649Z" fill="#0C5785"/>
<path d="M130.28 77.0426L130.784 77.8521L131.069 78.3081L131.215 78.5427L131.351 78.7862L132.346 80.575C132.484 80.8175 132.576 81.0319 132.651 81.1759L132.764 81.4056L139.432 78.0226L139.301 77.7589C139.215 77.5928 139.107 77.3473 138.949 77.0689C138.637 76.5078 138.221 75.7596 137.805 75.0113L137.648 74.7318L137.481 74.4609L137.154 73.9356C136.942 73.5953 136.744 73.2775 136.574 73.0053C136.404 72.7331 136.263 72.5063 136.163 72.3479C136.06 72.1921 135.997 72.1046 135.997 72.1046L129.779 76.2597C129.779 76.2597 129.834 76.3349 129.923 76.4709C130.009 76.6082 130.132 76.8058 130.28 77.0426Z" fill="#1DA1F2"/>
<path d="M41.309 85.6605L45.6718 87.3827L45.759 87.1495C45.8112 86.9952 45.9084 86.7776 46.0298 86.4996L46.4648 85.4961L46.7325 84.8789L47.0637 84.2112C47.1787 83.9782 47.2981 83.7358 47.422 83.4838L47.6104 83.1004L47.7065 82.9041L47.8148 82.7107L48.7249 81.0737C49.0563 80.5151 49.4223 79.952 49.7786 79.3704C49.8709 79.2271 49.9537 79.0766 50.054 78.9373L50.3497 78.5144L50.9423 77.6618L51.238 77.2345C51.3354 77.0911 51.4482 76.9594 51.5521 76.8216C51.7631 76.5483 51.9732 76.2765 52.1824 76.0061L52.4932 75.6024C52.5971 75.4689 52.6954 75.332 52.8082 75.2078L53.4536 74.4562L54.0751 73.7275C54.1741 73.6062 54.2805 73.4934 54.3872 73.3834L54.7002 73.0549L55.8582 71.8344C56.2355 71.4756 56.5816 71.1465 56.8885 70.8551L57.3167 70.4452L57.5069 70.2629C57.5687 70.2061 57.631 70.1558 57.6881 70.106L58.4117 69.4848L55.3581 65.916L54.0694 64.4103L50.4911 60.2306L49.6827 60.9277C49.563 61.034 49.4272 61.1422 49.2951 61.2695L48.8772 61.6663C48.5886 61.9426 48.2779 62.2366 47.9698 62.5308L47.5096 62.9708C47.358 63.1159 47.2067 63.2568 47.0715 63.4046L46.3184 64.1969L45.5859 64.9714L49.6256 68.7049L49.5071 68.83C49.4332 68.911 49.3204 69.0199 49.1983 69.1639L48.3016 70.2099L47.8228 70.7692C47.6708 70.9484 47.5241 71.1115 47.4126 71.2633L47.0295 71.7594L43.9598 69.3281L43.3243 70.1516C43.1365 70.4004 42.9061 70.6824 42.6806 71C42.4551 71.3176 42.22 71.6613 41.9823 72.0016C41.7445 72.3419 41.5079 72.685 41.2857 73.0055C41.1716 73.1636 41.0742 73.3251 40.9792 73.4765L40.7128 73.904L40.1626 74.7867L43.4985 76.8356L43.2617 77.2156C43.192 77.3304 43.1045 77.4604 43.0222 77.607L42.7662 78.0669L42.0697 79.3192L37.2335 76.7057L37.091 76.9629L36.9288 77.2592L36.7341 77.6516L35.694 79.7637C35.3531 80.5489 35.0123 81.3343 34.7566 81.9226L34.5833 82.325C34.5333 82.4454 34.4945 82.5526 34.4616 82.6399L34.3575 82.9152L39.4694 84.933L41.309 85.6605Z" fill="#0C5785"/>
<path d="M74.9133 60.4244C74.9576 60.4108 75.0196 60.3868 75.0968 60.3681L75.6602 60.217L76.4788 59.9955L74.7978 53.5261L73.8591 53.7802L73.2137 53.9549C73.1249 53.9772 73.0539 54.0039 73.003 54.0193L72.9233 54.0449L74.844 60.4471L74.9133 60.4244Z" fill="#0C5785"/>
<path d="M79.1128 59.3821L76.7245 47.2836L74.6202 47.7443L77.4547 59.7449L79.1128 59.3821Z" fill="#1DA1F2"/>
<path d="M80.9427 59.0637C81.152 59.0297 81.3604 58.9889 81.518 58.9685L81.7813 58.9373L80.8768 52.314L80.5751 52.3503C80.3944 52.3739 80.1554 52.4193 79.9154 52.4582L78.9565 52.6205L80.1061 59.2059L80.9427 59.0637Z" fill="#1DA1F2"/>
<path d="M83.626 58.7147L84.4728 58.6555L83.5277 46.3582L82.4538 46.4372L81.3844 46.564L82.7828 58.8175L83.626 58.7147Z" fill="#0C5785"/>
<path d="M88.0045 58.5062L89.8468 58.5507C90.2019 58.5489 90.5793 58.5917 90.9773 58.6175L92.2302 58.7065C94.2146 58.8976 96.1846 59.216 98.1283 59.6598C98.3947 59.7207 98.6663 59.771 98.9347 59.8409L99.7435 60.0613L100.563 60.2823C100.7 60.3197 100.839 60.3544 100.976 60.3936C101.112 60.4381 101.248 60.4826 101.384 60.5271L103.033 61.0592L104.666 61.6777L105.076 61.8313C105.21 61.8861 105.342 61.9475 105.476 62.0049L106.275 62.3539L107.072 62.6995C107.335 62.8204 107.59 62.9548 107.847 63.0806L108.615 63.4609C108.869 63.5893 109.128 63.704 109.37 63.8484L110.822 64.6608C112.543 65.6659 114.195 66.7848 115.767 68.0099C116.112 68.2801 116.448 68.5314 116.758 68.7827C117.06 69.0435 117.347 69.2906 117.617 69.524L118.374 70.1735C118.604 70.3778 118.803 70.5808 118.99 70.7555L120.156 71.8643L123.47 68.5407L124.868 67.1386L125.919 66.0847L128.753 63.2435L127.982 62.5064C127.751 62.2856 127.48 62.0281 127.191 61.7523C126.901 61.4765 126.596 61.1776 126.268 60.9046L124.488 59.3729C124.244 59.1657 124.027 59.0088 123.882 58.8917L123.65 58.7114L122.954 58.1708L122.155 57.5516C121.841 57.3204 121.476 57.0722 121.083 56.7949L119.81 55.9069C119.35 55.6044 118.854 55.3015 118.345 54.9806C117.339 54.3213 116.207 53.7173 115.089 53.0888C114.812 52.9274 114.522 52.7903 114.236 52.6472L113.383 52.2243C112.816 51.9468 112.266 51.6586 111.71 51.4289C110.608 50.9493 109.585 50.487 108.679 50.1654C107.779 49.8289 107.035 49.5302 106.497 49.3713L105.66 49.0995L104.435 52.9241L105.214 53.1765C105.715 53.3231 106.406 53.6031 107.244 53.9156C108.087 54.213 109.037 54.6456 110.062 55.0905C110.58 55.3029 111.091 55.5726 111.618 55.8303C111.881 55.961 112.146 56.0923 112.412 56.224C112.679 56.3576 112.948 56.4836 113.205 56.6344C114.244 57.22 115.298 57.7789 116.233 58.3927C116.705 58.6914 117.167 58.9714 117.596 59.2534L118.78 60.0802C119.145 60.3379 119.484 60.568 119.777 60.7833L120.521 61.3599L121.168 61.8629L120.247 63.0329L119.004 62.0672C118.81 61.9083 118.576 61.7583 118.331 61.5829L117.53 61.023C117.243 60.8249 116.942 60.607 116.616 60.39L115.573 59.7357C115.208 59.5089 114.832 59.2683 114.436 59.0272L113.185 58.3275L112.533 57.9627C112.422 57.9022 112.313 57.837 112.2 57.7793L111.855 57.6082L110.438 56.906C109.963 56.6572 109.457 56.4522 108.951 56.2292L108.188 55.8967C107.93 55.7889 107.677 55.6641 107.412 55.5706C106.356 55.1796 105.297 54.7411 104.2 54.4133C102.07 53.7141 99.8979 53.1531 97.6964 52.7338C97.1678 52.6448 96.6487 52.5569 96.139 52.4701C95.8842 52.4289 95.6334 52.381 95.3844 52.347L94.6428 52.258L93.2209 52.087C92.9916 52.0548 92.7643 52.0445 92.5419 52.0272L91.8869 51.9802L90.659 51.8912C90.2687 51.8665 89.8974 51.8689 89.5491 51.8567L88.5725 51.8344C88.2708 51.8288 87.9938 51.8148 87.7437 51.8266L86.1713 51.8642L86.4028 58.5454L88.0045 58.5062Z" fill="#0C5785"/>
<path d="M87.6999 50.3365C87.8094 50.3365 87.9663 50.3256 88.153 50.3336L89.5274 50.3661C90.027 50.3828 90.5275 50.3786 90.9011 50.4155L91.5246 50.46L91.787 46.4508L91.1173 46.4036C90.716 46.3651 90.1784 46.3678 89.6417 46.3497L88.1645 46.3155C87.9632 46.3077 87.7954 46.3177 87.678 46.3183L87.4933 46.3226L87.5277 50.3405L87.6999 50.3365Z" fill="#1DA1F2"/>
<path d="M125.916 139.99L126.313 139.571L126.566 139.303C126.656 139.21 126.751 139.109 126.844 138.996C127.225 138.551 127.688 138.01 128.219 137.391C128.492 137.087 128.744 136.732 129.027 136.373L129.908 135.232C130.066 135.037 130.207 134.822 130.357 134.609L130.813 133.954C130.967 133.731 131.124 133.505 131.284 133.276L131.525 132.929C131.604 132.811 131.677 132.688 131.754 132.566L132.691 131.063L132.931 130.675L133.155 130.273C133.305 130.003 133.457 129.731 133.609 129.457C133.762 129.183 133.916 128.906 134.071 128.627C134.151 128.489 134.223 128.346 134.293 128.201C134.362 128.056 134.435 127.912 134.506 127.768C134.79 127.187 135.088 126.604 135.367 126.006C135.629 125.401 135.893 124.792 136.159 124.179C136.224 124.025 136.295 123.874 136.354 123.718L136.532 123.248L136.886 122.307C137.003 121.994 137.124 121.681 137.237 121.366L137.545 120.411C137.647 120.093 137.749 119.776 137.851 119.46L138.002 118.986L138.131 118.508C138.302 117.87 138.472 117.239 138.641 116.614C138.78 115.983 138.917 115.359 139.052 114.745C139.198 114.133 139.288 113.521 139.39 112.925C139.44 112.627 139.49 112.332 139.539 112.041C139.563 111.895 139.587 111.75 139.611 111.606L139.663 111.174C139.731 110.603 139.798 110.047 139.863 109.508L139.909 109.107L139.938 108.712C139.957 108.452 139.975 108.196 139.993 107.945C140.026 107.443 140.069 106.963 140.09 106.506C140.101 106.048 140.112 105.613 140.121 105.205C140.13 104.797 140.143 104.414 140.146 104.061L140.123 103.09L140.091 101.729C140.091 101.572 140.075 101.452 140.071 101.371L140.062 101.248L133.402 101.614L133.41 101.721C133.413 101.791 133.428 101.896 133.427 102.032C133.434 102.307 133.443 102.709 133.455 103.221C133.461 103.476 133.468 103.76 133.477 104.068C133.473 104.377 133.461 104.71 133.455 105.067C133.448 105.423 133.438 105.802 133.429 106.202C133.41 106.601 133.371 107.02 133.342 107.458C133.035 111.741 132.124 115.959 130.634 119.985L130.326 120.805L130.173 121.214C130.122 121.351 130.059 121.481 130.002 121.616C129.771 122.15 129.541 122.681 129.313 123.209C129.069 123.729 128.808 124.236 128.562 124.742L128.377 125.121C128.317 125.247 128.254 125.372 128.183 125.492L127.78 126.214C127.647 126.453 127.515 126.69 127.385 126.926L127.191 127.277L126.981 127.614L126.165 128.924C126.098 129.03 126.035 129.138 125.965 129.24L125.754 129.542L125.342 130.133L124.946 130.705C124.815 130.891 124.694 131.08 124.555 131.249L123.785 132.243C123.538 132.556 123.321 132.868 123.081 133.132C122.617 133.673 122.214 134.145 121.881 134.534C121.8 134.633 121.717 134.721 121.637 134.803L121.415 135.035L121.067 135.401L120.778 135.706L125.585 140.34L125.916 139.99Z" fill="#0C5785"/>
<path d="M133.801 139.191C134.111 138.784 134.503 138.299 134.902 137.705C135.106 137.412 135.322 137.101 135.551 136.771C135.665 136.606 135.782 136.437 135.902 136.264C136.022 136.091 136.147 135.916 136.261 135.728C136.724 134.98 137.239 134.178 137.754 133.312C137.999 132.872 138.251 132.42 138.509 131.957C138.762 131.493 139.038 131.027 139.272 130.529C139.516 130.036 139.763 129.535 140.013 129.027C140.272 128.523 140.495 127.995 140.724 127.465C140.953 126.936 141.184 126.401 141.416 125.865C141.622 125.318 141.829 124.77 142.037 124.221L142.346 123.397C142.45 123.124 142.53 122.841 142.623 122.565C142.802 122.009 142.98 121.455 143.156 120.905C143.249 120.631 143.323 120.354 143.397 120.077C143.47 119.801 143.546 119.526 143.619 119.254L143.837 118.439C143.907 118.169 143.988 117.903 144.041 117.634C144.159 117.097 144.274 116.569 144.387 116.052L144.553 115.285C144.608 115.032 144.642 114.779 144.688 114.532C144.772 114.035 144.853 113.553 144.932 113.085L145.046 112.395L145.127 111.727C145.179 111.291 145.229 110.874 145.277 110.475C145.321 110.077 145.378 109.7 145.397 109.344C145.448 108.631 145.493 108.01 145.53 107.498C145.547 107.243 145.567 107.014 145.574 106.816L145.587 106.31L145.598 105.889L141.592 105.766L141.582 106.158L141.571 106.629C141.564 106.814 141.545 107.026 141.529 107.265C141.495 107.741 141.454 108.319 141.406 108.982C141.39 109.314 141.335 109.664 141.295 110.035C141.251 110.406 141.204 110.794 141.156 111.201L141.081 111.823L140.974 112.464C140.901 112.899 140.825 113.348 140.747 113.811C140.706 114.042 140.674 114.279 140.623 114.513C140.571 114.747 140.52 114.986 140.467 115.226C140.362 115.707 140.255 116.198 140.146 116.698C140.097 116.949 140.021 117.196 139.955 117.448L139.752 118.204L139.545 118.971C139.477 119.228 139.408 119.487 139.322 119.741C139.157 120.252 138.991 120.767 138.825 121.285C138.738 121.543 138.665 121.805 138.567 122.06L138.279 122.825C138.086 123.336 137.894 123.846 137.701 124.355C137.485 124.854 137.271 125.35 137.058 125.843C136.844 126.336 136.638 126.828 136.396 127.296C136.164 127.768 135.935 128.233 135.708 128.693C135.492 129.156 135.234 129.589 134.998 130.021L134.296 131.281C133.817 132.086 133.337 132.832 132.907 133.528C132.803 133.704 132.685 133.866 132.574 134.027L132.247 134.498L131.643 135.366C131.274 135.919 130.908 136.369 130.619 136.747L129.702 137.933L132.815 140.464L133.801 139.191Z" fill="#1DA1F2"/>
<path d="M130.774 88.619C130.851 88.8218 130.942 89.0497 131.018 89.3061C131.182 89.8144 131.374 90.4078 131.578 91.0434C131.753 91.6889 131.939 92.3757 132.125 93.0637C132.176 93.2344 132.21 93.4095 132.248 93.5829C132.286 93.7563 132.323 93.9292 132.359 94.1008C132.434 94.4433 132.508 94.7807 132.58 95.107C132.659 95.4317 132.699 95.7524 132.753 96.0547C132.804 96.3569 132.852 96.6425 132.896 96.9062C132.94 97.17 132.985 97.411 133.016 97.626L133.081 98.1851L133.139 98.6718L139.759 97.8788L139.693 97.3211L139.616 96.6805C139.582 96.4342 139.53 96.158 139.481 95.8553L139.316 94.8795C139.255 94.5339 139.205 94.166 139.117 93.7934C139.035 93.4191 138.951 93.0325 138.865 92.6394L138.736 92.0461C138.691 91.8473 138.652 91.6468 138.595 91.4505C138.38 90.6622 138.174 89.8703 137.966 89.1341C137.732 88.4047 137.513 87.7241 137.325 87.1408C137.236 86.8472 137.134 86.5855 137.046 86.3525L136.819 85.7491L136.621 85.2234L130.405 87.6353L130.577 88.0936L130.774 88.619Z" fill="#1DA1F2"/>
<path d="M138.658 86.4281C138.747 86.7049 138.875 87.1006 139.028 87.5756C139.104 87.8131 139.187 88.0704 139.274 88.3426L139.407 88.7612C139.45 88.905 139.488 89.0539 139.529 89.2041C139.691 89.805 139.864 90.4485 140.037 91.091C140.083 91.2508 140.12 91.4128 140.154 91.5751L140.259 92.058L140.464 92.9973C140.531 93.3022 140.593 93.5968 140.654 93.8762C140.701 94.1579 140.747 94.4243 140.787 94.6703C140.953 95.6544 141.063 96.3101 141.063 96.3101L145.028 95.7301C145.028 95.7301 144.91 95.0253 144.733 93.9679L144.588 93.1148C144.523 92.8145 144.454 92.4978 144.385 92.17C144.315 91.8422 144.24 91.5045 144.165 91.1607L144.05 90.6419C144.014 90.4676 143.974 90.2935 143.925 90.1215C143.739 89.4316 143.553 88.7416 143.379 88.0935C143.335 87.9319 143.294 87.7721 143.248 87.6177L143.104 87.1674L142.84 86.3439C142.675 85.8336 142.538 85.4092 142.44 85.1107C142.396 84.9609 142.346 84.8479 142.318 84.7686L142.274 84.6484L138.5 85.9992L138.542 86.1105C138.57 86.1837 138.616 86.2885 138.658 86.4281Z" fill="#0C5785"/>
<path d="M83.0371 156.175L84.0109 156.245C84.7065 156.291 85.49 156.368 86.3484 156.372L87.6864 156.404C87.802 156.405 87.9186 156.411 88.036 156.41L88.3911 156.401L89.1178 156.384C89.6093 156.369 90.1145 156.366 90.6299 156.341L92.2058 156.228L93.0142 156.168L93.8311 156.07L95.4925 155.87L97.1692 155.586C97.4497 155.537 97.7319 155.494 98.0126 155.44L98.8506 155.257C99.4088 155.132 99.9695 155.017 100.523 154.884L102.166 154.439C102.437 154.362 102.711 154.298 102.976 154.212L103.768 153.956C104.293 153.784 104.814 153.622 105.322 153.449C107.163 152.79 108.967 152.032 110.727 151.179C112.281 150.444 113.511 149.71 114.388 149.228C114.819 148.972 115.148 148.756 115.377 148.616L115.726 148.397L118.651 153.06L119.556 152.491C120.092 152.14 120.786 151.641 121.487 151.154L122.009 150.787C122.18 150.665 122.341 150.534 122.5 150.413L123.366 149.742L124.209 149.086L120.753 144.804L119.508 143.262L116.558 139.607L115.29 140.591C114.896 140.918 114.376 141.255 113.796 141.667L113.346 141.982C113.19 142.089 113.035 142.208 112.864 142.309L111.8 142.974L111.234 143.33C111.044 143.456 110.834 143.557 110.631 143.675L109.357 144.387C109.142 144.516 108.91 144.62 108.681 144.736L107.982 145.082L107.268 145.438C107.028 145.558 106.775 145.655 106.526 145.767C104.443 146.706 102.29 147.478 100.086 148.077L99.2428 148.305L98.821 148.42L98.3947 148.513L96.7015 148.885C95.5684 149.071 94.4581 149.286 93.3683 149.392L92.5607 149.49L92.361 149.514L92.1612 149.529L91.765 149.556L90.2261 149.668L88.7654 149.703L88.0702 149.722C87.8424 149.724 87.6191 149.712 87.4005 149.708L86.1446 149.678C85.7451 149.68 85.3691 149.634 85.0142 149.613L84.0206 149.542C83.8673 149.53 83.7197 149.524 83.5794 149.509L83.1798 149.46L81.5868 149.269L80.6545 155.888L82.2163 156.076C82.4631 156.107 82.7381 156.143 83.0371 156.175Z" fill="#1DA1F2"/>
<path d="M108.896 157.984L109.559 157.733C109.794 157.643 110.034 157.53 110.287 157.423L111.863 156.736C111.997 156.677 112.131 156.619 112.265 156.56L112.655 156.367L113.414 155.992L114.757 155.325L116.038 154.612L114.086 151.103L112.896 151.765L111.646 152.385L110.941 152.735L110.578 152.914L110.204 153.077C109.705 153.295 109.205 153.513 108.738 153.716C108.503 153.816 108.279 153.922 108.061 154.005L107.444 154.238L106.171 154.72L107.527 158.501L108.896 157.984Z" fill="#1DA1F2"/>
<path d="M95.906 161.368C96.0325 161.35 96.1877 161.338 96.3633 161.307L96.9533 161.209C97.8171 161.057 98.9756 160.89 100.114 160.618C100.685 160.491 101.258 160.371 101.791 160.245L103.238 159.854L104.261 159.576C104.386 159.544 104.481 159.512 104.546 159.491L104.646 159.459L103.492 155.612L103.399 155.642C103.338 155.661 103.25 155.691 103.134 155.721L102.182 155.979L100.836 156.342C100.339 156.459 99.8062 156.571 99.2748 156.689C98.2158 156.944 97.1373 157.097 96.3335 157.239L95.7844 157.332C95.621 157.36 95.4767 157.371 95.3589 157.388L94.9873 157.432L95.5074 161.416L95.906 161.368Z" fill="#0C5785"/>
<path d="M86.6088 161.888L87.4523 161.908C87.7408 161.914 88.032 161.924 88.3241 161.912L90.0406 161.872C90.3145 161.863 90.5793 161.861 90.8299 161.848L91.536 161.798L92.9936 161.693L92.6482 157.69L91.2916 157.788L90.6343 157.835C90.4008 157.847 90.1542 157.848 89.8994 157.857C89.3889 157.869 88.8455 157.882 88.3013 157.895C88.0294 157.907 87.7572 157.897 87.4895 157.891L86.7033 157.872C86.1928 157.858 85.7174 157.853 85.3101 157.833L83.9532 157.736L83.6533 161.742L85.111 161.846C85.5496 161.867 86.0612 161.873 86.6088 161.888Z" fill="#1DA1F2"/>
<path d="M111.946 110.757L111.902 110.93C111.885 110.992 111.861 111.058 111.84 111.13L111.688 111.608L111.511 112.176L111.279 112.797L111.158 113.125C111.116 113.236 111.079 113.35 111.029 113.459L110.74 114.131L110.596 114.468C110.548 114.58 110.49 114.688 110.438 114.797C110.332 115.014 110.228 115.227 110.128 115.433C110.032 115.642 109.919 115.834 109.817 116.019C109.715 116.203 109.62 116.378 109.531 116.539C109.487 116.619 109.447 116.698 109.403 116.769L109.277 116.971L109.074 117.301L108.896 117.587L112.048 119.606L112.251 119.277L112.484 118.899L112.627 118.667C112.678 118.585 112.723 118.494 112.775 118.403L113.104 117.806C113.219 117.593 113.348 117.373 113.459 117.134L113.816 116.403C113.875 116.278 113.94 116.154 113.997 116.026L114.163 115.639L114.493 114.867C114.551 114.741 114.594 114.61 114.642 114.483L114.782 114.106L115.046 113.394C115.119 113.164 115.187 112.945 115.251 112.744L115.424 112.195C115.449 112.113 115.475 112.037 115.495 111.965L115.546 111.768L115.644 111.394L112.03 110.431L111.946 110.757Z" fill="#1DA1F2"/>
<path d="M109.669 84.8249L109.555 84.6974L106.721 87.1425L106.82 87.2538L107.026 87.5088L107.325 87.8801L110.248 85.542C110.248 85.542 110.077 85.3292 109.905 85.1169L109.669 84.8249Z" fill="#0C5785"/>
<path d="M108.239 89.0944L111.296 86.9334L110.65 86.052L107.677 88.3244L108.239 89.0944Z" fill="#1DA1F2"/>
<path d="M108.82 89.9623L109.001 90.2356L109.077 90.3638L112.255 88.3878L112.168 88.2412L111.961 87.9274L111.66 87.4716L108.557 89.5637L108.82 89.9623Z" fill="#0C5785"/>
<path d="M109.61 91.2612C109.669 91.365 109.721 91.4718 109.766 91.5506L109.835 91.6823L113.124 89.8985L113.044 89.7476C112.995 89.6574 112.933 89.5355 112.867 89.4169L112.588 88.947L109.367 90.8522L109.61 91.2612Z" fill="#1DA1F2"/>
<path d="M110.313 92.6093L110.516 93.0408L113.905 91.4557L113.672 90.961C113.561 90.7117 113.428 90.4713 113.428 90.4713L110.101 92.1819C110.101 92.1819 110.217 92.3912 110.313 92.6093Z" fill="#0C5785"/>
<path d="M111.12 94.436L114.596 93.0561L114.179 92.0457L110.756 93.5546L111.12 94.436Z" fill="#1DA1F2"/>
<path d="M111.48 95.415L111.591 95.7231C111.622 95.8067 111.638 95.8644 111.638 95.8644L115.189 94.6944C115.189 94.6944 115.171 94.6276 115.135 94.5321L115.009 94.1785L114.825 93.6635L111.318 94.9661L111.48 95.415Z" fill="#1DA1F2"/>
<path d="M76.0585 80.9107L76.9197 80.5056L75.3815 77.087L74.396 77.5544L76.0585 80.9107Z" fill="#1DA1F2"/>
<path d="M75.6837 73.5231L75.2995 73.6818L74.7412 73.9139L77.4394 80.2793L77.8787 80.0965L78.1806 79.9706C78.2212 79.9523 78.2567 79.941 78.2811 79.9321L78.3197 79.9183L75.8604 73.4557L75.8115 73.4735C75.7807 73.4855 75.7358 73.5004 75.6837 73.5231Z" fill="#1DA1F2"/>
<path d="M78.1106 76.0119L77.5972 76.1964L78.8522 79.7283L79.2994 79.5667C79.4104 79.5222 79.526 79.4955 79.6102 79.4674L79.752 79.424L78.6297 75.8477L78.4666 75.8975C78.3705 75.9298 78.2378 75.9627 78.1106 76.0119Z" fill="#1DA1F2"/>
<path d="M79.5815 75.558L79.4144 75.6088L79.2512 75.6584L80.2945 79.2591L80.4365 79.2146L80.5821 79.17L80.7515 79.128L81.2125 79.0122L80.3056 75.3749L79.7766 75.5084L79.5815 75.558Z" fill="#1DA1F2"/>
<path d="M81.7586 78.8743L82.6909 78.6873L81.4213 71.888L80.236 72.1284L81.7586 78.8743Z" fill="#1DA1F2"/>
<path d="M83.2481 78.5872L84.187 78.4469L83.7208 74.7279L82.6421 74.8882L83.2481 78.5872Z" fill="#1DA1F2"/>
<path d="M84.6435 71.4504L84.0417 71.5094L84.7496 78.39L85.2224 78.343C85.3409 78.3323 85.4588 78.3167 85.5476 78.3127L85.6961 78.3058L85.2461 71.4037L85.0575 71.413C84.9443 71.419 84.794 71.4371 84.6435 71.4504Z" fill="#1DA1F2"/>
<path d="M90.9122 73.8791L91.2715 73.9174L91.6933 73.9828L92.7021 74.1404C93.4346 74.2877 94.2943 74.4495 95.1957 74.7032L95.5377 74.7923C95.6527 74.8227 95.7692 74.851 95.8831 74.8895L96.5794 75.1096C96.8131 75.1857 97.0515 75.2543 97.2855 75.3384L97.9864 75.5993C98.2195 75.6883 98.4559 75.7695 98.6854 75.8663L99.367 76.1597C99.5921 76.2585 99.8185 76.3498 100.036 76.4528C100.254 76.5559 100.466 76.6633 100.676 76.7666L101.295 77.0713C101.492 77.1804 101.685 77.2869 101.872 77.3909C102.247 77.5995 102.606 77.7915 102.92 77.9945L103.789 78.5333L104.439 78.9785C104.799 79.2268 105.004 79.3684 105.004 79.3684L106.321 77.5434L105.714 77.1234C105.52 76.9899 105.286 76.8272 105.015 76.6447L104.081 76.0649C103.743 75.8461 103.358 75.64 102.954 75.4159L102.333 75.0729L101.667 74.7446L100.979 74.4074C100.745 74.2962 100.502 74.198 100.26 74.0919L99.5273 73.7767C99.2805 73.6741 99.0266 73.5862 98.776 73.4905L98.0213 73.21C97.7696 73.1199 97.5136 73.0456 97.2626 72.9639L96.5139 72.7275C96.3909 72.6866 96.2662 72.6559 96.1428 72.6229L95.775 72.5261C94.8061 72.2544 93.8838 72.079 93.0961 71.9218L92.0131 71.7525C91.852 71.7273 91.701 71.7044 91.5614 71.6828L91.1759 71.6412L90.4434 71.5646L90.28 71.5477C90.1761 71.5379 90.0276 71.5197 89.8492 71.5059L88.5356 71.4353C88.4162 71.4307 88.2968 71.4197 88.1789 71.4206L87.8331 71.4191L87.2198 71.4173H86.6205L86.6715 73.6701L86.6904 74.506L86.7157 75.6189L86.7752 78.2547L87.6746 78.2578C87.8175 78.2602 87.976 78.2531 88.1485 78.2627L88.7063 78.2932L89.3411 78.3261L90.0423 78.3991L90.4165 78.4379C90.5437 78.4514 90.6738 78.4601 90.8043 78.4848L91.6151 78.6119C91.7539 78.6342 91.8961 78.6511 92.0369 78.6802L92.4657 78.7706L92.9041 78.8616L93.1261 78.9075L93.237 78.9297L93.348 78.9587C94.5917 79.2642 95.8127 79.6563 97.002 80.132C98.1858 80.6197 99.3329 81.1924 100.434 81.8457L101.202 82.3211C101.33 82.3953 101.446 82.4841 101.566 82.5646L101.917 82.8075L102.26 83.0427C102.374 83.1186 102.477 83.2058 102.583 83.2846L103.192 83.7491C103.291 83.8212 103.382 83.8996 103.472 83.9759L103.735 84.1985L104.221 84.6075L104.979 85.3102C105.085 85.4068 105.179 85.4936 105.255 85.5753L105.452 85.7778L105.617 85.9463L108.292 83.3262L108.13 83.1611L107.936 82.963C107.859 82.886 107.775 82.7923 107.67 82.6991L106.927 82.0091C106.855 81.9423 106.782 81.8729 106.705 81.8041L106.461 81.5974C106.293 81.456 106.117 81.3076 105.932 81.1522L105.65 80.9148L105.346 80.6824C105.14 80.5248 104.927 80.3622 104.707 80.1946L104.542 80.0681C104.485 80.0267 104.427 79.988 104.369 79.9475L104.015 79.7027C103.775 79.5398 103.535 79.3666 103.283 79.2028L102.503 78.7201C102.371 78.6393 102.24 78.5543 102.105 78.4752L101.692 78.2464C101.415 78.0942 101.137 77.9371 100.856 77.7864L99.993 77.3624C99.8485 77.2928 99.706 77.2184 99.5597 77.1528L99.1187 76.9627C98.8248 76.8372 98.5333 76.7083 98.2415 76.5875L97.3618 76.2594L96.9294 76.0985L96.4957 75.9607L95.6509 75.6936C95.5137 75.6469 95.3737 75.6157 95.2374 75.5786L94.8319 75.4722C94.5655 75.4034 94.3062 75.3324 94.055 75.2719L93.3203 75.1185L92.6444 74.9779L92.0291 74.8817C91.836 74.8521 91.6556 74.8239 91.488 74.7974C91.3208 74.7729 91.1679 74.7431 91.028 74.7322L90.1506 74.6405L90.2299 73.8083L90.9122 73.8791Z" fill="#0C5785"/>
<path d="M82.0294 135.871L83.2214 136.055L84.1092 129.196L83.1681 129.047L82.0294 135.871Z" fill="#1DA1F2"/>
<path d="M80.8441 132.412L81.9118 132.635L82.6087 128.951L81.6765 128.755L80.8441 132.412Z" fill="#1DA1F2"/>
<path d="M80.3514 128.417C80.307 128.406 80.2723 128.396 80.2477 128.387L80.2089 128.375L78.2758 135.015L78.3255 135.03C78.3568 135.041 78.4021 135.054 78.4571 135.068L78.8589 135.174L79.4433 135.327L81.1282 128.619L80.6679 128.499L80.3514 128.417Z" fill="#0C5785"/>
<path d="M77.8431 130.369L77.3428 130.182L77.0607 130.078L76.9155 130.024L76.7721 129.962L75.7196 129.509C75.5755 129.448 75.4614 129.385 75.3789 129.346L75.2501 129.283L73.4429 133.074L73.5907 133.147C73.6859 133.191 73.8175 133.263 73.9831 133.333L75.1935 133.855L75.3586 133.925L75.5253 133.987L75.8496 134.109L76.425 134.323C76.5934 134.386 76.7339 134.437 76.8321 134.474C76.9302 134.511 76.9888 134.525 76.9888 134.525L78.333 130.545C78.333 130.545 78.283 130.531 78.1969 130.501L77.8431 130.369Z" fill="#1DA1F2"/>
<path d="M114.43 96.0088L111.904 96.7408L111.945 96.8744C111.974 96.961 112.005 97.0909 112.046 97.2561L112.195 97.8512L112.287 98.2173L112.368 98.6277L112.457 99.0729L112.504 99.3079L112.529 99.4281L112.546 99.5511C112.595 99.8819 112.647 100.23 112.701 100.591C112.745 100.953 112.774 101.329 112.814 101.709C112.822 101.804 112.836 101.9 112.84 101.996L112.853 102.285L112.88 102.867L112.895 103.159C112.9 103.256 112.895 103.353 112.896 103.45L112.895 104.029V104.315C112.895 104.41 112.897 104.504 112.889 104.598C112.879 104.786 112.869 104.971 112.859 105.154L112.831 105.692C112.829 105.78 112.82 105.866 112.81 105.951L112.783 106.205L112.685 107.145L112.562 107.933L112.511 108.263L112.489 108.409C112.481 108.455 112.471 108.499 112.462 108.541L112.353 109.065L114.928 109.602L116.014 109.828L119.031 110.458L119.151 109.871C119.168 109.782 119.191 109.688 119.206 109.586L119.257 109.266L119.365 108.571L119.419 108.217C119.437 108.101 119.456 107.986 119.465 107.874L119.53 107.264L119.591 106.668L116.522 106.395L116.532 106.299C116.537 106.238 116.55 106.151 116.556 106.045L116.597 105.273L116.619 104.86C116.625 104.728 116.635 104.605 116.632 104.499L116.634 104.148L118.827 104.174C118.827 104.174 118.827 103.941 118.829 103.591C118.827 103.416 118.833 103.213 118.825 102.993C118.817 102.773 118.804 102.541 118.793 102.308L118.76 101.623C118.757 101.513 118.745 101.408 118.736 101.308L118.708 101.027L118.651 100.446L116.47 100.68L116.446 100.43C116.437 100.355 116.432 100.267 116.418 100.174L116.374 99.8819L116.256 99.0864L119.297 98.5881L119.272 98.4248L119.244 98.2374L119.196 97.9963C119.126 97.6429 119.031 97.1728 118.937 96.701C118.821 96.2352 118.704 95.7691 118.617 95.4197L118.556 95.1816C118.538 95.111 118.518 95.0502 118.503 94.9999L118.455 94.8419L115.495 95.6997L114.43 96.0088Z" fill="#0C5785"/>
<path d="M108.114 118.752C108.099 118.775 108.08 118.805 108.052 118.84L107.852 119.101L107.563 119.479L110.52 121.778L110.85 121.343L111.077 121.044C111.109 121.004 111.131 120.967 111.149 120.943L111.175 120.904L108.137 118.719L108.114 118.752Z" fill="#0C5785"/>
<path d="M106.603 120.656L111.795 125.212L112.572 124.286L107.216 119.926L106.603 120.656Z" fill="#1DA1F2"/>
<path d="M105.9 121.426C105.818 121.513 105.74 121.603 105.678 121.666L105.571 121.77L108.235 124.402L108.357 124.283C108.429 124.21 108.519 124.108 108.613 124.008L108.983 123.608L106.225 121.076L105.9 121.426Z" fill="#1DA1F2"/>
<path d="M104.827 122.502L104.471 122.819L109.088 127.958C109.088 127.958 109.314 127.756 109.539 127.554C109.755 127.343 109.97 127.132 109.97 127.132L105.166 122.168L104.827 122.502Z" fill="#0C5785"/>
<path d="M102.952 124.097L102.119 124.709C101.961 124.832 101.779 124.942 101.594 125.068C101.409 125.193 101.212 125.322 101.007 125.458C100.06 126.054 99.0764 126.589 98.0614 127.059C97.9225 127.123 97.7847 127.194 97.6413 127.255C97.4979 127.316 97.3527 127.374 97.2067 127.435L96.7674 127.617C96.6935 127.648 96.6202 127.68 96.5454 127.709L96.3186 127.79L95.4041 128.12L94.4676 128.405L94.2332 128.478C94.1546 128.5 94.075 128.518 93.9959 128.538L93.5218 128.657L93.0495 128.778C92.8919 128.814 92.7327 128.841 92.5754 128.874L92.1043 128.968C91.9479 128.998 91.7936 129.035 91.6371 129.055L90.7144 129.193C89.6069 129.336 88.491 129.406 87.3743 129.402C87.1288 129.4 86.8939 129.404 86.6702 129.398L86.0358 129.364L85.4778 129.335C85.3056 129.323 85.1482 129.301 85.0055 129.288L84.1089 129.195L83.7707 131.81L83.6279 132.913L83.5207 133.742L83.2322 135.977L83.8262 136.04L84.4352 136.103C84.6572 136.126 84.8954 136.155 85.1346 136.164L86.4482 136.233C86.6274 136.241 86.777 136.237 86.8817 136.239H87.0462L87.5399 136.24H88.1063C88.3252 136.235 88.5724 136.22 88.8408 136.209L89.7096 136.166C90.0172 136.143 90.3411 136.107 90.6762 136.075C91.3483 136.023 92.0577 135.903 92.7685 135.798C92.946 135.774 93.1223 135.736 93.2979 135.701L93.8217 135.597C94.1682 135.526 94.5111 135.465 94.8365 135.376C95.4898 135.211 96.1017 135.066 96.6142 134.897C97.129 134.738 97.5614 134.615 97.8548 134.502L98.3196 134.335L97.558 132.216L97.1256 132.372C96.8528 132.479 96.4504 132.591 95.9714 132.74C95.4951 132.897 94.9253 133.031 94.318 133.185C94.0157 133.268 93.6965 133.324 93.3742 133.39C93.2131 133.422 93.0507 133.455 92.887 133.487C92.7239 133.519 92.5607 133.556 92.3949 133.576C91.7334 133.673 91.0742 133.786 90.4489 133.834C90.1382 133.863 89.8361 133.897 89.55 133.919L88.7418 133.958C88.4914 133.969 88.2619 133.983 88.0584 133.988L87.5314 133.987L87.072 133.985L87.0817 133.15L87.964 133.152C88.1045 133.156 88.2595 133.142 88.4284 133.136L88.9755 133.11C89.1706 133.099 89.3786 133.093 89.597 133.078C89.8154 133.056 90.0448 133.034 90.2851 133.011C90.5244 132.987 90.7734 132.965 91.032 132.936L91.8267 132.817L92.2409 132.755C92.3108 132.744 92.3814 132.736 92.4517 132.722L92.6635 132.68C92.9473 132.623 93.2369 132.565 93.5323 132.506C93.8288 132.453 94.1236 132.371 94.4241 132.296L94.8769 132.182C95.0281 132.142 95.1826 132.11 95.3326 132.061C95.9355 131.872 96.5554 131.703 97.1549 131.473C98.3398 131.053 99.4964 130.556 100.618 129.987L101.399 129.57C101.527 129.501 101.655 129.437 101.777 129.365L102.137 129.151L102.827 128.739C102.94 128.674 103.044 128.601 103.149 128.532L103.456 128.328L104.032 127.946C104.213 127.823 104.378 127.695 104.536 127.581L104.978 127.256C105.114 127.155 105.242 127.066 105.349 126.975L106.035 126.419L103.651 123.53L102.952 124.097Z" fill="#0C5785"/>
<path d="M105.877 127.622C105.829 127.66 105.763 127.718 105.678 127.778C105.508 127.903 105.282 128.069 105.056 128.236C104.83 128.402 104.608 128.573 104.429 128.685L104.137 128.879L105.389 130.751L105.702 130.542C105.894 130.421 106.132 130.235 106.376 130.059L107.044 129.568C107.136 129.502 107.207 129.44 107.259 129.399L107.34 129.334L105.953 127.561L105.877 127.622Z" fill="#1DA1F2"/>
<path d="M58.2967 100.906L58.2634 101.228L58.2412 101.433C58.2327 101.506 58.2254 101.583 58.2225 101.665C58.2052 101.994 58.1839 102.393 58.1597 102.85C58.142 103.079 58.1513 103.323 58.1477 103.58L58.1455 104.389C58.1422 104.53 58.1531 104.674 58.1593 104.82L58.1804 105.268L58.2026 105.731L58.2139 105.968C58.219 106.047 58.2288 106.127 58.2361 106.207C58.2675 106.529 58.2997 106.858 58.3329 107.197L58.3582 107.451L58.3961 107.707L58.4729 108.225L58.5513 108.752C58.5628 108.841 58.5792 108.929 58.5979 109.018L58.6507 109.283C58.7233 109.639 58.7897 110 58.8696 110.361L59.1417 111.445C59.1654 111.536 59.1861 111.627 59.2123 111.717L59.294 111.986L59.4578 112.526C59.513 112.705 59.5657 112.886 59.6229 113.064C59.686 113.241 59.7491 113.418 59.8123 113.594C59.8754 113.77 59.9384 113.946 60.0011 114.122L60.0955 114.384L60.2016 114.641L60.6215 115.657C60.7754 115.985 60.9273 116.309 61.0772 116.629C61.2208 116.95 61.39 117.253 61.5478 117.553L61.7837 117.998L61.8998 118.216L62.0241 118.425L62.5047 119.234L62.6203 119.428L62.7426 119.613L62.9801 119.973C63.1355 120.207 63.2816 120.435 63.4281 120.646L63.8585 121.235C63.9941 121.419 64.1188 121.593 64.238 121.751L64.5796 122.174L65.0588 122.768C65.1128 122.837 65.1603 122.885 65.1898 122.92L65.2355 122.972L68.0689 120.525L68.0287 120.481C68.0032 120.45 67.9621 120.409 67.9144 120.347L67.4967 119.828L67.1979 119.459C67.094 119.321 66.9855 119.17 66.8674 119.008L66.4901 118.494C66.3622 118.31 66.2364 118.111 66.0996 117.907C64.7742 115.898 63.7398 113.711 63.0272 111.412L62.8842 110.942L62.8123 110.707C62.7884 110.629 62.7719 110.549 62.7513 110.47L62.514 109.526C62.4445 109.211 62.3879 108.896 62.324 108.587L62.2774 108.355C62.2608 108.278 62.2463 108.202 62.2366 108.124L62.17 107.665L62.1034 107.213L62.0696 106.991L62.0474 106.768C62.0187 106.474 61.9906 106.186 61.9631 105.906C61.9567 105.836 61.9478 105.766 61.9436 105.697L61.934 105.491L61.9154 105.087L61.8963 104.697C61.891 104.569 61.8805 104.444 61.8843 104.321L61.8867 103.615C61.8898 103.391 61.8799 103.178 61.8965 102.979C61.9187 102.579 61.9362 102.231 61.9513 101.944C61.9536 101.872 61.9602 101.805 61.9678 101.741L61.9868 101.563L62.0161 101.281L62.0408 101.046L58.3238 100.637L58.2967 100.906Z" fill="#0C5785"/>
<path d="M55.0667 103.966C55.0667 104.254 55.0589 104.604 55.0846 105.004L55.1148 105.642L55.1317 105.988C55.1377 106.105 55.1415 106.226 55.1557 106.349C55.2049 106.84 55.2498 107.373 55.3166 107.935L55.4435 108.796C55.4895 109.089 55.5259 109.391 55.5916 109.692L55.7752 110.614C55.8322 110.926 55.9134 111.237 55.9922 111.552C56.071 111.866 56.1512 112.182 56.2313 112.5C56.326 112.814 56.4212 113.128 56.5168 113.444L56.6608 113.915C56.7076 114.073 56.7682 114.227 56.8215 114.381C56.932 114.689 57.0418 114.996 57.1509 115.301C57.2033 115.454 57.265 115.603 57.3267 115.752L57.5089 116.194C57.5698 116.34 57.6301 116.486 57.6901 116.631C57.7511 116.775 57.8059 116.92 57.8743 117.059L58.2603 117.88L58.4483 118.278C58.51 118.409 58.5815 118.533 58.6458 118.659C58.7781 118.908 58.9067 119.15 59.0316 119.385L59.2161 119.731L59.4081 120.056C59.5339 120.267 59.6542 120.47 59.769 120.663C59.8857 120.855 59.9885 121.042 60.1019 121.207L60.673 122.072C60.753 122.192 60.8218 122.3 60.8864 122.391L61.0533 122.62L61.1922 122.811L63.0137 121.491L62.884 121.313L62.7287 121.1C62.6685 121.015 62.6046 120.914 62.5305 120.803L61.9977 119.998C61.8916 119.844 61.7966 119.67 61.6881 119.491L61.3523 118.925L61.1736 118.624L61.0022 118.303C60.8864 118.084 60.7666 117.859 60.6431 117.626C60.5829 117.51 60.5163 117.394 60.4591 117.272L60.2846 116.902C60.167 116.652 60.047 116.397 59.9248 116.137C59.8611 116.009 59.8105 115.873 59.7537 115.739L59.5854 115.333L59.4156 114.921C59.3579 114.783 59.3004 114.645 59.2523 114.502C59.1509 114.219 59.0487 113.933 58.9457 113.646C58.8964 113.502 58.8392 113.36 58.7959 113.213L58.6627 112.774L58.3964 111.897C58.3224 111.601 58.2484 111.307 58.1744 111.015C58.1011 110.722 58.0246 110.433 57.9724 110.142C57.9147 109.853 57.8578 109.567 57.8017 109.285C57.7396 109.005 57.7067 108.724 57.6641 108.452L57.5456 107.65C57.4836 107.128 57.4426 106.632 57.396 106.175C57.3824 106.061 57.3793 105.949 57.3738 105.839L57.3584 105.518L57.3303 104.924C57.3058 104.552 57.3143 104.227 57.3138 103.959L57.3163 103.118L55.0695 103.062L55.0667 103.966Z" fill="#1DA1F2"/>
<path d="M73.6722 125.396C73.569 125.332 73.4502 125.262 73.3297 125.173L72.488 124.594L71.5558 123.884C71.475 123.825 71.4004 123.759 71.324 123.695L71.0976 123.503C70.9471 123.377 70.7993 123.253 70.6561 123.132C70.5097 123.015 70.3825 122.886 70.2555 122.771L69.9004 122.441C69.7912 122.339 69.6884 122.248 69.6016 122.163L69.3816 121.937L69.1898 121.74L66.5192 124.364L66.7394 124.59L66.9917 124.848C67.0914 124.945 67.2084 125.05 67.3338 125.168C67.4592 125.285 67.5957 125.411 67.7398 125.545C67.8838 125.679 68.0321 125.824 68.1992 125.959L68.7049 126.385L68.965 126.605C69.0522 126.678 69.1386 126.753 69.2314 126.821C69.5956 127.098 69.9572 127.377 70.3012 127.634L71.2666 128.3C71.4062 128.4 71.5409 128.481 71.6594 128.554L71.9664 128.745L72.2328 128.91L74.1725 125.705L73.9395 125.561L73.6722 125.396Z" fill="#1DA1F2"/>
<path d="M70.9179 129.075L70.363 128.692L69.9914 128.435L69.789 128.296C69.7208 128.246 69.6536 128.193 69.5837 128.14L68.7142 127.476C68.6392 127.42 68.5673 127.361 68.4969 127.301L68.2852 127.123L67.8736 126.776C67.7405 126.663 67.6117 126.553 67.4894 126.45L67.1585 126.143L66.4764 125.509L64.9128 127.128L65.6453 127.809L66.0005 128.139L66.4131 128.489L66.8553 128.862L67.0832 129.053C67.1587 129.118 67.2361 129.181 67.3165 129.241L68.2512 129.955C68.3262 130.011 68.3986 130.069 68.4718 130.121L68.6896 130.272L69.0891 130.548L69.6869 130.959C69.7583 131.01 69.8189 131.043 69.858 131.069L69.9193 131.107L71.135 129.212L71.0779 129.176C71.0402 129.153 70.9845 129.123 70.9179 129.075Z" fill="#0C5785"/>
<path d="M71.8223 79.0012L71.3657 79.3043C71.0407 79.5222 70.6667 79.7572 70.2841 80.0499L69.6786 80.495C69.6268 80.534 69.5729 80.5714 69.5212 80.6123L69.3658 80.7381L69.0488 80.9952C68.8355 81.1701 68.612 81.3448 68.3916 81.5329C68.1758 81.7258 67.9554 81.9228 67.7304 82.124L67.3914 82.4278L67.062 82.7516L66.3926 83.4111L65.7444 84.1124C65.6363 84.2303 65.5258 84.3467 65.4195 84.4667L65.1098 84.8359C64.9045 85.083 64.6945 85.3256 64.4941 85.5757C64.3004 85.8305 64.108 86.084 63.917 86.3362C63.8227 86.4635 63.7228 86.5855 63.6342 86.7146C63.5457 86.8437 63.4567 86.9725 63.3696 87.1003C63.1952 87.3567 63.0194 87.6075 62.8527 87.8586C62.2596 88.7829 61.7165 89.7387 61.2259 90.7216C60.7864 91.5812 60.4901 92.3292 60.2652 92.8449C60.1614 93.1062 60.0888 93.3154 60.0351 93.4563L59.9547 93.6728L57.0634 92.6045L56.8554 93.1678C56.7375 93.5077 56.599 93.9675 56.4537 94.4251L56.3469 94.767C56.3125 94.88 56.2861 94.9933 56.2566 95.1008L56.1012 95.6955L55.9507 96.2762L58.9472 96.9926L60.0266 97.2506L62.5846 97.8622L62.8123 96.9897C62.8758 96.7095 62.9916 96.381 63.1091 95.9991L63.2014 95.7046C63.234 95.6036 63.262 95.4979 63.3039 95.393L63.5494 94.7325L63.6795 94.3797C63.721 94.2586 63.7794 94.142 63.8296 94.0196L64.1521 93.2658C64.2038 93.1349 64.2713 93.0089 64.3339 92.879L64.5263 92.4855L64.7221 92.0826C64.7887 91.9471 64.8668 91.8167 64.9394 91.682C65.5442 90.5503 66.2373 89.4683 67.0121 88.4461L67.3089 88.0549L67.4567 87.8592L67.6145 87.6721C67.8243 87.4219 68.0328 87.173 68.2398 86.9254C68.6797 86.454 69.0997 85.9772 69.5478 85.5566L69.873 85.2359L69.9533 85.1564L70.037 85.0816L70.2035 84.9334L70.8492 84.3548L71.4858 83.8375L71.7886 83.5909C71.8889 83.5117 71.9923 83.4407 72.0906 83.3672L72.6587 82.9493C72.8362 82.8117 73.0187 82.7031 73.1834 82.5905L73.6495 82.2811C73.7219 82.2337 73.7896 82.1859 73.8568 82.1442L74.0515 82.0287L74.8244 81.5669L72.9796 78.3059L72.2214 78.7582C72.1009 78.8336 71.9663 78.9122 71.8223 79.0012Z" fill="#1DA1F2"/>
<path d="M59.7161 87.0705L59.5077 87.4099C59.4336 87.5303 59.3654 87.6629 59.2897 87.7972L58.8236 88.6429L58.7053 88.8588L58.5976 89.0782C58.5262 89.2236 58.4563 89.3676 58.3886 89.5053L58.0194 90.2621L57.6934 91.0172L59.7576 91.9075L60.0602 91.2051L60.404 90.5004L60.598 90.1031L60.6981 89.8988L60.8091 89.6985L61.2424 88.9113C61.3129 88.7865 61.3755 88.6629 61.4448 88.551L61.6397 88.2376L62.0412 87.5866L60.1481 86.3721L59.7161 87.0705Z" fill="#1DA1F2"/>
<path d="M64.3328 81.1094C64.2827 81.1605 64.2178 81.2206 64.1504 81.2932L63.922 81.5396C63.589 81.9035 63.1322 82.3751 62.7191 82.8868C62.5087 83.1389 62.2956 83.3889 62.1016 83.6281L61.5911 84.298L61.2315 84.7728C61.1871 84.8295 61.1556 84.8765 61.1341 84.9081L61.1003 84.9568L62.9267 86.2699L62.958 86.2254C62.9779 86.1958 63.0075 86.152 63.0485 86.0995L63.3837 85.6581C63.5222 85.4754 63.684 85.2624 63.8576 85.0349C64.0383 84.8124 64.2367 84.5802 64.4325 84.345C64.816 83.8683 65.2431 83.4303 65.5518 83.0913L65.7643 82.8616C65.8269 82.7928 65.8872 82.7385 65.9341 82.6907L66.0839 82.5433L64.4929 80.9518L64.3328 81.1094Z" fill="#0C5785"/>
<path d="M68.286 77.688L67.904 77.9691C67.774 78.0648 67.641 78.1609 67.5152 78.2664L66.7665 78.8732C66.6475 78.9711 66.5305 79.063 66.4238 79.1547L66.1268 79.4191L65.5153 79.9659L67.0355 81.6256L67.6046 81.1168L67.8807 80.8702C67.9804 80.7847 68.0894 80.6995 68.1999 80.6087L68.8967 80.0436C69.0136 79.945 69.1377 79.8558 69.2589 79.7667L69.6141 79.5055C69.8456 79.3368 70.058 79.1754 70.2464 79.0445L70.8824 78.6217L69.648 76.7388L68.965 77.193C68.7648 77.3337 68.5344 77.5066 68.286 77.688Z" fill="#1DA1F2"/>
<path d="M168.977 141.419C169.097 141.484 169.228 141.526 169.364 141.541C169.5 141.555 169.637 141.543 169.768 141.504C169.899 141.465 170.021 141.4 170.127 141.314C170.233 141.227 170.321 141.121 170.385 141C170.516 140.757 170.545 140.472 170.467 140.208C170.43 140.076 170.366 139.954 170.281 139.847C170.195 139.74 170.089 139.652 169.969 139.587C169.85 139.521 169.718 139.479 169.582 139.464C169.446 139.449 169.308 139.461 169.177 139.5C169.046 139.538 168.924 139.603 168.818 139.689C168.711 139.776 168.623 139.882 168.559 140.003C168.492 140.123 168.45 140.256 168.436 140.392C168.421 140.529 168.433 140.667 168.472 140.799C168.511 140.931 168.576 141.053 168.662 141.16C168.749 141.266 168.856 141.354 168.977 141.419V141.419Z" fill="#554D51"/>
<path d="M123.102 77.9344C123.222 78.0002 123.353 78.0416 123.489 78.0562C123.625 78.0708 123.762 78.0583 123.893 78.0194C124.024 77.9805 124.146 77.916 124.252 77.8296C124.358 77.7432 124.446 77.6366 124.51 77.516C124.64 77.2729 124.67 76.9882 124.592 76.7234C124.555 76.592 124.491 76.4694 124.405 76.3628C124.32 76.2562 124.214 76.1678 124.094 76.1027C123.974 76.0362 123.843 75.9943 123.707 75.9793C123.571 75.9642 123.433 75.9764 123.302 76.0152C123.171 76.0539 123.048 76.1184 122.942 76.2049C122.836 76.2914 122.748 76.3982 122.683 76.5191C122.617 76.6393 122.575 76.7716 122.56 76.9082C122.545 77.0448 122.558 77.183 122.597 77.3147C122.636 77.4465 122.7 77.5691 122.787 77.6755C122.874 77.7819 122.981 77.8699 123.102 77.9344V77.9344Z" fill="#554D51"/>
<path d="M142.553 41.1876C142.673 41.2535 142.804 41.295 142.94 41.3096C143.076 41.3242 143.213 41.3117 143.344 41.2728C143.475 41.2339 143.597 41.1694 143.703 41.0829C143.809 40.9965 143.897 40.8898 143.961 40.7692C144.092 40.5261 144.121 40.2415 144.043 39.9768C144.006 39.8453 143.942 39.7227 143.857 39.6161C143.771 39.5095 143.665 39.4211 143.545 39.3561C143.304 39.2262 143.021 39.1944 142.757 39.2671C142.493 39.3496 142.271 39.5302 142.135 39.7718C142.069 39.892 142.027 40.0243 142.012 40.1609C141.997 40.2975 142.01 40.4357 142.049 40.5674C142.088 40.6992 142.152 40.8218 142.239 40.9282C142.326 41.0346 142.433 41.1226 142.554 41.1871L142.553 41.1876Z" fill="#554D51"/>
<path d="M49.5256 164.994C49.6453 165.06 49.7768 165.102 49.9126 165.116C50.0484 165.131 50.1857 165.118 50.3166 165.079C50.4475 165.041 50.5695 164.976 50.6754 164.89C50.7813 164.803 50.8691 164.697 50.9337 164.576C51.0639 164.333 51.0935 164.048 51.0161 163.783C50.9782 163.652 50.9147 163.529 50.8291 163.423C50.7436 163.316 50.6377 163.228 50.5177 163.163C50.3981 163.096 50.2664 163.054 50.1304 163.039C49.9945 163.024 49.8569 163.037 49.7257 163.075C49.5945 163.114 49.4722 163.179 49.3661 163.265C49.2599 163.352 49.1719 163.458 49.1072 163.579C49.0408 163.699 48.9989 163.832 48.984 163.968C48.9691 164.105 48.9815 164.243 49.0205 164.375C49.0594 164.506 49.1241 164.629 49.2109 164.735C49.2976 164.842 49.4046 164.93 49.5256 164.994V164.994Z" fill="#554D51"/>
<path d="M12.1555 132.91C12.2752 132.975 12.4068 133.017 12.5426 133.032C12.6784 133.046 12.8157 133.034 12.9467 132.995C13.0777 132.956 13.1996 132.891 13.3056 132.805C13.4115 132.718 13.4993 132.612 13.5639 132.491C13.694 132.248 13.7235 131.963 13.646 131.699C13.6082 131.567 13.5447 131.445 13.4592 131.338C13.3736 131.232 13.2677 131.143 13.1477 131.078C12.906 130.948 12.6239 130.916 12.3595 130.989C12.0956 131.072 11.8733 131.252 11.738 131.494C11.6715 131.614 11.6297 131.746 11.6148 131.883C11.5999 132.019 11.6122 132.158 11.6512 132.289C11.6901 132.421 11.7549 132.544 11.8416 132.65C11.9284 132.757 12.0354 132.845 12.1564 132.909L12.1555 132.91Z" fill="#554D51"/>
<path d="M28.0228 196.428C28.1426 196.494 28.2741 196.536 28.4099 196.55C28.5457 196.565 28.683 196.552 28.814 196.513C28.9449 196.474 29.0669 196.41 29.1728 196.324C29.2787 196.237 29.3666 196.131 29.4312 196.01C29.5614 195.767 29.5908 195.482 29.5131 195.217C29.4754 195.086 29.4119 194.963 29.3264 194.857C29.2409 194.75 29.135 194.662 29.015 194.597C28.7734 194.467 28.4912 194.435 28.2268 194.508C27.963 194.59 27.7406 194.771 27.6053 195.012C27.5389 195.133 27.4971 195.265 27.4822 195.401C27.4673 195.538 27.4797 195.676 27.5186 195.808C27.5576 195.94 27.6223 196.062 27.709 196.169C27.7957 196.275 27.9027 196.363 28.0237 196.428L28.0228 196.428Z" fill="#554D51"/>
<path d="M24.922 203.212C25.0418 203.278 25.1734 203.32 25.3092 203.334C25.445 203.349 25.5823 203.336 25.7132 203.297C25.8442 203.258 25.9661 203.194 26.0721 203.107C26.178 203.021 26.2658 202.914 26.3304 202.794C26.4606 202.551 26.4901 202.266 26.4123 202.001C26.3746 201.87 26.3111 201.747 26.2256 201.641C26.1401 201.534 26.0342 201.446 25.9142 201.381C25.7946 201.314 25.6629 201.272 25.5269 201.257C25.3909 201.242 25.2533 201.254 25.1221 201.293C24.9909 201.332 24.8686 201.396 24.7624 201.483C24.6563 201.569 24.5683 201.676 24.5036 201.797C24.4372 201.917 24.3952 202.05 24.3803 202.186C24.3654 202.323 24.3777 202.461 24.4167 202.593C24.4556 202.725 24.5204 202.847 24.6072 202.954C24.6939 203.06 24.801 203.148 24.922 203.212V203.212Z" fill="#554D51"/>
<path d="M87.5821 202.306C87.7019 202.372 87.8334 202.413 87.9692 202.428C88.105 202.442 88.2423 202.43 88.3733 202.391C88.5042 202.352 88.6262 202.288 88.7321 202.201C88.838 202.115 88.9259 202.008 88.9905 201.887C89.1208 201.644 89.1503 201.36 89.0726 201.095C89.0349 200.963 88.9714 200.841 88.8858 200.734C88.8003 200.628 88.6945 200.539 88.5745 200.474C88.4548 200.408 88.3232 200.366 88.1872 200.351C88.0513 200.336 87.9137 200.348 87.7825 200.387C87.6513 200.426 87.529 200.49 87.4228 200.577C87.3167 200.663 87.2287 200.77 87.1639 200.891C87.0975 201.011 87.0556 201.143 87.0407 201.28C87.0258 201.416 87.0381 201.554 87.0771 201.686C87.116 201.818 87.1807 201.941 87.2674 202.047C87.3541 202.153 87.4611 202.241 87.5821 202.306V202.306Z" fill="#554D51"/>
<path d="M169.052 185.629C169.171 185.695 169.303 185.736 169.439 185.751C169.575 185.765 169.712 185.753 169.843 185.714C169.974 185.675 170.096 185.61 170.202 185.524C170.308 185.438 170.396 185.331 170.46 185.21C170.59 184.967 170.62 184.682 170.542 184.418C170.504 184.286 170.441 184.164 170.355 184.057C170.27 183.951 170.164 183.862 170.044 183.797C169.802 183.667 169.52 183.635 169.256 183.708C168.992 183.79 168.769 183.971 168.634 184.213C168.568 184.333 168.526 184.465 168.511 184.602C168.496 184.739 168.508 184.877 168.547 185.008C168.586 185.14 168.651 185.263 168.738 185.369C168.824 185.476 168.931 185.564 169.052 185.628L169.052 185.629Z" fill="#554D51"/>
<path d="M145.372 167.538C145.492 167.604 145.623 167.646 145.759 167.66C145.895 167.675 146.032 167.662 146.163 167.623C146.294 167.585 146.416 167.52 146.522 167.434C146.628 167.347 146.716 167.241 146.78 167.12C146.911 166.877 146.94 166.592 146.862 166.328C146.825 166.196 146.761 166.073 146.676 165.967C146.59 165.86 146.484 165.772 146.364 165.707C146.245 165.64 146.113 165.598 145.977 165.583C145.841 165.568 145.703 165.581 145.572 165.619C145.441 165.658 145.319 165.722 145.213 165.809C145.106 165.895 145.019 166.002 144.954 166.123C144.887 166.243 144.845 166.375 144.83 166.512C144.816 166.649 144.828 166.787 144.867 166.919C144.906 167.05 144.97 167.173 145.057 167.28C145.144 167.386 145.251 167.474 145.372 167.538V167.538Z" fill="#554D51"/>
<path d="M120.565 138.424C120.684 138.49 120.816 138.531 120.952 138.546C121.087 138.561 121.225 138.548 121.356 138.509C121.487 138.47 121.609 138.406 121.715 138.319C121.821 138.233 121.908 138.126 121.973 138.006C122.103 137.763 122.133 137.478 122.055 137.213C122.017 137.082 121.954 136.959 121.868 136.853C121.783 136.746 121.677 136.658 121.557 136.592C121.437 136.526 121.306 136.484 121.17 136.469C121.034 136.454 120.896 136.466 120.765 136.505C120.634 136.544 120.511 136.608 120.405 136.695C120.299 136.781 120.211 136.888 120.146 137.009C120.08 137.129 120.038 137.261 120.023 137.398C120.008 137.534 120.021 137.673 120.059 137.804C120.098 137.936 120.163 138.059 120.25 138.165C120.337 138.272 120.444 138.36 120.565 138.424Z" fill="#554D51"/>
<path d="M14.3461 74.8855C14.4658 74.9513 14.5974 74.9927 14.7331 75.0073C14.8689 75.0219 15.0062 75.0094 15.1372 74.9705C15.2681 74.9317 15.39 74.8672 15.496 74.7808C15.6019 74.6944 15.6898 74.5879 15.7545 74.4673C15.8847 74.2241 15.9142 73.9393 15.8366 73.6745C15.7988 73.5431 15.7353 73.4205 15.6497 73.314C15.5642 73.2074 15.4584 73.1189 15.3385 73.0538C15.0967 72.924 14.8146 72.8922 14.5501 72.9647C14.2862 73.0473 14.0639 73.2279 13.9286 73.4695C13.8622 73.5897 13.8203 73.722 13.8054 73.8586C13.7905 73.9952 13.8029 74.1334 13.8419 74.2651C13.8808 74.3968 13.9455 74.5195 14.0323 74.6259C14.119 74.7323 14.226 74.8203 14.347 74.8848L14.3461 74.8855Z" fill="#554D51"/>
<path d="M127.894 41.4709C128.014 41.5368 128.146 41.5783 128.281 41.5929C128.417 41.6075 128.554 41.595 128.685 41.5561C128.816 41.5172 128.938 41.4527 129.044 41.3662C129.15 41.2798 129.238 41.1732 129.302 41.0525C129.433 40.8094 129.462 40.5247 129.385 40.2599C129.347 40.1285 129.283 40.006 129.198 39.8994C129.112 39.7929 129.006 39.7045 128.886 39.6394C128.767 39.573 128.635 39.531 128.499 39.516C128.363 39.501 128.226 39.5132 128.094 39.5519C127.963 39.5906 127.841 39.6551 127.735 39.7415C127.629 39.828 127.541 39.9348 127.476 40.0556C127.409 40.1758 127.368 40.3081 127.353 40.4447C127.338 40.5813 127.35 40.7195 127.389 40.8512C127.428 40.983 127.493 41.1056 127.58 41.212C127.666 41.3184 127.773 41.4064 127.894 41.4709V41.4709Z" fill="#554D51"/>
<path d="M145.712 1.95869C145.832 2.02458 145.964 2.06604 146.099 2.08066C146.235 2.09528 146.373 2.08278 146.504 2.04387C146.635 2.00497 146.756 1.94044 146.862 1.854C146.968 1.76756 147.056 1.66093 147.121 1.54027C147.251 1.29719 147.28 1.01259 147.203 0.747943C147.165 0.616469 147.101 0.493859 147.016 0.38728C146.93 0.280701 146.824 0.192289 146.704 0.127213C146.463 -0.0026429 146.181 -0.0345096 145.916 0.038187C145.652 0.120603 145.43 0.301232 145.295 0.542962C145.228 0.663163 145.186 0.795419 145.171 0.932015C145.157 1.06861 145.169 1.20681 145.208 1.33855C145.247 1.47029 145.312 1.59294 145.398 1.69934C145.485 1.80573 145.592 1.89375 145.713 1.95825L145.712 1.95869Z" fill="#554D51"/>
<path d="M120.904 35.313C121.024 35.3789 121.156 35.4203 121.291 35.4349C121.427 35.4494 121.565 35.4369 121.696 35.398C121.826 35.3591 121.948 35.2945 122.054 35.2081C122.16 35.1216 122.248 35.015 122.313 34.8944C122.443 34.6513 122.472 34.3667 122.395 34.102C122.357 33.9706 122.293 33.848 122.208 33.7414C122.122 33.6348 122.017 33.5464 121.897 33.4813C121.777 33.4148 121.645 33.3729 121.509 33.3579C121.373 33.3428 121.236 33.355 121.104 33.3938C120.973 33.4325 120.851 33.497 120.745 33.5835C120.639 33.67 120.551 33.7768 120.486 33.8977C120.419 34.0179 120.378 34.1502 120.363 34.2868C120.348 34.4234 120.36 34.5616 120.399 34.6934C120.438 34.8252 120.503 34.9478 120.589 35.0542C120.676 35.1606 120.783 35.2486 120.904 35.313V35.313Z" fill="#554D51"/>
<path d="M38.5897 1.95868C38.7094 2.0246 38.841 2.06607 38.9767 2.0807C39.1125 2.09533 39.2499 2.08283 39.3808 2.04392C39.5117 2.00501 39.6337 1.94047 39.7396 1.85402C39.8455 1.76757 39.9333 1.66093 39.9978 1.54026C40.1282 1.29731 40.1577 1.01258 40.08 0.747935C40.0423 0.616469 39.9788 0.493861 39.8933 0.38728C39.8077 0.280699 39.7019 0.192284 39.5819 0.127204C39.4008 0.0291861 39.1948 -0.0129411 38.9899 0.00612258C38.785 0.0251863 38.5903 0.104589 38.4303 0.234341C38.2703 0.364093 38.1521 0.538399 38.0907 0.735326C38.0292 0.932254 38.0272 1.14301 38.085 1.34107C38.1664 1.60507 38.3476 1.8267 38.5897 1.95868V1.95868Z" fill="#554D51"/>
<path d="M31.5412 3.93725C31.6609 4.00317 31.7925 4.04465 31.9283 4.05928C32.0641 4.07391 32.2014 4.06141 32.3324 4.02251C32.4633 3.9836 32.5853 3.91906 32.6912 3.8326C32.7972 3.74615 32.885 3.63951 32.9496 3.51883C33.0798 3.27582 33.1092 2.99113 33.0315 2.7265C32.9938 2.59502 32.9303 2.4724 32.8448 2.36581C32.7593 2.25923 32.6534 2.17082 32.5334 2.10577C32.4137 2.03936 32.2821 1.99743 32.1461 1.98242C32.0101 1.96741 31.8726 1.97962 31.7413 2.01833C31.6101 2.05705 31.4879 2.1215 31.3817 2.20796C31.2755 2.29441 31.1875 2.40115 31.1228 2.52197C31.0564 2.64217 31.0145 2.77443 30.9996 2.91102C30.9848 3.04762 30.9971 3.18582 31.0361 3.31756C31.075 3.4493 31.1398 3.57195 31.2265 3.67834C31.3132 3.78474 31.4202 3.87275 31.5412 3.93725V3.93725Z" fill="#554D51"/>
<path d="M80.3112 166.469C80.431 166.535 80.5625 166.576 80.6983 166.591C80.8341 166.605 80.9714 166.593 81.1023 166.554C81.2333 166.515 81.3552 166.45 81.4612 166.364C81.5671 166.278 81.6549 166.171 81.7196 166.05C81.8497 165.807 81.8791 165.523 81.8015 165.258C81.7638 165.126 81.7003 165.004 81.6148 164.897C81.5292 164.791 81.4234 164.702 81.3034 164.637C81.1837 164.571 81.0521 164.529 80.9161 164.514C80.7801 164.499 80.6426 164.511 80.5113 164.55C80.3801 164.589 80.2579 164.653 80.1517 164.74C80.0455 164.826 79.9575 164.933 79.8928 165.054C79.8264 165.174 79.7845 165.306 79.7697 165.443C79.7548 165.579 79.7672 165.717 79.8061 165.849C79.8451 165.981 79.9098 166.104 79.9965 166.21C80.0832 166.316 80.1902 166.404 80.3112 166.469V166.469Z" fill="#554D51"/>
<path style="mix-blend-mode:multiply" d="M55.3581 59.7781C41.5088 63.5064 29.0733 71.269 19.6241 82.0842C10.1749 92.8994 4.13645 106.281 2.2725 120.538C0.408547 134.794 2.80277 149.285 9.15239 162.177C15.502 175.069 25.5218 185.783 37.9446 192.965C50.3674 200.146 64.6352 203.473 78.9436 202.524C93.2521 201.575 106.958 196.392 118.329 187.632C129.7 178.871 138.225 166.927 142.825 153.308C147.425 139.69 147.895 125.009 144.174 111.124C139.184 92.5067 127.025 76.6391 110.369 67.0103C93.7138 57.3816 73.9262 54.7801 55.3581 59.7781Z" fill="url(#paint0_radial_4118_27979)"/>
<path d="M66.342 144.77C74.3894 149.422 83.6318 151.577 92.9006 150.963C102.169 150.348 111.048 146.991 118.414 141.316C125.78 135.642 131.303 127.905 134.284 119.083C137.264 110.262 137.569 100.752 135.16 91.7565C132.75 82.7612 127.734 74.6843 120.747 68.5472C113.759 62.4101 105.114 58.4885 95.9037 57.2782C86.6934 56.0679 77.332 57.6232 69.0033 61.7477C60.6746 65.8721 53.7527 72.3802 49.1128 80.4492C46.0318 85.8068 44.0333 91.7205 43.2317 97.8526C42.4301 103.985 42.841 110.215 44.4409 116.188C46.0408 122.161 48.7984 127.759 52.5562 132.663C56.314 137.567 60.9984 141.681 66.342 144.77V144.77Z" fill="white"/>
<path d="M67.6501 142.496C75.2483 146.889 83.9751 148.924 92.7269 148.344C101.479 147.764 109.862 144.595 116.818 139.237C123.773 133.88 128.988 126.574 131.803 118.245C134.618 109.915 134.906 100.936 132.631 92.4425C130.357 83.9488 125.621 76.3223 119.024 70.5273C112.426 64.7322 104.263 61.029 95.5664 59.8859C86.8699 58.7428 78.0306 60.2111 70.1664 64.1052C62.3022 67.9993 55.7661 74.1443 51.3849 81.763C45.523 91.9824 43.9434 104.116 46.9927 115.502C50.042 126.888 57.4711 136.595 67.6501 142.496V142.496Z" fill="url(#paint1_linear_4118_27979)"/>
<path d="M79.4877 122.839H101.173V101.094H79.4877V122.839Z" fill="white"/>
<path d="M71.5711 92.3526H72.4146V84.4881C72.4302 79.6708 74.3228 75.0504 77.6887 71.6129C81.0545 68.1753 85.6269 66.193 90.4301 66.0887V73.6915H90.2319C90.2985 73.6915 90.3635 73.7004 90.4301 73.7018C87.7257 73.7604 85.1511 74.8766 83.256 76.812C81.3608 78.7475 80.2951 81.3491 80.2863 84.0615V92.3526H90.4301V103.332C89.4286 103.332 88.4535 103.654 87.6483 104.251C86.8431 104.848 86.2502 105.689 85.957 106.649C85.6638 107.609 85.6856 108.638 86.0194 109.585C86.3531 110.532 86.9811 111.346 87.8109 111.908C87.6287 112.223 87.5117 112.571 87.4669 112.932L86.7484 119.116C86.5875 120.499 87.3502 121.631 88.4431 121.631H90.4301V132.61H71.5711C69.2214 132.603 66.9698 131.664 65.3083 129.998C63.6468 128.332 62.7103 126.075 62.7034 123.719V101.244C62.7103 98.888 63.6468 96.6304 65.3083 94.9644C66.9698 93.2985 69.2214 92.3595 71.5711 92.3526Z" fill="#0C5785"/>
<path d="M92.4183 121.631C93.5112 121.631 94.2739 120.499 94.113 119.116L93.3943 112.932C93.3496 112.571 93.2327 112.223 93.0504 111.909C93.8803 111.346 94.5083 110.532 94.842 109.585C95.1758 108.638 95.1976 107.609 94.9044 106.649C94.6112 105.689 94.0183 104.848 93.2131 104.251C92.4079 103.654 91.4328 103.332 90.4313 103.332V92.3528H100.575V84.0615C100.566 81.3491 99.5006 78.7475 97.6054 76.812C95.7102 74.8766 93.1357 73.7604 90.4313 73.7018C90.4978 73.7004 90.5627 73.6915 90.6295 73.6915H90.431V66.0887C95.2343 66.193 99.8067 68.1753 103.172 71.6129C106.538 75.0504 108.431 79.6708 108.447 84.4881V92.3526H109.291C111.641 92.3595 113.892 93.2985 115.554 94.9644C117.215 96.6304 118.152 98.888 118.159 101.244V123.719C118.152 126.075 117.216 128.332 115.554 129.998C113.892 131.664 111.641 132.603 109.291 132.61H90.4313V121.631H92.4183Z" fill="#1DA1F2"/>
<defs>
<radialGradient id="paint0_radial_4118_27979" cx="0" cy="0" r="1" gradientUnits="userSpaceOnUse" gradientTransform="translate(74.1572 129.986) scale(72.5175 72.7132)">
<stop/>
<stop offset="0.0124" stop-color="#050505"/>
<stop offset="0.1764" stop-color="#464646"/>
<stop offset="0.3379" stop-color="#7F7F7F"/>
<stop offset="0.4929" stop-color="#ADADAD"/>
<stop offset="0.64" stop-color="#D0D0D0"/>
<stop offset="0.7774" stop-color="#EAEAEA"/>
<stop offset="0.9013" stop-color="#FAFAFA"/>
<stop offset="1" stop-color="white"/>
</radialGradient>
<linearGradient id="paint1_linear_4118_27979" x1="125.161" y1="86.4872" x2="-69.2382" y2="182.097" gradientUnits="userSpaceOnUse">
<stop stop-color="white"/>
<stop offset="0.111" stop-color="#FAFAFA"/>
<stop offset="0.2349" stop-color="#EDEDED"/>
<stop offset="0.3652" stop-color="#D7D7D7"/>
<stop offset="0.4999" stop-color="#B7B7B7"/>
<stop offset="0.6379" stop-color="#8F8F8F"/>
<stop offset="0.7788" stop-color="#5E5E5E"/>
<stop offset="0.9193" stop-color="#242424"/>
<stop offset="1"/>
</linearGradient>
</defs>
</svg>
