<svg width="20" height="20" viewBox="0 0 20 20" fill="none" xmlns="http://www.w3.org/2000/svg">
<path d="M2.93045 2.92893C1.53192 4.32745 0.579513 6.10928 0.193661 8.04909C-0.192191 9.9889 0.0058419 11.9996 0.762718 13.8268C1.51959 15.6541 2.80132 17.2159 4.44581 18.3147C6.0903 19.4135 8.0237 20 10.0015 20C11.9793 20 13.9127 19.4135 15.5572 18.3147C17.2017 17.2159 18.4834 15.6541 19.2403 13.8268C19.9972 11.9996 20.1952 9.9889 19.8094 8.04909C19.4235 6.10928 18.4711 4.32745 17.0726 2.92893C16.144 2.00034 15.0416 1.26375 13.8283 0.761201C12.6151 0.258654 11.3147 -2.01794e-06 10.0015 -2.5237e-06C8.6883 -3.02946e-06 7.38794 0.258654 6.17468 0.761201C4.96142 1.26375 3.85903 2.00034 2.93045 2.92893ZM14.2442 9.1939C14.4576 9.19492 14.6621 9.28018 14.813 9.43113C14.964 9.58208 15.0492 9.78652 15.0503 10C15.0467 10.2127 14.9606 10.4156 14.8102 10.566C14.6598 10.7164 14.4568 10.8025 14.2442 10.8061L10.7793 10.7778L10.7652 14.2851C10.7604 14.4974 10.6744 14.6999 10.5248 14.8507C10.3763 14.9987 10.1757 15.0825 9.96616 15.0841C9.75268 15.0831 9.54824 14.9978 9.39729 14.8469C9.24634 14.6959 9.16108 14.4915 9.16006 14.278L9.18127 10.8202L5.68109 10.799C5.47598 10.7889 5.28262 10.7003 5.14102 10.5516C4.99943 10.4028 4.92046 10.2054 4.92046 10C4.92046 9.79464 4.99943 9.59715 5.14102 9.44841C5.28262 9.29967 5.47598 9.21107 5.68109 9.20097L9.18127 9.17975V5.70079C9.1823 5.48731 9.26755 5.28287 9.4185 5.13192C9.56946 4.98097 9.7739 4.89571 9.98737 4.89469C10.1992 4.89494 10.4023 4.97921 10.5521 5.129C10.7019 5.27879 10.7861 5.48188 10.7864 5.69372L10.7793 9.22218L14.2442 9.1939Z" fill="#1F3965"/>
</svg>
