<svg width="18" height="19" viewBox="0 0 18 19" fill="none" xmlns="http://www.w3.org/2000/svg">
<path fill-rule="evenodd" clip-rule="evenodd" d="M9 2.60345C5.19114 2.60345 2.10345 5.69114 2.10345 9.5C2.10345 13.3089 5.19114 16.3966 9 16.3966C12.8089 16.3966 15.8966 13.3089 15.8966 9.5C15.8966 5.69114 12.8089 2.60345 9 2.60345ZM1 9.5C1 5.08172 4.58172 1.5 9 1.5C13.4183 1.5 17 5.08172 17 9.5C17 13.9183 13.4183 17.5 9 17.5C4.58172 17.5 1 13.9183 1 9.5Z" fill="#FF5E5E"/>
<path fill-rule="evenodd" clip-rule="evenodd" d="M8.99996 5.11377C9.36561 5.11377 9.66203 5.41019 9.66203 5.77584V10.1207C9.66203 10.4863 9.36561 10.7827 8.99996 10.7827C8.63431 10.7827 8.33789 10.4863 8.33789 10.1207V5.77584C8.33789 5.41019 8.63431 5.11377 8.99996 5.11377Z" fill="#FF5E5E"/>
<path d="M9.00047 13.2585C9.42897 13.2585 9.77633 12.9111 9.77633 12.4826C9.77633 12.0542 9.42897 11.7068 9.00047 11.7068C8.57197 11.7068 8.22461 12.0542 8.22461 12.4826C8.22461 12.9111 8.57197 13.2585 9.00047 13.2585Z" fill="#FF5E5E"/>
</svg>
