<svg width="24" height="22" viewBox="0 0 24 22" fill="none" xmlns="http://www.w3.org/2000/svg">
<path d="M4.17509 13.4096C3.78577 12.6153 3.57614 11.8209 3.42641 11.2325C3.24673 10.497 3.12693 9.76153 3.06704 8.9966C3.03709 8.90834 3.0371 8.79066 3.0371 8.7024C3.0371 8.61414 3.0371 8.49646 3.0371 8.4082L2.94725 8.43762C2.61783 8.52589 2.19857 8.61415 1.65953 8.87893C1.30016 9.05545 0.910853 9.23197 0.581435 9.64385C0.252017 10.0263 0.0723315 10.497 0.0124373 11.056C-0.0774039 12.0269 0.341856 12.733 0.551486 13.086C0.791063 13.4685 1.09053 13.9392 1.68948 14.204C2.13868 14.3805 2.52799 14.3511 2.9173 14.3216C3.27667 14.2922 3.51625 14.2334 3.75582 14.1451C3.96545 14.0863 4.14514 14.0274 4.47456 13.998C4.41466 13.9098 4.35477 13.7921 4.32482 13.6744C4.26493 13.5861 4.20503 13.4979 4.17509 13.4096Z" fill="#1F3965"/>
<path d="M14.4463 1.11182L14.4164 1.14124L14.2068 1.34717C14.087 1.46485 13.9971 1.58254 13.8773 1.6708C13.2784 2.22978 12.6794 2.78876 12.0506 3.31832C11.2719 3.99498 10.6131 4.55396 9.62485 5.2012C8.99596 5.61308 8.42696 5.90728 7.28897 6.5251C6.4804 6.93699 5.9713 7.23119 5.22263 7.55481L4.9531 7.67248C4.56379 7.84901 4.23437 7.99611 3.96484 8.11379V8.76103C4.02474 9.52595 4.14453 10.2909 4.32421 11.0264C4.50389 11.703 4.71352 12.5562 5.16273 13.38C5.22262 13.4682 5.28252 13.5859 5.34241 13.6742C5.40231 13.7624 5.4622 13.8801 5.55204 13.9684C6.21088 13.9978 6.95956 13.939 7.82802 13.8507C8.69649 13.7624 9.71469 13.6742 10.7928 13.6742C12.949 13.6742 16.6924 14.7333 17.8303 14.9098C17.8902 12.2914 17.5608 9.67305 16.872 7.11351C16.333 4.99526 15.4945 2.96528 14.4463 1.11182Z" fill="#1F3965"/>
<path d="M20.047 1.40612C19.8074 1.28844 19.5678 1.40613 19.448 1.61207C19.3283 1.84743 19.448 2.08279 19.6577 2.20047C21.754 3.17133 23.1016 5.37783 23.1016 7.84911C23.1016 9.11418 22.7722 10.2616 22.1433 11.2618C22.0235 11.4678 22.0834 11.7326 22.293 11.8797C22.3529 11.9091 22.4427 11.9385 22.5326 11.9385C22.6823 11.9385 22.8321 11.8502 22.9219 11.7326C23.6406 10.5852 24 9.26128 24 7.84911C24 5.05421 22.4427 2.52409 20.047 1.40612Z" fill="#1F3965"/>
<path d="M19.2079 3.46523C18.9683 3.37697 18.7288 3.46524 18.609 3.67118C18.5191 3.90654 18.609 4.1419 18.8186 4.25958C20.1363 4.84798 21.0047 6.28956 21.0047 7.84882C21.0047 8.76084 20.7053 9.64344 20.1962 10.3201C20.0464 10.526 20.0764 10.7908 20.286 10.9379C20.3758 10.9968 20.4657 11.0262 20.5555 11.0262C20.7053 11.0262 20.8251 10.9673 20.9149 10.8497C21.5438 10.0259 21.9032 8.96678 21.9032 7.84882C21.9331 5.93651 20.8849 4.23015 19.2079 3.46523Z" fill="#1F3965"/>
<path d="M12.6496 19.7346C12.6197 19.6463 12.5598 19.5286 12.4999 19.3521C12.4699 19.2638 12.41 19.1462 12.3801 19.0285C12.0207 18.0282 12.0507 17.7634 12.0507 17.6457C12.0507 17.4398 12.1106 17.2633 12.2304 16.8514C12.2902 16.6455 12.3202 16.4984 12.3801 16.3513C12.4699 16.0865 12.5598 15.8805 12.5897 15.6158C12.5897 15.5275 12.5897 15.4098 12.5897 15.2921C12.5897 15.0862 12.5298 14.8508 12.4699 14.6449C11.9608 14.5861 11.5116 14.5566 11.0924 14.5566C10.0143 14.5566 8.99607 14.6449 8.1276 14.7332C7.25914 14.8214 6.51046 14.8803 5.85162 14.8508L6.0912 15.2333C6.12115 15.2921 6.24094 15.5569 6.42062 15.9394C7.07946 17.381 8.48697 20.4995 8.84633 20.9996C9.29554 21.6175 9.6549 21.794 9.89448 21.8822C10.1041 21.9705 10.3137 21.9999 10.5533 21.9999C10.8228 21.9999 11.0924 21.9411 11.3918 21.8234C12.1106 21.5586 12.5598 21.1173 12.7095 20.5878C12.7395 20.4701 12.7395 20.3524 12.7395 20.2347C12.7395 20.0876 12.6796 19.9405 12.6496 19.7346Z" fill="#1F3965"/>
<path d="M15.7347 0.229231C15.6149 0.0232904 15.3454 -0.0649716 15.1357 0.0527087C14.9261 0.170389 14.8363 0.435169 14.9561 0.64111C16.0342 2.55341 16.9026 4.61282 17.5016 6.81932C18.2502 9.49655 18.5497 12.262 18.4299 15.0275C18.4299 15.2629 18.6096 15.4688 18.8492 15.4982C18.8492 15.4982 18.8492 15.4982 18.8791 15.4982C19.1187 15.4982 19.3283 15.3217 19.3283 15.0864C19.4481 12.262 19.1187 9.40828 18.37 6.6428C17.7411 4.31862 16.8727 2.20037 15.7347 0.229231Z" fill="#1F3965"/>
</svg>
