<svg width="40" height="40" viewBox="0 0 40 40" fill="none" xmlns="http://www.w3.org/2000/svg">
<path d="M10.8499 13.0664H5.28323C5.00795 13.0833 4.73876 13.1547 4.49128 13.2764C4.2438 13.3982 4.02295 13.5678 3.84155 13.7756C3.66016 13.9834 3.52182 14.2251 3.43456 14.4867C3.3473 14.7483 3.31286 15.0247 3.33323 15.2997V24.5497C3.29151 25.0946 3.46556 25.6341 3.81785 26.0518C4.17014 26.4696 4.67247 26.7322 5.21657 26.7831H10.8499V13.0664Z" fill="#6B82AB"/>
<path d="M23.8331 7.51681L14.9998 13.0668H13.1831V26.7835H14.9998L23.8331 32.3335C25.0831 33.1335 26.5998 32.0501 26.5998 30.3668V9.48347C26.6664 7.80014 25.0831 6.66681 23.8331 7.51681Z" fill="#6B82AB"/>
<path d="M24.5498 16.5332V23.6665C25.4957 23.6665 26.4029 23.2908 27.0718 22.6219C27.7407 21.953 28.1165 21.0458 28.1165 20.0999C28.1165 19.1539 27.7407 18.2467 27.0718 17.5779C26.4029 16.909 25.4957 16.5332 24.5498 16.5332Z" fill="#6B82AB"/>
<path d="M31.0498 15.8995C30.9506 15.7993 30.8325 15.7196 30.7023 15.6653C30.5721 15.611 30.4325 15.583 30.2914 15.583C30.1504 15.583 30.0107 15.611 29.8806 15.6653C29.7504 15.7196 29.6323 15.7993 29.5331 15.8995C29.3346 16.102 29.2234 16.3743 29.2234 16.6579C29.2234 16.9414 29.3346 17.2137 29.5331 17.4162C29.8637 17.7432 30.1261 18.1326 30.3052 18.5617C30.4843 18.9908 30.5765 19.4512 30.5765 19.9162C30.5765 20.3812 30.4843 20.8416 30.3052 21.2707C30.1261 21.6998 29.8637 22.0892 29.5331 22.4162C29.3798 22.5644 29.2745 22.7552 29.2308 22.9638C29.187 23.1725 29.2067 23.3895 29.2874 23.5868C29.3681 23.7841 29.5061 23.9527 29.6836 24.0708C29.8611 24.189 30.0699 24.2512 30.2831 24.2495C30.4191 24.2502 30.5538 24.2241 30.6797 24.1726C30.8055 24.1211 30.9199 24.0453 31.0164 23.9495C31.5569 23.4178 31.9835 22.7814 32.27 22.0794C32.5566 21.3774 32.6971 20.6243 32.6831 19.8662C32.6882 19.1118 32.5436 18.3639 32.2575 17.6658C31.9714 16.9677 31.5495 16.3334 31.0164 15.7995L31.0498 15.8995Z" fill="#6B82AB"/>
<path d="M33.4999 12.8503C33.4021 12.7505 33.2854 12.6713 33.1566 12.6171C33.0278 12.563 32.8895 12.5352 32.7499 12.5352C32.6102 12.5352 32.4719 12.563 32.3431 12.6171C32.2143 12.6713 32.0976 12.7505 31.9999 12.8503C31.8996 12.9495 31.82 13.0676 31.7656 13.1978C31.7113 13.3279 31.6833 13.4676 31.6833 13.6086C31.6833 13.7497 31.7113 13.8893 31.7656 14.0195C31.82 14.1497 31.8996 14.2678 31.9999 14.367C32.8099 15.0642 33.4589 15.929 33.9021 16.9017C34.3452 17.8743 34.5719 18.9315 34.5665 20.0003C34.5581 21.0507 34.3315 22.0879 33.9012 23.0462C33.4708 24.0045 32.8461 24.8629 32.0665 25.567C31.8455 25.7548 31.7082 26.0228 31.6847 26.3119C31.6613 26.601 31.7537 26.8876 31.9415 27.1086C32.1294 27.3297 32.3973 27.467 32.6865 27.4904C32.9756 27.5139 33.2622 27.4215 33.4832 27.2336C34.4934 26.3202 35.2992 25.2037 35.8478 23.9571C36.3964 22.7106 36.6754 21.3622 36.6665 20.0003C36.6817 18.6512 36.4068 17.3146 35.8605 16.0811C35.3141 14.8475 34.5091 13.7457 33.4999 12.8503Z" fill="#6B82AB"/>
<path d="M6.75011 27.917L6.56677 30.6337C6.54839 30.9864 6.66898 31.3322 6.90266 31.5971C7.13634 31.8619 7.46451 32.0246 7.81677 32.0503C8.15373 32.0513 8.47855 31.9246 8.72592 31.6958C8.97328 31.467 9.12483 31.153 9.1501 30.817L9.33344 27.917H6.75011Z" fill="#6B82AB"/>
</svg>
