<svg width="48" height="44" viewBox="0 0 48 44" fill="none" xmlns="http://www.w3.org/2000/svg">
<path d="M8.34979 26.8201C7.5712 25.2313 7.15196 23.6426 6.8525 22.4657C6.49315 20.9947 6.25358 19.5236 6.1338 17.9937C6.0739 17.8172 6.07391 17.5818 6.07391 17.4053C6.07391 17.2288 6.07391 16.9934 6.07391 16.8169L5.89423 16.8757C5.23543 17.0523 4.39695 17.2288 3.3189 17.7584C2.6002 18.1114 1.82162 18.4645 1.16282 19.2883C0.50401 20.0532 0.144656 20.9947 0.0248735 22.1127C-0.154801 24.0545 0.683681 25.4667 1.10292 26.1728C1.58205 26.9378 2.18097 27.8792 3.3788 28.4088C4.27717 28.7619 5.05575 28.703 5.83434 28.6442C6.55304 28.5853 7.03217 28.4677 7.5113 28.2911C7.93054 28.1734 8.28989 28.0558 8.9487 27.9969C8.82892 27.8204 8.70913 27.585 8.64924 27.3497C8.52946 27.1731 8.40968 26.9966 8.34979 26.8201Z" fill="#A6B4CD"/>
<path d="M28.8936 2.22412L28.8337 2.28297L28.4145 2.69485C28.1749 2.93022 27.9953 3.16559 27.7557 3.34212C26.5579 4.46012 25.36 5.57813 24.1023 6.63729C22.5451 7.99066 21.2275 9.10866 19.2511 10.4032C17.9934 11.227 16.8555 11.8154 14.5796 13.0511C12.9625 13.8749 11.9444 14.4633 10.4471 15.1106L9.90806 15.3459C9.12947 15.699 8.47066 15.9932 7.93164 16.2286V17.5231C8.05142 19.053 8.291 20.5829 8.65034 22.054C9.00969 23.4073 9.42893 25.1137 10.3273 26.7613C10.4471 26.9379 10.5669 27.1732 10.6866 27.3498C10.8064 27.5263 10.9262 27.7616 11.1059 27.9382C12.4235 27.997 13.9208 27.8793 15.6576 27.7028C17.3945 27.5263 19.4308 27.3498 21.5869 27.3498C25.8991 27.3498 33.3855 29.4681 35.6614 29.8211C35.7812 24.5842 35.1223 19.3472 33.7448 14.2279C32.6668 9.99129 30.9898 5.93118 28.8936 2.22412Z" fill="#A6B4CD"/>
<path d="M40.0938 2.81274C39.6146 2.57737 39.1355 2.81275 38.896 3.22464C38.6564 3.69538 38.8959 4.16612 39.3152 4.40149C43.5076 6.34328 46.2027 10.7564 46.2027 15.6992C46.2027 18.2294 45.5439 20.5242 44.2862 22.5249C44.0466 22.9368 44.1664 23.4664 44.5856 23.7606C44.7054 23.8194 44.8851 23.8782 45.0648 23.8782C45.3642 23.8782 45.6637 23.7017 45.8434 23.4664C47.2807 21.1715 47.9994 18.5236 47.9994 15.6992C47.9994 10.1092 44.8851 5.04874 40.0938 2.81274Z" fill="#A6B4CD"/>
<path d="M25.2946 39.469C25.2347 39.2925 25.1149 39.0571 24.9951 38.7041C24.9352 38.5275 24.8154 38.2922 24.7556 38.0568C24.0369 36.0562 24.0967 35.5266 24.0967 35.2912C24.0967 34.8793 24.2165 34.5263 24.4561 33.7025C24.5759 33.2906 24.6358 32.9964 24.7556 32.7022C24.9352 32.1726 25.1149 31.7607 25.1748 31.2311C25.1748 31.0546 25.1748 30.8192 25.1748 30.5838C25.1748 30.172 25.055 29.7012 24.9352 29.2893C23.9171 29.1716 23.0187 29.1128 22.1802 29.1128C20.0241 29.1128 17.9878 29.2893 16.251 29.4658C14.5141 29.6424 13.0168 29.7601 11.6992 29.7012L12.1784 30.4662C12.2382 30.5838 12.4778 31.1134 12.8372 31.8784C14.1548 34.7616 16.9697 40.9989 17.6884 41.9992C18.5867 43.2349 19.3054 43.588 19.7846 43.7645C20.2038 43.941 20.623 43.9999 21.1022 43.9999C21.6412 43.9999 22.1802 43.8822 22.7791 43.6468C24.2165 43.1172 25.1149 42.2346 25.4144 41.1754C25.4743 40.9401 25.4742 40.7047 25.4742 40.4693C25.4742 40.1751 25.3545 39.8809 25.2946 39.469Z" fill="#A6B4CD"/>
<path d="M31.4653 0.458478C31.2257 0.0465825 30.6867 -0.129948 30.2674 0.105421C29.8482 0.34079 29.6685 0.87037 29.9081 1.28227C32.0642 5.10701 33.801 9.22596 34.9989 13.6391C36.4961 18.9938 37.095 24.5249 36.8555 30.0561C36.8555 30.5268 37.2148 30.9387 37.694 30.9976C37.694 30.9976 37.694 30.9976 37.7539 30.9976C38.233 30.9976 38.6522 30.6445 38.6522 30.1738C38.8918 24.5249 38.233 18.8172 36.7357 13.2861C35.478 8.63754 33.7411 4.40091 31.4653 0.458478Z" fill="#A6B4CD"/>
</svg>
