<svg width="11" height="12" viewBox="0 0 11 12" fill="none" xmlns="http://www.w3.org/2000/svg">
<path d="M6.38244 10.1107C5.13345 11.4399 2.97478 11.4466 1.56137 10.1304C0.14796 8.81414 0.0107031 6.66945 1.2597 5.34017L5.57368 0.748921C6.48167 -0.217429 8.05071 -0.22384 9.07991 0.734593C10.1091 1.69303 10.2073 3.25201 9.29931 4.21836L5.80704 7.93509C5.24006 8.53851 4.25832 8.54253 3.61565 7.94405C2.97297 7.34557 2.91154 6.37011 3.47852 5.76669L6.55993 2.48722L7.25849 3.13774L4.17708 6.41721C3.95111 6.65771 3.97346 7.04746 4.23193 7.28815C4.49039 7.52885 4.88252 7.52507 5.10849 7.28457L8.60075 3.56784C9.16773 2.96442 9.1063 1.98897 8.46363 1.39049C7.82096 0.792007 6.83921 0.796019 6.27223 1.39944L1.95826 5.9907C1.05027 6.95704 1.14845 8.51603 2.17765 9.47447C3.20686 10.4329 4.7759 10.4265 5.68389 9.46014L9.58701 5.30615L10.2856 5.95667L6.38244 10.1107Z" fill="#1DA1F2"/>
</svg>
