<svg width="14" height="15" viewBox="0 0 14 15" fill="none" xmlns="http://www.w3.org/2000/svg">
<path d="M8.59932 13.587C6.93399 15.3594 4.11043 15.4192 2.29319 13.7269C0.475948 12.0346 0.347604 9.22594 2.01294 7.45357L7.7649 1.33189C8.97556 0.0434275 11.0279 -0.00208694 12.3512 1.23018C13.6744 2.46246 13.7657 4.50414 12.555 5.79261L7.89865 10.7482C7.14267 11.5528 5.85852 11.5813 5.03222 10.8118C4.20593 10.0423 4.14886 8.76486 4.90484 7.9603L9.01338 3.58768L9.91153 4.42406L5.80298 8.79668C5.50169 9.11734 5.52162 9.62783 5.85393 9.93729C6.18625 10.2468 6.69921 10.2325 7.0005 9.91186L11.6569 4.95622C12.4128 4.15166 12.3558 2.87418 11.5295 2.10471C10.7032 1.33524 9.41902 1.36371 8.66305 2.16828L2.91108 8.28995C1.70043 9.57842 1.79164 11.6201 3.1149 12.8524C4.43817 14.0846 6.49052 14.0391 7.70118 12.7507L12.9053 7.21201L13.8035 8.04839L8.59932 13.587Z" fill="#A6B4CD"/>
</svg>
