<svg width="26" height="26" viewBox="0 0 26 26" fill="none" xmlns="http://www.w3.org/2000/svg">
<g clip-path="url(#clip0_302_6628)">
<path d="M8.00827 18.6159C6.76027 17.3679 6.76027 15.3359 8.00827 14.0879L15.0963 7.07992C15.9763 6.19992 17.3843 6.19992 18.2643 7.07992C19.1443 7.95992 19.1443 9.36792 18.2643 10.2479L11.1763 17.2719C10.6803 17.7679 9.86427 17.7679 9.36827 17.2719C8.87227 16.7759 8.87227 15.9599 9.36827 15.4639L12.9363 11.9759C13.0643 11.8479 13.2723 11.8479 13.3843 11.9759C13.5123 12.1039 13.5123 12.3119 13.3843 12.4239L9.83227 15.9119C9.59227 16.1519 9.59227 16.5679 9.83227 16.8079C10.0883 17.0639 10.4883 17.0639 10.7443 16.8079L17.8323 9.79992C18.4563 9.17592 18.4563 8.16792 17.8323 7.54392C17.2083 6.91992 16.2003 6.91992 15.5763 7.54392L8.47227 14.5519C7.48027 15.5439 7.48027 17.1759 8.47227 18.1679C9.48027 19.1599 11.0963 19.1599 12.0883 18.1679L18.2163 12.1199C18.3443 11.9919 18.5523 11.9919 18.6643 12.1199C18.7923 12.2479 18.7923 12.4559 18.6643 12.5679L12.5363 18.6319C11.2883 19.8639 9.27227 19.8799 8.00827 18.6159Z" fill="#6B82AB"/>
</g>
<rect x="1" y="1" width="24" height="24" rx="4" stroke="#DBE2EA"/>
<defs>
<clipPath id="clip0_302_6628">
<rect x="5" y="5" width="16" height="16" rx="4" fill="white"/>
</clipPath>
</defs>
</svg>
