<svg width="24" height="24" viewBox="0 0 24 24" fill="none" xmlns="http://www.w3.org/2000/svg">
<path fill-rule="evenodd" clip-rule="evenodd" d="M12 1.97998C12.4418 1.97998 12.8 2.33815 12.8 2.77998V3.34998C12.8 3.36053 12.7997 3.37102 12.7993 3.38147C14.2793 3.50244 15.6809 4.12457 16.7668 5.15446C17.996 6.32025 18.7249 7.91753 18.7999 9.60998V15.82L19.9299 18.46C19.9918 18.6214 20.0108 18.7962 19.985 18.9672C19.9592 19.1382 19.8895 19.2995 19.7827 19.4355C19.676 19.5716 19.5357 19.6775 19.3757 19.7432C19.2157 19.8088 19.0415 19.8318 18.8699 19.81H14.6141C14.5486 20.4008 14.2842 20.9553 13.8598 21.3797C13.3666 21.8729 12.6976 22.15 12.0001 22.15C11.3026 22.15 10.6336 21.8729 10.1404 21.3797C9.71604 20.9553 9.45166 20.4008 9.38614 19.81H5.12994C4.95841 19.8318 4.78414 19.8088 4.62415 19.7432C4.46417 19.6775 4.32393 19.5716 4.21714 19.4355C4.11035 19.2995 4.04065 19.1382 4.01485 18.9672C3.98906 18.7962 4.00804 18.6214 4.06994 18.46L5.19994 15.81V9.34998C5.19994 6.27851 7.82618 3.74091 11.201 3.39111C11.2003 3.37749 11.2 3.36378 11.2 3.34998V2.77998C11.2 2.33815 11.5581 1.97998 12 1.97998ZM10.8588 19.81C10.912 20.0121 11.0183 20.1983 11.1692 20.3479C11.3903 20.5671 11.6889 20.69 12.0001 20.69C12.3104 20.69 12.608 20.5668 12.8274 20.3473C12.9771 20.1977 13.082 20.0116 13.1336 19.81H10.8588ZM11.9999 4.74998H12.1699C13.5001 4.72969 14.7867 5.22389 15.7611 6.12945C16.7356 7.035 17.3228 8.28193 17.3999 9.60998V15.82C17.4007 16.0087 17.4381 16.1955 17.5099 16.37L18.3799 18.37H5.61994L6.48994 16.37C6.56181 16.1955 6.59917 16.0087 6.59994 15.82V9.35998C6.59994 6.81998 8.99994 4.74998 11.9999 4.74998Z" fill="#6B82AB"/>
</svg>
