<svg width="13" height="13" viewBox="0 0 13 13" fill="none" xmlns="http://www.w3.org/2000/svg">
<path d="M11.5793 2.33821H7.37289V1.91507C7.37289 1.65321 7.26948 1.40208 7.08542 1.21692C6.90135 1.03176 6.65171 0.927734 6.3914 0.927734C6.13109 0.927734 5.88145 1.03176 5.69738 1.21692C5.51332 1.40208 5.40991 1.65321 5.40991 1.91507V2.33821H1.20352C1.12915 2.33821 1.05782 2.36793 1.00523 2.42083C0.952641 2.47374 0.923096 2.54549 0.923096 2.6203V9.39059C0.923096 9.4654 0.952641 9.53715 1.00523 9.59006C1.05782 9.64296 1.12915 9.67268 1.20352 9.67268H3.79325L3.31373 11.7235C3.30398 11.765 3.30371 11.8081 3.31291 11.8497C3.32212 11.8913 3.34057 11.9302 3.36688 11.9636C3.39319 11.997 3.42667 12.024 3.46482 12.0425C3.50297 12.061 3.54479 12.0706 3.58714 12.0705H4.98927C5.05371 12.0722 5.11678 12.0516 5.16785 12.012C5.21893 11.9724 5.25489 11.9164 5.2697 11.8533L5.77166 9.67268H7.01114L7.52011 11.8533C7.53466 11.9152 7.56959 11.9703 7.61922 12.0098C7.66886 12.0492 7.73028 12.0706 7.79353 12.0705H9.19566C9.2386 12.0717 9.28123 12.0629 9.32026 12.0448C9.3593 12.0268 9.39369 12 9.42079 11.9664C9.44789 11.9329 9.46697 11.8936 9.47655 11.8515C9.48614 11.8093 9.48598 11.7656 9.47608 11.7235L8.98955 9.67268H11.5793C11.6537 9.67268 11.725 9.64296 11.7776 9.59006C11.8302 9.53715 11.8597 9.4654 11.8597 9.39059V2.6203C11.8597 2.54549 11.8302 2.47374 11.7776 2.42083C11.725 2.36793 11.6537 2.33821 11.5793 2.33821ZM5.97076 1.91507C5.97076 1.80284 6.01508 1.69521 6.09396 1.61586C6.17285 1.53651 6.27984 1.49192 6.3914 1.49192C6.50296 1.49192 6.60995 1.53651 6.68884 1.61586C6.76772 1.69521 6.81204 1.80284 6.81204 1.91507V2.33821H5.97076V1.91507ZM5.69034 2.9024H11.2989V7.69802H1.48395V2.9024H5.69034ZM4.76773 11.5063H3.94188L4.36252 9.67268H5.18837L4.76773 11.5063ZM8.84092 11.5063H8.01507L7.59443 9.67268H8.42028L8.84092 11.5063ZM8.63481 9.10849H1.48395V8.26221H11.2989V9.10849H8.63481Z" fill="#6B82AB"/>
</svg>
