<svg width="24" height="24" viewBox="0 0 24 24" fill="none" xmlns="http://www.w3.org/2000/svg">
    <path fill-rule="evenodd" clip-rule="evenodd" d="M6.00161 8.36401V12.2744C6.30553 12.2769 6.60619 12.3379 6.88709 12.4543C7.17386 12.573 7.43443 12.7472 7.65391 12.9666C7.87339 13.1861 8.0475 13.4467 8.16628 13.7335C8.2849 14.0198 8.34604 14.3268 8.3462 14.6367H18.6497C18.6508 14.3292 18.7119 14.0248 18.8296 13.7406C18.9484 13.4539 19.1225 13.1933 19.342 12.9738C19.5615 12.7543 19.822 12.5802 20.1088 12.4614C20.392 12.3442 20.6952 12.2831 21.0016 12.2815V8.36401C20.6912 8.36401 20.3839 8.30287 20.0971 8.18409C19.8103 8.06531 19.5498 7.8912 19.3303 7.67172C19.1108 7.45224 18.9367 7.19167 18.8179 6.9049C18.6991 6.61813 18.638 6.31078 18.638 6.00038H8.36524C8.36524 6.31078 8.30411 6.61813 8.18532 6.9049C8.06654 7.19167 7.89244 7.45224 7.67295 7.67172C7.45347 7.8912 7.1929 8.06531 6.90613 8.18409C6.61937 8.30287 6.31201 8.36401 6.00161 8.36401ZM4.00161 5.50687C4.00161 4.67486 4.67609 4.00038 5.5081 4.00038H21.4951C22.3271 4.00038 23.0016 4.67486 23.0016 5.50687V15.1302C23.0016 15.9622 22.3271 16.6367 21.4951 16.6367H5.5081C4.67609 16.6367 4.00161 15.9622 4.00161 15.1302V5.50687ZM15.7123 10.3186C15.7123 11.624 14.654 12.6823 13.3486 12.6823C12.0432 12.6823 10.985 11.624 10.985 10.3186C10.985 9.01323 12.0432 7.95499 13.3486 7.95499C14.654 7.95499 15.7123 9.01323 15.7123 10.3186ZM0.401318 10.4935V18.987C0.401318 19.819 0.968524 20.4934 1.80054 20.4934L16.4013 20.4935C16.9536 20.4935 17.4013 20.0458 17.4013 19.4935C17.4013 18.9412 16.9536 18.4935 16.4013 18.4935H3.60132C2.93858 18.4935 2.40132 17.9562 2.40132 17.2935V10.4935C2.40132 9.94122 1.9536 9.49351 1.40132 9.49351C0.849034 9.49351 0.401318 9.94122 0.401318 10.4935Z" fill="#212427"/>
</svg>