<svg width="24" height="24" viewBox="0 0 24 24" fill="none" xmlns="http://www.w3.org/2000/svg">
<path fill-rule="evenodd" clip-rule="evenodd" d="M6.00166 8.364V12.2744C6.30558 12.2769 6.60624 12.3379 6.88714 12.4543C7.17391 12.573 7.43447 12.7471 7.65396 12.9666C7.87344 13.1861 8.04755 13.4467 8.16633 13.7334C8.28495 14.0198 8.34609 14.3267 8.34625 14.6367H18.6498C18.6509 14.3292 18.712 14.0248 18.8297 13.7406C18.9485 13.4538 19.1226 13.1933 19.342 12.9738C19.5615 12.7543 19.8221 12.5802 20.1089 12.4614C20.392 12.3441 20.6952 12.2831 21.0017 12.2815V8.364C20.6913 8.364 20.3839 8.30286 20.0971 8.18408C19.8104 8.06529 19.5498 7.89119 19.3303 7.67171C19.1108 7.45222 18.9367 7.19166 18.8179 6.90489C18.6992 6.61812 18.638 6.31076 18.638 6.00037H8.36529C8.36529 6.31076 8.30416 6.61812 8.18537 6.90489C8.06659 7.19166 7.89248 7.45222 7.673 7.67171C7.45352 7.89119 7.19295 8.06529 6.90618 8.18408C6.61941 8.30286 6.31206 8.364 6.00166 8.364ZM4.00166 5.50686C4.00166 4.67485 4.67614 4.00037 5.50815 4.00037H21.4952C22.3272 4.00037 23.0017 4.67484 23.0017 5.50686V15.1302C23.0017 15.9622 22.3272 16.6367 21.4952 16.6367H5.50815C4.67614 16.6367 4.00166 15.9622 4.00166 15.1302V5.50686ZM15.7123 10.3186C15.7123 11.624 14.6541 12.6822 13.3487 12.6822C12.0433 12.6822 10.9851 11.624 10.9851 10.3186C10.9851 9.01322 12.0433 7.95498 13.3487 7.95498C14.6541 7.95498 15.7123 9.01322 15.7123 10.3186ZM0.401367 10.4935V18.987C0.401367 19.819 0.968573 20.4933 1.80059 20.4933L16.4014 20.4935C16.9536 20.4935 17.4014 20.0458 17.4014 19.4935C17.4014 18.9412 16.9537 18.4935 16.4014 18.4935H3.60137C2.93863 18.4935 2.40137 17.9562 2.40137 17.2935V10.4935C2.40137 9.94121 1.95365 9.49349 1.40137 9.49349C0.849082 9.49349 0.401367 9.94121 0.401367 10.4935Z" fill="#1DA1F2"/>
</svg>
