<svg width="24" height="24" viewBox="0 0 24 24" fill="none" xmlns="http://www.w3.org/2000/svg">
<path fill-rule="evenodd" clip-rule="evenodd" d="M6.00137 8.36401V12.2744C6.30529 12.2769 6.60594 12.3379 6.88685 12.4543C7.17362 12.573 7.43418 12.7472 7.65367 12.9666C7.87315 13.1861 8.04725 13.4467 8.16604 13.7335C8.28466 14.0198 8.34579 14.3268 8.34596 14.6367H18.6495C18.6506 14.3292 18.7117 14.0248 18.8294 13.7406C18.9482 13.4539 19.1223 13.1933 19.3417 12.9738C19.5612 12.7543 19.8218 12.5802 20.1086 12.4614C20.3917 12.3442 20.695 12.2831 21.0014 12.2815V8.36401C20.691 8.36401 20.3836 8.30287 20.0968 8.18409C19.8101 8.06531 19.5495 7.8912 19.33 7.67172C19.1105 7.45224 18.9364 7.19167 18.8177 6.9049C18.6989 6.61813 18.6377 6.31078 18.6377 6.00038H8.365C8.365 6.31078 8.30386 6.61813 8.18508 6.9049C8.0663 7.19167 7.89219 7.45224 7.67271 7.67172C7.45322 7.8912 7.19266 8.06531 6.90589 8.18409C6.61912 8.30287 6.31176 8.36401 6.00137 8.36401ZM4.00137 5.50687C4.00137 4.67486 4.67585 4.00038 5.50786 4.00038H21.4949C22.3269 4.00038 23.0014 4.67486 23.0014 5.50687V15.1302C23.0014 15.9622 22.3269 16.6367 21.4949 16.6367H5.50786C4.67585 16.6367 4.00137 15.9622 4.00137 15.1302V5.50687ZM15.712 10.3186C15.712 11.624 14.6538 12.6823 13.3484 12.6823C12.043 12.6823 10.9848 11.624 10.9848 10.3186C10.9848 9.01323 12.043 7.95499 13.3484 7.95499C14.6538 7.95499 15.712 9.01323 15.712 10.3186ZM0.401074 10.4935V18.987C0.401074 19.819 0.96828 20.4934 1.80029 20.4934L16.4011 20.4935C16.9534 20.4935 17.4011 20.0458 17.4011 19.4935C17.4011 18.9412 16.9534 18.4935 16.4011 18.4935H3.60107C2.93833 18.4935 2.40107 17.9562 2.40107 17.2935V10.4935C2.40107 9.94122 1.95336 9.49351 1.40107 9.49351C0.848789 9.49351 0.401074 9.94122 0.401074 10.4935Z" fill="#65B66D"/>
</svg>
