<svg width="24" height="24" viewBox="0 0 24 24" fill="none" xmlns="http://www.w3.org/2000/svg">
<path d="M19.1598 15.43C19.1598 13.8 17.8398 12.48 16.2098 12.48C14.5798 12.48 13.2598 13.8 13.2598 15.43C13.2598 16.47 13.8098 17.39 14.6298 17.91V20.47L16.1098 19.19L17.9598 20.47V17.79C18.6798 17.25 19.1598 16.4 19.1598 15.43ZM16.2098 13.79C17.1198 13.79 17.8498 14.53 17.8498 15.43C17.8498 16.33 17.1098 17.07 16.2098 17.07C15.3098 17.07 14.5698 16.33 14.5698 15.43C14.5698 14.53 15.3098 13.79 16.2098 13.79Z" fill="#1F3965"/>
<path d="M18.6901 4.28003H5.31008C3.66008 4.28003 2.33008 5.62003 2.33008 7.26003V15.8C2.33008 17.45 3.67008 18.78 5.31008 18.78H14.1301C13.0101 18.08 12.2501 16.85 12.2501 15.43C12.2501 13.25 14.0301 11.47 16.2101 11.47C18.3901 11.47 20.1701 13.25 20.1701 15.43C20.1701 16.85 19.4101 18.08 18.2901 18.78H18.6901C20.3401 18.78 21.6701 17.44 21.6701 15.8V7.26003C21.6701 5.61003 20.3301 4.28003 18.6901 4.28003ZM12.2701 11.51H6.20008C5.83008 11.51 5.52008 11.21 5.52008 10.83C5.52008 10.45 5.82008 10.15 6.20008 10.15H12.2701C12.6401 10.15 12.9501 10.45 12.9501 10.83C12.9501 11.21 12.6501 11.51 12.2701 11.51ZM17.8001 8.83003H6.20008C5.83008 8.83003 5.52008 8.53003 5.52008 8.15003C5.52008 7.77003 5.82008 7.47003 6.20008 7.47003H17.8001C18.1701 7.47003 18.4801 7.77003 18.4801 8.15003C18.4801 8.53003 18.1801 8.83003 17.8001 8.83003Z" fill="#1F3965"/>
</svg>
