<svg width="16" height="16" viewBox="0 0 16 16" fill="none" xmlns="http://www.w3.org/2000/svg">
<mask id="mask0" mask-type="alpha" maskUnits="userSpaceOnUse" x="3" y="2" width="12" height="10">
<path d="M3.33325 4.66667L5.5 6L5.33325 9.33333L6.66659 10.6667L8.33325 11.3333H11.6666H14.6666V10.3333V9.33333L14.9999 8L14.6666 6V3L11.3333 2L7.33325 2.33333L4.66659 2.66667L3.66659 3.66667L3.33325 4.66667Z" fill="#C4C4C4"/>
</mask>
<g mask="url(#mask0)">
<rect x="4.83325" y="3.83337" width="9" height="6.33333" rx="1.5" stroke="#6B82AB"/>
<rect x="9.25" y="8.25" width="3.5" height="1.5" rx="0.75" stroke="#6B82AB" stroke-width="0.5"/>
</g>
<path d="M4.31984 9.45418C5.41551 9.45418 6.30374 8.5317 6.30374 7.39377C6.30374 6.25585 5.41551 5.33337 4.31984 5.33337C3.22416 5.33337 2.33594 6.25585 2.33594 7.39377C2.33594 8.5317 3.22416 9.45418 4.31984 9.45418Z" stroke="#6B82AB"/>
<path fill-rule="evenodd" clip-rule="evenodd" d="M2.9151 10.3014C3.65195 10.3085 4.90413 10.3372 5.72399 10.3014C6.72993 10.3014 7.42341 11.1411 7.55306 12.1485L7.63607 12.7927C7.64476 12.8603 7.63908 12.9289 7.6194 12.9941C7.59973 13.0592 7.56651 13.1194 7.52198 13.1706C7.47744 13.2218 7.42261 13.2628 7.36114 13.2908C7.29967 13.3189 7.23297 13.3334 7.16551 13.3334H1.47591C1.40833 13.3336 1.34148 13.3192 1.27984 13.2913C1.2182 13.2633 1.16319 13.2223 1.1185 13.1711C1.07381 13.1199 1.04047 13.0597 1.02072 12.9944C1.00096 12.9292 0.995247 12.8604 1.00395 12.7927L1.0865 12.1503C1.21568 11.1411 1.90962 10.3014 2.9151 10.3014Z" stroke="#6B82AB"/>
</svg>
