<svg width="16" height="16" viewBox="0 0 16 16" fill="none" xmlns="http://www.w3.org/2000/svg">
<path d="M8 1C6.61553 1 5.26215 1.41054 4.11101 2.17971C2.95987 2.94888 2.06266 4.04213 1.53285 5.32121C1.00303 6.6003 0.86441 8.00776 1.13451 9.36563C1.4046 10.7235 2.07129 11.9708 3.05026 12.9497C4.02922 13.9287 5.2765 14.5954 6.63437 14.8655C7.99224 15.1356 9.3997 14.997 10.6788 14.4672C11.9579 13.9373 13.0511 13.0401 13.8203 11.889C14.5895 10.7378 15 9.38447 15 8C15 6.14348 14.2625 4.36301 12.9497 3.05025C11.637 1.7375 9.85652 1 8 1ZM8 13.7272C6.86728 13.7272 5.75999 13.3913 4.81816 12.762C3.87633 12.1327 3.14227 11.2382 2.70879 10.1917C2.27532 9.14519 2.1619 7.99364 2.38288 6.88268C2.60387 5.77172 3.14933 4.75124 3.95028 3.95028C4.75124 3.14932 5.77173 2.60386 6.88269 2.38288C7.99365 2.1619 9.14519 2.27531 10.1917 2.70879C11.2382 3.14226 12.1327 3.87633 12.762 4.81816C13.3913 5.75998 13.7272 6.86727 13.7272 8C13.7272 9.51894 13.1238 10.9757 12.0497 12.0497C10.9757 13.1238 9.51894 13.7272 8 13.7272V13.7272Z" fill="#6B82AB"/>
<path d="M8.63709 7.73629V4.18146C8.63709 4.01267 8.57004 3.8508 8.45069 3.73145C8.33134 3.61209 8.16946 3.54504 8.00067 3.54504C7.83189 3.54504 7.67001 3.61209 7.55066 3.73145C7.43131 3.8508 7.36426 4.01267 7.36426 4.18146V7.99996C7.36422 8.08361 7.38069 8.16645 7.41272 8.24373C7.44475 8.321 7.49172 8.3912 7.55092 8.45029L9.46426 10.359C9.52332 10.418 9.59344 10.4649 9.67061 10.4968C9.74777 10.5288 9.83048 10.5453 9.91401 10.5453C9.99753 10.5453 10.0802 10.5288 10.1574 10.4968C10.2346 10.4649 10.3047 10.418 10.3638 10.359C10.4228 10.2999 10.4697 10.2298 10.5016 10.1526C10.5336 10.0754 10.55 9.99274 10.55 9.90921C10.55 9.82568 10.5336 9.74297 10.5016 9.66581C10.4697 9.58864 10.4228 9.51852 10.3638 9.45946L8.63709 7.73629Z" fill="#6B82AB"/>
</svg>
