<svg width="16" height="16" viewBox="0 0 16 16" fill="none" xmlns="http://www.w3.org/2000/svg">
<path fill-rule="evenodd" clip-rule="evenodd" d="M11.2769 11.2752L11.2761 11.276C11.1786 11.3733 11.0465 11.4279 10.9088 11.4279C10.7711 11.4279 10.639 11.3733 10.5415 11.276L7.95722 8.69154L5.36428 11.2841C5.2667 11.3739 5.13835 11.4228 5.00577 11.4211C4.8732 11.4195 4.74625 11.3673 4.65089 11.2752C4.55554 11.1831 4.49896 11.058 4.49276 10.9256C4.48656 10.7931 4.53119 10.6633 4.61753 10.5627L4.62499 10.554L7.22276 7.95657L4.62986 5.36402C4.5401 5.26644 4.4912 5.13807 4.49283 5.00548C4.49446 4.8729 4.54668 4.74595 4.63881 4.6506C4.73095 4.55524 4.85602 4.49871 4.98843 4.49251C5.12087 4.48631 5.25066 4.53094 5.35128 4.61726L5.35998 4.62471L7.9578 7.22219L10.5513 4.62902C10.6501 4.53866 10.7801 4.49008 10.914 4.49305C11.0479 4.49602 11.1754 4.55052 11.2701 4.64519C11.3648 4.73987 11.4193 4.86743 11.4223 5.00131C11.4253 5.1352 11.3765 5.26505 11.2861 5.36382L11.277 5.3737L8.69177 7.95718L11.2756 10.5406C11.3729 10.6379 11.4279 10.77 11.4282 10.9077C11.4284 11.0454 11.374 11.1776 11.2769 11.2752Z" fill="#6B82AB"/>
<path fill-rule="evenodd" clip-rule="evenodd" d="M8 15C11.866 15 15 11.866 15 8C15 4.13401 11.866 1 8 1C4.13401 1 1 4.13401 1 8C1 11.866 4.13401 15 8 15ZM8 16C12.4183 16 16 12.4183 16 8C16 3.58172 12.4183 0 8 0C3.58172 0 0 3.58172 0 8C0 12.4183 3.58172 16 8 16Z" fill="#6B82AB"/>
</svg>
