<svg width="20" height="20" viewBox="0 0 20 20" fill="none" xmlns="http://www.w3.org/2000/svg">
<path d="M8.59106 8.9403C10.4364 8.9403 11.9324 7.38666 11.9324 5.47015C11.9324 3.55364 10.4364 2 8.59106 2C6.74571 2 5.24976 3.55364 5.24976 5.47015C5.24976 7.38666 6.74571 8.9403 8.59106 8.9403Z" stroke="#6B82AB"/>
<path fill-rule="evenodd" clip-rule="evenodd" d="M6.22542 10.3672C7.46644 10.3791 9.57538 10.4275 10.9562 10.3672C12.6504 10.3672 13.8184 11.7814 14.0367 13.478L14.1765 14.5631C14.1912 14.6769 14.1816 14.7925 14.1485 14.9023C14.1153 15.012 14.0594 15.1134 13.9844 15.1995C13.9094 15.2857 13.817 15.3547 13.7135 15.402C13.61 15.4493 13.4976 15.4737 13.384 15.4737H3.80153C3.68771 15.474 3.57512 15.4499 3.4713 15.4028C3.36749 15.3556 3.27485 15.2867 3.19958 15.2004C3.12431 15.1142 3.06817 15.0127 3.03489 14.9028C3.00162 14.7929 2.99199 14.6771 3.00666 14.5631L3.14568 13.4812C3.36325 11.7814 4.53199 10.3672 6.22542 10.3672Z" stroke="#6B82AB"/>
<circle cx="13.1053" cy="13.7896" r="4.21053" fill="white"/>
<path d="M16.5737 13.7894V13.7893C16.5737 13.1033 16.3702 12.4327 15.9891 11.8624C15.608 11.292 15.0663 10.8474 14.4325 10.5849C13.7988 10.3224 13.1014 10.2537 12.4286 10.3875C11.7558 10.5214 11.1378 10.8517 10.6527 11.3368C10.1676 11.8218 9.83729 12.4399 9.70346 13.1127C9.56963 13.7855 9.63832 14.4829 9.90084 15.1166C10.1634 15.7504 10.6079 16.2921 11.1783 16.6732C11.7487 17.0543 12.4192 17.2577 13.1052 17.2577V17.1578L13.1054 17.2577C14.0249 17.2567 14.9065 16.891 15.5567 16.2408C16.2069 15.5905 16.5726 14.709 16.5737 13.7894ZM11.5567 11.4718C12.0151 11.1656 12.5539 11.0021 13.1052 11.0021C13.8442 11.0029 14.5526 11.2969 15.0752 11.8194C15.5977 12.3419 15.8916 13.0504 15.8925 13.7894C15.8924 14.3407 15.729 14.8795 15.4227 15.3378C15.1165 15.7962 14.6812 16.1534 14.1719 16.3644C13.6626 16.5753 13.1021 16.6305 12.5615 16.523C12.0208 16.4154 11.5242 16.15 11.1344 15.7602C10.7446 15.3704 10.4791 14.8737 10.3716 14.3331C10.264 13.7924 10.3192 13.232 10.5302 12.7227C10.7411 12.2134 11.0984 11.7781 11.5567 11.4718Z" fill="#6B82AB" stroke="#6B82AB" stroke-width="0.2"/>
<path d="M14.549 13.5491H13.346V12.3461C13.346 12.2823 13.3206 12.2211 13.2755 12.1759C13.2304 12.1308 13.1692 12.1055 13.1054 12.1055C13.0415 12.1055 12.9803 12.1308 12.9352 12.1759C12.8901 12.2211 12.8648 12.2823 12.8648 12.3461V13.5491H11.6617C11.5979 13.5491 11.5367 13.5744 11.4916 13.6195C11.4465 13.6647 11.4211 13.7259 11.4211 13.7897C11.4211 13.8535 11.4465 13.9147 11.4916 13.9598C11.5367 14.0049 11.5979 14.0303 11.6617 14.0303H12.8648V15.2333C12.8648 15.2971 12.8901 15.3583 12.9352 15.4034C12.9803 15.4485 13.0415 15.4739 13.1054 15.4739C13.1692 15.4739 13.2304 15.4485 13.2755 15.4034C13.3206 15.3583 13.346 15.2971 13.346 15.2333V14.0303H14.549C14.6128 14.0303 14.674 14.0049 14.7191 13.9598C14.7642 13.9147 14.7896 13.8535 14.7896 13.7897C14.7896 13.7259 14.7642 13.6647 14.7191 13.6195C14.674 13.5744 14.6128 13.5491 14.549 13.5491Z" fill="#6B82AB" stroke="#6B82AB" stroke-width="0.3"/>
</svg>
