<svg width="47" height="53" viewBox="0 0 47 53" fill="none" xmlns="http://www.w3.org/2000/svg">
<path d="M2.5 12.228H7.16667H44.5" stroke="#FF5E5E" stroke-width="4.17188" stroke-linecap="round" stroke-linejoin="round"/>
<path d="M14.166 12.225V7.425C14.166 6.15196 14.6577 4.93106 15.5329 4.03089C16.408 3.13071 17.595 2.625 18.8327 2.625H28.166C29.4037 2.625 30.5907 3.13071 31.4659 4.03089C32.341 4.93106 32.8327 6.15196 32.8327 7.425V12.225M39.8327 12.225V45.825C39.8327 47.098 39.341 48.3189 38.4659 49.2191C37.5907 50.1193 36.4037 50.625 35.166 50.625H11.8327C10.595 50.625 9.40802 50.1193 8.53285 49.2191C7.65768 48.3189 7.16602 47.098 7.16602 45.825V12.225H39.8327Z" stroke="#FF5E5E" stroke-width="4.17188" stroke-linecap="round" stroke-linejoin="round"/>
<path d="M28.1641 24.2266V38.6266" stroke="#FF5E5E" stroke-width="4.17188" stroke-linecap="round" stroke-linejoin="round"/>
<path d="M18.834 24.2266V38.6266" stroke="#FF5E5E" stroke-width="4.17188" stroke-linecap="round" stroke-linejoin="round"/>
</svg>
