<svg width="24" height="24" viewBox="0 0 24 24" fill="none" xmlns="http://www.w3.org/2000/svg">
<path fill-rule="evenodd" clip-rule="evenodd" d="M15.4448 5.55523C15.3454 5.45583 15.2106 5.4 15.07 5.4H3.93003C3.78946 5.4 3.65465 5.45583 3.55526 5.55523C3.45587 5.65462 3.40003 5.78943 3.40003 5.93V14.07C3.40003 14.2106 3.45587 14.3454 3.55526 14.4448C3.65465 14.5442 3.78946 14.6 3.93003 14.6H6.22003V16.27L7.44003 15L7.86003 14.6H15.07C15.2106 14.6 15.3454 14.5442 15.4448 14.4448C15.5442 14.3454 15.6 14.2106 15.6 14.07V5.93C15.6 5.78943 15.5442 5.65462 15.4448 5.55523ZM3.93003 4H15.07C15.3238 3.99867 15.5754 4.04769 15.8102 4.14421C16.0449 4.24073 16.2582 4.38284 16.4377 4.56232C16.6172 4.74181 16.7593 4.95509 16.8558 5.18985C16.9523 5.42461 17.0014 5.67617 17 5.93V7.5H19.42C19.6413 7.49863 19.8608 7.54156 20.0653 7.62625C20.2698 7.71095 20.4554 7.83571 20.611 7.99318C20.7666 8.15065 20.8891 8.33766 20.9714 8.5432C21.0536 8.74874 21.094 8.96865 21.09 9.19V16.32C21.0926 16.538 21.0523 16.7544 20.9713 16.9568C20.8903 17.1592 20.7702 17.3437 20.6179 17.4997C20.4656 17.6557 20.2841 17.7802 20.0837 17.866C19.8833 17.9519 19.668 17.9974 19.45 18H18.7V19.99C18.7013 20.0565 18.6893 20.1226 18.6648 20.1844C18.6403 20.2462 18.6037 20.3025 18.5571 20.35C18.5105 20.3975 18.455 20.4353 18.3936 20.461C18.3323 20.4868 18.2665 20.5 18.2 20.5C18.1322 20.4991 18.0654 20.4845 18.0035 20.457C17.9417 20.4294 17.886 20.3897 17.84 20.34L15.62 18H9.99996C9.77943 18.0013 9.56084 17.9587 9.35697 17.8747C9.15309 17.7906 8.96801 17.6667 8.81254 17.5103C8.65706 17.3539 8.53431 17.1681 8.45146 16.9637C8.3686 16.7594 8.32729 16.5405 8.32995 16.32V16.1126L5.83003 18.67C5.77701 18.7283 5.71207 18.7746 5.6396 18.8057C5.56714 18.8367 5.48884 18.8518 5.41003 18.85C5.33217 18.8513 5.25484 18.837 5.18265 18.8078C5.11046 18.7787 5.04488 18.7353 4.98982 18.6802C4.93476 18.6251 4.89135 18.5596 4.86218 18.4874C4.83301 18.4152 4.81867 18.3378 4.82003 18.26V16H3.93003C3.6762 16.0013 3.42464 15.9523 3.18988 15.8558C2.95512 15.7593 2.74184 15.6171 2.56235 15.4377C2.38287 15.2582 2.24076 15.0449 2.14424 14.8101C2.04772 14.5754 1.9987 14.3238 2.00003 14.07V5.93C1.9987 5.67617 2.04772 5.42461 2.14424 5.18985C2.24076 4.95509 2.38287 4.74181 2.56235 4.56232C2.74184 4.38284 2.95512 4.24073 3.18988 4.14421C3.42464 4.04769 3.6762 3.99867 3.93003 4ZM9.77995 16V16.32C9.77577 16.3529 9.77816 16.3862 9.78699 16.4182C9.79582 16.4501 9.8109 16.48 9.83137 16.506C9.85184 16.5321 9.87729 16.5538 9.90623 16.5699C9.93517 16.5861 9.96703 16.5963 9.99996 16.6H16.2L16.62 17.05L17.25 17.71V16.6H19.46C19.5272 16.5924 19.5888 16.5589 19.6318 16.5067C19.6747 16.4544 19.6956 16.3874 19.69 16.32V9.19C19.6958 9.12146 19.6752 9.05328 19.6325 8.99939C19.5897 8.94549 19.528 8.90995 19.46 8.9H17V14.07C17.0014 14.3238 16.9523 14.5754 16.8558 14.8101C16.7593 15.0449 16.6172 15.2582 16.4377 15.4377C16.2582 15.6171 16.0449 15.7593 15.8102 15.8558C15.5754 15.9523 15.3238 16.0013 15.07 16H9.77995Z" fill="#6B82AB"/>
<path d="M9.45 12.35C9.33487 12.35 9.22234 12.3843 9.12676 12.4485C9.03117 12.5127 8.95685 12.6038 8.91326 12.7104C8.86968 12.817 8.85879 12.9341 8.88199 13.0469C8.90519 13.1597 8.96143 13.263 9.04355 13.3437C9.12567 13.4244 9.22995 13.4788 9.34311 13.5C9.45627 13.5213 9.57319 13.5084 9.67898 13.4629C9.78477 13.4175 9.87464 13.3416 9.93716 13.2449C9.99967 13.1482 10.032 13.0351 10.03 12.92C10.0274 12.7679 9.96512 12.6229 9.85663 12.5163C9.74814 12.4097 9.60211 12.35 9.45 12.35V12.35ZM9.50001 6.5C9.25343 6.50188 9.00932 6.54935 8.78 6.64C8.41534 6.78275 8.10061 7.02941 7.87484 7.34939C7.64908 7.66937 7.52222 8.04858 7.51001 8.44C7.50406 8.51837 7.51631 8.59706 7.5458 8.66992C7.57529 8.74277 7.62122 8.80783 7.68 8.86C7.78065 8.95267 7.91323 9.00284 8.05001 9C8.18784 9.00161 8.32203 8.9557 8.43001 8.87C8.48993 8.81989 8.53804 8.75714 8.57089 8.68626C8.60374 8.61538 8.62051 8.53812 8.62001 8.46C8.62392 8.28626 8.6792 8.11757 8.77886 7.9752C8.87852 7.83283 9.0181 7.72315 9.18001 7.66C9.3409 7.59976 9.51603 7.5885 9.68332 7.62766C9.8506 7.66681 10.0026 7.75461 10.12 7.88C10.2425 7.99735 10.3256 8.14981 10.3579 8.31638C10.3901 8.48294 10.3699 8.65541 10.3 8.81C10.2412 8.94074 10.157 9.05846 10.0523 9.15633C9.94758 9.25419 9.82442 9.33022 9.69 9.38C9.52403 9.45078 9.36911 9.54508 9.23 9.66C9.12641 9.75349 9.04353 9.86763 8.9867 9.99508C8.92987 10.1225 8.90033 10.2605 8.9 10.4V11.45C8.8988 11.5287 8.9142 11.6068 8.94522 11.6792C8.97623 11.7516 9.02216 11.8166 9.08001 11.87C9.18619 11.96 9.32079 12.0096 9.46001 12.01C9.53347 12.0114 9.60645 11.9978 9.67448 11.97C9.74251 11.9423 9.80415 11.9009 9.85564 11.8485C9.90713 11.7961 9.94738 11.7337 9.97392 11.6652C10.0005 11.5966 10.0127 11.5234 10.01 11.45V10.45L10.19 10.36C10.6607 10.1335 11.0462 9.76196 11.29 9.3C11.4538 8.93802 11.5061 8.53545 11.4402 8.14362C11.3743 7.75179 11.1932 7.38847 10.92 7.1C10.6497 6.81611 10.302 6.6179 9.92001 6.53C9.77705 6.51529 9.63296 6.51529 9.49 6.53L9.50001 6.5Z" fill="#6B82AB"/>
</svg>
