<svg width="16" height="16" viewBox="0 0 16 16" fill="none" xmlns="http://www.w3.org/2000/svg">
<path d="M12.5873 12.8374L9.98471 11.6537C9.91395 11.6227 9.85147 11.5754 9.80416 11.5171C9.75684 11.4587 9.72653 11.3916 9.71655 11.323C9.70656 11.2545 9.7173 11.1871 9.74758 11.1285C9.77786 11.0698 9.8265 11.0221 9.88816 10.9905L10.67 10.5836L8.51398 7.53847L6.28497 8.69938C6.15242 8.76804 5.98842 8.782 5.8289 8.73819C5.66939 8.69437 5.52735 8.59636 5.4339 8.46563L2.56638 4.45341C2.47341 4.32243 2.43676 4.16957 2.46446 4.02832C2.49216 3.88706 2.58195 3.76893 2.71416 3.6998C2.84567 3.63362 3.0069 3.62012 3.16418 3.66212C3.32061 3.70653 3.45994 3.80256 3.55317 3.93024L6.06156 7.45187L8.31705 6.29636C8.4496 6.22769 8.61359 6.21374 8.77311 6.25755C8.93263 6.30136 9.07467 6.39937 9.16812 6.53011L11.6762 10.0535L12.458 9.64659C12.5187 9.61525 12.5898 9.60081 12.6637 9.60485C12.7376 9.60888 12.8115 9.63122 12.8775 9.66948C12.9434 9.70775 12.999 9.76048 13.0381 9.82202C13.0773 9.88357 13.0986 9.95161 13.0998 10.0188L13.1351 12.5387C13.138 12.5998 13.1243 12.6586 13.0952 12.71C13.0661 12.7614 13.0226 12.8038 12.9684 12.8333C12.9142 12.8629 12.8511 12.8787 12.7846 12.8794C12.7181 12.8801 12.6504 12.8657 12.5873 12.8374V12.8374Z" fill="#FF5E5E"/>
</svg>
