<svg width="20" height="20" viewBox="0 0 20 20" fill="none" xmlns="http://www.w3.org/2000/svg">
<path d="M20.0005 14.5543V18.99C20.0005 19.0784 19.9879 19.1604 19.969 19.2361C19.8808 19.6715 19.4967 19.9996 19.0433 19.9996H0.950904C0.466006 19.9996 0.0629738 19.6273 0.0125948 19.1541C4.78575e-08 19.0973 0 19.0468 0 18.9837V14.548C0 14.0243 0.428222 13.6016 0.944606 13.6016C1.2028 13.6016 1.4421 13.7088 1.61213 13.8792C1.78216 14.0495 1.88921 14.2893 1.88921 14.548V18.1004H18.1175V14.548C18.1175 14.0243 18.5458 13.6016 19.0622 13.6016C19.3203 13.6016 19.5596 13.7088 19.7297 13.8792C19.8934 14.0559 20.0005 14.2956 20.0005 14.5543Z" fill="#1F3965"/>
<path d="M15.4475 10.1144L10.8064 14.7646C10.8001 14.7773 10.7875 14.7836 10.7812 14.7899C10.6111 14.9602 10.3907 15.0675 10.1703 15.0991C10.1514 15.0991 10.1325 15.1054 10.1136 15.1054C10.0759 15.1117 10.0381 15.1117 10.0003 15.1117L9.89323 15.1054C9.87434 15.1054 9.85545 15.0991 9.83656 15.0991C9.60985 15.0675 9.39574 14.9602 9.22571 14.7899C9.21941 14.7836 9.20682 14.771 9.20052 14.7646L4.55936 10.1144C4.34524 9.89989 4.23819 9.61595 4.23819 9.33201C4.23819 9.04808 4.34524 8.76414 4.55936 8.54961C4.98758 8.12056 5.68659 8.12056 6.1211 8.54961L8.91084 11.3448V1.10419C8.91084 0.498465 9.40833 0 10.0129 0C10.3152 0 10.5922 0.126193 10.7938 0.321794C10.9953 0.523703 11.1149 0.795019 11.1149 1.10419V11.3448L13.9047 8.54961C14.3329 8.12056 15.0319 8.12056 15.4664 8.54961C15.8757 8.98498 15.8757 9.68536 15.4475 10.1144Z" fill="#1F3965"/>
</svg>
