<svg width="50" height="50" viewBox="0 0 50 50" fill="none" xmlns="http://www.w3.org/2000/svg">
<path fill-rule="evenodd" clip-rule="evenodd" d="M46.6726 3.37169C45.1913 1.86641 43.1863 1.01442 41.0913 1.00018C38.9964 0.98594 36.9803 1.81059 35.4794 3.2956L6.54295 31.9355C6.0835 32.3893 5.73775 32.9485 5.53462 33.566L1.06805 47.2133C0.989482 47.4539 0.978713 47.712 1.03696 47.9585C1.09521 48.205 1.22015 48.43 1.39767 48.6081C1.57519 48.7862 1.7982 48.9103 2.04149 48.9663C2.28479 49.0224 2.53867 49.0082 2.77444 48.9254L16.5566 44.0746C17.1137 43.8787 17.6214 43.5604 18.0437 43.1425L46.6003 14.8804C47.3538 14.1324 47.9539 13.2401 48.3657 12.255C48.7776 11.2699 48.9931 10.2116 48.9998 9.14133C49.0066 8.07106 48.8043 7.01006 48.4049 6.01972C48.0054 5.02937 47.4166 4.12934 46.6726 3.37169V3.37169ZM37.3463 5.24406C37.8448 4.7514 38.434 4.36334 39.0802 4.10205C39.7264 3.84075 40.4169 3.71132 41.1123 3.72117C41.8077 3.73101 42.4944 3.87992 43.1331 4.1594C43.7719 4.43889 44.3502 4.84347 44.8351 5.35004C45.32 5.85662 45.7019 6.45527 45.9591 7.11181C46.2163 7.76836 46.3436 8.46994 46.334 9.17651C46.3243 9.88307 46.1777 10.5808 45.9026 11.2298C45.6276 11.8788 45.2294 12.4664 44.7308 12.9591L43.0378 14.6358L35.5489 7.02675L37.3463 5.24406ZM33.6286 8.91542L8.40714 33.8839C8.25367 34.0351 8.1381 34.2215 8.07014 34.4274L4.45944 45.4605L15.6927 41.512C15.878 41.4468 16.0469 41.3411 16.1875 41.2022L41.1174 16.5217L33.6286 8.91542Z" fill="#1DA1F2" stroke="#1DA1F2" stroke-width="0.9"/>
</svg>
