<svg width="20" height="20" viewBox="0 0 20 20" fill="none" xmlns="http://www.w3.org/2000/svg">
<path fill-rule="evenodd" clip-rule="evenodd" d="M10 20C15.5228 20 20 15.5228 20 10C20 4.47715 15.5228 0 10 0C4.47715 0 0 4.47715 0 10C0 15.5228 4.47715 20 10 20ZM11.7893 6.42969H13.4924L13.8909 5H6.53149L6.10962 6.59375H8.21118C9.33618 6.59375 10.0263 6.9974 10.2815 7.80469H6.50806L6.10962 9.22656H10.3127C10.1982 9.6224 9.96899 9.94271 9.62524 10.1875C9.2867 10.4271 8.82576 10.5469 8.24243 10.5469H6.26587L6.27368 11.7422L10.2502 16.375H12.4924V16.2734L8.85181 12.0156C9.89868 11.9271 10.7086 11.6562 11.2815 11.2031C11.8544 10.7448 12.1982 10.0859 12.3127 9.22656H13.4924L13.8831 7.80469H12.3049C12.2268 7.27865 12.0549 6.82031 11.7893 6.42969Z" fill="#1F3965"/>
</svg>
