<svg width="16" height="16" viewBox="0 0 16 16" fill="none" xmlns="http://www.w3.org/2000/svg">
<path fill-rule="evenodd" clip-rule="evenodd" d="M8 16C12.4183 16 16 12.4183 16 8C16 3.58172 12.4183 0 8 0C3.58172 0 0 3.58172 0 8C0 12.4183 3.58172 16 8 16ZM9.43145 5.14375H10.7939L11.1127 4H5.2252L4.8877 5.275H6.56895C7.46895 5.275 8.02103 5.59792 8.22519 6.24375H5.20645L4.8877 7.38125H8.2502C8.15853 7.69792 7.9752 7.95417 7.7002 8.15C7.42936 8.34167 7.06061 8.4375 6.59395 8.4375H5.0127L5.01895 9.39375L8.2002 13.1H9.99395V13.0188L7.08145 9.6125C7.91895 9.54167 8.56686 9.325 9.0252 8.9625C9.48353 8.59583 9.75853 8.06875 9.85019 7.38125H10.7939L11.1064 6.24375H9.84395C9.78145 5.82292 9.64395 5.45625 9.43145 5.14375Z" fill="#1DA1F2"/>
</svg>
