<svg width="24" height="24" viewBox="0 0 24 24" fill="none" xmlns="http://www.w3.org/2000/svg">
<path fill-rule="evenodd" clip-rule="evenodd" d="M12 24C18.6274 24 24 18.6274 24 12C24 5.37258 18.6274 0 12 0C5.37258 0 0 5.37258 0 12C0 18.6274 5.37258 24 12 24ZM14.1472 7.71563H16.1909L16.669 6H7.83779L7.33154 7.9125H9.85342C11.2034 7.9125 12.0315 8.39688 12.3378 9.36563H7.80967L7.33154 11.0719H12.3753C12.2378 11.5469 11.9628 11.9313 11.5503 12.225C11.144 12.5125 10.5909 12.6562 9.89092 12.6562H7.51904L7.52842 14.0906L12.3003 19.65H14.9909V19.5281L10.6222 14.4188C11.8784 14.3125 12.8503 13.9875 13.5378 13.4438C14.2253 12.8938 14.6378 12.1031 14.7753 11.0719H16.1909L16.6597 9.36563H14.7659C14.6722 8.73438 14.4659 8.18437 14.1472 7.71563Z" fill="#6B82AB"/>
</svg>
