<svg width="48" height="48" viewBox="0 0 48 48" fill="none" xmlns="http://www.w3.org/2000/svg">
<path d="M31.9991 4H15.9991C14.9298 3.9996 13.8712 4.21358 12.886 4.62931C11.9007 5.04503 11.0089 5.65406 10.263 6.42039C9.51722 7.18671 8.93261 8.09479 8.54376 9.09093C8.15491 10.0871 7.96971 11.1511 7.99912 12.22V35.78C7.96971 36.8489 8.15491 37.9129 8.54376 38.9091C8.93261 39.9052 9.51722 40.8133 10.263 41.5796C11.0089 42.3459 11.9007 42.955 12.886 43.3707C13.8712 43.7864 14.9298 44.0004 15.9991 44H32.8391C33.9 43.9871 34.9478 43.7634 35.9214 43.3417C36.895 42.9201 37.775 42.309 38.5102 41.5441C39.2454 40.7791 39.821 39.8755 40.2037 38.8859C40.5864 37.8964 40.7684 36.8406 40.7391 35.78V15.2L31.9991 4ZM17.7391 30.88C17.7419 30.949 17.7304 31.0179 17.7053 31.0823C17.6802 31.1467 17.642 31.2051 17.5931 31.254C17.5442 31.3028 17.4858 31.341 17.4214 31.3662C17.357 31.3913 17.2882 31.4028 17.2191 31.4H14.8591C14.7892 31.4027 14.7194 31.3912 14.654 31.3663C14.5886 31.3414 14.5289 31.3035 14.4784 31.255C14.428 31.2064 14.3879 31.1482 14.3605 31.0837C14.3332 31.0193 14.3191 30.95 14.3191 30.88V28.52C14.3243 28.3803 14.3835 28.248 14.4842 28.151C14.5849 28.054 14.7193 27.9999 14.8591 28H17.2191C17.2891 27.9999 17.3584 28.014 17.4228 28.0414C17.4873 28.0688 17.5455 28.1089 17.5941 28.1593C17.6426 28.2097 17.6805 28.2694 17.7054 28.3349C17.7304 28.4003 17.7418 28.47 17.7391 28.54V30.88ZM17.7391 24.88C17.7391 25.0179 17.6843 25.1502 17.5868 25.2477C17.4893 25.3452 17.357 25.4 17.2191 25.4H14.8591C14.7193 25.4001 14.5849 25.346 14.4842 25.249C14.3835 25.152 14.3243 25.0197 14.3191 24.88V22.52C14.3243 22.3803 14.3835 22.248 14.4842 22.151C14.5849 22.054 14.7193 21.9999 14.8591 22H17.2191C17.357 22 17.4893 22.0548 17.5868 22.1523C17.6843 22.2498 17.7391 22.3821 17.7391 22.52V24.88ZM33.2991 31.06H21.9991C21.6278 31.06 21.2717 30.9125 21.0092 30.65C20.7466 30.3874 20.5991 30.0313 20.5991 29.66C20.5991 29.2887 20.7466 28.9326 21.0092 28.67C21.2717 28.4075 21.6278 28.26 21.9991 28.26H33.2991C33.6704 28.26 34.0265 28.4075 34.2891 28.67C34.5516 28.9326 34.6991 29.2887 34.6991 29.66C34.6991 30.0313 34.5516 30.3874 34.2891 30.65C34.0265 30.9125 33.6704 31.06 33.2991 31.06ZM33.2991 25.06H21.9991C21.6278 25.06 21.2717 24.9125 21.0092 24.65C20.7466 24.3874 20.5991 24.0313 20.5991 23.66C20.5991 23.2887 20.7466 22.9326 21.0092 22.67C21.2717 22.4075 21.6278 22.26 21.9991 22.26H33.2991C33.483 22.26 33.665 22.2962 33.8349 22.3666C34.0047 22.4369 34.1591 22.54 34.2891 22.67C34.4191 22.8001 34.5222 22.9544 34.5925 23.1242C34.6629 23.2941 34.6991 23.4761 34.6991 23.66C34.6991 23.8439 34.6629 24.0259 34.5925 24.1958C34.5222 24.3656 34.4191 24.5199 34.2891 24.65C34.1591 24.78 34.0047 24.8831 33.8349 24.9534C33.665 25.0238 33.483 25.06 33.2991 25.06ZM37.9991 15.34H31.5791C31.5261 15.34 31.4752 15.3189 31.4377 15.2814C31.4002 15.2439 31.3791 15.193 31.3791 15.14L31.1591 6.72C31.1612 6.67688 31.176 6.63533 31.2015 6.60053C31.2271 6.56572 31.2623 6.53921 31.3028 6.52428C31.3433 6.50936 31.3873 6.50668 31.4293 6.51659C31.4714 6.5265 31.5095 6.54855 31.5391 6.58L37.9991 15C38.0281 15.0179 38.0519 15.043 38.0685 15.0727C38.0851 15.1025 38.0938 15.136 38.0938 15.17C38.0938 15.2041 38.0851 15.2375 38.0685 15.2673C38.0519 15.297 38.0281 15.3221 37.9991 15.34Z" fill="#A6B4CD"/>
</svg>
