<svg width="16" height="16" viewBox="0 0 16 16" fill="none" xmlns="http://www.w3.org/2000/svg">
<path d="M14.3 7.23905H7.174C7.02549 6.83599 6.75696 6.48817 6.40461 6.24249C6.05226 5.99681 5.63305 5.86509 5.2035 5.86509C4.77395 5.86509 4.35474 5.99681 4.00239 6.24249C3.65004 6.48817 3.38151 6.83599 3.233 7.23905H1.7C1.51435 7.23905 1.3363 7.3128 1.20503 7.44408C1.07375 7.57535 1 7.7534 1 7.93905C1 8.1247 1.07375 8.30275 1.20503 8.43403C1.3363 8.5653 1.51435 8.63905 1.7 8.63905H3.226C3.37451 9.04211 3.64304 9.38993 3.99539 9.63561C4.34774 9.88129 4.76695 10.013 5.1965 10.013C5.62604 10.013 6.04526 9.88129 6.39761 9.63561C6.74996 9.38993 7.01849 9.04211 7.167 8.63905H14.3C14.4857 8.63905 14.6637 8.5653 14.795 8.43403C14.9263 8.30275 15 8.1247 15 7.93905C15 7.7534 14.9263 7.57535 14.795 7.44408C14.6637 7.3128 14.4857 7.23905 14.3 7.23905ZM5.2 8.63905C5.06155 8.63905 4.92621 8.598 4.8111 8.52108C4.69599 8.44416 4.60627 8.33484 4.55328 8.20693C4.5003 8.07902 4.48644 7.93827 4.51345 7.80249C4.54046 7.6667 4.60713 7.54197 4.70503 7.44408C4.80292 7.34618 4.92765 7.27951 5.06344 7.2525C5.19922 7.22549 5.33997 7.23935 5.46788 7.29234C5.59579 7.34532 5.70511 7.43504 5.78203 7.55015C5.85895 7.66527 5.9 7.8006 5.9 7.93905C5.9 8.1247 5.82625 8.30275 5.69497 8.43403C5.5637 8.5653 5.38565 8.63905 5.2 8.63905ZM14.3 12.1391H11.374C11.2255 11.736 10.957 11.3882 10.6046 11.1425C10.2523 10.8968 9.83304 10.7651 9.4035 10.7651C8.97395 10.7651 8.55474 10.8968 8.20239 11.1425C7.85004 11.3882 7.58151 11.736 7.433 12.1391H1.7C1.51435 12.1391 1.3363 12.2128 1.20503 12.3441C1.07375 12.4754 1 12.6534 1 12.8391C1 13.0247 1.07375 13.2028 1.20503 13.334C1.3363 13.4653 1.51435 13.5391 1.7 13.5391H7.426C7.57451 13.9421 7.84304 14.2899 8.19539 14.5356C8.54774 14.7813 8.96696 14.913 9.3965 14.913C9.82605 14.913 10.2453 14.7813 10.5976 14.5356C10.95 14.2899 11.2185 13.9421 11.367 13.5391H14.3C14.4857 13.5391 14.6637 13.4653 14.795 13.334C14.9263 13.2028 15 13.0247 15 12.8391C15 12.6534 14.9263 12.4754 14.795 12.3441C14.6637 12.2128 14.4857 12.1391 14.3 12.1391ZM9.4 13.5391C9.21435 13.5391 9.0363 13.4653 8.90502 13.334C8.77375 13.2028 8.7 13.0247 8.7 12.8391C8.7 12.7006 8.74105 12.5653 8.81797 12.4502C8.89489 12.335 9.00421 12.2453 9.13212 12.1923C9.26003 12.1394 9.40078 12.1255 9.53656 12.1525C9.67235 12.1795 9.79708 12.2462 9.89498 12.3441C9.99287 12.442 10.0595 12.5667 10.0865 12.7025C10.1136 12.8383 10.0997 12.979 10.0467 13.1069C9.99373 13.2348 9.90401 13.3442 9.7889 13.4211C9.67378 13.498 9.53845 13.5391 9.4 13.5391ZM1.7 3.73905H9.526C9.67451 4.14211 9.94304 4.48993 10.2954 4.73561C10.6477 4.98129 11.067 5.11301 11.4965 5.11301C11.926 5.11301 12.3453 4.98129 12.6976 4.73561C13.05 4.48993 13.3185 4.14211 13.467 3.73905H14.3C14.4857 3.73905 14.6637 3.6653 14.795 3.53403C14.9263 3.40275 15 3.2247 15 3.03905C15 2.8534 14.9263 2.67535 14.795 2.54408C14.6637 2.4128 14.4857 2.33905 14.3 2.33905H13.474C13.3255 1.93599 13.057 1.58817 12.7046 1.34249C12.3523 1.09681 11.933 0.965088 11.5035 0.965088C11.074 0.965088 10.6547 1.09681 10.3024 1.34249C9.95004 1.58817 9.68151 1.93599 9.533 2.33905H1.7C1.51435 2.33905 1.3363 2.4128 1.20503 2.54408C1.07375 2.67535 1 2.8534 1 3.03905C1 3.2247 1.07375 3.40275 1.20503 3.53403C1.3363 3.6653 1.51435 3.73905 1.7 3.73905ZM11.5 2.33905C11.6384 2.33905 11.7738 2.38011 11.8889 2.45702C12.004 2.53394 12.0937 2.64326 12.1467 2.77117C12.1997 2.89908 12.2136 3.03983 12.1865 3.17561C12.1595 3.3114 12.0929 3.43613 11.995 3.53403C11.8971 3.63192 11.7724 3.69859 11.6366 3.7256C11.5008 3.75261 11.36 3.73875 11.2321 3.68577C11.1042 3.63279 10.9949 3.54306 10.918 3.42795C10.8411 3.31284 10.8 3.1775 10.8 3.03905C10.8 2.8534 10.8737 2.67535 11.005 2.54408C11.1363 2.4128 11.3143 2.33905 11.5 2.33905Z" fill="#1F3965"/>
</svg>
