<svg width="48" height="48" viewBox="0 0 48 48" fill="none" xmlns="http://www.w3.org/2000/svg">
<circle cx="24" cy="24" r="24" fill="#DBE2EA"/>
<path fill-rule="evenodd" clip-rule="evenodd" d="M31.7783 16.0003C31.7783 11.5818 28.2959 8 24.0002 8V8.00069C19.7044 8.00069 16.2221 11.5819 16.2221 16.0003C16.2221 20.4185 19.7045 24.0003 24.0002 24.0006C28.296 24.0006 31.7783 20.4187 31.7783 16.0003ZM10 38.4001C10 31.3422 16.2805 25.5999 23.9998 25.5997C31.7202 25.5997 38.0003 31.3419 38 38.4001C38 39.2842 37.3044 40 36.4445 40H11.5555C10.6966 40 10 39.2845 10 38.4001ZM25.0765 26.0677L24.5617 26.7281L23.163 26.7263L22.6484 26.0655L22.7312 26L23.8443 26.0019H24.9933L25.0765 26.0677ZM27.9132 29.7902L25.084 27.5529L25.1852 28.3302L27.4722 30.1389L27.9996 30.2077L27.9132 29.7902ZM23.2251 27.1744H24.4659L24.6328 28.4549L25.691 36.5806L23.8457 38L22 36.5806L23.2251 27.1744Z" fill="#6B82AB"/>
</svg>
