<svg width="627" height="98" viewBox="0 0 627 98" fill="none" xmlns="http://www.w3.org/2000/svg">
<g opacity="0.6">
<mask id="mask0_2094_10635" style="mask-type:alpha" maskUnits="userSpaceOnUse" x="0" y="0" width="627" height="98">
<rect width="627" height="98" rx="12" fill="#E4F3F7"/>
</mask>
<g mask="url(#mask0_2094_10635)">
<g opacity="0.5" filter="url(#filter0_f_2094_10635)">
<rect x="612.461" y="41" width="30.215" height="2.22" transform="rotate(-135 612.461 41)" fill="#F19A8E" fill-opacity="0.6"/>
<rect x="306.461" y="27" width="26.215" height="1.22" transform="rotate(65 306.461 27)" fill="#A8D793" fill-opacity="0.9"/>
<rect x="241.461" y="95" width="22.215" height="2.22" transform="rotate(-45 241.461 95)" fill="#A8D793" fill-opacity="0.85"/>
<rect x="475.91" y="90.002" width="13.215" height="1.22" transform="rotate(93 475.91 90.002)" fill="#CAC2B5" fill-opacity="0.65"/>
<circle cx="66.8234" cy="81.3625" r="5.3625" fill="#F19A8E" fill-opacity="0.35"/>
<circle cx="229.863" cy="50.8" r="3.8625" fill="#DAA6D8" fill-opacity="0.45"/>
<circle cx="502.862" cy="32.8" r="3.8625" fill="#DAA6D8" fill-opacity="0.45"/>
<circle cx="559.323" cy="61.8625" r="4.8625" fill="#DAA6D8" fill-opacity="0.85"/>
<circle cx="43.8234" cy="40.3625" r="2.3625" fill="#A8D793" fill-opacity="0.6"/>
<circle cx="154.823" cy="34.3625" r="3.3625" fill="#CAC2B5" fill-opacity="0.65"/>
<circle cx="320.323" cy="24.8625" r="1.8625" fill="#F19A8E" fill-opacity="0.85"/>
<path d="M17.7305 92.0165L15.9835 86.3025L21.6975 84.5556L23.4445 90.2695L17.7305 92.0165Z" fill="#A8D793"/>
<path d="M403.719 37.8059L403.831 44.2568L398.189 41.1289L403.719 37.8059Z" fill="#DAA6D8" fill-opacity="0.85"/>
<path d="M284.021 42.0226L279.18 45.8042L274.088 42.3694L275.781 36.465L281.92 36.2507L284.021 42.0226Z" fill="#F19A8E" fill-opacity="0.6"/>
<path d="M182.23 59.0014L182.997 67.7713L174.227 68.5386L173.46 59.7686L182.23 59.0014Z" fill="#CAC2B5" fill-opacity="0.35"/>
<path d="M456.772 57.9389L457.539 66.7088L448.769 67.4761L448.002 58.7061L456.772 57.9389Z" fill="#CAC2B5" fill-opacity="0.35"/>
<path d="M104.331 75.7101L106.14 80.9621L101.704 84.3049L97.1537 81.119L98.7777 75.8071L104.331 75.7101Z" fill="#F19A8E" fill-opacity="0.65"/>
<path d="M503.29 71.966L505.099 77.218L500.663 80.5608L496.113 77.3748L497.737 72.0629L503.29 71.966Z" fill="#F19A8E" fill-opacity="0.65"/>
<path d="M442.95 21.9556L444.891 17.3836L449.839 17.8165L450.956 22.656L446.698 25.2141L442.95 21.9556Z" fill="#F19A8E" fill-opacity="0.35"/>
<path d="M382.761 83.0341L383.037 75.1332L390.636 72.9541L395.057 79.5082L390.19 85.738L382.761 83.0341Z" fill="#A8D793" fill-opacity="0.85"/>
<path d="M160.229 16.4925L159.158 19.1863L160.505 21.7532L157.811 20.6816L155.244 22.0289L156.316 19.3352L154.968 16.7682L157.662 17.8399L160.229 16.4925Z" fill="#F19A8E"/>
<path d="M86.8365 32.0052L90.1238 31.9302L92.2068 29.3859L92.2818 32.6733L94.8261 34.7562L91.5387 34.8312L89.4558 37.3755L89.3808 34.0882L86.8365 32.0052Z" fill="#F19A8E" fill-opacity="0.45"/>
<path d="M262.117 70.8949L259.732 69.879L258.639 72.2298L258.326 69.6564L255.744 69.8856L257.817 68.3281L256.327 66.2064L258.712 67.2223L259.805 64.8715L260.117 67.4449L262.699 67.2157L260.627 68.7732L262.117 70.8949Z" fill="#DAA6D8" fill-opacity="0.35"/>
<path d="M77.6436 41.1607L73.8941 41.7545L73.3003 45.504L71.5768 42.1215L67.8274 42.7154L70.5117 40.0311L68.7883 36.6487L72.1707 38.3721L74.855 35.6878L74.2611 39.4372L77.6436 41.1607Z" fill="#CAC2B5" fill-opacity="0.65"/>
<path d="M149.306 97.2467L147.684 102.239L151.931 105.325L146.681 105.325L145.059 110.317L143.437 105.325L138.188 105.325L142.435 102.239L140.813 97.2467L145.059 100.332L149.306 97.2467Z" fill="#A8D793" fill-opacity="0.85"/>
<path d="M558.226 29.5393L555.521 28.387L554.282 31.0534L553.927 28.1346L550.998 28.3945L553.349 26.628L551.659 24.2215L554.364 25.3738L555.603 22.7074L555.958 25.6263L558.887 25.3663L556.536 27.1329L558.226 29.5393Z" fill="#F19A8E" fill-opacity="0.65"/>
<path d="M534.226 68.5393L531.521 67.387L530.282 70.0534L529.927 67.1346L526.998 67.3945L529.349 65.628L527.659 63.2215L530.364 64.3738L531.603 61.7074L531.958 64.6263L534.887 64.3663L532.536 66.1329L534.226 68.5393Z" fill="#F19A8E" fill-opacity="0.65"/>
<path d="M593.79 46.3988L596.335 48.1154L598.754 46.2255L597.908 49.1762L600.453 50.8927L597.385 50.9999L596.539 53.9506L595.489 51.0661L592.421 51.1732L594.84 49.2834L593.79 46.3988Z" fill="#F19A8E" fill-opacity="0.6"/>
<path d="M361.311 39.8709L363.852 43.3789L367.441 40.9519L365.674 44.9073L369.57 46.8015L365.261 47.2489L365.569 51.5701L363.027 48.0621L359.438 50.4891L361.205 46.5337L357.309 44.6396L361.618 44.1921L361.311 39.8709Z" fill="#CAC2B5" fill-opacity="0.85"/>
<path d="M309.089 89.4089L308.792 85.0869L304.463 85.2435L308.057 82.8255L305.757 79.1546L309.648 81.0585L311.677 77.2309L311.974 81.5529L316.303 81.3963L312.709 83.8143L315.009 87.4852L311.118 85.5813L309.089 89.4089Z" fill="#F19A8E" fill-opacity="0.75"/>
</g>
<rect x="210" y="80.7402" width="16.215" height="1.22" transform="rotate(-17 210 80.7402)" fill="#DAA6D8" fill-opacity="0.45"/>
<rect x="327.461" y="10.0625" width="26.215" height="1.22" transform="rotate(65 327.461 10.0625)" fill="#A8D793" fill-opacity="0.9"/>
<rect x="262.461" y="78.0625" width="22.215" height="2.22" transform="rotate(-45 262.461 78.0625)" fill="#A8D793" fill-opacity="0.85"/>
<rect x="496.91" y="73.0645" width="13.215" height="1.22" transform="rotate(93 496.91 73.0645)" fill="#CAC2B5" fill-opacity="0.65"/>
<circle cx="470.823" cy="86.425" r="4.3625" fill="#DAA6D8" fill-opacity="0.65"/>
<circle cx="87.3625" cy="67.3625" r="5.3625" fill="#F19A8E" fill-opacity="0.35"/>
<circle cx="250.863" cy="33.8625" r="3.8625" fill="#DAA6D8" fill-opacity="0.45"/>
<circle cx="523.862" cy="15.8625" r="3.8625" fill="#DAA6D8" fill-opacity="0.45"/>
<circle cx="580.323" cy="44.925" r="4.8625" fill="#DAA6D8" fill-opacity="0.85"/>
<circle cx="64.8234" cy="23.425" r="2.3625" fill="#A8D793" fill-opacity="0.6"/>
<circle cx="175.823" cy="17.425" r="3.3625" fill="#CAC2B5" fill-opacity="0.65"/>
<circle cx="341.323" cy="7.925" r="1.8625" fill="#F19A8E" fill-opacity="0.85"/>
<path d="M38.7305 75.079L36.9835 69.365L42.6975 67.6181L44.4445 73.332L38.7305 75.079Z" fill="#A8D793"/>
<path d="M424.719 20.8684L424.831 27.3193L419.189 24.1914L424.719 20.8684Z" fill="#DAA6D8" fill-opacity="0.85"/>
<path d="M305.021 25.0851L300.18 28.8667L295.088 25.4319L296.781 19.5275L302.92 19.3132L305.021 25.0851Z" fill="#F19A8E" fill-opacity="0.6"/>
<path d="M203.23 42.0639L203.997 50.8338L195.227 51.6011L194.46 42.8311L203.23 42.0639Z" fill="#CAC2B5" fill-opacity="0.35"/>
<path d="M477.772 41.0014L478.539 49.7713L469.769 50.5386L469.002 41.7686L477.772 41.0014Z" fill="#CAC2B5" fill-opacity="0.35"/>
<path d="M136.29 56.7101L138.099 61.9621L133.663 65.3049L129.113 62.119L130.737 56.8071L136.29 56.7101Z" fill="#F19A8E" fill-opacity="0.65"/>
<path d="M524.29 55.0285L526.099 60.2805L521.663 63.6233L517.113 60.4373L518.737 55.1254L524.29 55.0285Z" fill="#F19A8E" fill-opacity="0.65"/>
<path d="M463.95 5.01805L465.891 0.446102L470.839 0.878986L471.956 5.71847L467.698 8.27656L463.95 5.01805Z" fill="#F19A8E" fill-opacity="0.35"/>
<path d="M403.761 66.0966L404.037 58.1957L411.636 56.0166L416.057 62.5707L411.19 68.8005L403.761 66.0966Z" fill="#A8D793" fill-opacity="0.85"/>
<path d="M215.754 6.55501L214.682 9.24876L216.029 11.8157L213.336 10.7441L210.769 12.0914L211.84 9.39769L210.493 6.83071L213.187 7.90235L215.754 6.55501Z" fill="#F19A8E"/>
<path d="M123.376 14.0579L126.663 13.983L128.746 11.4386L128.821 14.726L131.365 16.809L128.078 16.8839L125.995 19.4283L125.92 16.1409L123.376 14.0579Z" fill="#F19A8E" fill-opacity="0.45"/>
<path d="M283.117 53.9574L280.732 52.9415L279.639 55.2923L279.326 52.7189L276.744 52.9481L278.817 51.3906L277.327 49.2689L279.712 50.2848L280.805 47.934L281.117 50.5074L283.699 50.2782L281.627 51.8357L283.117 53.9574Z" fill="#DAA6D8" fill-opacity="0.35"/>
<path d="M230.004 99.3636L229.21 102.329L231.784 104L228.719 104.161L227.924 107.126L226.824 104.26L223.759 104.421L226.144 102.489L225.044 99.6235L227.619 101.295L230.004 99.3636Z" fill="#CAC2B5" fill-opacity="0.85"/>
<path d="M98.6436 24.2232L94.8941 24.817L94.3003 28.5665L92.5768 25.184L88.8274 25.7779L91.5117 23.0936L89.7883 19.7112L93.1707 21.4346L95.855 18.7503L95.2611 22.4997L98.6436 24.2232Z" fill="#CAC2B5" fill-opacity="0.65"/>
<path d="M170.306 80.3092L168.684 85.3016L172.931 88.387L167.681 88.387L166.059 93.3794L164.437 88.387L159.188 88.387L163.435 85.3016L161.813 80.3092L166.059 83.3947L170.306 80.3092Z" fill="#A8D793" fill-opacity="0.85"/>
<path d="M579.226 12.6018L576.521 11.4495L575.282 14.1159L574.927 11.1971L571.998 11.457L574.349 9.69047L572.659 7.28404L575.364 8.4363L576.603 5.76994L576.958 8.68876L579.887 8.42882L577.536 10.1954L579.226 12.6018Z" fill="#F19A8E" fill-opacity="0.65"/>
<path d="M555.226 51.6018L552.521 50.4495L551.282 53.1159L550.927 50.1971L547.998 50.457L550.349 48.6905L548.659 46.284L551.364 47.4363L552.603 44.7699L552.958 47.6888L555.887 47.4288L553.536 49.1954L555.226 51.6018Z" fill="#F19A8E" fill-opacity="0.65"/>
<path d="M395.226 94.6018L392.521 93.4495L391.282 96.1159L390.927 93.1971L387.998 93.457L390.349 91.6905L388.659 89.284L391.364 90.4363L392.603 87.7699L392.958 90.6888L395.887 90.4288L393.536 92.1954L395.226 94.6018Z" fill="#F19A8E" fill-opacity="0.65"/>
<path d="M575.226 90.6643L572.521 89.512L571.282 92.1784L570.927 89.2596L567.998 89.5195L570.349 87.753L568.659 85.3465L571.364 86.4988L572.603 83.8324L572.958 86.7513L575.887 86.4913L573.536 88.2579L575.226 90.6643Z" fill="#F19A8E" fill-opacity="0.65"/>
<path d="M609.329 50.6645L611.874 52.381L614.293 50.4911L613.447 53.4418L615.992 55.1584L612.924 55.2655L612.078 58.2162L611.028 55.3317L607.96 55.4388L610.379 53.549L609.329 50.6645Z" fill="#F19A8E" fill-opacity="0.6"/>
<path d="M382.311 22.9334L384.852 26.4414L388.441 24.0144L386.674 27.9698L390.57 29.864L386.261 30.3114L386.569 34.6326L384.027 31.1246L380.438 33.5516L382.205 29.5962L378.309 27.7021L382.618 27.2546L382.311 22.9334Z" fill="#CAC2B5" fill-opacity="0.85"/>
<path d="M330.089 72.4714L329.792 68.1494L325.463 68.306L329.057 65.888L326.757 62.2171L330.648 64.121L332.677 60.2934L332.974 64.6154L337.303 64.4588L333.709 66.8768L336.009 70.5477L332.118 68.6438L330.089 72.4714Z" fill="#F19A8E" fill-opacity="0.75"/>
</g>
</g>
<defs>
<filter id="filter0_f_2094_10635" x="7.9834" y="8.49219" width="735.204" height="141.721" filterUnits="userSpaceOnUse" color-interpolation-filters="sRGB">
<feFlood flood-opacity="0" result="BackgroundImageFix"/>
<feBlend mode="normal" in="SourceGraphic" in2="BackgroundImageFix" result="shape"/>
<feGaussianBlur stdDeviation="4" result="effect1_foregroundBlur_2094_10635"/>
</filter>
</defs>
</svg>
