<svg width="18" height="18" viewBox="0 0 18 18" fill="none" xmlns="http://www.w3.org/2000/svg">
<path fill-rule="evenodd" clip-rule="evenodd" d="M12.8958 4.04922C12.4649 3.37772 11.9504 2.76887 11.3675 2.23579C11.9343 2.43417 12.4769 2.70403 12.9816 3.04122C13.7896 3.58117 14.4755 4.2771 15.0017 5.0834H13.4689C13.3009 4.72797 13.1097 4.38246 12.8958 4.04922ZM12.1794 5.0834H9.58333V2.31276C10.5972 2.97386 11.4501 3.85864 12.0744 4.90249C12.1102 4.96239 12.1452 5.0227 12.1794 5.0834ZM8.41667 2.31265V5.0834H5.8204C5.85458 5.0227 5.88958 4.96239 5.9254 4.90249C6.54972 3.85858 7.4027 2.97375 8.41667 2.31265ZM8.41667 0.687183C6.97379 0.788414 5.57843 1.26386 4.37021 2.07117C2.9998 2.98685 1.9317 4.28834 1.30097 5.81105C0.670237 7.33377 0.505209 9.00933 0.826752 10.6258C1.1483 12.2423 1.94197 13.7272 3.10741 14.8926C4.27284 16.0581 5.7577 16.8517 7.37421 17.1733C8.99072 17.4948 10.6663 17.3298 12.189 16.6991C13.7117 16.0683 15.0132 15.0002 15.9289 13.6298C16.8446 12.2594 17.3333 10.6483 17.3333 9.00008C17.3333 7.90573 17.1177 6.8221 16.699 5.81105C16.2802 4.80001 15.6663 3.88135 14.8925 3.10752C14.1187 2.3337 13.2 1.71987 12.189 1.30109C11.358 0.956886 10.478 0.749977 9.58333 0.687192V0.666748H8.99996H8.99991H8.41667V0.687183ZM4.53093 5.0834C4.6989 4.72797 4.89016 4.38246 5.10401 4.04922C5.53388 3.37939 6.04684 2.7719 6.62794 2.23976C5.62404 2.59283 4.70157 3.16815 3.9348 3.93492C3.58245 4.28727 3.27052 4.6725 3.00202 5.0834H4.53093ZM2.38468 6.25007H4.07429C3.83634 7.00669 3.69673 7.79373 3.66116 8.59176H1.84539C1.89253 7.78082 2.07668 6.98968 2.38468 6.25007ZM1.87353 9.75842C1.94651 10.4443 2.11806 11.1151 2.3819 11.7501H4.07428C3.8712 11.1043 3.73975 10.4364 3.68348 9.75842H1.87353ZM4.82969 9.75842C4.89472 10.4399 5.04705 11.1092 5.28218 11.7501H8.41667V9.75842H4.82969ZM4.53092 12.9167H2.99822C3.01239 12.9384 3.02668 12.9601 3.0411 12.9817C3.82858 14.1602 4.94786 15.0788 6.2574 15.6212C6.38122 15.6725 6.50621 15.7202 6.63222 15.7643C6.04937 15.2313 5.53493 14.6224 5.10401 13.9509C4.89015 13.6177 4.69889 13.2722 4.53092 12.9167ZM5.82039 12.9167H8.41667V15.6875C7.4027 15.0264 6.54972 14.1416 5.9254 13.0977C5.88958 13.0378 5.85457 12.9775 5.82039 12.9167ZM9.58333 15.6874C10.5972 15.0263 11.4501 14.1415 12.0744 13.0977C12.1102 13.0378 12.1453 12.9775 12.1794 12.9167H9.58333V15.6874ZM13.4689 12.9167C13.3009 13.2722 13.1097 13.6177 12.8958 13.9509C12.4649 14.6224 11.9504 15.2313 11.3675 15.7644C12.3795 15.4102 13.3034 14.8319 14.0676 14.0677C14.4196 13.7156 14.7323 13.3296 15.0017 12.9167H13.4689ZM15.618 11.7501H13.9255C14.1286 11.1043 14.2601 10.4364 14.3163 9.75842H16.1264C16.1036 9.97244 16.0712 10.1859 16.0289 10.3982C15.9364 10.8635 15.7983 11.3162 15.618 11.7501ZM16.155 8.59176C16.1094 7.79346 15.9304 7.00413 15.6211 6.25752C15.6201 6.25503 15.619 6.25255 15.618 6.25007H13.9255C14.1635 7.00669 14.3031 7.79373 14.3387 8.59176H16.155ZM13.1958 8.59176C13.1547 7.7896 12.9929 7.0003 12.7176 6.25007H9.58333V8.59176H13.1958ZM13.1701 9.75842H9.58333V11.7501H12.7176C12.9528 11.1092 13.1051 10.4399 13.1701 9.75842ZM4.80404 8.59176C4.84512 7.7896 5.00691 7.0003 5.28219 6.25007H8.41667V8.59176H4.80404Z" fill="#1F3965"/>
</svg>
