<svg width="125" height="36" viewBox="0 0 125 36" fill="none" xmlns="http://www.w3.org/2000/svg">
<path d="M119.835 36H4.60904C2.07522 36 0 33.9739 0 31.5V4.5C0 2.02613 2.07522 1.90258e-06 4.60904 1.90258e-06H119.835C122.369 1.90258e-06 124.444 2.02613 124.444 4.5V31.5C124.444 33.9739 122.369 36 119.835 36Z" fill="black"/>
<path d="M119.835 0.721125C121.969 0.721125 123.706 2.4165 123.706 4.5V31.5C123.706 33.5835 121.969 35.2789 119.835 35.2789H4.60904C2.47505 35.2789 0.738599 33.5835 0.738599 31.5V4.5C0.738599 2.4165 2.47505 0.721125 4.60904 0.721125H119.835ZM119.835 1.90258e-06H4.60904C2.07522 1.90258e-06 0 2.02613 0 4.5V31.5C0 33.9739 2.07522 36 4.60904 36H119.835C122.369 36 124.444 33.9739 124.444 31.5V4.5C124.444 2.02613 122.369 1.90258e-06 119.835 1.90258e-06Z" fill="#A6A6A6"/>
<path d="M43.7098 9.21861C43.7098 9.97011 43.4794 10.572 43.0254 11.0209C42.5034 11.553 41.8236 11.8207 40.9905 11.8207C40.1943 11.8207 39.5145 11.5485 38.9568 11.0119C38.3979 10.4674 38.1191 9.79911 38.1191 8.99923C38.1191 8.19936 38.3979 7.53111 38.9568 6.99111C39.5145 6.44998 40.1943 6.17773 40.9905 6.17773C41.3869 6.17773 41.7648 6.25761 42.1255 6.40611C42.485 6.55573 42.7777 6.75823 42.9897 7.00798L42.508 7.48273C42.1382 7.05636 41.6346 6.84599 40.9905 6.84599C40.4098 6.84599 39.9062 7.04398 39.4787 7.44336C39.0559 7.84386 38.8438 8.36248 38.8438 8.99923C38.8438 9.63598 39.0559 10.1591 39.4787 10.5596C39.9062 10.9545 40.4098 11.157 40.9905 11.157C41.607 11.157 42.1255 10.9545 42.5345 10.5551C42.8042 10.2907 42.9574 9.92623 42.9978 9.46048H40.9905V8.81023H43.6684C43.7006 8.95086 43.7098 9.08698 43.7098 9.21861Z" fill="white" stroke="white" stroke-width="0.16" stroke-miterlimit="10"/>
<path d="M47.9583 6.96341H45.4429V8.67341H47.7105V9.32365H45.4429V11.0337H47.9583V11.6963H44.7308V6.30078H47.9583V6.96341Z" fill="white" stroke="white" stroke-width="0.16" stroke-miterlimit="10"/>
<path d="M50.9563 11.6963H50.2442V6.96341H48.7014V6.30078H52.5004V6.96341H50.9563V11.6963Z" fill="white" stroke="white" stroke-width="0.16" stroke-miterlimit="10"/>
<path d="M55.2498 11.6963V6.30078H55.9607V11.6963H55.2498Z" fill="white" stroke="white" stroke-width="0.16" stroke-miterlimit="10"/>
<path d="M59.1121 11.6963H58.4058V6.96341H56.8572V6.30078H60.6608V6.96341H59.1121V11.6963Z" fill="white" stroke="white" stroke-width="0.16" stroke-miterlimit="10"/>
<path d="M67.8531 11.0029C67.3081 11.5485 66.6328 11.8207 65.8274 11.8207C65.0174 11.8207 64.3422 11.5485 63.7971 11.0029C63.2533 10.4584 62.9825 9.79011 62.9825 8.99923C62.9825 8.20836 63.2533 7.54011 63.7971 6.99561C64.3422 6.44998 65.0174 6.17773 65.8274 6.17773C66.6282 6.17773 67.3035 6.44998 67.8485 7.00011C68.397 7.54911 68.6677 8.21286 68.6677 8.99923C68.6677 9.79011 68.397 10.4584 67.8531 11.0029ZM64.3237 10.5506C64.7339 10.9545 65.2328 11.157 65.8274 11.157C66.4174 11.157 66.9209 10.9545 67.3265 10.5506C67.7356 10.1467 67.943 9.62811 67.943 8.99923C67.943 8.37036 67.7356 7.85173 67.3265 7.44786C66.9209 7.04398 66.4174 6.84148 65.8274 6.84148C65.2328 6.84148 64.7339 7.04398 64.3237 7.44786C63.9147 7.85173 63.7073 8.37036 63.7073 8.99923C63.7073 9.62811 63.9147 10.1467 64.3237 10.5506Z" fill="white" stroke="white" stroke-width="0.16" stroke-miterlimit="10"/>
<path d="M69.6669 11.6963V6.30078H70.5311L73.2181 10.497H73.2492L73.2181 9.45978V6.30078H73.9291V11.6963H73.187L70.3732 7.29303H70.3421L70.3732 8.33478V11.6963H69.6669Z" fill="white" stroke="white" stroke-width="0.16" stroke-miterlimit="10"/>
<path d="M62.8074 19.5774C60.6423 19.5774 58.8736 21.1862 58.8736 23.4058C58.8736 25.6074 60.6423 27.233 62.8074 27.233C64.9771 27.233 66.7459 25.6074 66.7459 23.4058C66.7459 21.1862 64.9771 19.5774 62.8074 19.5774ZM62.8074 25.7255C61.6195 25.7255 60.5974 24.7682 60.5974 23.4058C60.5974 22.0254 61.6195 21.0849 62.8074 21.0849C63.9954 21.0849 65.0221 22.0254 65.0221 23.4058C65.0221 24.7682 63.9954 25.7255 62.8074 25.7255ZM54.2243 19.5774C52.0545 19.5774 50.2904 21.1862 50.2904 23.4058C50.2904 25.6074 52.0545 27.233 54.2243 27.233C56.3928 27.233 58.1581 25.6074 58.1581 23.4058C58.1581 21.1862 56.3928 19.5774 54.2243 19.5774ZM54.2243 25.7255C53.0351 25.7255 52.0096 24.7682 52.0096 23.4058C52.0096 22.0254 53.0351 21.0849 54.2243 21.0849C55.4122 21.0849 56.4343 22.0254 56.4343 23.4058C56.4343 24.7682 55.4122 25.7255 54.2243 25.7255ZM44.0106 20.7508V22.3776H47.9894C47.873 23.2866 47.5619 23.9548 47.0849 24.4205C46.5041 24.983 45.5996 25.6074 44.0106 25.6074C41.5621 25.6074 39.6447 23.6781 39.6447 21.2874C39.6447 18.8968 41.5621 16.9674 44.0106 16.9674C45.3346 16.9674 46.2979 17.4726 47.0088 18.1273L48.183 16.9809C47.1886 16.0539 45.8658 15.3418 44.0106 15.3418C40.6529 15.3418 37.8311 18.0092 37.8311 21.2874C37.8311 24.5657 40.6529 27.233 44.0106 27.233C45.8254 27.233 47.1886 26.6525 48.2602 25.5635C49.3583 24.4914 49.7005 22.9839 49.7005 21.7667C49.7005 21.3887 49.6682 21.041 49.6106 20.7508H44.0106ZM85.7754 22.0119C85.4516 21.1558 84.4526 19.5774 82.4177 19.5774C80.4013 19.5774 78.7224 21.1288 78.7224 23.4058C78.7224 25.55 80.384 27.233 82.6113 27.233C84.4123 27.233 85.4516 26.1609 85.8791 25.5365L84.5425 24.6669C84.0966 25.3037 83.4893 25.7255 82.6113 25.7255C81.7391 25.7255 81.1134 25.3352 80.7124 24.5657L85.9563 22.4473L85.7754 22.0119ZM80.4289 23.2865C80.384 21.8105 81.6031 21.0545 82.4765 21.0545C83.161 21.0545 83.7417 21.3887 83.9353 21.8668L80.4289 23.2865ZM76.1667 27.0002H77.8905V15.7502H76.1667V27.0002ZM73.3437 20.4302H73.2861C72.8989 19.9824 72.1603 19.5774 71.2247 19.5774C69.2612 19.5774 67.466 21.2604 67.466 23.4182C67.466 25.5635 69.2612 27.233 71.2247 27.233C72.1603 27.233 72.8989 26.8247 73.2861 26.3634H73.3437V26.9124C73.3437 28.376 72.5429 29.1624 71.2512 29.1624C70.198 29.1624 69.5447 28.4199 69.2751 27.7955L67.776 28.4064C68.2081 29.4212 69.3523 30.6699 71.2512 30.6699C73.2723 30.6699 74.9776 29.5089 74.9776 26.684V19.8103H73.3437V20.4302ZM71.3722 25.7255C70.1842 25.7255 69.1898 24.7547 69.1898 23.4182C69.1898 22.0693 70.1842 21.0849 71.3722 21.0849C72.5429 21.0849 73.4658 22.0693 73.4658 23.4182C73.4658 24.7547 72.5429 25.7255 71.3722 25.7255ZM93.8459 15.7502H89.7231V27.0002H91.4422V22.7375H93.8459C95.7551 22.7375 97.6276 21.3887 97.6276 19.2433C97.6276 17.0991 95.7505 15.7502 93.8459 15.7502ZM93.8908 21.1727H91.4422V17.3151H93.8908C95.1744 17.3151 95.9073 18.3557 95.9073 19.2433C95.9073 20.114 95.1744 21.1727 93.8908 21.1727ZM104.518 19.556C103.276 19.556 101.984 20.0915 101.453 21.2784L102.979 21.9028C103.307 21.2784 103.911 21.0759 104.549 21.0759C105.441 21.0759 106.346 21.5991 106.359 22.5227V22.6408C106.048 22.4653 105.382 22.2054 104.563 22.2054C102.92 22.2054 101.246 23.0886 101.246 24.7367C101.246 26.2442 102.592 27.215 104.104 27.215C105.261 27.215 105.9 26.7054 106.301 26.1125H106.359V26.9822H108.02V22.6667C108.02 20.6721 106.494 19.556 104.518 19.556ZM104.311 25.721C103.748 25.721 102.965 25.4488 102.965 24.7682C102.965 23.8974 103.942 23.5633 104.788 23.5633C105.545 23.5633 105.9 23.7264 106.359 23.9413C106.225 24.983 105.306 25.721 104.311 25.721ZM114.069 19.8024L112.093 24.6793H112.034L109.991 19.8024H108.137L111.207 26.6177L109.456 30.41H111.252L115.982 19.8024H114.069ZM98.5724 27.0002H100.296V15.7502H98.5724V27.0002Z" fill="white"/>
<path d="M9.61914 6.78575C9.34836 7.0625 9.19165 7.49337 9.19165 8.05137V27.9549C9.19165 28.5129 9.34836 28.9437 9.61914 29.2205L9.68597 29.2812L21.1095 18.1325V17.8693L9.68597 6.7205L9.61914 6.78575Z" fill="url(#paint0_linear_1954_10281)"/>
<path d="M24.913 21.8496L21.1094 18.1315V17.8682L24.9176 14.1501L25.0029 14.1985L29.5128 16.7039C30.7999 17.4149 30.7999 18.5849 29.5128 19.3004L25.0029 21.8012L24.913 21.8496Z" fill="url(#paint1_linear_1954_10281)"/>
<path d="M25.0028 21.8012L21.1094 17.9999L9.61902 29.2195C10.0465 29.6582 10.7436 29.7111 11.5364 29.2724L25.0028 21.8012Z" fill="url(#paint2_linear_1954_10281)"/>
<path d="M25.0028 14.1986L11.5364 6.7275C10.7436 6.29325 10.0465 6.34613 9.61902 6.78488L21.1094 18L25.0028 14.1986Z" fill="url(#paint3_linear_1954_10281)"/>
<defs>
<linearGradient id="paint0_linear_1954_10281" x1="20.0952" y1="28.1621" x2="4.99537" y2="12.6964" gradientUnits="userSpaceOnUse">
<stop stop-color="#00A0FF"/>
<stop offset="0.0066" stop-color="#00A1FF"/>
<stop offset="0.2601" stop-color="#00BEFF"/>
<stop offset="0.5122" stop-color="#00D2FF"/>
<stop offset="0.7604" stop-color="#00DFFF"/>
<stop offset="1" stop-color="#00E3FF"/>
</linearGradient>
<linearGradient id="paint1_linear_1954_10281" x1="31.1888" y1="17.9986" x2="8.8839" y2="17.9986" gradientUnits="userSpaceOnUse">
<stop stop-color="#FFE000"/>
<stop offset="0.4087" stop-color="#FFBD00"/>
<stop offset="0.7754" stop-color="#FFA500"/>
<stop offset="1" stop-color="#FF9C00"/>
</linearGradient>
<linearGradient id="paint2_linear_1954_10281" x1="22.8857" y1="15.9334" x2="2.40908" y2="-5.03941" gradientUnits="userSpaceOnUse">
<stop stop-color="#FF3A44"/>
<stop offset="1" stop-color="#C31162"/>
</linearGradient>
<linearGradient id="paint3_linear_1954_10281" x1="6.72666" y1="35.8414" x2="15.8704" y2="26.4762" gradientUnits="userSpaceOnUse">
<stop stop-color="#32A071"/>
<stop offset="0.0685" stop-color="#2DA771"/>
<stop offset="0.4762" stop-color="#15CF74"/>
<stop offset="0.8009" stop-color="#06E775"/>
<stop offset="1" stop-color="#00F076"/>
</linearGradient>
</defs>
</svg>
