<svg width="34" height="34" viewBox="0 0 34 34" fill="none" xmlns="http://www.w3.org/2000/svg">
<path d="M17.0007 0.333984C7.79591 0.333984 0.333984 7.79591 0.333984 17.0007C0.333984 26.2054 7.79591 33.6673 17.0007 33.6673C26.2054 33.6673 33.6673 26.2054 33.6673 17.0007C33.6576 7.80003 26.2014 0.34382 17.0007 0.333984ZM26.1757 11.8899L14.2709 23.7947C13.806 24.2595 13.0524 24.2595 12.5876 23.7947L7.82563 19.0328C7.35269 18.5761 7.33958 17.8224 7.79633 17.3495C8.25308 16.8766 9.00671 16.8634 9.47965 17.3202C9.48955 17.3298 9.49932 17.3395 9.50894 17.3495L13.4292 21.2698L24.4924 10.2066C24.9653 9.74987 25.7189 9.76299 26.1757 10.2359C26.6213 10.6972 26.6213 11.4286 26.1757 11.8899Z" fill="#36B37E"/>
</svg>
