<svg width="32" height="32" viewBox="0 0 32 32" fill="none" xmlns="http://www.w3.org/2000/svg">
<path fill-rule="evenodd" clip-rule="evenodd" d="M23.9682 3.25166C24.4366 3.11168 24.9314 3.08422 25.4124 3.1715C25.8934 3.25879 26.3471 3.45837 26.7364 3.754C27.1258 4.04963 27.4399 4.43298 27.6531 4.87287L27.6752 4.91841L27.6922 4.96607C27.9068 5.56677 27.9984 6.20426 27.9619 6.84065C28.1518 9.93246 27.6754 13.0293 26.5646 15.9214L26.5386 15.9891L26.5024 16.052C25.8254 17.2293 25.2147 18.4435 24.6729 19.6889C24.4505 20.5846 24.3752 21.5107 24.4502 22.4309L24.4533 22.4687V25.4877C24.4478 26.1665 24.1742 26.8157 23.6922 27.2938C23.2102 27.7718 22.5588 28.0401 21.8799 28.0401H7.46665C6.93975 28.0401 6.43443 27.8308 6.06186 27.4582C5.68929 27.0856 5.47998 26.5803 5.47998 26.0534V21.9763C5.49465 20.6631 5.90478 19.3849 6.65676 18.3082C7.40075 17.243 8.44524 16.4241 9.65648 15.9557C9.82884 15.8767 10.0165 15.8356 10.2066 15.8356C10.4207 15.8356 10.6316 15.8877 10.8211 15.9874L10.9392 16.0612C12.2987 17.0599 13.9841 17.5107 15.6606 17.3242C17.3254 17.139 18.8605 16.3387 19.9656 15.0811C20.8185 13.9236 21.3652 12.5693 21.5548 11.1437L21.5553 11.1401C21.7153 9.97199 21.7885 8.79368 21.7741 7.61484C21.619 6.39793 21.9047 5.16486 22.5808 4.13959L22.6395 4.05057L22.7168 3.97709C23.071 3.64018 23.4998 3.39164 23.9682 3.25166ZM10.1353 17.7771C9.35281 18.1209 8.67827 18.6739 8.1871 19.3771C7.65092 20.1448 7.3581 21.056 7.34665 21.9922V26.0534C7.34665 26.0852 7.35929 26.1157 7.38179 26.1383C7.4043 26.1608 7.43482 26.1734 7.46665 26.1734H21.88C22.0664 26.1734 22.2453 26.0997 22.3777 25.9685C22.5093 25.8379 22.5844 25.6608 22.5866 25.4755V22.5438C22.4981 21.4054 22.5981 20.2601 22.8828 19.1541L22.901 19.0833L22.93 19.0162C23.4974 17.7046 24.1375 16.4257 24.8475 15.1855C25.8508 12.5449 26.2764 9.7195 26.0952 6.89992L26.0912 6.83673L26.0957 6.77358C26.123 6.39151 26.0741 6.00801 25.9521 5.64528C25.868 5.48727 25.7505 5.34917 25.6076 5.24067C25.4522 5.12267 25.2711 5.04302 25.0791 5.00817C24.8871 4.97333 24.6896 4.9843 24.5027 5.04017C24.3473 5.08659 24.2029 5.16294 24.0774 5.26457C23.6849 5.90806 23.5264 6.66875 23.631 7.41759L23.639 7.47515L23.6399 7.53326C23.6585 8.82352 23.58 10.1134 23.4049 11.3918C23.1717 13.1429 22.4963 14.8058 21.4424 16.2236L21.4211 16.2522L21.3977 16.2791C19.9835 17.9058 18.0092 18.9411 15.867 19.1794C13.8469 19.4041 11.8168 18.9047 10.1353 17.7771Z" fill="#EA8804"/>
<path fill-rule="evenodd" clip-rule="evenodd" d="M15.1867 7.74655C13.4488 7.74655 12.04 9.15536 12.04 10.8932C12.04 12.6311 13.4488 14.0399 15.1867 14.0399C16.9245 14.0399 18.3333 12.6311 18.3333 10.8932C18.3333 9.15536 16.9245 7.74655 15.1867 7.74655ZM10.1733 10.8932C10.1733 8.12443 12.4179 5.87988 15.1867 5.87988C17.9555 5.87988 20.2 8.12443 20.2 10.8932C20.2 13.662 17.9555 15.9065 15.1867 15.9065C12.4179 15.9065 10.1733 13.662 10.1733 10.8932Z" fill="#EA8804"/>
</svg>
