<svg width="20" height="16" viewBox="0 0 20 16" fill="none" xmlns="http://www.w3.org/2000/svg">
<path d="M19.1091 13.0598L11.6491 1.17979C11.4654 0.911672 11.2192 0.692348 10.9317 0.540803C10.6442 0.389258 10.3241 0.310059 9.99908 0.310059C9.67408 0.310059 9.35398 0.389258 9.06648 0.540803C8.77898 0.692348 8.53275 0.911672 8.34908 1.17979L0.88908 13.0598C0.706263 13.3513 0.605155 13.6866 0.596334 14.0306C0.587513 14.3746 0.671303 14.7147 0.838938 15.0152C1.00657 15.3157 1.25189 15.5656 1.54922 15.7389C1.84656 15.9121 2.18498 16.0022 2.52908 15.9998H17.4691C17.8132 16.0022 18.1516 15.9121 18.4489 15.7389C18.7463 15.5656 18.9916 15.3157 19.1592 15.0152C19.3269 14.7147 19.4106 14.3746 19.4018 14.0306C19.393 13.6866 19.2919 13.3513 19.1091 13.0598ZM10.6491 12.9198C10.5639 13.0048 10.4624 13.0717 10.3507 13.1164C10.239 13.1611 10.1194 13.1826 9.99908 13.1798C9.88015 13.1837 9.76172 13.1625 9.65148 13.1177C9.54123 13.073 9.44161 13.0055 9.35908 12.9198C9.1916 12.7448 9.09812 12.512 9.09812 12.2698C9.09812 12.0276 9.1916 11.7948 9.35908 11.6198C9.44161 11.5341 9.54123 11.4666 9.65148 11.4218C9.76172 11.3771 9.88015 11.3559 9.99908 11.3598C10.1194 11.3569 10.239 11.3785 10.3507 11.4232C10.4624 11.4679 10.5639 11.5348 10.6491 11.6198C10.804 11.8009 10.8891 12.0314 10.8891 12.2698C10.8891 12.5081 10.804 12.7387 10.6491 12.9198ZM10.9491 6.61979L10.4791 10.3098C10.4735 10.4487 10.4165 10.5806 10.3191 10.6798C10.2333 10.7629 10.1185 10.8093 9.99908 10.8093C9.87964 10.8093 9.76488 10.7629 9.67908 10.6798C9.57799 10.5822 9.51731 10.4501 9.50908 10.3098L9.04908 6.60979C9.04259 6.56 9.04259 6.50958 9.04908 6.45979C9.04394 6.34272 9.06559 6.22601 9.11238 6.11857C9.15917 6.01112 9.22986 5.91578 9.31908 5.83979C9.51289 5.68784 9.75282 5.60668 9.99908 5.60979C10.249 5.60268 10.4934 5.68415 10.6891 5.83979C10.7785 5.91778 10.8492 6.01492 10.896 6.12399C10.9427 6.23305 10.9643 6.35125 10.9591 6.46979C10.9791 6.51778 10.9925 6.56823 10.9991 6.61979H10.9491Z" fill="#EA8804"/>
</svg>
