<svg width="38" height="38" viewBox="0 0 38 38" fill="none" xmlns="http://www.w3.org/2000/svg">
<rect width="38" height="38" rx="4" fill="#F2F4F8"/>
<path d="M27.4 7H10.6C9.64522 7 8.72955 7.37928 8.05442 8.05442C7.37928 8.72955 7 9.64522 7 10.6V27.4C7 28.3548 7.37928 29.2705 8.05442 29.9456C8.72955 30.6207 9.64522 31 10.6 31H27.4C28.3548 31 29.2705 30.6207 29.9456 29.9456C30.6207 29.2705 31 28.3548 31 27.4V10.6C31 9.64522 30.6207 8.72955 29.9456 8.05442C29.2705 7.37928 28.3548 7 27.4 7ZM16.6 13C17.0747 13 17.5387 13.1408 17.9334 13.4045C18.328 13.6682 18.6357 14.043 18.8173 14.4816C18.999 14.9201 19.0465 15.4027 18.9539 15.8682C18.8613 16.3338 18.6327 16.7614 18.2971 17.0971C17.9614 17.4327 17.5338 17.6613 17.0682 17.7539C16.6027 17.8465 16.1201 17.799 15.6816 17.6173C15.243 17.4357 14.8682 17.128 14.6045 16.7334C14.3408 16.3387 14.2 15.8747 14.2 15.4C14.2 14.7635 14.4529 14.153 14.9029 13.7029C15.353 13.2529 15.9635 13 16.6 13ZM13.588 28.6H10.6C10.346 28.5957 10.0999 28.5108 9.89723 28.3577C9.69452 28.2046 9.54563 27.9911 9.472 27.748L13.18 23.296C13.2995 23.1623 13.4455 23.0549 13.6087 22.9806C13.7719 22.9062 13.9487 22.8665 14.128 22.864C14.3102 22.8677 14.4892 22.9128 14.6514 22.996C14.8136 23.0791 14.9547 23.1982 15.064 23.344L16.264 24.94L13.588 28.6ZM28.6 27.4C28.6 27.7183 28.4736 28.0235 28.2485 28.2485C28.0235 28.4736 27.7183 28.6 27.4 28.6H16.6L23.164 19.576C23.2658 19.4356 23.3968 19.3188 23.548 19.2339C23.6993 19.149 23.8671 19.0978 24.04 19.084C24.2138 19.0696 24.3887 19.0933 24.5524 19.1534C24.7161 19.2135 24.8648 19.3086 24.988 19.432L28.6 23.092V27.4Z" fill="#36B37E"/>
</svg>
