<svg width="48" height="48" viewBox="0 0 48 48" fill="none" xmlns="http://www.w3.org/2000/svg">
<circle cx="24" cy="24" r="24" fill="#1F3965"/>
<g clip-path="url(#clip0_450_21930)">
<path d="M28.7647 11.0926L27.9208 9.98485L28.7647 8.87721C28.948 8.63687 28.9017 8.29346 28.6614 8.11017C28.5657 8.03721 28.4486 7.99778 28.3283 7.99806H24.0083C23.7037 7.99634 23.4544 8.24004 23.4492 8.54464V13.4152H24.5464V11.9752H28.3283C28.6319 11.9745 28.8775 11.7278 28.8769 11.4242C28.8766 11.3044 28.8371 11.1879 28.7647 11.0926Z" fill="white"/>
<path d="M11.4394 25.2778C10.9925 25.2755 10.6283 25.6359 10.626 26.0827C10.626 26.0862 10.626 26.0898 10.626 26.0934V36.7978H17.5517V25.2778H11.4394ZM13.2317 33.7807C13.2317 34.0836 12.9861 34.3293 12.6831 34.3293C12.3802 34.3293 12.1345 34.0836 12.1345 33.7807V32.6019C12.1345 32.2989 12.3802 32.0533 12.6831 32.0533C12.9861 32.0533 13.2317 32.2989 13.2317 32.6019V33.7807ZM13.2317 29.1893C13.2317 29.4922 12.9861 29.7379 12.6831 29.7379C12.3802 29.7379 12.1345 29.4922 12.1345 29.1893V28.0104C12.1345 27.7075 12.3802 27.4618 12.6831 27.4618C12.9861 27.4618 13.2317 27.7075 13.2317 28.0104V29.1893ZM16.0431 33.7807C16.0431 34.0836 15.7975 34.3293 15.4945 34.3293C15.1916 34.3293 14.946 34.0836 14.946 33.7807V32.6019C14.946 32.2989 15.1916 32.0533 15.4945 32.0533C15.7975 32.0533 16.0431 32.2989 16.0431 32.6019V33.7807ZM16.0431 29.1893C16.0431 29.4922 15.7975 29.7379 15.4945 29.7379C15.1916 29.7379 14.946 29.4922 14.946 29.1893V28.0104C14.946 27.7075 15.1916 27.4618 15.4945 27.4618C15.7975 27.4618 16.0431 27.7075 16.0431 28.0104V29.1893Z" fill="white"/>
<path d="M23.9093 17.6323L18.6489 22.1069V36.798H21.0489V31.0853C21.0417 30.8013 21.266 30.5653 21.5499 30.558C21.5592 30.5578 21.5684 30.5578 21.5777 30.558H26.2932C26.5713 30.551 26.8023 30.7707 26.8093 31.0487C26.8096 31.0609 26.8095 31.0731 26.8089 31.0853V36.798H29.1403V22.1018L23.9093 17.6323ZM26.2932 27.4723H21.5467C21.2437 27.4723 20.9981 27.2267 20.9981 26.9238C20.9981 26.6208 21.2437 26.3752 21.5467 26.3752H26.2932C26.5961 26.3752 26.8418 26.6208 26.8418 26.9238C26.8418 27.2267 26.5961 27.4723 26.2932 27.4723Z" fill="white"/>
<path d="M36.5665 25.2778C36.5629 25.2778 36.5594 25.2778 36.5558 25.2778H30.2378V36.7978H37.3692V26.0934C37.3728 25.6465 37.0133 25.2814 36.5665 25.2778ZM33.0492 33.7807C33.0492 34.0836 32.8036 34.3293 32.5006 34.3293C32.1977 34.3293 31.9521 34.0836 31.9521 33.7807V32.6019C31.9521 32.2989 32.1977 32.0533 32.5006 32.0533C32.8036 32.0533 33.0492 32.2989 33.0492 32.6019V33.7807ZM33.0492 29.1893C33.0492 29.4922 32.8036 29.7379 32.5006 29.7379C32.1977 29.7379 31.9521 29.4922 31.9521 29.1893V28.0104C31.9521 27.7075 32.1977 27.4618 32.5006 27.4618C32.8036 27.4618 33.0492 27.7075 33.0492 28.0104V29.1893ZM35.7921 33.7807C35.7921 34.0836 35.5464 34.3293 35.2435 34.3293C34.9405 34.3293 34.6949 34.0836 34.6949 33.7807V32.6019C34.6949 32.2989 34.9405 32.0533 35.2435 32.0533C35.5464 32.0533 35.7921 32.2989 35.7921 32.6019V33.7807ZM35.7921 29.1893C35.7921 29.4922 35.5464 29.7379 35.2435 29.7379C34.9405 29.7379 34.6949 29.4922 34.6949 29.1893V28.0104C34.6949 27.7075 34.9405 27.4618 35.2435 27.4618C35.5464 27.4618 35.7921 27.7075 35.7921 28.0104V29.1893Z" fill="white"/>
<path d="M23.9362 14.1582L16.0859 20.8789L17.078 22.0333L23.58 16.4931C23.7854 16.3181 24.0875 16.3183 24.2926 16.4938L30.7676 22.0356L31.7824 20.8757L23.9362 14.1582Z" fill="white"/>
<path d="M25.7117 31.6553H22.146V36.7981H25.7117V31.6553Z" fill="white"/>
</g>
<defs>
<clipPath id="clip0_450_21930">
<rect width="28.8" height="28.8" fill="white" transform="translate(9.59766 7.99805)"/>
</clipPath>
</defs>
</svg>
