<svg width="16" height="16" viewBox="0 0 16 16" fill="none" xmlns="http://www.w3.org/2000/svg">
<path d="M13.7885 1H2.21069C1.87967 1.01364 1.56735 1.15407 1.34098 1.39108C1.11461 1.62808 0.992296 1.94269 1.00038 2.26717V2.89078C1.00239 3.1611 1.09651 3.42303 1.26781 3.63497C1.4391 3.84692 1.67775 3.99674 1.94588 4.06066V10.9436C1.92908 11.297 2.05501 11.6426 2.29641 11.9056C2.41195 12.0319 2.55322 12.133 2.71111 12.2024C2.86899 12.2719 3.03999 12.3082 3.21306 12.3089H7.18605L5.02938 14.2978C4.95707 14.3731 4.91372 14.4706 4.90675 14.5738C4.89979 14.6769 4.92963 14.7792 4.99119 14.8632C5.02173 14.9021 5.0603 14.9343 5.10439 14.9577C5.14849 14.981 5.19711 14.995 5.24709 14.9987C5.29706 15.0023 5.34727 14.9957 5.39444 14.9791C5.4416 14.9624 5.48466 14.9363 5.52081 14.9023L8 12.6407L10.4614 14.9023C10.4926 14.9351 10.5309 14.9609 10.5734 14.9777C10.6159 14.9945 10.6617 15.002 10.7075 14.9996C10.7606 15.0012 10.8134 14.9916 10.8623 14.9713C10.9113 14.9511 10.9552 14.9207 10.991 14.8823C11.0572 14.7971 11.0899 14.6912 11.0828 14.5843C11.0758 14.4774 11.0296 14.3765 10.9528 14.3003L8.79443 12.3081H12.7674C12.9421 12.3101 13.1152 12.2759 13.2754 12.2077C13.4356 12.1395 13.5792 12.0388 13.6968 11.9123C13.8184 11.7817 13.9125 11.629 13.9738 11.4628C14.0351 11.2966 14.0624 11.1202 14.0541 10.9436V4.06066C14.3222 3.99674 14.5609 3.84692 14.7322 3.63497C14.9035 3.42303 14.9976 3.1611 14.9996 2.89078V2.26717C15.0077 1.94255 14.8853 1.62782 14.6587 1.3908C14.4322 1.15377 14.1196 1.01342 13.7885 1V1ZM12.77 11.529H3.21391C3.14097 11.529 3.0689 11.5134 3.00278 11.4832C2.93665 11.453 2.87806 11.4091 2.83113 11.3544C2.78246 11.298 2.746 11.2325 2.72397 11.1619C2.70193 11.0913 2.69479 11.017 2.70296 10.9436V4.1197H13.297V10.9436C13.3025 11.0179 13.2929 11.0926 13.2687 11.1632C13.2445 11.2339 13.2063 11.2991 13.1561 11.3552C13.1077 11.4096 13.048 11.4532 12.9809 11.4832C12.9139 11.5132 12.8411 11.5288 12.7674 11.529H12.77ZM14.2408 2.89161C14.239 3.00622 14.1931 3.11594 14.1125 3.19898C14.0318 3.28201 13.9222 3.33227 13.8054 3.33977H2.18862C2.07186 3.33227 1.96226 3.28201 1.88159 3.19898C1.80092 3.11594 1.7551 3.00622 1.75322 2.89161V2.22643C1.7551 2.11181 1.80092 2.00209 1.88159 1.91906C1.96226 1.83602 2.07186 1.78576 2.18862 1.77826H13.8071C13.9239 1.78576 14.0335 1.83602 14.1142 1.91906C14.1948 2.00209 14.2407 2.11181 14.2425 2.22643L14.2408 2.89161Z" fill="#6B82AB" stroke="#6B82AB" stroke-width="0.3"/>
<path d="M10.088 7.54276C10.1303 7.56345 10.166 7.5953 10.1909 7.63473C10.2158 7.67417 10.229 7.71963 10.229 7.76601C10.229 7.81239 10.2158 7.85785 10.1909 7.89728C10.166 7.93672 10.1303 7.96857 10.088 7.98926L7.3185 9.34706C7.2797 9.36603 7.2366 9.37499 7.19329 9.37307C7.14997 9.37116 7.10787 9.35844 7.07098 9.33612C7.03409 9.3138 7.00362 9.28263 6.98248 9.24554C6.96133 9.20846 6.9502 9.1667 6.95014 9.12422V6.40779C6.9502 6.36532 6.96133 6.32356 6.98248 6.28647C7.00362 6.24939 7.03409 6.21821 7.07098 6.1959C7.10787 6.17358 7.14997 6.16086 7.19329 6.15894C7.2366 6.15703 7.2797 6.16598 7.3185 6.18496L10.088 7.54276Z" fill="#6B82AB"/>
</svg>
