<svg width="54" height="54" viewBox="0 0 54 54" fill="none" xmlns="http://www.w3.org/2000/svg">
<circle cx="27" cy="27" r="27" fill="#F0F3F7"/>
<path d="M32.814 24.7183H32.1126V20.5247C32.1126 17.4782 29.595 15 26.5003 15C23.405 15 20.8871 17.4782 20.8871 20.5247V24.7183H20.1857C18.9786 24.7183 18 25.6812 18 26.8695V36.8488C18 38.0368 18.9786 39 20.1857 39H32.814C34.021 39 35 38.0368 35 36.8488V26.8695C35 25.6812 34.021 24.7183 32.814 24.7183ZM22.8509 20.5247C22.8509 18.5442 24.4881 16.9328 26.5003 16.9328C28.5119 16.9328 30.1487 18.5442 30.1487 20.5247V24.7183H22.8509V20.5247ZM27.6184 31.7503V34.4363C27.6184 35.0441 27.1179 35.5367 26.5 35.5367C25.8824 35.5367 25.3819 35.0441 25.3819 34.4363V31.7503C24.8583 31.3985 24.5146 30.8064 24.5146 30.1357C24.5146 29.0559 25.4035 28.181 26.5 28.181C27.5965 28.181 28.4854 29.0562 28.4854 30.1357C28.4854 30.8064 28.1417 31.3978 27.6184 31.7503Z" fill="#6B82AB"/>
</svg>
