<svg width="10" height="14" viewBox="0 0 10 14" fill="none" xmlns="http://www.w3.org/2000/svg">
<path d="M8.50519 5.669H8.10249V3.22273C8.10249 1.44563 6.65706 0 4.88032 0C3.10322 0 1.65759 1.44563 1.65759 3.22273V5.669H1.25489C0.561864 5.669 0 6.23068 0 6.92389V12.7451C0 13.4381 0.561864 14 1.25489 14H8.50519C9.19822 14 9.76027 13.4381 9.76027 12.7451V6.92389C9.76027 6.23068 9.19822 5.669 8.50519 5.669ZM2.78508 3.22273C2.78508 2.06743 3.72503 1.12749 4.88032 1.12749C6.03525 1.12749 6.97501 2.06743 6.97501 3.22273V5.669H2.78508V3.22273ZM5.52224 9.77099V11.3378C5.52224 11.6924 5.23492 11.9797 4.88014 11.9797C4.52554 11.9797 4.23822 11.6924 4.23822 11.3378V9.77099C3.93756 9.56578 3.74025 9.2204 3.74025 8.82916C3.74025 8.19927 4.25062 7.68889 4.88014 7.68889C5.50965 7.68889 6.02003 8.19946 6.02003 8.82916C6.02003 9.2204 5.82272 9.56541 5.52224 9.77099Z" fill="#ffffff"/>
</svg>
