<svg width="32" height="32" viewBox="0 0 32 32" fill="none" xmlns="http://www.w3.org/2000/svg">
<path d="M5.53659 7C4.14232 7 3 8.14231 3 9.53659V22.2195C3 23.6138 4.14232 24.7561 5.53659 24.7561H26.4634C27.8577 24.7561 29 23.6138 29 22.2195V9.53659C29 8.14231 27.8577 7 26.4634 7H5.53659ZM5.53659 8.26829H26.4634C26.6467 8.26829 26.8132 8.31085 26.9688 8.37731L16.7927 17.4634C16.312 17.8927 15.7087 17.8927 15.2271 17.4634L5.03123 8.37731C5.18682 8.31085 5.35335 8.26829 5.53659 8.26829ZM4.27819 9.40779L11.5709 15.9078L4.40701 22.7942C4.32324 22.6236 4.26829 22.4266 4.26829 22.2195V9.53659C4.26829 9.4922 4.274 9.45085 4.27812 9.40779H4.27819ZM27.7218 9.40779C27.7259 9.45085 27.7316 9.4922 27.7316 9.53659V22.2195C27.7316 22.4266 27.6767 22.6236 27.5929 22.7942L20.4489 15.8979L27.7218 9.40779H27.7218ZM19.4977 16.75L26.4932 23.4878C26.483 23.488 26.4735 23.4878 26.4634 23.4878H5.53652C5.52638 23.4878 5.51686 23.488 5.50672 23.4878L12.522 16.7599L14.3848 18.4146C15.3125 19.2418 16.7072 19.243 17.6348 18.4146L19.4976 16.75H19.4977Z" fill="#1F3965"/>
</svg>
