<svg width="48" height="48" viewBox="0 0 48 48" fill="none" xmlns="http://www.w3.org/2000/svg">
<circle cx="24" cy="24" r="24" fill="#FFEFEF"/>
<path d="M32.2873 26.7839V28.4424C32.2873 28.6334 32.1319 28.7825 31.9409 28.7825H14.7048C14.5138 28.7825 14.3584 28.6334 14.3584 28.4424V26.7839C14.3584 26.5928 14.5138 26.4312 14.7048 26.4312H31.9409C32.1319 26.4312 32.2873 26.5928 32.2873 26.7839Z" fill="#FF5E5E"/>
<path d="M32.0776 26.7838C32.0776 27.1155 32.0776 27.4472 32.0776 27.779C32.0776 27.9658 32.0776 28.1526 32.0776 28.3395C32.0776 28.4529 32.0797 28.5683 31.9411 28.5788C31.748 28.5935 31.5465 28.5788 31.3533 28.5788C30.8369 28.5788 30.3225 28.5788 29.8061 28.5788C29.0566 28.5788 28.3092 28.5788 27.5597 28.5788C26.6738 28.5788 25.7857 28.5788 24.8998 28.5788C23.9634 28.5788 23.025 28.5788 22.0887 28.5788C21.1901 28.5788 20.2937 28.5788 19.3951 28.5788C18.6268 28.5788 17.8584 28.5788 17.09 28.5788C16.5379 28.5788 15.9878 28.5788 15.4357 28.5788C15.1964 28.5788 14.9549 28.5914 14.7156 28.5788C14.6316 28.5746 14.5749 28.5284 14.5665 28.4424C14.5581 28.329 14.5665 28.2114 14.5665 28.096C14.5665 27.6887 14.5665 27.2835 14.5665 26.8762C14.5665 26.767 14.5707 26.6579 14.703 26.6474C14.7177 26.6453 14.7324 26.6474 14.7471 26.6474C14.8479 26.6474 14.9486 26.6474 15.0494 26.6474C15.4966 26.6474 15.9416 26.6474 16.3888 26.6474C17.0879 26.6474 17.7849 26.6474 18.484 26.6474C19.3469 26.6474 20.2118 26.6474 21.0747 26.6474C22.0047 26.6474 22.9326 26.6474 23.8627 26.6474C24.7822 26.6474 25.6996 26.6474 26.6192 26.6474C27.4274 26.6474 28.2357 26.6474 29.0419 26.6474C29.6528 26.6474 30.2637 26.6474 30.8747 26.6474C31.2001 26.6474 31.5234 26.6474 31.8488 26.6474C31.96 26.6474 32.0713 26.6495 32.0776 26.7838C32.0881 27.0526 32.508 27.0547 32.4975 26.7838C32.4849 26.4731 32.2519 26.238 31.939 26.2275C31.9202 26.2275 31.8992 26.2275 31.8803 26.2275C31.769 26.2275 31.6577 26.2275 31.5465 26.2275C31.0741 26.2275 30.5996 26.2275 30.1273 26.2275C29.3988 26.2275 28.6724 26.2275 27.9439 26.2275C27.0558 26.2275 26.1678 26.2275 25.2819 26.2275C24.3287 26.2275 23.3756 26.2275 22.4246 26.2275C21.5008 26.2275 20.5792 26.2275 19.6555 26.2275C18.8577 26.2275 18.0578 26.2275 17.2601 26.2275C16.6806 26.2275 16.1012 26.2275 15.5239 26.2275C15.2593 26.2275 14.9948 26.2254 14.7282 26.2275C14.619 26.2296 14.5119 26.2506 14.4175 26.3073C14.2075 26.4374 14.1488 26.6516 14.1488 26.8804C14.1488 27.2961 14.1488 27.7139 14.1488 28.1296C14.1488 28.2429 14.1425 28.3563 14.1509 28.4697C14.1718 28.7699 14.4112 28.9882 14.7093 28.9987C14.7744 29.0008 14.8395 28.9987 14.9045 28.9987C15.3013 28.9987 15.7002 28.9987 16.097 28.9987C16.773 28.9987 17.4469 28.9987 18.1229 28.9987C18.9816 28.9987 19.8381 28.9987 20.6968 28.9987C21.6415 28.9987 22.5883 28.9987 23.5331 28.9987C24.4715 28.9987 25.4099 28.9987 26.3484 28.9987C27.186 28.9987 28.0216 28.9987 28.8592 28.9987C29.4995 28.9987 30.1399 28.9987 30.7802 28.9987C31.1287 28.9987 31.4793 28.9987 31.8278 28.9987C31.9768 28.9987 32.1196 28.9945 32.2498 28.9021C32.4492 28.7636 32.4954 28.5578 32.4954 28.3332C32.4954 28.1379 32.4954 27.9427 32.4954 27.7475C32.4954 27.4263 32.4954 27.105 32.4954 26.7838C32.4975 26.5151 32.0776 26.513 32.0776 26.7838Z" fill="#FF5E5E"/>
<path d="M24.7082 17.5928H21.958V26.4312H24.7082V17.5928Z" fill="#FF5E5E"/>
<path d="M24.4902 17.5991C24.4902 17.893 24.4902 18.1869 24.4902 18.4787C24.4902 19.1841 24.4902 19.8874 24.4902 20.5928C24.4902 21.441 24.4902 22.2913 24.4902 23.1394C24.4902 23.8763 24.4902 24.6132 24.4902 25.3501C24.4902 25.5915 24.4902 25.8329 24.4902 26.0765C24.4902 26.1898 24.4797 26.3095 24.4902 26.4229C24.4902 26.4271 24.4902 26.4334 24.4902 26.4376C24.5595 26.3683 24.6308 26.2969 24.7001 26.2276C23.8982 26.2276 23.0962 26.2276 22.2921 26.2276C22.1787 26.2276 22.0633 26.2276 21.9499 26.2276C22.0192 26.2969 22.0906 26.3683 22.1599 26.4376C22.1599 26.1436 22.1599 25.8497 22.1599 25.5579C22.1599 24.8525 22.1599 24.1492 22.1599 23.4438C22.1599 22.5957 22.1599 21.7454 22.1599 20.8973C22.1599 20.1604 22.1599 19.4235 22.1599 18.6866C22.1599 18.4452 22.1599 18.2037 22.1599 17.9602C22.1599 17.8468 22.1703 17.7272 22.1599 17.6138C22.1599 17.6096 22.1599 17.6033 22.1599 17.5991C22.0906 17.6684 22.0192 17.7398 21.9499 17.809C22.7519 17.809 23.5539 17.809 24.3579 17.809C24.4713 17.809 24.5868 17.809 24.7001 17.809C24.9709 17.809 24.9709 17.3892 24.7001 17.3892C23.8982 17.3892 23.0962 17.3892 22.2921 17.3892C22.1787 17.3892 22.0633 17.3892 21.9499 17.3892C21.8365 17.3892 21.74 17.4857 21.74 17.5991C21.74 17.893 21.74 18.1869 21.74 18.4787C21.74 19.1841 21.74 19.8874 21.74 20.5928C21.74 21.441 21.74 22.2913 21.74 23.1394C21.74 23.8763 21.74 24.6132 21.74 25.3501C21.74 25.707 21.7274 26.066 21.74 26.4229C21.74 26.4271 21.74 26.4334 21.74 26.4376C21.74 26.5509 21.8365 26.6475 21.9499 26.6475C22.7519 26.6475 23.5539 26.6475 24.3579 26.6475C24.4713 26.6475 24.5868 26.6475 24.7001 26.6475C24.8135 26.6475 24.9101 26.5509 24.9101 26.4376C24.9101 26.1436 24.9101 25.8497 24.9101 25.5579C24.9101 24.8525 24.9101 24.1492 24.9101 23.4438C24.9101 22.5957 24.9101 21.7454 24.9101 20.8973C24.9101 20.1604 24.9101 19.4235 24.9101 18.6866C24.9101 18.3297 24.9227 17.9707 24.9101 17.6138C24.9101 17.6096 24.9101 17.6033 24.9101 17.5991C24.9101 17.3283 24.4902 17.3283 24.4902 17.5991Z" fill="#FF5E5E"/>
<path d="M19.0608 17.5928H16.3105V26.4312H19.0608V17.5928Z" fill="#FF5E5E"/>
<path d="M18.8427 17.5991C18.8427 17.893 18.8427 18.1869 18.8427 18.4787C18.8427 19.1841 18.8427 19.8874 18.8427 20.5928C18.8427 21.441 18.8427 22.2913 18.8427 23.1394C18.8427 23.8763 18.8427 24.6132 18.8427 25.3501C18.8427 25.5915 18.8427 25.8329 18.8427 26.0765C18.8427 26.1898 18.8322 26.3095 18.8427 26.4229C18.8427 26.4271 18.8427 26.4334 18.8427 26.4376C18.912 26.3683 18.9834 26.2969 19.0527 26.2276C18.2507 26.2276 17.4487 26.2276 16.6447 26.2276C16.5313 26.2276 16.4158 26.2276 16.3025 26.2276C16.3717 26.2969 16.4431 26.3683 16.5124 26.4376C16.5124 26.1436 16.5124 25.8497 16.5124 25.5579C16.5124 24.8525 16.5124 24.1492 16.5124 23.4438C16.5124 22.5957 16.5124 21.7454 16.5124 20.8973C16.5124 20.1604 16.5124 19.4235 16.5124 18.6866C16.5124 18.4452 16.5124 18.2037 16.5124 17.9602C16.5124 17.8468 16.5229 17.7272 16.5124 17.6138C16.5124 17.6096 16.5124 17.6033 16.5124 17.5991C16.4431 17.6684 16.3717 17.7398 16.3025 17.809C17.1044 17.809 17.9064 17.809 18.7105 17.809C18.8238 17.809 18.9393 17.809 19.0527 17.809C19.3235 17.809 19.3235 17.3892 19.0527 17.3892C18.2507 17.3892 17.4487 17.3892 16.6447 17.3892C16.5313 17.3892 16.4158 17.3892 16.3025 17.3892C16.1891 17.3892 16.0925 17.4857 16.0925 17.5991C16.0925 17.893 16.0925 18.1869 16.0925 18.4787C16.0925 19.1841 16.0925 19.8874 16.0925 20.5928C16.0925 21.441 16.0925 22.2913 16.0925 23.1394C16.0925 23.8763 16.0925 24.6132 16.0925 25.3501C16.0925 25.707 16.0799 26.066 16.0925 26.4229C16.0925 26.4271 16.0925 26.4334 16.0925 26.4376C16.0925 26.5509 16.1891 26.6475 16.3025 26.6475C17.1044 26.6475 17.9064 26.6475 18.7105 26.6475C18.8238 26.6475 18.9393 26.6475 19.0527 26.6475C19.166 26.6475 19.2626 26.5509 19.2626 26.4376C19.2626 26.1436 19.2626 25.8497 19.2626 25.5579C19.2626 24.8525 19.2626 24.1492 19.2626 23.4438C19.2626 22.5957 19.2626 21.7454 19.2626 20.8973C19.2626 20.1604 19.2626 19.4235 19.2626 18.6866C19.2626 18.3297 19.2752 17.9707 19.2626 17.6138C19.2626 17.6096 19.2626 17.6033 19.2626 17.5991C19.2626 17.3283 18.8427 17.3283 18.8427 17.5991Z" fill="#FF5E5E"/>
<path d="M31.8757 17.5931H14.7698C14.2323 17.5931 14.0014 16.9108 14.4318 16.5854L22.9847 10.1192C23.1842 9.96807 23.4613 9.96807 23.6607 10.1192L32.2137 16.5854C32.644 16.9087 32.4131 17.5931 31.8757 17.5931Z" fill="#FF5E5E"/>
<path d="M31.8758 17.3892C31.6659 17.3892 31.456 17.3892 31.246 17.3892C30.6897 17.3892 30.1312 17.3892 29.5749 17.3892C28.7729 17.3892 27.9731 17.3892 27.1711 17.3892C26.2264 17.3892 25.2816 17.3892 24.3369 17.3892C23.3607 17.3892 22.3824 17.3892 21.4061 17.3892C20.4971 17.3892 19.5881 17.3892 18.679 17.3892C17.94 17.3892 17.199 17.3892 16.46 17.3892C15.9981 17.3892 15.5362 17.3892 15.0744 17.3892C14.9799 17.3892 14.8875 17.3892 14.793 17.3892C14.7238 17.3892 14.6839 17.3892 14.6125 17.3577C14.6272 17.364 14.5684 17.3304 14.5558 17.322C14.5537 17.322 14.5306 17.2989 14.5075 17.2779C14.5054 17.2758 14.4823 17.2485 14.4991 17.2716C14.4907 17.2611 14.4823 17.2485 14.476 17.2359C14.455 17.2003 14.4487 17.1877 14.4424 17.1709C14.4194 17.1079 14.4173 17.0806 14.4173 17.0386C14.4173 17.0197 14.4173 17.0029 14.4194 16.9861C14.4236 16.9504 14.4131 17.0134 14.4215 16.9777C14.4278 16.9462 14.4403 16.9063 14.4424 16.9042C14.4718 16.8371 14.497 16.8182 14.5411 16.772C14.5768 16.7342 14.5306 16.7783 14.5411 16.7699C14.5495 16.7636 14.5579 16.7573 14.5663 16.751C14.6083 16.7195 14.6503 16.688 14.6923 16.6565C14.8623 16.5284 15.0324 16.4004 15.2024 16.2702C15.8029 15.8168 16.4033 15.3633 17.0037 14.9077C17.77 14.3283 18.5342 13.7509 19.3005 13.1715C20.0226 12.6257 20.7448 12.0798 21.467 11.534C21.9373 11.1792 22.4055 10.8244 22.8757 10.4696C22.9471 10.415 23.0185 10.3583 23.0941 10.3058C23.2494 10.1946 23.4153 10.1988 23.5664 10.31C23.5958 10.3331 23.6273 10.3562 23.6567 10.3793C24.0577 10.6837 24.4587 10.986 24.8597 11.2905C25.5546 11.8153 26.2495 12.3422 26.9444 12.8671C27.7169 13.4507 28.4916 14.0365 29.2642 14.6201C29.9066 15.1072 30.549 15.5921 31.1935 16.0792C31.4959 16.308 31.8024 16.5326 32.1005 16.7657C32.1026 16.7678 32.1068 16.7699 32.1089 16.772C32.0753 16.7447 32.1026 16.7678 32.1257 16.7888C32.2034 16.8644 32.2327 16.9483 32.2306 17.0407C32.2306 17.0827 32.2264 17.11 32.2055 17.173C32.1908 17.215 32.1992 17.1898 32.2013 17.1814C32.1929 17.1982 32.1845 17.2129 32.1761 17.2275C32.1677 17.2401 32.1614 17.2527 32.153 17.2632C32.132 17.2926 32.1698 17.2443 32.1467 17.2716C32.069 17.3493 31.9892 17.3871 31.8758 17.3892C31.605 17.3955 31.605 17.8154 31.8758 17.8091C32.2138 17.8028 32.4931 17.5991 32.6064 17.2821C32.7135 16.9819 32.6085 16.6376 32.3629 16.4403C32.2831 16.3773 32.2013 16.3164 32.1194 16.2555C31.6491 15.8986 31.1788 15.5438 30.7086 15.1869C29.9738 14.6306 29.239 14.0764 28.5042 13.52C27.7274 12.9322 26.9486 12.3443 26.1718 11.7565C25.5714 11.303 24.9709 10.8496 24.3726 10.3961C24.2109 10.2743 24.0493 10.1505 23.8855 10.0287C23.8498 10.0014 23.8163 9.97623 23.7806 9.94894C23.5979 9.81457 23.3649 9.77049 23.1445 9.81877C22.9723 9.85656 22.8505 9.96153 22.7162 10.0623C22.5377 10.1967 22.3614 10.331 22.1829 10.4654C21.5657 10.9315 20.9485 11.3996 20.3313 11.8657C19.5503 12.4577 18.7672 13.0476 17.9862 13.6397C17.2619 14.1876 16.5376 14.7356 15.8134 15.2835C15.3683 15.6194 14.9232 15.9574 14.4781 16.2933C14.3417 16.3962 14.1968 16.4928 14.1065 16.6418C13.947 16.9042 13.9701 17.2569 14.1527 17.5005C14.3018 17.6999 14.5243 17.807 14.7721 17.8112C15.0156 17.8154 15.257 17.8112 15.5005 17.8112C16.0968 17.8112 16.693 17.8112 17.2892 17.8112C18.1248 17.8112 18.9625 17.8112 19.798 17.8112C20.7658 17.8112 21.7337 17.8112 22.7036 17.8112C23.6945 17.8112 24.6854 17.8112 25.6763 17.8112C26.5812 17.8112 27.4839 17.8112 28.3887 17.8112C29.0962 17.8112 29.8037 17.8112 30.5112 17.8112C30.9143 17.8112 31.3153 17.8112 31.7184 17.8112C31.7709 17.8112 31.8234 17.8112 31.8758 17.8112C32.1467 17.8091 32.1467 17.3892 31.8758 17.3892Z" fill="#FF5E5E"/>
<path d="M30.3557 17.5928H27.6055V26.4312H30.3557V17.5928Z" fill="#FF5E5E"/>
<path d="M30.1376 17.5991C30.1376 17.893 30.1376 18.1869 30.1376 18.4787C30.1376 19.1841 30.1376 19.8874 30.1376 20.5928C30.1376 21.441 30.1376 22.2913 30.1376 23.1394C30.1376 23.8763 30.1376 24.6132 30.1376 25.3501C30.1376 25.5915 30.1376 25.8329 30.1376 26.0765C30.1376 26.1898 30.1271 26.3095 30.1376 26.4229C30.1376 26.4271 30.1376 26.4334 30.1376 26.4376C30.2069 26.3683 30.2783 26.2969 30.3476 26.2276C29.5456 26.2276 28.7436 26.2276 27.9396 26.2276C27.8262 26.2276 27.7107 26.2276 27.5974 26.2276C27.6667 26.2969 27.738 26.3683 27.8073 26.4376C27.8073 26.1436 27.8073 25.8497 27.8073 25.5579C27.8073 24.8525 27.8073 24.1492 27.8073 23.4438C27.8073 22.5957 27.8073 21.7454 27.8073 20.8973C27.8073 20.1604 27.8073 19.4235 27.8073 18.6866C27.8073 18.4452 27.8073 18.2037 27.8073 17.9602C27.8073 17.8468 27.8178 17.7272 27.8073 17.6138C27.8073 17.6096 27.8073 17.6033 27.8073 17.5991C27.738 17.6684 27.6667 17.7398 27.5974 17.809C28.3993 17.809 29.2013 17.809 30.0054 17.809C30.1188 17.809 30.2342 17.809 30.3476 17.809C30.6184 17.809 30.6184 17.3892 30.3476 17.3892C29.5456 17.3892 28.7436 17.3892 27.9396 17.3892C27.8262 17.3892 27.7107 17.3892 27.5974 17.3892C27.484 17.3892 27.3874 17.4857 27.3874 17.5991C27.3874 17.893 27.3874 18.1869 27.3874 18.4787C27.3874 19.1841 27.3874 19.8874 27.3874 20.5928C27.3874 21.441 27.3874 22.2913 27.3874 23.1394C27.3874 23.8763 27.3874 24.6132 27.3874 25.3501C27.3874 25.707 27.3748 26.066 27.3874 26.4229C27.3874 26.4271 27.3874 26.4334 27.3874 26.4376C27.3874 26.5509 27.484 26.6475 27.5974 26.6475C28.3993 26.6475 29.2013 26.6475 30.0054 26.6475C30.1188 26.6475 30.2342 26.6475 30.3476 26.6475C30.461 26.6475 30.5575 26.5509 30.5575 26.4376C30.5575 26.1436 30.5575 25.8497 30.5575 25.5579C30.5575 24.8525 30.5575 24.1492 30.5575 23.4438C30.5575 22.5957 30.5575 21.7454 30.5575 20.8973C30.5575 20.1604 30.5575 19.4235 30.5575 18.6866C30.5575 18.3297 30.5701 17.9707 30.5575 17.6138C30.5575 17.6096 30.5575 17.6033 30.5575 17.5991C30.5575 17.3283 30.1376 17.3283 30.1376 17.5991Z" fill="#FF5E5E"/>
<circle cx="24" cy="23.7998" r="14" fill="#FF5E5E"/>
<line x1="17.5" y1="24.0366" x2="30.5" y2="24.0366" stroke="white" stroke-linecap="round"/>
</svg>
