<svg width="38" height="38" viewBox="0 0 38 38" fill="none" xmlns="http://www.w3.org/2000/svg">
<rect width="38" height="38" rx="4" fill="#F2F4F8"/>
<path d="M16.0589 8.18555L11.1914 13.0005H16.0589V8.18555Z" fill="#E73939"/>
<path d="M26.5 7.75H17.56V13.75C17.56 13.9489 17.481 14.1397 17.3403 14.2803C17.1997 14.421 17.0089 14.5 16.81 14.5H10.75V29.5C10.75 29.6989 10.829 29.8897 10.9697 30.0303C11.1103 30.171 11.3011 30.25 11.5 30.25H26.5C26.6989 30.25 26.8897 30.171 27.0303 30.0303C27.171 29.8897 27.25 29.6989 27.25 29.5V8.5C27.25 8.30109 27.171 8.11032 27.0303 7.96967C26.8897 7.82902 26.6989 7.75 26.5 7.75ZM22.6825 18.25L20.2525 18.8575V23.5C20.2525 24.76 19.045 25.75 17.5 25.75C15.955 25.75 14.7475 24.76 14.7475 23.5C14.7475 22.24 15.955 21.25 17.5 21.25C17.9297 21.2494 18.3553 21.3335 18.7525 21.4975V16.75C18.7491 16.6344 18.7725 16.5195 18.8209 16.4144C18.8693 16.3093 18.9413 16.2168 19.0314 16.1442C19.1214 16.0716 19.2271 16.0208 19.34 15.9957C19.453 15.9707 19.5702 15.9722 19.6825 16L22.6825 16.75C22.8447 16.7906 22.9886 16.8843 23.0915 17.0161C23.1943 17.1479 23.2502 17.3103 23.2502 17.4775C23.2502 17.6447 23.1943 17.8071 23.0915 17.9389C22.9886 18.0707 22.8447 18.1644 22.6825 18.205V18.25Z" fill="#E73939"/>
</svg>
