<svg width="39" height="10" viewBox="0 0 39 10" fill="none" xmlns="http://www.w3.org/2000/svg">
<path d="M1.51652 0.258C1.60452 0.258 1.67852 0.262 1.73852 0.27C1.79852 0.278 1.85252 0.294 1.90052 0.318C1.94852 0.338 1.99452 0.368 2.03852 0.408C2.08252 0.448 2.13252 0.502 2.18852 0.569999L6.34052 5.82C6.32452 5.652 6.31252 5.49 6.30452 5.334C6.29652 5.174 6.29252 5.024 6.29252 4.884V0.258H8.08052V9H7.02452C6.86852 9 6.73652 8.976 6.62852 8.928C6.52052 8.88 6.41652 8.792 6.31652 8.664L2.19452 3.456C2.20652 3.608 2.21652 3.758 2.22452 3.906C2.23252 4.05 2.23652 4.186 2.23652 4.314V9H0.448516V0.258H1.51652ZM15.3928 6.738C15.4408 6.738 15.4888 6.748 15.5368 6.768C15.5848 6.784 15.6308 6.814 15.6748 6.858L16.4788 7.704C16.1268 8.164 15.6848 8.512 15.1528 8.748C14.6248 8.98 13.9988 9.096 13.2748 9.096C12.6108 9.096 12.0148 8.984 11.4868 8.76C10.9628 8.532 10.5168 8.22 10.1488 7.824C9.78483 7.424 9.50483 6.952 9.30883 6.408C9.11283 5.86 9.01483 5.266 9.01483 4.626C9.01483 3.974 9.12683 3.376 9.35083 2.832C9.57483 2.284 9.88683 1.812 10.2868 1.416C10.6908 1.02 11.1728 0.712 11.7328 0.491999C12.2928 0.272 12.9108 0.162 13.5868 0.162C13.9148 0.162 14.2228 0.192 14.5108 0.252C14.8028 0.307999 15.0748 0.387999 15.3268 0.491999C15.5788 0.592 15.8108 0.714 16.0228 0.857999C16.2348 0.998 16.4228 1.154 16.5868 1.326L15.9028 2.244C15.8588 2.3 15.8068 2.352 15.7468 2.4C15.6868 2.444 15.6028 2.466 15.4948 2.466C15.4228 2.466 15.3548 2.45 15.2908 2.418C15.2268 2.386 15.1588 2.348 15.0868 2.304C15.0148 2.256 14.9348 2.206 14.8468 2.154C14.7628 2.098 14.6608 2.048 14.5408 2.004C14.4248 1.956 14.2868 1.916 14.1268 1.884C13.9708 1.852 13.7868 1.836 13.5748 1.836C13.2068 1.836 12.8708 1.902 12.5668 2.034C12.2628 2.162 12.0008 2.348 11.7808 2.592C11.5648 2.832 11.3948 3.124 11.2708 3.468C11.1508 3.812 11.0908 4.198 11.0908 4.626C11.0908 5.074 11.1508 5.472 11.2708 5.82C11.3948 6.168 11.5608 6.462 11.7688 6.702C11.9808 6.938 12.2268 7.118 12.5068 7.242C12.7868 7.366 13.0868 7.428 13.4068 7.428C13.5908 7.428 13.7588 7.42 13.9108 7.404C14.0628 7.384 14.2028 7.352 14.3308 7.308C14.4628 7.264 14.5868 7.208 14.7028 7.14C14.8228 7.068 14.9428 6.98 15.0628 6.876C15.1108 6.836 15.1628 6.804 15.2188 6.78C15.2748 6.752 15.3328 6.738 15.3928 6.738ZM23.0335 0.258V1.818H19.4455V3.858H22.1935V5.358H19.4455V7.44H23.0335V9H17.4055V0.258H23.0335ZM26.2187 5.766V9H24.1907V0.258H27.0347C27.6667 0.258 28.2047 0.324 28.6487 0.456C29.0967 0.584 29.4607 0.763999 29.7407 0.995999C30.0247 1.228 30.2307 1.502 30.3587 1.818C30.4867 2.134 30.5507 2.478 30.5507 2.85C30.5507 3.134 30.5127 3.402 30.4367 3.654C30.3607 3.906 30.2467 4.14 30.0947 4.356C29.9467 4.568 29.7627 4.758 29.5427 4.926C29.3267 5.094 29.0767 5.232 28.7927 5.34C28.9287 5.408 29.0547 5.492 29.1707 5.592C29.2907 5.692 29.3947 5.814 29.4827 5.958L31.3427 9H29.5067C29.1667 9 28.9227 8.872 28.7747 8.616L27.3227 6.078C27.2587 5.966 27.1827 5.886 27.0947 5.838C27.0107 5.79 26.8907 5.766 26.7347 5.766H26.2187ZM26.2187 4.368H27.0347C27.3107 4.368 27.5447 4.334 27.7367 4.266C27.9327 4.194 28.0927 4.096 28.2167 3.972C28.3407 3.848 28.4307 3.704 28.4867 3.54C28.5427 3.372 28.5707 3.192 28.5707 3C28.5707 2.616 28.4447 2.316 28.1927 2.1C27.9447 1.884 27.5587 1.776 27.0347 1.776H26.2187V4.368ZM38.1559 0.258V1.866H35.6959V9H33.6679V1.866H31.2079V0.258H38.1559Z" fill="#EA8804"/>
</svg>
