<svg width="26" height="26" viewBox="0 0 26 26" fill="none" xmlns="http://www.w3.org/2000/svg">
<path d="M3.50467 11.1742C3.31924 11.5181 2.82872 11.526 2.63232 11.1883L1.0869 8.53046C0.89308 8.19713 1.13356 7.77912 1.51914 7.77912H1.54625C1.82239 7.77912 2.04625 7.55527 2.04625 7.27912V1.14992C2.04625 0.873782 2.2701 0.649924 2.54625 0.649924H14.1146C14.3908 0.649924 14.6146 0.873782 14.6146 1.14992V2.12328C14.6146 2.39942 14.3908 2.62328 14.1146 2.62328H4.43905C4.1629 2.62328 3.93905 2.84714 3.93905 3.12328V7.27908C3.93905 7.55522 4.1629 7.77908 4.43905 7.77908H4.49763C4.87609 7.77908 5.11734 8.18325 4.93773 8.51638L3.50467 11.1742ZM17.5708 10.3687H15.301L19.5 0.649902H21.1822L25.3422 10.3791H23.0438L22.1781 8.24188H18.4081L17.5708 10.3687ZM19.1308 6.4219H21.4708L20.2956 3.3617L19.1308 6.4219ZM6.50002 16.3799H7.68042V19.5857C7.40257 19.7259 7.09449 19.7955 6.78338 19.7885C6.43663 19.7827 6.09783 19.683 5.80322 19.4999C5.66739 19.3817 5.51716 19.2813 5.356 19.2009C5.89175 18.6848 6.18365 17.9658 6.15945 17.2223C6.15945 15.5869 5.11945 14.4897 3.55945 14.4897C2.60366 14.4757 1.71254 14.9708 1.21945 15.7898L1.14666 15.912L2.41544 17.3289L2.54281 17.0845C2.62161 16.8909 2.75601 16.7251 2.92917 16.608C3.10225 16.4909 3.30622 16.4278 3.51519 16.4267C4.01699 16.4267 4.33159 16.7959 4.33159 17.3887C4.33159 17.8177 4.19643 18.5379 3.29159 18.5379L2.66241 18.5379V20.4724H3.56726C4.32906 20.4724 4.7139 20.8156 4.7139 21.4942C4.7139 22.0506 4.43308 22.6433 3.64792 22.6433C2.74308 22.6433 2.24914 21.8633 2.11914 21.6033L1.98914 21.3642L0.650035 22.8799L0.730609 23.0021C1.36462 23.995 2.46199 24.5953 3.64001 24.5933C5.34559 24.5933 6.54421 23.3427 6.58581 21.5383C6.94229 21.6615 7.32798 21.6724 7.69081 21.5695V25.3499H9.60703L9.60695 16.3799H11.44V25.3499H13.3562V16.3799H14.8279L14.8278 14.5599H6.49997L6.50002 16.3799ZM21.0059 16.6517C20.8466 16.9836 21.0886 17.3679 21.4567 17.3679H22.0584L22.0584 22.64C22.0584 22.9161 21.8345 23.1399 21.5584 23.1399H16.2352C15.959 23.1399 15.7352 23.3638 15.7352 23.6399V24.8499C15.7352 25.1261 15.959 25.3499 16.2352 25.3499H23.4512C23.7273 25.3499 23.9512 25.1261 23.9512 24.85L23.9512 17.3679H24.5279C24.9028 17.3679 25.1443 16.9708 24.9719 16.638L23.3775 13.5599C23.1878 13.1937 22.6612 13.2017 22.4828 13.5736L21.0059 16.6517Z" fill="#EA8804"/>
</svg>
