<svg width="48" height="48" viewBox="0 0 48 48" fill="none" xmlns="http://www.w3.org/2000/svg">
<rect width="48" height="48" rx="24" fill="#EAF9FF"/>
<rect x="20.1774" y="14.5863" width="16.5239" height="23.3388" rx="1.5" transform="rotate(2.5 20.1774 14.5863)" fill="#EAF9FF" stroke="#1DA1F2"/>
<rect x="9.51567" y="12.6706" width="18.5239" height="25.3388" rx="2.5" transform="rotate(-7.5 9.51567 12.6706)" fill="#EAF9FF" stroke="#1DA1F2"/>
<rect x="31.229" y="11.5439" width="0.730164" height="2.43388" rx="0.365082" transform="rotate(82.5 31.229 11.5439)" fill="#1DA1F2"/>
<rect x="24.561" y="7.51221" width="0.730164" height="2.43388" rx="0.365082" transform="rotate(-7.5 24.561 7.51221)" fill="#1DA1F2"/>
<rect x="28.8394" y="8.17676" width="0.730164" height="2.43388" rx="0.365082" transform="rotate(37.5 28.8394 8.17676)" fill="#1DA1F2"/>
<rect x="12.6235" y="19.394" width="14.1165" height="0.973551" rx="0.486776" transform="rotate(-7.5 12.6235 19.394)" fill="#1DA1F2"/>
<rect x="13.2588" y="24.2207" width="14.1165" height="0.973551" rx="0.486776" transform="rotate(-7.5 13.2588 24.2207)" fill="#1DA1F2"/>
<rect x="13.894" y="29.0464" width="14.1165" height="0.973551" rx="0.486776" transform="rotate(-7.5 13.894 29.0464)" fill="#1DA1F2"/>
<rect x="12.8774" y="21.3247" width="5.11115" height="0.973551" rx="0.486776" transform="rotate(-7.5 12.8774 21.3247)" fill="#1DA1F2"/>
<rect x="13.5132" y="26.1509" width="5.11115" height="0.973551" rx="0.486776" transform="rotate(-7.5 13.5132 26.1509)" fill="#1DA1F2"/>
<rect x="14.1484" y="30.9771" width="5.11115" height="0.973551" rx="0.486776" transform="rotate(-7.5 14.1484 30.9771)" fill="#1DA1F2"/>
</svg>
