<svg width="16" height="16" viewBox="0 0 16 16" fill="none" xmlns="http://www.w3.org/2000/svg">
<path d="M4.01089 1C3.72704 1.0027 3.4526 1.09651 3.23266 1.266L3.19972 1.28156L3.18325 1.29789L1.52795 2.91022L1.54442 2.925C1.3015 3.13369 1.1294 3.40561 1.04983 3.70652C0.970249 4.00742 0.986749 4.32383 1.09725 4.61589C1.09725 4.61978 1.09725 4.62756 1.09725 4.63144C1.9278 6.76544 3.23819 8.70409 4.93819 10.3139C6.65661 11.9017 8.70311 13.1379 10.95 13.9453H10.9664C11.2775 14.0417 11.6096 14.0606 11.9307 14.0001C12.2517 13.9396 12.5507 13.8018 12.7988 13.6L14.4705 12.0188C14.6818 11.8101 14.7997 11.5325 14.7997 11.2437C14.7997 10.955 14.6818 10.6774 14.4705 10.4687L12.322 8.43556L12.3047 8.40367C12.081 8.20396 11.7848 8.09269 11.477 8.09269C11.1692 8.09269 10.8731 8.20396 10.6494 8.40367L9.58701 9.40544C8.79284 9.04491 8.06229 8.57086 7.42113 8C6.79391 7.41807 6.2934 6.72579 5.94783 5.96222L7.00772 4.96044C7.11518 4.85969 7.20015 4.7396 7.25761 4.60728C7.31506 4.47496 7.34384 4.33311 7.34222 4.1901C7.34061 4.0471 7.30865 3.90585 7.24822 3.77472C7.18779 3.64359 7.10013 3.52524 6.99042 3.42667L7.00689 3.41033L6.95748 3.36367L4.83854 1.29789L4.82207 1.28233L4.78831 1.266C4.56871 1.09645 4.29451 1.00263 4.01089 1V1ZM4.01089 2.00178C4.05429 2.00424 4.0954 2.02103 4.12701 2.04922L6.24595 4.09867L6.29536 4.14611C6.30233 4.16545 6.30283 4.18635 6.29679 4.20597C6.29075 4.22559 6.27846 4.24298 6.2616 4.25578L4.93819 5.51111L4.69113 5.73044L4.80807 6.04156C5.23977 7.04935 5.88136 7.965 6.69478 8.73422L6.81089 8.82756C7.61215 9.49954 8.51612 10.0536 9.49231 10.471L9.82172 10.6126L11.3947 9.12467C11.4861 9.03911 11.4688 9.03911 11.5594 9.12467L13.7285 11.1764C13.82 11.262 13.82 11.2309 13.7285 11.3164L12.1062 12.851C11.9992 12.9448 11.8663 13.0079 11.7228 13.0329C11.5793 13.058 11.4312 13.044 11.2958 12.9926C9.19887 12.2407 7.28818 11.0893 5.68266 9.61C4.0963 8.09916 2.8721 6.2841 2.09289 4.28767C2.05199 4.17447 2.04575 4.05266 2.07489 3.93626C2.10403 3.81986 2.16736 3.71359 2.2576 3.62967L2.29054 3.59778L3.89642 2.04844C3.92782 2.02042 3.9686 2.00364 4.01172 2.001L4.01089 2.00178Z" fill="#6B82AB"/>
</svg>
