<svg width="32" height="32" viewBox="0 0 32 32" fill="none" xmlns="http://www.w3.org/2000/svg">
<path d="M9.14247 3.2002C8.63687 3.20809 8.1389 3.29997 7.68033 3.46996C6.31671 4.03361 5.17597 4.88801 4.38507 5.93805C3.59418 6.98809 3.18417 8.19258 3.20067 9.41745C3.89053 13.0168 5.50245 16.4644 7.936 19.5452C10.0646 22.767 13.003 25.6044 16.5677 27.8802C17.8892 28.5028 19.4014 28.8209 20.936 28.7991C22.4707 28.7774 23.9677 28.4166 25.2607 27.757C25.8123 27.4879 26.2345 27.0788 26.4595 26.5953C26.6846 26.1119 26.6995 25.5822 26.5018 25.0912C26.0029 23.9186 25.2191 22.836 24.1954 21.9051C23.9096 21.6344 23.5251 21.4417 23.0954 21.3537C22.6657 21.2658 22.2123 21.287 21.7984 21.4144L20.7331 21.7436C19.8664 22.0093 18.9192 22.0596 18.016 21.8879C17.1128 21.7161 16.296 21.3304 15.6729 20.7814C14.5025 19.7397 13.474 18.6019 12.6047 17.3871C11.7202 16.1874 10.9971 14.9165 10.4475 13.5956C10.1631 12.8901 10.153 12.1324 10.4188 11.4223C10.6845 10.7122 11.2135 10.0829 11.9363 9.61711L12.8338 9.03723C13.1823 8.81464 13.4344 8.51033 13.5543 8.16731C13.6743 7.82428 13.6561 7.45987 13.5023 7.12554C13.0016 5.95267 12.2161 4.86999 11.1905 3.93938C10.9321 3.70966 10.6165 3.52532 10.2639 3.39807C9.91136 3.27082 9.52945 3.20343 9.14247 3.2002Z" fill="#1F3965"/>
<path d="M27.9505 18.8719H28.1396C28.2224 18.8762 28.3055 18.8672 28.3838 18.8454C28.4622 18.8237 28.5343 18.7896 28.5959 18.7453C28.6575 18.7009 28.7073 18.6472 28.7424 18.5872C28.7774 18.5272 28.7971 18.4622 28.8001 18.3961C28.8001 18.2219 28.8001 18.052 28.8001 17.8842C28.7837 15.402 27.9273 12.9695 26.3213 10.8433C24.7153 8.71711 22.4193 6.97621 19.6757 5.80438C19.6024 5.77247 19.5217 5.75264 19.4386 5.74607C19.3555 5.73951 19.2715 5.74633 19.1918 5.76615C19.112 5.78596 19.0381 5.81836 18.9744 5.86142C18.9106 5.90448 18.8584 5.95732 18.8208 6.01679L18.7382 6.15274C18.6727 6.26605 18.6637 6.39501 18.7132 6.51339C18.7627 6.63177 18.8669 6.73067 19.0045 6.78997C21.5306 7.86397 23.6449 9.46347 25.1229 11.4187C26.6009 13.3738 27.3875 15.6117 27.3992 17.8948C27.3992 18.0477 27.3992 18.2028 27.3992 18.3621C27.3929 18.487 27.4463 18.6091 27.5487 18.7038C27.6511 18.7984 27.7947 18.8585 27.9505 18.8719Z" fill="#1F3965"/>
<path d="M24.017 18.6359L24.2061 18.6465C24.2902 18.6518 24.3747 18.6432 24.4546 18.6215C24.5344 18.5998 24.6078 18.5653 24.6704 18.5202C24.733 18.4751 24.7833 18.4202 24.8184 18.359C24.8535 18.2979 24.8726 18.2316 24.8745 18.1644C24.8745 18.0752 24.8745 17.9852 24.8745 17.8946C24.8634 16.0011 24.2178 14.1444 23.0045 12.5169C21.7912 10.8893 20.0544 9.55003 17.974 8.63776C17.9004 8.60516 17.8193 8.58478 17.7356 8.57785C17.6519 8.57092 17.5674 8.57758 17.487 8.59743C17.4066 8.61728 17.3321 8.64991 17.2679 8.69334C17.2038 8.73678 17.1513 8.79013 17.1137 8.85017L17.0312 8.98611C16.9656 9.09943 16.9567 9.22839 17.0062 9.34677C17.0557 9.46515 17.1598 9.56405 17.2975 9.62334C19.1557 10.4362 20.7071 11.631 21.7909 13.0836C22.8746 14.5362 23.451 16.1937 23.4603 17.884C23.4603 17.9633 23.4603 18.0433 23.4603 18.124C23.4528 18.25 23.5064 18.3736 23.6101 18.4689C23.7137 18.5642 23.8595 18.624 24.017 18.6359Z" fill="#1F3965"/>
<path d="M20.0803 18.3984L20.2694 18.4133C20.3543 18.4198 20.4399 18.4121 20.5209 18.3908C20.6019 18.3694 20.6765 18.3349 20.7398 18.2893C20.8032 18.2438 20.854 18.1882 20.889 18.1262C20.924 18.0642 20.9424 17.997 20.9432 17.929V17.8886C20.9376 16.5852 20.5033 15.3058 19.6835 14.1783C18.8638 13.0507 17.6873 12.1145 16.2718 11.4632C16.1981 11.4296 16.1165 11.4084 16.0322 11.401C15.9478 11.3935 15.8624 11.3999 15.7813 11.4198C15.7001 11.4397 15.625 11.4727 15.5605 11.5167C15.496 11.5607 15.4435 11.6148 15.4062 11.6756L15.3236 11.8116C15.2555 11.9225 15.2426 12.05 15.2876 12.1682C15.3326 12.2865 15.4321 12.3867 15.566 12.4488C16.7631 13.0005 17.7578 13.793 18.4509 14.7472C19.144 15.7013 19.5111 16.7838 19.5156 17.8865C19.5102 18.0131 19.5656 18.1367 19.6706 18.2318C19.7755 18.327 19.9221 18.3866 20.0803 18.3984Z" fill="#1F3965"/>
</svg>
