<svg width="14" height="14" viewBox="0 0 14 14" fill="none" xmlns="http://www.w3.org/2000/svg">
<path d="M12.4444 0H1.55556C0.7 0 0 0.7 0 1.55556V12.4444C0 13.3 0.7 14 1.55556 14H12.4444C13.3 14 14 13.3 14 12.4444V1.55556C14 0.7 13.3 0 12.4444 0ZM3.88889 10.8889C3.46111 10.8889 3.11111 10.5389 3.11111 10.1111V6.22222C3.11111 5.79444 3.46111 5.44444 3.88889 5.44444C4.31667 5.44444 4.66667 5.79444 4.66667 6.22222V10.1111C4.66667 10.5389 4.31667 10.8889 3.88889 10.8889ZM7 10.8889C6.57222 10.8889 6.22222 10.5389 6.22222 10.1111V3.88889C6.22222 3.46111 6.57222 3.11111 7 3.11111C7.42778 3.11111 7.77778 3.46111 7.77778 3.88889V10.1111C7.77778 10.5389 7.42778 10.8889 7 10.8889ZM10.1111 10.8889C9.68333 10.8889 9.33333 10.5389 9.33333 10.1111V8.55556C9.33333 8.12778 9.68333 7.77778 10.1111 7.77778C10.5389 7.77778 10.8889 8.12778 10.8889 8.55556V10.1111C10.8889 10.5389 10.5389 10.8889 10.1111 10.8889Z" fill="#1F3965"/>
</svg>
