<svg width="37" height="48" viewBox="0 0 37 48" fill="none" xmlns="http://www.w3.org/2000/svg">
<rect width="37" height="48" rx="4" fill="#F4F4F4"/>
<g clip-path="url(#clip0_8417_33648)">
<path d="M17.9997 24.0002C19.8413 24.0002 21.333 22.5085 21.333 20.6668C21.333 18.8252 19.8413 17.3335 17.9997 17.3335C16.158 17.3335 14.6663 18.8252 14.6663 20.6668C14.6663 22.5085 16.158 24.0002 17.9997 24.0002ZM17.9997 25.6668C15.7747 25.6668 11.333 26.7835 11.333 29.0002V29.8335C11.333 30.2918 11.708 30.6668 12.1663 30.6668H23.833C24.2913 30.6668 24.6663 30.2918 24.6663 29.8335V29.0002C24.6663 26.7835 20.2247 25.6668 17.9997 25.6668Z" fill="#CCCCCC"/>
</g>
<defs>
<clipPath id="clip0_8417_33648">
<rect width="20" height="20" fill="white" transform="translate(8 14)"/>
</clipPath>
</defs>
</svg>
