<svg width="20" height="20" viewBox="0 0 20 20" fill="none" xmlns="http://www.w3.org/2000/svg">
<g opacity="0.8">
<path d="M0 10C0 4.47715 4.47715 0 10 0C15.5228 0 20 4.47715 20 10C20 15.5228 15.5228 20 10 20C4.47715 20 0 15.5228 0 10Z" fill="#1F3965" fill-opacity="0.4"/>
<path d="M13.9301 4.75878C13.9742 4.6837 14 4.58972 14 4.49423C14 4.25661 13.8317 4 13.56 4H6.51308C6.41774 4 6.33019 4.03498 6.25825 4.09308C6.10834 4.15198 6 4.31049 6 4.49877V15.5684C6 15.8067 6.17222 16 6.38476 16C6.59722 16 6.76952 15.8068 6.76952 15.5684L6.76943 10.7761V10.6319H13.5599C13.8317 10.6319 13.9999 10.3754 13.9999 10.1377C13.9999 10.042 13.9741 9.94823 13.9252 9.8661L12.1434 7.54732C12.0405 7.41333 12.0405 7.21872 12.1434 7.08474L13.9301 4.75878ZM10.9118 7.45318L12.5966 9.64662H7.26806C7.09387 9.64662 6.95219 9.4875 6.95219 9.29229V5.33935C6.95219 5.14394 7.09404 4.98502 7.26806 4.98502H12.5964L10.9116 7.17846C10.8504 7.25797 10.8504 7.37356 10.9116 7.45307L10.9118 7.45318Z" fill="white"/>
</g>
</svg>
