<svg width="33" height="29" viewBox="0 0 33 29" fill="none" xmlns="http://www.w3.org/2000/svg">
<path d="M27.8168 0.666992H4.95016C3.72575 0.666992 2.55148 1.15339 1.68569 2.01918C0.819893 2.88498 0.333496 4.05924 0.333496 5.28366V26.267C0.336578 26.6286 0.44556 26.9813 0.646967 27.2817C0.848374 27.582 1.13338 27.8167 1.46674 27.9568C1.8001 28.0968 2.16721 28.1362 2.52268 28.0699C2.87815 28.0035 3.20639 27.8345 3.46683 27.5837L8.80016 22.3337H27.8168C28.4223 22.3337 29.0218 22.2141 29.581 21.9819C30.1402 21.7497 30.6481 21.4094 31.0754 20.9805C31.5028 20.5515 31.8413 20.0425 32.0715 19.4825C32.3017 18.9224 32.419 18.3225 32.4168 17.717V5.28366C32.419 4.67818 32.3017 4.07822 32.0715 3.5182C31.8413 2.95817 31.5028 2.4491 31.0754 2.02019C30.6481 1.59127 30.1402 1.25095 29.581 1.01873C29.0218 0.786521 28.4223 0.666988 27.8168 0.666992ZM20.3335 16.6503H8.66683C8.35741 16.6503 8.06066 16.5274 7.84187 16.3086C7.62308 16.0898 7.50016 15.7931 7.50016 15.4837C7.50016 15.1742 7.62308 14.8775 7.84187 14.6587C8.06066 14.4399 8.35741 14.317 8.66683 14.317H20.3335C20.6429 14.317 20.9397 14.4399 21.1585 14.6587C21.3772 14.8775 21.5002 15.1742 21.5002 15.4837C21.5002 15.7931 21.3772 16.0898 21.1585 16.3086C20.9397 16.5274 20.6429 16.6503 20.3335 16.6503ZM25.3335 12.417H8.66683C8.35741 12.417 8.06066 12.2941 7.84187 12.0753C7.62308 11.8565 7.50016 11.5597 7.50016 11.2503C7.50016 10.9409 7.62308 10.6442 7.84187 10.4254C8.06066 10.2066 8.35741 10.0837 8.66683 10.0837H25.3335C25.6429 10.0837 25.9397 10.2066 26.1585 10.4254C26.3772 10.6442 26.5002 10.9409 26.5002 11.2503C26.5002 11.5597 26.3772 11.8565 26.1585 12.0753C25.9397 12.2941 25.6429 12.417 25.3335 12.417ZM25.3335 8.18366H8.66683C8.35741 8.18366 8.06066 8.06074 7.84187 7.84195C7.62308 7.62316 7.50016 7.32641 7.50016 7.01699C7.50016 6.70757 7.62308 6.41083 7.84187 6.19203C8.06066 5.97324 8.35741 5.85033 8.66683 5.85033H25.3335C25.6429 5.85033 25.9397 5.97324 26.1585 6.19203C26.3772 6.41083 26.5002 6.70757 26.5002 7.01699C26.5002 7.32641 26.3772 7.62316 26.1585 7.84195C25.9397 8.06074 25.6429 8.18366 25.3335 8.18366Z" fill="#6B82AB"/>
</svg>
