<svg width="24" height="24" viewBox="0 0 24 24" fill="none" xmlns="http://www.w3.org/2000/svg">
<path d="M12.84 4H8.92C8.59455 4.02062 8.29032 4.16862 8.07321 4.41194C7.85609 4.65526 7.74357 4.97431 7.76 5.3V16.4H14V5.3C14.0164 4.97431 13.9039 4.65526 13.6868 4.41194C13.4697 4.16862 13.1654 4.02062 12.84 4Z" fill="#1DA1F2"/>
<path d="M7.76 18.7C7.74357 19.0257 7.85609 19.3447 8.07321 19.588C8.29032 19.8313 8.59455 19.9793 8.92 20H12.84C13.1654 19.9793 13.4697 19.8313 13.6868 19.588C13.9039 19.3447 14.0164 19.0257 14 18.7V17.21H7.76V18.7Z" fill="#1DA1F2"/>
<path d="M2.00002 17.21V18.77C1.98082 19.0761 2.08367 19.3774 2.28607 19.6079C2.48848 19.8385 2.77395 19.9794 3.08002 20H6.21002C6.51609 19.9794 6.80156 19.8385 7.00396 19.6079C7.20637 19.3774 7.30922 19.0761 7.29002 18.77V17.21H2.00002Z" fill="#1DA1F2"/>
<path d="M7.28998 8.00007C7.29582 7.70235 7.18695 7.4138 6.9859 7.19414C6.78486 6.97448 6.50705 6.84055 6.20998 6.82007H3.07998C2.78291 6.84055 2.5051 6.97448 2.30406 7.19414C2.10301 7.4138 1.99414 7.70235 1.99998 8.00007V16.4001H7.28998V8.00007Z" fill="#1DA1F2"/>
<path d="M16.08 16.78L21.37 15.46L19.37 7.56998C19.2874 7.25357 19.0841 6.98213 18.8036 6.81388C18.5232 6.64563 18.1881 6.59397 17.87 6.66998L15 7.39998C14.8423 7.43741 14.6937 7.50587 14.5628 7.60138C14.4319 7.69688 14.3213 7.81751 14.2375 7.95622C14.1537 8.09493 14.0984 8.24894 14.0748 8.40926C14.0512 8.56959 14.0597 8.73301 14.1 8.88998L16.08 16.78Z" fill="#1DA1F2"/>
<path d="M21.52 16.0701L16.24 17.3901L16.59 18.8201C16.6297 18.9772 16.7 19.125 16.7969 19.2549C16.8939 19.3848 17.0156 19.4942 17.155 19.5769C17.2944 19.6596 17.4487 19.714 17.6092 19.7368C17.7697 19.7597 17.9331 19.7506 18.09 19.7101L21 19.0001C21.1577 18.9626 21.3063 18.8942 21.4372 18.7987C21.5681 18.7032 21.6787 18.5825 21.7625 18.4438C21.8463 18.3051 21.9016 18.1511 21.9252 17.9908C21.9488 17.8305 21.9402 17.667 21.9 17.5101L21.52 16.0701Z" fill="#1DA1F2"/>
</svg>
