<svg width="16" height="16" viewBox="0 0 16 16" fill="none" xmlns="http://www.w3.org/2000/svg">
<mask id="mask0" mask-type="alpha" maskUnits="userSpaceOnUse" x="2" y="3" width="11" height="8">
<path d="M7.96127 5.86101L3.6109 4.29005C3.55282 4.26907 3.4898 4.30523 3.47859 4.36595L3.00755 6.91744C3.00272 6.94362 3.00852 6.97064 3.02367 6.99252L4.49024 9.1109C4.4967 9.12023 4.5047 9.1284 4.51391 9.13504L5.96385 10.1822C5.98686 10.1988 6.01584 10.2049 6.04358 10.1989L8.5 9.66667L10 9.125L11.9169 8.60583C11.9647 8.5929 11.9958 8.54699 11.9901 8.49785L11.5159 4.38754C11.5081 4.31982 11.4363 4.2796 11.3744 4.30831L8.03735 5.85766C8.01342 5.86877 7.98608 5.86997 7.96127 5.86101Z" fill="#C4C4C4" stroke="black"/>
</mask>
<g mask="url(#mask0)">
<path d="M7.75639 8.62511C9.02805 8.62511 10.0589 7.47656 10.0589 6.05975C10.0589 4.64294 9.02805 3.49438 7.75639 3.49438C7.05252 3.49438 6.42241 3.84627 6.00006 4.40076C5.65937 4.84804 5.45386 5.42716 5.45386 6.05975C5.45386 7.47656 6.48474 8.62511 7.75639 8.62511Z" stroke="#EA8804"/>
</g>
<path d="M7.72352 1.01141L2.26162 2.90937C2.17319 2.9401 2.17169 3.06462 2.25936 3.09747L7.72125 5.14421C7.74388 5.15269 7.76881 5.15269 7.79143 5.14421L13.2533 3.09747C13.341 3.06462 13.3395 2.9401 13.2511 2.90937L7.78916 1.01141C7.76791 1.00402 7.74478 1.00402 7.72352 1.01141Z" stroke="#EA8804"/>
<path fill-rule="evenodd" clip-rule="evenodd" d="M5.80761 10.0184C6.82967 10.0277 8.56653 10.0654 9.70373 10.0184C11.099 10.0184 12.0609 11.1211 12.2408 12.444L12.3559 13.29C12.368 13.3787 12.3601 13.4689 12.3328 13.5545C12.3055 13.64 12.2594 13.7191 12.1977 13.7863C12.1359 13.8535 12.0598 13.9073 11.9746 13.9441C11.8893 13.981 11.7968 14 11.7032 14H3.81136C3.71762 14.0003 3.62489 13.9815 3.5394 13.9447C3.4539 13.908 3.3776 13.8542 3.31561 13.787C3.25363 13.7197 3.20739 13.6406 3.17998 13.5549C3.15258 13.4692 3.14465 13.3789 3.15673 13.29L3.27122 12.4465C3.45041 11.1211 4.41295 10.0184 5.80761 10.0184Z" stroke="#EA8804"/>
</svg>
