<svg width="17" height="14" viewBox="0 0 17 14" fill="none" xmlns="http://www.w3.org/2000/svg">
<mask id="mask0" style="mask-type:alpha" maskUnits="userSpaceOnUse" x="5" y="3" width="11" height="7">
<path d="M10.3754 5.48798L14.7319 4.03582C14.7889 4.0168 14.8497 4.0521 14.8615 4.11108L15.3306 6.45616C15.3361 6.48406 15.3296 6.51301 15.3125 6.53577L13.8496 8.4863C13.8428 8.49537 13.8345 8.50321 13.8251 8.5095L12.3738 9.47702C12.3517 9.49173 12.3247 9.49708 12.2987 9.49188L9.83932 9L8.33932 8.5L6.42529 8.02149C6.37623 8.00922 6.34404 7.96226 6.35032 7.91207L6.82284 4.13186C6.83109 4.06584 6.90031 4.02614 6.96146 4.05234L10.3044 5.48502C10.3269 5.49467 10.3522 5.49572 10.3754 5.48798Z" fill="#C4C4C4" stroke="black"/>
</mask>
<g mask="url(#mask0)">
<path d="M10.583 8.03879C9.31134 8.03879 8.28046 6.97859 8.28046 5.67076C8.28046 4.36294 9.31134 3.30273 10.583 3.30273C11.2869 3.30273 11.917 3.62755 12.3393 4.13939C12.68 4.55226 12.8855 5.08683 12.8855 5.67076C12.8855 6.97859 11.8546 8.03879 10.583 8.03879Z" stroke="#36B37E"/>
</g>
<path d="M10.6135 1.0098L16.0536 2.75477C16.1451 2.78413 16.1466 2.91308 16.0558 2.9445L10.6157 4.82625C10.5945 4.83358 10.5715 4.83358 10.5503 4.82625L5.1102 2.9445C5.01938 2.91308 5.02083 2.78413 5.11235 2.75477L10.5524 1.0098C10.5723 1.00343 10.5937 1.00343 10.6135 1.0098Z" stroke="#36B37E"/>
<path d="M8.63547 9.32478C9.77267 9.36816 11.5095 9.33334 12.5316 9.32478C13.9263 9.32478 14.8888 10.3426 15.068 11.566L15.1825 12.3447C15.1946 12.4267 15.1866 12.5101 15.1592 12.5892C15.1318 12.6683 15.0856 12.7414 15.0236 12.8034C14.9616 12.8655 14.8853 12.9151 14.7998 12.949C14.7143 12.983 14.6216 13.0004 14.5278 13.0001H6.63599C6.54242 13.0001 6.4499 12.9825 6.36464 12.9485C6.27938 12.9145 6.20332 12.8648 6.14155 12.8028C6.07977 12.7408 6.0337 12.6678 6.00641 12.5888C5.97912 12.5098 5.97124 12.4266 5.98329 12.3447V12C3.29847 10 1.76864 7.16667 1.33932 6C0.539325 4.8 1.33932 4.16671 1.83932 4.00007C3.03932 3.60007 3.67266 4.50007 3.83932 5.00007C4.33932 7.00007 5.33932 8.50007 6.00641 9.00007C6.54008 9.40007 7.98148 9.38321 8.63547 9.32478Z" stroke="#36B37E" stroke-linejoin="round"/>
</svg>