<svg width="48" height="48" viewBox="0 0 48 48" fill="none" xmlns="http://www.w3.org/2000/svg">
<circle cx="24" cy="24" r="24" fill="#DBE2EA"/>
<path d="M24.0002 8C28.2959 8 31.7783 11.5818 31.7783 16.0003C31.7783 20.4187 28.296 24.0006 24.0002 24.0006C19.7045 24.0003 16.2221 20.4185 16.2221 16.0003C16.2221 11.5819 19.7044 8.00069 24.0002 8.00069V8ZM24.0002 25.5997C16.2808 25.5997 10 31.3421 10 38.4001C10 39.2845 10.6966 40 11.5555 40H36.4445C37.3044 40 38 39.2842 38 38.4001C38.0003 31.3419 31.7202 25.5997 23.9998 25.5997H24.0002Z" fill="#6B82AB"/>
</svg>
