<svg width="40" height="40" viewBox="0 0 40 40" fill="none" xmlns="http://www.w3.org/2000/svg">
<path d="M26.6661 3.33301H13.3328C12.4416 3.33267 11.5595 3.51099 10.7385 3.85743C9.91745 4.20387 9.17421 4.71139 8.5527 5.35C7.93118 5.9886 7.444 6.74533 7.11996 7.57545C6.79592 8.40557 6.64159 9.29222 6.6661 10.183V29.8163C6.64159 30.7071 6.79592 31.5938 7.11996 32.4239C7.444 33.254 7.93118 34.0107 8.5527 34.6494C9.17421 35.288 9.91745 35.7955 10.7385 36.1419C11.5595 36.4884 12.4416 36.6667 13.3328 36.6663H27.3661C28.2502 36.6556 29.1233 36.4692 29.9346 36.1178C30.746 35.7664 31.4793 35.2572 32.092 34.6197C32.7046 33.9822 33.1844 33.2293 33.5033 32.4046C33.8221 31.58 33.9738 30.7002 33.9494 29.8163V12.6663L26.6661 3.33301ZM14.7828 25.733C14.7851 25.7905 14.7755 25.8479 14.7546 25.9016C14.7336 25.9552 14.7018 26.0039 14.6611 26.0447C14.6204 26.0854 14.5716 26.1172 14.518 26.1381C14.4644 26.1591 14.407 26.1687 14.3494 26.1663H12.3828C12.3245 26.1686 12.2663 26.159 12.2118 26.1383C12.1573 26.1175 12.1075 26.0859 12.0655 26.0455C12.0235 26.005 11.9901 25.9565 11.9673 25.9028C11.9445 25.8491 11.9327 25.7913 11.9328 25.733V23.7663C11.9371 23.6499 11.9864 23.5397 12.0703 23.4589C12.1542 23.378 12.2662 23.3329 12.3828 23.333H14.3494C14.4078 23.333 14.4655 23.3447 14.5192 23.3675C14.5729 23.3903 14.6214 23.4237 14.6619 23.4658C14.7024 23.5078 14.7339 23.5575 14.7547 23.6121C14.7755 23.6666 14.785 23.7247 14.7828 23.783V25.733ZM14.7828 20.733C14.7828 20.8479 14.7371 20.9582 14.6558 21.0394C14.5746 21.1207 14.4644 21.1663 14.3494 21.1663H12.3828C12.2662 21.1664 12.1542 21.1213 12.0703 21.0405C11.9864 20.9597 11.9371 20.8494 11.9328 20.733V18.7663C11.9371 18.6499 11.9864 18.5397 12.0703 18.4589C12.1542 18.378 12.2662 18.3329 12.3828 18.333H14.3494C14.4644 18.333 14.5746 18.3787 14.6558 18.4599C14.7371 18.5412 14.7828 18.6514 14.7828 18.7663V20.733ZM27.7494 25.883H18.3328C18.0233 25.883 17.7266 25.7601 17.5078 25.5413C17.289 25.3225 17.1661 25.0258 17.1661 24.7163C17.1661 24.4069 17.289 24.1102 17.5078 23.8914C17.7266 23.6726 18.0233 23.5497 18.3328 23.5497H27.7494C28.0588 23.5497 28.3556 23.6726 28.5744 23.8914C28.7932 24.1102 28.9161 24.4069 28.9161 24.7163C28.9161 25.0258 28.7932 25.3225 28.5744 25.5413C28.3556 25.7601 28.0588 25.883 27.7494 25.883ZM27.7494 20.883H18.3328C18.0233 20.883 17.7266 20.7601 17.5078 20.5413C17.289 20.3225 17.1661 20.0258 17.1661 19.7163C17.1661 19.4069 17.289 19.1102 17.5078 18.8914C17.7266 18.6726 18.0233 18.5497 18.3328 18.5497H27.7494C27.9026 18.5497 28.0543 18.5799 28.1959 18.6385C28.3374 18.6971 28.4661 18.783 28.5744 18.8914C28.6827 18.9997 28.7687 19.1283 28.8273 19.2699C28.8859 19.4114 28.9161 19.5631 28.9161 19.7163C28.9161 19.8696 28.8859 20.0213 28.8273 20.1628C28.7687 20.3044 28.6827 20.433 28.5744 20.5413C28.4661 20.6496 28.3374 20.7356 28.1959 20.7942C28.0543 20.8528 27.9026 20.883 27.7494 20.883ZM31.6661 12.783H26.3161C26.2719 12.783 26.2295 12.7654 26.1982 12.7342C26.167 12.7029 26.1494 12.6605 26.1494 12.6163L25.9661 5.59967C25.9678 5.56374 25.9801 5.52911 26.0014 5.50011C26.0227 5.47111 26.0521 5.44902 26.0858 5.43658C26.1196 5.42414 26.1563 5.42191 26.1913 5.43017C26.2263 5.43842 26.2581 5.4568 26.2828 5.48301L31.6661 12.4997C31.6902 12.5146 31.7101 12.5355 31.7239 12.5603C31.7377 12.5851 31.745 12.613 31.745 12.6413C31.745 12.6697 31.7377 12.6976 31.7239 12.7224C31.7101 12.7472 31.6902 12.7681 31.6661 12.783Z" fill="#6B82AB"/>
</svg>
