<svg width="48" height="48" viewBox="0 0 48 48" fill="none" xmlns="http://www.w3.org/2000/svg">
<circle cx="24" cy="24" r="24" fill="#DBE2EA"/>
<mask id="mask0_5297_93244" style="mask-type:alpha" maskUnits="userSpaceOnUse" x="14" y="15" width="21" height="15">
<path d="M23.8644 19.723L32.6355 16.3664C32.7521 16.3218 32.8805 16.3947 32.9019 16.5177L33.8557 21.9926C33.8643 22.0422 33.8538 22.0931 33.8263 22.1352L30.862 26.6729C30.8497 26.6917 30.8344 26.7083 30.8165 26.7219L27.8919 28.9604C27.845 28.9963 27.7845 29.0094 27.7269 28.9962L22.775 27.8592L19.7493 26.7013L15.8758 25.5895C15.7829 25.5629 15.7227 25.4733 15.7332 25.3773L16.693 16.562C16.7079 16.425 16.8543 16.3446 16.9779 16.4054L23.7059 19.7157C23.7554 19.7401 23.8129 19.7427 23.8644 19.723Z" fill="#C4C4C4" stroke="black" stroke-width="1.98471"/>
</mask>
<g mask="url(#mask0_5297_93244)">
<path d="M24.2793 25.6327C21.7143 25.6327 19.6349 23.1775 19.6349 20.1489C19.6349 17.1202 21.7143 14.665 24.2793 14.665C25.6991 14.665 26.9701 15.4172 27.8221 16.6025C28.5093 17.5587 28.9238 18.7966 28.9238 20.1489C28.9238 23.1775 26.8444 25.6327 24.2793 25.6327Z" fill="#6B82AB" stroke="#6B82AB" stroke-width="1.98471"/>
</g>
<path d="M24.3461 9.35875L35.4019 13.4301C35.5728 13.4931 35.5758 13.7336 35.4066 13.8008L24.3507 18.1914C24.3037 18.21 24.2513 18.21 24.2042 18.1914L13.1484 13.8008C12.9791 13.7336 12.9822 13.4931 13.153 13.4301L24.2089 9.35875C24.2532 9.34245 24.3018 9.34245 24.3461 9.35875Z" fill="#6B82AB" stroke="#6B82AB" stroke-width="1.98471"/>
<path d="M14.2305 35.0048C14.2305 31.0588 17.4294 27.8599 21.3754 27.8599H27.1974C31.1434 27.8599 34.3423 31.0588 34.3423 35.0048V36.8807C34.3423 37.8672 33.5426 38.667 32.5561 38.667H16.0167C15.0302 38.667 14.2305 37.8672 14.2305 36.8807V35.0048Z" fill="#6B82AB"/>
</svg>
