<svg width="20" height="20" viewBox="0 0 20 20" fill="none" xmlns="http://www.w3.org/2000/svg">
<rect width="20" height="20" rx="10" fill="#1DA1F2"/>
<path d="M14.345 6.76593C14.2808 6.70194 14.1938 6.66602 14.1031 6.66602C14.0124 6.66602 13.9254 6.70194 13.8612 6.76593L8.3085 12.3173L6.12469 10.1335C6.05926 10.076 5.97438 10.0455 5.88729 10.0483C5.80021 10.0511 5.71745 10.0869 5.65583 10.1485C5.59422 10.2101 5.55838 10.2929 5.5556 10.38C5.55281 10.4671 5.58329 10.5519 5.64083 10.6174L8.06657 13.0431C8.13083 13.1071 8.21782 13.143 8.3085 13.143C8.39918 13.143 8.48617 13.1071 8.55043 13.0431L14.345 7.24849C14.4086 7.1843 14.4443 7.09758 14.4443 7.00721C14.4443 6.91685 14.4086 6.83013 14.345 6.76593V6.76593Z" fill="white" stroke="white" stroke-width="0.6"/>
</svg>
