<svg width="48" height="48" viewBox="0 0 48 48" fill="none" xmlns="http://www.w3.org/2000/svg">
<path d="M37.8555 2H10.1442C8.56703 2.00661 7.0567 2.6443 5.94379 3.77349C4.83087 4.90267 4.20604 6.43137 4.20605 8.02497V33.9999C4.21257 35.5891 4.84028 37.1114 5.95249 38.2352C7.0647 39.359 8.57131 39.9933 10.1442 39.9998H37.8555C39.4284 39.9933 40.935 39.359 42.0472 38.2352C43.1595 37.1114 43.7872 35.5891 43.7937 33.9999V8.02497C43.7937 6.43137 43.1689 4.90267 42.056 3.77349C40.943 2.6443 39.4327 2.00661 37.8555 2V2ZM14.9442 32.1249H11.6287C11.1694 32.1249 10.7289 31.9405 10.4041 31.6123C10.0793 31.2841 9.89678 30.839 9.89678 30.3749C9.89678 29.9108 10.0793 29.4656 10.4041 29.1374C10.7289 28.8093 11.1694 28.6249 11.6287 28.6249H14.9442C15.4035 28.6249 15.8441 28.8093 16.1689 29.1374C16.4937 29.4656 16.6762 29.9108 16.6762 30.3749C16.6762 30.839 16.4937 31.2841 16.1689 31.6123C15.8441 31.9405 15.4035 32.1249 14.9442 32.1249ZM37.2122 32.1249H33.8968C33.4374 32.1249 32.9969 31.9405 32.6721 31.6123C32.3473 31.2841 32.1648 30.839 32.1648 30.3749C32.1648 29.9108 32.3473 29.4656 32.6721 29.1374C32.9969 28.8093 33.4374 28.6249 33.8968 28.6249H37.2122C37.6716 28.6249 38.1121 28.8093 38.4369 29.1374C38.7617 29.4656 38.9442 29.9108 38.9442 30.3749C38.9442 30.839 38.7617 31.2841 38.4369 31.6123C38.1121 31.9405 37.6716 32.1249 37.2122 32.1249ZM41.5421 24.6249C41.5421 25.0227 41.3857 25.4043 41.1073 25.6856C40.8289 25.9669 40.4513 26.1249 40.0576 26.1249H8.26379C7.87006 26.1249 7.49247 25.9669 7.21406 25.6856C6.93566 25.4043 6.77925 25.0227 6.77925 24.6249V6.09998C6.77925 5.70216 6.93566 5.32063 7.21406 5.03933C7.49247 4.75802 7.87006 4.59999 8.26379 4.59999H40.0576C40.4513 4.59999 40.8289 4.75802 41.1073 5.03933C41.3857 5.32063 41.5421 5.70216 41.5421 6.09998V24.6249Z" fill="#1F3965"/>
<path d="M37.1875 36.9998H35.5792C35.1372 36.9998 34.713 37.1755 34.3982 37.4889C34.0834 37.8023 33.9032 38.2283 33.8967 38.6748V44.3498C33.9032 44.7897 34.0807 45.2093 34.3909 45.5181C34.7011 45.8268 35.1191 45.9999 35.5545 45.9998H37.1627C37.3825 46.0031 37.6007 45.9622 37.8047 45.8796C38.0087 45.7969 38.1944 45.674 38.3509 45.5181C38.5075 45.3623 38.6318 45.1765 38.7167 44.9716C38.8015 44.7668 38.8452 44.5469 38.8452 44.3248V38.6498C38.8387 38.21 38.6612 37.7903 38.351 37.4816C38.0408 37.1728 37.6229 36.9998 37.1875 36.9998V36.9998Z" fill="#1F3965"/>
<path d="M12.4453 36.9998H10.837C10.395 36.9998 9.97081 37.1755 9.65599 37.4889C9.34117 37.8023 9.16104 38.2283 9.15454 38.6748V44.3498C9.16104 44.7897 9.33856 45.2093 9.64874 45.5181C9.95893 45.8268 10.3769 45.9999 10.8123 45.9998H12.4205C12.6403 46.0031 12.8585 45.9622 13.0625 45.8796C13.2665 45.7969 13.4522 45.674 13.6087 45.5181C13.7653 45.3623 13.8896 45.1765 13.9745 44.9716C14.0593 44.7668 14.103 44.5469 14.103 44.3248V38.6498C14.0965 38.21 13.919 37.7903 13.6088 37.4816C13.2986 37.1728 12.8807 36.9998 12.4453 36.9998Z" fill="#1F3965"/>
<path fill-rule="evenodd" clip-rule="evenodd" d="M1.73196 10.5C2.68849 10.5 3.46392 11.2835 3.46392 12.25V16.775C3.46392 17.7415 2.68849 18.525 1.73196 18.525C0.775424 18.525 0 17.7415 0 16.775V12.25C0 11.2835 0.775424 10.5 1.73196 10.5Z" fill="#1F3965"/>
<path fill-rule="evenodd" clip-rule="evenodd" d="M46.2681 10.5C47.2246 10.5 48.0001 11.2835 48.0001 12.25V16.775C48.0001 17.7415 47.2246 18.525 46.2681 18.525C45.3116 18.525 44.5361 17.7415 44.5361 16.775V12.25C44.5361 11.2835 45.3116 10.5 46.2681 10.5Z" fill="#1F3965"/>
<path d="M23.1335 6.09999H10.1191C9.87658 6.09668 9.63583 6.14209 9.41083 6.23357C9.18583 6.32506 8.98106 6.4608 8.80841 6.63292C8.63577 6.80504 8.49868 7.0101 8.40513 7.2362C8.31157 7.4623 8.26341 7.70492 8.26343 7.94998V22.7249C8.26343 23.2222 8.45894 23.6991 8.80694 24.0507C9.15495 24.4024 9.62694 24.5999 10.1191 24.5999H23.1335V6.09999Z" fill="#1F3965"/>
<path d="M38.2023 6.09999H24.8662V24.5999H38.2023C38.6944 24.5999 39.1664 24.4024 39.5145 24.0507C39.8625 23.6991 40.058 23.2222 40.058 22.7249V7.94998C40.058 7.70492 40.0098 7.4623 39.9163 7.2362C39.8227 7.0101 39.6856 6.80504 39.513 6.63292C39.3403 6.4608 39.1356 6.32506 38.9106 6.23357C38.6856 6.14209 38.4448 6.09668 38.2023 6.09999V6.09999Z" fill="#1F3965"/>
</svg>
