<svg width="82" height="82" viewBox="0 0 82 82" fill="none" xmlns="http://www.w3.org/2000/svg">
<path d="M17 24.8008H22.3999H65.5988" stroke="#FF5E5E" stroke-width="4" stroke-linecap="round" stroke-linejoin="round"/>
<path d="M30.5 24.7997V19.3999C30.5 17.9677 31.0689 16.5943 32.0815 15.5816C33.0942 14.5689 34.4677 14 35.8998 14H46.6996C48.1317 14 49.5052 14.5689 50.5178 15.5816C51.5305 16.5943 52.0994 17.9677 52.0994 19.3999V24.7997M60.1992 24.7997V62.5988C60.1992 64.031 59.6303 65.4044 58.6177 66.4171C57.605 67.4298 56.2315 67.9987 54.7994 67.9987H27.8C26.3679 67.9987 24.9944 67.4298 23.9817 66.4171C22.9691 65.4044 22.4001 64.031 22.4001 62.5988V24.7997H60.1992Z" stroke="#FF5E5E" stroke-width="4" stroke-linecap="round" stroke-linejoin="round"/>
<path d="M46.6987 38.3008V54.5004" stroke="#FF5E5E" stroke-width="4" stroke-linecap="round" stroke-linejoin="round"/>
<path d="M35.8999 38.3008V54.5004" stroke="#FF5E5E" stroke-width="4" stroke-linecap="round" stroke-linejoin="round"/>
</svg>
