<svg width="26" height="26" viewBox="0 0 26 26" fill="none" xmlns="http://www.w3.org/2000/svg">
<rect x="1" y="1" width="24" height="24" rx="2" fill="white"/>
<path d="M17.5419 10.1875C17.8246 10.2206 18.0489 10.4596 18.0602 10.7479V18.6215C18.0545 19.4955 17.3043 20.2893 16.3952 20.3069C14.1381 20.3209 11.8811 20.3069 9.62409 20.3069C8.74238 20.3012 7.94503 19.5482 7.9394 18.6215V10.7479C7.94502 10.6038 7.9633 10.5644 8.00057 10.4927C8.15807 10.1833 8.63691 10.0891 8.89917 10.3506C9.00323 10.4547 9.05807 10.5995 9.0637 10.7486C9.0637 13.3748 9.04682 16.001 9.0637 18.6277C9.06932 18.9181 9.32455 19.1776 9.61846 19.1832C11.8726 19.1973 14.1262 19.1973 16.3803 19.1832C16.6735 19.1776 16.933 18.9259 16.9358 18.6193V10.7492C16.9463 10.4785 17.1453 10.2359 17.4097 10.1937C17.4934 10.1803 17.5145 10.1874 17.5419 10.1888L17.5419 10.1875ZM14.1444 11.3111C14.2471 11.3203 14.2745 11.3308 14.3287 11.3533C14.5129 11.4299 14.6493 11.6099 14.6718 11.8096C14.6753 11.8378 14.6746 11.8448 14.676 11.8729V16.3715C14.6633 16.8004 14.0924 17.1069 13.7387 16.7905C13.6361 16.6991 13.57 16.5697 13.5545 16.4347C13.551 16.4066 13.5517 16.3996 13.5503 16.3715V11.8729C13.5538 11.7703 13.563 11.7421 13.5826 11.6873C13.6516 11.489 13.8393 11.3378 14.0502 11.3146C14.1107 11.3076 14.1248 11.3111 14.1445 11.3118L14.1444 11.3111ZM11.9184 11.3111C12.0203 11.3203 12.0485 11.3308 12.1019 11.3533C12.2861 11.4299 12.4232 11.6099 12.4457 11.8096C12.4485 11.8378 12.4485 11.8448 12.4492 11.8729V16.3715C12.4373 16.7962 11.8621 17.1034 11.512 16.7905C11.41 16.6991 11.3432 16.5697 11.3278 16.4347C11.325 16.4066 11.325 16.3996 11.3243 16.3715V11.8729C11.3271 11.7703 11.3369 11.7421 11.3559 11.6873C11.4248 11.489 11.6125 11.3378 11.8242 11.3146C11.8847 11.3076 11.8987 11.3111 11.9184 11.3118L11.9184 11.3111ZM10.1887 7.93683V6.25074C10.1915 6.14808 10.2014 6.11996 10.2203 6.0644C10.2892 5.86611 10.477 5.71565 10.6886 5.69175C10.716 5.68894 10.7238 5.68894 10.7512 5.68823H15.2498C15.2603 5.68894 15.2709 5.68894 15.2814 5.68964C15.3841 5.69808 15.4122 5.70933 15.4656 5.73112C15.6498 5.80776 15.7862 5.98777 15.8087 6.18816C15.8122 6.21558 15.8115 6.22332 15.813 6.25144V7.93754H18.624L18.6732 7.93965C18.8321 7.96074 18.8729 7.98746 18.9467 8.03949C19.2111 8.22441 19.2617 8.65754 19.0213 8.898C18.9404 8.97886 18.8342 9.03441 18.7217 9.0541C18.6788 9.06183 18.6676 9.06113 18.624 9.06253H7.37886C7.21925 9.0555 7.17566 9.0323 7.09761 8.988C6.80371 8.81785 6.72846 8.3566 6.98089 8.10346C7.06245 8.02261 7.16793 7.96706 7.28043 7.94737C7.32402 7.94034 7.33527 7.94104 7.37816 7.93893H10.1892L10.1887 7.93683ZM14.6865 7.93683V6.81254H11.313V7.93683H14.6865Z" fill="#FF5E5E"/>
<rect x="1" y="1" width="24" height="24" rx="2" stroke="#DBE2EA"/>
</svg>
