<svg width="17" height="17" viewBox="0 0 17 17" fill="none" xmlns="http://www.w3.org/2000/svg">
<path d="M13.4311 4.57787L10.7704 5.8175C10.6995 5.85073 10.6366 5.89852 10.5883 5.95572C10.5401 6.01293 10.5085 6.07741 10.4967 6.14223C10.485 6.20705 10.4936 6.26978 10.5217 6.32367C10.5498 6.37757 10.5962 6.4206 10.6561 6.44815L11.4307 6.80167L9.15966 9.79404L6.94681 8.79033C6.81547 8.73071 6.65069 8.72453 6.48854 8.77315C6.32639 8.82177 6.1801 8.92123 6.0817 9.04974L3.06227 12.9928C2.96435 13.1215 2.92247 13.2686 2.9458 13.4019C2.96914 13.5352 3.05578 13.6437 3.18676 13.7038C3.31638 13.7622 3.47872 13.7682 3.63845 13.7203C3.79818 13.6724 3.94236 13.5745 4.03961 13.4481L6.68115 9.9868L8.91604 10.9874C9.04737 11.0471 9.21216 11.0532 9.37431 11.0046C9.53645 10.956 9.68275 10.8565 9.78114 10.728L12.4227 7.26673L13.1973 7.62024C13.2574 7.64746 13.3286 7.65812 13.4032 7.65108C13.4778 7.64403 13.553 7.61956 13.6207 7.58028C13.6884 7.54099 13.746 7.48838 13.7875 7.4281C13.829 7.36781 13.8526 7.30211 13.856 7.23806L13.9732 4.83765C13.9779 4.77947 13.9659 4.72418 13.9382 4.67665C13.9105 4.62912 13.868 4.59082 13.8144 4.56514C13.7608 4.53946 13.6978 4.52719 13.6309 4.52941C13.5641 4.53163 13.4954 4.54827 13.4311 4.57787V4.57787Z" fill="#36B37E"/>
</svg>
