<svg width="20" height="24" viewBox="0 0 20 24" fill="none" xmlns="http://www.w3.org/2000/svg">
<path d="M12.9997 12.75C12.8076 12.75 12.6154 12.6769 12.4691 12.5306L9.99977 10.0603L7.53041 12.5297C7.23696 12.8231 6.76353 12.8231 6.47009 12.5297C6.17664 12.2362 6.17664 11.7628 6.47009 11.4694L9.47009 8.46935C9.76353 8.17591 10.237 8.17591 10.5304 8.46935L13.5304 11.4694C13.8239 11.7628 13.8239 12.2362 13.5304 12.5297C13.3842 12.6769 13.192 12.75 12.9998 12.75L12.9997 12.75Z" fill="#1F3965"/>
<path d="M10 17.25C9.58562 17.25 9.25 16.9144 9.25 16.5V9C9.25 8.58562 9.58562 8.25 10 8.25C10.4144 8.25 10.75 8.58562 10.75 9V16.5C10.75 16.9144 10.4144 17.25 10 17.25Z" fill="#1F3965"/>
<path d="M14.5 20.25H5.5C5.08562 20.25 4.75 19.9144 4.75 19.5C4.75 19.0856 5.08562 18.75 5.5 18.75H14.5C14.9144 18.75 15.25 19.0856 15.25 19.5C15.25 19.9144 14.9144 20.25 14.5 20.25Z" fill="#1F3965"/>
<path d="M17.8263 24H2.17562C1.11436 24 0.25 23.1582 0.25 22.1232V6.71539C0.25 6.06384 0.514384 5.42539 0.975616 4.96414L5.21402 0.725738C5.68182 0.256994 6.30434 0.00012207 6.96527 0.00012207H17.8253C18.8865 0.00012207 19.75 0.841994 19.75 1.87606V22.1241C19.75 23.1582 18.8874 24.0001 17.8262 24.0001L17.8263 24ZM6.9653 1.50003C6.70468 1.50003 6.45904 1.60128 6.27436 1.78596L2.03596 6.02436C1.85409 6.20624 1.75002 6.45843 1.75002 6.7153V22.1221C1.75002 22.3302 1.94128 22.4999 2.17564 22.4999H17.8253C18.0597 22.4999 18.25 22.3312 18.25 22.124V1.87589C18.25 1.6687 18.0597 1.49995 17.8253 1.49995L6.9653 1.50003Z" fill="#1F3965"/>
<path d="M5.87512 7.5H3.25C2.83562 7.5 2.5 7.16438 2.5 6.75C2.5 6.33561 2.83562 6 3.25 6H5.87512C6.08231 6 6.25012 5.83219 6.25012 5.625V2.99988C6.25012 2.58549 6.58574 2.24988 7.00012 2.24988C7.4145 2.24988 7.75012 2.58549 7.75012 2.99988V5.625C7.75012 6.65813 6.90825 7.5 5.87512 7.5Z" fill="#1F3965"/>
</svg>
