<svg width="14" height="14" viewBox="0 0 14 14" fill="none" xmlns="http://www.w3.org/2000/svg">
<path d="M7.00012 6.90283C7.81241 6.90283 8.59116 6.58004 9.16573 6.00594C9.73984 5.43135 10.0626 4.65259 10.0626 3.84033C10.0626 3.02807 9.73982 2.24928 9.16573 1.67472C8.59114 1.10061 7.81238 0.777832 7.00012 0.777832C6.18786 0.777832 5.40907 1.10062 4.83451 1.67472C4.2604 2.24931 3.93762 3.02807 3.93762 3.84033C3.93859 4.65214 4.26187 5.43038 4.83597 6.00457C5.41008 6.57877 6.18833 6.90194 7.00022 6.90293L7.00012 6.90283ZM7.00012 1.68965C7.57033 1.69014 8.11722 1.91618 8.52023 2.31966C8.92322 2.72265 9.14975 3.26953 9.14975 3.83977C9.15024 4.40998 8.92371 4.95639 8.52071 5.35988C8.11723 5.76287 7.57084 5.9894 7.0006 5.9894C6.43039 5.98989 5.8835 5.76336 5.48 5.36036C5.077 4.95737 4.85047 4.41049 4.85047 3.84025C4.85096 3.27053 5.07797 2.72412 5.48097 2.32114C5.88396 1.91814 6.43035 1.69162 7.00008 1.69113L7.00012 1.68965Z" fill="#6B82AB"/>
<path d="M2.14468 13.2223C2.14468 10.5447 4.32249 8.36692 7.00007 8.36692C9.67766 8.36692 11.8555 10.5447 11.8555 13.2223H12.7689C12.7689 11.6925 12.1612 10.2249 11.0791 9.14334C9.99753 8.06173 8.52999 7.45361 7.00017 7.45361C5.47036 7.45361 4.00276 8.06174 2.9212 9.14334C1.83569 10.223 1.22711 11.6916 1.23147 13.2223H2.14468Z" fill="#6B82AB"/>
</svg>
