<svg width="32" height="32" viewBox="0 0 32 32" fill="none" xmlns="http://www.w3.org/2000/svg">
<path d="M16.1857 4.61768C14.0877 4.61587 12.0301 5.19424 10.2403 6.28886C8.45057 7.38348 6.99837 8.9517 6.04427 10.8202C5.09017 12.6886 4.67134 14.7845 4.83409 16.8762C4.99684 18.9678 5.73482 20.9737 6.96645 22.6721L5.54885 26.9009L9.92005 25.5009C11.4013 26.4772 13.0902 27.0937 14.852 27.3012C16.6138 27.5087 18.3997 27.3014 20.0672 26.696C21.7347 26.0906 23.2376 25.1037 24.4559 23.8142C25.6742 22.5247 26.5741 20.9682 27.0839 19.269C27.5937 17.5699 27.6993 15.775 27.3921 14.0278C27.0849 12.2806 26.3735 10.6294 25.3148 9.20605C24.256 7.78265 22.8791 6.62648 21.2941 5.82981C19.709 5.03315 17.9597 4.61806 16.1857 4.61768Z" fill="#4CAF50"/>
<path d="M22.8079 20.6915C22.5765 21.1076 22.2555 21.467 21.8681 21.7437C21.4807 22.0204 21.0366 22.2075 20.5679 22.2915C19.9727 22.4179 19.1967 22.5187 16.5807 21.4355C14.2757 20.3076 12.3178 18.5785 10.9135 16.4307C10.1407 15.4408 9.67107 14.2482 9.56154 12.9971C9.54676 12.4792 9.64291 11.9642 9.84353 11.4865C10.0442 11.0088 10.3446 10.5795 10.7247 10.2275C11.0454 9.94673 11.4621 9.80058 11.8879 9.8195C12.0287 9.8195 12.1551 9.81951 12.2687 9.83231C12.6031 9.84671 12.7711 9.86591 12.9919 10.3939C13.2671 11.0563 13.9359 12.6883 14.0143 12.8563C14.0707 12.9478 14.1044 13.0514 14.1127 13.1585C14.1211 13.2656 14.1038 13.3732 14.0623 13.4723C13.9689 13.665 13.8446 13.8412 13.6943 13.9939C13.5343 14.1875 13.3743 14.3347 13.1999 14.5427C13.0399 14.7235 12.8799 14.9171 13.0655 15.2515C13.5656 16.1024 14.1877 16.8754 14.9119 17.5459C15.6898 18.258 16.5953 18.8166 17.5807 19.1923C17.7114 19.2539 17.8575 19.2748 18.0002 19.2523C18.1429 19.2297 18.2755 19.1648 18.3807 19.0659C18.6981 18.6895 18.9951 18.2965 19.2703 17.8883C19.3521 17.7539 19.4805 17.6543 19.631 17.6086C19.7815 17.5628 19.9436 17.5741 20.0863 17.6403C20.3935 17.7475 22.0191 18.5507 22.3535 18.7171C22.6879 18.8835 22.9087 18.9651 22.9935 19.1059C23.0848 19.6413 23.0204 20.1917 22.8079 20.6915Z" fill="#FAFAFA"/>
</svg>
