<svg width="103" height="100" viewBox="0 0 103 100" fill="none" xmlns="http://www.w3.org/2000/svg">
<path d="M51.7519 94.1279C74.8108 94.1279 93.5037 75.4552 93.5037 52.4212C93.5037 29.3872 74.8108 10.7145 51.7519 10.7145C28.6929 10.7145 10 29.3872 10 52.4212C10 75.4552 28.6929 94.1279 51.7519 94.1279Z" fill="#FFDDC5"/>
<path d="M72 34.7734H71.5592V22.8822C71.5592 21.057 70.8229 19.3064 69.5123 18.0158C68.2017 16.7251 66.4242 16 64.5707 16H38.9886C37.1351 16 35.3575 16.7251 34.0469 18.0158C32.7363 19.3064 32 21.057 32 22.8822V88.1178C32 89.9431 32.7363 91.6936 34.0469 92.9842C35.3575 94.2749 37.1351 95 38.9886 95H64.5707C66.4242 95 68.2017 94.2749 69.5123 92.9842C70.8229 91.6936 71.5592 89.9431 71.5592 88.1178V43.2377H72V34.7734Z" fill="#3F3D56"/>
<path d="M70.071 22.9304V88.0699C70.071 89.433 69.5211 90.7403 68.5423 91.7042C67.5636 92.6681 66.2361 93.2096 64.8519 93.2096H39.1471C37.7629 93.2096 36.4355 92.668 35.4567 91.7042C34.478 90.7403 33.9281 89.4331 33.928 88.07V22.9304C33.9281 21.5673 34.478 20.26 35.4567 19.2961C36.4355 18.3322 37.763 17.7907 39.1472 17.7906H42.2656C42.1123 18.1614 42.054 18.5636 42.0956 18.9619C42.1372 19.3601 42.2776 19.7421 42.5044 20.0744C42.7312 20.4067 43.0374 20.6789 43.3961 20.8673C43.7548 21.0557 44.155 21.1543 44.5615 21.1546H59.2172C59.6238 21.1544 60.024 21.0557 60.3827 20.8674C60.7414 20.679 61.0477 20.4067 61.2745 20.0745C61.5012 19.7422 61.6416 19.3601 61.6833 18.9619C61.7249 18.5637 61.6666 18.1615 61.5133 17.7906H64.8519C66.2361 17.7907 67.5636 18.3322 68.5423 19.2961C69.5211 20.26 70.071 21.5673 70.071 22.9304V22.9304Z" fill="white"/>
<path opacity="0.2" d="M52.0277 88.204C56.2281 88.204 59.6333 84.8506 59.6333 80.7141C59.6333 76.5776 56.2281 73.2242 52.0277 73.2242C47.8273 73.2242 44.4221 76.5776 44.4221 80.7141C44.4221 84.8506 47.8273 88.204 52.0277 88.204Z" fill="#1DA1F2"/>
<path d="M52.0278 86.745C55.41 86.745 58.1518 84.0449 58.1518 80.7141C58.1518 77.3834 55.41 74.6832 52.0278 74.6832C48.6456 74.6832 45.9037 77.3834 45.9037 80.7141C45.9037 84.0449 48.6456 86.745 52.0278 86.745Z" fill="#1DA1F2"/>
<path d="M54.4345 77.6086C53.6268 77.6086 52.9664 78.2334 52.9664 78.9971C52.9664 79.1208 52.9854 79.24 53.0178 79.3542L51.1385 80.2129C50.8689 79.8952 50.4555 79.6904 49.9935 79.6904C49.1857 79.6904 48.5253 80.3147 48.5253 81.0784C48.5253 81.8421 49.1857 82.4669 49.9935 82.4669C50.4434 82.4669 50.8476 82.2729 51.1174 81.9692L53.0178 82.8376C52.9854 82.9519 52.9664 83.0711 52.9664 83.1947C52.9664 83.9584 53.6268 84.5832 54.4345 84.5832C55.2423 84.5832 55.9027 83.9584 55.9027 83.1947C55.9027 82.431 55.2423 81.8067 54.4345 81.8067C53.9449 81.8067 53.5103 82.0368 53.2432 82.3876L51.3778 81.5347C51.431 81.3914 51.4617 81.2384 51.4617 81.0784C51.4617 80.9296 51.436 80.7864 51.3896 80.6517L53.2432 79.8042C53.5103 80.1551 53.9449 80.3851 54.4345 80.3851C55.2423 80.3851 55.9027 79.7608 55.9027 78.9971C55.9027 78.2334 55.2423 77.6086 54.4345 77.6086ZM54.4345 78.1068C54.9575 78.1068 55.3758 78.5026 55.3758 78.9971C55.3758 79.4917 54.9575 79.887 54.4345 79.887C53.9116 79.887 53.4933 79.4917 53.4933 78.9971C53.4933 78.5026 53.9116 78.1068 54.4345 78.1068ZM49.9935 80.1886C50.5164 80.1886 50.9347 80.5839 50.9347 81.0784C50.9347 81.5729 50.5164 81.9687 49.9935 81.9687C49.4706 81.9687 49.0523 81.5729 49.0523 81.0784C49.0523 80.5839 49.4706 80.1886 49.9935 80.1886ZM54.4345 82.3049C54.9575 82.3049 55.3758 82.7002 55.3758 83.1947C55.3758 83.6892 54.9575 84.085 54.4345 84.085C53.9116 84.085 53.4933 83.6892 53.4933 83.1947C53.4933 82.7002 53.9116 82.3049 54.4345 82.3049Z" fill="white"/>
<path d="M74.4597 39.2556H61.3595V54.6775H74.4597V39.2556Z" fill="#A7BDE8"/>
<path d="M29.6142 54.6775H42.7144V39.2556H29.6142V54.6775Z" fill="#A7BDE8"/>
<path d="M33.4357 42.3621H31.8452V45.1363H33.4357V42.3621Z" fill="#E1ECFB"/>
<path d="M36.9598 42.3621H35.3693V45.1363H36.9598V42.3621Z" fill="#E1ECFB"/>
<path d="M40.4838 42.3621H38.8933V45.1363H40.4838V42.3621Z" fill="#E1ECFB"/>
<path d="M33.4357 48.0129H31.8452V50.7872H33.4357V48.0129Z" fill="#E1ECFB"/>
<path d="M36.9598 48.0129H35.3693V50.7872H36.9598V48.0129Z" fill="#E1ECFB"/>
<path d="M40.4838 48.0129H38.8933V50.7872H40.4838V48.0129Z" fill="#E1ECFB"/>
<path d="M65.1809 42.3621H63.5903V45.1363H65.1809V42.3621Z" fill="#E1ECFB"/>
<path d="M68.7049 42.3621H67.1144V45.1363H68.7049V42.3621Z" fill="#E1ECFB"/>
<path d="M72.2287 42.3621H70.6382V45.1363H72.2287V42.3621Z" fill="#E1ECFB"/>
<path d="M65.1809 48.0129H63.5903V50.7872H65.1809V48.0129Z" fill="#E1ECFB"/>
<path d="M68.7049 48.0129H67.1144V50.7872H68.7049V48.0129Z" fill="#E1ECFB"/>
<path d="M72.2287 48.0129H70.6382V50.7872H72.2287V48.0129Z" fill="#E1ECFB"/>
<path d="M52.1357 25.5082H51.9358V29.0242H52.1357V25.5082Z" fill="#A7BDE8"/>
<path d="M29.6144 37.1436H42.7144V40.0055H28L29.6144 37.1436Z" fill="#FF4F67"/>
<path d="M74.4595 37.1436H61.3595V40.0055H76.0739L74.4595 37.1436Z" fill="#FF4F67"/>
<path d="M61.3573 54.6775H42.7144V34.2729L52.0357 29.3855L61.3573 34.2729V54.6775Z" fill="#E1ECFB"/>
<path d="M54.9668 48.4287H49.1049V54.6774H54.9668V48.4287Z" fill="white"/>
<path d="M52.1357 48.4287H51.9358V54.6774H52.1357V48.4287Z" fill="#A7BDE8"/>
<path d="M51.5526 52.1697H50.6071V52.3696H51.5526V52.1697Z" fill="#A7BDE8"/>
<path d="M53.4647 52.1697H52.5191V52.3696H53.4647V52.1697Z" fill="#A7BDE8"/>
<path d="M47.2072 48.4287H45.6897V54.6774H47.2072V48.4287Z" fill="#A7BDE8"/>
<path d="M58.295 48.4667H56.7774V54.7154H58.295V48.4667Z" fill="#A7BDE8"/>
<path d="M61.3573 47.5707H42.7144L42.2027 48.9369H61.869L61.3573 47.5707Z" fill="#3D4CB9"/>
<path d="M62.9943 35.7095L52.0358 29.5964L41.0775 35.7095L40.5903 34.8362L52.0358 28.4518L63.4814 34.8362L62.9943 35.7095Z" fill="#FF4F67"/>
<path d="M52.8691 32.7056C52.9979 32.2447 52.7286 31.7666 52.2677 31.6378C51.8068 31.509 51.3287 31.7783 51.1999 32.2392C51.0711 32.7002 51.3404 33.1783 51.8013 33.307C52.2623 33.4358 52.7403 33.1666 52.8691 32.7056Z" fill="#A7BDE8"/>
<path d="M54.957 26.8246H51.8925V25H54.957L54.3489 25.9123L54.957 26.8246Z" fill="#FF4F67"/>
<path d="M74.4595 54.6775H29.6144V56.48H74.4595V54.6775Z" fill="#A7BDE8"/>
<path d="M61.3593 54.6775H42.7144V56.48H61.3593V54.6775Z" fill="#E8EDFB"/>
<path d="M61.3593 55.5786H42.7144V56.4798H61.3593V55.5786Z" fill="white"/>
<path d="M52.8148 36.6901H51.2243V39.4643H52.8148V36.6901Z" fill="white"/>
<path d="M55.9707 36.6901H54.3801V39.4643H55.9707V36.6901Z" fill="white"/>
<path d="M59.1267 36.6901H57.5362V39.4643H59.1267V36.6901Z" fill="white"/>
<path d="M52.8148 42.3409H51.2243V45.1152H52.8148V42.3409Z" fill="white"/>
<path d="M46.5029 36.6901H44.9124V39.4643H46.5029V36.6901Z" fill="white"/>
<path d="M46.5029 42.3409H44.9124V45.1152H46.5029V42.3409Z" fill="white"/>
<path d="M49.659 36.6901H48.0685V39.4643H49.659V36.6901Z" fill="white"/>
<path d="M49.5463 42.3409H47.9557V45.1152H49.5463V42.3409Z" fill="white"/>
<path d="M55.9707 42.3409H54.3801V45.1152H55.9707V42.3409Z" fill="white"/>
<path d="M59.1267 42.3409H57.5362V45.1152H59.1267V42.3409Z" fill="white"/>
<path d="M37.508 67H36.732V61.268H37.508V67ZM41.329 63.912C41.1957 63.7333 41.0517 63.6093 40.897 63.54C40.7423 63.468 40.569 63.432 40.377 63.432C40.001 63.432 39.7117 63.5667 39.509 63.836C39.3063 64.1053 39.205 64.4893 39.205 64.988C39.205 65.252 39.2277 65.4787 39.273 65.668C39.3183 65.8547 39.385 66.0093 39.473 66.132C39.561 66.252 39.669 66.34 39.797 66.396C39.925 66.452 40.0703 66.48 40.233 66.48C40.4677 66.48 40.6717 66.4267 40.845 66.32C41.021 66.2133 41.1823 66.0627 41.329 65.868V63.912ZM42.041 61.108V67H41.617C41.5157 67 41.4517 66.9507 41.425 66.852L41.361 66.36C41.1877 66.568 40.9903 66.736 40.769 66.864C40.5477 66.992 40.2917 67.056 40.001 67.056C39.769 67.056 39.5583 67.012 39.369 66.924C39.1797 66.8333 39.0183 66.7013 38.885 66.528C38.7517 66.3547 38.649 66.1387 38.577 65.88C38.505 65.6213 38.469 65.324 38.469 64.988C38.469 64.6893 38.509 64.412 38.589 64.156C38.669 63.8973 38.7837 63.6733 38.933 63.484C39.0823 63.2947 39.265 63.1467 39.481 63.04C39.6997 62.9307 39.945 62.876 40.217 62.876C40.465 62.876 40.677 62.9187 40.853 63.004C41.0317 63.0867 41.1903 63.2027 41.329 63.352V61.108H42.041ZM43.1016 66.56C43.1016 66.4907 43.1136 66.4253 43.1376 66.364C43.1642 66.3027 43.1989 66.2493 43.2416 66.204C43.2869 66.1587 43.3402 66.1227 43.4016 66.096C43.4629 66.0693 43.5282 66.056 43.5976 66.056C43.6669 66.056 43.7322 66.0693 43.7936 66.096C43.8549 66.1227 43.9082 66.1587 43.9536 66.204C43.9989 66.2493 44.0349 66.3027 44.0616 66.364C44.0882 66.4253 44.1016 66.4907 44.1016 66.56C44.1016 66.632 44.0882 66.6987 44.0616 66.76C44.0349 66.8187 43.9989 66.8707 43.9536 66.916C43.9082 66.9613 43.8549 66.996 43.7936 67.02C43.7322 67.0467 43.6669 67.06 43.5976 67.06C43.5282 67.06 43.4629 67.0467 43.4016 67.02C43.3402 66.996 43.2869 66.9613 43.2416 66.916C43.1989 66.8707 43.1642 66.8187 43.1376 66.76C43.1136 66.6987 43.1016 66.632 43.1016 66.56ZM43.1016 63.56C43.1016 63.4907 43.1136 63.4253 43.1376 63.364C43.1642 63.3027 43.1989 63.2493 43.2416 63.204C43.2869 63.1587 43.3402 63.1227 43.4016 63.096C43.4629 63.0693 43.5282 63.056 43.5976 63.056C43.6669 63.056 43.7322 63.0693 43.7936 63.096C43.8549 63.1227 43.9082 63.1587 43.9536 63.204C43.9989 63.2493 44.0349 63.3027 44.0616 63.364C44.0882 63.4253 44.1016 63.4907 44.1016 63.56C44.1016 63.632 44.0882 63.6987 44.0616 63.76C44.0349 63.8187 43.9989 63.8707 43.9536 63.916C43.9082 63.9613 43.8549 63.9973 43.7936 64.024C43.7322 64.048 43.6669 64.06 43.5976 64.06C43.5282 64.06 43.4629 64.048 43.4016 64.024C43.3402 63.9973 43.2869 63.9613 43.2416 63.916C43.1989 63.8707 43.1642 63.8187 43.1376 63.76C43.1136 63.6987 43.1016 63.632 43.1016 63.56ZM51.7524 67H50.9844C50.9258 67 50.8791 66.9853 50.8444 66.956C50.8124 66.924 50.7858 66.8893 50.7644 66.852L49.2284 64.444C49.2071 64.508 49.1831 64.5627 49.1564 64.608L47.6604 66.852C47.6338 66.8893 47.6044 66.924 47.5724 66.956C47.5431 66.9853 47.5018 67 47.4484 67H46.7284L48.7004 64.056L46.8084 61.268H47.5804C47.6364 61.268 47.6778 61.2773 47.7044 61.296C47.7311 61.3147 47.7551 61.3413 47.7764 61.376L49.2724 63.672C49.2911 63.616 49.3191 63.5547 49.3564 63.488L50.7684 61.392C50.7898 61.3547 50.8151 61.3253 50.8444 61.304C50.8738 61.28 50.9084 61.268 50.9484 61.268H51.6884L49.7884 64.02L51.7524 67ZM56.9478 67H56.1798C56.1211 67 56.0744 66.9853 56.0398 66.956C56.0078 66.924 55.9811 66.8893 55.9598 66.852L54.4238 64.444C54.4024 64.508 54.3784 64.5627 54.3518 64.608L52.8558 66.852C52.8291 66.8893 52.7998 66.924 52.7678 66.956C52.7384 66.9853 52.6971 67 52.6438 67H51.9238L53.8958 64.056L52.0038 61.268H52.7758C52.8318 61.268 52.8731 61.2773 52.8997 61.296C52.9264 61.3147 52.9504 61.3413 52.9718 61.376L54.4678 63.672C54.4864 63.616 54.5144 63.5547 54.5518 63.488L55.9638 61.392C55.9851 61.3547 56.0104 61.3253 56.0398 61.304C56.0691 61.28 56.1038 61.268 56.1438 61.268H56.8838L54.9838 64.02L56.9478 67ZM62.1431 67H61.3751C61.3164 67 61.2697 66.9853 61.2351 66.956C61.2031 66.924 61.1764 66.8893 61.1551 66.852L59.6191 64.444C59.5977 64.508 59.5737 64.5627 59.5471 64.608L58.0511 66.852C58.0244 66.8893 57.9951 66.924 57.9631 66.956C57.9337 66.9853 57.8924 67 57.8391 67H57.1191L59.0911 64.056L57.1991 61.268H57.9711C58.0271 61.268 58.0684 61.2773 58.0951 61.296C58.1217 61.3147 58.1457 61.3413 58.1671 61.376L59.6631 63.672C59.6817 63.616 59.7097 63.5547 59.7471 63.488L61.1591 61.392C61.1804 61.3547 61.2057 61.3253 61.2351 61.304C61.2644 61.28 61.2991 61.268 61.3391 61.268H62.0791L60.1791 64.02L62.1431 67ZM67.3384 67H66.5704C66.5117 67 66.465 66.9853 66.4304 66.956C66.3984 66.924 66.3717 66.8893 66.3504 66.852L64.8144 64.444C64.793 64.508 64.769 64.5627 64.7424 64.608L63.2464 66.852C63.2197 66.8893 63.1904 66.924 63.1584 66.956C63.129 66.9853 63.0877 67 63.0344 67H62.3144L64.2864 64.056L62.3944 61.268H63.1664C63.2224 61.268 63.2637 61.2773 63.2904 61.296C63.317 61.3147 63.341 61.3413 63.3624 61.376L64.8584 63.672C64.877 63.616 64.905 63.5547 64.9424 63.488L66.3544 61.392C66.3757 61.3547 66.401 61.3253 66.4304 61.304C66.4597 61.28 66.4944 61.268 66.5344 61.268H67.2744L65.3744 64.02L67.3384 67Z" fill="#1F3965"/>
</svg>
