<svg width="103" height="100" viewBox="0 0 103 100" fill="none" xmlns="http://www.w3.org/2000/svg">
<path d="M51.3948 94.1279C74.4537 94.1279 93.1467 75.4552 93.1467 52.4212C93.1467 29.3872 74.4537 10.7145 51.3948 10.7145C28.3359 10.7145 9.64294 29.3872 9.64294 52.4212C9.64294 75.4552 28.3359 94.1279 51.3948 94.1279Z" fill="#D5F3C7"/>
<path d="M71 33.7734H70.5592V21.8822C70.5592 20.057 69.8229 18.3064 68.5123 17.0158C67.2017 15.7251 65.4242 15 63.5707 15H37.9886C36.1351 15 34.3575 15.7251 33.0469 17.0158C31.7363 18.3064 31 20.057 31 21.8822V87.1178C31 88.9431 31.7363 90.6936 33.0469 91.9842C34.3575 93.2749 36.1351 94 37.9886 94H63.5707C65.4242 94 67.2017 93.2749 68.5123 91.9842C69.8229 90.6936 70.5592 88.9431 70.5592 87.1178V42.2377H71V33.7734Z" fill="#3F3D56"/>
<path d="M69 22.1112V86.8888C69 88.2444 68.4523 89.5444 67.4774 90.5029C66.5025 91.4615 65.1802 92 63.8015 92H38.1984C36.8197 91.9999 35.4975 91.4614 34.5226 90.5029C33.5478 89.5444 33.0001 88.2444 33 86.8889V22.1112C33 20.7556 33.5477 19.4556 34.5226 18.4971C35.4975 17.5385 36.8198 17 38.1985 17H41.3045C41.1519 17.3687 41.0938 17.7687 41.1352 18.1647C41.1767 18.5607 41.3166 18.9407 41.5424 19.2711C41.7683 19.6015 42.0733 19.8723 42.4306 20.0596C42.7879 20.2469 43.1865 20.345 43.5914 20.3453H58.1892C58.5941 20.345 58.9927 20.2469 59.35 20.0596C59.7073 19.8723 60.0123 19.6015 60.2382 19.2711C60.4641 18.9407 60.6039 18.5608 60.6454 18.1647C60.6869 17.7687 60.6288 17.3687 60.4761 17H63.8015C65.1802 17 66.5025 17.5385 67.4774 18.4971C68.4523 19.4556 69 20.7556 69 22.1112V22.1112Z" fill="white"/>
<mask id="mask0" mask-type="alpha" maskUnits="userSpaceOnUse" x="9" y="10" width="85" height="85">
<path d="M51.3948 94.1278C74.4537 94.1278 93.1467 75.4551 93.1467 52.4211C93.1467 29.3871 74.4537 10.7144 51.3948 10.7144C28.3359 10.7144 9.64294 29.3871 9.64294 52.4211C9.64294 75.4551 28.3359 94.1278 51.3948 94.1278Z" fill="#D5F3C7"/>
</mask>
<g mask="url(#mask0)">
<rect x="35" y="39" width="31" height="11" rx="2" fill="#1DA1F2"/>
<path d="M41.799 44.38L41.205 42.802C41.157 42.68 41.108 42.525 41.058 42.337C41.036 42.431 41.012 42.518 40.986 42.598C40.96 42.676 40.936 42.745 40.914 42.805L40.32 44.38H41.799ZM43.128 46H42.585C42.523 46 42.473 45.985 42.435 45.955C42.397 45.923 42.368 45.884 42.348 45.838L41.988 44.884H40.128L39.768 45.838C39.752 45.878 39.724 45.915 39.684 45.949C39.644 45.983 39.594 46 39.534 46H38.991L40.704 41.68H41.415L43.128 46ZM44.1454 45.232C44.2354 45.348 44.3334 45.43 44.4394 45.478C44.5474 45.524 44.6664 45.547 44.7964 45.547C45.0484 45.547 45.2444 45.455 45.3844 45.271C45.5264 45.087 45.5974 44.813 45.5974 44.449C45.5974 44.261 45.5814 44.101 45.5494 43.969C45.5174 43.835 45.4714 43.726 45.4114 43.642C45.3514 43.558 45.2784 43.497 45.1924 43.459C45.1064 43.421 45.0094 43.402 44.9014 43.402C44.7374 43.402 44.5954 43.438 44.4754 43.51C44.3574 43.58 44.2474 43.681 44.1454 43.813V45.232ZM44.1124 43.384C44.2404 43.234 44.3854 43.113 44.5474 43.021C44.7114 42.929 44.9014 42.883 45.1174 42.883C45.2894 42.883 45.4454 42.918 45.5854 42.988C45.7254 43.056 45.8454 43.156 45.9454 43.288C46.0454 43.42 46.1224 43.584 46.1764 43.78C46.2324 43.974 46.2604 44.197 46.2604 44.449C46.2604 44.675 46.2294 44.886 46.1674 45.082C46.1074 45.276 46.0204 45.445 45.9064 45.589C45.7924 45.731 45.6544 45.843 45.4924 45.925C45.3304 46.005 45.1474 46.045 44.9434 46.045C44.7634 46.045 44.6104 46.016 44.4844 45.958C44.3604 45.9 44.2474 45.82 44.1454 45.718V47.017H43.5004V42.94H43.8904C43.9784 42.94 44.0344 42.981 44.0584 43.063L44.1124 43.384ZM47.5321 45.232C47.6221 45.348 47.7201 45.43 47.8261 45.478C47.9341 45.524 48.0531 45.547 48.1831 45.547C48.4351 45.547 48.6311 45.455 48.7711 45.271C48.9131 45.087 48.9841 44.813 48.9841 44.449C48.9841 44.261 48.9681 44.101 48.9361 43.969C48.9041 43.835 48.8581 43.726 48.7981 43.642C48.7381 43.558 48.6651 43.497 48.5791 43.459C48.4931 43.421 48.3961 43.402 48.2881 43.402C48.1241 43.402 47.9821 43.438 47.8621 43.51C47.7441 43.58 47.6341 43.681 47.5321 43.813V45.232ZM47.4991 43.384C47.6271 43.234 47.7721 43.113 47.9341 43.021C48.0981 42.929 48.2881 42.883 48.5041 42.883C48.6761 42.883 48.8321 42.918 48.9721 42.988C49.1121 43.056 49.2321 43.156 49.3321 43.288C49.4321 43.42 49.5091 43.584 49.5631 43.78C49.6191 43.974 49.6471 44.197 49.6471 44.449C49.6471 44.675 49.6161 44.886 49.5541 45.082C49.4941 45.276 49.4071 45.445 49.2931 45.589C49.1791 45.731 49.0411 45.843 48.8791 45.925C48.7171 46.005 48.5341 46.045 48.3301 46.045C48.1501 46.045 47.9971 46.016 47.8711 45.958C47.7471 45.9 47.6341 45.82 47.5321 45.718V47.017H46.8871V42.94H47.2771C47.3651 42.94 47.4211 42.981 47.4451 43.063L47.4991 43.384ZM50.8829 43.507C50.9789 43.313 51.0949 43.161 51.2309 43.051C51.3669 42.939 51.5299 42.883 51.7199 42.883C51.7859 42.883 51.8479 42.891 51.9059 42.907C51.9639 42.921 52.0159 42.943 52.0619 42.973L52.0169 43.459C52.0089 43.493 51.9959 43.517 51.9779 43.531C51.9619 43.543 51.9399 43.549 51.9119 43.549C51.8819 43.549 51.8389 43.544 51.7829 43.534C51.7269 43.522 51.6679 43.516 51.6059 43.516C51.5159 43.516 51.4359 43.529 51.3659 43.555C51.2979 43.581 51.2359 43.619 51.1799 43.669C51.1259 43.719 51.0779 43.78 51.0359 43.852C50.9939 43.924 50.9549 44.006 50.9189 44.098V46H50.2739V42.94H50.6489C50.7169 42.94 50.7639 42.953 50.7899 42.979C50.8159 43.003 50.8339 43.046 50.8439 43.108L50.8829 43.507ZM53.7062 42.892C53.9322 42.892 54.1362 42.929 54.3182 43.003C54.5022 43.077 54.6582 43.182 54.7862 43.318C54.9162 43.454 55.0162 43.619 55.0862 43.813C55.1562 44.007 55.1912 44.225 55.1912 44.467C55.1912 44.709 55.1562 44.927 55.0862 45.121C55.0162 45.315 54.9162 45.481 54.7862 45.619C54.6582 45.755 54.5022 45.86 54.3182 45.934C54.1362 46.008 53.9322 46.045 53.7062 46.045C53.4782 46.045 53.2722 46.008 53.0882 45.934C52.9062 45.86 52.7502 45.755 52.6202 45.619C52.4902 45.481 52.3902 45.315 52.3202 45.121C52.2502 44.927 52.2152 44.709 52.2152 44.467C52.2152 44.225 52.2502 44.007 52.3202 43.813C52.3902 43.619 52.4902 43.454 52.6202 43.318C52.7502 43.182 52.9062 43.077 53.0882 43.003C53.2722 42.929 53.4782 42.892 53.7062 42.892ZM53.7062 45.541C53.9822 45.541 54.1872 45.449 54.3212 45.265C54.4572 45.079 54.5252 44.814 54.5252 44.47C54.5252 44.126 54.4572 43.861 54.3212 43.675C54.1872 43.487 53.9822 43.393 53.7062 43.393C53.4262 43.393 53.2182 43.487 53.0822 43.675C52.9462 43.861 52.8782 44.126 52.8782 44.47C52.8782 44.814 52.9462 45.079 53.0822 45.265C53.2182 45.449 53.4262 45.541 53.7062 45.541ZM58.4171 42.94L57.1871 46H56.6051L55.3751 42.94H55.9061C55.9561 42.94 55.9971 42.953 56.0291 42.979C56.0631 43.003 56.0851 43.032 56.0951 43.066L56.7731 44.848C56.8011 44.932 56.8261 45.015 56.8481 45.097C56.8701 45.179 56.8891 45.262 56.9051 45.346C56.9211 45.262 56.9401 45.18 56.9621 45.1C56.9861 45.018 57.0121 44.934 57.0401 44.848L57.7301 43.066C57.7421 43.03 57.7641 43 57.7961 42.976C57.8281 42.952 57.8671 42.94 57.9131 42.94H58.4171ZM60.777 44.125C60.777 44.017 60.761 43.917 60.729 43.825C60.699 43.731 60.654 43.65 60.594 43.582C60.534 43.512 60.459 43.458 60.369 43.42C60.281 43.38 60.179 43.36 60.063 43.36C59.829 43.36 59.645 43.427 59.511 43.561C59.377 43.695 59.292 43.883 59.256 44.125H60.777ZM59.238 44.521C59.246 44.695 59.273 44.846 59.319 44.974C59.365 45.1 59.426 45.205 59.502 45.289C59.58 45.373 59.672 45.436 59.778 45.478C59.886 45.518 60.006 45.538 60.138 45.538C60.264 45.538 60.373 45.524 60.465 45.496C60.557 45.466 60.637 45.434 60.705 45.4C60.773 45.364 60.831 45.332 60.879 45.304C60.927 45.274 60.971 45.259 61.011 45.259C61.063 45.259 61.103 45.279 61.131 45.319L61.314 45.556C61.238 45.646 61.152 45.722 61.056 45.784C60.96 45.846 60.858 45.897 60.75 45.937C60.642 45.975 60.531 46.002 60.417 46.018C60.303 46.036 60.192 46.045 60.084 46.045C59.872 46.045 59.675 46.01 59.493 45.94C59.313 45.868 59.156 45.763 59.022 45.625C58.89 45.487 58.786 45.316 58.71 45.112C58.636 44.908 58.599 44.673 58.599 44.407C58.599 44.195 58.632 43.997 58.698 43.813C58.766 43.629 58.862 43.469 58.986 43.333C59.112 43.197 59.264 43.09 59.442 43.012C59.622 42.932 59.825 42.892 60.051 42.892C60.239 42.892 60.413 42.923 60.573 42.985C60.733 43.045 60.871 43.134 60.987 43.252C61.103 43.37 61.193 43.515 61.257 43.687C61.323 43.857 61.356 44.051 61.356 44.269C61.356 44.369 61.345 44.436 61.323 44.47C61.301 44.504 61.261 44.521 61.203 44.521H59.238Z" fill="white"/>
<path d="M73.1036 91.7855C72.9719 90.7811 72.8898 89.7632 72.8706 88.7275C72.7491 81.8919 73.762 72.9536 67.178 68.7693C64.2158 66.8867 60.3003 66.766 57.8963 63.9303C57.0117 62.8868 56.5356 61.5516 56.0843 60.2466C54.6775 56.1819 53.3191 52.0993 52.0113 48C50.6675 48.1464 49.8988 49.6536 49.6028 51.01C48.7441 54.9417 49.8166 59.0422 51.2201 62.803C52.6235 66.5638 54.3826 70.2453 54.9679 74.2295C55.1896 75.7412 54.7259 77.8641 53.2414 77.8082C52.457 77.778 51.8616 77.0786 51.4609 76.3837C49.8324 73.5603 49.3473 69.5302 46.3682 68.3537C45.5792 68.042 44.4515 68.1548 44.1938 68.9838C44.0542 69.4308 43.9034 69.9101 44.0801 70.3425C46.5584 76.4384 48.412 81.9455 52.2274 87.2605C53.6826 89.2884 56.7686 91.4045 58.1698 93.4771C63.1871 100.899 63.0678 102.043 67.169 109.962C67.4403 110.486 67.9906 105.47 68.4971 105.755C68.9844 106.03 68.6513 108.241 69.2028 108.173C71.9883 107.83 75.2296 109.83 77.7281 108.517C78.1434 108.299 78.5813 108.059 78.8108 107.64C79.0404 107.22 79.0112 106.708 78.9763 106.228C78.3787 98.1239 74.1548 99.7797 73.1036 91.7855Z" fill="#EAC2AB"/>
</g>
</svg>
