<svg width="152" height="152" viewBox="0 0 152 152" fill="none" xmlns="http://www.w3.org/2000/svg">
<circle cx="76" cy="76" r="76" fill="#6B82AB" fill-opacity="0.1"/>
<path d="M67.2402 60.3881C63.1374 66.0195 57.3451 70.1223 50.7483 72.214L43.1862 74.547C39.2442 75.7537 36.9916 80.0175 38.1984 83.9595L40.6118 91.763C41.8185 95.7049 46.0823 97.9575 50.0243 96.7508L57.6669 111.875C58.1496 112.921 59.3563 113.404 60.4826 113.082L67.7229 110.829C68.3665 110.588 68.9297 110.105 69.2515 109.462C69.4928 108.818 69.4928 108.094 69.171 107.45L62.0111 93.3719C67.3207 92.487 72.7912 92.9697 77.8594 94.82L78.0203 94.9005L67.3207 60.3076L67.2402 60.3881Z" fill="#1DA1F2"/>
<path d="M88.6395 82.0289C91.3748 79.4545 92.5011 75.5126 91.3748 71.7315C90.168 67.9504 87.0306 65.376 83.3299 64.7325L79.6293 52.6652C78.8248 50.0104 75.2851 49.3668 73.5957 51.6194L71.9062 53.9524L85.2607 97.3945L87.9959 98.3599C90.6507 99.3253 93.2251 96.8314 92.4206 94.1766L88.6395 82.0289Z" fill="#1DA1F2"/>
<path d="M96.443 70.2034C97.0061 71.9733 98.8564 72.9387 100.626 72.3756L111.889 68.9163C113.659 68.3531 114.624 66.5028 114.061 64.733C113.498 62.9631 111.648 61.9977 109.878 62.5608L98.6151 66.0201C96.9257 66.5833 95.9603 68.4336 96.443 70.2034Z" fill="#1DA1F2"/>
<path d="M111.648 81.4663L100.465 77.6852C98.6956 77.1221 96.8453 78.007 96.2822 79.7769C95.719 81.5468 96.604 83.3971 98.3738 83.9602L109.556 87.7413C110.28 87.9826 110.924 87.9826 111.567 87.7413C112.533 87.4195 113.337 86.6955 113.739 85.6496C114.303 83.9602 113.418 82.0295 111.648 81.4663Z" fill="#1DA1F2"/>
<path d="M102.155 47.6773C100.707 46.551 98.6152 46.8728 97.4889 48.3209L90.329 57.8138C89.2027 59.2618 89.5245 61.3535 90.9726 62.4798C91.8575 63.1234 92.9838 63.2843 93.9492 62.9625C94.5928 62.8016 95.1559 62.3993 95.6386 61.7557L102.799 52.2628C103.925 50.8148 103.603 48.7231 102.155 47.6773Z" fill="#1DA1F2"/>
</svg>
