<svg width="200" height="200" viewBox="0 0 200 200" fill="none" xmlns="http://www.w3.org/2000/svg">
<circle cx="100" cy="100" r="100" fill="#F7F9FC"/>
<path d="M130 93.8C134.984 93.8 139.856 95.278 144 98.047C148.145 100.816 151.374 104.752 153.282 109.356C155.189 113.961 155.688 119.028 154.716 123.916C153.743 128.805 151.343 133.295 147.819 136.819C144.295 140.343 139.805 142.743 134.916 143.716C130.028 144.688 124.961 144.189 120.356 142.282C115.752 140.374 111.816 137.144 109.047 133C106.278 128.856 104.8 123.984 104.8 119C104.808 112.319 107.465 105.914 112.19 101.19C116.914 96.4655 123.319 93.8079 130 93.8ZM130 89C124.067 89 118.266 90.7595 113.333 94.0559C108.399 97.3524 104.554 102.038 102.284 107.519C100.013 113.001 99.4189 119.033 100.576 124.853C101.734 130.672 104.591 136.018 108.787 140.213C112.982 144.409 118.328 147.266 124.147 148.424C129.967 149.581 135.999 148.987 141.481 146.716C146.962 144.446 151.648 140.601 154.944 135.667C158.241 130.734 160 124.933 160 119C160 115.06 159.224 111.159 157.716 107.519C156.209 103.88 153.999 100.573 151.213 97.7868C148.427 95.001 145.12 92.7913 141.481 91.2836C137.841 89.776 133.94 89 130 89Z" fill="#FF5E5E"/>
<path fill-rule="evenodd" clip-rule="evenodd" d="M119.125 108.125C120.062 107.188 121.582 107.188 122.519 108.125L140.699 126.305C141.636 127.242 141.636 128.762 140.699 129.699C139.762 130.636 138.242 130.636 137.305 129.699L119.125 111.519C118.188 110.582 118.188 109.062 119.125 108.125Z" fill="#FF5E5E"/>
<path fill-rule="evenodd" clip-rule="evenodd" d="M140.699 108.125C141.636 109.062 141.636 110.582 140.699 111.519L122.519 129.699C121.582 130.636 120.062 130.636 119.125 129.699C118.188 128.762 118.188 127.242 119.125 126.305L137.305 108.125C138.242 107.188 139.762 107.188 140.699 108.125Z" fill="#FF5E5E"/>
<g opacity="0.6">
<path d="M53.125 150C52.5063 150 51.9001 149.819 51.3749 149.462C50.519 148.881 50 147.912 50 146.875V65.625C50 57.0125 57.0125 50 65.625 50H128.125C129.85 50 131.25 51.4 131.25 53.125C131.25 54.85 129.85 56.25 128.125 56.25H65.625C60.4563 56.25 56.25 60.4563 56.25 65.625V142.262L67.5871 137.725C68.3307 137.419 69.1622 137.419 69.9057 137.725L84.3748 143.512L98.837 137.725C100.418 137.087 102.256 137.862 102.893 139.463C103.531 141.063 102.762 142.881 101.156 143.519L85.5306 149.769C84.787 150.075 83.9556 150.075 83.2121 149.769L68.7499 143.987L54.2878 149.774C53.9125 149.924 53.5184 150 53.125 150L53.125 150Z" fill="#1F3965"/>
<path d="M115.625 87.5C113.9 87.5 112.5 86.1 112.5 84.375V65.625C112.5 57.0125 119.506 50 128.125 50C136.744 50 143.75 57.0125 143.75 65.625V78.125C143.75 79.85 142.35 81.25 140.625 81.25H118.75V84.375C118.75 86.1 117.35 87.5 115.625 87.5ZM118.75 75H137.5V65.625C137.5 60.4563 133.294 56.25 128.125 56.25C122.956 56.25 118.75 60.4563 118.75 65.625V75Z" fill="#1F3965"/>
<path d="M103.125 75H65.625C63.9 75 62.5 73.6 62.5 71.875C62.5 70.15 63.9 68.75 65.625 68.75H103.125C104.85 68.75 106.25 70.15 106.25 71.875C106.25 73.6 104.85 75 103.125 75Z" fill="#1F3965"/>
<path d="M90.625 100H65.625C63.9 100 62.5 98.6 62.5 96.875C62.5 95.15 63.9 93.75 65.625 93.75H90.625C92.35 93.75 93.75 95.15 93.75 96.875C93.75 98.6 92.35 100 90.625 100Z" fill="#1F3965"/>
<path d="M84.375 112.5H65.625C63.9 112.5 62.5 111.1 62.5 109.375C62.5 107.65 63.9 106.25 65.625 106.25H84.375C86.1 106.25 87.5 107.65 87.5 109.375C87.5 111.1 86.1 112.5 84.375 112.5Z" fill="#1F3965"/>
<path d="M84.375 125H65.625C63.9 125 62.5 123.6 62.5 121.875C62.5 120.15 63.9 118.75 65.625 118.75H84.375C86.1 118.75 87.5 120.15 87.5 121.875C87.5 123.6 86.1 125 84.375 125Z" fill="#1F3965"/>
</g>
</svg>
