<svg width="416" height="271" viewBox="0 0 416 271" fill="none" xmlns="http://www.w3.org/2000/svg">
<path d="M411.308 176.91C420.398 132.331 417.113 91.1329 393.825 51.9118C377.232 23.9742 348.409 0.628661 315.44 0.0129486C284.342 -0.567503 256.35 18.5358 225.626 23.3693C175.087 31.3058 122.849 0.0617619 73.7597 14.3452C47.4912 21.9887 26.131 42.3262 14.0664 66.4855C2.0018 90.6447 -1.408 118.292 0.492364 145.112C3.86687 192.763 25.2677 240.154 61.8199 270.983H359.567C384.584 242.37 405.428 205.731 411.308 176.91Z" fill="white"/>
<path d="M139.07 220.015H114.843C113.825 220.015 113 220.839 113 221.857V228.364C113 229.381 113.825 230.205 114.843 230.205H139.07C140.088 230.205 140.914 229.381 140.914 228.364V221.857C140.914 220.839 140.088 220.015 139.07 220.015Z" fill="#DBE2EA"/>
<path d="M170.741 220.015H146.514C145.496 220.015 144.671 220.839 144.671 221.857V228.364C144.671 229.381 145.496 230.205 146.514 230.205H170.741C171.759 230.205 172.585 229.381 172.585 228.364V221.857C172.585 220.839 171.759 220.015 170.741 220.015Z" fill="#DBE2EA"/>
<path d="M154.68 206H130.453C129.435 206 128.61 206.825 128.61 207.842V214.349C128.61 215.366 129.435 216.19 130.453 216.19H154.68C155.698 216.19 156.524 215.366 156.524 214.349V207.842C156.524 206.825 155.698 206 154.68 206Z" fill="#DBE2EA"/>
<path d="M320.306 46.678C320.306 45.8451 320.142 45.0203 319.823 44.2508C319.505 43.4812 319.037 42.782 318.448 42.193C317.858 41.6041 317.158 41.137 316.388 40.8184C315.618 40.4999 314.792 40.3361 313.959 40.3364H102.681C100.998 40.3364 99.3834 41.0046 98.193 42.1938C97.0027 43.3831 96.334 44.9961 96.334 46.678V51.8776H320.306V46.678Z" fill="white"/>
<path d="M320.642 52.2112H96V46.6779C96.0014 44.9077 96.7057 43.2104 97.9583 41.9584C99.2108 40.7065 100.909 40.0022 102.681 40H313.959C315.731 40.0014 317.43 40.7055 318.683 41.9575C319.936 43.2095 320.641 44.9072 320.642 46.6779V52.2112ZM96.6706 51.5412H319.972V46.6779C319.97 45.0851 319.335 43.5583 318.208 42.432C317.081 41.3058 315.553 40.6721 313.959 40.67H102.681C101.087 40.6721 99.5593 41.3059 98.4324 42.4322C97.3056 43.5585 96.672 45.0854 96.6706 46.6779V51.5412Z" fill="#1DA1F2"/>
<path d="M96.334 51.8774V186.539C96.3354 188.22 97.0048 189.832 98.195 191.02C99.3851 192.208 100.999 192.876 102.681 192.876H313.959C314.792 192.876 315.618 192.712 316.388 192.394C317.158 192.075 317.858 191.608 318.448 191.019C319.037 190.43 319.505 189.731 319.823 188.961C320.142 188.192 320.306 187.367 320.306 186.534V51.8774H96.334Z" fill="white"/>
<path d="M313.959 193.217H102.681C100.909 193.215 99.2108 192.511 97.9583 191.259C96.7057 190.007 96.0014 188.31 96 186.539V51.541H320.642V186.539C320.641 188.31 319.936 190.008 318.683 191.26C317.43 192.512 315.731 193.216 313.959 193.217ZM96.6706 52.211V186.539C96.672 188.132 97.3056 189.659 98.4324 190.785C99.5593 191.911 101.087 192.545 102.681 192.547H313.959C315.553 192.545 317.081 191.911 318.208 190.785C319.335 189.659 319.97 188.132 319.972 186.539V52.211H96.6706Z" fill="#1DA1F2"/>
<path d="M107.39 48.3632C108.633 48.2512 109.551 47.1529 109.439 45.9101C109.327 44.6673 108.227 43.7506 106.984 43.8626C105.74 43.9746 104.822 45.0729 104.934 46.3157C105.046 47.5586 106.146 48.4752 107.39 48.3632Z" fill="white"/>
<path d="M107.193 48.7038C106.679 48.7032 106.176 48.5504 105.749 48.2645C105.322 47.9787 104.989 47.5727 104.792 47.0978C104.596 46.623 104.545 46.1006 104.646 45.5967C104.746 45.0928 104.994 44.6301 105.358 44.2669C105.722 43.9038 106.185 43.6566 106.69 43.5566C107.194 43.4565 107.717 43.5081 108.192 43.7049C108.667 43.9017 109.073 44.2347 109.359 44.662C109.644 45.0892 109.797 45.5915 109.797 46.1053C109.796 46.7947 109.521 47.4556 109.033 47.9429C108.545 48.4301 107.883 48.7038 107.193 48.7038ZM107.193 44.1849C106.813 44.1855 106.442 44.2986 106.126 44.5099C105.81 44.7212 105.565 45.0213 105.419 45.3723C105.274 45.7232 105.237 46.1093 105.311 46.4816C105.386 46.8539 105.569 47.1959 105.838 47.4642C106.107 47.7325 106.449 47.9151 106.822 47.989C107.195 48.0629 107.581 48.0247 107.932 47.8792C108.283 47.7338 108.583 47.4877 108.794 47.1719C109.005 46.8562 109.118 46.485 109.118 46.1053C109.117 45.5957 108.914 45.1073 108.553 44.7472C108.192 44.3872 107.703 44.1849 107.193 44.1849Z" fill="#1F3965"/>
<path d="M116.212 48.3642C117.456 48.2522 118.374 47.1539 118.262 45.9111C118.149 44.6683 117.05 43.7516 115.806 43.8636C114.562 43.9756 113.645 45.0739 113.757 46.3167C113.869 47.5595 114.968 48.4762 116.212 48.3642Z" fill="white"/>
<path d="M116.016 48.7038C115.502 48.7032 114.999 48.5504 114.572 48.2645C114.145 47.9787 113.812 47.5727 113.615 47.0978C113.419 46.623 113.368 46.1006 113.469 45.5967C113.569 45.0928 113.817 44.6301 114.181 44.2669C114.545 43.9038 115.008 43.6566 115.513 43.5566C116.017 43.4565 116.54 43.5081 117.015 43.7049C117.49 43.9017 117.896 44.2347 118.182 44.662C118.467 45.0892 118.62 45.5915 118.62 46.1053C118.619 46.7947 118.344 47.4556 117.856 47.9429C117.368 48.4301 116.706 48.7038 116.016 48.7038ZM116.016 44.1849C115.636 44.1855 115.265 44.2986 114.949 44.5099C114.633 44.7212 114.388 45.0213 114.242 45.3723C114.097 45.7232 114.06 46.1093 114.134 46.4816C114.209 46.8539 114.392 47.1959 114.661 47.4642C114.93 47.7325 115.272 47.9151 115.645 47.989C116.018 48.0629 116.404 48.0247 116.755 47.8792C117.106 47.7338 117.406 47.4877 117.617 47.1719C117.828 46.8562 117.941 46.485 117.941 46.1053C117.94 45.5957 117.737 45.1073 117.376 44.7472C117.015 44.3872 116.526 44.1849 116.016 44.1849Z" fill="#1F3965"/>
<path d="M125.035 48.3647C126.279 48.2527 127.196 47.1544 127.084 45.9116C126.972 44.6688 125.873 43.7521 124.629 43.8641C123.385 43.9761 122.468 45.0744 122.58 46.3172C122.692 47.56 123.791 48.4767 125.035 48.3647Z" fill="white"/>
<path d="M124.84 48.7038C124.325 48.7032 123.823 48.5504 123.395 48.2645C122.968 47.9787 122.635 47.5727 122.439 47.0978C122.242 46.623 122.191 46.1006 122.292 45.5967C122.392 45.0928 122.64 44.6301 123.004 44.2669C123.368 43.9038 123.831 43.6566 124.336 43.5566C124.84 43.4565 125.363 43.5081 125.838 43.7049C126.313 43.9017 126.719 44.2347 127.005 44.662C127.291 45.0892 127.443 45.5915 127.443 46.1053C127.442 46.7947 127.168 47.4556 126.68 47.9429C126.191 48.4301 125.53 48.7038 124.84 48.7038ZM124.84 44.1849C124.459 44.1855 124.088 44.2986 123.772 44.5099C123.457 44.7212 123.211 45.0213 123.066 45.3723C122.921 45.7232 122.883 46.1093 122.957 46.4816C123.032 46.8539 123.215 47.1959 123.484 47.4642C123.753 47.7325 124.095 47.9151 124.468 47.989C124.841 48.0629 125.227 48.0247 125.578 47.8792C125.929 47.7338 126.229 47.4877 126.441 47.1719C126.652 46.8562 126.764 46.485 126.764 46.1053C126.764 45.5957 126.56 45.1073 126.2 44.7472C125.839 44.3872 125.35 44.1849 124.84 44.1849Z" fill="#1F3965"/>
<path opacity="0.4" d="M314.323 56H102.323V187H314.323V56Z" fill="#DBE2EA"/>
<g filter="url(#filter0_d_9233_46990)">
<path fill-rule="evenodd" clip-rule="evenodd" d="M205.056 124.836C206.786 125.225 208.404 125.912 209.853 126.842L212.746 124.59L216.749 128.625L214.515 131.541C215.438 133.003 216.119 134.633 216.505 136.377L220.127 136.846V142.552L216.504 143.022C216.119 144.765 215.437 146.396 214.515 147.858L216.749 150.773L212.746 154.808L209.853 152.557C208.403 153.487 206.785 154.174 205.056 154.562L204.59 158.214H198.93L198.464 154.562C196.734 154.174 195.116 153.486 193.667 152.557L190.774 154.808L186.772 150.773L189.005 147.858C188.082 146.396 187.401 144.765 187.016 143.021L183.393 142.552V136.846L187.016 136.376C187.401 134.633 188.082 133.001 189.005 131.54L186.772 128.624L190.774 124.589L193.667 126.841C195.117 125.912 196.734 125.224 198.464 124.836L198.93 121.184H204.59L205.056 124.836L205.056 124.836ZM201.76 131.782C206.098 131.782 209.615 135.327 209.615 139.7C209.615 144.072 206.098 147.617 201.76 147.617C197.423 147.617 193.906 144.072 193.906 139.7C193.906 135.327 197.423 131.782 201.76 131.782Z" fill="#6B82AB"/>
<path fill-rule="evenodd" clip-rule="evenodd" d="M236.848 95.7423C238.419 96.5683 239.805 97.6547 240.967 98.9305L244.34 97.5101L247.17 102.452L244.264 104.686C244.78 106.338 245.02 108.092 244.944 109.876L248.323 111.275L246.857 116.787L243.238 116.295C242.418 117.878 241.34 119.276 240.075 120.447L241.484 123.846L236.582 126.699L234.366 123.77C232.726 124.29 230.987 124.532 229.217 124.456L227.829 127.861L222.361 126.384L222.849 122.735C221.278 121.909 219.892 120.823 218.73 119.547L215.358 120.967L212.528 116.026L215.433 113.792C214.918 112.139 214.678 110.386 214.753 108.601L211.375 107.203L212.84 101.691L216.46 102.182C217.279 100.598 218.357 99.2008 219.623 98.0298L218.214 94.6306L223.117 91.7775L225.333 94.7072C226.972 94.1876 228.711 93.9457 230.481 94.0223L231.868 90.6162L237.336 92.0932L236.848 95.7423ZM231.882 101.591C236.071 102.723 238.558 107.064 237.435 111.288C236.312 115.511 232.006 118.018 227.816 116.886C223.626 115.754 221.139 111.414 222.262 107.19C223.385 102.966 227.691 100.459 231.882 101.591Z" fill="#6B82AB"/>
<path fill-rule="evenodd" clip-rule="evenodd" d="M205.612 101.906C205.679 103.463 205.469 104.993 205.019 106.435L207.555 108.384L205.085 112.696L202.143 111.457C201.13 112.571 199.92 113.518 198.549 114.239L198.975 117.423L194.204 118.712L192.993 115.739C191.449 115.806 189.931 115.595 188.501 115.142L186.567 117.698L182.29 115.208L183.519 112.242C182.414 111.221 181.474 110.001 180.759 108.619L177.601 109.048L176.323 104.239L179.27 103.019C179.204 101.462 179.414 99.9318 179.864 98.49L177.328 96.5407L179.797 92.2293L182.739 93.4683C183.753 92.3548 184.963 91.4072 186.334 90.6861L185.908 87.5024L190.679 86.2139L191.889 89.1849C193.434 89.1181 194.951 89.3295 196.382 89.7828L198.315 87.227L202.593 89.7166L201.364 92.6825C202.468 93.7044 203.408 94.9238 204.123 96.3056L207.282 95.8765L208.56 100.686L205.612 101.906H205.612ZM199.061 100.674C200.04 104.359 197.871 108.147 194.215 109.135C190.559 110.122 186.802 107.935 185.822 104.25C184.843 100.565 187.012 96.7767 190.668 95.7895C194.324 94.8022 198.082 96.9887 199.061 100.674Z" fill="#6B82AB"/>
</g>
<defs>
<filter id="filter0_d_9233_46990" x="173.923" y="86.2139" width="76.8002" height="76.8" filterUnits="userSpaceOnUse" color-interpolation-filters="sRGB">
<feFlood flood-opacity="0" result="BackgroundImageFix"/>
<feColorMatrix in="SourceAlpha" type="matrix" values="0 0 0 0 0 0 0 0 0 0 0 0 0 0 0 0 0 0 127 0" result="hardAlpha"/>
<feOffset dy="2.4"/>
<feGaussianBlur stdDeviation="1.2"/>
<feComposite in2="hardAlpha" operator="out"/>
<feColorMatrix type="matrix" values="0 0 0 0 0 0 0 0 0 0 0 0 0 0 0 0 0 0 0.25 0"/>
<feBlend mode="normal" in2="BackgroundImageFix" result="effect1_dropShadow_9233_46990"/>
<feBlend mode="normal" in="SourceGraphic" in2="effect1_dropShadow_9233_46990" result="shape"/>
</filter>
</defs>
</svg>
