<svg width="152" height="152" viewBox="0 0 152 152" fill="none" xmlns="http://www.w3.org/2000/svg">
<circle cx="76" cy="76" r="76" fill="#6B82AB" fill-opacity="0.1"/>
<path d="M98.3162 92.5209C98.3188 92.7234 98.4001 92.917 98.5427 93.0607L104.861 99.3648C105.4 99.9025 105.827 100.541 106.118 101.244C106.409 101.947 106.558 102.701 106.558 103.461V105.389C106.557 106.929 105.944 108.406 104.855 109.495C103.766 110.583 102.29 111.196 100.75 111.197H83.1248H77.9229C77.5259 112.466 76.7354 113.576 75.6656 114.367C74.5944 115.158 73.299 115.587 71.9673 115.592H71.9625C70.6308 115.587 69.3354 115.158 68.2642 114.367C67.1944 113.576 66.4039 112.466 66.0069 111.197H60.8484H43.2231C41.6832 111.196 40.2067 110.583 39.1178 109.495C38.029 108.406 37.4167 106.929 37.4154 105.389V103.461C37.4148 102.701 37.5644 101.947 37.8555 101.244C38.1466 100.541 38.5736 99.9025 39.1119 99.3648L45.4112 93.0655C45.5538 92.9218 45.6351 92.7282 45.6377 92.5257V68.3987C45.6465 61.8478 48.0918 55.5345 52.4977 50.6866C56.9037 45.8388 62.9554 42.8032 69.4756 42.1703V36.3867C69.5039 35.7391 69.7811 35.1275 70.2494 34.6793C70.7176 34.2311 71.3408 33.981 71.989 33.981C72.6372 33.981 73.2604 34.2311 73.7286 34.6793C74.1969 35.1275 74.4741 35.7391 74.5024 36.3867V42.1703C81.0175 42.8087 87.0626 45.8461 91.4635 50.6923C95.8644 55.5386 98.3068 61.8476 98.3162 68.3939V92.5209Z" fill="#1DA1F2"/>
<circle cx="93.5385" cy="51.4462" r="17.5385" fill="#FF5E5E" stroke="#E9EDF4" stroke-width="1.5"/>
<path d="M97.6615 51.1949C97.6615 52.1975 97.5522 53.0669 97.3335 53.8029C97.1202 54.5335 96.8268 55.1389 96.4535 55.6189C96.0802 56.0989 95.6375 56.4562 95.1255 56.6909C94.6188 56.9255 94.0748 57.0429 93.4935 57.0429C92.9068 57.0429 92.3602 56.9255 91.8535 56.6909C91.3522 56.4562 90.9148 56.0989 90.5415 55.6189C90.1682 55.1389 89.8748 54.5335 89.6615 53.8029C89.4482 53.0669 89.3415 52.1975 89.3415 51.1949C89.3415 50.1922 89.4482 49.3229 89.6615 48.5869C89.8748 47.8509 90.1682 47.2429 90.5415 46.7629C90.9148 46.2775 91.3522 45.9175 91.8535 45.6829C92.3602 45.4482 92.9068 45.3309 93.4935 45.3309C94.0748 45.3309 94.6188 45.4482 95.1255 45.6829C95.6375 45.9175 96.0802 46.2775 96.4535 46.7629C96.8268 47.2429 97.1202 47.8509 97.3335 48.5869C97.5522 49.3229 97.6615 50.1922 97.6615 51.1949ZM96.1815 51.1949C96.1815 50.3202 96.1068 49.5869 95.9575 48.9949C95.8135 48.3975 95.6162 47.9175 95.3655 47.5549C95.1202 47.1922 94.8348 46.9335 94.5095 46.7789C94.1842 46.6189 93.8455 46.5389 93.4935 46.5389C93.1415 46.5389 92.8028 46.6189 92.4775 46.7789C92.1522 46.9335 91.8668 47.1922 91.6215 47.5549C91.3762 47.9175 91.1788 48.3975 91.0295 48.9949C90.8855 49.5869 90.8135 50.3202 90.8135 51.1949C90.8135 52.0695 90.8855 52.8029 91.0295 53.3949C91.1788 53.9869 91.3762 54.4642 91.6215 54.8269C91.8668 55.1895 92.1522 55.4509 92.4775 55.6109C92.8028 55.7655 93.1415 55.8429 93.4935 55.8429C93.8455 55.8429 94.1842 55.7655 94.5095 55.6109C94.8348 55.4509 95.1202 55.1895 95.3655 54.8269C95.6162 54.4642 95.8135 53.9869 95.9575 53.3949C96.1068 52.8029 96.1815 52.0695 96.1815 51.1949Z" fill="white"/>
</svg>
