<svg width="152" height="152" viewBox="0 0 152 152" fill="none" xmlns="http://www.w3.org/2000/svg">
<circle cx="76" cy="76" r="76" fill="#6B82AB" fill-opacity="0.1"/>
<path d="M120.388 125.246C120.375 125.246 120.361 125.243 120.349 125.238L119.797 125.024C119.783 125.019 119.77 125.012 119.759 125.002C119.748 124.992 119.739 124.98 119.732 124.967C119.726 124.954 119.723 124.939 119.722 124.924C119.721 124.909 119.724 124.895 119.729 124.881C119.735 124.867 119.743 124.854 119.753 124.844C119.764 124.833 119.776 124.825 119.79 124.82C119.804 124.814 119.819 124.811 119.834 124.812C119.848 124.812 119.863 124.815 119.877 124.821L120.428 125.036C120.452 125.045 120.471 125.062 120.484 125.084C120.496 125.106 120.5 125.132 120.495 125.157C120.491 125.182 120.478 125.204 120.458 125.22C120.438 125.237 120.414 125.246 120.388 125.246V125.246Z" fill="white"/>
<path d="M91.6467 36.2886L40.8511 47.6953L57.9795 123.958L115.326 111.077L99.5982 41.0797L91.6467 36.2886Z" fill="#FFCD56" stroke="white" stroke-miterlimit="10" stroke-linecap="round"/>
<path d="M54.0083 62.1792L92.4851 53.5366" stroke="white" stroke-miterlimit="10" stroke-linecap="round"/>
<path d="M55.7682 69.9922L94.245 61.3496" stroke="white" stroke-miterlimit="10" stroke-linecap="round"/>
<path d="M57.5188 77.8057L95.9956 69.1724" stroke="white" stroke-miterlimit="10" stroke-linecap="round"/>
<path d="M59.2786 85.6284L97.7554 76.9858" stroke="white" stroke-miterlimit="10" stroke-linecap="round"/>
<path d="M61.0385 93.4414L99.5153 84.7988" stroke="white" stroke-miterlimit="10" stroke-linecap="round"/>
<path d="M62.7892 101.264L101.266 92.6216" stroke="white" stroke-miterlimit="10" stroke-linecap="round"/>
<path d="M64.549 109.078L103.026 100.435" stroke="white" stroke-miterlimit="10" stroke-linecap="round"/>
<path d="M89.9513 38.9419L91.5361 46.0273L98.4556 44.4702" stroke="white" stroke-miterlimit="10" stroke-linecap="round"/>
<path d="M133.302 12.259L81.6313 5.84619L72.0029 83.4079L130.335 90.65L139.172 19.455L133.302 12.259Z" fill="#1DA1F2" stroke="white" stroke-miterlimit="10" stroke-linecap="round"/>
<path d="M89.1313 23.9233L128.272 28.779" stroke="white" stroke-miterlimit="10" stroke-linecap="round"/>
<path d="M88.1454 31.875L127.286 36.7307" stroke="white" stroke-miterlimit="10" stroke-linecap="round"/>
<path d="M87.1595 39.8262L126.291 44.6818" stroke="white" stroke-miterlimit="10" stroke-linecap="round"/>
<path d="M86.1737 47.769L125.305 52.6339" stroke="white" stroke-miterlimit="10" stroke-linecap="round"/>
<path d="M85.1877 55.7207L124.319 60.5856" stroke="white" stroke-miterlimit="10" stroke-linecap="round"/>
<path d="M84.2019 63.6719L123.333 68.5368" stroke="white" stroke-miterlimit="10" stroke-linecap="round"/>
<path d="M83.2069 71.6235L122.347 76.4884" stroke="white" stroke-miterlimit="10" stroke-linecap="round"/>
<path d="M130.553 12.8613L129.911 21.3899L138.738 22.2152" stroke="white" stroke-miterlimit="10" stroke-linecap="round"/>
<g opacity="0.4">
<path opacity="0.4" d="M59.7578 124.068C62.8629 128.104 63.1762 133.024 63.1762 138.93H34.6134C34.6134 133.034 34.8898 128.113 37.9948 124.078C41.0999 120.042 43.6153 118.632 44.8776 117.177C45.3601 116.744 45.7462 116.215 46.0105 115.624C46.2748 115.033 46.4114 114.392 46.4114 113.744C46.4114 113.097 46.2748 112.456 46.0105 111.865C45.7462 111.273 45.3601 110.744 44.8776 110.312C43.6153 108.847 41.0999 107.447 37.9948 103.411C34.8898 99.3755 34.5397 94.4461 34.5397 88.5493H63.1762C63.1762 94.4461 62.8905 99.3663 59.7855 103.402C56.6804 107.438 54.1651 108.838 52.8936 110.303C52.411 110.735 52.0249 111.264 51.7606 111.856C51.4964 112.447 51.3598 113.087 51.3598 113.735C51.3598 114.383 51.4964 115.023 51.7606 115.615C52.0249 116.206 52.411 116.735 52.8936 117.167C53.5846 117.96 54.6442 118.734 55.9618 119.932C57.3495 121.193 58.62 122.578 59.7578 124.068Z" fill="#85B8ED"/>
</g>
<g opacity="0.7">
<path opacity="0.7" d="M58.4494 125.469C60.845 128.491 61.278 132.306 61.361 136.83H36.3179C36.4008 132.306 36.8154 128.464 39.2294 125.469C41.6434 122.475 44.6195 121.167 48.8394 121.167C50.6595 121.13 52.465 121.497 54.1265 122.241C55.788 122.985 57.2642 124.088 58.4494 125.469V125.469Z" fill="#FFFFF8"/>
</g>
<g opacity="0.7">
<path opacity="0.7" d="M61.2411 93.3863C60.9555 96.7124 60.3197 99.5779 58.477 102.001C57.0457 103.856 55.4039 105.538 53.5845 107.013C52.8992 107.581 52.2557 108.197 51.6588 108.856C50.3738 110.178 49.6309 111.934 49.5765 113.776C49.5765 115.435 49.3369 115.859 48.867 115.859C48.3971 115.859 48.1575 115.481 48.1575 113.776C48.1031 111.934 47.3602 110.178 46.0752 108.856C45.4783 108.197 44.8347 107.581 44.1495 107.013C42.3195 105.537 40.6654 103.856 39.2201 102.001C38.6711 101.292 38.2102 100.518 37.8473 99.6977C37.7183 99.4305 37.921 99.1173 38.1698 99.191C40.413 99.8196 42.7455 100.069 45.0709 99.9281C49.6778 99.5872 51.7509 98.675 54.6348 95.8279C56.3762 94.1142 57.6754 91.737 58.8363 91.1657C60.3566 90.4286 61.4162 91.7094 61.2411 93.3863Z" fill="#FFFFF8"/>
</g>
<path d="M65.6823 85.5547C65.7462 86.2839 65.5183 87.0088 65.0484 87.5702C64.5786 88.1316 63.9053 88.4836 63.1761 88.5492H34.6134C34.2491 88.5213 33.894 88.4215 33.5685 88.2556C33.2431 88.0896 32.9538 87.8608 32.7173 87.5823C32.4808 87.3039 32.3019 86.9813 32.1908 86.6333C32.0798 86.2852 32.0389 85.9186 32.0704 85.5547H65.6823Z" fill="#9FD5F7"/>
<path d="M67.6725 81.8045V83.0023C67.7186 83.6252 67.5187 84.2414 67.1156 84.7186C66.7125 85.1958 66.1383 85.4959 65.5164 85.5545H32.1717C31.5481 85.4982 30.9717 85.199 30.5666 84.7216C30.1616 84.2442 29.9604 83.6267 30.0065 83.0023V81.8045C29.9988 81.6754 30.0416 81.5485 30.1258 81.4504C30.2101 81.3524 30.3292 81.291 30.4579 81.2793H67.221C67.3497 81.291 67.4688 81.3524 67.5531 81.4504C67.6374 81.5485 67.6802 81.6754 67.6725 81.8045Z" fill="#1DA1F2"/>
<path d="M65.6823 141.916C65.7437 141.188 65.5145 140.466 65.045 139.906C64.5754 139.347 63.9035 138.996 63.1761 138.931H34.6134C34.2491 138.959 33.894 139.058 33.5685 139.224C33.2431 139.39 32.9538 139.619 32.7173 139.897C32.4808 140.176 32.3019 140.499 32.1908 140.847C32.0798 141.195 32.0389 141.561 32.0704 141.925L65.6823 141.916Z" fill="#9FD5F6"/>
<path d="M67.6724 145.629V144.458C67.721 143.835 67.5219 143.217 67.1184 142.74C66.7148 142.262 66.1392 141.963 65.5164 141.906H32.1716C31.5471 141.96 30.9692 142.259 30.5637 142.737C30.1582 143.215 29.9579 143.834 30.0064 144.458V145.619C29.9962 145.75 30.0378 145.879 30.1224 145.979C30.2069 146.079 30.3274 146.142 30.4579 146.154H67.2209C67.3497 146.142 67.4688 146.081 67.553 145.983C67.6373 145.885 67.6801 145.758 67.6724 145.629Z" fill="#1DA1F2"/>
<g opacity="0.7">
<path opacity="0.7" d="M47.9918 118.227C48.0198 118.066 48.0931 117.917 48.203 117.797C48.3129 117.676 48.4549 117.59 48.6122 117.547C48.7696 117.505 48.9358 117.508 49.0914 117.557C49.247 117.605 49.3855 117.697 49.4907 117.822C49.5958 117.946 49.6633 118.098 49.6851 118.26C49.7069 118.421 49.6821 118.586 49.6138 118.734C49.5454 118.882 49.4362 119.007 49.2991 119.095C49.1619 119.183 49.0025 119.231 48.8394 119.231C48.7175 119.222 48.5985 119.189 48.4896 119.133C48.3807 119.077 48.284 119 48.2051 118.907C48.1262 118.813 48.0667 118.705 48.03 118.588C47.9934 118.472 47.9804 118.349 47.9918 118.227Z" fill="#FFFFF8"/>
</g>
</svg>
