<svg width="180" height="180" viewBox="0 0 180 180" fill="none" xmlns="http://www.w3.org/2000/svg">
<circle cx="90" cy="90" r="90" fill="#6B82AB" fill-opacity="0.1"/>
<path d="M125.134 47.3684H54.8603C52.851 47.4512 50.9553 48.3036 49.5814 49.7421C48.2074 51.1807 47.465 53.0903 47.514 55.0598V58.8449C47.5262 60.4857 48.0975 62.0755 49.1372 63.362C50.1769 64.6484 51.6255 65.5578 53.253 65.9458V107.723C53.151 109.868 53.9154 111.966 55.3806 113.563C56.0819 114.329 56.9394 114.942 57.8977 115.364C58.856 115.786 59.8939 116.006 60.9444 116.01H85.0593L71.9689 128.082C71.53 128.539 71.2669 129.131 71.2246 129.757C71.1823 130.383 71.3635 131.004 71.7371 131.514C71.9225 131.75 72.1566 131.946 72.4242 132.087C72.6919 132.229 72.987 132.314 73.2903 132.336C73.5937 132.359 73.8985 132.318 74.1847 132.217C74.471 132.117 74.7324 131.958 74.9518 131.751L89.9998 118.024L104.94 131.751C105.129 131.951 105.361 132.107 105.62 132.209C105.878 132.311 106.156 132.357 106.434 132.342C106.756 132.352 107.076 132.293 107.373 132.17C107.67 132.048 107.937 131.863 108.154 131.63C108.556 131.113 108.754 130.47 108.712 129.821C108.669 129.172 108.389 128.56 107.922 128.097L94.8217 116.005H118.937C119.997 116.018 121.048 115.81 122.02 115.396C122.992 114.982 123.864 114.371 124.578 113.603C125.316 112.81 125.887 111.883 126.259 110.875C126.631 109.866 126.797 108.795 126.747 107.723V65.9458C128.374 65.5578 129.823 64.6484 130.862 63.362C131.902 62.0755 132.473 60.4857 132.486 58.8449V55.0598C132.535 53.0894 131.791 51.1791 130.416 49.7404C129.041 48.3018 127.144 47.4499 125.134 47.3684V47.3684ZM118.952 111.276H60.9495C60.5068 111.276 60.0694 111.182 59.668 110.999C59.2666 110.815 58.911 110.549 58.6261 110.216C58.3307 109.874 58.1094 109.477 57.9757 109.048C57.842 108.62 57.7986 108.169 57.8482 107.723V66.3041H122.151V107.723C122.185 108.174 122.126 108.628 121.979 109.056C121.833 109.485 121.6 109.881 121.296 110.222C121.002 110.552 120.64 110.817 120.233 110.999C119.826 111.18 119.384 111.275 118.937 111.276H118.952ZM127.88 58.8499C127.869 59.5456 127.59 60.2116 127.101 60.7156C126.611 61.2196 125.946 61.5246 125.237 61.5702H54.7263C54.0176 61.5246 53.3524 61.2196 52.8627 60.7156C52.3731 60.2116 52.0949 59.5456 52.0835 58.8499V54.8125C52.0949 54.1168 52.3731 53.4508 52.8627 52.9468C53.3524 52.4428 54.0176 52.1378 54.7263 52.0922H125.247C125.956 52.1378 126.621 52.4428 127.111 52.9468C127.601 53.4508 127.879 54.1168 127.89 54.8125L127.88 58.8499Z" fill="#1DA1F2"/>
<path d="M102.672 87.0816C102.929 87.2071 103.146 87.4005 103.297 87.6398C103.448 87.8792 103.528 88.1551 103.528 88.4366C103.528 88.7181 103.448 88.9941 103.297 89.2334C103.146 89.4728 102.929 89.6661 102.672 89.7917L85.8623 98.0332C85.6269 98.1483 85.3653 98.2027 85.1024 98.1911C84.8395 98.1794 84.5839 98.1022 84.36 97.9668C84.1361 97.8313 83.9512 97.6421 83.8228 97.417C83.6944 97.1919 83.6269 96.9384 83.6265 96.6806V80.1926C83.6269 79.9348 83.6944 79.6814 83.8228 79.4563C83.9512 79.2312 84.1361 79.0419 84.36 78.9065C84.5839 78.771 84.8395 78.6938 85.1024 78.6822C85.3653 78.6706 85.6269 78.7249 85.8623 78.8401L102.672 87.0816Z" fill="#1DA1F2"/>
<path d="M52.8232 65.957H127.177V110.412C127.177 113.725 124.491 116.412 121.177 116.412H58.8232C55.5095 116.412 52.8232 113.725 52.8232 110.412V65.957Z" fill="#1DA1F2" stroke="white" stroke-width="2"/>
<path d="M99.7082 89.7091C99.9828 89.8459 100.214 90.0564 100.375 90.317C100.537 90.5776 100.622 90.878 100.622 91.1845C100.622 91.491 100.537 91.7914 100.375 92.052C100.214 92.3127 99.9828 92.5232 99.7082 92.6599L81.7647 101.633C81.5133 101.758 81.2341 101.817 80.9534 101.805C80.6728 101.792 80.4 101.708 80.161 101.561C79.922 101.413 79.7246 101.207 79.5876 100.962C79.4506 100.717 79.3784 100.441 79.3781 100.16V82.2087C79.3784 81.928 79.4506 81.652 79.5876 81.407C79.7246 81.1619 79.922 80.9559 80.161 80.8084C80.4 80.6609 80.6728 80.5768 80.9534 80.5642C81.2341 80.5515 81.5133 80.6107 81.7647 80.7361L99.7082 89.7091Z" fill="white"/>
<path d="M46.1846 51.3684C46.1846 49.1593 47.9754 47.3684 50.1846 47.3684H129.816C132.025 47.3684 133.816 49.1593 133.816 51.3684V60.6292C133.816 62.8383 132.025 64.6292 129.816 64.6292H50.1846C47.9754 64.6292 46.1846 62.8383 46.1846 60.6292V51.3684Z" fill="#1DA1F2" stroke="white" stroke-width="2"/>
</svg>
