
<svg width="289" height="110" viewBox="0 0 289 110" fill="none" xmlns="http://www.w3.org/2000/svg">
<path d="M39.1387 144.406C27.2594 141.805 16.013 135.385 8.80608 125.591C1.59917 115.798 -1.15409 102.521 2.8329 91.0327C6.33281 80.9676 14.5634 73.0403 24.0132 68.1142C33.463 63.188 44.0911 60.9831 54.6608 59.656C93.6615 54.7386 133.24 61.0035 171.459 70.1966C183.927 73.1978 196.39 76.5227 209.167 77.6339C221.945 78.7451 235.224 77.5231 246.71 71.8007C261.853 64.2759 272.481 49.585 278.501 33.78C284.52 17.975 286.396 0.947891 288 -15.8809" stroke="white" stroke-width="0.583319" stroke-miterlimit="10" stroke-dasharray="0.87 0.87 0.87 0.87 0.87 0.87"/>
<path d="M66.643 77.2802C66.1297 76.729 65.8963 76.0231 66.4272 75.4836C66.6824 75.2216 67.0268 75.0651 67.3919 75.0451C67.7571 75.0252 68.1165 75.1431 68.3988 75.3757C69.0463 75.854 69.1483 76.5423 68.6029 77.1256C68.0575 77.7089 67.3459 77.7206 66.643 77.2802Z" fill="#FFDF00"/>
<path d="M181.238 41.9486C176.144 36.6965 170.767 31.7261 165.132 27.0593C159.504 22.3962 153.569 18.1167 147.367 14.2497C141.169 10.3928 134.675 7.03403 127.945 4.20491C121.223 1.38689 114.268 -0.841035 107.159 -2.45368C106.957 -2.50153 106.783 -2.62712 106.674 -2.80305C106.564 -2.97898 106.529 -3.19098 106.576 -3.39282C106.623 -3.59432 106.749 -3.76872 106.925 -3.878C107.101 -3.98727 107.313 -4.02255 107.515 -3.97614C114.689 -2.25552 121.7 0.0866065 128.468 3.02369C135.22 5.95538 141.729 9.41955 147.933 13.3834C154.124 17.3452 160.042 21.7192 165.645 26.476C171.243 31.2245 176.578 36.2748 181.625 41.6044C181.666 41.656 181.686 41.7208 181.682 41.7864C181.677 41.8519 181.649 41.9135 181.602 41.9592C181.554 42.0049 181.492 42.0315 181.426 42.0339C181.361 42.0362 181.297 42.0141 181.246 41.9719L181.238 41.9486Z" fill="#1DA1F2"/>
<path d="M148.605 15.0098C148.722 14.3711 149.839 13.6536 150.27 13.4116C151.874 12.5074 153.843 12.3295 155.587 12.0087C158.599 11.408 161.656 11.0636 164.725 10.9791C167.733 10.9031 170.732 11.343 173.591 12.2799C176.663 13.3357 183.324 15.424 186.244 16.8065C185.541 16.474 183.747 16.8794 182.965 16.9377C178.52 17.2731 170.334 18.2181 165.848 18.3318C160.866 18.4602 156.001 17.524 151.186 16.3398C150.638 16.2027 148.812 15.9344 148.614 15.2578C148.59 15.1771 148.587 15.0919 148.605 15.0098Z" fill="#1DA1F2"/>
<path d="M191.23 29.6581C191.116 29.8506 190.647 29.8915 190.16 29.839C189.143 29.7078 188.116 29.6697 187.092 29.7252C185.56 29.839 181.34 29.3986 179.8 29.3111C176.134 29.1069 172.462 28.5907 168.988 27.3599C166.315 26.4221 163.755 25.1885 161.356 23.682C161.032 23.4779 160.481 23.3408 160.644 22.8071C160.763 22.3783 161.227 22.3987 161.586 22.3725C166.042 22.0546 170.487 21.9642 174.912 22.6642C179.657 23.4254 186.934 26.1145 190.761 28.9611C191.204 29.2907 191.315 29.5152 191.23 29.6581Z" fill="#1DA1F2"/>
<path d="M137.499 6.59896C141.952 4.5136 146.747 2.71989 151.834 1.67284C154.587 1.07212 157.401 0.786406 160.219 0.821192C161.645 0.853274 163.226 0.89994 164.594 1.29076C165.842 1.64367 167.198 1.81575 168.414 2.29991C168.152 2.20074 165.962 3.56571 165.568 3.7582C164.551 4.23652 163.522 4.6954 162.482 5.13483C160.374 6.03102 158.214 6.79852 156.013 7.43311C151.588 8.73068 146.963 9.20907 142.366 8.84474C140.818 8.70766 139.26 8.85933 137.7 8.86516C137.198 8.86516 136.568 9.26765 136.288 8.44809C136.046 7.74519 136.411 7.28145 136.95 6.94896C137.084 6.87313 137.198 6.79729 137.499 6.59896Z" fill="#1DA1F2"/>
<path d="M130.793 -0.476365C134.374 -2.3984 138.248 -3.93545 142.296 -4.49543C145.321 -4.88525 148.39 -4.77291 151.378 -4.16294C151.836 -4.07544 155.596 -3.35796 155.555 -2.97005C155.531 -2.75714 153.534 -2.36049 153.274 -2.28757C152.44 -2.04841 151.606 -1.80633 150.771 -1.5555C148.567 -0.899271 146.347 -0.26637 144.148 0.407363C140.069 1.39024 135.923 2.07261 131.744 2.44898C130.508 2.59525 129.29 2.86193 128.107 3.24521C127.713 3.36187 127.299 3.53687 127.045 3.05271C126.791 2.56856 127.103 2.3119 127.433 2.04357C128.681 1.03443 129.871 -0.056375 130.793 -0.476365Z" fill="#1DA1F2"/>
<path d="M194.226 40.1409C194.69 40.4909 195.29 40.8409 195.591 41.3309C195.34 41.0042 193.462 41.0655 193.068 41.0217C191.918 40.8988 190.777 40.6951 189.656 40.4121C186.649 39.648 183.822 38.3939 180.973 37.1572C178.73 36.1772 176.446 35.2819 174.183 34.3456C173.881 34.2374 173.588 34.1047 173.308 33.949C173.141 33.8722 173.006 33.7397 172.926 33.5741C172.846 33.4086 172.827 33.2204 172.871 33.0419C172.987 32.6423 173.361 32.6919 173.678 32.6948C175.125 32.725 176.566 32.8949 177.98 33.2023C181.329 33.9111 184.668 34.7656 187.818 36.1189C190.251 37.1718 192.213 38.6214 194.226 40.1409Z" fill="#1DA1F2"/>
<path d="M131.793 9.25112C133.703 14.1218 134.164 18.6834 133.974 23.3441C133.879 25.7104 133.782 28.0768 133.683 30.4431C133.683 30.7348 133.904 31.1722 133.473 31.2714C133.041 31.3706 132.971 30.866 132.755 30.5977C129.843 26.9885 128.106 22.5743 127.777 17.9484C127.438 12.5935 128.337 6.63494 124.775 2.10547C124.933 2.30671 126.432 2.51963 126.817 2.75879C127.612 3.28793 128.328 3.9272 128.943 4.65749C130.162 5.99329 131.244 7.51867 131.793 9.25112Z" fill="#1DA1F2"/>
<path d="M142.702 33.1387C141.163 30.5063 139.996 27.6737 139.234 24.7214C137.968 19.594 136.839 14.4316 136.026 9.18175C135.953 8.70052 135.556 8.0472 136.317 7.70887C136.941 7.4318 137.318 7.91595 137.732 8.29219C139.773 10.1588 141.763 12.6904 142.649 15.3504C143.405 17.6107 144.376 19.839 145 22.1489C146.426 27.428 146.61 34.1945 147.587 39.5493C147.636 40.0959 147.838 40.6175 148.17 41.0543C146.172 39.0943 144.081 35.574 142.702 33.1387Z" fill="#1DA1F2"/>
<path d="M152.425 18.253C155.187 23.15 156.864 28.5836 157.914 34.0843C158.453 36.9163 158.827 39.7745 159.095 42.6416C159.308 44.8815 160.262 48.8481 159.387 50.8926C157.473 50.1722 156.26 47.8914 155.391 46.1735C152.81 41.0812 151.375 35.7001 150.097 30.1673C148.994 25.2433 148.164 20.2618 147.612 15.246C147.56 14.791 147.423 14.2893 147.933 14.0298C148.444 13.7702 148.899 14.0677 149.287 14.4323C150.514 15.545 151.572 16.8324 152.425 18.253Z" fill="#1DA1F2"/>
<path d="M178.111 41.1143C179.144 44.3021 179.569 47.8604 179.861 51.1853C180.013 52.9138 180.085 54.6482 180.077 56.3885C180.077 57.908 180.392 59.623 180.153 61.1075C178.514 59.1359 177.502 56.7705 176.329 54.5481C173.028 48.2862 173.728 40.9947 172.602 34.1903C172.54 33.8315 172.462 33.4174 172.85 33.219C173.354 32.9566 173.701 33.362 173.973 33.6857C175.828 35.8653 177.234 38.3898 178.111 41.1143Z" fill="#1DA1F2"/>
<path d="M164.211 26.9204C166.151 30.5224 167.843 34.2964 168.834 38.2951C169.325 40.2359 169.627 42.2197 169.735 44.2187C169.817 45.7587 169.77 47.9169 169.248 49.3607C168.271 48.6344 167.679 46.8786 167.125 45.8228C165.242 42.3127 163.765 38.5992 162.724 34.7544C161.849 31.374 161.105 27.9529 160.315 24.5463C160.198 24.0475 159.95 23.4059 160.516 23.123C161.14 22.8109 161.522 23.4409 161.887 23.8405C162.781 24.7714 163.561 25.8053 164.211 26.9204Z" fill="#1DA1F2"/>
<path d="M194.488 53.1825C195.351 54.459 196.14 55.7833 196.854 57.149C197.555 58.4418 198.181 59.774 198.729 61.1389C198.739 61.1653 198.739 61.1943 198.729 61.2206C198.703 61.2848 198.606 61.2585 198.548 61.2206C196.637 60.0069 194.804 58.6753 193.059 57.2336C191.15 55.7006 189.359 54.0256 187.701 52.2229C186.446 50.8461 185.298 49.3747 184.268 47.8218C183.239 46.2614 182.291 44.6543 181.296 43.0706C180.451 41.729 179.637 40.3699 178.812 39.0078C181.436 41.0086 184.266 42.5602 186.759 44.6514C189.475 46.9211 191.891 49.526 193.952 52.4037C194.135 52.6633 194.313 52.92 194.488 53.1825Z" fill="#1DA1F2"/>
<path d="M68.1323 13.2445C62.7074 19.8622 54.9638 20.8597 46.9694 21.7522C43.4695 22.143 40.0542 22.773 36.5922 23.4409C33.9264 23.9571 28.4841 24.173 27.1133 27.0283L27.5945 26.0104C30.3886 20.0081 32.8765 13.2649 37.6072 8.59542C42.545 3.72762 49.1686 0.933527 55.8563 -0.486854C65.5103 -2.52847 78.632 -9.08789 78.632 -9.08789L78.3199 -8.37916C77.445 -6.44254 75.1117 -1.11101 74.5284 0.172297C72.5451 4.54719 71.2151 9.48498 68.1323 13.2445Z" fill="#FFDF00"/>
<g style="mix-blend-mode:multiply" opacity="0.5">
<g style="mix-blend-mode:multiply" opacity="0.5">
<path d="M27.796 26.1636L27.3936 25.8545C28.426 24.5157 29.6802 23.0049 31.1589 21.9316C32.8815 20.7426 34.6778 19.6642 36.5371 18.703L37.5579 18.1459C40.9937 16.2589 44.8173 15.0981 48.5185 13.9781C52.6425 12.7298 56.9095 11.4377 60.5961 9.13071C66.7647 5.26914 72.4958 -0.494054 78.1131 -8.52344L78.5273 -8.23178C72.8691 -0.155728 67.0913 5.66288 60.8644 9.55945C57.1224 11.8927 52.8234 13.2052 48.6643 14.4652C44.9894 15.5764 41.192 16.7284 37.8029 18.5892L36.7792 19.1492C34.9412 20.1011 33.1645 21.1667 31.4593 22.34C30.0302 23.3783 28.8052 24.8541 27.796 26.1636Z" fill="#F2D65F"/>
</g>
</g>
<path d="M144.664 74.831C141.807 67.3826 138.547 60.0949 134.899 53.0003C131.254 45.9123 127.137 39.0779 122.574 32.5433C118.014 26.02 112.943 19.8699 107.407 14.1513C101.876 8.44266 95.8573 3.22656 89.4206 -1.4379C89.2369 -1.57059 89.1134 -1.77079 89.0773 -1.99449C89.0412 -2.21818 89.0954 -2.44706 89.2281 -2.63079C89.2938 -2.72215 89.3769 -2.79962 89.4727 -2.85877C89.5684 -2.91792 89.6749 -2.95758 89.786 -2.97547C89.8971 -2.99335 90.0106 -2.98912 90.1201 -2.963C90.2296 -2.93688 90.3328 -2.8894 90.4239 -2.82328C96.8816 1.97257 102.91 7.32137 108.44 13.1626C113.953 18.9966 118.995 25.2598 123.516 31.8929C128.025 38.5155 132.085 45.4337 135.666 52.6008C139.241 59.762 142.425 67.1119 145.203 74.6181C145.218 74.6864 145.208 74.7578 145.175 74.8191C145.141 74.8805 145.087 74.9279 145.022 74.9526C144.956 74.9774 144.884 74.9778 144.818 74.9539C144.753 74.93 144.698 74.8833 144.664 74.8223V74.831Z" fill="#1DA1F2"/>
<path d="M123.49 33.8243C123.88 33.2409 125.31 32.9959 125.846 32.9493C127.841 32.7305 129.891 33.3955 131.776 33.8243C135.039 34.5622 138.285 35.4284 141.38 36.7088C144.429 37.9224 147.248 39.6487 149.716 41.8128C152.341 44.1869 158.124 49.1364 160.46 51.7759C159.897 51.1401 157.926 50.7755 157.115 50.5013C152.516 48.9322 143.903 46.3714 139.356 44.5632C134.307 42.5536 129.83 39.532 125.511 36.28C125.018 35.9096 123.303 34.8567 123.396 34.0926C123.405 33.9968 123.437 33.9046 123.49 33.8243Z" fill="#1DA1F2"/>
<path d="M159.954 66.7798C159.755 66.9227 159.265 66.7623 158.787 66.4882C157.823 65.9217 156.81 65.4443 155.76 65.062C154.176 64.5195 150.134 62.2679 148.623 61.5212C145.032 59.745 141.576 57.6538 138.619 54.9297C136.34 52.8444 134.302 50.5102 132.544 47.9707C132.304 47.6266 131.82 47.2591 132.205 46.7807C132.497 46.4016 132.961 46.6145 133.34 46.7457C137.942 48.3382 142.437 50.1552 146.569 52.7598C151.003 55.5568 157.148 61.3725 159.764 65.8669C160.082 66.4123 160.097 66.6836 159.954 66.7798Z" fill="#1DA1F2"/>
<path d="M115.958 20.6436C121.316 20.4599 126.896 20.7195 132.443 21.8482C135.462 22.4253 138.405 23.3441 141.216 24.5869C142.631 25.2344 144.197 25.9548 145.416 26.9406C146.516 27.8156 147.802 28.5826 148.814 29.5888C148.592 29.3759 145.813 29.8076 145.337 29.8251C144.109 29.8688 142.881 29.8922 141.654 29.8834C139.159 29.8797 136.668 29.7229 134.193 29.4138C129.199 28.818 124.357 27.3167 119.902 24.9835C118.408 24.1815 116.781 23.6652 115.235 23.0061C114.73 22.7932 113.928 22.9215 113.998 21.9794C114.057 21.1745 114.62 20.8682 115.305 20.7632L115.958 20.6436Z" fill="#1DA1F2"/>
<path d="M112.27 10.6772C116.683 10.2835 121.227 10.3856 125.526 11.5756C128.724 12.4819 131.751 13.9087 134.485 15.7988C134.905 16.0904 138.37 18.4237 138.16 18.7883C138.047 18.9895 135.874 18.5316 135.582 18.4966C134.643 18.38 133.703 18.2672 132.762 18.1583C130.268 17.8667 127.771 17.5546 125.278 17.2833C120.767 16.5198 116.318 15.4281 111.966 14.0167C110.665 13.6329 109.328 13.3779 107.977 13.2555C107.533 13.203 107.046 13.1943 106.994 12.608C106.941 12.0218 107.37 11.8906 107.816 11.7622C109.505 11.2839 111.153 10.7006 112.27 10.6772Z" fill="#1DA1F2"/>
<path d="M158.462 78.5875C158.777 79.1358 159.229 79.7542 159.319 80.3637C159.209 79.9291 157.301 79.1971 156.922 78.9725C155.821 78.3572 154.766 77.6642 153.763 76.8988C151.077 74.8426 148.767 72.3693 146.451 69.9165C144.623 67.9682 142.718 66.0957 140.849 64.1854C140.592 63.9485 140.355 63.6899 140.143 63.4125C139.906 63.0771 139.799 62.6687 140.09 62.3158C140.382 61.9629 140.735 62.1758 141.05 62.3158C142.484 62.9665 143.851 63.7548 145.133 64.6695C148.187 66.8132 151.17 69.1057 153.746 71.8152C155.747 73.9064 157.097 76.1988 158.462 78.5875Z" fill="#1DA1F2"/>
<path d="M109.111 20.8566C108.939 26.5586 107.446 31.3301 105.259 35.9209C104.15 38.2541 103.044 40.5874 101.939 42.9207C101.799 43.2123 101.849 43.7461 101.374 43.6615C100.898 43.5769 101.044 43.0403 100.942 42.6786C99.5587 37.8106 99.7002 32.6357 101.347 27.8506C103.302 22.3383 106.758 16.7472 105.139 10.6777C105.212 10.949 106.621 11.8035 106.918 12.2119C107.489 13.0864 107.932 14.0381 108.233 15.038C108.863 16.8901 109.295 18.885 109.111 20.8566Z" fill="#1DA1F2"/>
<path d="M109.802 49.4798C109.388 46.1841 109.432 42.8469 109.933 39.5633C110.864 33.8818 111.943 28.2207 113.384 22.6121C113.515 22.0988 113.384 21.2734 114.311 21.2617C115.058 21.2617 115.227 21.8975 115.478 22.4546C116.729 25.202 117.633 28.5795 117.382 31.636C117.169 34.2289 117.19 36.8859 116.825 39.4613C115.991 45.3645 113.279 52.2301 111.96 58.0166C111.829 58.6 111.713 59.2212 111.917 59.7812C110.73 56.9404 110.14 52.5218 109.802 49.4798Z" fill="#1DA1F2"/>
<path d="M125.934 38.7231C126.602 44.8159 125.955 50.9728 124.651 56.9489C123.977 60.0172 123.129 63.0446 122.169 66.037C121.419 68.3703 120.679 72.7452 118.937 74.4397C117.327 72.8998 117.091 70.0911 116.954 67.997C116.549 61.7817 117.415 55.7735 118.509 49.6778C119.514 44.2688 120.816 38.9194 122.411 33.6541C122.554 33.1728 122.63 32.6128 123.254 32.5691C123.878 32.5253 124.205 33.0241 124.438 33.5549C125.185 35.1959 125.689 36.9369 125.934 38.7231Z" fill="#1DA1F2"/>
<path d="M141.887 72.654C141.558 76.291 140.461 80.0417 139.326 83.5008C138.743 85.2974 138.072 87.0668 137.314 88.809C136.652 90.3315 136.241 92.1893 135.366 93.5747C134.567 90.8944 134.569 88.0886 134.345 85.3587C133.718 77.6647 137.553 70.6561 139.329 63.3501C139.426 62.9622 139.525 62.513 139.997 62.4751C140.616 62.4313 140.788 62.9884 140.925 63.4259C141.849 66.4088 142.176 69.5446 141.887 72.654Z" fill="#1DA1F2"/>
<path d="M134.034 52.4639C134.434 56.9088 134.512 61.4178 133.801 65.8365C133.46 67.9936 132.913 70.113 132.167 72.1655C131.584 73.7404 130.616 75.8841 129.472 77.1237C128.805 75.9804 128.965 73.965 128.86 72.6671C128.478 68.3404 128.589 63.9842 129.19 59.6824C129.747 55.9142 130.484 52.1693 131.152 48.4156C131.249 47.8644 131.275 47.1148 131.963 47.074C132.722 47.0303 132.838 47.8236 133.031 48.3806C133.526 49.697 133.863 51.0677 134.034 52.4639Z" fill="#1DA1F2"/>
<path d="M153.151 91.7742C153.468 93.4248 153.692 95.0918 153.822 96.7674C153.972 98.364 154.028 99.9679 153.991 101.571C153.993 101.587 153.992 101.602 153.987 101.618C153.983 101.633 153.975 101.647 153.965 101.659C153.912 101.711 153.828 101.644 153.787 101.583C152.395 99.5456 151.128 97.4252 149.995 95.2333C148.743 92.8762 147.671 90.4281 146.787 87.9097C146.112 85.9916 145.587 84.0238 145.218 82.024C144.853 80.0203 144.591 77.9991 144.273 75.9867C143.999 74.2805 143.766 72.5684 143.523 70.8477C145.273 73.9742 147.47 76.7479 149.065 79.9153C150.814 83.3544 152.12 87.0009 152.953 90.768C153.002 91.1034 153.072 91.4388 153.151 91.7742Z" fill="#1DA1F2"/>
<path d="M108.749 12.4502C108.003 11.1202 107.239 9.82523 106.437 8.55943C104.287 5.1536 101.918 1.89175 99.3434 -1.20533C99.008 -1.61365 98.6697 -2.02197 98.3226 -2.42738L98.1359 -2.64904L98.0601 -2.73654C97.9405 -2.87945 97.8209 -3.0282 97.6955 -3.15944L97.6634 -3.19736C97.6168 -3.25278 97.573 -3.30819 97.5234 -3.36069C97.5163 -3.37173 97.5074 -3.38157 97.4972 -3.38986L97.3309 -3.58235C97.3166 -3.60181 97.301 -3.62032 97.2843 -3.63777L97.258 -3.66985C97.244 -3.68314 97.2313 -3.69779 97.2201 -3.7136C97.2068 -3.73208 97.1911 -3.74875 97.1734 -3.76318C97.1698 -3.77728 97.1628 -3.79029 97.153 -3.8011L97.0918 -3.87109C97.0918 -3.84193 97.0918 -3.80985 97.1151 -3.7836C97.1168 -3.76809 97.1168 -3.75244 97.1151 -3.73693C97.1151 -3.69318 97.1326 -3.67277 97.1355 -3.65527C97.1431 -3.6314 97.1489 -3.60704 97.153 -3.58235C97.1612 -3.55943 97.168 -3.53606 97.1734 -3.51235C97.188 -3.45402 97.1968 -3.41611 97.2084 -3.37819C97.2201 -3.34027 97.2084 -3.34027 97.2084 -3.32277C97.2084 -3.30527 97.2318 -3.23819 97.2405 -3.19444C97.2726 -3.06903 97.3018 -2.94362 97.3309 -2.82112C97.3309 -2.77154 97.3543 -2.72779 97.363 -2.68404C97.3718 -2.64029 97.363 -2.65487 97.363 -2.64029C97.3834 -2.56738 97.3835 -2.55571 97.3893 -2.54113C97.4126 -2.43321 97.436 -2.33113 97.4593 -2.22905C97.5118 -2.01322 97.5555 -1.80323 97.6022 -1.59323C97.6955 -1.15574 97.783 -0.718256 97.8647 -0.292433C98.6317 3.77038 98.8884 7.59987 99.288 11.9573C99.4863 15.323 100.288 18.7704 100.694 22.1653C100.837 23.367 100.985 24.5715 101.193 25.7732C101.91 30.5716 103.123 35.2827 104.812 39.8312C106.049 43.1335 107.642 46.2913 109.563 49.2488C110.199 50.2113 111.243 52.005 112.503 53.5333C112.774 53.8658 113.06 54.1837 113.352 54.4812C113.943 55.12 114.655 55.6355 115.446 55.9978C115.858 56.1764 116.307 56.2573 116.755 56.2341C116.964 56.2197 117.17 56.1795 117.368 56.1145C120.305 55.1462 119.722 48.7559 119.62 46.5685C119.188 37.527 116.388 28.681 112.719 20.4708C111.482 17.6184 110.161 14.973 108.749 12.4502Z" fill="#FFDF00"/>
<path d="M64.8367 25.7241C67.9633 19.7655 72.7873 14.8102 78.078 10.6773C78.8558 10.0726 79.6335 9.48932 80.4113 8.92739C82.6337 7.32035 84.7482 5.42748 87.0378 3.96918C90.5377 1.57758 93.6118 -0.373626 96.7034 -3.21731L97.1 -3.58771C97.1134 -3.59961 97.126 -3.61227 97.1379 -3.62563L97.1788 -3.66063L97.1992 -3.68396L97.2284 -3.70729L97.2896 -3.76562C97.2811 -3.74683 97.2743 -3.72731 97.2692 -3.70729C97.2607 -3.69153 97.2538 -3.67491 97.2488 -3.65771C97.2488 -3.6198 97.2313 -3.60521 97.2225 -3.58771C97.2242 -3.5722 97.2242 -3.55656 97.2225 -3.54105C97.2225 -3.5148 97.205 -3.48855 97.1934 -3.46522L97.135 -3.30189C97.0942 -3.19981 97.0621 -3.10064 97.0242 -3.01023C97.0067 -2.96065 96.9921 -2.91981 96.9776 -2.88481C96.9685 -2.8639 96.9607 -2.84247 96.9542 -2.82065C96.9075 -2.70107 96.8638 -2.58149 96.82 -2.46191C96.1142 -0.595287 95.3822 1.18092 94.5976 2.89879V2.91921C92.3545 7.81159 89.5775 12.4411 86.3174 16.7234C81.9775 22.5071 76.8443 27.929 70.6582 31.7556C69.3078 32.5897 65.7 35.0309 63.6729 34.2638C63.4494 34.181 63.2444 34.0551 63.0692 33.8934C61.0568 32.0356 63.9179 27.474 64.8367 25.7241Z" fill="#FFDF00"/>
<path d="M84.5419 43.1155C84.0373 35.8823 85.6006 28.41 88.0418 21.3489C88.3957 20.3165 88.768 19.2957 89.1588 18.2865C90.2526 15.4312 91.0809 12.3862 92.3146 9.62422C94.0646 5.39808 95.6512 1.81067 96.8237 -2.47089C96.8499 -2.57006 96.8791 -2.66922 96.9053 -2.76255C96.904 -2.77808 96.904 -2.79369 96.9053 -2.80922C96.9053 -2.85588 96.9287 -2.89088 96.9374 -2.93463C96.9957 -3.15338 97.0541 -3.37504 97.1095 -3.59961C97.1095 -3.6317 97.1241 -3.66378 97.1299 -3.69586C97.1329 -3.71029 97.1329 -3.72518 97.1299 -3.73961C97.1312 -3.75416 97.1312 -3.76881 97.1299 -3.78336V-3.81836C97.1313 -3.79797 97.1313 -3.7775 97.1299 -3.75711C97.1329 -3.74465 97.1329 -3.73166 97.1299 -3.7192C97.1287 -3.70561 97.1287 -3.69195 97.1299 -3.67836C97.1299 -3.62878 97.1474 -3.5967 97.1532 -3.56753C97.1591 -3.53837 97.1766 -3.4567 97.1853 -3.40712C97.1941 -3.35754 97.2116 -3.28462 97.2203 -3.22337C97.2215 -3.21467 97.2215 -3.20583 97.2203 -3.19712C97.2582 -3.00171 97.2961 -2.81797 97.3311 -2.63422C97.3298 -2.61675 97.3298 -2.5992 97.3311 -2.58172C97.3298 -2.56133 97.3298 -2.54087 97.3311 -2.52047C97.3486 -2.42423 97.3691 -2.32506 97.3895 -2.22882L97.4857 -1.71549C98.2994 2.5333 98.7733 6.84014 98.9032 11.1642C98.9902 14.5196 98.885 17.8772 98.5882 21.2206C97.9145 29.0954 96.3366 37.1802 92.9388 44.5534C92.1659 46.2275 90.1826 51.0224 87.826 51.3724C87.673 51.3927 87.5181 51.3927 87.3651 51.3724C84.6585 51.0894 84.6906 45.2417 84.5419 43.1155Z" fill="#FFDF00"/>
<path d="M97.6804 -2.90614C97.6645 -2.92761 97.6498 -2.95001 97.6366 -2.97322C97.5929 -3.0403 97.5491 -3.10739 97.5053 -3.1803C97.504 -3.18704 97.504 -3.19398 97.5053 -3.20072L97.3245 -3.49238C97.3087 -3.51589 97.294 -3.54023 97.2808 -3.56529C97.2674 -3.58056 97.2557 -3.59717 97.2458 -3.61487C97.2325 -3.63436 97.2208 -3.65484 97.2108 -3.67612L97.1729 -3.73445V-3.75195C97.1841 -3.74726 97.1949 -3.74139 97.205 -3.73445L97.237 -3.71404L97.2691 -3.69362L97.307 -3.67029L97.3508 -3.64112L97.4674 -3.56821L98.0507 -3.20655L98.1849 -3.12489C102.061 -0.79161 105.742 0.695853 109.991 2.55956C112.797 3.6912 115.507 5.30991 118.272 6.60487C119.255 7.06569 120.232 7.54402 121.203 8.03984C127.853 11.4406 134.161 15.7396 138.816 21.2958C139.668 22.3137 141.569 24.3203 142.447 26.2131C142.981 27.3623 143.138 28.4647 142.447 29.2756C140.796 31.2501 135.523 28.9402 133.697 28.2256C126.132 25.2652 119.389 20.5404 113.436 15.3342C110.985 13.2033 108.654 10.9385 106.453 8.55024C103.199 4.99567 100.264 1.16215 97.6804 -2.90614Z" fill="#FFDF00"/>
<path d="M97.1064 -3.72446H97.3369H97.7714C102.033 -3.79738 105.617 -4.52361 109.855 -5.23818C112.512 -5.77483 115.361 -5.86233 118.074 -6.24732C119.036 -6.38148 120.008 -6.50106 120.99 -6.60023C127.669 -7.28563 134.582 -7.04938 140.963 -4.92318C141.987 -4.58194 144.017 -4.04821 145.63 -3.17323C146.954 -2.45283 147.986 -1.51077 147.914 -0.282884C147.768 2.20205 142.664 3.06537 140.96 3.43286C133.847 4.95824 126.377 4.59949 119.252 3.43286C112.024 2.30177 105.004 0.0998626 98.4248 -3.10031L98.2118 -3.20531L97.4448 -3.55822L97.3748 -3.59322L97.3281 -3.61655L97.2873 -3.63697L97.2552 -3.65155L97.194 -3.68363L97.1356 -3.70988L97.1064 -3.72446Z" fill="#FFDF00"/>
<g opacity="0.3">
<path opacity="0.3" d="M96.757 -3.33625C96.8141 -3.38521 96.8842 -3.41652 96.9587 -3.42635C97.0333 -3.43619 97.1091 -3.42414 97.1769 -3.39167C97.2551 -3.35425 97.3183 -3.29158 97.3564 -3.21378C97.3945 -3.13598 97.4053 -3.0476 97.387 -2.96293C96.4916 1.25447 96.2903 5.66144 96.092 9.92259C95.8149 15.9833 95.5262 22.251 93.2337 28.023C93.2146 28.0701 93.1863 28.113 93.1506 28.1492C93.1149 28.1853 93.0724 28.2142 93.0255 28.2339C92.9787 28.2537 92.9284 28.264 92.8775 28.2644C92.8267 28.2647 92.7763 28.255 92.7291 28.2359C92.682 28.2167 92.6392 28.1885 92.603 28.1528C92.5668 28.117 92.538 28.0745 92.5182 28.0277C92.4984 27.9808 92.4881 27.9305 92.4878 27.8797C92.4874 27.8288 92.4971 27.7784 92.5162 27.7313C94.762 22.076 95.0449 15.8754 95.322 9.87884C95.4941 6.08727 95.6749 2.17319 96.3428 -1.63879C91.6267 4.02523 86.6364 9.44427 81.369 15.1287C79.8816 16.7426 78.3892 18.3632 76.8921 19.9907C76.8578 20.029 76.8163 20.0601 76.7699 20.0824C76.7236 20.1047 76.6734 20.1176 76.622 20.1204C76.5707 20.1233 76.5193 20.116 76.4708 20.099C76.4223 20.082 76.3777 20.0556 76.3394 20.0213C76.3011 19.987 76.2699 19.9455 76.2476 19.8992C76.2253 19.8529 76.2124 19.8026 76.2096 19.7513C76.2067 19.7 76.214 19.6486 76.2311 19.6001C76.2481 19.5516 76.2745 19.5069 76.3087 19.4686C77.802 17.8372 79.2953 16.2166 80.7886 14.6066C86.406 8.52262 91.7113 2.77693 96.6957 -3.29542C96.7141 -3.31193 96.7347 -3.32569 96.757 -3.33625Z" fill="white"/>
<path opacity="0.3" d="M97.1006 -3.38672C100.309 4.95182 104.862 15.6295 108.07 23.968L97.1006 -3.38672Z" fill="#44768B"/>
<path opacity="0.3" d="M96.8618 -3.68045C96.8955 -3.70856 96.934 -3.7303 96.9755 -3.74461C97.0228 -3.76334 97.0733 -3.77244 97.1241 -3.7714C97.1749 -3.77036 97.225 -3.7592 97.2714 -3.73855C97.3179 -3.71791 97.3597 -3.68821 97.3946 -3.65119C97.4294 -3.61417 97.4565 -3.57057 97.4742 -3.52295C99.0784 0.641947 101.047 5.47183 102.955 10.1442C104.862 14.8166 106.837 19.6552 108.444 23.8289C108.463 23.8764 108.472 23.9272 108.472 23.9784C108.471 24.0296 108.461 24.0802 108.441 24.1273C108.421 24.1744 108.392 24.2172 108.355 24.253C108.318 24.2889 108.275 24.3172 108.228 24.3364C108.18 24.3555 108.129 24.3651 108.078 24.3646C108.027 24.3642 107.976 24.3536 107.929 24.3335C107.882 24.3135 107.839 24.2844 107.804 24.2478C107.768 24.2113 107.739 24.168 107.72 24.1205C106.119 19.9556 104.147 15.1228 102.24 10.4505C100.332 5.77807 98.3463 0.924857 96.7393 -3.24587C96.7131 -3.32217 96.7108 -3.40464 96.7327 -3.48229C96.7546 -3.55993 96.7996 -3.62906 96.8618 -3.68045Z" fill="white"/>
<path opacity="0.3" d="M126.652 15.6507C116.46 10.0152 106.648 3.7184 97.2793 -3.19922L126.652 15.6507Z" fill="#44768B"/>
<path opacity="0.3" d="M97.0317 -3.49396C97.0983 -3.55073 97.1823 -3.58311 97.2697 -3.58576C97.3572 -3.58841 97.443 -3.56118 97.5129 -3.50855C106.866 3.40024 116.662 9.68737 126.839 15.3122C126.887 15.335 126.93 15.3673 126.965 15.4072C127 15.4471 127.026 15.4938 127.042 15.5443C127.058 15.5948 127.064 15.6481 127.059 15.7009C127.054 15.7537 127.038 15.8048 127.012 15.8512C126.986 15.8975 126.951 15.9381 126.909 15.9704C126.867 16.0027 126.819 16.026 126.767 16.0389C126.716 16.0518 126.662 16.054 126.61 16.0454C126.558 16.0368 126.508 16.0176 126.463 15.9889C116.256 10.3456 106.431 4.03904 97.0492 -2.89023C97.0082 -2.92019 96.9736 -2.95802 96.9474 -3.0015C96.9212 -3.04499 96.9039 -3.09326 96.8966 -3.14349C96.8892 -3.19372 96.892 -3.24492 96.9047 -3.29408C96.9174 -3.34323 96.9397 -3.38937 96.9704 -3.4298C96.9878 -3.45392 97.0084 -3.47551 97.0317 -3.49396Z" fill="white"/>
</g>
</svg>
