<svg width="105" height="110" viewBox="0 0 105 110" fill="none" xmlns="http://www.w3.org/2000/svg">
<path fill-rule="evenodd" clip-rule="evenodd" d="M80.2229 54.3125L91.4849 70.4555H76.8441L105 100.489H0.259766L16.778 82.4697C44.5589 86.9744 65.5814 76.4629 80.2224 54.314L80.2229 54.3125Z" fill="#A6B4CD"/>
<path fill-rule="evenodd" clip-rule="evenodd" d="M72.7141 32.9141L75.7175 38.1702H69.3353L77.9694 50.9345C64.4546 71.9575 45.6851 82.0946 20.1548 79.0902L28.0383 70.4561H13.3975L26.1617 52.4365C45.3073 53.1872 60.6989 46.0544 72.7124 32.9147L72.7141 32.9141Z" fill="#A6B4CD"/>
<path fill-rule="evenodd" clip-rule="evenodd" d="M52.4437 -2L70.4632 29.1601C59.5764 41.549 46.0615 48.3057 28.793 48.3057L35.9257 38.1696H29.1681L52.4435 -1.99956L52.4437 -2Z" fill="#A6B4CD"/>
<path fill-rule="evenodd" clip-rule="evenodd" d="M43.8086 90.3516H63.3304V114.379C63.3304 117.382 60.7024 120.01 57.6988 120.01H49.0648C46.0614 120.01 43.8086 117.382 43.8086 114.379V90.3516Z" fill="#A6B4CD"/>
</svg>
