<svg width="118" height="134" viewBox="0 0 118 134" fill="none" xmlns="http://www.w3.org/2000/svg">
<rect width="118" height="134" rx="12" fill="white"/>
<rect x="12" y="12" width="94" height="110" rx="12" fill="#F4F4F4"/>
<g opacity="0.5" clip-path="url(#clip0_1270_27090)">
<path d="M69.6516 55.1948C69.5049 55.1948 69.3583 55.1582 69.2299 55.0848C65.7099 53.2698 62.6666 52.4998 59.0183 52.4998C55.3883 52.4998 51.9416 53.3615 48.8066 55.0848C48.3666 55.3232 47.8166 55.1582 47.5599 54.7182C47.3216 54.2782 47.4866 53.7098 47.9266 53.4715C51.3366 51.6198 55.0766 50.6665 59.0183 50.6665C62.9233 50.6665 66.3333 51.5282 70.0733 53.4532C70.5316 53.6915 70.6966 54.2415 70.4583 54.6815C70.2933 55.0115 69.9816 55.1948 69.6516 55.1948ZM43.4166 64.8198C43.2333 64.8198 43.0499 64.7648 42.8849 64.6548C42.4633 64.3615 42.3716 63.7932 42.6649 63.3715C44.4799 60.8048 46.7899 58.7882 49.5399 57.3765C55.2966 54.4065 62.6666 54.3882 68.4416 57.3582C71.1916 58.7698 73.5016 60.7682 75.3166 63.3165C75.6099 63.7198 75.5183 64.3065 75.0966 64.5998C74.6749 64.8932 74.1066 64.8015 73.8133 64.3798C72.1633 62.0698 70.0733 60.2548 67.5983 58.9898C62.3366 56.2948 55.6083 56.2948 50.3649 59.0082C47.8716 60.2915 45.7816 62.1248 44.1316 64.4348C43.9849 64.6915 43.7099 64.8198 43.4166 64.8198ZM54.8749 86.9482C54.6366 86.9482 54.3983 86.8565 54.2333 86.6732C52.6383 85.0782 51.7766 84.0515 50.5483 81.8332C49.2833 79.5782 48.6233 76.8282 48.6233 73.8765C48.6233 68.4315 53.2799 63.9948 58.9999 63.9948C64.7199 63.9948 69.3766 68.4315 69.3766 73.8765C69.3766 74.3898 68.9733 74.7932 68.4599 74.7932C67.9466 74.7932 67.5433 74.3898 67.5433 73.8765C67.5433 69.4398 63.7116 65.8282 58.9999 65.8282C54.2883 65.8282 50.4566 69.4398 50.4566 73.8765C50.4566 76.5165 51.0433 78.9548 52.1616 80.9348C53.3349 83.0432 54.1416 83.9415 55.5533 85.3715C55.9016 85.7382 55.9016 86.3065 55.5533 86.6732C55.3516 86.8565 55.1133 86.9482 54.8749 86.9482ZM68.0199 83.5565C65.8383 83.5565 63.9133 83.0065 62.3366 81.9248C59.6049 80.0732 57.9733 77.0665 57.9733 73.8765C57.9733 73.3632 58.3766 72.9598 58.8899 72.9598C59.4033 72.9598 59.8066 73.3632 59.8066 73.8765C59.8066 76.4615 61.1266 78.8998 63.3633 80.4032C64.6649 81.2832 66.1866 81.7048 68.0199 81.7048C68.4599 81.7048 69.1933 81.6498 69.9266 81.5215C70.4216 81.4298 70.8983 81.7598 70.9899 82.2732C71.0816 82.7682 70.7516 83.2448 70.2383 83.3365C69.1933 83.5382 68.2766 83.5565 68.0199 83.5565ZM64.3349 87.3332C64.2616 87.3332 64.1699 87.3148 64.0966 87.2965C61.1816 86.4898 59.2749 85.4082 57.2766 83.4465C54.7099 80.8982 53.2983 77.5065 53.2983 73.8765C53.2983 70.9065 55.8283 68.4865 58.9449 68.4865C62.0616 68.4865 64.5916 70.9065 64.5916 73.8765C64.5916 75.8382 66.2966 77.4332 68.4049 77.4332C70.5133 77.4332 72.2183 75.8382 72.2183 73.8765C72.2183 66.9648 66.2599 61.3548 58.9266 61.3548C53.7199 61.3548 48.9533 64.2515 46.8083 68.7432C46.0933 70.2282 45.7266 71.9698 45.7266 73.8765C45.7266 75.3065 45.8549 77.5615 46.9549 80.4948C47.1383 80.9715 46.8999 81.5032 46.4233 81.6682C45.9466 81.8515 45.4149 81.5948 45.2499 81.1365C44.3516 78.7348 43.9116 76.3515 43.9116 73.8765C43.9116 71.6765 44.3333 69.6782 45.1583 67.9365C47.5966 62.8215 53.0049 59.5032 58.9266 59.5032C67.2683 59.5032 74.0516 65.9382 74.0516 73.8582C74.0516 76.8282 71.5216 79.2482 68.4049 79.2482C65.2883 79.2482 62.7583 76.8282 62.7583 73.8582C62.7583 71.8965 61.0533 70.3015 58.9449 70.3015C56.8366 70.3015 55.1316 71.8965 55.1316 73.8582C55.1316 76.9932 56.3416 79.9265 58.5599 82.1265C60.3016 83.8498 61.9699 84.8032 64.5549 85.5182C65.0499 85.6465 65.3249 86.1598 65.1966 86.6365C65.1049 87.0582 64.7199 87.3332 64.3349 87.3332Z" fill="#323232"/>
</g>
<mask id="mask0_1270_27090" style="mask-type:alpha" maskUnits="userSpaceOnUse" x="34" y="43" width="50" height="26">
<rect x="34" y="43" width="50" height="26" fill="#4A9C52"/>
</mask>
<g mask="url(#mask0_1270_27090)">
<path d="M69.6516 55.1953C69.5049 55.1953 69.3583 55.1587 69.2299 55.0853C65.7099 53.2703 62.6666 52.5003 59.0183 52.5003C55.3883 52.5003 51.9416 53.362 48.8066 55.0853C48.3666 55.3237 47.8166 55.1587 47.5599 54.7187C47.3216 54.2787 47.4866 53.7103 47.9266 53.472C51.3366 51.6203 55.0766 50.667 59.0183 50.667C62.9233 50.667 66.3333 51.5287 70.0733 53.4537C70.5316 53.692 70.6966 54.242 70.4583 54.682C70.2933 55.012 69.9816 55.1953 69.6516 55.1953ZM43.4166 64.8203C43.2333 64.8203 43.0499 64.7653 42.8849 64.6553C42.4633 64.362 42.3716 63.7937 42.6649 63.372C44.4799 60.8053 46.7899 58.7887 49.5399 57.377C55.2966 54.407 62.6666 54.3887 68.4416 57.3587C71.1916 58.7703 73.5016 60.7687 75.3166 63.317C75.6099 63.7203 75.5183 64.307 75.0966 64.6003C74.6749 64.8937 74.1066 64.802 73.8133 64.3803C72.1633 62.0703 70.0733 60.2553 67.5983 58.9903C62.3366 56.2953 55.6083 56.2953 50.3649 59.0087C47.8716 60.292 45.7816 62.1253 44.1316 64.4353C43.9849 64.692 43.7099 64.8203 43.4166 64.8203ZM54.8749 86.9487C54.6366 86.9487 54.3983 86.857 54.2333 86.6737C52.6383 85.0787 51.7766 84.052 50.5483 81.8337C49.2833 79.5787 48.6233 76.8287 48.6233 73.877C48.6233 68.432 53.2799 63.9953 58.9999 63.9953C64.7199 63.9953 69.3766 68.432 69.3766 73.877C69.3766 74.3903 68.9733 74.7937 68.4599 74.7937C67.9466 74.7937 67.5433 74.3903 67.5433 73.877C67.5433 69.4403 63.7116 65.8287 58.9999 65.8287C54.2883 65.8287 50.4566 69.4403 50.4566 73.877C50.4566 76.517 51.0433 78.9553 52.1616 80.9353C53.3349 83.0437 54.1416 83.942 55.5533 85.372C55.9016 85.7387 55.9016 86.307 55.5533 86.6737C55.3516 86.857 55.1133 86.9487 54.8749 86.9487ZM68.0199 83.557C65.8383 83.557 63.9133 83.007 62.3366 81.9253C59.6049 80.0737 57.9733 77.067 57.9733 73.877C57.9733 73.3637 58.3766 72.9603 58.8899 72.9603C59.4033 72.9603 59.8066 73.3637 59.8066 73.877C59.8066 76.462 61.1266 78.9003 63.3633 80.4037C64.6649 81.2837 66.1866 81.7053 68.0199 81.7053C68.4599 81.7053 69.1933 81.6503 69.9266 81.522C70.4216 81.4303 70.8983 81.7603 70.9899 82.2737C71.0816 82.7687 70.7516 83.2453 70.2383 83.337C69.1933 83.5387 68.2766 83.557 68.0199 83.557ZM64.3349 87.3337C64.2616 87.3337 64.1699 87.3153 64.0966 87.297C61.1816 86.4903 59.2749 85.4087 57.2766 83.447C54.7099 80.8987 53.2983 77.507 53.2983 73.877C53.2983 70.907 55.8283 68.487 58.9449 68.487C62.0616 68.487 64.5916 70.907 64.5916 73.877C64.5916 75.8387 66.2966 77.4337 68.4049 77.4337C70.5133 77.4337 72.2183 75.8387 72.2183 73.877C72.2183 66.9653 66.2599 61.3553 58.9266 61.3553C53.7199 61.3553 48.9533 64.252 46.8083 68.7437C46.0933 70.2287 45.7266 71.9703 45.7266 73.877C45.7266 75.307 45.8549 77.562 46.9549 80.4953C47.1383 80.972 46.8999 81.5037 46.4233 81.6687C45.9466 81.852 45.4149 81.5953 45.2499 81.137C44.3516 78.7353 43.9116 76.352 43.9116 73.877C43.9116 71.677 44.3333 69.6787 45.1583 67.937C47.5966 62.822 53.0049 59.5037 58.9266 59.5037C67.2683 59.5037 74.0516 65.9387 74.0516 73.8587C74.0516 76.8287 71.5216 79.2487 68.4049 79.2487C65.2883 79.2487 62.7583 76.8287 62.7583 73.8587C62.7583 71.897 61.0533 70.302 58.9449 70.302C56.8366 70.302 55.1316 71.897 55.1316 73.8587C55.1316 76.9937 56.3416 79.927 58.5599 82.127C60.3016 83.8503 61.9699 84.8037 64.5549 85.5187C65.0499 85.647 65.3249 86.1603 65.1966 86.637C65.1049 87.0587 64.7199 87.3337 64.3349 87.3337Z" fill="#4A9C52"/>
</g>
<g filter="url(#filter0_d_1270_27090)">
<line x1="25" y1="68.5" x2="92" y2="68.5" stroke="#4A9C52"/>
</g>
<defs>
<filter id="filter0_d_1270_27090" x="21" y="68" width="75" height="9" filterUnits="userSpaceOnUse" color-interpolation-filters="sRGB">
<feFlood flood-opacity="0" result="BackgroundImageFix"/>
<feColorMatrix in="SourceAlpha" type="matrix" values="0 0 0 0 0 0 0 0 0 0 0 0 0 0 0 0 0 0 127 0" result="hardAlpha"/>
<feOffset dy="4"/>
<feGaussianBlur stdDeviation="2"/>
<feComposite in2="hardAlpha" operator="out"/>
<feColorMatrix type="matrix" values="0 0 0 0 0.290196 0 0 0 0 0.611765 0 0 0 0 0.321569 0 0 0 1 0"/>
<feBlend mode="normal" in2="BackgroundImageFix" result="effect1_dropShadow_1270_27090"/>
<feBlend mode="normal" in="SourceGraphic" in2="effect1_dropShadow_1270_27090" result="shape"/>
</filter>
<clipPath id="clip0_1270_27090">
<rect width="44" height="44" fill="white" transform="translate(37 47)"/>
</clipPath>
</defs>
</svg>
