<svg width="134" height="240" viewBox="0 0 134 240" fill="none" xmlns="http://www.w3.org/2000/svg">
<rect width="134" height="240" rx="12" fill="white"/>
<path d="M26.1271 164.636H26.875L28.0149 166.62H28.0618L29.2017 164.636H29.9496L28.3665 167.287V169H27.7102V167.287L26.1271 164.636ZM31.3596 169.066C31.0527 169.066 30.785 168.996 30.5563 168.855C30.3276 168.714 30.15 168.518 30.0236 168.265C29.8972 168.012 29.834 167.717 29.834 167.379C29.834 167.039 29.8972 166.742 30.0236 166.488C30.15 166.234 30.3276 166.036 30.5563 165.896C30.785 165.755 31.0527 165.685 31.3596 165.685C31.6664 165.685 31.9341 165.755 32.1628 165.896C32.3915 166.036 32.5691 166.234 32.6955 166.488C32.8219 166.742 32.8851 167.039 32.8851 167.379C32.8851 167.717 32.8219 168.012 32.6955 168.265C32.5691 168.518 32.3915 168.714 32.1628 168.855C31.9341 168.996 31.6664 169.066 31.3596 169.066ZM31.3617 168.531C31.5605 168.531 31.7253 168.479 31.856 168.374C31.9867 168.268 32.0833 168.129 32.1458 167.954C32.2097 167.779 32.2417 167.587 32.2417 167.376C32.2417 167.168 32.2097 166.976 32.1458 166.801C32.0833 166.625 31.9867 166.484 31.856 166.377C31.7253 166.271 31.5605 166.217 31.3617 166.217C31.1614 166.217 30.9952 166.271 30.8631 166.377C30.7324 166.484 30.6351 166.625 30.5712 166.801C30.5087 166.976 30.4775 167.168 30.4775 167.376C30.4775 167.587 30.5087 167.779 30.5712 167.954C30.6351 168.129 30.7324 168.268 30.8631 168.374C30.9952 168.479 31.1614 168.531 31.3617 168.531ZM35.6694 167.643V165.727H36.3086V169H35.6822V168.433H35.6481C35.5728 168.608 35.4521 168.754 35.2859 168.87C35.1211 168.985 34.9158 169.043 34.6701 169.043C34.4599 169.043 34.2738 168.996 34.1119 168.904C33.9513 168.81 33.8249 168.672 33.7326 168.489C33.6417 168.305 33.5962 168.079 33.5962 167.809V165.727H34.2333V167.732C34.2333 167.955 34.2951 168.133 34.4187 168.265C34.5423 168.397 34.7028 168.463 34.9002 168.463C35.0195 168.463 35.1381 168.433 35.256 168.374C35.3754 168.314 35.4741 168.224 35.5522 168.103C35.6317 167.982 35.6708 167.829 35.6694 167.643ZM37.1646 169V165.727H37.7804V166.247H37.8145C37.8741 166.071 37.9792 165.933 38.1298 165.832C38.2818 165.729 38.4537 165.678 38.6454 165.678C38.6852 165.678 38.7321 165.68 38.786 165.683C38.8414 165.685 38.8848 165.689 38.916 165.693V166.303C38.8904 166.295 38.845 166.288 38.7797 166.279C38.7143 166.269 38.649 166.264 38.5836 166.264C38.4331 166.264 38.2988 166.296 38.1809 166.36C38.0645 166.423 37.9721 166.51 37.9039 166.622C37.8358 166.733 37.8017 166.859 37.8017 167.001V169H37.1646ZM41.6923 164.636V169H41.0552V164.636H41.6923ZM43.9279 169.066C43.6211 169.066 43.3533 168.996 43.1246 168.855C42.896 168.714 42.7184 168.518 42.592 168.265C42.4656 168.012 42.4023 167.717 42.4023 167.379C42.4023 167.039 42.4656 166.742 42.592 166.488C42.7184 166.234 42.896 166.036 43.1246 165.896C43.3533 165.755 43.6211 165.685 43.9279 165.685C44.2347 165.685 44.5025 165.755 44.7312 165.896C44.9599 166.036 45.1374 166.234 45.2638 166.488C45.3903 166.742 45.4535 167.039 45.4535 167.379C45.4535 167.717 45.3903 168.012 45.2638 168.265C45.1374 168.518 44.9599 168.714 44.7312 168.855C44.5025 168.996 44.2347 169.066 43.9279 169.066ZM43.93 168.531C44.1289 168.531 44.2937 168.479 44.4244 168.374C44.555 168.268 44.6516 168.129 44.7141 167.954C44.7781 167.779 44.81 167.587 44.81 167.376C44.81 167.168 44.7781 166.976 44.7141 166.801C44.6516 166.625 44.555 166.484 44.4244 166.377C44.2937 166.271 44.1289 166.217 43.93 166.217C43.7298 166.217 43.5636 166.271 43.4315 166.377C43.3008 166.484 43.2035 166.625 43.1396 166.801C43.0771 166.976 43.0458 167.168 43.0458 167.376C43.0458 167.587 43.0771 167.779 43.1396 167.954C43.2035 168.129 43.3008 168.268 43.4315 168.374C43.5636 168.479 43.7298 168.531 43.93 168.531ZM47.5431 169.066C47.2264 169.066 46.9537 168.994 46.725 168.851C46.4977 168.706 46.323 168.506 46.2008 168.252C46.0787 167.998 46.0176 167.707 46.0176 167.379C46.0176 167.046 46.0801 166.753 46.2051 166.499C46.3301 166.243 46.5062 166.043 46.7335 165.9C46.9608 165.756 47.2285 165.685 47.5368 165.685C47.7853 165.685 48.0069 165.731 48.2015 165.823C48.3961 165.914 48.5531 166.042 48.6724 166.207C48.7931 166.371 48.8649 166.564 48.8876 166.784H48.2676C48.2335 166.631 48.1554 166.499 48.0332 166.388C47.9125 166.277 47.7505 166.222 47.5474 166.222C47.3699 166.222 47.2143 166.268 47.0808 166.362C46.9487 166.455 46.8457 166.587 46.7718 166.759C46.698 166.929 46.661 167.131 46.661 167.364C46.661 167.602 46.6973 167.808 46.7697 167.982C46.8422 168.155 46.9444 168.289 47.0765 168.384C47.21 168.479 47.367 168.527 47.5474 168.527C47.6681 168.527 47.7775 168.505 47.8755 168.461C47.975 168.415 48.0581 168.351 48.1248 168.267C48.193 168.183 48.2406 168.082 48.2676 167.964H48.8876C48.8649 168.176 48.796 168.365 48.6809 168.531C48.5659 168.697 48.4118 168.828 48.2186 168.923C48.0268 169.018 47.8017 169.066 47.5431 169.066ZM50.5213 169.072C50.3139 169.072 50.1264 169.034 49.9588 168.957C49.7912 168.879 49.6584 168.766 49.5604 168.619C49.4638 168.471 49.4155 168.29 49.4155 168.075C49.4155 167.891 49.451 167.739 49.522 167.619C49.593 167.5 49.6889 167.406 49.8097 167.336C49.9304 167.266 50.0653 167.214 50.2145 167.178C50.3636 167.143 50.5156 167.116 50.6705 167.097C50.8665 167.075 51.0256 167.056 51.1477 167.042C51.2699 167.026 51.3587 167.001 51.4141 166.967C51.4695 166.933 51.4972 166.878 51.4972 166.801V166.786C51.4972 166.6 51.4446 166.456 51.3395 166.354C51.2358 166.251 51.081 166.2 50.875 166.2C50.6605 166.2 50.4915 166.248 50.3679 166.343C50.2457 166.437 50.1612 166.541 50.1143 166.656L49.5156 166.52C49.5866 166.321 49.6903 166.161 49.8267 166.038C49.9645 165.915 50.1229 165.825 50.3018 165.77C50.4808 165.713 50.669 165.685 50.8665 165.685C50.9972 165.685 51.1357 165.7 51.282 165.732C51.4297 165.761 51.5675 165.817 51.6953 165.898C51.8246 165.979 51.9304 166.094 52.0128 166.245C52.0952 166.394 52.1364 166.588 52.1364 166.827V169H51.5142V168.553H51.4886C51.4474 168.635 51.3857 168.716 51.3033 168.795C51.2209 168.875 51.1151 168.941 50.9858 168.994C50.8565 169.046 50.7017 169.072 50.5213 169.072ZM50.6598 168.561C50.8359 168.561 50.9865 168.526 51.1115 168.457C51.2379 168.387 51.3338 168.296 51.3991 168.184C51.4659 168.07 51.4993 167.949 51.4993 167.82V167.398C51.4766 167.42 51.4325 167.442 51.3672 167.462C51.3033 167.48 51.2301 167.496 51.1477 167.511C51.0653 167.523 50.9851 167.536 50.907 167.547C50.8288 167.557 50.7635 167.565 50.7109 167.572C50.5874 167.588 50.4744 167.614 50.3722 167.651C50.2713 167.688 50.1903 167.741 50.1293 167.811C50.0696 167.879 50.0398 167.97 50.0398 168.084C50.0398 168.241 50.098 168.361 50.2145 168.442C50.331 168.521 50.4794 168.561 50.6598 168.561ZM54.5126 165.727V166.239H52.725V165.727H54.5126ZM53.2044 164.943H53.8414V168.039C53.8414 168.163 53.8599 168.256 53.8968 168.318C53.9338 168.379 53.9814 168.421 54.0396 168.444C54.0993 168.465 54.1639 168.476 54.2335 168.476C54.2846 168.476 54.3294 168.472 54.3677 168.465C54.4061 168.458 54.4359 168.452 54.4572 168.448L54.5723 168.974C54.5353 168.989 54.4828 169.003 54.4146 169.017C54.3464 169.033 54.2612 169.041 54.1589 169.043C53.9913 169.045 53.835 169.016 53.6902 168.953C53.5453 168.891 53.4281 168.794 53.3386 168.663C53.2491 168.533 53.2044 168.369 53.2044 168.171V164.943ZM55.2173 169V165.727H55.8544V169H55.2173ZM55.5391 165.222C55.4283 165.222 55.3331 165.185 55.2536 165.112C55.1754 165.036 55.1364 164.947 55.1364 164.843C55.1364 164.738 55.1754 164.648 55.2536 164.575C55.3331 164.499 55.4283 164.462 55.5391 164.462C55.6499 164.462 55.7443 164.499 55.8224 164.575C55.902 164.648 55.9418 164.738 55.9418 164.843C55.9418 164.947 55.902 165.036 55.8224 165.112C55.7443 165.185 55.6499 165.222 55.5391 165.222ZM58.09 169.066C57.7832 169.066 57.5154 168.996 57.2868 168.855C57.0581 168.714 56.8805 168.518 56.7541 168.265C56.6277 168.012 56.5645 167.717 56.5645 167.379C56.5645 167.039 56.6277 166.742 56.7541 166.488C56.8805 166.234 57.0581 166.036 57.2868 165.896C57.5154 165.755 57.7832 165.685 58.09 165.685C58.3968 165.685 58.6646 165.755 58.8933 165.896C59.122 166.036 59.2995 166.234 59.426 166.488C59.5524 166.742 59.6156 167.039 59.6156 167.379C59.6156 167.717 59.5524 168.012 59.426 168.265C59.2995 168.518 59.122 168.714 58.8933 168.855C58.6646 168.996 58.3968 169.066 58.09 169.066ZM58.0922 168.531C58.291 168.531 58.4558 168.479 58.5865 168.374C58.7172 168.268 58.8137 168.129 58.8762 167.954C58.9402 167.779 58.9721 167.587 58.9721 167.376C58.9721 167.168 58.9402 166.976 58.8762 166.801C58.8137 166.625 58.7172 166.484 58.5865 166.377C58.4558 166.271 58.291 166.217 58.0922 166.217C57.8919 166.217 57.7257 166.271 57.5936 166.377C57.4629 166.484 57.3656 166.625 57.3017 166.801C57.2392 166.976 57.2079 167.168 57.2079 167.376C57.2079 167.587 57.2392 167.779 57.3017 167.954C57.3656 168.129 57.4629 168.268 57.5936 168.374C57.7257 168.479 57.8919 168.531 58.0922 168.531ZM60.9638 167.057V169H60.3267V165.727H60.9382V166.26H60.9787C61.054 166.087 61.1719 165.947 61.3324 165.842C61.4943 165.737 61.6982 165.685 61.9439 165.685C62.1669 165.685 62.3622 165.732 62.5298 165.825C62.6974 165.918 62.8274 166.055 62.9197 166.239C63.0121 166.422 63.0582 166.648 63.0582 166.918V169H62.4212V166.995C62.4212 166.758 62.3594 166.572 62.2358 166.439C62.1122 166.304 61.9425 166.237 61.7266 166.237C61.5788 166.237 61.4474 166.268 61.3324 166.332C61.2188 166.396 61.1286 166.49 61.0618 166.614C60.9964 166.736 60.9638 166.884 60.9638 167.057ZM65.5005 169V165.727H66.1376V169H65.5005ZM65.8223 165.222C65.7115 165.222 65.6163 165.185 65.5368 165.112C65.4586 165.036 65.4196 164.947 65.4196 164.843C65.4196 164.738 65.4586 164.648 65.5368 164.575C65.6163 164.499 65.7115 164.462 65.8223 164.462C65.9331 164.462 66.0275 164.499 66.1056 164.575C66.1852 164.648 66.225 164.738 66.225 164.843C66.225 164.947 66.1852 165.036 66.1056 165.112C66.0275 165.185 65.9331 165.222 65.8223 165.222ZM69.4471 166.526L68.8697 166.629C68.8455 166.555 68.8072 166.484 68.7546 166.418C68.7035 166.351 68.6339 166.296 68.5458 166.254C68.4577 166.211 68.3477 166.19 68.2156 166.19C68.0352 166.19 67.8846 166.23 67.7638 166.311C67.6431 166.391 67.5827 166.494 67.5827 166.62C67.5827 166.729 67.6232 166.817 67.7042 166.884C67.7852 166.951 67.9158 167.006 68.0962 167.048L68.6161 167.168C68.9173 167.237 69.1417 167.344 69.2894 167.489C69.4371 167.634 69.511 167.822 69.511 168.054C69.511 168.25 69.4542 168.425 69.3406 168.578C69.2283 168.73 69.0714 168.849 68.8697 168.936C68.6694 169.023 68.4371 169.066 68.1729 169.066C67.8065 169.066 67.5075 168.988 67.2759 168.832C67.0444 168.674 66.9023 168.45 66.8498 168.161L67.4656 168.067C67.5039 168.227 67.5827 168.349 67.7021 168.431C67.8214 168.512 67.9769 168.553 68.1687 168.553C68.3775 168.553 68.5444 168.509 68.6694 168.423C68.7944 168.335 68.8569 168.227 68.8569 168.101C68.8569 167.999 68.8185 167.913 68.7418 167.843C68.6665 167.773 68.5508 167.721 68.3945 167.685L67.8406 167.564C67.5352 167.494 67.3093 167.384 67.163 167.232C67.0181 167.08 66.9457 166.887 66.9457 166.654C66.9457 166.461 66.9996 166.292 67.1076 166.147C67.2156 166.002 67.3647 165.889 67.555 165.808C67.7454 165.726 67.9634 165.685 68.2092 165.685C68.5629 165.685 68.8413 165.761 69.0444 165.915C69.2475 166.067 69.3817 166.271 69.4471 166.526ZM71.7994 169V165.727H72.4364V169H71.7994ZM72.1211 165.222C72.0103 165.222 71.9151 165.185 71.8356 165.112C71.7575 165.036 71.7184 164.947 71.7184 164.843C71.7184 164.738 71.7575 164.648 71.8356 164.575C71.9151 164.499 72.0103 164.462 72.1211 164.462C72.2319 164.462 72.3263 164.499 72.4045 164.575C72.484 164.648 72.5238 164.738 72.5238 164.843C72.5238 164.947 72.484 165.036 72.4045 165.112C72.3263 165.185 72.2319 165.222 72.1211 165.222ZM73.9306 167.057V169H73.2935V165.727H73.905V166.26H73.9455C74.0208 166.087 74.1387 165.947 74.2992 165.842C74.4611 165.737 74.665 165.685 74.9107 165.685C75.1337 165.685 75.329 165.732 75.4966 165.825C75.6642 165.918 75.7942 166.055 75.8865 166.239C75.9789 166.422 76.025 166.648 76.025 166.918V169H75.388V166.995C75.388 166.758 75.3262 166.572 75.2026 166.439C75.079 166.304 74.9093 166.237 74.6934 166.237C74.5456 166.237 74.4142 166.268 74.2992 166.332C74.1855 166.396 74.0953 166.49 74.0286 166.614C73.9632 166.736 73.9306 166.884 73.9306 167.057ZM79.995 165.727V166.239H78.2074V165.727H79.995ZM78.6868 164.943H79.3239V168.039C79.3239 168.163 79.3423 168.256 79.3793 168.318C79.4162 168.379 79.4638 168.421 79.522 168.444C79.5817 168.465 79.6463 168.476 79.7159 168.476C79.767 168.476 79.8118 168.472 79.8501 168.465C79.8885 168.458 79.9183 168.452 79.9396 168.448L80.0547 168.974C80.0178 168.989 79.9652 169.003 79.897 169.017C79.8288 169.033 79.7436 169.041 79.6413 169.043C79.4737 169.045 79.3175 169.016 79.1726 168.953C79.0277 168.891 78.9105 168.794 78.821 168.663C78.7315 168.533 78.6868 168.369 78.6868 168.171V164.943ZM81.4071 167.057V169H80.7701V164.636H81.3986V166.26H81.4391C81.5158 166.084 81.633 165.944 81.7907 165.84C81.9483 165.737 82.1543 165.685 82.4086 165.685C82.633 165.685 82.829 165.731 82.9966 165.823C83.1657 165.915 83.2963 166.053 83.3887 166.237C83.4824 166.418 83.5293 166.646 83.5293 166.918V169H82.8922V166.995C82.8922 166.755 82.8304 166.569 82.7069 166.437C82.5833 166.303 82.4114 166.237 82.1912 166.237C82.0407 166.237 81.9057 166.268 81.7864 166.332C81.6685 166.396 81.5755 166.49 81.5073 166.614C81.4405 166.736 81.4071 166.884 81.4071 167.057ZM85.79 169.066C85.4675 169.066 85.1898 168.997 84.9569 168.859C84.7253 168.72 84.5463 168.525 84.4199 168.273C84.2949 168.021 84.2324 167.724 84.2324 167.385C84.2324 167.05 84.2949 166.754 84.4199 166.499C84.5463 166.243 84.7225 166.043 84.9483 165.9C85.1756 165.756 85.4412 165.685 85.7452 165.685C85.9299 165.685 86.1088 165.715 86.2821 165.776C86.4554 165.837 86.611 165.933 86.7488 166.064C86.8865 166.195 86.9952 166.364 87.0748 166.573C87.1543 166.781 87.1941 167.033 87.1941 167.33V167.555H84.5925V167.078H86.5698C86.5698 166.911 86.5357 166.762 86.4675 166.633C86.3993 166.502 86.3034 166.399 86.1799 166.324C86.0577 166.249 85.9142 166.211 85.7495 166.211C85.5705 166.211 85.4142 166.255 85.2807 166.343C85.1486 166.43 85.0463 166.543 84.9739 166.684C84.9029 166.823 84.8674 166.974 84.8674 167.138V167.511C84.8674 167.729 84.9057 167.915 84.9824 168.069C85.0605 168.222 85.1692 168.339 85.3084 168.42C85.4476 168.5 85.6103 168.54 85.7963 168.54C85.9171 168.54 86.0272 168.523 86.1266 168.489C86.226 168.453 86.312 168.401 86.3844 168.331C86.4569 168.261 86.5123 168.175 86.5506 168.073L87.1536 168.182C87.1053 168.359 87.0186 168.515 86.8936 168.648C86.7701 168.781 86.6145 168.884 86.427 168.957C86.2409 169.03 86.0286 169.066 85.79 169.066ZM91.9412 166.526L91.3638 166.629C91.3397 166.555 91.3013 166.484 91.2488 166.418C91.1976 166.351 91.128 166.296 91.04 166.254C90.9519 166.211 90.8418 166.19 90.7097 166.19C90.5293 166.19 90.3787 166.23 90.258 166.311C90.1373 166.391 90.0769 166.494 90.0769 166.62C90.0769 166.729 90.1174 166.817 90.1983 166.884C90.2793 166.951 90.41 167.006 90.5904 167.048L91.1103 167.168C91.4114 167.237 91.6358 167.344 91.7836 167.489C91.9313 167.634 92.0051 167.822 92.0051 168.054C92.0051 168.25 91.9483 168.425 91.8347 168.578C91.7225 168.73 91.5655 168.849 91.3638 168.936C91.1635 169.023 90.9313 169.066 90.6671 169.066C90.3006 169.066 90.0016 168.988 89.7701 168.832C89.5385 168.674 89.3965 168.45 89.3439 168.161L89.9597 168.067C89.998 168.227 90.0769 168.349 90.1962 168.431C90.3155 168.512 90.4711 168.553 90.6628 168.553C90.8716 168.553 91.0385 168.509 91.1635 168.423C91.2885 168.335 91.351 168.227 91.351 168.101C91.351 167.999 91.3127 167.913 91.236 167.843C91.1607 167.773 91.0449 167.721 90.8887 167.685L90.3347 167.564C90.0293 167.494 89.8034 167.384 89.6571 167.232C89.5123 167.08 89.4398 166.887 89.4398 166.654C89.4398 166.461 89.4938 166.292 89.6017 166.147C89.7097 166.002 89.8588 165.889 90.0492 165.808C90.2395 165.726 90.4576 165.685 90.7033 165.685C91.057 165.685 91.3354 165.761 91.5385 165.915C91.7417 166.067 91.8759 166.271 91.9412 166.526ZM94.0842 169.066C93.7674 169.066 93.4947 168.994 93.266 168.851C93.0387 168.706 92.864 168.506 92.7418 168.252C92.6197 167.998 92.5586 167.707 92.5586 167.379C92.5586 167.046 92.6211 166.753 92.7461 166.499C92.8711 166.243 93.0472 166.043 93.2745 165.9C93.5018 165.756 93.7695 165.685 94.0778 165.685C94.3263 165.685 94.5479 165.731 94.7425 165.823C94.9371 165.914 95.0941 166.042 95.2134 166.207C95.3342 166.371 95.4059 166.564 95.4286 166.784H94.8086C94.7745 166.631 94.6964 166.499 94.5742 166.388C94.4535 166.277 94.2915 166.222 94.0884 166.222C93.9109 166.222 93.7553 166.268 93.6218 166.362C93.4897 166.455 93.3867 166.587 93.3129 166.759C93.239 166.929 93.2021 167.131 93.2021 167.364C93.2021 167.602 93.2383 167.808 93.3107 167.982C93.3832 168.155 93.4854 168.289 93.6175 168.384C93.7511 168.479 93.908 168.527 94.0884 168.527C94.2092 168.527 94.3185 168.505 94.4165 168.461C94.516 168.415 94.5991 168.351 94.6658 168.267C94.734 168.183 94.7816 168.082 94.8086 167.964H95.4286C95.4059 168.176 95.337 168.365 95.2219 168.531C95.1069 168.697 94.9528 168.828 94.7596 168.923C94.5678 169.018 94.3427 169.066 94.0842 169.066ZM96.747 167.057V169H96.1099V164.636H96.7385V166.26H96.7789C96.8556 166.084 96.9728 165.944 97.1305 165.84C97.2882 165.737 97.4941 165.685 97.7484 165.685C97.9728 165.685 98.1689 165.731 98.3365 165.823C98.5055 165.915 98.6362 166.053 98.7285 166.237C98.8223 166.418 98.8691 166.646 98.8691 166.918V169H98.2321V166.995C98.2321 166.755 98.1703 166.569 98.0467 166.437C97.9231 166.303 97.7512 166.237 97.5311 166.237C97.3805 166.237 97.2456 166.268 97.1262 166.332C97.0083 166.396 96.9153 166.49 96.8471 166.614C96.7804 166.736 96.747 166.884 96.747 167.057ZM101.098 169.066C100.791 169.066 100.523 168.996 100.295 168.855C100.066 168.714 99.8883 168.518 99.7619 168.265C99.6355 168.012 99.5723 167.717 99.5723 167.379C99.5723 167.039 99.6355 166.742 99.7619 166.488C99.8883 166.234 100.066 166.036 100.295 165.896C100.523 165.755 100.791 165.685 101.098 165.685C101.405 165.685 101.672 165.755 101.901 165.896C102.13 166.036 102.307 166.234 102.434 166.488C102.56 166.742 102.623 167.039 102.623 167.379C102.623 167.717 102.56 168.012 102.434 168.265C102.307 168.518 102.13 168.714 101.901 168.855C101.672 168.996 101.405 169.066 101.098 169.066ZM101.1 168.531C101.299 168.531 101.464 168.479 101.594 168.374C101.725 168.268 101.822 168.129 101.884 167.954C101.948 167.779 101.98 167.587 101.98 167.376C101.98 167.168 101.948 166.976 101.884 166.801C101.822 166.625 101.725 166.484 101.594 166.377C101.464 166.271 101.299 166.217 101.1 166.217C100.9 166.217 100.733 166.271 100.601 166.377C100.471 166.484 100.373 166.625 100.309 166.801C100.247 166.976 100.216 167.168 100.216 167.376C100.216 167.587 100.247 167.779 100.309 167.954C100.373 168.129 100.471 168.268 100.601 168.374C100.733 168.479 100.9 168.531 101.1 168.531ZM104.713 169.066C104.406 169.066 104.138 168.996 103.91 168.855C103.681 168.714 103.504 168.518 103.377 168.265C103.251 168.012 103.188 167.717 103.188 167.379C103.188 167.039 103.251 166.742 103.377 166.488C103.504 166.234 103.681 166.036 103.91 165.896C104.138 165.755 104.406 165.685 104.713 165.685C105.02 165.685 105.288 165.755 105.516 165.896C105.745 166.036 105.923 166.234 106.049 166.488C106.175 166.742 106.239 167.039 106.239 167.379C106.239 167.717 106.175 168.012 106.049 168.265C105.923 168.518 105.745 168.714 105.516 168.855C105.288 168.996 105.02 169.066 104.713 169.066ZM104.715 168.531C104.914 168.531 105.079 168.479 105.21 168.374C105.34 168.268 105.437 168.129 105.499 167.954C105.563 167.779 105.595 167.587 105.595 167.376C105.595 167.168 105.563 166.976 105.499 166.801C105.437 166.625 105.34 166.484 105.21 166.377C105.079 166.271 104.914 166.217 104.715 166.217C104.515 166.217 104.349 166.271 104.217 166.377C104.086 166.484 103.989 166.625 103.925 166.801C103.862 166.976 103.831 167.168 103.831 167.376C103.831 167.587 103.862 167.779 103.925 167.954C103.989 168.129 104.086 168.268 104.217 168.374C104.349 168.479 104.515 168.531 104.715 168.531ZM107.587 164.636V169H106.95V164.636H107.587ZM28.0796 177.227V172.727H28.7018V173.258H28.7551C28.792 173.19 28.8453 173.111 28.9149 173.021C28.9845 172.932 29.0811 172.854 29.2046 172.787C29.3282 172.719 29.4916 172.685 29.6947 172.685C29.9589 172.685 30.1947 172.751 30.4021 172.885C30.6095 173.018 30.7721 173.211 30.89 173.462C31.0093 173.714 31.069 174.016 31.069 174.37C31.069 174.724 31.01 175.027 30.8921 175.28C30.7742 175.531 30.6123 175.725 30.4063 175.862C30.2004 175.996 29.9653 176.064 29.7011 176.064C29.5022 176.064 29.3396 176.031 29.2132 175.964C29.0882 175.897 28.9901 175.819 28.9191 175.729C28.8481 175.64 28.7934 175.56 28.7551 175.491H28.7167V177.227H28.0796ZM28.7039 174.364C28.7039 174.594 28.7373 174.795 28.8041 174.969C28.8708 175.142 28.9674 175.278 29.0938 175.376C29.2203 175.472 29.3751 175.521 29.5583 175.521C29.7487 175.521 29.9078 175.47 30.0356 175.369C30.1634 175.267 30.26 175.129 30.3254 174.954C30.3921 174.779 30.4255 174.582 30.4255 174.364C30.4255 174.148 30.3928 173.954 30.3275 173.782C30.2636 173.61 30.167 173.474 30.0377 173.375C29.9099 173.276 29.7501 173.226 29.5583 173.226C29.3737 173.226 29.2174 173.273 29.0896 173.369C28.9632 173.464 28.8673 173.597 28.8019 173.767C28.7366 173.937 28.7039 174.136 28.7039 174.364ZM31.7828 176V172.727H32.3985V173.247H32.4326C32.4923 173.071 32.5974 172.933 32.748 172.832C32.8999 172.729 33.0718 172.678 33.2636 172.678C33.3034 172.678 33.3502 172.68 33.4042 172.683C33.4596 172.685 33.5029 172.689 33.5342 172.693V173.303C33.5086 173.295 33.4632 173.288 33.3978 173.279C33.3325 173.269 33.2671 173.264 33.2018 173.264C33.0512 173.264 32.917 173.296 32.7991 173.36C32.6826 173.423 32.5903 173.51 32.5221 173.622C32.4539 173.733 32.4198 173.859 32.4198 174.001V176H31.7828ZM35.3788 176.066C35.0564 176.066 34.7787 175.997 34.5457 175.859C34.3142 175.72 34.1352 175.525 34.0088 175.273C33.8838 175.021 33.8213 174.724 33.8213 174.385C33.8213 174.05 33.8838 173.754 34.0088 173.499C34.1352 173.243 34.3113 173.043 34.5372 172.9C34.7645 172.756 35.0301 172.685 35.3341 172.685C35.5187 172.685 35.6977 172.715 35.871 172.776C36.0443 172.837 36.1998 172.933 36.3376 173.064C36.4754 173.195 36.5841 173.364 36.6636 173.573C36.7432 173.781 36.7829 174.033 36.7829 174.33V174.555H34.1814V174.078H36.1586C36.1586 173.911 36.1246 173.762 36.0564 173.633C35.9882 173.502 35.8923 173.399 35.7687 173.324C35.6466 173.249 35.5031 173.211 35.3383 173.211C35.1594 173.211 35.0031 173.255 34.8696 173.343C34.7375 173.43 34.6352 173.543 34.5628 173.684C34.4917 173.823 34.4562 173.974 34.4562 174.138V174.511C34.4562 174.729 34.4946 174.915 34.5713 175.069C34.6494 175.222 34.7581 175.339 34.8973 175.42C35.0365 175.5 35.1991 175.54 35.3852 175.54C35.5059 175.54 35.616 175.523 35.7155 175.489C35.8149 175.453 35.9008 175.401 35.9733 175.331C36.0457 175.261 36.1011 175.175 36.1395 175.073L36.7425 175.182C36.6942 175.359 36.6075 175.515 36.4825 175.648C36.3589 175.781 36.2034 175.884 36.0159 175.957C35.8298 176.03 35.6175 176.066 35.3788 176.066ZM37.4898 176V172.727H38.1013V173.26H38.1418C38.21 173.08 38.3215 172.939 38.4763 172.838C38.6311 172.736 38.8165 172.685 39.0324 172.685C39.2512 172.685 39.4344 172.736 39.5821 172.838C39.7313 172.94 39.8414 173.081 39.9124 173.26H39.9465C40.0246 173.085 40.1489 172.946 40.3193 172.842C40.4898 172.737 40.6929 172.685 40.9287 172.685C41.2256 172.685 41.4678 172.778 41.6553 172.964C41.8442 173.15 41.9387 173.43 41.9387 173.805V176H41.3016V173.865C41.3016 173.643 41.2412 173.483 41.1205 173.384C40.9997 173.284 40.8556 173.234 40.6879 173.234C40.4806 173.234 40.3193 173.298 40.2043 173.426C40.0892 173.553 40.0317 173.715 40.0317 173.914V176H39.3968V173.825C39.3968 173.647 39.3414 173.504 39.2306 173.396C39.1198 173.288 38.9756 173.234 38.798 173.234C38.6773 173.234 38.5658 173.266 38.4635 173.33C38.3627 173.393 38.281 173.48 38.2185 173.592C38.1574 173.705 38.1269 173.835 38.1269 173.982V176H37.4898ZM42.7925 176V172.727H43.4296V176H42.7925ZM43.1143 172.222C43.0035 172.222 42.9083 172.185 42.8287 172.112C42.7506 172.036 42.7116 171.947 42.7116 171.843C42.7116 171.738 42.7506 171.648 42.8287 171.575C42.9083 171.499 43.0035 171.462 43.1143 171.462C43.2251 171.462 43.3195 171.499 43.3976 171.575C43.4772 171.648 43.517 171.738 43.517 171.843C43.517 171.947 43.4772 172.036 43.3976 172.112C43.3195 172.185 43.2251 172.222 43.1143 172.222ZM46.7391 173.526L46.1617 173.629C46.1375 173.555 46.0992 173.484 46.0466 173.418C45.9955 173.351 45.9259 173.296 45.8378 173.254C45.7497 173.211 45.6396 173.19 45.5075 173.19C45.3271 173.19 45.1766 173.23 45.0558 173.311C44.9351 173.391 44.8747 173.494 44.8747 173.62C44.8747 173.729 44.9152 173.817 44.9962 173.884C45.0771 173.951 45.2078 174.006 45.3882 174.048L45.9081 174.168C46.2093 174.237 46.4337 174.344 46.5814 174.489C46.7291 174.634 46.803 174.822 46.803 175.054C46.803 175.25 46.7462 175.425 46.6325 175.578C46.5203 175.73 46.3634 175.849 46.1617 175.936C45.9614 176.023 45.7291 176.066 45.4649 176.066C45.0985 176.066 44.7994 175.988 44.5679 175.832C44.3364 175.674 44.1943 175.45 44.1418 175.161L44.7575 175.067C44.7959 175.227 44.8747 175.349 44.9941 175.431C45.1134 175.512 45.2689 175.553 45.4607 175.553C45.6695 175.553 45.8364 175.509 45.9614 175.423C46.0864 175.335 46.1489 175.227 46.1489 175.101C46.1489 174.999 46.1105 174.913 46.0338 174.843C45.9585 174.773 45.8428 174.721 45.6865 174.685L45.1325 174.564C44.8271 174.494 44.6013 174.384 44.455 174.232C44.3101 174.08 44.2377 173.887 44.2377 173.654C44.2377 173.461 44.2916 173.292 44.3996 173.147C44.5075 173.002 44.6567 172.889 44.847 172.808C45.0374 172.726 45.2554 172.685 45.5012 172.685C45.8548 172.685 46.1333 172.761 46.3364 172.915C46.5395 173.067 46.6737 173.271 46.7391 173.526ZM48.914 176.066C48.5915 176.066 48.3138 175.997 48.0809 175.859C47.8493 175.72 47.6704 175.525 47.5439 175.273C47.4189 175.021 47.3564 174.724 47.3564 174.385C47.3564 174.05 47.4189 173.754 47.5439 173.499C47.6704 173.243 47.8465 173.043 48.0724 172.9C48.2996 172.756 48.5653 172.685 48.8692 172.685C49.0539 172.685 49.2329 172.715 49.4062 172.776C49.5795 172.837 49.735 172.933 49.8728 173.064C50.0106 173.195 50.1192 173.364 50.1988 173.573C50.2783 173.781 50.3181 174.033 50.3181 174.33V174.555H47.7165V174.078H49.6938C49.6938 173.911 49.6597 173.762 49.5915 173.633C49.5233 173.502 49.4275 173.399 49.3039 173.324C49.1817 173.249 49.0383 173.211 48.8735 173.211C48.6945 173.211 48.5383 173.255 48.4047 173.343C48.2726 173.43 48.1704 173.543 48.0979 173.684C48.0269 173.823 47.9914 173.974 47.9914 174.138V174.511C47.9914 174.729 48.0297 174.915 48.1064 175.069C48.1846 175.222 48.2932 175.339 48.4324 175.42C48.5716 175.5 48.7343 175.54 48.9204 175.54C49.0411 175.54 49.1512 175.523 49.2506 175.489C49.3501 175.453 49.436 175.401 49.5084 175.331C49.5809 175.261 49.6363 175.175 49.6746 175.073L50.2776 175.182C50.2293 175.359 50.1427 175.515 50.0177 175.648C49.8941 175.781 49.7385 175.884 49.551 175.957C49.365 176.03 49.1526 176.066 48.914 176.066ZM53.4774 173.526L52.8999 173.629C52.8758 173.555 52.8374 173.484 52.7849 173.418C52.7338 173.351 52.6642 173.296 52.5761 173.254C52.488 173.211 52.3779 173.19 52.2458 173.19C52.0654 173.19 51.9149 173.23 51.7941 173.311C51.6734 173.391 51.613 173.494 51.613 173.62C51.613 173.729 51.6535 173.817 51.7345 173.884C51.8154 173.951 51.9461 174.006 52.1265 174.048L52.6464 174.168C52.9475 174.237 53.172 174.344 53.3197 174.489C53.4674 174.634 53.5413 174.822 53.5413 175.054C53.5413 175.25 53.4845 175.425 53.3708 175.578C53.2586 175.73 53.1017 175.849 52.8999 175.936C52.6997 176.023 52.4674 176.066 52.2032 176.066C51.8367 176.066 51.5377 175.988 51.3062 175.832C51.0747 175.674 50.9326 175.45 50.8801 175.161L51.4958 175.067C51.5342 175.227 51.613 175.349 51.7323 175.431C51.8517 175.512 52.0072 175.553 52.199 175.553C52.4078 175.553 52.5747 175.509 52.6997 175.423C52.8247 175.335 52.8872 175.227 52.8872 175.101C52.8872 174.999 52.8488 174.913 52.7721 174.843C52.6968 174.773 52.5811 174.721 52.4248 174.685L51.8708 174.564C51.5654 174.494 51.3396 174.384 51.1933 174.232C51.0484 174.08 50.9759 173.887 50.9759 173.654C50.9759 173.461 51.0299 173.292 51.1379 173.147C51.2458 173.002 51.395 172.889 51.5853 172.808C51.7757 172.726 51.9937 172.685 52.2394 172.685C52.5931 172.685 52.8715 172.761 53.0747 172.915C53.2778 173.067 53.412 173.271 53.4774 173.526ZM54.6615 176.04C54.545 176.04 54.4449 175.999 54.3611 175.917C54.2773 175.833 54.2354 175.732 54.2354 175.614C54.2354 175.498 54.2773 175.398 54.3611 175.316C54.4449 175.232 54.545 175.19 54.6615 175.19C54.778 175.19 54.8781 175.232 54.9619 175.316C55.0457 175.398 55.0876 175.498 55.0876 175.614C55.0876 175.692 55.0677 175.764 55.028 175.83C54.9896 175.893 54.9385 175.945 54.8746 175.983C54.8106 176.021 54.7396 176.04 54.6615 176.04ZM57.5097 176V171.636H59.0651C59.4046 171.636 59.6858 171.698 59.9088 171.822C60.1318 171.945 60.2987 172.114 60.4095 172.329C60.5203 172.542 60.5757 172.782 60.5757 173.049C60.5757 173.317 60.5196 173.559 60.4074 173.773C60.2966 173.987 60.129 174.156 59.9046 174.281C59.6816 174.404 59.401 174.466 59.0629 174.466H57.9933V173.908H59.0033C59.2178 173.908 59.3918 173.871 59.5253 173.797C59.6588 173.722 59.7568 173.619 59.8193 173.49C59.8818 173.361 59.9131 173.214 59.9131 173.049C59.9131 172.884 59.8818 172.738 59.8193 172.61C59.7568 172.482 59.6581 172.382 59.5232 172.31C59.3896 172.237 59.2135 172.201 58.9948 172.201H58.1681V176H57.5097ZM61.9335 171.636V176H61.2964V171.636H61.9335ZM64.2011 176.066C63.8786 176.066 63.6009 175.997 63.368 175.859C63.1365 175.72 62.9575 175.525 62.8311 175.273C62.7061 175.021 62.6436 174.724 62.6436 174.385C62.6436 174.05 62.7061 173.754 62.8311 173.499C62.9575 173.243 63.1336 173.043 63.3595 172.9C63.5867 172.756 63.8524 172.685 64.1563 172.685C64.341 172.685 64.52 172.715 64.6933 172.776C64.8666 172.837 65.0221 172.933 65.1599 173.064C65.2977 173.195 65.4063 173.364 65.4859 173.573C65.5654 173.781 65.6052 174.033 65.6052 174.33V174.555H63.0036V174.078H64.9809C64.9809 173.911 64.9468 173.762 64.8786 173.633C64.8105 173.502 64.7146 173.399 64.591 173.324C64.4688 173.249 64.3254 173.211 64.1606 173.211C63.9816 173.211 63.8254 173.255 63.6919 173.343C63.5597 173.43 63.4575 173.543 63.385 173.684C63.314 173.823 63.2785 173.974 63.2785 174.138V174.511C63.2785 174.729 63.3169 174.915 63.3936 175.069C63.4717 175.222 63.5803 175.339 63.7195 175.42C63.8588 175.5 64.0214 175.54 64.2075 175.54C64.3282 175.54 64.4383 175.523 64.5377 175.489C64.6372 175.453 64.7231 175.401 64.7955 175.331C64.868 175.261 64.9234 175.175 64.9617 175.073L65.5647 175.182C65.5164 175.359 65.4298 175.515 65.3048 175.648C65.1812 175.781 65.0257 175.884 64.8382 175.957C64.6521 176.03 64.4397 176.066 64.2011 176.066ZM67.2645 176.072C67.0571 176.072 66.8696 176.034 66.702 175.957C66.5344 175.879 66.4015 175.766 66.3035 175.619C66.2069 175.471 66.1586 175.29 66.1586 175.075C66.1586 174.891 66.1942 174.739 66.2652 174.619C66.3362 174.5 66.4321 174.406 66.5528 174.336C66.6736 174.266 66.8085 174.214 66.9577 174.178C67.1068 174.143 67.2588 174.116 67.4136 174.097C67.6096 174.075 67.7687 174.056 67.8909 174.042C68.0131 174.026 68.1018 174.001 68.1572 173.967C68.2126 173.933 68.2403 173.878 68.2403 173.801V173.786C68.2403 173.6 68.1878 173.456 68.0827 173.354C67.979 173.251 67.8241 173.2 67.6182 173.2C67.4037 173.2 67.2346 173.248 67.1111 173.343C66.9889 173.437 66.9044 173.541 66.8575 173.656L66.2588 173.52C66.3298 173.321 66.4335 173.161 66.5699 173.038C66.7077 172.915 66.866 172.825 67.045 172.77C67.224 172.713 67.4122 172.685 67.6096 172.685C67.7403 172.685 67.8788 172.7 68.0251 172.732C68.1729 172.761 68.3106 172.817 68.4385 172.898C68.5677 172.979 68.6736 173.094 68.7559 173.245C68.8383 173.394 68.8795 173.588 68.8795 173.827V176H68.2574V175.553H68.2318C68.1906 175.635 68.1288 175.716 68.0464 175.795C67.964 175.875 67.8582 175.941 67.729 175.994C67.5997 176.046 67.4449 176.072 67.2645 176.072ZM67.403 175.561C67.5791 175.561 67.7297 175.526 67.8547 175.457C67.9811 175.387 68.077 175.296 68.1423 175.184C68.2091 175.07 68.2425 174.949 68.2425 174.82V174.398C68.2197 174.42 68.1757 174.442 68.1104 174.462C68.0464 174.48 67.9733 174.496 67.8909 174.511C67.8085 174.523 67.7282 174.536 67.6501 174.547C67.572 174.557 67.5067 174.565 67.4541 174.572C67.3305 174.588 67.2176 174.614 67.1153 174.651C67.0145 174.688 66.9335 174.741 66.8724 174.811C66.8128 174.879 66.7829 174.97 66.7829 175.084C66.7829 175.241 66.8412 175.361 66.9577 175.442C67.0741 175.521 67.2226 175.561 67.403 175.561ZM72.1805 173.526L71.6031 173.629C71.5789 173.555 71.5406 173.484 71.488 173.418C71.4369 173.351 71.3673 173.296 71.2792 173.254C71.1911 173.211 71.0811 173.19 70.949 173.19C70.7686 173.19 70.618 173.23 70.4972 173.311C70.3765 173.391 70.3161 173.494 70.3161 173.62C70.3161 173.729 70.3566 173.817 70.4376 173.884C70.5186 173.951 70.6492 174.006 70.8296 174.048L71.3495 174.168C71.6507 174.237 71.8751 174.344 72.0228 174.489C72.1705 174.634 72.2444 174.822 72.2444 175.054C72.2444 175.25 72.1876 175.425 72.074 175.578C71.9617 175.73 71.8048 175.849 71.6031 175.936C71.4028 176.023 71.1705 176.066 70.9063 176.066C70.5399 176.066 70.2409 175.988 70.0093 175.832C69.7778 175.674 69.6357 175.45 69.5832 175.161L70.199 175.067C70.2373 175.227 70.3161 175.349 70.4355 175.431C70.5548 175.512 70.7103 175.553 70.9021 175.553C71.1109 175.553 71.2778 175.509 71.4028 175.423C71.5278 175.335 71.5903 175.227 71.5903 175.101C71.5903 174.999 71.5519 174.913 71.4752 174.843C71.3999 174.773 71.2842 174.721 71.1279 174.685L70.574 174.564C70.2686 174.494 70.0427 174.384 69.8964 174.232C69.7515 174.08 69.6791 173.887 69.6791 173.654C69.6791 173.461 69.733 173.292 69.841 173.147C69.949 173.002 70.0981 172.889 70.2884 172.808C70.4788 172.726 70.6968 172.685 70.9426 172.685C71.2963 172.685 71.5747 172.761 71.7778 172.915C71.9809 173.067 72.1151 173.271 72.1805 173.526ZM74.3554 176.066C74.0329 176.066 73.7552 175.997 73.5223 175.859C73.2907 175.72 73.1118 175.525 72.9854 175.273C72.8604 175.021 72.7979 174.724 72.7979 174.385C72.7979 174.05 72.8604 173.754 72.9854 173.499C73.1118 173.243 73.2879 173.043 73.5138 172.9C73.741 172.756 74.0067 172.685 74.3106 172.685C74.4953 172.685 74.6743 172.715 74.8476 172.776C75.0209 172.837 75.1764 172.933 75.3142 173.064C75.452 173.195 75.5606 173.364 75.6402 173.573C75.7197 173.781 75.7595 174.033 75.7595 174.33V174.555H73.1579V174.078H75.1352C75.1352 173.911 75.1011 173.762 75.0329 173.633C74.9648 173.502 74.8689 173.399 74.7453 173.324C74.6231 173.249 74.4797 173.211 74.3149 173.211C74.1359 173.211 73.9797 173.255 73.8461 173.343C73.714 173.43 73.6118 173.543 73.5393 173.684C73.4683 173.823 73.4328 173.974 73.4328 174.138V174.511C73.4328 174.729 73.4711 174.915 73.5479 175.069C73.626 175.222 73.7346 175.339 73.8738 175.42C74.0131 175.5 74.1757 175.54 74.3618 175.54C74.4825 175.54 74.5926 175.523 74.692 175.489C74.7915 175.453 74.8774 175.401 74.9498 175.331C75.0223 175.261 75.0777 175.175 75.116 175.073L75.719 175.182C75.6707 175.359 75.5841 175.515 75.4591 175.648C75.3355 175.781 75.18 175.884 74.9925 175.957C74.8064 176.03 74.594 176.066 74.3554 176.066ZM78.0542 176V172.727H78.6657V173.26H78.7062C78.7744 173.08 78.8859 172.939 79.0407 172.838C79.1956 172.736 79.3809 172.685 79.5969 172.685C79.8156 172.685 79.9988 172.736 80.1466 172.838C80.2957 172.94 80.4058 173.081 80.4768 173.26H80.5109C80.589 173.085 80.7133 172.946 80.8838 172.842C81.0542 172.737 81.2574 172.685 81.4932 172.685C81.79 172.685 82.0322 172.778 82.2197 172.964C82.4086 173.15 82.5031 173.43 82.5031 173.805V176H81.866V173.865C81.866 173.643 81.8057 173.483 81.6849 173.384C81.5642 173.284 81.42 173.234 81.2524 173.234C81.045 173.234 80.8838 173.298 80.7687 173.426C80.6537 173.553 80.5961 173.715 80.5961 173.914V176H79.9612V173.825C79.9612 173.647 79.9058 173.504 79.795 173.396C79.6842 173.288 79.54 173.234 79.3625 173.234C79.2417 173.234 79.1302 173.266 79.028 173.33C78.9271 173.393 78.8454 173.48 78.7829 173.592C78.7219 173.705 78.6913 173.835 78.6913 173.982V176H78.0542ZM84.3094 176.072C84.102 176.072 83.9145 176.034 83.7469 175.957C83.5793 175.879 83.4465 175.766 83.3485 175.619C83.2519 175.471 83.2036 175.29 83.2036 175.075C83.2036 174.891 83.2391 174.739 83.3101 174.619C83.3811 174.5 83.477 174.406 83.5977 174.336C83.7185 174.266 83.8534 174.214 84.0026 174.178C84.1517 174.143 84.3037 174.116 84.4585 174.097C84.6546 174.075 84.8137 174.056 84.9358 174.042C85.058 174.026 85.1468 174.001 85.2021 173.967C85.2575 173.933 85.2852 173.878 85.2852 173.801V173.786C85.2852 173.6 85.2327 173.456 85.1276 173.354C85.0239 173.251 84.8691 173.2 84.6631 173.2C84.4486 173.2 84.2796 173.248 84.156 173.343C84.0338 173.437 83.9493 173.541 83.9024 173.656L83.3037 173.52C83.3747 173.321 83.4784 173.161 83.6148 173.038C83.7526 172.915 83.911 172.825 84.0899 172.77C84.2689 172.713 84.4571 172.685 84.6546 172.685C84.7852 172.685 84.9237 172.7 85.07 172.732C85.2178 172.761 85.3556 172.817 85.4834 172.898C85.6127 172.979 85.7185 173.094 85.8009 173.245C85.8833 173.394 85.9244 173.588 85.9244 173.827V176H85.3023V175.553H85.2767C85.2355 175.635 85.1737 175.716 85.0914 175.795C85.009 175.875 84.9031 175.941 84.7739 175.994C84.6446 176.046 84.4898 176.072 84.3094 176.072ZM84.4479 175.561C84.624 175.561 84.7746 175.526 84.8996 175.457C85.026 175.387 85.1219 175.296 85.1872 175.184C85.254 175.07 85.2874 174.949 85.2874 174.82V174.398C85.2646 174.42 85.2206 174.442 85.1553 174.462C85.0914 174.48 85.0182 174.496 84.9358 174.511C84.8534 174.523 84.7732 174.536 84.695 174.547C84.6169 174.557 84.5516 174.565 84.499 174.572C84.3754 174.588 84.2625 174.614 84.1602 174.651C84.0594 174.688 83.9784 174.741 83.9173 174.811C83.8577 174.879 83.8279 174.97 83.8279 175.084C83.8279 175.241 83.8861 175.361 84.0026 175.442C84.1191 175.521 84.2675 175.561 84.4479 175.561ZM86.773 176V172.727H87.3888V173.247H87.4229C87.4825 173.071 87.5876 172.933 87.7382 172.832C87.8902 172.729 88.0621 172.678 88.2538 172.678C88.2936 172.678 88.3405 172.68 88.3944 172.683C88.4498 172.685 88.4932 172.689 88.5244 172.693V173.303C88.4988 173.295 88.4534 173.288 88.3881 173.279C88.3227 173.269 88.2574 173.264 88.192 173.264C88.0415 173.264 87.9072 173.296 87.7893 173.36C87.6729 173.423 87.5805 173.51 87.5123 173.622C87.4442 173.733 87.4101 173.859 87.4101 174.001V176H86.773ZM89.6617 174.89L89.6574 174.112H89.7682L91.0722 172.727H91.835L90.3477 174.304H90.2476L89.6617 174.89ZM89.0757 176V171.636H89.7128V176H89.0757ZM91.1425 176L89.9706 174.445L90.4095 173.999L91.9244 176H91.1425ZM94.4062 177.227C94.311 177.227 94.2243 177.219 94.1462 177.204C94.0681 177.19 94.0099 177.174 93.9715 177.157L94.1249 176.635C94.2414 176.666 94.3451 176.68 94.436 176.675C94.5269 176.671 94.6072 176.637 94.6768 176.573C94.7478 176.509 94.8103 176.405 94.8643 176.26L94.9431 176.043L93.7456 172.727H94.4275L95.2563 175.267H95.2904L96.1192 172.727H96.8032L95.4545 176.437C95.392 176.607 95.3124 176.751 95.2158 176.869C95.1192 176.989 95.0042 177.078 94.8706 177.138C94.7371 177.197 94.5823 177.227 94.4062 177.227ZM98.6691 176.066C98.3623 176.066 98.0945 175.996 97.8659 175.855C97.6372 175.714 97.4596 175.518 97.3332 175.265C97.2068 175.012 97.1436 174.717 97.1436 174.379C97.1436 174.039 97.2068 173.742 97.3332 173.488C97.4596 173.234 97.6372 173.036 97.8659 172.896C98.0945 172.755 98.3623 172.685 98.6691 172.685C98.9759 172.685 99.2437 172.755 99.4724 172.896C99.7011 173.036 99.8786 173.234 100.005 173.488C100.131 173.742 100.195 174.039 100.195 174.379C100.195 174.717 100.131 175.012 100.005 175.265C99.8786 175.518 99.7011 175.714 99.4724 175.855C99.2437 175.996 98.9759 176.066 98.6691 176.066ZM98.6713 175.531C98.8701 175.531 99.0349 175.479 99.1656 175.374C99.2963 175.268 99.3928 175.129 99.4553 174.954C99.5193 174.779 99.5512 174.587 99.5512 174.376C99.5512 174.168 99.5193 173.976 99.4553 173.801C99.3928 173.625 99.2963 173.484 99.1656 173.377C99.0349 173.271 98.8701 173.217 98.6713 173.217C98.471 173.217 98.3048 173.271 98.1727 173.377C98.042 173.484 97.9447 173.625 97.8808 173.801C97.8183 173.976 97.787 174.168 97.787 174.376C97.787 174.587 97.8183 174.779 97.8808 174.954C97.9447 175.129 98.042 175.268 98.1727 175.374C98.3048 175.479 98.471 175.531 98.6713 175.531ZM102.979 174.643V172.727H103.618V176H102.992V175.433H102.958C102.882 175.608 102.762 175.754 102.595 175.87C102.431 175.985 102.225 176.043 101.98 176.043C101.769 176.043 101.583 175.996 101.421 175.904C101.261 175.81 101.134 175.672 101.042 175.489C100.951 175.305 100.906 175.079 100.906 174.809V172.727H101.543V174.732C101.543 174.955 101.605 175.133 101.728 175.265C101.852 175.397 102.012 175.463 102.21 175.463C102.329 175.463 102.448 175.433 102.566 175.374C102.685 175.314 102.784 175.224 102.862 175.103C102.941 174.982 102.98 174.829 102.979 174.643ZM104.474 176V172.727H105.09V173.247H105.124C105.184 173.071 105.289 172.933 105.439 172.832C105.591 172.729 105.763 172.678 105.955 172.678C105.995 172.678 106.042 172.68 106.096 172.683C106.151 172.685 106.194 172.689 106.226 172.693V173.303C106.2 173.295 106.155 173.288 106.089 173.279C106.024 173.269 105.959 173.264 105.893 173.264C105.743 173.264 105.608 173.296 105.491 173.36C105.374 173.423 105.282 173.51 105.214 173.622C105.145 173.733 105.111 173.859 105.111 174.001V176H104.474ZM52.0623 183.072C51.8549 183.072 51.6674 183.034 51.4998 182.957C51.3322 182.879 51.1994 182.766 51.1014 182.619C51.0048 182.471 50.9565 182.29 50.9565 182.075C50.9565 181.891 50.992 181.739 51.063 181.619C51.1341 181.5 51.2299 181.406 51.3507 181.336C51.4714 181.266 51.6064 181.214 51.7555 181.178C51.9047 181.143 52.0566 181.116 52.2115 181.097C52.4075 181.075 52.5666 181.056 52.6887 181.042C52.8109 181.026 52.8997 181.001 52.9551 180.967C53.0105 180.933 53.0382 180.878 53.0382 180.801V180.786C53.0382 180.6 52.9856 180.456 52.8805 180.354C52.7768 180.251 52.622 180.2 52.416 180.2C52.2015 180.2 52.0325 180.248 51.9089 180.343C51.7868 180.437 51.7022 180.541 51.6554 180.656L51.0566 180.52C51.1277 180.321 51.2314 180.161 51.3677 180.038C51.5055 179.915 51.6639 179.825 51.8429 179.77C52.0218 179.713 52.21 179.685 52.4075 179.685C52.5382 179.685 52.6767 179.7 52.823 179.732C52.9707 179.761 53.1085 179.817 53.2363 179.898C53.3656 179.979 53.4714 180.094 53.5538 180.245C53.6362 180.394 53.6774 180.588 53.6774 180.827V183H53.0552V182.553H53.0297C52.9885 182.635 52.9267 182.716 52.8443 182.795C52.7619 182.875 52.6561 182.941 52.5268 182.994C52.3975 183.046 52.2427 183.072 52.0623 183.072ZM52.2008 182.561C52.377 182.561 52.5275 182.526 52.6525 182.457C52.7789 182.387 52.8748 182.296 52.9402 182.184C53.0069 182.07 53.0403 181.949 53.0403 181.82V181.398C53.0176 181.42 52.9735 181.442 52.9082 181.462C52.8443 181.48 52.7711 181.496 52.6887 181.511C52.6064 181.523 52.5261 181.536 52.448 181.547C52.3699 181.557 52.3045 181.565 52.252 181.572C52.1284 181.588 52.0154 181.614 51.9132 181.651C51.8123 181.688 51.7314 181.741 51.6703 181.811C51.6106 181.879 51.5808 181.97 51.5808 182.084C51.5808 182.241 51.639 182.361 51.7555 182.442C51.872 182.521 52.0204 182.561 52.2008 182.561ZM56.0536 179.727V180.239H54.266V179.727H56.0536ZM54.7454 178.943H55.3825V182.039C55.3825 182.163 55.4009 182.256 55.4379 182.318C55.4748 182.379 55.5224 182.421 55.5806 182.444C55.6403 182.465 55.7049 182.476 55.7745 182.476C55.8256 182.476 55.8704 182.472 55.9087 182.465C55.9471 182.458 55.9769 182.452 55.9982 182.448L56.1133 182.974C56.0763 182.989 56.0238 183.003 55.9556 183.017C55.8874 183.033 55.8022 183.041 55.6999 183.043C55.5323 183.045 55.3761 183.016 55.2312 182.953C55.0863 182.891 54.9691 182.794 54.8796 182.663C54.7901 182.533 54.7454 182.369 54.7454 182.171V178.943ZM58.286 179.727V180.239H56.4984V179.727H58.286ZM56.9778 178.943H57.6149V182.039C57.6149 182.163 57.6333 182.256 57.6703 182.318C57.7072 182.379 57.7548 182.421 57.813 182.444C57.8727 182.465 57.9373 182.476 58.0069 182.476C58.0581 182.476 58.1028 182.472 58.1412 182.465C58.1795 182.458 58.2093 182.452 58.2306 182.448L58.3457 182.974C58.3088 182.989 58.2562 183.003 58.188 183.017C58.1199 183.033 58.0346 183.041 57.9324 183.043C57.7647 183.045 57.6085 183.016 57.4636 182.953C57.3187 182.891 57.2015 182.794 57.112 182.663C57.0225 182.533 56.9778 182.369 56.9778 182.171V178.943ZM60.3661 183.066C60.0437 183.066 59.766 182.997 59.533 182.859C59.3015 182.72 59.1225 182.525 58.9961 182.273C58.8711 182.021 58.8086 181.724 58.8086 181.385C58.8086 181.05 58.8711 180.754 58.9961 180.499C59.1225 180.243 59.2987 180.043 59.5245 179.9C59.7518 179.756 60.0174 179.685 60.3214 179.685C60.506 179.685 60.685 179.715 60.8583 179.776C61.0316 179.837 61.1871 179.933 61.3249 180.064C61.4627 180.195 61.5714 180.364 61.6509 180.573C61.7305 180.781 61.7702 181.033 61.7702 181.33V181.555H59.1687V181.078H61.146C61.146 180.911 61.1119 180.762 61.0437 180.633C60.9755 180.502 60.8796 180.399 60.756 180.324C60.6339 180.249 60.4904 180.211 60.3256 180.211C60.1467 180.211 59.9904 180.255 59.8569 180.343C59.7248 180.43 59.6225 180.543 59.5501 180.684C59.479 180.823 59.4435 180.974 59.4435 181.138V181.511C59.4435 181.729 59.4819 181.915 59.5586 182.069C59.6367 182.222 59.7454 182.339 59.8846 182.42C60.0238 182.5 60.1864 182.54 60.3725 182.54C60.4933 182.54 60.6033 182.523 60.7028 182.489C60.8022 182.453 60.8881 182.401 60.9606 182.331C61.033 182.261 61.0884 182.175 61.1268 182.073L61.7298 182.182C61.6815 182.359 61.5948 182.515 61.4698 182.648C61.3462 182.781 61.1907 182.884 61.0032 182.957C60.8171 183.03 60.6048 183.066 60.3661 183.066ZM63.1142 181.057V183H62.4771V179.727H63.0886V180.26H63.1291C63.2044 180.087 63.3223 179.947 63.4828 179.842C63.6447 179.737 63.8485 179.685 64.0943 179.685C64.3173 179.685 64.5126 179.732 64.6802 179.825C64.8478 179.918 64.9778 180.055 65.0701 180.239C65.1625 180.422 65.2086 180.648 65.2086 180.918V183H64.5716V180.995C64.5716 180.758 64.5098 180.572 64.3862 180.439C64.2626 180.304 64.0929 180.237 63.877 180.237C63.7292 180.237 63.5978 180.268 63.4828 180.332C63.3691 180.396 63.2789 180.49 63.2122 180.614C63.1468 180.736 63.1142 180.884 63.1142 181.057ZM67.2882 183.064C67.024 183.064 66.7882 182.996 66.5808 182.862C66.3748 182.725 66.2129 182.531 66.095 182.28C65.9785 182.027 65.9203 181.724 65.9203 181.37C65.9203 181.016 65.9792 180.714 66.0971 180.462C66.2164 180.211 66.3798 180.018 66.5872 179.885C66.7946 179.751 67.0297 179.685 67.2924 179.685C67.4956 179.685 67.6589 179.719 67.7825 179.787C67.9075 179.854 68.0041 179.932 68.0723 180.021C68.1419 180.111 68.1958 180.19 68.2342 180.258H68.2725V178.636H68.9096V183H68.2875V182.491H68.2342C68.1958 182.56 68.1404 182.64 68.068 182.729C67.997 182.819 67.899 182.897 67.774 182.964C67.649 183.031 67.487 183.064 67.2882 183.064ZM67.4288 182.521C67.612 182.521 67.7669 182.472 67.8933 182.376C68.0211 182.278 68.1177 182.142 68.1831 181.969C68.2498 181.795 68.2832 181.594 68.2832 181.364C68.2832 181.136 68.2505 180.937 68.1852 180.767C68.1199 180.597 68.024 180.464 67.8975 180.369C67.7711 180.273 67.6149 180.226 67.4288 180.226C67.237 180.226 67.0772 180.276 66.9494 180.375C66.8216 180.474 66.725 180.61 66.6596 180.782C66.5957 180.954 66.5637 181.148 66.5637 181.364C66.5637 181.582 66.5964 181.779 66.6618 181.954C66.7271 182.129 66.8237 182.267 66.9515 182.369C67.0808 182.47 67.2399 182.521 67.4288 182.521ZM70.7713 183.072C70.5639 183.072 70.3764 183.034 70.2088 182.957C70.0412 182.879 69.9084 182.766 69.8104 182.619C69.7138 182.471 69.6655 182.29 69.6655 182.075C69.6655 181.891 69.701 181.739 69.772 181.619C69.843 181.5 69.9389 181.406 70.0597 181.336C70.1804 181.266 70.3153 181.214 70.4645 181.178C70.6136 181.143 70.7656 181.116 70.9205 181.097C71.1165 181.075 71.2756 181.056 71.3977 181.042C71.5199 181.026 71.6087 181.001 71.6641 180.967C71.7195 180.933 71.7472 180.878 71.7472 180.801V180.786C71.7472 180.6 71.6946 180.456 71.5895 180.354C71.4858 180.251 71.331 180.2 71.125 180.2C70.9105 180.2 70.7415 180.248 70.6179 180.343C70.4957 180.437 70.4112 180.541 70.3643 180.656L69.7656 180.52C69.8366 180.321 69.9403 180.161 70.0767 180.038C70.2145 179.915 70.3729 179.825 70.5518 179.77C70.7308 179.713 70.919 179.685 71.1165 179.685C71.2472 179.685 71.3857 179.7 71.532 179.732C71.6797 179.761 71.8175 179.817 71.9453 179.898C72.0746 179.979 72.1804 180.094 72.2628 180.245C72.3452 180.394 72.3864 180.588 72.3864 180.827V183H71.7642V182.553H71.7386C71.6974 182.635 71.6357 182.716 71.5533 182.795C71.4709 182.875 71.3651 182.941 71.2358 182.994C71.1065 183.046 70.9517 183.072 70.7713 183.072ZM70.9098 182.561C71.0859 182.561 71.2365 182.526 71.3615 182.457C71.4879 182.387 71.5838 182.296 71.6491 182.184C71.7159 182.07 71.7493 181.949 71.7493 181.82V181.398C71.7266 181.42 71.6825 181.442 71.6172 181.462C71.5533 181.48 71.4801 181.496 71.3977 181.511C71.3153 181.523 71.2351 181.536 71.157 181.547C71.0788 181.557 71.0135 181.565 70.9609 181.572C70.8374 181.588 70.7244 181.614 70.6222 181.651C70.5213 181.688 70.4403 181.741 70.3793 181.811C70.3196 181.879 70.2898 181.97 70.2898 182.084C70.2898 182.241 70.348 182.361 70.4645 182.442C70.581 182.521 70.7294 182.561 70.9098 182.561ZM73.872 181.057V183H73.2349V179.727H73.8464V180.26H73.8869C73.9622 180.087 74.0801 179.947 74.2406 179.842C74.4025 179.737 74.6064 179.685 74.8521 179.685C75.0751 179.685 75.2704 179.732 75.438 179.825C75.6056 179.918 75.7356 180.055 75.8279 180.239C75.9203 180.422 75.9664 180.648 75.9664 180.918V183H75.3294V180.995C75.3294 180.758 75.2676 180.572 75.144 180.439C75.0204 180.304 74.8507 180.237 74.6348 180.237C74.487 180.237 74.3556 180.268 74.2406 180.332C74.127 180.396 74.0368 180.49 73.97 180.614C73.9047 180.736 73.872 180.884 73.872 181.057ZM78.1994 183.066C77.8826 183.066 77.6099 182.994 77.3812 182.851C77.1539 182.706 76.9792 182.506 76.8571 182.252C76.7349 181.998 76.6738 181.707 76.6738 181.379C76.6738 181.046 76.7363 180.753 76.8613 180.499C76.9863 180.243 77.1625 180.043 77.3897 179.9C77.617 179.756 77.8848 179.685 78.193 179.685C78.4416 179.685 78.6632 179.731 78.8578 179.823C79.0524 179.914 79.2093 180.042 79.3287 180.207C79.4494 180.371 79.5211 180.564 79.5439 180.784H78.9238C78.8897 180.631 78.8116 180.499 78.6895 180.388C78.5687 180.277 78.4068 180.222 78.2037 180.222C78.0261 180.222 77.8706 180.268 77.737 180.362C77.6049 180.455 77.502 180.587 77.4281 180.759C77.3542 180.929 77.3173 181.131 77.3173 181.364C77.3173 181.602 77.3535 181.808 77.426 181.982C77.4984 182.155 77.6007 182.289 77.7328 182.384C77.8663 182.479 78.0233 182.527 78.2037 182.527C78.3244 182.527 78.4338 182.505 78.5318 182.461C78.6312 182.415 78.7143 182.351 78.7811 182.267C78.8493 182.183 78.8968 182.082 78.9238 181.964H79.5439C79.5211 182.176 79.4522 182.365 79.3372 182.531C79.2221 182.697 79.068 182.828 78.8748 182.923C78.6831 183.018 78.4579 183.066 78.1994 183.066ZM81.6357 183.066C81.3132 183.066 81.0355 182.997 80.8026 182.859C80.571 182.72 80.392 182.525 80.2656 182.273C80.1406 182.021 80.0781 181.724 80.0781 181.385C80.0781 181.05 80.1406 180.754 80.2656 180.499C80.392 180.243 80.5682 180.043 80.794 179.9C81.0213 179.756 81.2869 179.685 81.5909 179.685C81.7756 179.685 81.9545 179.715 82.1278 179.776C82.3011 179.837 82.4567 179.933 82.5945 180.064C82.7322 180.195 82.8409 180.364 82.9205 180.573C83 180.781 83.0398 181.033 83.0398 181.33V181.555H80.4382V181.078H82.4155C82.4155 180.911 82.3814 180.762 82.3132 180.633C82.245 180.502 82.1491 180.399 82.0256 180.324C81.9034 180.249 81.7599 180.211 81.5952 180.211C81.4162 180.211 81.2599 180.255 81.1264 180.343C80.9943 180.43 80.892 180.543 80.8196 180.684C80.7486 180.823 80.7131 180.974 80.7131 181.138V181.511C80.7131 181.729 80.7514 181.915 80.8281 182.069C80.9062 182.222 81.0149 182.339 81.1541 182.42C81.2933 182.5 81.456 182.54 81.642 182.54C81.7628 182.54 81.8729 182.523 81.9723 182.489C82.0717 182.453 82.1577 182.401 82.2301 182.331C82.3026 182.261 82.358 182.175 82.3963 182.073L82.9993 182.182C82.951 182.359 82.8643 182.515 82.7393 182.648C82.6158 182.781 82.4602 182.884 82.2727 182.957C82.0866 183.03 81.8743 183.066 81.6357 183.066Z" fill="#76787A"/>
<mask id="mask0_587_24519" style="mask-type:alpha" maskUnits="userSpaceOnUse" x="12" y="41" width="110" height="110">
<circle cx="67" cy="96" r="55" fill="#F0F8F0"/>
</mask>
<g mask="url(#mask0_587_24519)">
<path d="M12.331 48.9437C12.331 44.7393 15.7393 41.331 19.9437 41.331H347.504C351.708 41.331 355.116 44.7393 355.116 48.9437V150.151H12.331V48.9437Z" fill="#F0F8F0" stroke="#E8E8E8" stroke-width="0.661972"/>
<mask id="mask1_587_24519" style="mask-type:alpha" maskUnits="userSpaceOnUse" x="12" y="41" width="344" height="110">
<path d="M12.331 48.9437C12.331 44.7393 15.7393 41.331 19.9437 41.331H347.504C351.708 41.331 355.116 44.7393 355.116 48.9437V150.151H12.331V48.9437Z" fill="#D9D9D9" stroke="#E8E8E8" stroke-width="0.661972"/>
</mask>
<g mask="url(#mask1_587_24519)">
<mask id="mask2_587_24519" style="mask-type:alpha" maskUnits="userSpaceOnUse" x="-142" y="41" width="498" height="274">
<path d="M-141.849 50.3973C-141.849 45.2073 -137.641 41 -132.451 41H346.053C351.243 41 355.451 45.2073 355.451 50.3973V314.627H-141.849V50.3973Z" fill="#E9F5E4"/>
</mask>
<g mask="url(#mask2_587_24519)">
<g opacity="0.4">
<path d="M260.566 115.263L255.855 117.267L207.913 137.611L206.902 138.041C206.561 138.174 206.217 138.249 205.863 138.249C205.388 138.249 204.913 138.116 204.479 137.864L202.518 136.675L155.735 108.268L150.86 105.315L95.1625 71.4855L94.3161 70.9803C93.7828 70.6696 93.3802 70.1643 93.1875 69.5703L92.176 66.6001L77.4946 23.625C77.3914 23.3416 77.3467 23.0446 77.3467 22.7646H82.7864L97.4677 65.7535L97.884 66.9552L103.221 70.1916L157.002 102.846L204.318 131.565L206.072 132.633L209.847 131.029L253.419 112.525L258.501 110.371C259.84 109.807 261.398 110.429 261.98 111.781C262.544 113.126 261.918 114.686 260.566 115.263Z" fill="#DBDBDB"/>
<path d="M166.583 59.9637L164.488 60.3051L103.216 70.1954L95.1754 71.4859H95.1616L61.8732 76.8629L56.0756 77.7983L28.3163 82.2843L23.0418 83.131L16.0882 84.261C15.9402 84.2747 15.8198 84.2917 15.6719 84.2917V78.9454L24.6623 77.5047L92.1751 66.6039L97.4669 65.7572L162.423 55.2729L165.737 54.7369C167.178 54.515 168.544 55.4948 168.768 56.9355C169.005 58.3762 168.025 59.7247 166.583 59.9637Z" fill="#DBDBDB"/>
<path d="M95.6939 261.033C94.9266 261.033 94.1662 260.702 93.6432 260.063C92.7143 258.933 92.8794 257.264 94.0114 256.335L148.615 211.605L55.1284 76.422C54.2958 75.2169 54.5985 73.5679 55.8028 72.7383C57.007 71.9087 58.6585 72.2091 59.4877 73.4109L154.364 210.605C155.149 211.738 154.932 213.285 153.865 214.159L97.3729 260.432C96.8809 260.835 96.2857 261.033 95.6939 261.033Z" fill="#DBDBDB"/>
<path d="M104.747 146.16C103.945 146.16 103.154 145.798 102.631 145.108C101.746 143.941 101.977 142.281 103.143 141.397L153.965 102.959C155.132 102.078 156.794 102.307 157.678 103.471C158.562 104.639 158.332 106.298 157.165 107.182L106.343 145.624C105.865 145.986 105.301 146.16 104.747 146.16Z" fill="#DBDBDB"/>
<path d="M55.0089 109.342C49.0531 109.342 43.7166 108.014 39.0373 105.361C25.2574 97.5467 22.5668 81.2142 22.4601 80.5212C22.2331 79.0771 23.224 77.7217 24.669 77.4964C26.1141 77.2711 27.4663 78.2577 27.6934 79.7018C27.7209 79.8657 30.15 94.259 41.69 100.776C50.0715 105.508 61.295 105.095 75.0508 99.5473C76.4098 98.9976 77.9512 99.6531 78.4983 101.012C79.0454 102.367 78.3916 103.914 77.0326 104.46C68.9677 107.714 61.6081 109.342 55.0089 109.342Z" fill="#DBDBDB"/>
<path d="M88.2646 121.381L86.5098 121.798L61.2622 127.677L56.0771 128.895L42.8202 131.985L37.6179 133.187L16.2652 138.178C16.0587 138.236 15.8798 138.253 15.6699 138.253V132.876L38.7947 127.485C38.8531 127.472 38.8979 127.472 38.9426 127.455L83.2722 117.121L87.0604 116.23C88.1751 115.963 89.2899 116.451 89.8851 117.373C90.0503 117.626 90.1673 117.909 90.243 118.206C90.5698 119.63 89.6925 121.057 88.2646 121.381Z" fill="#DBDBDB"/>
<path d="M107.844 194.439C102.549 194.439 98.2897 187.625 94.1505 181.002C90.6307 175.372 86.2473 168.373 83.0647 169.21C71.4284 172.296 59.2553 138.474 55.8009 128.037C55.3432 126.648 56.0968 125.152 57.4833 124.691C58.8699 124.237 60.3701 124.989 60.8311 126.375C67.8398 147.558 77.6009 165.157 81.7022 164.092C88.6696 162.249 93.7377 170.357 98.6406 178.195C101.775 183.21 106.072 190.086 108.515 188.963C117.399 184.907 128.667 178.069 128.781 177.997C130.03 177.239 131.661 177.635 132.421 178.882C133.181 180.131 132.786 181.76 131.537 182.521C131.065 182.808 119.89 189.591 110.717 193.78C109.726 194.231 108.77 194.439 107.844 194.439Z" fill="#DBDBDB"/>
<path d="M85.2022 265.434C84.1012 265.434 83.0759 264.747 82.6974 263.652L36.8471 130.94C36.3688 129.557 37.1051 128.048 38.4883 127.574C39.8749 127.096 41.3819 127.83 41.8567 129.212L87.707 261.921C88.1853 263.303 87.449 264.812 86.0658 265.287C85.7803 265.386 85.4878 265.434 85.2022 265.434Z" fill="#DBDBDB"/>
</g>
</g>
</g>
<rect x="59" y="88" width="16" height="16" rx="4" fill="#1DA1F2"/>
<g clip-path="url(#clip0_587_24519)">
<path d="M70.333 92.25H66.9997C66.7705 92.25 66.583 92.4375 66.583 92.6667V93.3375C66.583 93.3375 66.583 93.3375 66.5872 93.3417L68.6705 95.2167C68.933 95.45 69.083 95.7917 69.083 96.1458V96.4167H69.9163V97.25H69.083V98.0833H69.9163V98.9167H69.083V99.75H70.333C70.5622 99.75 70.7497 99.5625 70.7497 99.3333V92.6667C70.7497 92.4375 70.5622 92.25 70.333 92.25ZM68.2497 93.9167H67.4163V93.0833H68.2497V93.9167ZM69.9163 95.5833H69.083V94.75H69.9163V95.5833ZM69.9163 93.9167H69.083V93.0833H69.9163V93.9167Z" fill="white"/>
<path d="M68.25 99.3332V96.1457C68.25 96.029 68.2 95.9165 68.1125 95.8373L66.0292 93.9623C65.95 93.8873 65.85 93.854 65.75 93.854C65.65 93.854 65.55 93.8915 65.4708 93.9623L63.3875 95.8373C63.3 95.9123 63.25 96.0248 63.25 96.1457V99.3332C63.25 99.5623 63.4375 99.7498 63.6667 99.7498H64.5C64.7292 99.7498 64.9167 99.5623 64.9167 99.3332V97.6665H66.5833V99.3332C66.5833 99.5623 66.7708 99.7498 67 99.7498H67.8333C68.0625 99.7498 68.25 99.5623 68.25 99.3332Z" fill="white"/>
</g>
<circle cx="97.5" cy="127.5" r="3" fill="#0C85CF" stroke="#ADDDFA"/>
</g>
<line x1="56.25" y1="6.75" x2="77.75" y2="6.75" stroke="#CCCCCC" stroke-width="2.5" stroke-linecap="round"/>
<rect x="8" y="204" width="118" height="20" rx="4" fill="#F4F4F4"/>
<rect x="11" y="206" width="16" height="16" rx="4.36364" fill="#65B66D"/>
<path d="M19.4687 212.441L20.8796 213.852L19.4687 215.263C19.3268 215.405 19.3268 215.634 19.4687 215.775C19.6105 215.917 19.8396 215.917 19.9814 215.775L21.6505 214.106C21.7923 213.965 21.7923 213.735 21.6505 213.594L19.9814 211.925C19.8396 211.783 19.6105 211.783 19.4687 211.925C19.3305 212.066 19.3268 212.299 19.4687 212.441Z" fill="white"/>
<path d="M16.5614 212.441L17.9723 213.852L16.5614 215.263C16.4196 215.405 16.4196 215.634 16.5614 215.775C16.7032 215.917 16.9323 215.917 17.0742 215.775L18.7432 214.106C18.8851 213.965 18.8851 213.735 18.7432 213.594L17.0742 211.925C16.9323 211.783 16.7032 211.783 16.5614 211.925C16.4232 212.066 16.4196 212.299 16.5614 212.441Z" fill="white"/>
<path opacity="0.6" d="M44.9148 212.727C44.8892 212.511 44.7855 212.344 44.6037 212.224C44.4219 212.105 44.1989 212.045 43.9347 212.045C43.7415 212.045 43.5724 212.077 43.4276 212.139C43.2841 212.202 43.1719 212.288 43.0909 212.397C43.0114 212.506 42.9716 212.631 42.9716 212.77C42.9716 212.886 42.9993 212.987 43.0547 213.07C43.1115 213.153 43.1839 213.222 43.272 213.277C43.3601 213.331 43.4524 213.376 43.549 213.411C43.6456 213.445 43.7344 213.473 43.8153 213.494L44.2585 213.614C44.3722 213.643 44.4986 213.685 44.6378 213.737C44.7784 213.79 44.9126 213.862 45.0405 213.952C45.1697 214.042 45.2763 214.157 45.3601 214.298C45.4439 214.438 45.4858 214.611 45.4858 214.815C45.4858 215.051 45.424 215.264 45.3004 215.455C45.1783 215.645 44.9993 215.796 44.7635 215.908C44.5291 216.021 44.2443 216.077 43.9091 216.077C43.5966 216.077 43.326 216.026 43.0973 215.925C42.87 215.825 42.6911 215.684 42.5604 215.504C42.4311 215.323 42.358 215.114 42.3409 214.875H42.8864C42.9006 215.04 42.956 215.176 43.0526 215.284C43.1506 215.391 43.2741 215.47 43.4233 215.523C43.5739 215.574 43.7358 215.599 43.9091 215.599C44.1108 215.599 44.2919 215.567 44.4524 215.501C44.6129 215.435 44.7401 215.342 44.8338 215.224C44.9276 215.105 44.9744 214.966 44.9744 214.807C44.9744 214.662 44.9339 214.544 44.853 214.453C44.772 214.362 44.6655 214.288 44.5334 214.232C44.4013 214.175 44.2585 214.125 44.1051 214.082L43.5682 213.929C43.2273 213.831 42.9574 213.691 42.7585 213.509C42.5597 213.327 42.4602 213.089 42.4602 212.795C42.4602 212.551 42.5263 212.338 42.6584 212.156C42.7919 211.973 42.9709 211.831 43.1953 211.73C43.4212 211.628 43.6733 211.577 43.9517 211.577C44.233 211.577 44.483 211.627 44.7017 211.728C44.9205 211.827 45.0938 211.964 45.2216 212.137C45.3509 212.31 45.419 212.507 45.4261 212.727H44.9148ZM47.0279 216L46.0307 212.727H46.5591L47.2665 215.233H47.3006L47.9995 212.727H48.5364L49.2267 215.224H49.2608L49.9682 212.727H50.4966L49.4995 216H49.0051L48.2892 213.486H48.2381L47.5222 216H47.0279ZM51.1614 216V212.727H51.6642V216H51.1614ZM51.4171 212.182C51.3191 212.182 51.2346 212.148 51.1635 212.082C51.0939 212.015 51.0591 211.935 51.0591 211.841C51.0591 211.747 51.0939 211.667 51.1635 211.6C51.2346 211.533 51.3191 211.5 51.4171 211.5C51.5151 211.5 51.5989 211.533 51.6685 211.6C51.7395 211.667 51.775 211.747 51.775 211.841C51.775 211.935 51.7395 212.015 51.6685 212.082C51.5989 212.148 51.5151 212.182 51.4171 212.182ZM52.5852 217.227V212.727H53.071V213.247H53.1307C53.1676 213.19 53.2188 213.118 53.2841 213.03C53.3509 212.94 53.446 212.861 53.5696 212.791C53.6946 212.72 53.8636 212.685 54.0767 212.685C54.3523 212.685 54.5952 212.754 54.8054 212.891C55.0156 213.029 55.1797 213.224 55.2976 213.477C55.4155 213.73 55.4744 214.028 55.4744 214.372C55.4744 214.719 55.4155 215.019 55.2976 215.273C55.1797 215.526 55.0163 215.722 54.8075 215.862C54.5987 215.999 54.358 216.068 54.0852 216.068C53.875 216.068 53.7067 216.033 53.5803 215.964C53.4538 215.893 53.3565 215.812 53.2884 215.723C53.2202 215.632 53.1676 215.557 53.1307 215.497H53.0881V217.227H52.5852ZM53.0795 214.364C53.0795 214.611 53.1158 214.829 53.1882 215.018C53.2607 215.205 53.3665 215.352 53.5057 215.459C53.6449 215.564 53.8153 215.616 54.017 215.616C54.2273 215.616 54.4027 215.561 54.5433 215.45C54.6854 215.338 54.7919 215.187 54.8629 214.999C54.9354 214.808 54.9716 214.597 54.9716 214.364C54.9716 214.134 54.9361 213.926 54.8651 213.741C54.7955 213.555 54.6896 213.408 54.5476 213.3C54.407 213.191 54.2301 213.136 54.017 213.136C53.8125 213.136 53.6406 213.188 53.5014 213.292C53.3622 213.394 53.2571 213.538 53.1861 213.722C53.1151 213.906 53.0795 214.119 53.0795 214.364ZM57.6136 216.068C57.2983 216.068 57.0263 215.999 56.7976 215.859C56.5703 215.719 56.3949 215.523 56.2713 215.271C56.1491 215.018 56.0881 214.724 56.0881 214.389C56.0881 214.054 56.1491 213.759 56.2713 213.503C56.3949 213.246 56.5668 213.045 56.7869 212.902C57.0085 212.757 57.267 212.685 57.5625 212.685C57.733 212.685 57.9013 212.713 58.0675 212.77C58.2337 212.827 58.3849 212.919 58.5213 213.047C58.6577 213.173 58.7663 213.341 58.8473 213.55C58.9283 213.759 58.9688 214.016 58.9688 214.321V214.534H56.446V214.099H58.4574C58.4574 213.915 58.4205 213.75 58.3466 213.605C58.2741 213.46 58.1705 213.346 58.0355 213.262C57.902 213.178 57.7443 213.136 57.5625 213.136C57.3622 213.136 57.1889 213.186 57.0426 213.286C56.8977 213.384 56.7862 213.511 56.7081 213.669C56.63 213.827 56.5909 213.996 56.5909 214.176V214.466C56.5909 214.713 56.6335 214.923 56.7188 215.094C56.8054 215.265 56.9254 215.395 57.0788 215.484C57.2322 215.572 57.4105 215.616 57.6136 215.616C57.7457 215.616 57.8651 215.598 57.9716 215.561C58.0795 215.523 58.1726 215.466 58.2507 215.391C58.3288 215.314 58.3892 215.219 58.4318 215.105L58.9176 215.241C58.8665 215.406 58.7805 215.551 58.6598 215.676C58.5391 215.8 58.3899 215.896 58.2124 215.966C58.0348 216.034 57.8352 216.068 57.6136 216.068ZM62.8445 212.727V213.153H61.1484V212.727H62.8445ZM61.6428 211.943H62.1456V215.062C62.1456 215.205 62.1662 215.311 62.2074 215.382C62.25 215.452 62.304 215.499 62.3693 215.523C62.4361 215.545 62.5064 215.557 62.5803 215.557C62.6357 215.557 62.6811 215.554 62.7166 215.548C62.7521 215.541 62.7805 215.536 62.8018 215.531L62.9041 215.983C62.87 215.996 62.8224 216.009 62.7614 216.021C62.7003 216.036 62.6229 216.043 62.5291 216.043C62.3871 216.043 62.2479 216.012 62.1115 215.951C61.9766 215.89 61.8643 215.797 61.7749 215.672C61.6868 215.547 61.6428 215.389 61.6428 215.199V211.943ZM64.8952 216.068C64.5998 216.068 64.3406 215.998 64.1175 215.857C63.896 215.717 63.7227 215.52 63.5977 215.267C63.4741 215.014 63.4123 214.719 63.4123 214.381C63.4123 214.04 63.4741 213.742 63.5977 213.488C63.7227 213.234 63.896 213.036 64.1175 212.896C64.3406 212.755 64.5998 212.685 64.8952 212.685C65.1907 212.685 65.4492 212.755 65.6708 212.896C65.8938 213.036 66.0671 213.234 66.1907 213.488C66.3157 213.742 66.3782 214.04 66.3782 214.381C66.3782 214.719 66.3157 215.014 66.1907 215.267C66.0671 215.52 65.8938 215.717 65.6708 215.857C65.4492 215.998 65.1907 216.068 64.8952 216.068ZM64.8952 215.616C65.1197 215.616 65.3043 215.559 65.4492 215.444C65.5941 215.329 65.7013 215.178 65.771 214.99C65.8406 214.803 65.8754 214.599 65.8754 214.381C65.8754 214.162 65.8406 213.958 65.771 213.769C65.7013 213.58 65.5941 213.428 65.4492 213.311C65.3043 213.195 65.1197 213.136 64.8952 213.136C64.6708 213.136 64.4862 213.195 64.3413 213.311C64.1964 213.428 64.0891 213.58 64.0195 213.769C63.9499 213.958 63.9151 214.162 63.9151 214.381C63.9151 214.599 63.9499 214.803 64.0195 214.99C64.0891 215.178 64.1964 215.329 64.3413 215.444C64.4862 215.559 64.6708 215.616 64.8952 215.616ZM70.1628 216.068C69.856 216.068 69.5918 215.996 69.3702 215.851C69.1486 215.706 68.9782 215.506 68.8588 215.252C68.7395 214.998 68.6799 214.707 68.6799 214.381C68.6799 214.048 68.7409 213.755 68.8631 213.501C68.9867 213.245 69.1586 213.045 69.3787 212.902C69.6003 212.757 69.8588 212.685 70.1543 212.685C70.3844 212.685 70.5918 212.727 70.7765 212.812C70.9611 212.898 71.1124 213.017 71.2303 213.17C71.3482 213.324 71.4213 213.503 71.4498 213.707H70.9469C70.9086 213.558 70.8233 213.426 70.6912 213.311C70.5605 213.195 70.3844 213.136 70.1628 213.136C69.9668 213.136 69.7949 213.187 69.6472 213.29C69.5009 213.391 69.3865 213.533 69.3042 213.718C69.2232 213.901 69.1827 214.116 69.1827 214.364C69.1827 214.616 69.2225 214.837 69.302 215.024C69.383 215.212 69.4966 215.357 69.6429 215.461C69.7907 215.565 69.964 215.616 70.1628 215.616C70.2935 215.616 70.4121 215.594 70.5186 215.548C70.6252 215.503 70.7154 215.438 70.7892 215.352C70.8631 215.267 70.9157 215.165 70.9469 215.045H71.4498C71.4213 215.239 71.351 215.413 71.2388 215.567C71.128 215.721 70.981 215.843 70.7978 215.934C70.6159 216.023 70.4043 216.068 70.1628 216.068ZM72.6877 214.031V216H72.1848V211.636H72.6877V213.239H72.7303C72.807 213.07 72.9221 212.935 73.0755 212.836C73.2303 212.735 73.4363 212.685 73.6934 212.685C73.9164 212.685 74.1117 212.729 74.2793 212.819C74.4469 212.907 74.5769 213.043 74.6692 213.226C74.763 213.408 74.8098 213.639 74.8098 213.92V216H74.307V213.955C74.307 213.695 74.2395 213.494 74.1046 213.352C73.9711 213.208 73.7857 213.136 73.5485 213.136C73.3837 213.136 73.236 213.171 73.1053 213.241C72.976 213.31 72.8738 213.412 72.7985 213.545C72.7246 213.679 72.6877 213.841 72.6877 214.031ZM77.1019 216.068C76.7866 216.068 76.5146 215.999 76.2859 215.859C76.0586 215.719 75.8832 215.523 75.7596 215.271C75.6374 215.018 75.5763 214.724 75.5763 214.389C75.5763 214.054 75.6374 213.759 75.7596 213.503C75.8832 213.246 76.055 213.045 76.2752 212.902C76.4968 212.757 76.7553 212.685 77.0508 212.685C77.2212 212.685 77.3896 212.713 77.5558 212.77C77.7219 212.827 77.8732 212.919 78.0096 213.047C78.146 213.173 78.2546 213.341 78.3356 213.55C78.4165 213.759 78.457 214.016 78.457 214.321V214.534H75.9343V214.099H77.9457C77.9457 213.915 77.9087 213.75 77.8349 213.605C77.7624 213.46 77.6587 213.346 77.5238 213.262C77.3903 213.178 77.2326 213.136 77.0508 213.136C76.8505 213.136 76.6772 213.186 76.5309 213.286C76.386 213.384 76.2745 213.511 76.1964 213.669C76.1183 213.827 76.0792 213.996 76.0792 214.176V214.466C76.0792 214.713 76.1218 214.923 76.207 215.094C76.2937 215.265 76.4137 215.395 76.5671 215.484C76.7205 215.572 76.8988 215.616 77.1019 215.616C77.234 215.616 77.3533 215.598 77.4599 215.561C77.5678 215.523 77.6609 215.466 77.739 215.391C77.8171 215.314 77.8775 215.219 77.9201 215.105L78.4059 215.241C78.3548 215.406 78.2688 215.551 78.1481 215.676C78.0273 215.8 77.8782 215.896 77.7006 215.966C77.5231 216.034 77.3235 216.068 77.1019 216.068ZM80.5515 216.068C80.2447 216.068 79.9805 215.996 79.7589 215.851C79.5373 215.706 79.3668 215.506 79.2475 215.252C79.1282 214.998 79.0685 214.707 79.0685 214.381C79.0685 214.048 79.1296 213.755 79.2518 213.501C79.3754 213.245 79.5472 213.045 79.7674 212.902C79.989 212.757 80.2475 212.685 80.543 212.685C80.7731 212.685 80.9805 212.727 81.1651 212.812C81.3498 212.898 81.5011 213.017 81.619 213.17C81.7369 213.324 81.81 213.503 81.8384 213.707H81.3356C81.2972 213.558 81.212 213.426 81.0799 213.311C80.9492 213.195 80.7731 213.136 80.5515 213.136C80.3555 213.136 80.1836 213.187 80.0359 213.29C79.8896 213.391 79.7752 213.533 79.6928 213.718C79.6119 213.901 79.5714 214.116 79.5714 214.364C79.5714 214.616 79.6112 214.837 79.6907 215.024C79.7717 215.212 79.8853 215.357 80.0316 215.461C80.1793 215.565 80.3526 215.616 80.5515 215.616C80.6822 215.616 80.8008 215.594 80.9073 215.548C81.0138 215.503 81.104 215.438 81.1779 215.352C81.2518 215.267 81.3043 215.165 81.3356 215.045H81.8384C81.81 215.239 81.7397 215.413 81.6275 215.567C81.5167 215.721 81.3697 215.843 81.1864 215.934C81.0046 216.023 80.793 216.068 80.5515 216.068ZM83.0423 214.807L83.0337 214.185H83.136L84.5678 212.727H85.19L83.6644 214.27H83.6218L83.0423 214.807ZM82.5735 216V211.636H83.0763V216H82.5735ZM84.6531 216L83.3746 214.381L83.7326 214.031L85.2923 216H84.6531ZM87.5247 216V212.727H88.0275V216H87.5247ZM87.7804 212.182C87.6824 212.182 87.5978 212.148 87.5268 212.082C87.4572 212.015 87.4224 211.935 87.4224 211.841C87.4224 211.747 87.4572 211.667 87.5268 211.6C87.5978 211.533 87.6824 211.5 87.7804 211.5C87.8784 211.5 87.9622 211.533 88.0318 211.6C88.1028 211.667 88.1383 211.747 88.1383 211.841C88.1383 211.935 88.1028 212.015 88.0318 212.082C87.9622 212.148 87.8784 212.182 87.7804 212.182ZM89.4513 214.031V216H88.9485V212.727H89.4343V213.239H89.4769C89.5536 213.072 89.6701 212.939 89.8263 212.838C89.9826 212.736 90.1843 212.685 90.4315 212.685C90.6531 212.685 90.8469 212.73 91.0131 212.821C91.1793 212.911 91.3086 213.047 91.4009 213.23C91.4933 213.412 91.5394 213.642 91.5394 213.92V216H91.0366V213.955C91.0366 213.697 90.9698 213.497 90.8363 213.354C90.7028 213.209 90.5195 213.136 90.2866 213.136C90.1261 213.136 89.9826 213.171 89.8562 213.241C89.7312 213.31 89.6325 213.412 89.56 213.545C89.4876 213.679 89.4513 213.841 89.4513 214.031Z" fill="#5B5B5D"/>
<defs>
<clipPath id="clip0_587_24519">
<rect width="10" height="10" fill="white" transform="translate(62 91)"/>
</clipPath>
</defs>
</svg>
