<svg xmlns="http://www.w3.org/2000/svg" width="40" height="40" viewBox="0 0 40 40" fill="none">
<g clip-path="url(#clip0_1499_22920)">
<path d="M39.5 33.7812L39.5 13.1562C39.5 12.7812 39.3437 12.4062 39.0625 12.125L31 4.03125C30.7188 3.75 30.375 3.59375 29.9688 3.59375L3.125 3.59375C1.6875 3.59375 0.531249 4.75 0.531248 6.1875L0.531247 33.75C0.531247 35.1875 1.6875 36.3437 3.125 36.3437L12.875 36.3437L15.2187 36.3437L36.875 36.3438C38.3125 36.375 39.5 35.2187 39.5 33.7812ZM10 33.5L3.40625 33.5L3.40625 6.5L28.5312 6.5L28.5312 11.9687C28.5312 13.4062 29.6875 14.5625 31.125 14.5625L36.5937 14.5625L36.5937 33.4687L12.3125 33.4687L10 33.4687L10 33.5Z" fill="#AFAFB1"/>
</g>
<defs>
<clipPath id="clip0_1499_22920">
<rect width="40" height="40" fill="white" transform="translate(40) rotate(90)"/>
</clipPath>
</defs>
</svg>