<svg width="24" height="24" viewBox="0 0 24 24" fill="none" xmlns="http://www.w3.org/2000/svg">
<path d="M21.2857 20.5714H20.5714V9.14286C20.5714 8.71429 20.2857 8.42857 19.8571 8.42857C19.4286 8.42857 19.1429 8.71429 19.1429 9.14286V20.5714H16.2857V13.4286C16.2857 13 16 12.7143 15.5714 12.7143C15.1429 12.7143 14.8571 13 14.8571 13.4286V20.5714H12V16.2857C12 15.8571 11.7143 15.5714 11.2857 15.5714C10.8571 15.5714 10.5714 15.8571 10.5714 16.2857V20.5714H7.71429V17C7.71429 16.5714 7.42857 16.2857 7 16.2857C6.57143 16.2857 6.28571 16.5714 6.28571 17V20.5714H3.42857V17.7143H4.14286C4.57143 17.7143 4.85714 17.4286 4.85714 17C4.85714 16.5714 4.57143 16.2857 4.14286 16.2857H3.42857V13.4286H4.14286C4.57143 13.4286 4.85714 13.1429 4.85714 12.7143C4.85714 12.2857 4.57143 12 4.14286 12H3.42857V9.14286H4.14286C4.57143 9.14286 4.85714 8.85714 4.85714 8.42857C4.85714 8 4.57143 7.71429 4.14286 7.71429H3.42857V4.85714H4.14286C4.57143 4.85714 4.85714 4.57143 4.85714 4.14286C4.85714 3.71429 4.57143 3.42857 4.14286 3.42857H3.42857V2.71429C3.42857 2.28571 3.14286 2 2.71429 2C2.28571 2 2 2.28571 2 2.71429V21.2857C2 21.7143 2.28571 22 2.71429 22H15.5714H21.2857C21.7143 22 22 21.7143 22 21.2857C22 20.8571 21.7143 20.5714 21.2857 20.5714Z" fill="#6B82AB"/>
<path d="M7.00005 13.4286C6.57148 13.4286 6.28577 13.7143 6.28577 14.1428C6.28577 14.5714 6.57148 14.8571 7.00005 14.8571C12.3572 14.8571 16.7858 10.8571 17.5715 5.71427L18.6429 6.7857C18.7858 6.92855 18.9286 6.99998 19.1429 6.99998C19.3572 6.99998 19.5001 6.92855 19.6429 6.7857C19.9286 6.49998 19.9286 6.07141 19.6429 5.7857L17.5001 3.64284C17.4286 3.57141 17.3572 3.49998 17.2858 3.49998C17.1429 3.42855 16.9286 3.42855 16.7143 3.49998C16.6429 3.57141 16.5715 3.57141 16.5001 3.64284L14.3572 5.7857C14.0715 6.07141 14.0715 6.49998 14.3572 6.7857C14.6429 7.07141 15.0715 7.07141 15.3572 6.7857L16.0715 6.07141C15.2143 10.2857 11.4286 13.4286 7.00005 13.4286Z" fill="#1DA1F2"/>
</svg>
