<svg width="24" height="24" viewBox="0 0 24 24" fill="none" xmlns="http://www.w3.org/2000/svg">
<path d="M10.1776 10.1453C12.0487 10.1453 13.5656 8.62844 13.5656 6.75728C13.5656 4.88613 12.0487 3.36926 10.1776 3.36926C8.30642 3.36926 6.78955 4.88613 6.78955 6.75728C6.78955 8.62844 8.30642 10.1453 10.1776 10.1453Z" stroke="#1DA1F2" stroke-width="1.6" stroke-linecap="round" stroke-linejoin="round"/>
<path d="M16.1343 21.9031C16.1343 21.9031 15.9378 18.4325 16.7206 17.8023C18 16.5 19.7894 14.7911 20.9269 12.9669C22.2367 10.8662 22.0209 8.02823 21.9991 5.49908C22.0398 2.05044 18.2004 2.28558 18.2369 5.49908C18.2735 8.71258 17.3288 11.4422 16.1375 12.5542C14.9461 13.6661 13.5876 14.6442 8.82217 14.5272C4.05678 14.4101 1.94266 16.472 2.00118 21.9031" stroke="#6B82AB" stroke-width="1.6"/>
</svg>
