<svg width="24" height="24" viewBox="0 0 24 24" fill="none" xmlns="http://www.w3.org/2000/svg">
<path d="M19.3979 3.57314C19.2271 3.73077 18.9961 3.81866 18.7559 3.81746L18.7462 3.81761L14.0998 3.77113C15.0956 4.69367 15.736 5.89774 15.9212 7.19547C15.961 7.55405 16.0128 8.39408 15.9018 8.8856C15.6675 10.2862 14.9049 11.5628 13.7513 12.4855C12.5977 13.4082 11.1288 13.9165 9.60915 13.9188H9.53969L8.17383 13.9047L15.5494 20.5469C15.7223 20.7026 15.8218 20.916 15.826 21.1401C15.8302 21.3642 15.7388 21.5807 15.5719 21.7419C15.4049 21.9032 15.1762 21.996 14.936 21.9999C14.6957 22.0038 14.4636 21.9185 14.2908 21.7628L5.27662 13.6447C5.14677 13.5278 5.05734 13.3773 5.0198 13.2126C4.98227 13.0479 4.99833 12.8765 5.06594 12.7203C5.13355 12.5642 5.24962 12.4305 5.39926 12.3363C5.5489 12.2421 5.72528 12.1918 5.9058 12.1918H5.91561L9.55947 12.2288H9.60915C10.6517 12.2273 11.6623 11.893 12.473 11.2815C13.2837 10.67 13.8455 9.8181 14.0652 8.86743C14.227 8.36138 14.145 7.52982 14.0838 7.1773C13.8844 6.21462 13.3351 5.34558 12.5285 4.71692C11.7219 4.08825 10.7074 3.73847 9.65641 3.72662L6.013 3.69014C5.77273 3.68895 5.54281 3.59876 5.37382 3.43944C5.20482 3.28011 5.11061 3.06469 5.11189 2.84057C5.11317 2.61644 5.20984 2.40198 5.38065 2.24434C5.55145 2.0867 5.78239 1.99882 6.02266 2.00001H6.03248L9.67589 2.03649L18.7655 2.12733C19.0058 2.12853 19.2357 2.21871 19.4047 2.37804C19.5737 2.53736 19.6679 2.75278 19.6667 2.97691C19.6654 3.20103 19.5687 3.4155 19.3979 3.57314Z" fill="#6B82AB"/>
<line x1="5.8" y1="8.2" x2="19.2" y2="8.2" stroke="#1DA1F2" stroke-width="1.6" stroke-linecap="round"/>
</svg>
