<svg width="24" height="24" viewBox="0 0 24 24" fill="none" xmlns="http://www.w3.org/2000/svg">
<path d="M20.8655 5.44318H3.13447C2.74287 5.44318 2.42542 5.77386 2.42542 6.18178V18.3108C2.42542 18.7187 2.74287 19.0494 3.13447 19.0494H20.8655C21.2571 19.0494 21.5745 18.7187 21.5745 18.3108V6.18178C21.5745 5.77386 21.2571 5.44318 20.8655 5.44318Z" stroke="#6B82AB" stroke-width="1.6"/>
<line x1="5.5" y1="16.5" x2="10.5" y2="16.5" stroke="#1DA1F2" stroke-linecap="round"/>
<path d="M14.85 11.9134C14.9167 11.9519 14.9167 12.0481 14.85 12.0866L10.65 14.5115C10.5833 14.55 10.5 14.5019 10.5 14.4249L10.5 9.57513C10.5 9.49815 10.5833 9.45004 10.65 9.48853L14.85 11.9134Z" stroke="#1DA1F2"/>
</svg>
