<svg width="631" height="263" viewBox="0 0 631 263" fill="none" xmlns="http://www.w3.org/2000/svg">
<g opacity="0.5">
<path d="M558.073 265.62H532.09C530.345 265.616 528.671 264.591 527.437 262.77C526.203 260.948 525.508 258.478 525.506 255.902V168.718C525.508 166.142 526.203 163.672 527.437 161.85C528.671 160.029 530.345 159.004 532.09 159H558.073C559.819 159.002 561.493 160.026 562.729 161.848C563.964 163.67 564.659 166.141 564.661 168.718V255.902C564.659 258.479 563.964 260.95 562.729 262.772C561.493 264.594 559.819 265.618 558.073 265.62ZM532.09 162.319C530.941 162.321 529.839 162.996 529.026 164.195C528.213 165.395 527.756 167.021 527.755 168.718V255.902C527.756 257.598 528.213 259.225 529.026 260.425C529.839 261.624 530.941 262.299 532.09 262.301H558.073C559.223 262.301 560.326 261.627 561.14 260.427C561.954 259.227 562.411 257.6 562.413 255.902V168.718C562.411 167.02 561.954 165.393 561.14 164.193C560.326 162.993 559.223 162.319 558.073 162.319H532.09Z" fill="#6B82AB"/>
<path d="M549.5 265.587H540.91V254.879C540.91 253.295 541.336 251.775 542.095 250.655C542.855 249.535 543.884 248.905 544.958 248.905H545.475C546.548 248.905 547.578 249.535 548.337 250.655C549.096 251.775 549.523 253.295 549.523 254.879L549.5 265.587ZM543.136 262.268H547.251V254.879C547.251 254.175 547.062 253.5 546.725 253.002C546.387 252.504 545.93 252.224 545.452 252.224H544.958C544.481 252.224 544.023 252.504 543.686 253.002C543.348 253.5 543.159 254.175 543.159 254.879L543.136 262.268Z" fill="#6B82AB"/>
<path d="M555.163 181.264H534.236C533.706 181.29 533.177 181.159 532.682 180.878C532.187 180.597 531.736 180.171 531.354 179.627C530.973 179.083 530.67 178.431 530.463 177.711C530.256 176.99 530.149 176.215 530.149 175.432C530.149 174.65 530.256 173.875 530.463 173.154C530.67 172.434 530.973 171.782 531.354 171.238C531.736 170.694 532.187 170.268 532.682 169.987C533.177 169.706 533.706 169.575 534.236 169.601H555.163C555.693 169.575 556.221 169.706 556.716 169.987C557.211 170.268 557.663 170.694 558.044 171.238C558.425 171.782 558.728 172.434 558.935 173.154C559.143 173.875 559.249 174.65 559.249 175.432C559.249 176.215 559.143 176.99 558.935 177.711C558.728 178.431 558.425 179.083 558.044 179.627C557.663 180.171 557.211 180.597 556.716 180.878C556.221 181.159 555.693 181.29 555.163 181.264ZM534.236 172.92C534.005 172.902 533.774 172.954 533.557 173.073C533.34 173.191 533.142 173.373 532.974 173.608C532.806 173.843 532.673 174.126 532.582 174.44C532.491 174.754 532.443 175.091 532.443 175.432C532.443 175.774 532.491 176.111 532.582 176.425C532.673 176.739 532.806 177.021 532.974 177.257C533.142 177.492 533.34 177.674 533.557 177.792C533.774 177.91 534.005 177.963 534.236 177.945H555.163C555.394 177.963 555.624 177.91 555.841 177.792C556.058 177.674 556.256 177.492 556.424 177.257C556.592 177.021 556.725 176.739 556.816 176.425C556.908 176.111 556.955 175.774 556.955 175.432C556.955 175.091 556.908 174.754 556.816 174.44C556.725 174.126 556.592 173.843 556.424 173.608C556.256 173.373 556.058 173.191 555.841 173.073C555.624 172.954 555.394 172.902 555.163 172.92H534.236Z" fill="#6B82AB"/>
<path d="M555.163 197.434H534.236C533.187 197.434 532.182 196.82 531.44 195.725C530.699 194.631 530.282 193.147 530.282 191.599C530.282 190.052 530.699 188.568 531.44 187.474C532.182 186.379 533.187 185.765 534.236 185.765H555.163C556.211 185.765 557.217 186.379 557.958 187.474C558.699 188.568 559.116 190.052 559.116 191.599C559.116 193.147 558.699 194.631 557.958 195.725C557.217 196.82 556.211 197.434 555.163 197.434ZM534.236 189.084C533.783 189.084 533.35 189.349 533.03 189.821C532.711 190.292 532.531 190.932 532.531 191.599C532.531 192.267 532.711 192.907 533.03 193.378C533.35 193.85 533.783 194.115 534.236 194.115H555.163C555.615 194.115 556.048 193.85 556.368 193.378C556.688 192.907 556.867 192.267 556.867 191.599C556.867 190.932 556.688 190.292 556.368 189.821C556.048 189.349 555.615 189.084 555.163 189.084H534.236Z" fill="#6B82AB"/>
<path d="M555.163 213.618H534.236C533.187 213.618 532.182 213.003 531.44 211.909C530.699 210.815 530.282 209.331 530.282 207.783C530.282 206.236 530.699 204.751 531.44 203.657C532.182 202.563 533.187 201.948 534.236 201.948H555.163C556.211 201.948 557.217 202.563 557.958 203.657C558.699 204.751 559.116 206.236 559.116 207.783C559.116 209.331 558.699 210.815 557.958 211.909C557.217 213.003 556.211 213.618 555.163 213.618ZM534.236 205.267C533.783 205.267 533.35 205.532 533.03 206.004C532.711 206.476 532.531 207.116 532.531 207.783C532.531 208.45 532.711 209.09 533.03 209.562C533.35 210.034 533.783 210.299 534.236 210.299H555.163C555.386 210.299 555.608 210.234 555.815 210.107C556.022 209.981 556.21 209.796 556.368 209.562C556.526 209.328 556.652 209.051 556.737 208.746C556.823 208.441 556.867 208.113 556.867 207.783C556.867 207.453 556.823 207.126 556.737 206.82C556.652 206.515 556.526 206.238 556.368 206.004C556.21 205.771 556.022 205.585 555.815 205.459C555.608 205.332 555.386 205.267 555.163 205.267H534.236Z" fill="#6B82AB"/>
<path d="M555.163 229.787H534.236C533.706 229.814 533.177 229.683 532.682 229.401C532.187 229.12 531.736 228.695 531.354 228.151C530.973 227.607 530.67 226.955 530.463 226.234C530.256 225.514 530.149 224.739 530.149 223.956C530.149 223.173 530.256 222.398 530.463 221.678C530.67 220.957 530.973 220.305 531.354 219.761C531.736 219.217 532.187 218.792 532.682 218.51C533.177 218.229 533.706 218.098 534.236 218.124H555.163C555.693 218.098 556.221 218.229 556.716 218.51C557.211 218.792 557.663 219.217 558.044 219.761C558.425 220.305 558.728 220.957 558.935 221.678C559.143 222.398 559.249 223.173 559.249 223.956C559.249 224.739 559.143 225.514 558.935 226.234C558.728 226.955 558.425 227.607 558.044 228.151C557.663 228.695 557.211 229.12 556.716 229.401C556.221 229.683 555.693 229.814 555.163 229.787ZM534.236 221.443C534.005 221.426 533.774 221.478 533.557 221.596C533.34 221.715 533.142 221.897 532.974 222.132C532.806 222.367 532.673 222.65 532.582 222.963C532.491 223.277 532.443 223.615 532.443 223.956C532.443 224.297 532.491 224.635 532.582 224.948C532.673 225.262 532.806 225.545 532.974 225.78C533.142 226.015 533.34 226.197 533.557 226.316C533.774 226.434 534.005 226.486 534.236 226.468H555.163C555.394 226.486 555.624 226.434 555.841 226.316C556.058 226.197 556.256 226.015 556.424 225.78C556.592 225.545 556.725 225.262 556.816 224.948C556.908 224.635 556.955 224.297 556.955 223.956C556.955 223.615 556.908 223.277 556.816 222.963C556.725 222.65 556.592 222.367 556.424 222.132C556.256 221.897 556.058 221.715 555.841 221.596C555.624 221.478 555.394 221.426 555.163 221.443H534.236Z" fill="#6B82AB"/>
<path d="M555.163 245.965H534.236C533.187 245.965 532.182 245.35 531.44 244.256C530.699 243.161 530.282 241.677 530.282 240.13C530.282 238.582 530.699 237.098 531.44 236.004C532.182 234.91 533.187 234.295 534.236 234.295H555.163C556.211 234.295 557.217 234.91 557.958 236.004C558.699 237.098 559.116 238.582 559.116 240.13C559.116 241.677 558.699 243.161 557.958 244.256C557.217 245.35 556.211 245.965 555.163 245.965ZM534.236 237.614C533.783 237.614 533.35 237.879 533.03 238.351C532.711 238.823 532.531 239.463 532.531 240.13C532.531 240.797 532.711 241.437 533.03 241.909C533.35 242.381 533.783 242.646 534.236 242.646H555.163C555.615 242.646 556.048 242.381 556.368 241.909C556.688 241.437 556.867 240.797 556.867 240.13C556.867 239.463 556.688 238.823 556.368 238.351C556.048 237.879 555.615 237.614 555.163 237.614H534.236Z" fill="#6B82AB"/>
<path d="M517.136 265.62H491.154C489.407 265.618 487.733 264.594 486.497 262.772C485.262 260.95 484.567 258.479 484.565 255.902V201.735C484.566 199.157 485.26 196.684 486.496 194.861C487.731 193.038 489.406 192.013 491.154 192.011H517.136C518.882 192.014 520.556 193.04 521.791 194.863C523.025 196.687 523.719 199.158 523.72 201.735V255.902C523.718 258.478 523.023 260.948 521.789 262.77C520.555 264.591 518.881 265.616 517.136 265.62ZM491.154 195.33C490.003 195.332 488.9 196.007 488.086 197.208C487.272 198.409 486.815 200.037 486.813 201.735V255.902C486.815 257.599 487.272 259.227 488.086 260.427C488.9 261.627 490.003 262.301 491.154 262.301H517.136C518.285 262.299 519.387 261.624 520.2 260.425C521.013 259.225 521.47 257.598 521.472 255.902V201.735C521.472 200.038 521.015 198.409 520.202 197.208C519.389 196.007 518.286 195.332 517.136 195.33H491.154Z" fill="#6B82AB"/>
<path d="M514.374 264.253H493.865V255.703C493.865 254.118 494.292 252.599 495.051 251.478C495.81 250.358 496.84 249.729 497.913 249.729H510.326C511.4 249.729 512.43 250.358 513.189 251.478C513.948 252.599 514.374 254.118 514.374 255.703V264.253ZM496.101 260.933H512.125V255.703C512.125 254.999 511.936 254.323 511.599 253.825C511.261 253.327 510.804 253.048 510.326 253.048H497.913C497.436 253.048 496.979 253.327 496.641 253.825C496.304 254.323 496.114 254.999 496.114 255.703L496.101 260.933Z" fill="#6B82AB"/>
<path d="M499.254 213.618H494.837C493.789 213.618 492.783 213.003 492.042 211.909C491.3 210.815 490.884 209.331 490.884 207.783C490.884 206.236 491.3 204.751 492.042 203.657C492.783 202.563 493.789 201.948 494.837 201.948H499.254C500.302 201.948 501.308 202.563 502.049 203.657C502.791 204.751 503.207 206.236 503.207 207.783C503.207 209.331 502.791 210.815 502.049 211.909C501.308 213.003 500.302 213.618 499.254 213.618ZM494.837 205.267C494.385 205.267 493.951 205.532 493.632 206.004C493.312 206.476 493.133 207.116 493.133 207.783C493.133 208.45 493.312 209.09 493.632 209.562C493.951 210.034 494.385 210.299 494.837 210.299H499.254C499.478 210.299 499.699 210.234 499.906 210.107C500.113 209.981 500.301 209.796 500.459 209.562C500.617 209.328 500.743 209.051 500.829 208.746C500.914 208.441 500.958 208.113 500.958 207.783C500.958 207.453 500.914 207.126 500.829 206.82C500.743 206.515 500.617 206.238 500.459 206.004C500.301 205.771 500.113 205.585 499.906 205.459C499.699 205.332 499.478 205.267 499.254 205.267H494.837Z" fill="#6B82AB"/>
<path d="M499.254 229.787H494.837C493.812 229.736 492.841 229.1 492.128 228.012C491.416 226.924 491.017 225.469 491.017 223.956C491.017 222.442 491.416 220.988 492.128 219.9C492.841 218.812 493.812 218.175 494.837 218.124H499.254C499.784 218.098 500.312 218.229 500.807 218.51C501.302 218.792 501.754 219.217 502.135 219.761C502.516 220.305 502.819 220.957 503.027 221.678C503.234 222.398 503.34 223.173 503.34 223.956C503.34 224.739 503.234 225.514 503.027 226.234C502.819 226.955 502.516 227.607 502.135 228.151C501.754 228.695 501.302 229.12 500.807 229.401C500.312 229.683 499.784 229.814 499.254 229.787ZM494.837 221.443C494.401 221.477 493.99 221.756 493.689 222.223C493.388 222.691 493.22 223.311 493.22 223.956C493.22 224.601 493.388 225.221 493.689 225.689C493.99 226.156 494.401 226.435 494.837 226.468H499.254C499.485 226.486 499.716 226.434 499.932 226.316C500.149 226.197 500.348 226.015 500.515 225.78C500.683 225.545 500.816 225.262 500.908 224.948C500.999 224.635 501.046 224.297 501.046 223.956C501.046 223.615 500.999 223.277 500.908 222.963C500.816 222.65 500.683 222.367 500.515 222.132C500.348 221.897 500.149 221.715 499.932 221.596C499.716 221.478 499.485 221.426 499.254 221.443H494.837Z" fill="#6B82AB"/>
<path d="M499.254 245.965H494.837C493.789 245.965 492.783 245.35 492.042 244.256C491.3 243.161 490.884 241.677 490.884 240.13C490.884 238.582 491.3 237.098 492.042 236.004C492.783 234.91 493.789 234.295 494.837 234.295H499.254C500.302 234.295 501.308 234.91 502.049 236.004C502.791 237.098 503.207 238.582 503.207 240.13C503.207 241.677 502.791 243.161 502.049 244.256C501.308 245.35 500.302 245.965 499.254 245.965ZM494.837 237.614C494.385 237.614 493.951 237.879 493.632 238.351C493.312 238.823 493.133 239.463 493.133 240.13C493.133 240.797 493.312 241.437 493.632 241.909C493.951 242.381 494.385 242.646 494.837 242.646H499.254C499.706 242.646 500.139 242.381 500.459 241.909C500.779 241.437 500.958 240.797 500.958 240.13C500.958 239.463 500.779 238.823 500.459 238.351C500.139 237.879 499.706 237.614 499.254 237.614H494.837Z" fill="#6B82AB"/>
<path d="M514.68 213.618H510.264C509.215 213.618 508.21 213.003 507.468 211.909C506.727 210.815 506.31 209.331 506.31 207.783C506.31 206.236 506.727 204.751 507.468 203.657C508.21 202.563 509.215 201.948 510.264 201.948H514.68C515.729 201.948 516.734 202.563 517.476 203.657C518.217 204.751 518.634 206.236 518.634 207.783C518.634 209.331 518.217 210.815 517.476 211.909C516.734 213.003 515.729 213.618 514.68 213.618ZM510.264 205.267C509.812 205.267 509.378 205.532 509.058 206.004C508.739 206.476 508.559 207.116 508.559 207.783C508.559 208.45 508.739 209.09 509.058 209.562C509.378 210.034 509.812 210.299 510.264 210.299H514.68C514.904 210.299 515.126 210.234 515.333 210.107C515.539 209.981 515.727 209.796 515.886 209.562C516.044 209.328 516.169 209.051 516.255 208.746C516.341 208.441 516.385 208.113 516.385 207.783C516.385 207.453 516.341 207.126 516.255 206.82C516.169 206.515 516.044 206.238 515.886 206.004C515.727 205.771 515.539 205.585 515.333 205.459C515.126 205.332 514.904 205.267 514.68 205.267H510.264Z" fill="#6B82AB"/>
<path d="M514.68 229.787H510.264C509.239 229.736 508.268 229.1 507.555 228.012C506.842 226.924 506.444 225.469 506.444 223.956C506.444 222.442 506.842 220.988 507.555 219.9C508.268 218.812 509.239 218.175 510.264 218.124H514.68C515.21 218.098 515.739 218.229 516.234 218.51C516.729 218.792 517.18 219.217 517.561 219.761C517.943 220.305 518.246 220.957 518.453 221.678C518.66 222.398 518.767 223.173 518.767 223.956C518.767 224.739 518.66 225.514 518.453 226.234C518.246 226.955 517.943 227.607 517.561 228.151C517.18 228.695 516.729 229.12 516.234 229.401C515.739 229.683 515.21 229.814 514.68 229.787ZM510.264 221.443C509.827 221.477 509.416 221.756 509.115 222.223C508.814 222.691 508.647 223.311 508.647 223.956C508.647 224.601 508.814 225.221 509.115 225.689C509.416 226.156 509.827 226.435 510.264 226.468H514.68C514.911 226.486 515.142 226.434 515.359 226.316C515.576 226.197 515.774 226.015 515.942 225.78C516.109 225.545 516.243 225.262 516.334 224.948C516.425 224.635 516.472 224.297 516.472 223.956C516.472 223.615 516.425 223.277 516.334 222.963C516.243 222.65 516.109 222.367 515.942 222.132C515.774 221.897 515.576 221.715 515.359 221.596C515.142 221.478 514.911 221.426 514.68 221.443H510.264Z" fill="#6B82AB"/>
<path d="M514.68 245.965H510.264C509.215 245.965 508.21 245.35 507.468 244.256C506.727 243.161 506.31 241.677 506.31 240.13C506.31 238.582 506.727 237.098 507.468 236.004C508.21 234.91 509.215 234.295 510.264 234.295H514.68C515.729 234.295 516.734 234.91 517.476 236.004C518.217 237.098 518.634 238.582 518.634 240.13C518.634 241.677 518.217 243.161 517.476 244.256C516.734 245.35 515.729 245.965 514.68 245.965ZM510.264 237.614C509.812 237.614 509.378 237.879 509.058 238.351C508.739 238.823 508.559 239.463 508.559 240.13C508.559 240.797 508.739 241.437 509.058 241.909C509.378 242.381 509.812 242.646 510.264 242.646H514.68C515.132 242.646 515.566 242.381 515.886 241.909C516.205 241.437 516.385 240.797 516.385 240.13C516.385 239.463 516.205 238.823 515.886 238.351C515.566 237.879 515.132 237.614 514.68 237.614H510.264Z" fill="#6B82AB"/>
<path d="M477.157 265.62H436.783C435.037 265.616 433.364 264.591 432.129 262.77C430.895 260.948 430.201 258.478 430.198 255.902V168.718C430.201 166.142 430.895 163.672 432.129 161.85C433.364 160.029 435.037 159.004 436.783 159H477.157C478.903 159.004 480.576 160.029 481.81 161.85C483.045 163.672 483.739 166.142 483.741 168.718V255.902C483.739 258.478 483.045 260.948 481.81 262.77C480.576 264.591 478.903 265.616 477.157 265.62ZM436.783 162.319C435.633 162.321 434.531 162.996 433.718 164.195C432.905 165.395 432.448 167.021 432.447 168.718V255.902C432.448 257.598 432.905 259.225 433.718 260.425C434.531 261.624 435.633 262.299 436.783 262.301H477.157C478.307 262.299 479.409 261.624 480.222 260.425C481.034 259.225 481.492 257.598 481.493 255.902V168.718C481.492 167.021 481.034 165.395 480.222 164.195C479.409 162.996 478.307 162.321 477.157 162.319H436.783Z" fill="#6B82AB"/>
<path d="M463.944 265.587H449.695V254.879C449.695 253.295 450.122 251.775 450.881 250.655C451.64 249.535 452.67 248.905 453.743 248.905H459.896C460.969 248.905 461.999 249.535 462.758 250.655C463.517 251.775 463.944 253.295 463.944 254.879V265.587ZM451.944 262.268H461.695V254.879C461.695 254.175 461.505 253.5 461.168 253.002C460.83 252.504 460.373 252.224 459.896 252.224H453.743C453.266 252.224 452.808 252.504 452.471 253.002C452.134 253.5 451.944 254.175 451.944 254.879V262.268Z" fill="#6B82AB"/>
<path d="M474.243 181.264H469.439C468.909 181.29 468.381 181.159 467.886 180.878C467.391 180.597 466.94 180.171 466.558 179.627C466.177 179.083 465.874 178.431 465.667 177.711C465.46 176.99 465.353 176.215 465.353 175.432C465.353 174.65 465.46 173.875 465.667 173.154C465.874 172.434 466.177 171.782 466.558 171.238C466.94 170.694 467.391 170.268 467.886 169.987C468.381 169.706 468.909 169.575 469.439 169.601H474.243C474.773 169.575 475.301 169.706 475.796 169.987C476.291 170.268 476.743 170.694 477.124 171.238C477.505 171.782 477.809 172.434 478.016 173.154C478.223 173.875 478.329 174.65 478.329 175.432C478.329 176.215 478.223 176.99 478.016 177.711C477.809 178.431 477.505 179.083 477.124 179.627C476.743 180.171 476.291 180.597 475.796 180.878C475.301 181.159 474.773 181.29 474.243 181.264ZM469.439 172.92C469.209 172.902 468.978 172.954 468.761 173.073C468.544 173.191 468.346 173.373 468.178 173.608C468.01 173.843 467.877 174.126 467.786 174.44C467.694 174.754 467.647 175.091 467.647 175.432C467.647 175.774 467.694 176.111 467.786 176.425C467.877 176.739 468.01 177.021 468.178 177.257C468.346 177.492 468.544 177.674 468.761 177.792C468.978 177.91 469.209 177.963 469.439 177.945H474.243C474.474 177.963 474.705 177.91 474.922 177.792C475.138 177.674 475.337 177.492 475.504 177.257C475.672 177.021 475.805 176.739 475.897 176.425C475.988 176.111 476.035 175.774 476.035 175.432C476.035 175.091 475.988 174.754 475.897 174.44C475.805 174.126 475.672 173.843 475.504 173.608C475.337 173.373 475.138 173.191 474.922 173.073C474.705 172.954 474.474 172.902 474.243 172.92H469.439Z" fill="#6B82AB"/>
<path d="M474.243 197.434H469.439C468.391 197.434 467.385 196.82 466.644 195.725C465.903 194.631 465.486 193.147 465.486 191.599C465.486 190.052 465.903 188.568 466.644 187.474C467.385 186.379 468.391 185.765 469.439 185.765H474.243C475.291 185.765 476.297 186.379 477.038 187.474C477.78 188.568 478.196 190.052 478.196 191.599C478.196 193.147 477.78 194.631 477.038 195.725C476.297 196.82 475.291 197.434 474.243 197.434ZM469.439 189.084C468.987 189.084 468.554 189.349 468.234 189.821C467.914 190.292 467.735 190.932 467.735 191.599C467.735 192.267 467.914 192.907 468.234 193.378C468.554 193.85 468.987 194.115 469.439 194.115H474.243C474.695 194.115 475.128 193.85 475.448 193.378C475.768 192.907 475.947 192.267 475.947 191.599C475.947 190.932 475.768 190.292 475.448 189.821C475.128 189.349 474.695 189.084 474.243 189.084H469.439Z" fill="#6B82AB"/>
<path d="M474.243 213.618H469.439C468.391 213.618 467.385 213.003 466.644 211.909C465.903 210.815 465.486 209.331 465.486 207.783C465.486 206.236 465.903 204.751 466.644 203.657C467.385 202.563 468.391 201.948 469.439 201.948H474.243C475.291 201.948 476.297 202.563 477.038 203.657C477.78 204.751 478.196 206.236 478.196 207.783C478.196 209.331 477.78 210.815 477.038 211.909C476.297 213.003 475.291 213.618 474.243 213.618ZM469.439 205.267C468.987 205.267 468.554 205.532 468.234 206.004C467.914 206.476 467.735 207.116 467.735 207.783C467.735 208.45 467.914 209.09 468.234 209.562C468.554 210.034 468.987 210.299 469.439 210.299H474.243C474.467 210.299 474.688 210.234 474.895 210.107C475.102 209.981 475.29 209.796 475.448 209.562C475.606 209.328 475.732 209.051 475.818 208.746C475.903 208.441 475.947 208.113 475.947 207.783C475.947 207.453 475.903 207.126 475.818 206.82C475.732 206.515 475.606 206.238 475.448 206.004C475.29 205.771 475.102 205.585 474.895 205.459C474.688 205.332 474.467 205.267 474.243 205.267H469.439Z" fill="#6B82AB"/>
<path d="M474.243 229.787H469.439C468.909 229.814 468.381 229.683 467.886 229.401C467.391 229.12 466.94 228.695 466.558 228.151C466.177 227.607 465.874 226.955 465.667 226.234C465.46 225.514 465.353 224.739 465.353 223.956C465.353 223.173 465.46 222.398 465.667 221.678C465.874 220.957 466.177 220.305 466.558 219.761C466.94 219.217 467.391 218.792 467.886 218.51C468.381 218.229 468.909 218.098 469.439 218.124H474.243C474.773 218.098 475.301 218.229 475.796 218.51C476.291 218.792 476.743 219.217 477.124 219.761C477.505 220.305 477.809 220.957 478.016 221.678C478.223 222.398 478.329 223.173 478.329 223.956C478.329 224.739 478.223 225.514 478.016 226.234C477.809 226.955 477.505 227.607 477.124 228.151C476.743 228.695 476.291 229.12 475.796 229.401C475.301 229.683 474.773 229.814 474.243 229.787ZM469.439 221.443C469.209 221.426 468.978 221.478 468.761 221.596C468.544 221.715 468.346 221.897 468.178 222.132C468.01 222.367 467.877 222.65 467.786 222.963C467.694 223.277 467.647 223.615 467.647 223.956C467.647 224.297 467.694 224.635 467.786 224.948C467.877 225.262 468.01 225.545 468.178 225.78C468.346 226.015 468.544 226.197 468.761 226.316C468.978 226.434 469.209 226.486 469.439 226.468H474.243C474.474 226.486 474.705 226.434 474.922 226.316C475.138 226.197 475.337 226.015 475.504 225.78C475.672 225.545 475.805 225.262 475.897 224.948C475.988 224.635 476.035 224.297 476.035 223.956C476.035 223.615 475.988 223.277 475.897 222.963C475.805 222.65 475.672 222.367 475.504 222.132C475.337 221.897 475.138 221.715 474.922 221.596C474.705 221.478 474.474 221.426 474.243 221.443H469.439Z" fill="#6B82AB"/>
<path d="M474.243 245.965H469.439C468.391 245.965 467.385 245.35 466.644 244.256C465.903 243.161 465.486 241.677 465.486 240.13C465.486 238.582 465.903 237.098 466.644 236.004C467.385 234.91 468.391 234.295 469.439 234.295H474.243C475.291 234.295 476.297 234.91 477.038 236.004C477.78 237.098 478.196 238.582 478.196 240.13C478.196 241.677 477.78 243.161 477.038 244.256C476.297 245.35 475.291 245.965 474.243 245.965ZM469.439 237.614C469.216 237.614 468.994 237.679 468.787 237.805C468.58 237.932 468.392 238.117 468.234 238.351C468.076 238.584 467.95 238.862 467.865 239.167C467.779 239.472 467.735 239.799 467.735 240.13C467.735 240.46 467.779 240.787 467.865 241.092C467.95 241.398 468.076 241.675 468.234 241.909C468.392 242.142 468.58 242.328 468.787 242.454C468.994 242.58 469.216 242.646 469.439 242.646H474.243C474.695 242.646 475.128 242.381 475.448 241.909C475.768 241.437 475.947 240.797 475.947 240.13C475.947 239.463 475.768 238.823 475.448 238.351C475.128 237.879 474.695 237.614 474.243 237.614H469.439Z" fill="#6B82AB"/>
<path d="M460.071 181.264H455.268C454.737 181.29 454.209 181.159 453.714 180.878C453.219 180.597 452.768 180.171 452.386 179.627C452.005 179.083 451.702 178.431 451.495 177.711C451.288 176.99 451.181 176.215 451.181 175.432C451.181 174.65 451.288 173.875 451.495 173.154C451.702 172.434 452.005 171.782 452.386 171.238C452.768 170.694 453.219 170.268 453.714 169.987C454.209 169.706 454.737 169.575 455.268 169.601H460.071C460.601 169.575 461.129 169.706 461.624 169.987C462.119 170.268 462.571 170.694 462.952 171.238C463.333 171.782 463.637 172.434 463.844 173.154C464.051 173.875 464.158 174.65 464.158 175.432C464.158 176.215 464.051 176.99 463.844 177.711C463.637 178.431 463.333 179.083 462.952 179.627C462.571 180.171 462.119 180.597 461.624 180.878C461.129 181.159 460.601 181.29 460.071 181.264ZM455.268 172.92C455.037 172.902 454.806 172.954 454.589 173.073C454.372 173.191 454.174 173.373 454.006 173.608C453.838 173.843 453.705 174.126 453.614 174.44C453.523 174.754 453.475 175.091 453.475 175.432C453.475 175.774 453.523 176.111 453.614 176.425C453.705 176.739 453.838 177.021 454.006 177.257C454.174 177.492 454.372 177.674 454.589 177.792C454.806 177.91 455.037 177.963 455.268 177.945H460.071C460.302 177.963 460.533 177.91 460.75 177.792C460.967 177.674 461.165 177.492 461.332 177.257C461.5 177.021 461.634 176.739 461.725 176.425C461.816 176.111 461.863 175.774 461.863 175.432C461.863 175.091 461.816 174.754 461.725 174.44C461.634 174.126 461.5 173.843 461.332 173.608C461.165 173.373 460.967 173.191 460.75 173.073C460.533 172.954 460.302 172.902 460.071 172.92H455.268Z" fill="#6B82AB"/>
<path d="M460.071 197.434H455.268C454.219 197.434 453.214 196.82 452.472 195.725C451.731 194.631 451.314 193.147 451.314 191.599C451.314 190.052 451.731 188.568 452.472 187.474C453.214 186.379 454.219 185.765 455.268 185.765H460.071C461.12 185.765 462.125 186.379 462.867 187.474C463.608 188.568 464.025 190.052 464.025 191.599C464.025 193.147 463.608 194.631 462.867 195.725C462.125 196.82 461.12 197.434 460.071 197.434ZM455.268 189.084C454.816 189.084 454.382 189.349 454.062 189.821C453.743 190.292 453.563 190.932 453.563 191.599C453.563 192.267 453.743 192.907 454.062 193.378C454.382 193.85 454.816 194.115 455.268 194.115H460.071C460.523 194.115 460.957 193.85 461.276 193.378C461.596 192.907 461.776 192.267 461.776 191.599C461.776 190.932 461.596 190.292 461.276 189.821C460.957 189.349 460.523 189.084 460.071 189.084H455.268Z" fill="#6B82AB"/>
<path d="M460.071 213.618H455.268C454.219 213.618 453.214 213.003 452.472 211.909C451.731 210.815 451.314 209.331 451.314 207.783C451.314 206.236 451.731 204.751 452.472 203.657C453.214 202.563 454.219 201.948 455.268 201.948H460.071C461.12 201.948 462.125 202.563 462.867 203.657C463.608 204.751 464.025 206.236 464.025 207.783C464.025 209.331 463.608 210.815 462.867 211.909C462.125 213.003 461.12 213.618 460.071 213.618ZM455.268 205.267C454.816 205.267 454.382 205.532 454.062 206.004C453.743 206.476 453.563 207.116 453.563 207.783C453.563 208.45 453.743 209.09 454.062 209.562C454.382 210.034 454.816 210.299 455.268 210.299H460.071C460.295 210.299 460.517 210.234 460.723 210.107C460.93 209.981 461.118 209.796 461.276 209.562C461.435 209.328 461.56 209.051 461.646 208.746C461.732 208.441 461.776 208.113 461.776 207.783C461.776 207.453 461.732 207.126 461.646 206.82C461.56 206.515 461.435 206.238 461.276 206.004C461.118 205.771 460.93 205.585 460.723 205.459C460.517 205.332 460.295 205.267 460.071 205.267H455.268Z" fill="#6B82AB"/>
<path d="M460.071 229.787H455.268C454.737 229.814 454.209 229.683 453.714 229.401C453.219 229.12 452.768 228.695 452.386 228.151C452.005 227.607 451.702 226.955 451.495 226.234C451.288 225.514 451.181 224.739 451.181 223.956C451.181 223.173 451.288 222.398 451.495 221.678C451.702 220.957 452.005 220.305 452.386 219.761C452.768 219.217 453.219 218.792 453.714 218.51C454.209 218.229 454.737 218.098 455.268 218.124H460.071C460.601 218.098 461.129 218.229 461.624 218.51C462.119 218.792 462.571 219.217 462.952 219.761C463.333 220.305 463.637 220.957 463.844 221.678C464.051 222.398 464.158 223.173 464.158 223.956C464.158 224.739 464.051 225.514 463.844 226.234C463.637 226.955 463.333 227.607 462.952 228.151C462.571 228.695 462.119 229.12 461.624 229.401C461.129 229.683 460.601 229.814 460.071 229.787ZM455.268 221.443C455.037 221.426 454.806 221.478 454.589 221.596C454.372 221.715 454.174 221.897 454.006 222.132C453.838 222.367 453.705 222.65 453.614 222.963C453.523 223.277 453.475 223.615 453.475 223.956C453.475 224.297 453.523 224.635 453.614 224.948C453.705 225.262 453.838 225.545 454.006 225.78C454.174 226.015 454.372 226.197 454.589 226.316C454.806 226.434 455.037 226.486 455.268 226.468H460.071C460.302 226.486 460.533 226.434 460.75 226.316C460.967 226.197 461.165 226.015 461.332 225.78C461.5 225.545 461.634 225.262 461.725 224.948C461.816 224.635 461.863 224.297 461.863 223.956C461.863 223.615 461.816 223.277 461.725 222.963C461.634 222.65 461.5 222.367 461.332 222.132C461.165 221.897 460.967 221.715 460.75 221.596C460.533 221.478 460.302 221.426 460.071 221.443H455.268Z" fill="#6B82AB"/>
<path d="M460.071 245.965H455.268C454.219 245.965 453.214 245.35 452.472 244.256C451.731 243.161 451.314 241.677 451.314 240.13C451.314 238.582 451.731 237.098 452.472 236.004C453.214 234.91 454.219 234.295 455.268 234.295H460.071C461.12 234.295 462.125 234.91 462.867 236.004C463.608 237.098 464.025 238.582 464.025 240.13C464.025 241.677 463.608 243.161 462.867 244.256C462.125 245.35 461.12 245.965 460.071 245.965ZM455.268 237.614C454.816 237.614 454.382 237.879 454.062 238.351C453.743 238.823 453.563 239.463 453.563 240.13C453.563 240.797 453.743 241.437 454.062 241.909C454.382 242.381 454.816 242.646 455.268 242.646H460.071C460.523 242.646 460.957 242.381 461.276 241.909C461.596 241.437 461.776 240.797 461.776 240.13C461.776 239.463 461.596 238.823 461.276 238.351C460.957 237.879 460.523 237.614 460.071 237.614H455.268Z" fill="#6B82AB"/>
<path d="M445.899 181.264H441.091C440.067 181.213 439.095 180.576 438.383 179.488C437.67 178.4 437.271 176.946 437.271 175.432C437.271 173.919 437.67 172.465 438.383 171.377C439.095 170.289 440.067 169.652 441.091 169.601H445.899C446.429 169.575 446.958 169.706 447.453 169.987C447.948 170.268 448.399 170.694 448.781 171.238C449.162 171.782 449.465 172.434 449.672 173.154C449.879 173.875 449.986 174.65 449.986 175.432C449.986 176.215 449.879 176.99 449.672 177.711C449.465 178.431 449.162 179.083 448.781 179.627C448.399 180.171 447.948 180.597 447.453 180.878C446.958 181.159 446.429 181.29 445.899 181.264ZM441.091 172.92C440.655 172.953 440.244 173.232 439.943 173.7C439.642 174.167 439.474 174.788 439.474 175.432C439.474 176.077 439.642 176.698 439.943 177.165C440.244 177.633 440.655 177.912 441.091 177.945H445.899C446.13 177.963 446.361 177.91 446.578 177.792C446.795 177.674 446.993 177.492 447.161 177.257C447.328 177.021 447.462 176.739 447.553 176.425C447.644 176.111 447.691 175.774 447.691 175.432C447.691 175.091 447.644 174.754 447.553 174.44C447.462 174.126 447.328 173.843 447.161 173.608C446.993 173.373 446.795 173.191 446.578 173.073C446.361 172.954 446.13 172.902 445.899 172.92H441.091Z" fill="#6B82AB"/>
<path d="M445.899 197.434H441.092C440.043 197.434 439.037 196.82 438.296 195.725C437.555 194.631 437.138 193.147 437.138 191.599C437.138 190.052 437.555 188.568 438.296 187.474C439.037 186.379 440.043 185.765 441.092 185.765H445.899C446.948 185.765 447.953 186.379 448.695 187.474C449.436 188.568 449.853 190.052 449.853 191.599C449.853 193.147 449.436 194.631 448.695 195.725C447.953 196.82 446.948 197.434 445.899 197.434ZM441.092 189.084C440.639 189.084 440.206 189.349 439.886 189.821C439.567 190.292 439.387 190.932 439.387 191.599C439.387 192.267 439.567 192.907 439.886 193.378C440.206 193.85 440.639 194.115 441.092 194.115H445.899C446.351 194.115 446.785 193.85 447.105 193.378C447.424 192.907 447.604 192.267 447.604 191.599C447.604 190.932 447.424 190.292 447.105 189.821C446.785 189.349 446.351 189.084 445.899 189.084H441.092Z" fill="#6B82AB"/>
<path d="M445.899 213.618H441.092C440.043 213.618 439.037 213.003 438.296 211.909C437.555 210.815 437.138 209.331 437.138 207.783C437.138 206.236 437.555 204.751 438.296 203.657C439.037 202.563 440.043 201.948 441.092 201.948H445.899C446.948 201.948 447.953 202.563 448.695 203.657C449.436 204.751 449.853 206.236 449.853 207.783C449.853 209.331 449.436 210.815 448.695 211.909C447.953 213.003 446.948 213.618 445.899 213.618ZM441.092 205.267C440.639 205.267 440.206 205.532 439.886 206.004C439.567 206.476 439.387 207.116 439.387 207.783C439.387 208.45 439.567 209.09 439.886 209.562C440.206 210.034 440.639 210.299 441.092 210.299H445.899C446.351 210.299 446.785 210.034 447.105 209.562C447.424 209.09 447.604 208.45 447.604 207.783C447.604 207.116 447.424 206.476 447.105 206.004C446.785 205.532 446.351 205.267 445.899 205.267H441.092Z" fill="#6B82AB"/>
<path d="M445.899 229.787H441.091C440.067 229.736 439.095 229.1 438.383 228.012C437.67 226.924 437.271 225.469 437.271 223.956C437.271 222.442 437.67 220.988 438.383 219.9C439.095 218.812 440.067 218.175 441.091 218.124H445.899C446.429 218.098 446.958 218.229 447.453 218.51C447.948 218.792 448.399 219.217 448.781 219.761C449.162 220.305 449.465 220.957 449.672 221.678C449.879 222.398 449.986 223.173 449.986 223.956C449.986 224.739 449.879 225.514 449.672 226.234C449.465 226.955 449.162 227.607 448.781 228.151C448.399 228.695 447.948 229.12 447.453 229.401C446.958 229.683 446.429 229.814 445.899 229.787ZM441.091 221.443C440.655 221.477 440.244 221.756 439.943 222.223C439.642 222.691 439.474 223.311 439.474 223.956C439.474 224.601 439.642 225.221 439.943 225.689C440.244 226.156 440.655 226.435 441.091 226.468H445.899C446.13 226.486 446.361 226.434 446.578 226.316C446.795 226.197 446.993 226.015 447.161 225.78C447.328 225.545 447.462 225.262 447.553 224.948C447.644 224.635 447.691 224.297 447.691 223.956C447.691 223.615 447.644 223.277 447.553 222.963C447.462 222.65 447.328 222.367 447.161 222.132C446.993 221.897 446.795 221.715 446.578 221.596C446.361 221.478 446.13 221.426 445.899 221.443H441.091Z" fill="#6B82AB"/>
<path d="M445.899 245.965H441.092C440.043 245.965 439.037 245.35 438.296 244.256C437.555 243.161 437.138 241.677 437.138 240.13C437.138 238.582 437.555 237.098 438.296 236.004C439.037 234.91 440.043 234.295 441.092 234.295H445.899C446.948 234.295 447.953 234.91 448.695 236.004C449.436 237.098 449.853 238.582 449.853 240.13C449.853 241.677 449.436 243.161 448.695 244.256C447.953 245.35 446.948 245.965 445.899 245.965ZM441.092 237.614C440.639 237.614 440.206 237.879 439.886 238.351C439.567 238.823 439.387 239.463 439.387 240.13C439.387 240.797 439.567 241.437 439.886 241.909C440.206 242.381 440.639 242.646 441.092 242.646H445.899C446.351 242.646 446.785 242.381 447.105 241.909C447.424 241.437 447.604 240.797 447.604 240.13C447.604 239.463 447.424 238.823 447.105 238.351C446.785 237.879 446.351 237.614 445.899 237.614H441.092Z" fill="#6B82AB"/>
<path fill-rule="evenodd" clip-rule="evenodd" d="M583.824 213.772C583.824 225.935 588.062 235.645 593.685 237.081V261.112C593.685 261.613 593.827 262.093 594.08 262.447C594.332 262.801 594.675 263 595.032 263C595.389 263 595.732 262.801 595.984 262.447C596.237 262.093 596.379 261.613 596.379 261.112V237.13C602.098 235.881 606.421 226.083 606.421 213.772C606.421 200.583 601.492 190.279 595.136 190.279C588.779 190.279 583.824 200.583 583.824 213.772ZM596.379 231.303V233.799C600.493 232.336 603.727 223.75 603.727 213.746C603.727 202.753 599.79 193.499 595.136 193.499V193.473C590.476 193.473 586.517 202.76 586.517 213.746C586.517 223.577 589.666 232.046 593.685 233.719V231.207L589.824 220.083C589.746 219.886 589.702 219.672 589.695 219.454C589.688 219.236 589.718 219.019 589.783 218.815C589.848 218.611 589.947 218.425 590.075 218.269C590.202 218.113 590.354 217.989 590.523 217.905C590.691 217.821 590.872 217.779 591.054 217.781C591.237 217.783 591.417 217.83 591.584 217.918C591.751 218.006 591.901 218.134 592.026 218.293C592.15 218.453 592.246 218.641 592.308 218.846L593.685 222.806V217.233C593.685 216.732 593.827 216.252 594.08 215.898C594.332 215.544 594.675 215.345 595.032 215.345C595.389 215.345 595.732 215.544 595.984 215.898C596.237 216.252 596.379 216.732 596.379 217.233V224.012L597.996 220.083C598.166 219.726 598.443 219.46 598.77 219.339C599.098 219.218 599.453 219.252 599.761 219.433C600.069 219.614 600.307 219.928 600.428 220.312C600.549 220.697 600.542 221.121 600.409 221.5L596.379 231.303ZM619.003 248.153C621.968 247.794 624.755 246.224 626.88 243.682C629.312 240.773 630.679 236.83 630.682 232.718C630.682 229.649 629.921 226.65 628.495 224.098C627.069 221.547 625.042 219.558 622.67 218.384C620.299 217.21 617.69 216.904 615.172 217.503C612.655 218.102 610.343 219.58 608.528 221.75C606.714 223.92 605.478 226.685 604.978 229.695C604.478 232.705 604.736 235.824 605.719 238.659C606.702 241.494 608.366 243.916 610.5 245.62C612.244 247.012 614.238 247.873 616.309 248.141V261.294C616.309 261.518 616.343 261.741 616.411 261.948C616.478 262.155 616.577 262.344 616.702 262.502C616.828 262.661 616.976 262.786 617.14 262.872C617.304 262.957 617.479 263.001 617.656 263C618.013 263 618.356 262.82 618.608 262.5C618.861 262.18 619.003 261.746 619.003 261.294V248.153ZM619.003 244.913C619.904 244.776 620.791 244.496 621.64 244.076C623.519 243.146 625.125 241.57 626.256 239.548C627.386 237.527 627.989 235.149 627.989 232.718C627.986 229.459 626.903 226.335 624.976 224.031C623.049 221.726 620.437 220.429 617.711 220.424C615.677 220.423 613.689 221.143 611.997 222.493C610.305 223.843 608.986 225.762 608.207 228.009C607.428 230.255 607.223 232.727 607.62 235.112C608.016 237.497 608.995 239.688 610.433 241.408C611.871 243.128 613.703 244.3 615.698 244.775C615.901 244.823 616.105 244.864 616.309 244.898V242.654L610.45 235.107C610.33 234.952 610.236 234.77 610.175 234.572C610.113 234.373 610.085 234.162 610.092 233.951C610.099 233.74 610.14 233.532 610.214 233.34C610.288 233.147 610.393 232.975 610.523 232.831C610.652 232.687 610.805 232.575 610.971 232.502C611.137 232.428 611.313 232.395 611.49 232.403C611.667 232.411 611.84 232.46 612.001 232.549C612.162 232.637 612.307 232.763 612.427 232.918L616.309 237.885V232.506C616.309 232.053 616.451 231.62 616.704 231.3C616.956 230.98 617.299 230.8 617.656 230.8C618.013 230.8 618.356 230.98 618.608 231.3C618.861 231.62 619.003 232.053 619.003 232.506V238.144L623.082 233.703C623.346 233.416 623.695 233.265 624.052 233.285C624.409 233.305 624.745 233.494 624.986 233.81C625.227 234.126 625.352 234.543 625.336 234.97C625.319 235.397 625.161 235.798 624.897 236.086L619.003 242.513V244.913Z" fill="#6B82AB"/>
<path fill-rule="evenodd" clip-rule="evenodd" d="M367.181 219.772C367.181 231.935 371.419 241.645 377.043 243.081V267.112C377.043 267.613 377.185 268.093 377.438 268.447C377.69 268.801 378.033 269 378.39 269C378.747 269 379.089 268.801 379.342 268.447C379.595 268.093 379.736 267.613 379.736 267.112V243.13C385.455 241.881 389.778 232.083 389.778 219.772C389.778 206.583 384.849 196.279 378.493 196.279C372.137 196.279 367.181 206.583 367.181 219.772ZM379.736 237.303V239.799C383.85 238.336 387.085 229.75 387.085 219.746C387.085 208.753 383.147 199.499 378.493 199.499V199.473C373.834 199.473 369.874 208.76 369.874 219.746C369.874 229.577 373.023 238.047 377.043 239.719V237.207L373.182 226.083C373.104 225.886 373.06 225.672 373.052 225.454C373.045 225.236 373.075 225.019 373.141 224.815C373.206 224.611 373.305 224.425 373.432 224.269C373.559 224.113 373.712 223.989 373.88 223.905C374.049 223.821 374.23 223.779 374.412 223.781C374.595 223.783 374.775 223.83 374.942 223.918C375.109 224.006 375.259 224.134 375.383 224.293C375.508 224.453 375.604 224.641 375.665 224.846L377.043 228.806V223.233C377.043 222.732 377.185 222.252 377.438 221.898C377.69 221.544 378.033 221.345 378.39 221.345C378.747 221.345 379.089 221.544 379.342 221.898C379.595 222.252 379.736 222.732 379.736 223.233V230.012L381.354 226.083C381.523 225.726 381.8 225.46 382.128 225.339C382.456 225.218 382.81 225.252 383.118 225.433C383.426 225.614 383.665 225.928 383.786 226.312C383.906 226.697 383.899 227.121 383.767 227.5L379.736 237.303ZM402.36 254.153C405.326 253.794 408.112 252.224 410.238 249.682C412.67 246.773 414.037 242.83 414.04 238.718C414.04 235.649 413.279 232.65 411.853 230.098C410.427 227.547 408.4 225.558 406.028 224.384C403.657 223.21 401.047 222.904 398.53 223.503C396.013 224.102 393.7 225.58 391.886 227.75C390.071 229.92 388.836 232.685 388.336 235.695C387.836 238.705 388.093 241.824 389.076 244.659C390.059 247.494 391.723 249.916 393.858 251.62C395.602 253.012 397.596 253.873 399.667 254.141V267.294C399.666 267.518 399.701 267.741 399.768 267.948C399.836 268.155 399.935 268.344 400.06 268.502C400.185 268.661 400.334 268.786 400.498 268.872C400.661 268.957 400.837 269.001 401.014 269C401.371 269 401.713 268.82 401.966 268.5C402.219 268.18 402.36 267.746 402.36 267.294V254.153ZM402.36 250.913C403.262 250.776 404.149 250.496 404.997 250.076C406.877 249.146 408.483 247.57 409.613 245.548C410.743 243.527 411.347 241.149 411.347 238.718C411.344 235.459 410.26 232.335 408.334 230.031C406.407 227.726 403.794 226.429 401.069 226.424C399.035 226.423 397.046 227.143 395.354 228.493C393.663 229.843 392.344 231.762 391.565 234.009C390.785 236.255 390.581 238.727 390.977 241.112C391.373 243.497 392.352 245.688 393.79 247.408C395.228 249.128 397.06 250.3 399.055 250.775C399.259 250.823 399.463 250.864 399.667 250.898V248.654L393.808 241.107C393.687 240.952 393.594 240.77 393.532 240.572C393.471 240.373 393.443 240.162 393.45 239.951C393.456 239.74 393.498 239.532 393.572 239.34C393.646 239.147 393.75 238.975 393.88 238.831C394.01 238.687 394.162 238.575 394.328 238.502C394.494 238.428 394.671 238.395 394.847 238.403C395.024 238.411 395.198 238.46 395.359 238.549C395.52 238.637 395.664 238.763 395.784 238.918L399.667 243.885V238.506C399.667 238.053 399.809 237.62 400.062 237.3C400.314 236.98 400.657 236.8 401.014 236.8C401.371 236.8 401.713 236.98 401.966 237.3C402.219 237.62 402.36 238.053 402.36 238.506V244.144L406.439 239.703C406.704 239.416 407.053 239.265 407.41 239.285C407.767 239.305 408.103 239.494 408.343 239.81C408.584 240.126 408.71 240.543 408.693 240.97C408.677 241.397 408.519 241.798 408.255 242.086L402.36 248.513V250.913Z" fill="#6B82AB"/>
<path fill-rule="evenodd" clip-rule="evenodd" d="M299.797 183.135C299.788 183.059 299.783 182.981 299.783 182.904V178.164H299.665V167.487H299.783V166.45C299.783 166.023 299.925 165.613 300.178 165.311C300.43 165.009 300.773 164.84 301.13 164.84C301.487 164.84 301.83 165.009 302.082 165.311C302.335 165.613 302.477 166.023 302.477 166.45V167.487H310.126C310.486 167.486 310.839 167.609 311.143 167.84C311.447 168.072 311.689 168.403 311.84 168.794C311.991 169.185 312.046 169.62 311.997 170.046C311.948 170.473 311.798 170.874 311.564 171.202L310.487 172.729L311.661 174.512C311.881 174.845 312.018 175.245 312.056 175.666C312.094 176.087 312.033 176.512 311.878 176.894C311.724 177.275 311.482 177.596 311.182 177.821C310.881 178.045 310.534 178.164 310.18 178.164H302.477V182.878C302.478 182.964 302.473 183.05 302.463 183.135H313.751C315.381 183.139 316.944 183.915 318.097 185.293C319.251 186.672 319.9 188.54 319.902 190.49L319.893 218.291H356.144C356.635 218.294 357.115 218.46 357.532 218.77C357.949 219.081 358.285 219.523 358.503 220.049L363.712 232.723C363.905 233.201 363.994 233.73 363.969 234.26C363.945 234.79 363.809 235.305 363.573 235.755C363.337 236.205 363.01 236.576 362.622 236.834C362.234 237.093 361.797 237.229 361.353 237.23V237.25H358.671V263.75C358.672 264.197 358.6 264.64 358.458 265.054C358.316 265.467 358.107 265.843 357.843 266.16C357.58 266.477 357.266 266.729 356.921 266.901C356.576 267.073 356.206 267.162 355.832 267.163H319.876L319.875 267.35H282.384V267.163H246.579C245.826 267.161 245.104 266.803 244.571 266.167C244.038 265.532 243.738 264.669 243.735 263.769V237.25H241.058C240.613 237.248 240.177 237.112 239.789 236.854C239.4 236.596 239.073 236.224 238.838 235.774C238.602 235.324 238.466 234.809 238.441 234.279C238.417 233.749 238.505 233.22 238.698 232.742L243.907 220.068C244.125 219.542 244.461 219.098 244.878 218.787C245.294 218.477 245.775 218.312 246.267 218.31H282.384V190.49C282.386 188.541 283.033 186.672 284.186 185.294C285.338 183.915 286.9 183.139 288.53 183.135H299.797ZM308.521 174.944H302.477V170.719H308.386L307.012 172.651L308.521 174.944ZM296.892 211.631C298.196 212.673 299.729 213.229 301.297 213.229C303.4 213.227 305.416 212.228 306.902 210.45C308.389 208.673 309.225 206.263 309.226 203.749C309.226 201.874 308.761 200.042 307.89 198.483C307.019 196.924 305.78 195.709 304.331 194.991C302.883 194.274 301.288 194.086 299.75 194.452C298.212 194.818 296.799 195.721 295.69 197.046C294.581 198.372 293.826 200.061 293.52 201.9C293.214 203.739 293.371 205.645 293.971 207.377C294.572 209.109 295.588 210.59 296.892 211.631ZM298.388 198.545C298.979 198.073 299.64 197.752 300.332 197.597C300.081 197.899 299.94 198.307 299.94 198.733V203.614C299.94 204.236 300.146 204.832 300.514 205.272C300.882 205.711 301.38 205.958 301.9 205.958H304.518C304.875 205.958 305.218 205.789 305.471 205.487C305.723 205.185 305.865 204.775 305.865 204.348C305.865 203.921 305.723 203.512 305.471 203.21C305.218 202.908 304.875 202.738 304.518 202.738H302.633V198.733C302.633 198.306 302.491 197.896 302.239 197.594L302.237 197.592C303.276 197.82 304.241 198.42 304.998 199.325C305.979 200.499 306.531 202.09 306.533 203.749C306.533 204.987 306.226 206.198 305.65 207.227C305.075 208.256 304.257 209.059 303.301 209.532C302.344 210.006 301.291 210.13 300.276 209.889C299.26 209.647 298.327 209.051 297.595 208.175C296.862 207.3 296.364 206.185 296.162 204.97C295.96 203.756 296.063 202.498 296.46 201.354C296.856 200.21 297.527 199.232 298.388 198.545ZM307.756 239.825H294.828C293.795 239.825 292.804 239.335 292.074 238.462C291.343 237.589 290.933 236.404 290.933 235.169V228.015C290.933 226.779 291.343 225.594 292.073 224.72C292.804 223.846 293.794 223.354 294.828 223.352H307.756C308.789 223.356 309.778 223.848 310.508 224.722C311.238 225.596 311.649 226.78 311.65 228.015V235.169C311.649 236.404 311.238 237.587 310.508 238.46C309.778 239.333 308.788 239.824 307.756 239.825ZM294.828 226.572C294.508 226.574 294.203 226.727 293.978 226.997C293.753 227.267 293.626 227.633 293.626 228.015V235.169C293.626 235.55 293.753 235.916 293.978 236.185C294.203 236.454 294.509 236.606 294.828 236.606H307.756C307.913 236.606 308.07 236.568 308.215 236.496C308.361 236.424 308.493 236.318 308.605 236.185C308.717 236.052 308.805 235.893 308.865 235.719C308.926 235.545 308.957 235.358 308.957 235.169V228.015C308.957 227.633 308.83 227.267 308.605 226.997C308.38 226.727 308.075 226.574 307.756 226.572H294.828ZM311.65 264.13V255.462C311.649 254.05 311.179 252.696 310.344 251.698C309.509 250.699 308.376 250.137 307.195 250.136H295.393C294.213 250.139 293.082 250.702 292.248 251.7C291.414 252.698 290.945 254.051 290.944 255.462V264.13H285.078V190.49C285.078 189.394 285.441 188.344 286.089 187.569C286.736 186.793 287.614 186.357 288.53 186.355H313.724C314.641 186.357 315.519 186.793 316.168 187.568C316.816 188.343 317.181 189.394 317.182 190.49V264.13H311.65ZM293.637 263.389H308.957V255.462C308.955 254.904 308.769 254.369 308.439 253.974C308.109 253.58 307.662 253.357 307.195 253.356H295.393C294.927 253.357 294.48 253.58 294.151 253.975C293.822 254.369 293.637 254.904 293.637 255.462V263.389ZM246.417 263.75V237.346L281.91 237.327V263.924H246.568C246.529 263.924 246.492 263.906 246.463 263.873C246.435 263.841 246.419 263.797 246.417 263.75ZM241.165 234.03H282.228V221.511H246.304L241.165 234.03ZM252.623 259.615H259.087C259.997 259.614 260.868 259.181 261.512 258.412C262.155 257.643 262.517 256.601 262.518 255.513V251.392C262.518 250.303 262.157 249.259 261.514 248.489C260.87 247.718 259.997 247.285 259.087 247.283H252.623C251.712 247.285 250.84 247.718 250.196 248.489C249.553 249.259 249.192 250.303 249.192 251.392V255.513C249.193 256.601 249.555 257.643 250.198 258.412C250.841 259.181 251.713 259.614 252.623 259.615ZM252.101 250.765C252.239 250.599 252.427 250.505 252.623 250.503H259.087C259.283 250.505 259.471 250.599 259.609 250.765C259.747 250.932 259.825 251.157 259.825 251.392V255.513C259.824 255.747 259.745 255.97 259.607 256.135C259.469 256.3 259.282 256.394 259.087 256.395H252.623C252.428 256.394 252.241 256.3 252.103 256.135C251.965 255.97 251.886 255.747 251.885 255.513V251.392C251.885 251.157 251.963 250.932 252.101 250.765ZM275.021 259.615H268.557C267.646 259.615 266.773 259.183 266.129 258.414C265.484 257.645 265.121 256.602 265.12 255.513V251.392C265.12 250.302 265.482 249.257 266.127 248.486C266.771 247.716 267.645 247.283 268.557 247.283H275.021C275.932 247.283 276.806 247.716 277.451 248.486C278.095 249.257 278.457 250.302 278.457 251.392V255.513C278.456 256.602 278.093 257.645 277.449 258.414C276.805 259.183 275.931 259.615 275.021 259.615ZM268.557 250.503C268.36 250.503 268.171 250.597 268.031 250.763C267.892 250.93 267.813 251.156 267.813 251.392V255.513C267.815 255.748 267.894 255.972 268.033 256.137C268.172 256.303 268.361 256.395 268.557 256.395H275.021C275.217 256.395 275.405 256.303 275.544 256.137C275.684 255.972 275.763 255.748 275.764 255.513V251.392C275.764 251.156 275.686 250.93 275.546 250.763C275.407 250.597 275.218 250.503 275.021 250.503H268.557ZM355.832 263.943H320.484V237.366H355.977V263.769C355.977 263.815 355.962 263.86 355.935 263.892C355.907 263.925 355.87 263.943 355.832 263.943ZM320.183 234.03H361.245L356.101 221.511H320.183V234.03ZM343.308 259.615H349.772C350.682 259.615 351.556 259.183 352.2 258.414C352.844 257.645 353.207 256.602 353.208 255.513V251.392C353.208 250.302 352.846 249.257 352.202 248.486C351.557 247.716 350.683 247.283 349.772 247.283H343.308C342.397 247.285 341.524 247.718 340.881 248.489C340.238 249.259 339.876 250.303 339.876 251.392V255.513C339.876 256.601 340.238 257.644 340.881 258.414C341.525 259.183 342.398 259.615 343.308 259.615ZM343.024 250.571C343.114 250.526 343.21 250.503 343.308 250.503H349.772C349.969 250.503 350.158 250.597 350.297 250.763C350.437 250.93 350.515 251.156 350.515 251.392V255.513C350.514 255.748 350.435 255.972 350.295 256.137C350.156 256.303 349.968 256.395 349.772 256.395H343.308C343.112 256.395 342.924 256.302 342.786 256.137C342.647 255.972 342.57 255.747 342.57 255.513V251.392C342.569 251.275 342.588 251.16 342.624 251.052C342.661 250.944 342.715 250.846 342.784 250.764C342.853 250.681 342.934 250.615 343.024 250.571ZM333.838 259.615H327.374C326.463 259.615 325.59 259.183 324.946 258.414C324.301 257.645 323.939 256.602 323.937 255.513V251.392C323.937 250.302 324.299 249.257 324.944 248.486C325.588 247.716 326.462 247.283 327.374 247.283H333.838C334.748 247.285 335.621 247.718 336.264 248.489C336.908 249.259 337.269 250.303 337.269 251.392V255.513C337.268 256.601 336.906 257.643 336.263 258.412C335.619 259.181 334.747 259.614 333.838 259.615ZM327.374 250.503C327.177 250.503 326.988 250.597 326.848 250.763C326.709 250.93 326.63 251.156 326.63 251.392V255.513C326.632 255.748 326.711 255.972 326.85 256.137C326.989 256.303 327.178 256.395 327.374 256.395H333.838C334.034 256.395 334.221 256.302 334.36 256.137C334.498 255.972 334.576 255.747 334.576 255.513V251.392C334.576 251.275 334.558 251.16 334.521 251.052C334.484 250.944 334.43 250.846 334.362 250.764C334.293 250.681 334.211 250.615 334.121 250.571C334.032 250.526 333.935 250.503 333.838 250.503H327.374Z" fill="#6B82AB"/>
<path d="M20.7529 261.096H3.4407C2.94708 261.096 2.45936 260.968 2.01056 260.722C1.56176 260.477 1.16237 260.119 0.839438 259.672C0.51651 259.226 0.27759 258.702 0.138856 258.136C0.000122665 257.569 -0.0351858 256.974 0.035331 256.39L6.78208 199.688H17.195L24.1484 256.39C24.219 256.974 24.1837 257.569 24.0449 258.136C23.9062 258.702 23.6673 259.226 23.3443 259.672C23.0214 260.119 22.622 260.477 22.1732 260.722C21.7244 260.968 21.2367 261.096 20.7431 261.096H20.7529ZM8.94242 202.629L2.48602 256.819C2.46694 256.987 2.47821 257.157 2.51905 257.318C2.5599 257.48 2.62937 257.629 2.72273 257.756C2.8161 257.883 2.93118 257.984 3.06016 258.053C3.18914 258.121 3.32899 258.156 3.47022 258.155H20.7824C20.9234 258.155 21.0627 258.118 21.1909 258.048C21.3191 257.978 21.4332 257.876 21.5255 257.749C21.6169 257.621 21.6844 257.472 21.7235 257.31C21.7625 257.149 21.7722 256.98 21.7519 256.813L15.1085 202.629H8.94242Z" fill="#6B82AB"/>
<path d="M19.3259 202.117H4.67597C4.04383 202.116 3.43803 201.815 2.9915 201.28C2.54497 200.745 2.29419 200.02 2.29419 199.264V195.493C2.29419 194.738 2.54513 194.014 2.9918 193.48C3.43847 192.946 4.04428 192.646 4.67597 192.646H19.3259C19.9576 192.646 20.5634 192.946 21.0101 193.48C21.4568 194.014 21.7077 194.738 21.7077 195.493V199.264C21.7077 200.02 21.4569 200.745 21.0104 201.28C20.5639 201.815 19.9581 202.116 19.3259 202.117ZM4.75471 199.176H19.2472V195.587H4.75471V199.176Z" fill="#6B82AB"/>
<path d="M17.1459 195.076H6.85596V188.163H17.1459V195.076ZM9.31648 192.134H14.6853V191.105H9.31648V192.134Z" fill="#6B82AB"/>
<path d="M18.0516 191.076H5.85722C5.58721 191.077 5.31987 191.012 5.07182 190.884C4.82377 190.757 4.60032 190.569 4.41536 190.334C4.0679 189.891 3.87439 189.306 3.87404 188.699C3.87214 188.16 4.02501 187.636 4.3071 187.216L11.9544 175.809L19.6017 187.216C19.9054 187.662 20.062 188.225 20.0421 188.8C20.0221 189.374 19.827 189.92 19.4934 190.334C19.3085 190.569 19.085 190.757 18.837 190.884C18.5889 191.012 18.3216 191.077 18.0516 191.076ZM6.85127 188.134H17.0575L11.9544 180.486L6.85127 188.134Z" fill="#6B82AB"/>
<path d="M13.2633 163.76H10.8027V179.062H13.2633V163.76Z" fill="#6B82AB"/>
<path d="M25.6642 176.756H11.4719V167.178H25.5953L21.3386 171.996L25.6642 176.756ZM13.9324 173.814H19.3456L17.7266 172.049L19.4096 170.143H13.9324V173.814Z" fill="#6B82AB"/>
<path d="M12.0082 164.336C12.6577 164.336 13.1843 163.706 13.1843 162.93C13.1843 162.153 12.6577 161.523 12.0082 161.523C11.3586 161.523 10.832 162.153 10.832 162.93C10.832 163.706 11.3586 164.336 12.0082 164.336Z" fill="#6B82AB"/>
<path d="M13.7504 220.368H10.5861C9.71298 220.368 8.87561 219.953 8.2582 219.215C7.6408 218.477 7.29395 217.476 7.29395 216.432C7.29395 215.388 7.6408 214.387 8.2582 213.649C8.87561 212.911 9.71298 212.496 10.5861 212.496H13.7504C14.6235 212.496 15.4609 212.911 16.0783 213.649C16.6957 214.387 17.0425 215.388 17.0425 216.432C17.0425 217.476 16.6957 218.477 16.0783 219.215C15.4609 219.953 14.6235 220.368 13.7504 220.368ZM10.5861 215.42C10.3656 215.42 10.154 215.525 9.99806 215.711C9.84209 215.898 9.75447 216.151 9.75447 216.414C9.75447 216.678 9.84209 216.931 9.99806 217.117C10.154 217.304 10.3656 217.409 10.5861 217.409H13.7504C13.9709 217.409 14.1825 217.304 14.3384 217.117C14.4944 216.931 14.582 216.678 14.582 216.414C14.582 216.151 14.4944 215.898 14.3384 215.711C14.1825 215.525 13.9709 215.42 13.7504 215.42H10.5861Z" fill="#6B82AB"/>
<path d="M17.4707 260.721H7.13647V244.601C7.13647 243.508 7.4994 242.461 8.14541 241.689C8.79142 240.916 9.66761 240.482 10.5812 240.482H14.0259C14.9395 240.482 15.8157 240.916 16.4617 241.689C17.1077 242.461 17.4707 243.508 17.4707 244.601V260.721ZM9.597 257.779H15.0101V244.601C15.0101 244.289 14.9065 243.989 14.7219 243.769C14.5373 243.548 14.287 243.424 14.0259 243.424H10.5812C10.3202 243.424 10.0698 243.548 9.88526 243.769C9.70069 243.989 9.597 244.289 9.597 244.601V257.779Z" fill="#6B82AB"/>
<path d="M93.3137 251.713C92.9874 251.713 92.6745 251.559 92.4438 251.283C92.2131 251.007 92.0834 250.633 92.0834 250.243V237.394H74.1561V250.243C74.1561 250.633 74.0265 251.007 73.7957 251.283C73.565 251.559 73.2521 251.713 72.9258 251.713C72.5995 251.713 72.2866 251.559 72.0559 251.283C71.8252 251.007 71.6956 250.633 71.6956 250.243V234.452H94.544V250.243C94.544 250.633 94.4143 251.007 94.1836 251.283C93.9529 251.559 93.64 251.713 93.3137 251.713Z" fill="#6B82AB"/>
<path d="M93.1956 251.713C92.8693 251.713 92.5564 251.558 92.3257 251.282C92.095 251.006 91.9653 250.632 91.9653 250.242C91.9653 245.471 87.9694 241.594 83.0632 241.594C78.1569 241.594 74.1561 245.471 74.1561 250.242C74.1561 250.632 74.0265 251.006 73.7957 251.282C73.565 251.558 73.2521 251.713 72.9258 251.713C72.5995 251.713 72.2866 251.558 72.0559 251.282C71.8252 251.006 71.6956 250.632 71.6956 250.242C71.6956 243.853 76.7938 238.652 83.0632 238.652C89.3326 238.652 94.4259 243.853 94.4259 250.242C94.4259 250.632 94.2962 251.006 94.0655 251.282C93.8348 251.558 93.5219 251.713 93.1956 251.713Z" fill="#6B82AB"/>
<path d="M74.2498 261.538H63.4973V234.476H74.2498V261.538ZM65.9578 258.597H71.7893V237.417H65.9578V258.597Z" fill="#6B82AB"/>
<path d="M102.796 261.538H92.0439V234.476H102.796V261.538ZM94.5045 258.597H100.336V237.417H94.5045V258.597Z" fill="#6B82AB"/>
<path d="M121.876 251.713C121.549 251.713 121.236 251.559 121.006 251.283C120.775 251.007 120.645 250.633 120.645 250.243V237.394H102.743V250.243C102.743 250.633 102.613 251.007 102.382 251.283C102.151 251.559 101.839 251.713 101.512 251.713C101.186 251.713 100.873 251.559 100.642 251.283C100.412 251.007 100.282 250.633 100.282 250.243V234.452H123.13V250.243C123.13 250.438 123.098 250.632 123.034 250.812C122.971 250.993 122.878 251.156 122.761 251.293C122.645 251.43 122.506 251.538 122.354 251.61C122.202 251.682 122.039 251.717 121.876 251.713Z" fill="#6B82AB"/>
<path d="M121.762 251.713C121.436 251.713 121.123 251.558 120.892 251.282C120.662 251.006 120.532 250.632 120.532 250.242C120.532 245.471 116.536 241.594 111.625 241.594C106.714 241.594 102.718 245.471 102.718 250.242C102.718 250.632 102.588 251.006 102.358 251.282C102.127 251.558 101.814 251.713 101.488 251.713C101.161 251.713 100.848 251.558 100.618 251.282C100.387 251.006 100.257 250.632 100.257 250.242C100.257 243.853 105.356 238.652 111.625 238.652C117.894 238.652 122.993 243.853 122.993 250.242C122.993 250.632 122.863 251.006 122.632 251.282C122.401 251.558 122.089 251.713 121.762 251.713Z" fill="#6B82AB"/>
<path d="M131.358 261.538H120.606V234.476H131.358V261.538ZM123.066 258.597H128.898V237.417H123.066V258.597Z" fill="#6B82AB"/>
<path d="M169.216 261.161C169.023 261.16 168.833 261.106 168.66 261.002L129.676 237.234C129.384 237.057 129.164 236.749 129.063 236.378C128.962 236.007 128.989 235.603 129.137 235.255C129.285 234.907 129.542 234.643 129.853 234.522C130.164 234.402 130.502 234.433 130.793 234.61L169.777 258.367C170.024 258.516 170.222 258.761 170.338 259.062C170.454 259.363 170.482 259.701 170.417 260.023C170.352 260.345 170.198 260.632 169.98 260.836C169.762 261.04 169.493 261.151 169.216 261.149V261.161Z" fill="#6B82AB"/>
<path d="M25.7477 261.161C25.4671 261.168 25.1929 261.06 24.9707 260.855C24.7485 260.65 24.5917 260.36 24.5262 260.034C24.4607 259.708 24.4905 259.364 24.6106 259.061C24.7308 258.758 24.934 258.513 25.1867 258.367L64.1712 234.599C64.4623 234.422 64.8003 234.39 65.1108 234.511C65.2646 234.571 65.407 234.666 65.5299 234.792C65.6528 234.917 65.7538 235.071 65.8272 235.243C65.9005 235.415 65.9448 235.603 65.9574 235.796C65.97 235.988 65.9507 236.182 65.9007 236.366C65.8506 236.55 65.7708 236.72 65.6657 236.867C65.5607 237.014 65.4324 237.135 65.2883 237.223L26.3038 260.991C26.132 261.098 25.9416 261.157 25.7477 261.161Z" fill="#6B82AB"/>
<path d="M60.136 204.724C57.8507 204.73 55.655 203.661 54.0241 201.747C52.4923 203.176 50.6033 203.949 48.6602 203.941C46.3684 203.876 44.1888 202.742 42.5872 200.782C40.9855 198.821 40.0889 196.189 40.0889 193.449C40.0889 190.708 40.9855 188.076 42.5872 186.115C44.1888 184.155 46.3684 183.021 48.6602 182.956H49.0637C49.8054 181.246 50.9243 179.812 52.2992 178.808C53.6741 177.804 55.2525 177.269 56.8635 177.261C58.3806 177.255 59.8723 177.725 61.1891 178.626C62.3221 176.94 63.8633 175.715 65.6015 175.117C67.3398 174.52 69.1901 174.579 70.8988 175.288C72.6076 175.997 74.0913 177.32 75.1466 179.076C76.202 180.832 76.7773 182.935 76.7938 185.097C77.7735 185.078 78.7468 185.29 79.6581 185.72C80.5694 186.15 81.4009 186.791 82.105 187.606C82.8092 188.42 83.3723 189.392 83.7621 190.467C84.152 191.542 84.3609 192.698 84.3771 193.869C84.3932 195.04 84.2163 196.204 83.8563 197.293C83.4963 198.383 82.9603 199.377 82.279 200.219C81.5977 201.061 80.7843 201.734 79.8854 202.2C78.9865 202.666 78.0195 202.916 77.0398 202.935C76.2612 202.938 75.4872 202.793 74.7466 202.506C73.439 203.326 71.9568 203.662 70.4888 203.471C69.0208 203.281 67.6336 202.572 66.5039 201.435C65.6857 202.473 64.6988 203.299 63.6039 203.865C62.5089 204.43 61.3288 204.723 60.136 204.724ZM54.1176 198.187H54.1914C54.3695 198.202 54.5429 198.262 54.6999 198.364C54.857 198.465 54.994 198.606 55.1018 198.776C55.7068 199.739 56.4962 200.515 57.4038 201.039C58.3114 201.562 59.3108 201.818 60.3181 201.785C61.3255 201.751 62.3114 201.43 63.1933 200.847C64.0753 200.264 64.8274 199.437 65.3868 198.435C65.4958 198.247 65.6396 198.093 65.807 197.983C65.9743 197.873 66.1607 197.811 66.3514 197.802C66.5421 197.793 66.732 197.837 66.9062 197.93C67.0804 198.024 67.234 198.164 67.3552 198.34C68.1197 199.502 69.2181 200.282 70.4369 200.528C71.6556 200.775 72.9076 200.471 73.9494 199.676C74.1162 199.548 74.3065 199.472 74.5037 199.452C74.701 199.433 74.8992 199.471 75.0813 199.564C75.7646 199.906 76.5029 200.063 77.243 200.023C77.9831 199.982 78.7065 199.746 79.361 199.331C80.0154 198.916 80.5846 198.332 81.0274 197.622C81.4703 196.912 81.7757 196.093 81.9217 195.225C82.0677 194.356 82.0507 193.46 81.8718 192.601C81.6928 191.741 81.3565 190.94 80.8871 190.255C80.4177 189.569 79.8269 189.017 79.1573 188.638C78.4877 188.259 77.7561 188.062 77.0152 188.062C76.5799 188.065 76.1466 188.135 75.7259 188.268C75.5265 188.33 75.3174 188.33 75.1176 188.27C74.9179 188.211 74.7339 188.092 74.5823 187.925C74.4307 187.759 74.3163 187.549 74.2496 187.316C74.1829 187.084 74.166 186.834 74.2004 186.592C74.4743 184.845 74.2229 183.038 73.4907 181.492C72.7585 179.945 71.5926 178.757 70.199 178.138C68.8053 177.52 67.2736 177.51 65.8744 178.11C64.4752 178.711 63.2985 179.883 62.5523 181.42C62.4622 181.6 62.3417 181.755 62.1984 181.876C62.0552 181.996 61.8924 182.08 61.7206 182.12C61.5489 182.159 61.3722 182.153 61.2024 182.104C61.0327 182.054 60.8738 181.961 60.7364 181.832C59.6291 180.788 58.2591 180.222 56.8488 180.226C55.5701 180.23 54.3222 180.695 53.2685 181.561C52.2148 182.427 51.4044 183.654 50.9435 185.08C50.8424 185.394 50.6546 185.657 50.4112 185.826C50.1678 185.995 49.8833 186.06 49.605 186.009C49.2795 185.947 48.9505 185.913 48.6208 185.909C46.9762 185.964 45.4143 186.784 44.2673 188.194C43.1202 189.604 42.4785 191.493 42.4785 193.46C42.4785 195.427 43.1202 197.317 44.2673 198.727C45.4143 200.137 46.9762 200.956 48.6208 201.011C49.477 201.014 50.3246 200.807 51.111 200.402C51.8975 199.997 52.6059 199.404 53.1924 198.658C53.3104 198.506 53.4538 198.386 53.6132 198.305C53.7725 198.224 53.9444 198.184 54.1176 198.187Z" fill="#6B82AB"/>
<path d="M126.078 180.015C123.793 180.021 121.597 178.952 119.966 177.038C118.434 178.467 116.545 179.24 114.602 179.232C112.311 179.167 110.131 178.033 108.529 176.073C106.928 174.112 106.031 171.48 106.031 168.74C106.031 165.999 106.928 163.367 108.529 161.406C110.131 159.446 112.311 158.312 114.602 158.247H115.006C115.748 156.537 116.866 155.103 118.241 154.099C119.616 153.095 121.195 152.56 122.806 152.552C124.323 152.546 125.814 153.016 127.131 153.917C128.264 152.231 129.805 151.006 131.544 150.408C133.282 149.811 135.132 149.87 136.841 150.579C138.55 151.288 140.033 152.611 141.089 154.367C142.144 156.123 142.719 158.226 142.736 160.388C143.716 160.369 144.689 160.581 145.6 161.011C146.512 161.441 147.343 162.082 148.047 162.897C148.751 163.711 149.314 164.684 149.704 165.758C150.094 166.833 150.303 167.989 150.319 169.16C150.335 170.331 150.158 171.495 149.798 172.584C149.438 173.674 148.902 174.668 148.221 175.51C147.54 176.352 146.726 177.025 145.828 177.491C144.929 177.957 143.962 178.207 142.982 178.226C142.203 178.229 141.429 178.084 140.689 177.797C139.381 178.617 137.899 178.953 136.431 178.762C134.963 178.572 133.576 177.863 132.446 176.726C131.628 177.764 130.641 178.59 129.546 179.156C128.451 179.721 127.271 180.014 126.078 180.015ZM120.06 173.478H120.134C120.312 173.493 120.485 173.553 120.642 173.655C120.799 173.756 120.936 173.897 121.044 174.067C121.649 175.03 122.438 175.806 123.346 176.33C124.254 176.853 125.253 177.109 126.26 177.076C127.268 177.042 128.254 176.721 129.135 176.138C130.017 175.555 130.77 174.728 131.329 173.726C131.438 173.538 131.582 173.384 131.749 173.274C131.916 173.164 132.103 173.102 132.294 173.093C132.484 173.084 132.674 173.128 132.848 173.221C133.022 173.315 133.176 173.455 133.297 173.631C134.062 174.793 135.16 175.573 136.379 175.819C137.598 176.066 138.85 175.762 139.892 174.967C140.058 174.839 140.249 174.763 140.446 174.743C140.643 174.724 140.841 174.762 141.023 174.855C141.707 175.197 142.445 175.354 143.185 175.314C143.925 175.273 144.649 175.037 145.303 174.622C145.958 174.207 146.527 173.623 146.97 172.913C147.412 172.203 147.718 171.384 147.864 170.516C148.01 169.647 147.993 168.751 147.814 167.892C147.635 167.032 147.299 166.231 146.829 165.546C146.36 164.86 145.769 164.308 145.099 163.929C144.43 163.55 143.698 163.353 142.957 163.353C142.522 163.356 142.089 163.426 141.668 163.559C141.469 163.621 141.26 163.621 141.06 163.561C140.86 163.502 140.676 163.383 140.524 163.216C140.373 163.05 140.258 162.84 140.192 162.607C140.125 162.375 140.108 162.125 140.143 161.883C140.416 160.136 140.165 158.329 139.433 156.783C138.701 155.236 137.535 154.048 136.141 153.429C134.747 152.811 133.216 152.801 131.817 153.401C130.417 154.002 129.241 155.174 128.494 156.711C128.404 156.891 128.284 157.046 128.141 157.167C127.997 157.287 127.835 157.371 127.663 157.411C127.491 157.45 127.314 157.444 127.145 157.395C126.975 157.345 126.816 157.252 126.679 157.123C125.571 156.079 124.201 155.513 122.791 155.517C121.512 155.521 120.264 155.986 119.211 156.852C118.157 157.718 117.347 158.945 116.886 160.371C116.785 160.685 116.597 160.948 116.353 161.117C116.11 161.286 115.825 161.351 115.547 161.3C115.222 161.238 114.893 161.204 114.563 161.2C112.918 161.255 111.356 162.075 110.209 163.485C109.062 164.895 108.421 166.784 108.421 168.751C108.421 170.718 109.062 172.608 110.209 174.018C111.356 175.428 112.918 176.247 114.563 176.302C115.419 176.305 116.267 176.098 117.053 175.693C117.84 175.288 118.548 174.695 119.135 173.949C119.253 173.797 119.396 173.677 119.555 173.596C119.715 173.515 119.887 173.475 120.06 173.478Z" fill="#6B82AB"/>
<path d="M185.002 253.119C182.61 253.12 180.271 252.273 178.281 250.685C176.292 249.097 174.741 246.839 173.824 244.197C172.908 241.555 172.668 238.647 173.134 235.842C173.6 233.037 174.752 230.46 176.443 228.437C178.134 226.415 180.289 225.037 182.635 224.478C184.982 223.92 187.414 224.206 189.624 225.3C191.834 226.394 193.724 228.248 195.053 230.626C196.382 233.004 197.091 235.799 197.091 238.659C197.089 242.492 195.814 246.167 193.548 248.878C191.281 251.589 188.208 253.114 185.002 253.119ZM185.002 227.201C183.106 227.2 181.253 227.871 179.676 229.129C178.099 230.388 176.87 232.177 176.144 234.27C175.417 236.364 175.227 238.668 175.596 240.891C175.965 243.114 176.878 245.156 178.218 246.759C179.558 248.362 181.266 249.454 183.125 249.897C184.985 250.34 186.912 250.113 188.663 249.246C190.415 248.379 191.912 246.91 192.965 245.026C194.019 243.141 194.581 240.926 194.581 238.659C194.578 235.623 193.568 232.711 191.773 230.563C189.977 228.415 187.542 227.206 185.002 227.201Z" fill="#6B82AB"/>
<path d="M185.002 265.489C184.837 265.49 184.673 265.452 184.521 265.377C184.368 265.302 184.23 265.191 184.113 265.052C183.996 264.912 183.904 264.746 183.841 264.564C183.778 264.382 183.746 264.186 183.747 263.989V238.66C183.747 238.262 183.879 237.88 184.114 237.599C184.35 237.317 184.669 237.159 185.002 237.159C185.335 237.159 185.654 237.317 185.889 237.599C186.125 237.88 186.257 238.262 186.257 238.66V263.989C186.257 264.387 186.125 264.768 185.889 265.05C185.654 265.331 185.335 265.489 185.002 265.489Z" fill="#6B82AB"/>
<path d="M184.791 249.331L178.234 240.88C178.122 240.736 178.035 240.566 177.978 240.381C177.921 240.196 177.894 240 177.901 239.803C177.907 239.605 177.946 239.412 178.014 239.233C178.083 239.054 178.181 238.892 178.302 238.758C178.423 238.624 178.565 238.52 178.72 238.452C178.874 238.383 179.039 238.352 179.203 238.359C179.368 238.367 179.53 238.413 179.68 238.496C179.83 238.578 179.965 238.695 180.077 238.839L184.942 245.106L189.997 239.602C190.119 239.469 190.262 239.366 190.417 239.299C190.572 239.232 190.737 239.203 190.902 239.212C191.067 239.221 191.228 239.269 191.378 239.353C191.527 239.437 191.661 239.555 191.772 239.701C191.883 239.847 191.969 240.017 192.025 240.203C192.081 240.388 192.106 240.585 192.098 240.782C192.091 240.979 192.051 241.172 191.98 241.351C191.91 241.529 191.811 241.69 191.689 241.823L184.791 249.331Z" fill="#6B82AB"/>
<path d="M211.082 248.219C204.678 248.219 199.636 237.794 199.636 224.449C199.636 211.105 204.651 200.68 211.082 200.68C217.513 200.68 222.5 211.105 222.5 224.449C222.5 237.794 217.481 248.219 211.082 248.219ZM211.082 203.912C206.368 203.912 202.362 213.307 202.362 224.423C202.362 235.539 206.34 244.935 211.082 244.935C215.824 244.935 219.775 235.546 219.775 224.423C219.775 213.301 215.791 203.938 211.082 203.938V203.912Z" fill="#6B82AB"/>
<path d="M211.082 267.155C210.721 267.155 210.374 266.983 210.119 266.678C209.863 266.372 209.719 265.958 209.719 265.526V227.662C209.719 227.23 209.863 226.816 210.119 226.51C210.374 226.205 210.721 226.033 211.082 226.033C211.443 226.033 211.79 226.205 212.046 226.51C212.301 226.816 212.445 227.23 212.445 227.662V265.526C212.445 265.958 212.301 266.372 212.046 266.678C211.79 266.983 211.443 267.155 211.082 267.155Z" fill="#6B82AB"/>
<path d="M210.88 245.737L205.708 230.835C205.629 230.636 205.584 230.419 205.577 230.199C205.57 229.978 205.6 229.758 205.666 229.552C205.732 229.346 205.832 229.158 205.961 229C206.09 228.841 206.244 228.716 206.414 228.631C206.585 228.546 206.768 228.504 206.952 228.506C207.137 228.508 207.319 228.555 207.488 228.645C207.657 228.734 207.809 228.863 207.935 229.024C208.061 229.186 208.158 229.376 208.221 229.584L211.093 237.839L213.976 230.835C214.147 230.474 214.428 230.205 214.76 230.083C215.091 229.96 215.45 229.994 215.761 230.177C216.073 230.36 216.315 230.678 216.437 231.067C216.559 231.456 216.552 231.885 216.418 232.268L210.88 245.737Z" fill="#6B82AB"/>
<path d="M250.312 186C248.728 186.006 247.206 185.258 246.077 183.918C245.016 184.917 243.708 185.458 242.363 185.453C241.553 185.476 240.747 185.303 239.993 184.945C239.239 184.586 238.552 184.049 237.972 183.365C237.392 182.682 236.931 181.865 236.617 180.962C236.302 180.06 236.14 179.092 236.14 178.113C236.14 177.134 236.302 176.165 236.617 175.263C236.931 174.361 237.392 173.544 237.972 172.86C238.552 172.176 239.239 171.639 239.993 171.281C240.747 170.922 241.553 170.75 242.363 170.773H242.639C243.152 169.576 243.926 168.572 244.878 167.869C245.83 167.166 246.923 166.791 248.039 166.785C249.089 166.78 250.122 167.109 251.034 167.74C251.818 166.561 252.885 165.704 254.089 165.286C255.292 164.868 256.574 164.909 257.757 165.405C258.94 165.901 259.967 166.826 260.698 168.055C261.428 169.283 261.827 170.754 261.838 172.267C262.516 172.253 263.19 172.401 263.821 172.702C264.452 173.003 265.028 173.452 265.515 174.021C266.003 174.591 266.393 175.271 266.663 176.023C266.933 176.775 267.077 177.584 267.089 178.403C267.1 179.222 266.977 180.036 266.728 180.798C266.479 181.56 266.108 182.256 265.636 182.845C265.164 183.434 264.601 183.904 263.979 184.23C263.356 184.556 262.687 184.731 262.008 184.745C261.471 184.747 260.936 184.645 260.424 184.444C259.519 185.022 258.493 185.26 257.475 185.131C256.458 185.001 255.495 184.509 254.71 183.716C254.144 184.438 253.462 185.013 252.706 185.406C251.95 185.799 251.135 186.001 250.312 186ZM246.145 181.428H246.192C246.316 181.438 246.436 181.48 246.544 181.551C246.653 181.622 246.748 181.72 246.823 181.839C247.242 182.513 247.789 183.056 248.417 183.422C249.046 183.789 249.738 183.967 250.436 183.944C251.134 183.921 251.817 183.696 252.427 183.288C253.038 182.88 253.559 182.302 253.947 181.601C254.022 181.469 254.122 181.36 254.237 181.283C254.353 181.206 254.483 181.162 254.615 181.156C254.747 181.149 254.879 181.18 255 181.246C255.12 181.312 255.226 181.411 255.31 181.535C255.839 182.347 256.6 182.893 257.444 183.065C258.287 183.238 259.154 183.025 259.876 182.469C259.992 182.38 260.124 182.326 260.261 182.312C260.398 182.299 260.536 182.326 260.663 182.391C261.172 182.652 261.725 182.762 262.277 182.713C262.829 182.663 263.363 182.455 263.834 182.105C264.305 181.755 264.701 181.275 264.987 180.703C265.273 180.131 265.442 179.485 265.48 178.818C265.517 178.151 265.422 177.484 265.202 176.87C264.982 176.257 264.644 175.716 264.216 175.293C263.788 174.87 263.282 174.576 262.741 174.437C262.2 174.298 261.639 174.317 261.106 174.493C260.967 174.538 260.821 174.539 260.681 174.497C260.542 174.455 260.414 174.372 260.308 174.254C260.203 174.136 260.124 173.988 260.079 173.823C260.033 173.659 260.023 173.483 260.049 173.312C260.235 172.092 260.059 170.831 259.552 169.752C259.044 168.673 258.239 167.845 257.276 167.412C256.313 166.98 255.254 166.971 254.287 167.388C253.319 167.805 252.504 168.62 251.985 169.691C251.923 169.817 251.84 169.926 251.74 170.01C251.641 170.095 251.528 170.153 251.409 170.18C251.29 170.208 251.167 170.204 251.05 170.169C250.932 170.135 250.822 170.069 250.727 169.979C249.961 169.247 249.012 168.851 248.036 168.855C247.15 168.858 246.286 169.183 245.557 169.789C244.827 170.395 244.266 171.253 243.947 172.25C243.878 172.471 243.748 172.655 243.579 172.774C243.41 172.892 243.213 172.937 243.02 172.901C242.795 172.857 242.567 172.834 242.339 172.831C241.614 172.828 240.9 173.044 240.261 173.458C239.622 173.871 239.078 174.47 238.679 175.201C238.279 175.931 238.036 176.77 237.971 177.642C237.906 178.514 238.021 179.392 238.307 180.197C238.593 181.002 239.039 181.708 239.607 182.253C240.175 182.797 240.846 183.163 241.559 183.317C242.273 183.471 243.007 183.408 243.696 183.134C244.384 182.861 245.006 182.384 245.504 181.749C245.586 181.644 245.686 181.561 245.796 181.506C245.906 181.45 246.025 181.424 246.145 181.428Z" fill="#6B82AB"/>
</g>
<path opacity="0.5" d="M606.997 22.7457C607.045 19.9079 606.538 17.0887 605.504 14.4526C604.471 11.8165 602.932 9.41638 600.977 7.39215C599.023 5.36793 596.692 3.76018 594.12 2.6627C591.549 1.56523 588.788 1 586 1C583.212 1 580.451 1.56523 577.88 2.6627C575.308 3.76018 572.977 5.36793 571.023 7.39215C569.068 9.41638 567.529 11.8165 566.496 14.4526C565.462 17.0887 564.955 19.9079 565.003 22.7457C565.003 31.6374 570.241 44.0578 577.714 49.7981L579.127 58.415C579.127 58.447 579.127 58.4726 579.127 58.5045L580.464 64.5773C580.614 65.2666 580.99 65.8831 581.532 66.3239C582.074 66.7648 582.747 67.0034 583.441 67H588.546C589.239 67.0031 589.912 66.7643 590.453 66.3233C590.993 65.8824 591.369 65.2661 591.517 64.5773L592.628 59.5401L595.398 48.8776C602.274 42.8177 606.997 31.19 606.997 22.7457ZM582.424 22.7457C582.424 10.939 584.936 5.03885 586.003 4.5786C587.058 5.03885 589.583 10.939 589.583 22.7457C589.583 33.5424 587.617 46.1737 586.003 49.2676C584.389 46.1737 582.424 33.5424 582.424 22.7457ZM590.167 46.5956C590.512 45.1892 590.858 43.4761 591.19 41.3922C592.154 35.2239 592.666 28.9912 592.723 22.7457C592.723 17.9194 592.195 11.0668 590.594 6.43239C594.117 9.42401 596.604 15.6949 596.604 22.7457C596.604 30.8448 593.709 41.4178 590.167 46.5956ZM581.413 6.43239C579.805 11.0668 579.284 17.9386 579.284 22.7457C579.341 28.9909 579.851 35.2234 580.81 41.3922C581.149 43.4761 581.494 45.1892 581.84 46.5956C578.298 41.4178 575.403 30.8448 575.403 22.7457C575.403 15.6949 577.871 9.42401 581.413 6.43239ZM603.857 22.7457C603.857 29.6622 599.995 39.6471 594.538 45.3363C597.872 38.6818 599.744 29.1189 599.744 22.7457C599.744 16.7241 598.218 11.3609 595.724 7.51269C598.219 9.16126 600.27 11.4182 601.69 14.0784C603.11 16.7387 603.855 19.718 603.857 22.7457ZM568.143 22.7457C568.149 19.7153 568.899 16.7345 570.325 14.0742C571.751 11.4139 573.807 9.15838 576.307 7.51269C573.795 11.3481 572.294 16.7241 572.294 22.7457C572.294 29.138 574.178 38.6818 577.5 45.3363C572.005 39.6471 568.143 29.6622 568.143 22.7457ZM588.471 63.8038H583.523L582.191 57.8909V57.8333H589.771L589.551 58.805V58.92L588.471 63.8038ZM590.625 54.7458C590.361 54.6738 590.089 54.6373 589.815 54.6371H582.185C582.023 54.6391 581.861 54.654 581.701 54.6819L581.243 51.8948C582.663 52.5266 584.19 52.8739 585.739 52.9176C585.915 52.9347 586.091 52.9347 586.267 52.9176C588.069 52.8631 589.838 52.407 591.448 51.5816L590.625 54.7458Z" fill="#879ABB" stroke="white"/>
</svg>
