<svg width="116" height="36" viewBox="0 0 116 36" fill="none" xmlns="http://www.w3.org/2000/svg">
<path d="M33.2286 18.4219C32.4212 17.7474 31.3165 17.4102 29.8718 17.4102H27.5348H26.43H25.0703V29.8458H27.5348V26.2626H29.2769C30.1267 26.2626 30.8916 26.1362 31.5289 25.8832C32.1663 25.6303 32.6762 25.2509 33.1011 24.7872C33.526 24.3235 33.8234 23.8177 34.0359 23.2275C34.2483 22.6373 34.3333 22.005 34.3333 21.3727C34.3758 20.0659 33.9934 19.0963 33.2286 18.4219ZM31.6139 22.8059C31.4439 23.2275 31.1465 23.5647 30.7641 23.8598C30.3817 24.1127 29.8718 24.2392 29.2344 24.2392H27.5348V19.5179H29.8293C30.4242 19.5179 30.9341 19.6443 31.3165 19.9394C31.6989 20.2345 31.9113 20.6982 31.9113 21.3727C31.9113 21.9207 31.8264 22.3844 31.6139 22.8059Z" fill="#1F074F"/>
<path d="M44.2349 27.3155C44.2349 26.9361 44.2349 26.6411 44.2349 26.3881V24.1961C44.2349 23.353 44.1075 22.6785 43.895 22.1727C43.6826 21.6247 43.3426 21.2453 42.9602 20.9502C42.5353 20.6551 42.0679 20.4443 41.5155 20.36C40.9631 20.2336 40.3683 20.1914 39.7309 20.1914C39.221 20.1914 38.6686 20.2336 38.1587 20.3179C37.6489 20.4022 37.1815 20.4865 36.7565 20.6551V22.5942H36.9265C37.2239 22.4678 37.5639 22.3413 38.0313 22.257C38.4987 22.1727 38.9661 22.0884 39.4335 22.0884C39.9859 22.0884 40.4108 22.1305 40.7932 22.257C41.1331 22.3413 41.4305 22.5521 41.6005 22.8471C41.7705 23.1422 41.8979 23.6059 41.8979 24.1961V24.3647C41.728 24.3226 41.558 24.2804 41.388 24.2382C41.0056 24.1539 40.5807 24.1118 40.0708 24.1118C39.2635 24.1118 38.5412 24.2382 37.9038 24.449C37.3089 24.6598 36.799 24.997 36.4591 25.4186C36.1192 25.8401 35.9492 26.4303 35.9492 27.1048C35.9492 28.1586 36.3316 28.9174 37.054 29.4233C37.7763 29.887 38.8811 30.1399 40.3258 30.1399C40.7507 30.1399 41.2181 30.0977 41.6855 30.0556C42.1529 30.0134 42.6203 29.9291 43.0877 29.8026C43.5551 29.6762 43.98 29.5497 44.3624 29.4233L44.4049 29.2968C44.3624 29.086 44.3199 28.8331 44.3199 28.4537C44.2349 28.0322 44.2349 27.6949 44.2349 27.3155ZM41.4305 28.2851C41.0481 28.3694 40.6657 28.3694 40.2833 28.3694C39.6034 28.3694 39.0935 28.2851 38.7536 28.0743C38.4137 27.8635 38.2012 27.5263 38.2012 27.0626C38.2012 26.5567 38.3712 26.2195 38.7536 26.0087C39.136 25.798 39.6884 25.7137 40.4532 25.7137C40.7932 25.7137 41.1331 25.7558 41.5155 25.798C41.643 25.8401 41.7705 25.8401 41.8979 25.8823V26.5567C41.8979 26.8518 41.8979 27.0626 41.8979 27.2734C41.8979 27.442 41.9404 27.6106 41.9404 27.7792C41.9404 27.9057 41.9829 28.0322 42.0254 28.1586C41.7705 28.2008 41.6005 28.2429 41.4305 28.2851Z" fill="#1F074F"/>
<path d="M50.5632 27.0206L48.3537 20.4023H45.7617V20.6131L49.3734 30.0557L47.8438 33.681V33.8497H50.2658L55.4496 20.6131V20.4023H52.9852L50.5632 27.0206Z" fill="#1F074F"/>
<path d="M70.3645 20.9923C69.9396 20.6973 69.5147 20.4865 69.0048 20.36C68.4949 20.2336 67.9425 20.1914 67.3902 20.1914C66.7953 20.1914 66.2429 20.2757 65.648 20.4022C65.1382 20.5286 64.6707 20.6551 64.2458 20.8659C63.9059 20.6551 63.5235 20.4865 63.0986 20.4022C62.5887 20.2757 62.0788 20.1914 61.5264 20.1914C61.059 20.1914 60.5491 20.2336 60.0392 20.3179C59.5294 20.4022 59.0195 20.4865 58.5521 20.613C58.0847 20.7394 57.6598 20.8659 57.3198 20.9923L57.2773 21.1188C57.3198 21.3296 57.3623 21.6247 57.3623 21.9619C57.4048 22.2991 57.4048 22.6785 57.4048 23.0158C57.4048 23.353 57.4048 23.6481 57.4048 23.901V29.8026H59.8268V23.5638C59.8268 23.2265 59.8268 22.8893 59.7843 22.5942C59.7843 22.5099 59.7418 22.4256 59.7418 22.3834C59.8693 22.3413 60.0392 22.2991 60.2092 22.257C60.5491 22.1727 60.9316 22.1305 61.2715 22.1305C61.6964 22.1305 62.0363 22.2148 62.3762 22.3413C62.7162 22.4678 62.9711 22.7207 63.1411 23.0579C63.311 23.3952 63.4385 23.8589 63.4385 24.4912V29.8448H65.8605V24.4069C65.8605 23.6059 65.733 22.9315 65.5206 22.4256C65.733 22.3413 65.9455 22.2991 66.1579 22.257C66.4554 22.1727 66.7528 22.1727 67.0502 22.1727C67.5176 22.1727 67.9001 22.257 68.24 22.3834C68.5799 22.5099 68.8349 22.7628 69.0048 23.1001C69.1748 23.4373 69.2598 23.901 69.2598 24.5333V29.887H71.6817V24.4069C71.6817 23.5216 71.5543 22.805 71.3418 22.2991C71.0869 21.7511 70.7894 21.3296 70.3645 20.9923Z" fill="#1F074F"/>
<path d="M81.4573 20.8659C80.7775 20.4443 79.9277 20.1914 78.8654 20.1914C77.9306 20.1914 77.0808 20.4022 76.4009 20.7816C75.7211 21.161 75.1687 21.7511 74.7863 22.4678C74.4039 23.1844 74.1914 24.0696 74.1914 25.0813C74.1914 25.9244 74.3189 26.6832 74.5738 27.2734C74.8288 27.9057 75.2112 28.4115 75.6786 28.7909C76.146 29.1703 76.7409 29.4654 77.4207 29.6762C78.1006 29.887 78.8654 29.9713 79.7577 29.9713C80.3951 29.9713 80.9474 29.9291 81.4148 29.8448C81.8822 29.7605 82.3071 29.634 82.6046 29.5076V27.5685H82.4346C82.1797 27.6949 81.8398 27.8214 81.4148 27.9478C80.9899 28.0322 80.48 28.1165 79.9277 28.1165C79.2903 28.1165 78.7379 28.0322 78.228 27.8635C77.7606 27.6949 77.3782 27.3998 77.0808 27.0204C76.8683 26.7254 76.7409 26.346 76.6984 25.8823H83.2419V25.2921C83.2844 24.2804 83.157 23.4373 82.8595 22.6785C82.6046 21.8776 82.1372 21.2874 81.4573 20.8659ZM80.8625 24.2804H76.6984C76.7409 23.8589 76.8258 23.4795 76.9533 23.1844C77.1658 22.7628 77.4207 22.4678 77.7181 22.2991C78.0581 22.1305 78.4405 22.0041 78.8654 22.0041C79.5453 22.0041 80.0551 22.1727 80.3526 22.5521C80.6925 22.9315 80.8625 23.4373 80.8625 24.1539V24.2804Z" fill="#1F074F"/>
<path d="M93.1395 21.0345C92.7146 20.7394 92.2047 20.5286 91.6948 20.4022C91.1424 20.2757 90.5901 20.1914 89.9952 20.1914C89.5278 20.1914 89.0179 20.2336 88.508 20.3179C87.9981 20.4022 87.4882 20.4865 87.0208 20.613C86.5534 20.7394 86.1285 20.8659 85.7886 20.9923L85.7461 21.1188C85.7886 21.3296 85.8311 21.6247 85.8311 21.9619C85.8736 22.2991 85.8736 22.6785 85.8736 23.0158C85.8736 23.353 85.8736 23.6481 85.8736 23.901V29.8026H88.2955V23.5638C88.2955 23.2265 88.2955 22.8893 88.2531 22.5942C88.2531 22.5099 88.2106 22.4256 88.2106 22.3834C88.338 22.3413 88.508 22.2991 88.678 22.257C89.0179 22.1727 89.4003 22.1305 89.7402 22.1305C90.2076 22.1305 90.6325 22.2148 90.9725 22.3413C91.3124 22.4678 91.5673 22.7207 91.7798 23.0579C91.9498 23.3952 92.0772 23.8589 92.0772 24.4912V29.8448H94.4992V24.4069C94.4992 23.5638 94.3717 22.8471 94.1168 22.2991C93.9043 21.7511 93.6069 21.3296 93.1395 21.0345Z" fill="#1F074F"/>
<path d="M102.617 27.9477C102.404 27.9898 102.192 28.032 101.979 28.032C101.385 28.032 100.96 27.9055 100.705 27.6526C100.45 27.3997 100.28 26.9781 100.28 26.3879V22.3411H102.872V20.402H100.28V17.957H97.8578V20.402H96.3281V22.3411H97.8578V26.5566C97.8578 27.3575 97.9853 27.9898 98.2827 28.4957C98.5801 29.0015 99.005 29.3388 99.5999 29.5917C100.195 29.8446 100.875 29.9711 101.724 29.9711C102.064 29.9711 102.404 29.9289 102.659 29.8868C102.957 29.8446 103.169 29.7603 103.382 29.676V27.7369H103.212C103.042 27.8634 102.829 27.9055 102.617 27.9477Z" fill="#1F074F"/>
<path d="M111.2 24.7426C110.775 24.5319 110.265 24.4054 109.713 24.3211L108.905 24.1946C108.395 24.1103 107.97 23.9839 107.716 23.8574C107.461 23.7309 107.333 23.5202 107.333 23.2251C107.333 22.8457 107.503 22.5506 107.885 22.4241C108.268 22.2555 108.778 22.1712 109.415 22.1712C109.84 22.1712 110.265 22.2134 110.69 22.2555C111.115 22.3398 111.54 22.4663 111.965 22.6349H112.092V20.6536C111.71 20.5272 111.285 20.4429 110.86 20.4007C110.435 20.3164 109.968 20.3164 109.5 20.3164C108.438 20.3164 107.546 20.4429 106.908 20.738C106.271 20.9909 105.761 21.3703 105.463 21.834C105.166 22.2977 104.996 22.8035 104.996 23.3515C104.996 24.1525 105.251 24.7426 105.761 25.122C106.271 25.5014 106.993 25.7965 107.885 25.9651L108.693 26.0916C109.245 26.1759 109.67 26.3024 109.925 26.4288C110.18 26.5553 110.307 26.7661 110.307 27.1033C110.307 27.3562 110.222 27.567 110.095 27.6935C109.968 27.8621 109.798 27.9464 109.585 27.9885C109.373 28.0307 109.16 28.0728 108.948 28.115C108.735 28.115 108.48 28.115 108.31 28.115C107.758 28.115 107.163 28.0728 106.611 27.9042C106.058 27.7778 105.548 27.6091 105.166 27.4405H105.039V29.5061C105.463 29.6326 105.973 29.759 106.526 29.8433C107.078 29.9277 107.631 29.9698 108.183 29.9698C109.713 29.9698 110.817 29.7169 111.582 29.211C112.347 28.7052 112.729 27.9464 112.729 26.9347C112.729 26.3867 112.602 25.923 112.347 25.5436C112.007 25.2485 111.667 24.9534 111.2 24.7426Z" fill="#1F074F"/>
<path d="M37.6067 14.7945C38.584 15.3003 39.8162 15.5533 41.3034 15.5533C41.8983 15.5533 42.4082 15.5111 42.8756 15.4268C43.343 15.3425 43.7254 15.216 44.0653 15.0474V12.8554H43.8953C43.5979 13.024 43.2155 13.1505 42.7906 13.2769C42.3657 13.3612 41.8983 13.4034 41.4309 13.4034C40.4961 13.4034 39.7312 13.2348 39.0939 12.8975C38.4565 12.5603 37.9891 12.0966 37.6492 11.4643C37.3093 10.832 37.1818 10.031 37.1818 9.10362C37.1818 8.17622 37.3517 7.41744 37.6492 6.78512C37.9891 6.1528 38.4565 5.64695 39.0939 5.30971C39.7312 4.97247 40.4961 4.80385 41.4309 4.80385C41.8983 4.80385 42.3657 4.84601 42.7906 4.97247C43.2155 5.05678 43.5979 5.18325 43.8953 5.35186H44.0653V3.24414C43.7679 3.07552 43.343 2.99121 42.8756 2.86475C42.4082 2.78044 41.8983 2.73828 41.3034 2.73828C39.8587 2.73828 38.6265 2.99121 37.6067 3.53922C36.6294 4.08723 35.8646 4.80385 35.3547 5.77341C34.8448 6.74297 34.5898 7.83898 34.5898 9.14578C34.5898 10.4526 34.8448 11.6329 35.3547 12.6025C35.9071 13.572 36.6294 14.2886 37.6067 14.7945Z" fill="#1F074F"/>
<path d="M47.335 14.878C48.0573 15.3417 49.1621 15.5946 50.6068 15.5946C51.0317 15.5946 51.4991 15.5525 51.9665 15.5103C52.4339 15.4682 52.9013 15.3839 53.3687 15.2574C53.8361 15.1309 54.261 15.0045 54.6434 14.878L54.6859 14.7515C54.6434 14.5408 54.6009 14.2878 54.6009 13.9085C54.5584 13.5712 54.5584 13.1918 54.5584 12.8546C54.5584 12.4752 54.5584 12.1801 54.5584 11.9272V9.73515C54.5584 8.89206 54.431 8.21759 54.2185 7.71173C54.0061 7.16372 53.6661 6.78433 53.2837 6.48925C52.8588 6.19417 52.3914 5.9834 51.839 5.89909C51.2867 5.77262 50.6918 5.73047 50.0544 5.73047C49.5445 5.73047 48.9921 5.77262 48.4823 5.85693C47.9724 5.94124 47.505 6.02555 47.0801 6.19417V8.13328H47.25C47.5475 8.00681 47.8874 7.88035 48.3548 7.79604C48.8222 7.71173 49.2896 7.62742 49.757 7.62742C50.3094 7.62742 50.7343 7.66958 51.1167 7.79604C51.4566 7.88035 51.7541 8.09112 51.924 8.38621C52.094 8.68129 52.2215 9.14499 52.2215 9.73515V9.90377C52.0515 9.86162 51.8815 9.81946 51.7116 9.77731C51.3291 9.693 50.9042 9.65084 50.3943 9.65084C49.587 9.65084 48.8647 9.77731 48.2273 9.98808C47.6324 10.1989 47.1225 10.5361 46.7826 10.9576C46.4427 11.3792 46.2727 11.9693 46.2727 12.6438C46.2302 13.6555 46.6127 14.4143 47.335 14.878ZM49.0346 11.5056C49.4171 11.2949 49.9694 11.2106 50.7343 11.2106C51.0742 11.2106 51.4141 11.2527 51.7965 11.2949C51.924 11.337 52.0515 11.337 52.179 11.3792V12.0537C52.179 12.3487 52.179 12.5595 52.179 12.7703C52.179 12.9389 52.2215 13.1075 52.2215 13.2761C52.2215 13.4026 52.2639 13.5291 52.3064 13.6555C52.1365 13.6977 51.9665 13.782 51.7965 13.8241C51.4141 13.9085 51.0317 13.9085 50.6493 13.9085C49.9694 13.9085 49.4595 13.8241 49.1196 13.6134C48.7797 13.4026 48.5672 13.0654 48.5672 12.6017C48.5247 12.0537 48.6947 11.7164 49.0346 11.5056Z" fill="#1F074F"/>
<path d="M61.6989 13.4861C61.4864 13.5282 61.274 13.5704 61.0615 13.6126C60.849 13.6126 60.5941 13.6126 60.4241 13.6126C59.8718 13.6126 59.2769 13.5282 58.7245 13.4018C58.1721 13.2753 57.6622 13.1067 57.2798 12.9381H57.1523V14.9615C57.5773 15.088 58.0871 15.2144 58.6395 15.2987C59.1919 15.383 59.7443 15.4252 60.2967 15.4252C61.8263 15.4252 62.9311 15.1723 63.6959 14.6664C64.4608 14.1606 64.8432 13.4018 64.8432 12.3901C64.8432 11.8421 64.7157 11.3784 64.4608 10.999C64.2058 10.6196 63.8234 10.3245 63.3985 10.1137C62.9736 9.90296 62.4637 9.77649 61.9113 9.69218L61.104 9.56572C60.5941 9.48141 60.1692 9.35495 59.9142 9.22848C59.6593 9.10202 59.5318 8.89125 59.5318 8.59616C59.5318 8.21677 59.7018 7.92169 60.0842 7.79523C60.4666 7.62661 60.9765 7.5423 61.6139 7.5423C62.0388 7.5423 62.4637 7.58446 62.8886 7.62661C63.3135 7.71092 63.7384 7.83738 64.1633 8.006H64.2908V6.02474C63.9084 5.89827 63.4835 5.81396 63.0586 5.77181C62.6337 5.6875 62.1663 5.6875 61.6989 5.6875C60.6366 5.6875 59.7443 5.81396 59.1069 6.10905C58.4696 6.36197 57.9597 6.74136 57.6622 7.20506C57.3648 7.66876 57.1948 8.17462 57.1948 8.72263C57.1948 9.52357 57.4498 10.1137 57.9597 10.4931C58.4696 10.8725 59.1919 11.1676 60.0842 11.3362L60.8915 11.4627C61.4439 11.547 61.8688 11.6734 62.1238 11.7999C62.3787 11.9264 62.5062 12.1371 62.5062 12.4744C62.5062 12.7273 62.4212 12.9381 62.2937 13.0645C62.0813 13.3175 61.9113 13.4439 61.6989 13.4861Z" fill="#1F074F"/>
<path d="M75.8473 15.3866V9.94866C75.8473 9.14772 75.7624 8.47325 75.5499 7.9674C75.3374 7.41939 75.04 6.99784 74.7001 6.6606C74.3602 6.32337 73.8928 6.07044 73.4254 5.94398C72.958 5.77536 72.4056 5.7332 71.8532 5.7332C71.3008 5.7332 70.7909 5.77536 70.366 5.90182C70.1536 5.94398 69.9411 6.02829 69.7287 6.1126V2.23438H67.1792L67.1367 2.36084C67.1792 2.57161 67.2217 2.82454 67.2217 3.20393C67.2642 3.54117 67.2642 3.92056 67.2642 4.25779C67.2642 4.59503 67.2642 4.89011 67.2642 5.14304V15.3444H69.6862V7.9674H69.7287C69.9411 7.92524 70.1961 7.84093 70.451 7.79878C70.7059 7.75662 70.9609 7.71447 71.2158 7.71447C71.6407 7.71447 72.0232 7.79878 72.3631 7.92524C72.703 8.05171 72.958 8.30463 73.1279 8.64187C73.2979 8.97911 73.4254 9.44281 73.4254 10.0751V15.3866H75.8473Z" fill="#1F074F"/>
<path d="M83.2816 2.14844C82.4318 2.14844 81.7095 2.2749 81.1146 2.56998C80.5197 2.86507 80.0523 3.28661 79.7549 3.83462C79.4574 4.38263 79.2875 5.09926 79.2875 5.94235H77.7578V7.88146H79.2875V15.385H81.7095V7.88146H84.1314V5.94235H81.7095C81.7095 5.26788 81.8369 4.80418 82.0919 4.50909C82.3468 4.17186 82.8142 4.04539 83.4091 4.04539C83.664 4.04539 83.8765 4.08755 84.0465 4.1297C84.2164 4.17186 84.3864 4.21401 84.5139 4.25617H84.6838V2.35921C84.5139 2.2749 84.3014 2.23275 84.0465 2.19059C83.8765 2.14844 83.5791 2.14844 83.2816 2.14844Z" fill="#1F074F"/>
<path d="M85.9595 8.47214C85.9595 8.80938 85.9595 9.10446 85.9595 9.35739V15.3855H88.3815V9.10446C88.3815 8.59861 88.339 8.21922 88.2965 7.92413C88.424 7.88198 88.5514 7.88198 88.7214 7.83983C89.0613 7.79767 89.4437 7.75552 89.8262 7.75552C90.0386 7.75552 90.2511 7.75552 90.4635 7.79767C90.676 7.79767 90.8884 7.83983 91.0584 7.88198H91.2284V5.90072C90.9734 5.85856 90.761 5.85856 90.506 5.81641C90.2511 5.81641 90.0386 5.81641 89.8262 5.81641C89.3588 5.81641 88.8489 5.85856 88.3815 5.90072C87.9141 5.94287 87.4467 6.02718 87.0218 6.11149C86.5969 6.1958 86.2145 6.32226 85.8745 6.40657L85.832 6.53303C85.8745 6.74381 85.917 7.03889 85.917 7.37613C85.917 7.75552 85.9595 8.09275 85.9595 8.47214Z" fill="#1F074F"/>
<path d="M99.8558 15.4268C100.323 15.3425 100.748 15.2161 101.046 15.0896V13.1505H100.876C100.621 13.277 100.281 13.4034 99.8558 13.5299C99.4309 13.6142 98.921 13.6985 98.3686 13.6985C97.7312 13.6985 97.1789 13.6142 96.669 13.4456C96.2016 13.277 95.8191 12.9819 95.5217 12.6025C95.3093 12.3074 95.1818 11.928 95.1393 11.4643H101.683V10.8741C101.725 9.86243 101.598 9.01934 101.3 8.26056C101.003 7.50177 100.536 6.86946 99.8558 6.44791C99.1759 6.02637 98.3261 5.77344 97.2638 5.77344C96.329 5.77344 95.4792 5.98421 94.7994 6.3636C94.1195 6.74299 93.5671 7.33316 93.1847 8.04978C92.8023 8.76641 92.5898 9.65166 92.5898 10.6634C92.5898 11.5065 92.7173 12.2652 92.9723 12.8554C93.2272 13.4877 93.6096 13.9936 94.077 14.373C94.5444 14.7524 95.1393 15.0474 95.8191 15.2582C96.499 15.469 97.2638 15.5533 98.1561 15.5533C98.836 15.5533 99.3884 15.5111 99.8558 15.4268ZM96.2016 7.79686C96.5415 7.62824 96.9239 7.50177 97.3488 7.50177C98.0287 7.50177 98.5386 7.67039 98.836 8.04978C99.1759 8.42918 99.3459 8.93503 99.3459 9.65166V9.73597H95.1818C95.2243 9.31442 95.3093 8.93503 95.4367 8.63995C95.6067 8.26056 95.8616 7.96548 96.2016 7.79686Z" fill="#1F074F"/>
<path d="M112.433 8.17462C112.136 7.41584 111.668 6.78352 110.989 6.36197C110.309 5.94043 109.459 5.6875 108.397 5.6875C107.462 5.6875 106.612 5.89827 105.932 6.27766C105.252 6.65705 104.7 7.24722 104.318 7.96385C103.935 8.68047 103.723 9.56572 103.723 10.5774C103.723 11.4205 103.85 12.1793 104.105 12.7695C104.36 13.4018 104.742 13.9076 105.21 14.287C105.677 14.6664 106.272 14.9615 106.952 15.1723C107.632 15.383 108.397 15.4674 109.289 15.4674C109.926 15.4674 110.479 15.4252 110.946 15.3409C111.414 15.2566 111.838 15.1301 112.136 15.0037V13.0645H111.966C111.711 13.191 111.371 13.3175 110.946 13.4439C110.521 13.5282 110.011 13.6126 109.459 13.6126C108.822 13.6126 108.269 13.5282 107.759 13.3596C107.292 13.191 106.909 12.8959 106.612 12.5165C106.4 12.2215 106.272 11.8421 106.23 11.3784H112.773V10.7882C112.858 9.81865 112.731 8.9334 112.433 8.17462ZM110.436 9.77649H106.272C106.315 9.35495 106.4 8.97556 106.527 8.68047C106.74 8.25893 106.994 7.96385 107.292 7.79523C107.632 7.62661 108.014 7.50015 108.439 7.50015C109.119 7.50015 109.629 7.66876 109.926 8.04816C110.266 8.42755 110.436 8.9334 110.436 9.65003V9.77649Z" fill="#1F074F"/>
<path d="M13.9367 2.31559C11.4297 2.31559 9.34766 4.33901 9.34766 6.82613H26.3015C28.8085 6.82613 30.8905 4.80271 30.8905 2.27344H13.9367V2.31559Z" fill="#04AB61"/>
<path d="M9.34766 6.82613C9.34766 4.33901 11.3872 2.27344 13.9367 2.27344V19.0931C13.9367 21.5802 11.8971 23.6458 9.34766 23.6458V6.82613Z" fill="#04AB61"/>
<path fill-rule="evenodd" clip-rule="evenodd" d="M15.3828 8.34375V12.8964H20.6942C23.2011 12.8964 25.2832 10.873 25.2832 8.34375H15.3828Z" fill="#FBB016"/>
<path d="M3.1875 12.8964C3.1875 10.4093 5.22706 8.34375 7.77651 8.34375V25.1634C7.77651 27.6505 5.73695 29.7161 3.1875 29.7161V12.8964Z" fill="#FBB016"/>
</svg>
