<svg width="140" height="22" viewBox="0 0 140 22" fill="none" xmlns="http://www.w3.org/2000/svg">
<path d="M30.2705 20.9045V2.46586C30.2715 2.17427 30.3879 1.89492 30.5943 1.68873C30.8006 1.48255 31.0802 1.36626 31.372 1.36523H43.9613L43.9468 4.68849H34.523V9.43295H42.7072V12.6911H34.4938V17.5376L44.0926 17.5521V20.9045H30.2705Z" fill="#6D52D1"/>
<path d="M49.7736 21.1746C48.559 21.2158 47.3695 20.8232 46.4185 20.0672C45.9645 19.6798 45.6064 19.1926 45.3723 18.6439C45.1382 18.0952 45.0344 17.4997 45.069 16.9042C45.0327 16.2271 45.1697 15.5519 45.467 14.9424C45.7644 14.3329 46.2123 13.8091 46.7685 13.4206C47.9137 12.6192 49.7153 12.2034 52.1876 12.1743L53.924 12.1452V11.3068C53.9417 11.035 53.8999 10.7625 53.8017 10.5084C53.7035 10.2543 53.5512 10.0245 53.3553 9.8351C52.8687 9.44439 52.2476 9.26113 51.6267 9.3251C51.0517 9.33251 50.4862 9.47212 49.9739 9.7331C49.7129 9.8731 49.4844 10.0666 49.3035 10.301C49.1225 10.5354 48.9932 10.8053 48.9239 11.0931H45.6601C45.6532 10.4257 45.817 9.76765 46.1361 9.18129C46.4551 8.59493 46.9187 8.09973 47.4831 7.74264C48.7926 6.97888 50.2933 6.60478 51.8085 6.66436C53.9474 6.66436 55.4621 7.06037 56.3526 7.85241C56.8034 8.25649 57.1583 8.75591 57.3916 9.31432C57.6249 9.87273 57.7306 10.4761 57.7011 11.0805V20.9045H54.0922V18.4993C53.7359 19.3719 53.1062 20.1057 52.2975 20.5908C51.5189 20.9949 50.6507 21.1957 49.7736 21.1746ZM51.09 18.5799C51.5567 18.5808 52.0174 18.474 52.4361 18.268C52.8548 18.0619 53.2202 17.7621 53.504 17.3918C53.7697 17.0666 53.9165 16.6605 53.9201 16.2407V14.1706L52.5055 14.1997C51.8881 14.203 51.2734 14.2813 50.6749 14.4329C50.1593 14.5507 49.6838 14.8019 49.2962 15.1614C49.1229 15.339 48.988 15.5504 48.9002 15.7824C48.8124 16.0144 48.7734 16.262 48.7858 16.5098C48.7709 16.7977 48.8231 17.0852 48.9383 17.3495C49.0535 17.6139 49.2287 17.8478 49.4499 18.033C49.9148 18.403 50.4958 18.5967 51.09 18.5799Z" fill="#6D52D1"/>
<path d="M65.1429 21.1746C64.1868 21.1772 63.2373 21.0169 62.3351 20.7006C61.4635 20.3897 60.6818 19.8692 60.0591 19.1851C59.3999 18.4289 58.9848 17.4913 58.8682 16.4952H62.2816C62.3345 16.8249 62.4644 17.1375 62.6609 17.4076C62.8573 17.6776 63.1148 17.8976 63.4123 18.0495C63.9603 18.3129 64.5588 18.4552 65.1668 18.4666C65.7748 18.478 66.3781 18.3583 66.9357 18.1156C67.149 18.021 67.3294 17.8653 67.454 17.6681C67.5786 17.471 67.6419 17.2413 67.6357 17.0082C67.6419 16.8355 67.6075 16.6639 67.5352 16.507C67.463 16.35 67.3548 16.2123 67.2196 16.1047C66.8178 15.8278 66.3547 15.6528 65.8701 15.5947L63.4191 15.0847C62.3322 14.8902 61.3087 14.4352 60.4364 13.7587C60.0594 13.4261 59.7621 13.0131 59.5663 12.5502C59.3706 12.0873 59.2815 11.5863 59.3057 11.0844C59.2934 10.4804 59.4208 9.8817 59.6779 9.33495C59.9351 8.78819 60.3151 8.30812 60.7883 7.9321C62.0493 7.00757 63.597 6.55852 65.1575 6.66439C66.6174 6.59149 68.0613 6.99557 69.2709 7.81553C69.7749 8.17661 70.1823 8.65602 70.4571 9.2115C70.7319 9.76698 70.8658 10.3815 70.8469 11.0008H67.5569C67.5154 10.7479 67.4216 10.5063 67.2815 10.2916C67.1414 10.0768 66.9581 9.89357 66.7432 9.75353C66.2574 9.44031 65.6865 9.2849 65.1089 9.30862C64.5255 9.28667 63.9461 9.41195 63.424 9.6729C63.2186 9.77438 63.0468 9.93275 62.9291 10.1291C62.8114 10.3255 62.7526 10.5515 62.76 10.7803C62.7599 10.9617 62.8104 11.1395 62.9057 11.2939C63.001 11.4483 63.1373 11.5732 63.2996 11.6546C63.8265 11.9159 64.3894 12.0976 64.9698 12.1938L67.238 12.7038C68.1045 12.8746 68.916 13.2548 69.6015 13.8112C70.0953 14.2217 70.4767 14.7508 70.7098 15.349C70.8927 15.8037 70.9941 16.2871 71.0093 16.777C71.0354 17.4119 70.899 18.0429 70.6131 18.6105C70.3271 19.1781 69.901 19.6634 69.375 20.0206C68.1197 20.8378 66.6396 21.2414 65.1429 21.1746Z" fill="#6D52D1"/>
<path d="M75.9302 14.8195C75.8735 15.7338 76.1451 16.6384 76.6963 17.3705C76.9648 17.6863 77.3025 17.936 77.6832 18.1002C78.0639 18.2645 78.4774 18.3389 78.8916 18.3176C79.5075 18.3304 80.1162 18.182 80.6571 17.8873C80.9208 17.7331 81.1511 17.528 81.3347 17.284C81.5183 17.04 81.6515 16.762 81.7265 16.4661H85.2713C85.139 17.4137 84.7248 18.2998 84.0822 19.0093C83.4505 19.7124 82.6673 20.2631 81.7917 20.6199C80.9041 20.9885 79.9519 21.1767 78.9907 21.1736C77.723 21.2008 76.4696 20.9021 75.3507 20.3061C74.3166 19.7332 73.4686 18.8758 72.9075 17.8358C72.3021 16.679 72.001 15.3873 72.0325 14.0822C72.0103 12.7823 72.2821 11.4942 72.8278 10.314C73.3256 9.22604 74.1231 8.30214 75.1271 7.65037C76.2242 7.01939 77.4651 6.68059 78.7308 6.66648C79.9965 6.65236 81.2447 6.96339 82.3556 7.56974C83.3223 8.1629 84.083 9.03894 84.5343 10.0789C85.0504 11.2399 85.3043 12.5003 85.2781 13.7704V14.8195H75.9302ZM75.9156 12.4725H81.605C81.6263 11.6923 81.3793 10.9284 80.905 10.3082C80.6482 10.003 80.3224 9.76328 79.9546 9.60873C79.5867 9.45418 79.1874 9.38926 78.7895 9.41934C78.2353 9.40143 77.6894 9.55698 77.2281 9.86425C76.8086 10.1562 76.4734 10.5532 76.2559 11.0154C76.0271 11.4668 75.9104 11.9666 75.9156 12.4725Z" fill="#6D52D1"/>
<path d="M94.4058 21.1747C93.6215 21.203 92.8416 21.0456 92.1298 20.7152C91.5749 20.4305 91.0914 20.0244 90.7152 19.5271C90.3847 19.0741 90.1263 18.5728 89.9491 18.0409V20.9046H86.6436V0.826172H89.8237C90.03 0.826172 90.2278 0.908049 90.3737 1.05379C90.5195 1.19953 90.6015 1.3972 90.6015 1.60331V8.8288C90.9833 8.18613 91.5332 7.65954 92.192 7.3056C92.9885 6.8678 93.8869 6.64891 94.7956 6.67126C95.575 6.63755 96.351 6.79068 97.059 7.11786C97.767 7.44504 98.3864 7.93676 98.8654 8.55194C99.9434 10.1003 100.465 11.9677 100.346 13.8501C100.44 15.7456 99.9099 17.6197 98.8362 19.1852C98.3134 19.8497 97.6373 20.3777 96.8658 20.7242C96.0942 21.0706 95.2502 21.2252 94.4058 21.1747ZM93.5454 18.3362C93.953 18.3403 94.3559 18.2481 94.721 18.0669C95.0862 17.8858 95.4033 17.6208 95.6463 17.2938C96.3093 16.2484 96.6092 15.0139 96.5 13.7811C96.5872 12.6502 96.3029 11.5216 95.6901 10.5667C95.4392 10.2301 95.1103 9.95945 94.7317 9.77789C94.353 9.59634 93.9359 9.50933 93.5162 9.52434C91.5834 9.52434 90.6086 10.943 90.5917 13.7802C90.4903 14.9969 90.7436 16.2169 91.3209 17.2929C91.5712 17.6426 91.9072 17.9222 92.2967 18.1049C92.6862 18.2876 93.1162 18.3673 93.5454 18.3362Z" fill="#6D52D1"/>
<path d="M106.843 21.1747C105.979 21.173 105.125 20.9945 104.333 20.6502C103.545 20.3158 102.855 19.787 102.327 19.1134C101.783 18.3902 101.502 17.5033 101.531 16.5993V6.93359H105.47V16.0942C105.459 16.3896 105.51 16.684 105.62 16.9587C105.729 17.2334 105.894 17.4825 106.105 17.6902C106.358 17.9112 106.653 18.0798 106.973 18.1861C107.292 18.2925 107.629 18.3346 107.965 18.31C108.63 18.345 109.285 18.1321 109.803 17.7126C110.035 17.4987 110.217 17.2361 110.335 16.9437C110.454 16.6513 110.506 16.3363 110.488 16.0213V6.93359H114.382V20.9047H110.954V18.1351C110.847 18.8453 110.527 19.5063 110.035 20.0304C109.612 20.4525 109.087 20.7586 108.511 20.9192C107.97 21.0846 107.408 21.1707 106.843 21.1747Z" fill="#6D52D1"/>
<path d="M115.675 20.9047V19.0755C115.675 18.8354 115.755 18.6022 115.901 18.412L122.548 9.69536H116.025V6.93359H127.323V9.13485L120.43 18.1429H127.359V20.8979H115.675V20.9047Z" fill="#6D52D1"/>
<path d="M128.314 20.9047V19.0755C128.315 18.8354 128.394 18.6022 128.541 18.412L135.193 9.69536H128.664V6.93359H139.963V9.13485L133.07 18.1429H139.999V20.8979H128.314V20.9047Z" fill="#6D52D1"/>
<path d="M2.47917 9.50586H18.9574L17.1043 12.8728C16.9144 13.2192 16.6348 13.5082 16.2948 13.7095C15.9548 13.9109 15.5668 14.0171 15.1715 14.0172H0L2.47917 9.50586Z" fill="#85E6C4"/>
<path d="M9.19791 16.2117H25.6742L23.8211 19.5786C23.6312 19.925 23.3516 20.214 23.0116 20.4153C22.6716 20.6167 22.2836 20.7229 21.8883 20.723H6.71777L9.19791 16.2117Z" fill="#6D44E5"/>
<path d="M9.19791 2.79321H25.6742L23.8221 6.16116C23.6322 6.50754 23.3526 6.79653 23.0126 6.99786C22.6725 7.19919 22.2846 7.30544 21.8893 7.3055H6.71777L9.19791 2.79321Z" fill="#517CE3"/>
</svg>
