<svg width="416" height="98" viewBox="0 0 416 98" fill="none" xmlns="http://www.w3.org/2000/svg">
<path d="M241.438 92V78.9091H243.349V83.7734H243.464C243.575 83.5689 243.735 83.3324 243.944 83.0639C244.153 82.7955 244.442 82.5611 244.813 82.3608C245.184 82.1562 245.674 82.054 246.283 82.054C247.076 82.054 247.783 82.2543 248.406 82.6548C249.028 83.0554 249.516 83.6328 249.869 84.3871C250.227 85.1413 250.406 86.049 250.406 87.1101C250.406 88.1712 250.229 89.081 249.876 89.8395C249.522 90.5937 249.036 91.1754 248.418 91.5845C247.8 91.9893 247.095 92.1918 246.303 92.1918C245.706 92.1918 245.218 92.0916 244.839 91.8913C244.464 91.6911 244.17 91.4567 243.957 91.1882C243.744 90.9197 243.58 90.6811 243.464 90.4723H243.305V92H241.438ZM243.311 87.0909C243.311 87.7812 243.411 88.3864 243.612 88.9062C243.812 89.4261 244.102 89.8331 244.481 90.1271C244.86 90.4169 245.325 90.5618 245.874 90.5618C246.445 90.5618 246.923 90.4105 247.306 90.108C247.69 89.8011 247.979 89.3857 248.175 88.8615C248.376 88.3374 248.476 87.7472 248.476 87.0909C248.476 86.4432 248.378 85.8615 248.182 85.3459C247.99 84.8303 247.7 84.4233 247.312 84.125C246.929 83.8267 246.45 83.6776 245.874 83.6776C245.32 83.6776 244.852 83.8203 244.468 84.1058C244.089 84.3913 243.801 84.7898 243.605 85.3011C243.409 85.8125 243.311 86.4091 243.311 87.0909ZM253.426 95.6818C253.141 95.6818 252.881 95.6584 252.647 95.6115C252.412 95.5689 252.238 95.522 252.123 95.4709L252.583 93.9048C252.932 93.9986 253.243 94.0391 253.516 94.0263C253.789 94.0135 254.029 93.9112 254.238 93.7195C254.451 93.5277 254.639 93.2145 254.801 92.7798L255.037 92.1278L251.445 82.1818H253.49L255.977 89.8011H256.079L258.566 82.1818H260.618L256.571 93.3104C256.384 93.8217 256.145 94.2543 255.855 94.608C255.566 94.9659 255.221 95.2344 254.82 95.4134C254.419 95.5923 253.955 95.6818 253.426 95.6818ZM266.685 80.6094V78.9091H276.817V80.6094H272.732V92H270.763V80.6094H266.685ZM281.71 92.1982C280.742 92.1982 279.909 91.9915 279.21 91.5781C278.516 91.1605 277.979 90.5746 277.6 89.8203C277.225 89.0618 277.037 88.1733 277.037 87.1548C277.037 86.1491 277.225 85.2628 277.6 84.4957C277.979 83.7287 278.507 83.13 279.185 82.6996C279.867 82.2692 280.664 82.054 281.575 82.054C282.129 82.054 282.666 82.1456 283.186 82.3288C283.706 82.5121 284.173 82.7997 284.586 83.1918C284.999 83.5838 285.325 84.093 285.564 84.7195C285.803 85.3416 285.922 86.098 285.922 86.9886V87.6662H278.117V86.2344H284.049C284.049 85.7315 283.947 85.2862 283.742 84.8984C283.538 84.5064 283.25 84.1974 282.879 83.9716C282.513 83.7457 282.083 83.6328 281.588 83.6328C281.051 83.6328 280.583 83.7649 280.182 84.0291C279.786 84.2891 279.479 84.63 279.262 85.0518C279.048 85.4695 278.942 85.9233 278.942 86.4134V87.532C278.942 88.1882 279.057 88.7464 279.287 89.2067C279.521 89.6669 279.847 90.0185 280.265 90.2614C280.683 90.5 281.171 90.6193 281.729 90.6193C282.091 90.6193 282.421 90.5682 282.72 90.4659C283.018 90.3594 283.276 90.2017 283.493 89.9929C283.71 89.7841 283.877 89.5263 283.992 89.2195L285.801 89.5455C285.656 90.0781 285.396 90.5447 285.021 90.9453C284.65 91.3416 284.183 91.6506 283.621 91.8722C283.063 92.0895 282.426 92.1982 281.71 92.1982ZM290.9 92.2173C290.278 92.2173 289.715 92.1023 289.212 91.8722C288.71 91.6378 288.311 91.299 288.017 90.8558C287.727 90.4126 287.582 89.8693 287.582 89.2259C287.582 88.6719 287.689 88.2159 287.902 87.858C288.115 87.5 288.403 87.2166 288.765 87.0078C289.127 86.799 289.532 86.6413 289.979 86.5348C290.427 86.4283 290.883 86.3473 291.347 86.2919C291.935 86.2237 292.413 86.1683 292.779 86.1257C293.146 86.0788 293.412 86.0043 293.578 85.902C293.744 85.7997 293.827 85.6335 293.827 85.4034V85.3587C293.827 84.8004 293.67 84.3679 293.354 84.0611C293.043 83.7543 292.579 83.6009 291.961 83.6009C291.317 83.6009 290.81 83.7436 290.44 84.0291C290.073 84.3104 289.82 84.6236 289.679 84.9688L287.883 84.5597C288.096 83.9631 288.407 83.4815 288.816 83.1151C289.229 82.7443 289.705 82.4759 290.241 82.3097C290.778 82.1392 291.343 82.054 291.935 82.054C292.327 82.054 292.743 82.1009 293.182 82.1946C293.625 82.2841 294.038 82.4503 294.422 82.6932C294.81 82.9361 295.127 83.2834 295.374 83.7351C295.621 84.1825 295.745 84.7642 295.745 85.4801V92H293.879V90.6577H293.802C293.678 90.9048 293.493 91.1477 293.246 91.3864C292.999 91.625 292.681 91.8232 292.293 91.9808C291.906 92.1385 291.441 92.2173 290.9 92.2173ZM291.315 90.6832C291.844 90.6832 292.295 90.5788 292.67 90.37C293.05 90.1612 293.337 89.8885 293.533 89.5518C293.734 89.2109 293.834 88.8466 293.834 88.4588V87.1932C293.766 87.2614 293.634 87.3253 293.438 87.3849C293.246 87.4403 293.026 87.4893 292.779 87.532C292.532 87.5703 292.291 87.6065 292.057 87.6406C291.822 87.6705 291.626 87.696 291.469 87.7173C291.098 87.7642 290.759 87.843 290.452 87.9538C290.15 88.0646 289.907 88.2244 289.724 88.4332C289.545 88.6378 289.455 88.9105 289.455 89.2514C289.455 89.7244 289.63 90.0824 289.979 90.3253C290.329 90.5639 290.774 90.6832 291.315 90.6832ZM302.426 92.1982C301.476 92.1982 300.658 91.983 299.972 91.5526C299.29 91.1179 298.766 90.5192 298.399 89.7564C298.033 88.9936 297.85 88.12 297.85 87.1357C297.85 86.1385 298.037 85.2585 298.412 84.4957C298.787 83.7287 299.316 83.13 299.997 82.6996C300.679 82.2692 301.482 82.054 302.407 82.054C303.153 82.054 303.818 82.1925 304.401 82.4695C304.985 82.7422 305.456 83.1257 305.814 83.62C306.176 84.1143 306.392 84.6918 306.46 85.3523H304.6C304.497 84.892 304.263 84.4957 303.896 84.1634C303.534 83.831 303.048 83.6648 302.439 83.6648C301.906 83.6648 301.44 83.8054 301.039 84.0866C300.643 84.3636 300.334 84.7599 300.112 85.2756C299.891 85.7869 299.78 86.392 299.78 87.0909C299.78 87.8068 299.889 88.4247 300.106 88.9446C300.323 89.4645 300.63 89.8672 301.026 90.1527C301.427 90.4382 301.898 90.581 302.439 90.581C302.801 90.581 303.129 90.5149 303.423 90.3828C303.722 90.2464 303.971 90.0526 304.171 89.8011C304.376 89.5497 304.519 89.2472 304.6 88.8935H306.46C306.392 89.5284 306.185 90.0952 305.84 90.5938C305.494 91.0923 305.032 91.4844 304.453 91.7699C303.877 92.0554 303.202 92.1982 302.426 92.1982ZM310.415 86.1705V92H308.504V78.9091H310.389V83.7798H310.511C310.741 83.2514 311.092 82.8317 311.565 82.5206C312.038 82.2095 312.656 82.054 313.419 82.054C314.092 82.054 314.68 82.1925 315.183 82.4695C315.69 82.7464 316.082 83.1598 316.359 83.7095C316.641 84.255 316.781 84.9368 316.781 85.755V92H314.87V85.9851C314.87 85.2649 314.685 84.7067 314.314 84.3104C313.943 83.9098 313.428 83.7095 312.767 83.7095C312.315 83.7095 311.911 83.8054 311.553 83.9972C311.199 84.1889 310.92 84.4702 310.715 84.8409C310.515 85.2074 310.415 85.6506 310.415 86.1705ZM319.332 92V82.1818H321.166V83.7798H321.288C321.492 83.2386 321.827 82.8168 322.291 82.5142C322.756 82.2074 323.312 82.054 323.96 82.054C324.616 82.054 325.165 82.2074 325.609 82.5142C326.056 82.821 326.386 83.2429 326.599 83.7798H326.702C326.936 83.2557 327.309 82.8381 327.82 82.527C328.332 82.2116 328.941 82.054 329.648 82.054C330.539 82.054 331.266 82.3331 331.828 82.8913C332.395 83.4496 332.678 84.2912 332.678 85.4162V92H330.767V85.5952C330.767 84.9304 330.586 84.4489 330.224 84.1506C329.862 83.8523 329.429 83.7031 328.926 83.7031C328.304 83.7031 327.82 83.8949 327.475 84.2784C327.13 84.6577 326.957 85.1456 326.957 85.7422V92H325.053V85.4737C325.053 84.9411 324.886 84.5128 324.554 84.1889C324.222 83.8651 323.789 83.7031 323.256 83.7031C322.894 83.7031 322.56 83.799 322.253 83.9908C321.95 84.1783 321.705 84.4403 321.518 84.777C321.335 85.1136 321.243 85.5036 321.243 85.9467V92H319.332ZM335.24 92V82.1818H337.151V92H335.24ZM336.205 80.6669C335.873 80.6669 335.587 80.5561 335.349 80.3345C335.114 80.1087 334.997 79.8402 334.997 79.5291C334.997 79.2138 335.114 78.9453 335.349 78.7237C335.587 78.4979 335.873 78.3849 336.205 78.3849C336.537 78.3849 336.821 78.4979 337.055 78.7237C337.294 78.9453 337.413 79.2138 337.413 79.5291C337.413 79.8402 337.294 80.1087 337.055 80.3345C336.821 80.5561 336.537 80.6669 336.205 80.6669ZM341.634 86.1705V92H339.722V82.1818H341.557V83.7798H341.678C341.904 83.2599 342.258 82.8423 342.739 82.527C343.225 82.2116 343.837 82.054 344.574 82.054C345.243 82.054 345.829 82.1946 346.332 82.4759C346.835 82.7528 347.224 83.1662 347.501 83.7159C347.778 84.2656 347.917 84.9453 347.917 85.755V92H346.006V85.9851C346.006 85.2734 345.82 84.7173 345.45 84.3168C345.079 83.9119 344.57 83.7095 343.922 83.7095C343.479 83.7095 343.085 83.8054 342.739 83.9972C342.398 84.1889 342.128 84.4702 341.928 84.8409C341.732 85.2074 341.634 85.6506 341.634 86.1705ZM355.063 82.1818V83.7159H349.7V82.1818H355.063ZM351.138 79.8295H353.05V89.1172C353.05 89.4879 353.105 89.767 353.216 89.9545C353.327 90.1378 353.469 90.2635 353.644 90.3317C353.823 90.3956 354.017 90.4276 354.226 90.4276C354.379 90.4276 354.513 90.4169 354.629 90.3956C354.744 90.3743 354.833 90.3572 354.897 90.3445L355.242 91.9233C355.131 91.9659 354.974 92.0085 354.769 92.0511C354.565 92.098 354.309 92.1236 354.002 92.1278C353.499 92.1364 353.031 92.0469 352.596 91.8594C352.161 91.6719 351.81 91.3821 351.541 90.9901C351.273 90.598 351.138 90.1058 351.138 89.5135V79.8295Z" fill="black"/>
<path fill-rule="evenodd" clip-rule="evenodd" d="M44.8 20.2L47.8 3.4L3.00006 3.4L5.64861e-05 20.2H14.4667L12.6 25.8H29.4L31.2666 20.2H44.8ZM29.4 25.8H12.6L5.6 47.5H14.3399L8.3999 70.5999L39.1999 39.7999H24.8839L29.4 25.8Z" fill="#1DA1F2"/>
<path d="M70.9441 55.402V7.55669H81.1915V55.402H70.9441ZM63.7998 26.3917V17.2268H88.9853V26.3917H63.7998Z" fill="black"/>
<path d="M113.426 56.1236C109.288 56.1236 105.68 55.2817 102.601 53.5979C99.5218 51.914 97.1163 49.6047 95.3843 46.67C93.6524 43.7353 92.7864 40.3676 92.7864 36.567C92.7864 33.6323 93.2675 30.9381 94.2297 28.4845C95.1919 26.0309 96.539 23.9141 98.2709 22.134C100.003 20.3058 102.048 18.9106 104.405 17.9484C106.81 16.9381 109.408 16.433 112.199 16.433C114.797 16.433 117.202 16.9141 119.415 17.8763C121.628 18.7904 123.529 20.1134 125.116 21.8453C126.752 23.5292 128.003 25.5257 128.869 27.835C129.735 30.1443 130.12 32.6701 130.023 35.4123L129.951 38.5876H99.2812L97.6214 32.3092H121.508L120.353 33.6082V32.0206C120.257 30.7216 119.824 29.5429 119.054 28.4845C118.333 27.4261 117.395 26.6082 116.24 26.0309C115.085 25.4536 113.786 25.1649 112.343 25.1649C110.226 25.1649 108.422 25.5738 106.931 26.3917C105.487 27.2096 104.381 28.4123 103.611 30C102.841 31.5876 102.456 33.512 102.456 35.7732C102.456 38.0824 102.938 40.079 103.9 41.7628C104.91 43.4467 106.305 44.7697 108.085 45.7319C109.914 46.646 112.054 47.103 114.508 47.103C116.192 47.103 117.731 46.8384 119.127 46.3092C120.522 45.78 122.013 44.8659 123.601 43.567L128.508 50.4226C127.113 51.6735 125.573 52.7319 123.889 53.5979C122.206 54.4157 120.474 55.0412 118.694 55.4742C116.914 55.9071 115.157 56.1236 113.426 56.1236Z" fill="black"/>
<path d="M151.885 56.1236C148.71 56.1236 145.847 55.2577 143.297 53.5257C140.747 51.7937 138.727 49.4364 137.235 46.4536C135.744 43.4707 134.998 40.0549 134.998 36.2061C134.998 32.3574 135.744 28.9656 137.235 26.0309C138.775 23.0481 140.844 20.7148 143.442 19.0309C146.04 17.2989 148.998 16.433 152.318 16.433C154.194 16.433 155.902 16.7216 157.442 17.2989C159.029 17.8282 160.4 18.5739 161.555 19.5361C162.758 20.4983 163.768 21.6048 164.586 22.8556C165.404 24.1065 165.981 25.4536 166.318 26.8969L164.153 26.5361V17.2268H174.328V55.402H164.009V46.2371L166.318 46.0206C165.933 47.3676 165.308 48.6426 164.442 49.8453C163.576 51.048 162.493 52.1305 161.194 53.0927C159.943 54.0068 158.524 54.7525 156.936 55.3298C155.349 55.859 153.665 56.1236 151.885 56.1236ZM154.699 47.2474C156.624 47.2474 158.308 46.7903 159.751 45.8762C161.194 44.9621 162.301 43.6872 163.07 42.0515C163.888 40.3676 164.297 38.4192 164.297 36.2061C164.297 34.0412 163.888 32.1409 163.07 30.5051C162.301 28.8694 161.194 27.5945 159.751 26.6804C158.308 25.7182 156.624 25.2371 154.699 25.2371C152.823 25.2371 151.163 25.7182 149.72 26.6804C148.325 27.5945 147.218 28.8694 146.4 30.5051C145.583 32.1409 145.174 34.0412 145.174 36.2061C145.174 38.4192 145.583 40.3676 146.4 42.0515C147.218 43.6872 148.325 44.9621 149.72 45.8762C151.163 46.7903 152.823 47.2474 154.699 47.2474Z" fill="black"/>
<path d="M201.2 56.1236C197.544 56.1236 194.272 55.2577 191.386 53.5257C188.499 51.7937 186.214 49.4364 184.53 46.4536C182.894 43.4707 182.076 40.079 182.076 36.2783C182.076 32.5257 182.894 29.158 184.53 26.1752C186.214 23.1443 188.499 20.7629 191.386 19.0309C194.272 17.2989 197.544 16.433 201.2 16.433C204.616 16.433 207.743 17.0584 210.581 18.3093C213.42 19.5601 215.633 21.2921 217.221 23.5051L211.592 30.2886C210.918 29.3745 210.076 28.5567 209.066 27.835C208.056 27.0653 206.949 26.4639 205.746 26.0309C204.592 25.5979 203.389 25.3814 202.138 25.3814C200.166 25.3814 198.41 25.8625 196.87 26.8247C195.379 27.7388 194.2 29.0137 193.334 30.6494C192.468 32.2852 192.035 34.1615 192.035 36.2783C192.035 38.347 192.468 40.1993 193.334 41.835C194.248 43.4226 195.475 44.7216 197.014 45.7319C198.554 46.6941 200.286 47.1752 202.21 47.1752C203.461 47.1752 204.64 47.0068 205.746 46.67C206.853 46.2852 207.887 45.7319 208.849 45.0103C209.86 44.2886 210.774 43.4226 211.592 42.4123L217.148 49.1958C215.513 51.2645 213.252 52.9484 210.365 54.2474C207.478 55.4982 204.423 56.1236 201.2 56.1236Z" fill="black"/>
<path d="M223.715 55.402V2H233.818V25.0206L231.797 25.8866C232.327 24.1546 233.265 22.591 234.612 21.1958C236.007 19.7526 237.667 18.5979 239.591 17.7319C241.516 16.866 243.536 16.433 245.653 16.433C248.54 16.433 250.945 17.0103 252.869 18.1649C254.842 19.3196 256.309 21.0756 257.272 23.433C258.282 25.7422 258.787 28.6048 258.787 32.0206V55.402H248.54V32.8144C248.54 31.0824 248.299 29.6391 247.818 28.4845C247.337 27.3299 246.591 26.4879 245.581 25.9587C244.619 25.3814 243.416 25.1409 241.973 25.2371C240.818 25.2371 239.735 25.4295 238.725 25.8144C237.763 26.1512 236.921 26.6563 236.199 27.3299C235.526 28.0034 234.973 28.7732 234.54 29.6391C234.155 30.5051 233.962 31.4433 233.962 32.4536V55.402H228.911C227.804 55.402 226.818 55.402 225.952 55.402C225.086 55.402 224.34 55.402 223.715 55.402Z" fill="black"/>
<path d="M268.75 71.2784V17.732H274.162L274.307 26.897L273.296 27.0413C273.729 25.2131 274.668 23.5533 276.111 22.0619C277.554 20.5224 279.31 19.2956 281.379 18.3815C283.448 17.4674 285.637 17.0104 287.946 17.0104C291.314 17.0104 294.32 17.8523 296.966 19.5362C299.661 21.22 301.802 23.5293 303.389 26.464C304.977 29.3987 305.771 32.7664 305.771 36.5671C305.771 40.3196 305.001 43.6633 303.461 46.598C301.922 49.5327 299.805 51.866 297.111 53.598C294.417 55.2818 291.386 56.1237 288.018 56.1237C285.661 56.1237 283.424 55.6427 281.307 54.6805C279.19 53.7183 277.386 52.4674 275.894 50.9279C274.403 49.3403 273.417 47.6324 272.936 45.8042H274.235V71.2784H268.75ZM287.152 50.9279C289.702 50.9279 291.963 50.3025 293.936 49.0516C295.908 47.8007 297.472 46.0928 298.626 43.9279C299.781 41.7629 300.358 39.3093 300.358 36.5671C300.358 33.7767 299.781 31.299 298.626 29.1341C297.472 26.9691 295.908 25.2612 293.936 24.0104C291.963 22.7595 289.702 22.1341 287.152 22.1341C284.602 22.1341 282.317 22.7595 280.296 24.0104C278.324 25.2131 276.76 26.897 275.606 29.0619C274.451 31.2269 273.874 33.7045 273.874 36.4949C273.874 39.2853 274.451 41.7629 275.606 43.9279C276.76 46.0928 278.324 47.8007 280.296 49.0516C282.317 50.3025 284.602 50.9279 287.152 50.9279Z" fill="#76787A"/>
<path d="M328.363 56.1237C325.092 56.1237 322.133 55.2818 319.487 53.598C316.841 51.866 314.748 49.5327 313.209 46.598C311.669 43.6152 310.899 40.2475 310.899 36.4949C310.899 32.6942 311.693 29.3265 313.281 26.3918C314.868 23.4571 316.985 21.1479 319.631 19.464C322.325 17.7802 325.332 16.9382 328.652 16.9382C330.624 16.9382 332.453 17.2269 334.136 17.8042C335.82 18.3815 337.312 19.1994 338.611 20.2578C339.958 21.2681 341.064 22.4709 341.93 23.8661C342.844 25.2131 343.47 26.6805 343.807 28.2681L342.219 27.4743L342.435 17.732H347.848V55.4021H342.363V46.165L343.807 45.2269C343.47 46.6702 342.82 48.0653 341.858 49.4124C340.896 50.7114 339.717 51.866 338.322 52.8763C336.975 53.8866 335.435 54.6805 333.703 55.2578C332.02 55.8351 330.239 56.1237 328.363 56.1237ZM329.59 50.9279C332.092 50.9279 334.329 50.3265 336.301 49.1238C338.274 47.8729 339.813 46.165 340.92 44.0001C342.075 41.787 342.652 39.2853 342.652 36.4949C342.652 33.7045 342.075 31.2269 340.92 29.0619C339.813 26.897 338.274 25.1891 336.301 23.9382C334.329 22.6874 332.092 22.0619 329.59 22.0619C327.04 22.0619 324.779 22.6874 322.807 23.9382C320.882 25.1891 319.343 26.897 318.188 29.0619C317.081 31.2269 316.528 33.7045 316.528 36.4949C316.528 39.2372 317.081 41.7148 318.188 43.9279C319.295 46.0928 320.834 47.8007 322.807 49.0516C324.779 50.3025 327.04 50.9279 329.59 50.9279Z" fill="#76787A"/>
<path d="M363.897 72L371.186 54.2475L371.691 59.3712L352.784 17.732H358.918L371.835 46.598C372.22 47.3678 372.605 48.2818 372.99 49.3403C373.375 50.3506 373.736 51.3609 374.072 52.3712L372.052 52.1547C372.388 51.3368 372.701 50.4949 372.99 49.6289C373.327 48.7629 373.639 47.921 373.928 47.1031L385.258 17.732H391.464L376.237 55.4021L369.742 72H363.897Z" fill="#76787A"/>
<g clip-path="url(#clip0_1_57)">
<path d="M406 0.000976562C400.486 0.000976562 396 4.48497 396 9.99997C396 15.5128 400.486 19.999 406 19.999C411.514 19.999 416 15.5128 416 9.99997C416 4.48497 411.514 0.000976562 406 0.000976562ZM406 17.7713C401.714 17.7713 398.228 14.2851 398.228 10C398.228 5.71305 401.714 2.22697 406 2.22697C410.286 2.22697 413.772 5.71311 413.772 10C413.772 14.2851 410.286 17.7713 406 17.7713Z" fill="#76787A"/>
<path d="M409.282 11.8113C408.643 12.9075 407.455 13.5875 406.182 13.5875C404.205 13.5875 402.594 11.9773 402.594 10C402.594 8.02106 404.205 6.4103 406.182 6.4103C407.455 6.4103 408.643 7.09281 409.282 8.18684L409.365 8.32982H411.775L411.63 7.94181C411.211 6.8308 410.475 5.88617 409.501 5.21193C408.524 4.53596 407.377 4.17734 406.182 4.17734C402.972 4.17734 400.361 6.79014 400.361 10C400.361 13.2101 402.972 15.8205 406.182 15.8205C407.377 15.8205 408.524 15.463 409.501 14.786C410.475 14.1116 411.211 13.1673 411.63 12.0563L411.775 11.6681H409.365L409.282 11.8113Z" fill="#76787A"/>
</g>
<defs>
<clipPath id="clip0_1_57">
<rect width="20" height="20" fill="white" transform="translate(396)"/>
</clipPath>
</defs>
</svg>
