<svg width="416" height="72" viewBox="0 0 416 72" fill="none" xmlns="http://www.w3.org/2000/svg">
<path fill-rule="evenodd" clip-rule="evenodd" d="M44.7999 20.1999L47.7999 3.3999L3 3.3999L0 20.1999H14.4666L12.5999 25.7999H29.3999L31.2666 20.1999H44.7999ZM29.3999 25.7999H12.5999L5.59994 47.4999H14.3398L8.39985 70.5998L39.1998 39.7999H24.8838L29.3999 25.7999Z" fill="#1DA1F2"/>
<path d="M70.9441 55.402V7.55669H81.1915V55.402H70.9441ZM63.7998 26.3917V17.2268H88.9853V26.3917H63.7998Z" fill="black"/>
<path d="M113.426 56.1236C109.288 56.1236 105.68 55.2817 102.601 53.5979C99.5218 51.914 97.1163 49.6047 95.3843 46.67C93.6524 43.7353 92.7864 40.3676 92.7864 36.567C92.7864 33.6323 93.2675 30.9381 94.2297 28.4845C95.1919 26.0309 96.539 23.9141 98.2709 22.134C100.003 20.3058 102.048 18.9106 104.405 17.9484C106.81 16.9381 109.408 16.433 112.199 16.433C114.797 16.433 117.202 16.9141 119.415 17.8763C121.628 18.7904 123.529 20.1134 125.116 21.8453C126.752 23.5292 128.003 25.5257 128.869 27.835C129.735 30.1443 130.12 32.6701 130.023 35.4123L129.951 38.5876H99.2812L97.6214 32.3092H121.508L120.353 33.6082V32.0206C120.257 30.7216 119.824 29.5429 119.054 28.4845C118.333 27.4261 117.395 26.6082 116.24 26.0309C115.085 25.4536 113.786 25.1649 112.343 25.1649C110.226 25.1649 108.422 25.5738 106.931 26.3917C105.487 27.2096 104.381 28.4123 103.611 30C102.841 31.5876 102.456 33.512 102.456 35.7732C102.456 38.0824 102.938 40.079 103.9 41.7628C104.91 43.4467 106.305 44.7697 108.085 45.7319C109.914 46.646 112.054 47.103 114.508 47.103C116.192 47.103 117.731 46.8384 119.127 46.3092C120.522 45.78 122.013 44.8659 123.601 43.567L128.508 50.4226C127.113 51.6735 125.573 52.7319 123.889 53.5979C122.206 54.4157 120.474 55.0412 118.694 55.4742C116.914 55.9071 115.158 56.1236 113.426 56.1236Z" fill="black"/>
<path d="M151.885 56.1236C148.71 56.1236 145.847 55.2577 143.297 53.5257C140.747 51.7938 138.727 49.4364 137.235 46.4536C135.744 43.4707 134.998 40.0549 134.998 36.2061C134.998 32.3574 135.744 28.9656 137.235 26.0309C138.775 23.0481 140.844 20.7148 143.442 19.0309C146.04 17.2989 148.998 16.433 152.318 16.433C154.194 16.433 155.902 16.7216 157.442 17.2989C159.029 17.8282 160.4 18.5739 161.555 19.5361C162.758 20.4983 163.768 21.6048 164.586 22.8556C165.404 24.1065 165.981 25.4536 166.318 26.8969L164.153 26.5361V17.2268H174.328V55.402H164.009V46.2371L166.318 46.0206C165.933 47.3676 165.308 48.6426 164.442 49.8453C163.576 51.048 162.493 52.1305 161.194 53.0927C159.943 54.0068 158.524 54.7525 156.936 55.3298C155.349 55.859 153.665 56.1236 151.885 56.1236ZM154.699 47.2474C156.624 47.2474 158.308 46.7903 159.751 45.8762C161.194 44.9621 162.301 43.6872 163.07 42.0515C163.888 40.3676 164.297 38.4192 164.297 36.2061C164.297 34.0412 163.888 32.1409 163.07 30.5051C162.301 28.8694 161.194 27.5945 159.751 26.6804C158.308 25.7182 156.624 25.2371 154.699 25.2371C152.823 25.2371 151.163 25.7182 149.72 26.6804C148.325 27.5945 147.218 28.8694 146.4 30.5051C145.583 32.1409 145.174 34.0412 145.174 36.2061C145.174 38.4192 145.583 40.3676 146.4 42.0515C147.218 43.6872 148.325 44.9621 149.72 45.8762C151.163 46.7903 152.823 47.2474 154.699 47.2474Z" fill="black"/>
<path d="M201.2 56.1236C197.544 56.1236 194.272 55.2577 191.386 53.5257C188.499 51.7938 186.214 49.4364 184.53 46.4536C182.894 43.4707 182.076 40.079 182.076 36.2783C182.076 32.5257 182.894 29.158 184.53 26.1752C186.214 23.1443 188.499 20.7629 191.386 19.0309C194.272 17.2989 197.544 16.433 201.2 16.433C204.616 16.433 207.743 17.0584 210.581 18.3093C213.42 19.5601 215.633 21.2921 217.221 23.5051L211.592 30.2886C210.918 29.3745 210.076 28.5567 209.066 27.835C208.056 27.0653 206.949 26.4639 205.746 26.0309C204.592 25.5979 203.389 25.3814 202.138 25.3814C200.166 25.3814 198.41 25.8625 196.87 26.8247C195.379 27.7388 194.2 29.0137 193.334 30.6494C192.468 32.2852 192.035 34.1615 192.035 36.2783C192.035 38.347 192.468 40.1993 193.334 41.835C194.248 43.4226 195.475 44.7216 197.014 45.7319C198.554 46.6941 200.286 47.1752 202.21 47.1752C203.461 47.1752 204.64 47.0068 205.746 46.67C206.853 46.2852 207.887 45.7319 208.849 45.0103C209.86 44.2886 210.774 43.4226 211.592 42.4123L217.148 49.1958C215.513 51.2645 213.252 52.9484 210.365 54.2474C207.478 55.4982 204.423 56.1236 201.2 56.1236Z" fill="black"/>
<path d="M223.715 55.402V2H233.818V25.0206L231.797 25.8866C232.327 24.1546 233.265 22.591 234.612 21.1958C236.007 19.7526 237.667 18.5979 239.591 17.7319C241.516 16.866 243.536 16.433 245.653 16.433C248.54 16.433 250.945 17.0103 252.869 18.1649C254.842 19.3196 256.309 21.0756 257.272 23.433C258.282 25.7422 258.787 28.6048 258.787 32.0206V55.402H248.54V32.8144C248.54 31.0824 248.299 29.6391 247.818 28.4845C247.337 27.3299 246.591 26.4879 245.581 25.9587C244.619 25.3814 243.416 25.1409 241.973 25.2371C240.818 25.2371 239.735 25.4295 238.725 25.8144C237.763 26.1512 236.921 26.6563 236.199 27.3299C235.526 28.0034 234.973 28.7732 234.54 29.6391C234.155 30.5051 233.962 31.4433 233.962 32.4536V55.402H228.911C227.804 55.402 226.818 55.402 225.952 55.402C225.086 55.402 224.34 55.402 223.715 55.402Z" fill="black"/>
<path d="M268.75 71.2784V17.732H274.162L274.307 26.897L273.296 27.0413C273.729 25.2131 274.668 23.5533 276.111 22.0619C277.554 20.5224 279.31 19.2956 281.379 18.3815C283.448 17.4674 285.637 17.0104 287.946 17.0104C291.314 17.0104 294.32 17.8523 296.966 19.5362C299.661 21.22 301.802 23.5293 303.389 26.464C304.977 29.3987 305.771 32.7664 305.771 36.5671C305.771 40.3196 305.001 43.6633 303.461 46.598C301.922 49.5327 299.805 51.866 297.111 53.598C294.417 55.2818 291.386 56.1237 288.018 56.1237C285.661 56.1237 283.424 55.6427 281.307 54.6805C279.19 53.7183 277.386 52.4674 275.894 50.9279C274.403 49.3403 273.417 47.6324 272.936 45.8042H274.235V71.2784H268.75ZM287.152 50.9279C289.702 50.9279 291.963 50.3025 293.936 49.0516C295.908 47.8007 297.472 46.0928 298.626 43.9279C299.781 41.7629 300.358 39.3093 300.358 36.5671C300.358 33.7767 299.781 31.299 298.626 29.1341C297.472 26.9691 295.908 25.2612 293.936 24.0104C291.963 22.7595 289.702 22.1341 287.152 22.1341C284.602 22.1341 282.317 22.7595 280.296 24.0104C278.324 25.2131 276.76 26.897 275.606 29.0619C274.451 31.2269 273.874 33.7045 273.874 36.4949C273.874 39.2853 274.451 41.7629 275.606 43.9279C276.76 46.0928 278.324 47.8007 280.296 49.0516C282.317 50.3025 284.602 50.9279 287.152 50.9279Z" fill="#76787A"/>
<path d="M328.363 56.1237C325.092 56.1237 322.133 55.2818 319.487 53.598C316.841 51.866 314.748 49.5327 313.209 46.598C311.669 43.6152 310.899 40.2475 310.899 36.4949C310.899 32.6942 311.693 29.3265 313.281 26.3918C314.868 23.4571 316.985 21.1479 319.631 19.464C322.325 17.7802 325.332 16.9382 328.652 16.9382C330.624 16.9382 332.453 17.2269 334.136 17.8042C335.82 18.3815 337.312 19.1994 338.611 20.2578C339.958 21.2681 341.064 22.4709 341.93 23.8661C342.844 25.2131 343.47 26.6805 343.807 28.2681L342.219 27.4743L342.435 17.732H347.848V55.4021H342.363V46.165L343.807 45.2269C343.47 46.6702 342.82 48.0653 341.858 49.4124C340.896 50.7114 339.717 51.866 338.322 52.8763C336.975 53.8866 335.435 54.6805 333.703 55.2578C332.02 55.8351 330.239 56.1237 328.363 56.1237ZM329.59 50.9279C332.092 50.9279 334.329 50.3265 336.301 49.1238C338.274 47.8729 339.813 46.165 340.92 44.0001C342.075 41.787 342.652 39.2853 342.652 36.4949C342.652 33.7045 342.075 31.2269 340.92 29.0619C339.813 26.897 338.274 25.1891 336.301 23.9382C334.329 22.6874 332.092 22.0619 329.59 22.0619C327.04 22.0619 324.779 22.6874 322.807 23.9382C320.882 25.1891 319.343 26.897 318.188 29.0619C317.081 31.2269 316.528 33.7045 316.528 36.4949C316.528 39.2372 317.081 41.7148 318.188 43.9279C319.295 46.0928 320.834 47.8007 322.807 49.0516C324.779 50.3025 327.04 50.9279 329.59 50.9279Z" fill="#76787A"/>
<path d="M363.897 72L371.186 54.2475L371.691 59.3712L352.784 17.732H358.918L371.835 46.598C372.22 47.3678 372.605 48.2818 372.99 49.3403C373.375 50.3506 373.736 51.3609 374.072 52.3712L372.052 52.1547C372.388 51.3368 372.701 50.4949 372.99 49.6289C373.327 48.7629 373.639 47.921 373.928 47.1031L385.258 17.732H391.464L376.237 55.4021L369.742 72H363.897Z" fill="#76787A"/>
<g clip-path="url(#clip0_1_97)">
<path d="M406 0.000976562C400.486 0.000976562 396 4.48497 396 9.99997C396 15.5128 400.486 19.999 406 19.999C411.514 19.999 416 15.5128 416 9.99997C416 4.48497 411.514 0.000976562 406 0.000976562ZM406 17.7713C401.714 17.7713 398.228 14.2851 398.228 10C398.228 5.71305 401.714 2.22697 406 2.22697C410.286 2.22697 413.772 5.71311 413.772 10C413.772 14.2851 410.286 17.7713 406 17.7713Z" fill="#76787A"/>
<path d="M409.282 11.8113C408.643 12.9075 407.455 13.5875 406.182 13.5875C404.205 13.5875 402.594 11.9773 402.594 10C402.594 8.02106 404.205 6.4103 406.182 6.4103C407.455 6.4103 408.643 7.09281 409.282 8.18684L409.365 8.32982H411.775L411.63 7.94181C411.211 6.8308 410.475 5.88617 409.501 5.21193C408.524 4.53596 407.377 4.17734 406.182 4.17734C402.972 4.17734 400.361 6.79014 400.361 10C400.361 13.2101 402.972 15.8205 406.182 15.8205C407.377 15.8205 408.524 15.463 409.501 14.786C410.475 14.1116 411.211 13.1673 411.63 12.0563L411.775 11.6681H409.365L409.282 11.8113Z" fill="#76787A"/>
</g>
<defs>
<clipPath id="clip0_1_97">
<rect width="20" height="20" fill="white" transform="translate(396)"/>
</clipPath>
</defs>
</svg>
