<svg width="24" height="24" viewBox="0 0 24 24" fill="none" xmlns="http://www.w3.org/2000/svg">
<path fill-rule="evenodd" clip-rule="evenodd" d="M12 24C18.6274 24 24 18.6274 24 12C24 5.37258 18.6274 0 12 0C5.37258 0 0 5.37258 0 12C0 18.6274 5.37258 24 12 24ZM16.1618 7.36464C16.355 7.14178 16.6192 7.01083 16.8977 7.00062L16.8976 7.00055C17.3399 6.98569 17.7438 7.27452 17.9161 7.72677C18.0875 8.17904 17.9913 8.7028 17.6736 9.04362C16.5495 10.2949 15.4727 11.5482 14.3907 12.8076C13.2964 14.0812 12.1969 15.3611 11.0377 16.6512C10.6522 17.0794 10.0393 17.1183 9.61284 16.7404L6.40192 13.8875C5.94035 13.4771 5.86508 12.7295 6.23468 12.2159C6.41197 11.9698 6.67034 11.812 6.95296 11.7767C7.23475 11.7423 7.51821 11.8333 7.73981 12.0302L10.1949 14.207C11.0691 13.2182 11.9222 12.2285 12.7784 11.2352C13.8835 9.9531 14.9939 8.66491 16.1618 7.36464Z" fill="#1DA1F2"/>
</svg>
