<svg width="64" height="64" viewBox="0 0 64 64" fill="none" xmlns="http://www.w3.org/2000/svg">
<path fill-rule="evenodd" clip-rule="evenodd" d="M7.30001 64C2.69856 57.4032 0 49.3804 0 40.7273C0 18.2342 18.2342 0 40.7273 0H42.1818C50.2086 0 57.693 2.32205 64 6.33106V60C64 62.2091 62.2091 64 60 64H7.30001Z" fill="#EAF9FF"/>
<path d="M46.6635 23H24.3349C23.6965 23.0292 23.0942 23.3302 22.6576 23.838C22.221 24.3459 21.9851 25.0201 22.0007 25.7154V27.0517C22.0046 27.6309 22.1861 28.1922 22.5165 28.6464C22.8468 29.1005 23.3071 29.4216 23.8242 29.5586V44.3077C23.7918 45.0649 24.0347 45.8055 24.5002 46.3692C24.7231 46.6397 24.9955 46.8564 25.3 47.0052C25.6045 47.1541 25.9343 47.2318 26.268 47.2334H33.9302L29.771 51.4953C29.6315 51.6566 29.5479 51.8656 29.5345 52.0867C29.521 52.3077 29.5786 52.5269 29.6973 52.7068C29.7562 52.7903 29.8306 52.8592 29.9156 52.9093C30.0007 52.9593 30.0944 52.9892 30.1908 52.9971C30.2872 53.005 30.384 52.9907 30.475 52.9551C30.5659 52.9195 30.649 52.8635 30.7187 52.7906L35.5 47.9443L40.2469 52.7906C40.3072 52.861 40.381 52.9162 40.463 52.9522C40.545 52.9883 40.6333 53.0042 40.7216 52.999C40.824 53.0025 40.9259 52.9819 41.0202 52.9385C41.1146 52.8952 41.1992 52.8301 41.2683 52.7478C41.3961 52.5651 41.459 52.3384 41.4455 52.1092C41.432 51.8801 41.3429 51.664 41.1947 51.5006L37.0321 47.2316H44.6943C45.0311 47.236 45.365 47.1627 45.674 47.0165C45.9829 46.8704 46.2599 46.6546 46.4867 46.3835C46.7212 46.1037 46.9027 45.7764 47.021 45.4202C47.1392 45.0641 47.1918 44.686 47.1758 44.3077V29.5586C47.6929 29.4216 48.1532 29.1005 48.4835 28.6464C48.8139 28.1922 48.9954 27.6309 48.9993 27.0517V25.7154C49.0148 25.0198 48.7787 24.3453 48.3418 23.8374C47.9049 23.3295 47.3022 23.0288 46.6635 23ZM44.6992 45.5621H26.2697C26.129 45.5621 25.99 45.5286 25.8625 45.464C25.735 45.3994 25.622 45.3051 25.5315 45.1879C25.4376 45.0671 25.3673 44.9268 25.3248 44.7755C25.2823 44.6242 25.2685 44.465 25.2843 44.3077V29.6851H45.7157V44.3077C45.7263 44.467 45.7077 44.627 45.6611 44.7784C45.6145 44.9298 45.5407 45.0696 45.444 45.1897C45.3506 45.3063 45.2354 45.3998 45.1061 45.464C44.9768 45.5282 44.8364 45.5617 44.6943 45.5621H44.6992ZM47.5359 27.0534C47.5323 27.299 47.4439 27.5342 47.2883 27.7121C47.1328 27.89 46.9214 27.9977 46.6962 28.0138H24.2923C24.0672 27.9977 23.8558 27.89 23.7002 27.7121C23.5446 27.5342 23.4563 27.299 23.4526 27.0534V25.6281C23.4563 25.3825 23.5446 25.1473 23.7002 24.9694C23.8558 24.7915 24.0672 24.6838 24.2923 24.6677H46.6995C46.9247 24.6838 47.136 24.7915 47.2916 24.9694C47.4472 25.1473 47.5356 25.3825 47.5392 25.6281L47.5359 27.0534Z" fill="#00B7FE"/>
<path d="M39.5268 37.0203C39.6085 37.0646 39.6773 37.1329 39.7253 37.2174C39.7734 37.3019 39.7988 37.3993 39.7988 37.4987C39.7988 37.5981 39.7734 37.6955 39.7253 37.78C39.6773 37.8645 39.6085 37.9328 39.5268 37.9771L34.1857 40.8867C34.1109 40.9273 34.0278 40.9465 33.9442 40.9424C33.8607 40.9383 33.7795 40.911 33.7084 40.8632C33.6372 40.8154 33.5785 40.7486 33.5377 40.6691C33.4969 40.5897 33.4754 40.5002 33.4753 40.4092V34.5882C33.4754 34.4972 33.4969 34.4077 33.5377 34.3283C33.5785 34.2488 33.6372 34.182 33.7084 34.1342C33.7795 34.0863 33.8607 34.0591 33.9442 34.055C34.0278 34.0509 34.1109 34.0701 34.1857 34.1107L39.5268 37.0203Z" fill="#00B7FE"/>
</svg>
