<svg width="64" height="64" viewBox="0 0 64 64" fill="none" xmlns="http://www.w3.org/2000/svg">
<path fill-rule="evenodd" clip-rule="evenodd" d="M7.30001 64C2.69856 57.4032 0 49.3804 0 40.7273C0 18.2342 18.2342 0 40.7273 0H42.1818C50.2086 0 57.693 2.32205 64 6.33106V60C64 62.2091 62.2091 64 60 64H7.30001Z" fill="#EBF7F2"/>
<circle cx="35" cy="38" r="14.25" fill="#36B37E" fill-opacity="0.1" stroke="#36B37E" stroke-width="1.5"/>
<path d="M39.5514 33.3627C39.7357 33.3636 39.9128 33.2977 40.0438 33.1795C40.1748 33.0613 40.249 32.9004 40.25 32.7323C40.251 32.5642 40.1787 32.4027 40.0491 32.2832C39.9195 32.1637 39.7431 32.096 39.5588 32.0951L32.5866 32.027L29.792 31.9996H29.7844C29.6001 31.9987 29.423 32.0647 29.292 32.1829C29.161 32.3011 29.0868 32.462 29.0858 32.6301C29.0848 32.7982 29.1571 32.9597 29.2867 33.0792C29.4164 33.1987 29.5927 33.2663 29.777 33.2672L32.5717 33.2946C33.3779 33.3035 34.156 33.5658 34.7747 34.0373C35.3934 34.5088 35.8148 35.1606 35.9677 35.8826L29.747 35.8218H29.74C29.5557 35.8209 29.3785 35.8868 29.2475 36.005C29.1165 36.1233 29.0424 36.2841 29.0414 36.4522C29.0404 36.6203 29.1127 36.7819 29.2424 36.9014C29.372 37.0209 29.5484 37.0885 29.7327 37.0894L35.9534 37.1502C35.7849 37.8632 35.3539 38.5021 34.7321 38.9608C34.1103 39.4194 33.3351 39.6701 32.5354 39.6712H32.4973L29.7023 39.6435H29.6948C29.5563 39.6435 29.421 39.6812 29.3062 39.7519C29.1915 39.8225 29.1024 39.9228 29.0506 40.0399C28.9987 40.157 28.9864 40.2855 29.0152 40.4091C29.044 40.5326 29.1126 40.6455 29.2122 40.7332L36.1264 46.8218C36.259 46.9385 36.437 47.0025 36.6213 46.9995C36.8056 46.9966 36.9811 46.927 37.1091 46.8061C37.2371 46.6851 37.3072 46.5228 37.304 46.3547C37.3008 46.1866 37.2245 46.0266 37.0919 45.9098L31.4345 40.9282L32.4822 40.9387C32.5001 40.9387 32.5176 40.9387 32.5354 40.9387C33.7011 40.937 34.8278 40.5558 35.7127 39.8638C36.5975 39.1717 37.1825 38.2143 37.3622 37.1638L39.499 37.185H39.5066C39.5978 37.1854 39.6883 37.1695 39.7728 37.138C39.8573 37.1066 39.9341 37.0603 39.999 37.0017C40.0639 36.9432 40.1155 36.8736 40.1509 36.7968C40.1862 36.7201 40.2047 36.6378 40.2052 36.5545C40.2057 36.4713 40.1882 36.3888 40.1537 36.3117C40.1192 36.2347 40.0684 36.1646 40.0043 36.1054C39.9401 36.0462 39.8637 35.9992 39.7796 35.9669C39.6955 35.9346 39.6052 35.9178 39.514 35.9174L37.377 35.8962C37.235 34.9229 36.7438 34.0199 35.9799 33.328L39.544 33.3628L39.5514 33.3627Z" fill="#36B37E" stroke="#36B37E" stroke-width="0.3"/>
</svg>
