<svg width="64" height="64" viewBox="0 0 64 64" fill="none" xmlns="http://www.w3.org/2000/svg">
<path fill-rule="evenodd" clip-rule="evenodd" d="M7.30001 64C2.69856 57.4032 0 49.3804 0 40.7273C0 18.2342 18.2342 0 40.7273 0H42.1818C50.2086 0 57.693 2.32205 64 6.33106V60C64 62.2091 62.2091 64 60 64H7.30001Z" fill="#EDE8FF"/>
<mask id="mask0" mask-type="alpha" maskUnits="userSpaceOnUse" x="24" y="27" width="24" height="15">
<path d="M36.9641 31.4879L26.6076 28.0357C26.5506 28.0167 26.4897 28.052 26.4779 28.111L25.3423 33.7894C25.3367 33.8173 25.3433 33.8462 25.3603 33.869L28.8232 38.4862C28.83 38.4952 28.8383 38.5031 28.8477 38.5094L32.299 40.8102C32.3211 40.8249 32.3481 40.8303 32.3741 40.8251L38.1668 39.6665L41.6668 38.4999L46.2475 37.3547C46.2966 37.3424 46.3288 37.2955 46.3225 37.2453L45.1833 28.1317C45.175 28.0657 45.1058 28.026 45.0447 28.0522L37.0351 31.4849C37.0126 31.4945 36.9873 31.4956 36.9641 31.4879Z" fill="#C4C4C4" stroke="black" stroke-width="1.5"/>
</mask>
<g mask="url(#mask0)">
<path d="M36.4317 37.4234C39.3989 37.4234 41.8042 34.9495 41.8042 31.898C41.8042 28.8464 39.3989 26.3726 36.4317 26.3726C34.7893 26.3726 33.319 27.1305 32.3336 28.3247C31.5386 29.2881 31.0591 30.5354 31.0591 31.898C31.0591 34.9495 33.4645 37.4234 36.4317 37.4234Z" stroke="#551FFF" stroke-width="1.5"/>
</g>
<path d="M36.4009 21.0098L23.2857 25.2167C23.1942 25.246 23.1927 25.375 23.2836 25.4064L36.3988 29.943C36.4199 29.9503 36.443 29.9503 36.4641 29.943L49.5793 25.4064C49.6702 25.375 49.6687 25.246 49.5772 25.2167L36.462 21.0098C36.4421 21.0034 36.4208 21.0034 36.4009 21.0098Z" stroke="#551FFF" stroke-width="1.5"/>
<path fill-rule="evenodd" clip-rule="evenodd" d="M31.8847 40.4244C34.2695 40.4444 38.3222 40.5257 40.9757 40.4244C44.2314 40.4244 46.4758 42.7995 46.8954 45.6487L47.1641 47.4709C47.1922 47.662 47.1738 47.8562 47.1101 48.0405C47.0464 48.2248 46.9389 48.395 46.7948 48.5398C46.6507 48.6845 46.4732 48.8004 46.2742 48.8798C46.0753 48.9592 45.8594 49.0002 45.6411 49.0001H27.2268C27.0081 49.0008 26.7917 48.9602 26.5922 48.8811C26.3927 48.8019 26.2147 48.6861 26.07 48.5413C25.9254 48.3965 25.8175 48.2261 25.7536 48.0415C25.6896 47.8569 25.6711 47.6624 25.6993 47.4709L25.9665 45.654C26.3846 42.7995 28.6305 40.4244 31.8847 40.4244Z" stroke="#551FFF" stroke-width="1.5"/>
</svg>
