<svg width="64" height="64" viewBox="0 0 64 64" fill="none" xmlns="http://www.w3.org/2000/svg">
<path fill-rule="evenodd" clip-rule="evenodd" d="M7.30001 64C2.69856 57.4032 0 49.3804 0 40.7273C0 18.2342 18.2342 0 40.7273 0H42.1818C50.2086 0 57.693 2.32205 64 6.33106V60C64 62.2091 62.2091 64 60 64H7.30001Z" fill="#FDF4E6"/>
<mask id="mask0" mask-type="alpha" maskUnits="userSpaceOnUse" x="26" y="23" width="25" height="20">
<path d="M26 28.7143L30.2857 31.5714V38.7143L33.1429 41.5714L36.7143 43H43.8571H50.2857V40.8571V38.7143L51 35.8571L50.2857 31.5714V25.1429L43.1429 23L34.5714 23.7143L28.8571 24.4286L26.7143 26.5714L26 28.7143Z" fill="#C4C4C4"/>
</mask>
<g mask="url(#mask0)">
<rect x="28.8931" y="26.6071" width="19.9286" height="14.2143" rx="1.25" stroke="#EA8804" stroke-width="1.5"/>
<mask id="path-4-inside-1" fill="white">
<rect x="38.1428" y="37.2858" width="8.57143" height="4.28571" rx="1"/>
</mask>
<rect x="38.1428" y="37.2858" width="8.57143" height="4.28571" rx="1" stroke="#EA8804" stroke-width="3" mask="url(#path-4-inside-1)"/>
</g>
<path d="M28.114 38.9731C30.4619 38.9731 32.3652 36.9964 32.3652 34.558C32.3652 32.1196 30.4619 30.1428 28.114 30.1428C25.7661 30.1428 23.8628 32.1196 23.8628 34.558C23.8628 36.9964 25.7661 38.9731 28.114 38.9731Z" stroke="#EA8804" stroke-width="1.5"/>
<path fill-rule="evenodd" clip-rule="evenodd" d="M25.1038 40.7886C26.6827 40.8037 29.366 40.8653 31.1228 40.7886C33.2784 40.7886 34.7645 42.5879 35.0423 44.7466L35.2201 46.1271C35.2388 46.2719 35.2266 46.419 35.1844 46.5586C35.1423 46.6983 35.0711 46.8272 34.9757 46.9369C34.8802 47.0465 34.7627 47.1344 34.631 47.1945C34.4993 47.2546 34.3564 47.2857 34.2118 47.2856H22.0198C21.875 47.2861 21.7317 47.2554 21.5996 47.1954C21.4676 47.1355 21.3497 47.0477 21.2539 46.938C21.1582 46.8283 21.0867 46.6992 21.0444 46.5594C21.0021 46.4195 20.9898 46.2721 21.0085 46.1271L21.1854 44.7506C21.4622 42.5879 22.9492 40.7886 25.1038 40.7886Z" stroke="#EA8804" stroke-width="1.5"/>
</svg>
