<svg width="24" height="24" viewBox="0 0 24 24" fill="none" xmlns="http://www.w3.org/2000/svg">
<path fill-rule="evenodd" clip-rule="evenodd" d="M7.9807 11.9388H18.1561C18.3823 11.9317 18.5969 11.8369 18.7544 11.6744C18.9119 11.5119 19 11.2945 19 11.0681C19 10.8418 18.9119 10.6244 18.7544 10.4619C18.5969 10.2994 18.3823 10.2046 18.1561 10.1975H7.9807L10.7557 7.47524C10.9065 7.30638 10.9868 7.08623 10.9803 6.86C10.9737 6.63376 10.8808 6.41861 10.7206 6.25874C10.5604 6.09886 10.3451 6.00639 10.1188 6.00032C9.89257 5.99425 9.67259 6.07503 9.50404 6.22609L5.3138 10.4155C5.22014 10.4949 5.14397 10.593 5.09009 10.7034C5.03621 10.8137 5.00579 10.9341 5.00075 11.0568C4.99571 11.1795 5.01616 11.302 5.0608 11.4164C5.10545 11.5309 5.17333 11.6348 5.26016 11.7217L9.50404 15.9656C10.3206 16.7822 11.517 15.5304 10.7013 14.7139L7.9807 11.9388Z" fill="#1F3965"/>
</svg>
