<svg width="24" height="24" viewBox="0 0 24 24" fill="none" xmlns="http://www.w3.org/2000/svg">
<path d="M18.1093 15.6367C18.0763 15.6035 18.0576 15.5588 18.057 15.5121V9.94311C18.0548 8.43212 17.4911 6.97588 16.4753 5.85728C15.4595 4.73869 14.0641 4.03761 12.5603 3.89024V2.55529C12.5538 2.40582 12.4898 2.26465 12.3817 2.1612C12.2737 2.05774 12.1298 2 11.9802 2C11.8306 2 11.6867 2.05774 11.5787 2.1612C11.4706 2.26465 11.4066 2.40582 11.4001 2.55529V3.89024C9.89507 4.03633 8.49824 4.73701 7.48127 5.85597C6.46429 6.97493 5.89989 8.43217 5.89785 9.94422V15.5132C5.89724 15.5599 5.87849 15.6046 5.84556 15.6378L4.39159 17.0917C4.26732 17.2159 4.16877 17.3633 4.10158 17.5255C4.03438 17.6878 3.99986 17.8617 4 18.0373V18.4823C4.0003 18.8378 4.14162 19.1785 4.39295 19.4299C4.64428 19.6812 4.98507 19.8225 5.34051 19.8228H9.40876C9.51036 20.4313 9.82446 20.9839 10.2952 21.3826C10.7659 21.7812 11.3628 22 11.9796 22C12.5965 22 13.1934 21.7812 13.6641 21.3826C14.1348 20.9839 14.4489 20.4313 14.5505 19.8228H18.6188C18.9742 19.8225 19.315 19.6812 19.5663 19.4299C19.8177 19.1785 19.959 18.8378 19.9593 18.4823V18.0373C19.9594 17.8617 19.9249 17.6878 19.8577 17.5255C19.7905 17.3633 19.692 17.2159 19.5677 17.0917L18.1093 15.6367ZM11.9741 20.8374C11.6667 20.8362 11.3677 20.7371 11.1205 20.5545C10.8732 20.3718 10.6906 20.1152 10.5991 19.8217H13.3502C13.2587 20.1152 13.0761 20.3718 12.8288 20.5545C12.5816 20.7371 12.2826 20.8362 11.9752 20.8374H11.9741ZM18.7934 18.4812C18.7931 18.5289 18.7741 18.5746 18.7403 18.6083C18.7066 18.6421 18.6609 18.6611 18.6132 18.6614H5.33495C5.28724 18.6611 5.24157 18.6421 5.20784 18.6083C5.1741 18.5746 5.15502 18.5289 5.15473 18.4812V18.0362C5.15441 18.013 5.15889 17.9899 5.16789 17.9685C5.17688 17.947 5.1902 17.9277 5.20702 17.9116L6.66433 16.4588C6.78859 16.3347 6.88715 16.1872 6.95434 16.025C7.02154 15.8627 7.05606 15.6888 7.05592 15.5132V9.94311C7.05592 8.63785 7.57443 7.38604 8.49739 6.46308C9.42035 5.54012 10.6722 5.02161 11.9774 5.02161C13.2827 5.02161 14.5345 5.54012 15.4574 6.46308C16.3804 7.38604 16.8989 8.63785 16.8989 9.94311V15.5121C16.8988 15.6877 16.9333 15.8616 17.0005 16.0239C17.0677 16.1861 17.1662 16.3335 17.2905 16.4576L18.7445 17.9116C18.7613 17.9277 18.7746 17.947 18.7836 17.9685C18.7926 17.9899 18.7971 18.013 18.7968 18.0362L18.7934 18.4812Z" fill="#1F3965" stroke="#1F3965" stroke-width="0.2"/>
</svg>
