<svg width="80" height="80" viewBox="0 0 80 80" fill="none" xmlns="http://www.w3.org/2000/svg">
<rect width="80" height="80" rx="40" fill="#D2B9B9"/>
<mask id="mask0" style="mask-type:alpha" maskUnits="userSpaceOnUse" x="0" y="0" width="80" height="80">
<rect width="80" height="80" rx="40" fill="#C4C4C4"/>
</mask>
<g mask="url(#mask0)">
<path d="M66.6921 63.0769H62.6938V79.4079H66.6921V63.0769Z" fill="#B6712C"/>
<path d="M64.1666 63.0769H62.6938V78.6981H64.1666V63.0769Z" fill="#A36028"/>
<path d="M75.3258 51.1594H4.17822V80.055H75.3258V51.1594Z" fill="#8E5C49"/>
<path d="M68.5946 30.6708H8.18628V58.0356H68.5946V30.6708Z" fill="#8E5C49"/>
<path d="M57.3047 31.9648H54.7068V55.5101H57.3047V31.9648Z" fill="#6B4434"/>
<path d="M23.0974 31.9648H20.4995V55.5101H23.0974V31.9648Z" fill="#6B4434"/>
<path d="M54.7068 29.2317H23.2278V59.658H54.7068V29.2317Z" fill="#8E5C49"/>
<path d="M68.5946 29H8.18628V31.9021H68.5946V29Z" fill="#FFE1C7"/>
<path d="M61.8535 51.2271H59.2556V80.1033H61.8535V51.2271Z" fill="#6B4434"/>
<path d="M19.2778 51.2271H16.6799V80.1033H19.2778V51.2271Z" fill="#6B4434"/>
<path d="M59.2604 51.2271H19.0461V80.1033H59.2604V51.2271Z" fill="#8E5C49"/>
<path d="M17.4045 35.6686H11.4602V42.6027H17.4045V35.6686Z" fill="#39828F"/>
<path d="M14.6374 35.6686H14.1497V42.6027H14.6374V35.6686Z" fill="#B57641"/>
<path d="M17.4045 38.875H11.4602V39.44H17.4045V38.875Z" fill="#B57641"/>
<path d="M17.4045 35.0457H11.4602V35.6686H17.4045V35.0457Z" fill="#B57641"/>
<path d="M17.4045 41.9797H11.4602V42.6027H17.4045V41.9797Z" fill="#B57641"/>
<path d="M11.46 35.0457H10.9192V42.6027H11.46V35.0457Z" fill="#B57641"/>
<path d="M17.9789 35.0457H17.4043V42.6027H17.9789V35.0457Z" fill="#B57641"/>
<path d="M14.1398 55.1094H8.19556V62.0435H14.1398V55.1094Z" fill="#39828F"/>
<path d="M11.3778 55.1094H10.8901V62.0435H11.3778V55.1094Z" fill="#B57641"/>
<path d="M14.1398 58.3157H8.19556V58.8806H14.1398V58.3157Z" fill="#B57641"/>
<path d="M14.1398 54.4863H8.19556V55.1092H14.1398V54.4863Z" fill="#B57641"/>
<path d="M14.1398 61.4207H8.19556V62.0436H14.1398V61.4207Z" fill="#B57641"/>
<path d="M8.2005 54.4863H7.65967V62.0434H8.2005V54.4863Z" fill="#B57641"/>
<path d="M14.7194 54.4863H14.1448V62.0434H14.7194V54.4863Z" fill="#B57641"/>
<path d="M14.1398 66.1383H8.19556V73.0725H14.1398V66.1383Z" fill="#39828F"/>
<path d="M11.3778 66.1383H10.8901V73.0725H11.3778V66.1383Z" fill="#B57641"/>
<path d="M14.1398 69.3398H8.19556V69.9048H14.1398V69.3398Z" fill="#B57641"/>
<path d="M14.1398 65.5105H8.19556V66.1334H14.1398V65.5105Z" fill="#B57641"/>
<path d="M14.1398 72.4448H8.19556V73.0677H14.1398V72.4448Z" fill="#B57641"/>
<path d="M8.2005 65.5105H7.65967V73.0676H8.2005V65.5105Z" fill="#B57641"/>
<path d="M14.7194 65.5105H14.1448V73.0676H14.7194V65.5105Z" fill="#B57641"/>
<path d="M70.4582 55.1094H64.5139V62.0435H70.4582V55.1094Z" fill="#39828F"/>
<path d="M67.6962 55.1094H67.2085V62.0435H67.6962V55.1094Z" fill="#B57641"/>
<path d="M70.4582 58.3157H64.5139V58.8806H70.4582V58.3157Z" fill="#B57641"/>
<path d="M70.4582 54.4863H64.5139V55.1092H70.4582V54.4863Z" fill="#B57641"/>
<path d="M70.4582 61.4207H64.5139V62.0436H70.4582V61.4207Z" fill="#B57641"/>
<path d="M64.514 54.4863H63.9731V62.0434H64.514V54.4863Z" fill="#B57641"/>
<path d="M71.0331 54.4863H70.4585V62.0434H71.0331V54.4863Z" fill="#B57641"/>
<path d="M70.4582 66.1383H64.5139V73.0725H70.4582V66.1383Z" fill="#39828F"/>
<path d="M67.6962 66.1383H67.2085V73.0725H67.6962V66.1383Z" fill="#B57641"/>
<path d="M70.4582 69.3398H64.5139V69.9048H70.4582V69.3398Z" fill="#B57641"/>
<path d="M70.4582 65.5105H64.5139V66.1334H70.4582V65.5105Z" fill="#B57641"/>
<path d="M70.4582 72.4448H64.5139V73.0677H70.4582V72.4448Z" fill="#B57641"/>
<path d="M64.514 65.5105H63.9731V73.0676H64.514V65.5105Z" fill="#B57641"/>
<path d="M71.0331 65.5105H70.4585V73.0676H71.0331V65.5105Z" fill="#B57641"/>
<path d="M65.7406 35.6686H59.7964V42.6027H65.7406V35.6686Z" fill="#39828F"/>
<path d="M62.9784 35.6686H62.4907V42.6027H62.9784V35.6686Z" fill="#B57641"/>
<path d="M65.7406 38.875H59.7964V39.44H65.7406V38.875Z" fill="#B57641"/>
<path d="M65.7406 35.0457H59.7964V35.6686H65.7406V35.0457Z" fill="#B57641"/>
<path d="M65.7406 41.9797H59.7964V42.6027H65.7406V41.9797Z" fill="#B57641"/>
<path d="M59.7964 35.0457H59.2556V42.6027H59.7964V35.0457Z" fill="#B57641"/>
<path d="M66.3151 35.0457H65.7405V42.6027H66.3151V35.0457Z" fill="#B57641"/>
<path d="M28.129 51.2271H24.7344V80.2433H28.129V51.2271Z" fill="#FFE1C7"/>
<path d="M31.0455 77.8096H22.1895V80.2385H31.0455V77.8096Z" fill="#FFE1C7"/>
<path d="M52.5145 51.2271H49.1199V80.2433H52.5145V51.2271Z" fill="#FFE1C7"/>
<path d="M44.378 62.4346H32.731V79.7748H44.378V62.4346Z" fill="#6B4434"/>
<path d="M32.0404 35.8618H26.0962V42.796H32.0404V35.8618Z" fill="#39828F"/>
<path d="M29.2782 35.8618H28.7905V42.796H29.2782V35.8618Z" fill="#B57641"/>
<path d="M32.0404 39.0632H26.0962V39.6282H32.0404V39.0632Z" fill="#B57641"/>
<path d="M32.0404 35.234H26.0962V35.8569H32.0404V35.234Z" fill="#B57641"/>
<path d="M32.0404 42.1682H26.0962V42.7911H32.0404V42.1682Z" fill="#B57641"/>
<path d="M26.096 35.234H25.5552V42.7911H26.096V35.234Z" fill="#B57641"/>
<path d="M32.6149 35.234H32.0403V42.7911H32.6149V35.234Z" fill="#B57641"/>
<path d="M42.0119 35.8618H36.0676V42.796H42.0119V35.8618Z" fill="#39828F"/>
<path d="M39.2497 35.8618H38.762V42.796H39.2497V35.8618Z" fill="#B57641"/>
<path d="M42.0119 39.0632H36.0676V39.6282H42.0119V39.0632Z" fill="#B57641"/>
<path d="M42.0119 35.234H36.0676V35.8569H42.0119V35.234Z" fill="#B57641"/>
<path d="M42.0119 42.1682H36.0676V42.7911H42.0119V42.1682Z" fill="#B57641"/>
<path d="M36.0677 35.234H35.5269V42.7911H36.0677V35.234Z" fill="#B57641"/>
<path d="M42.5863 35.234H42.0117V42.7911H42.5863V35.234Z" fill="#B57641"/>
<path d="M51.9833 35.8618H46.0391V42.796H51.9833V35.8618Z" fill="#39828F"/>
<path d="M49.2211 35.8618H48.7334V42.796H49.2211V35.8618Z" fill="#B57641"/>
<path d="M51.9833 39.0632H46.0391V39.6282H51.9833V39.0632Z" fill="#B57641"/>
<path d="M51.9833 35.234H46.0391V35.8569H51.9833V35.234Z" fill="#B57641"/>
<path d="M51.9833 42.1682H46.0391V42.7911H51.9833V42.1682Z" fill="#B57641"/>
<path d="M46.0438 35.234H45.5029V42.7911H46.0438V35.234Z" fill="#B57641"/>
<path d="M52.5627 35.234H51.988V42.7911H52.5627V35.234Z" fill="#B57641"/>
<path d="M16.6801 51.1594H3.0918V52.2266H16.6801V51.1594Z" fill="#603E30"/>
<path d="M75.3256 51.2271H61.8533V52.2314H75.3256V51.2271Z" fill="#603E30"/>
<path d="M20.4997 31.9021H8.18628V32.7133H20.4997V31.9021Z" fill="#603E30"/>
<path d="M68.5896 31.9648H57.3047V32.7181H68.5896V31.9648Z" fill="#603E30"/>
<path d="M59.2555 31.9648H20.4995V32.7181H59.2555V31.9648Z" fill="#603E30"/>
<path d="M52.5144 51.1594H50.8147V77.7661H52.5144V51.1594Z" fill="#DBC1AD"/>
<path d="M75.3259 79.5142H3.0918V80.393H75.3259V79.5142Z" fill="#6B4434"/>
<path d="M68.4083 29H8V30.6659H68.4083V29Z" fill="#DBC1AD"/>
<path d="M75.3259 50.571H3.0918V51.899H75.3259V50.571Z" fill="#DBC1AD"/>
<path d="M42.7409 64.0522H34.2229V79.403H42.7409V64.0522Z" fill="#DBC1AD"/>
<path d="M35.5317 69.6055H35.1792V71.7639H35.5317V69.6055Z" fill="#6B4434"/>
<path d="M55.4263 77.8096H46.5703V80.2385H55.4263V77.8096Z" fill="#FFE1C7"/>
<path d="M31.0455 77.8096H22.1895V80.2385H31.0455V77.8096Z" fill="#FFE1C7"/>
<path d="M51 51H26V58H51V51Z" fill="#E5C8B3"/>
<path d="M60 24H17V29H60V24Z" fill="black" fill-opacity="0.1"/>
<path d="M29.7764 27.4081C29.7977 27.4081 29.8164 27.4167 29.8324 27.4341L29.9864 27.6001C29.869 27.7361 29.7264 27.8421 29.5584 27.9181C29.3917 27.9941 29.1897 28.0321 28.9524 28.0321C28.747 28.0321 28.5604 27.9967 28.3924 27.9261C28.2244 27.8541 28.081 27.7541 27.9624 27.6261C27.8437 27.4967 27.7517 27.3421 27.6864 27.1621C27.621 26.9821 27.5884 26.7841 27.5884 26.5681C27.5884 26.3521 27.6224 26.1541 27.6904 25.9741C27.7584 25.7941 27.8537 25.6394 27.9764 25.5101C28.1004 25.3807 28.2484 25.2807 28.4204 25.2101C28.5924 25.1381 28.7824 25.1021 28.9904 25.1021C29.1944 25.1021 29.3744 25.1347 29.5304 25.2001C29.6864 25.2654 29.8237 25.3541 29.9424 25.4661L29.8144 25.6441C29.8064 25.6574 29.7957 25.6687 29.7824 25.6781C29.7704 25.6861 29.7537 25.6901 29.7324 25.6901C29.7084 25.6901 29.679 25.6774 29.6444 25.6521C29.6097 25.6254 29.5644 25.5961 29.5084 25.5641C29.4524 25.5321 29.3824 25.5034 29.2984 25.4781C29.2144 25.4514 29.111 25.4381 28.9884 25.4381C28.8404 25.4381 28.705 25.4641 28.5824 25.5161C28.4597 25.5667 28.3537 25.6407 28.2644 25.7381C28.1764 25.8354 28.1077 25.9541 28.0584 26.0941C28.009 26.2341 27.9844 26.3921 27.9844 26.5681C27.9844 26.7467 28.0097 26.9061 28.0604 27.0461C28.1124 27.1861 28.1824 27.3047 28.2704 27.4021C28.3597 27.4981 28.4644 27.5714 28.5844 27.6221C28.7057 27.6727 28.8364 27.6981 28.9764 27.6981C29.0617 27.6981 29.1384 27.6934 29.2064 27.6841C29.2757 27.6734 29.339 27.6574 29.3964 27.6361C29.455 27.6147 29.509 27.5881 29.5584 27.5561C29.609 27.5227 29.659 27.4834 29.7084 27.4381C29.731 27.4181 29.7537 27.4081 29.7764 27.4081Z" fill="#243962"/>
<path d="M33.0296 26.5681C33.0296 26.7827 32.9956 26.9801 32.9276 27.1601C32.8596 27.3387 32.7636 27.4927 32.6396 27.6221C32.5156 27.7514 32.3662 27.8521 32.1916 27.9241C32.0182 27.9947 31.8262 28.0301 31.6156 28.0301C31.4049 28.0301 31.2129 27.9947 31.0396 27.9241C30.8662 27.8521 30.7176 27.7514 30.5936 27.6221C30.4696 27.4927 30.3736 27.3387 30.3056 27.1601C30.2376 26.9801 30.2036 26.7827 30.2036 26.5681C30.2036 26.3534 30.2376 26.1567 30.3056 25.9781C30.3736 25.7981 30.4696 25.6434 30.5936 25.5141C30.7176 25.3834 30.8662 25.2821 31.0396 25.2101C31.2129 25.1381 31.4049 25.1021 31.6156 25.1021C31.8262 25.1021 32.0182 25.1381 32.1916 25.2101C32.3662 25.2821 32.5156 25.3834 32.6396 25.5141C32.7636 25.6434 32.8596 25.7981 32.9276 25.9781C32.9956 26.1567 33.0296 26.3534 33.0296 26.5681ZM32.6316 26.5681C32.6316 26.3921 32.6076 26.2341 32.5596 26.0941C32.5116 25.9541 32.4436 25.8361 32.3556 25.7401C32.2676 25.6427 32.1609 25.5681 32.0356 25.5161C31.9102 25.4641 31.7702 25.4381 31.6156 25.4381C31.4622 25.4381 31.3229 25.4641 31.1976 25.5161C31.0722 25.5681 30.9649 25.6427 30.8756 25.7401C30.7876 25.8361 30.7196 25.9541 30.6716 26.0941C30.6236 26.2341 30.5996 26.3921 30.5996 26.5681C30.5996 26.7441 30.6236 26.9021 30.6716 27.0421C30.7196 27.1807 30.7876 27.2987 30.8756 27.3961C30.9649 27.4921 31.0722 27.5661 31.1976 27.6181C31.3229 27.6687 31.4622 27.6941 31.6156 27.6941C31.7702 27.6941 31.9102 27.6687 32.0356 27.6181C32.1609 27.5661 32.2676 27.4921 32.3556 27.3961C32.4436 27.2987 32.5116 27.1807 32.5596 27.0421C32.6076 26.9021 32.6316 26.7441 32.6316 26.5681Z" fill="#243962"/>
<path d="M35.0325 26.9361L34.5825 25.7701C34.5691 25.7354 34.5551 25.6954 34.5405 25.6501C34.5258 25.6034 34.5118 25.5541 34.4985 25.5021C34.4705 25.6101 34.4418 25.7001 34.4125 25.7721L33.9625 26.9361H35.0325ZM35.8405 28.0001H35.5405C35.5058 28.0001 35.4778 27.9914 35.4565 27.9741C35.4351 27.9567 35.4191 27.9347 35.4085 27.9081L35.1405 27.2161H33.8545L33.5865 27.9081C33.5785 27.9321 33.5631 27.9534 33.5405 27.9721C33.5178 27.9907 33.4898 28.0001 33.4565 28.0001H33.1565L34.3025 25.1341H34.6945L35.8405 28.0001Z" fill="#243962"/>
<path d="M38.1553 27.4081C38.1766 27.4081 38.1953 27.4167 38.2113 27.4341L38.3653 27.6001C38.248 27.7361 38.1053 27.8421 37.9373 27.9181C37.7706 27.9941 37.5686 28.0321 37.3313 28.0321C37.126 28.0321 36.9393 27.9967 36.7713 27.9261C36.6033 27.8541 36.46 27.7541 36.3413 27.6261C36.2226 27.4967 36.1306 27.3421 36.0653 27.1621C36 26.9821 35.9673 26.7841 35.9673 26.5681C35.9673 26.3521 36.0013 26.1541 36.0693 25.9741C36.1373 25.7941 36.2326 25.6394 36.3553 25.5101C36.4793 25.3807 36.6273 25.2807 36.7993 25.2101C36.9713 25.1381 37.1613 25.1021 37.3693 25.1021C37.5733 25.1021 37.7533 25.1347 37.9093 25.2001C38.0653 25.2654 38.2026 25.3541 38.3213 25.4661L38.1933 25.6441C38.1853 25.6574 38.1746 25.6687 38.1613 25.6781C38.1493 25.6861 38.1326 25.6901 38.1113 25.6901C38.0873 25.6901 38.058 25.6774 38.0233 25.6521C37.9886 25.6254 37.9433 25.5961 37.8873 25.5641C37.8313 25.5321 37.7613 25.5034 37.6773 25.4781C37.5933 25.4514 37.49 25.4381 37.3673 25.4381C37.2193 25.4381 37.084 25.4641 36.9613 25.5161C36.8386 25.5667 36.7326 25.6407 36.6433 25.7381C36.5553 25.8354 36.4866 25.9541 36.4373 26.0941C36.388 26.2341 36.3633 26.3921 36.3633 26.5681C36.3633 26.7467 36.3886 26.9061 36.4393 27.0461C36.4913 27.1861 36.5613 27.3047 36.6493 27.4021C36.7386 27.4981 36.8433 27.5714 36.9633 27.6221C37.0846 27.6727 37.2153 27.6981 37.3553 27.6981C37.4406 27.6981 37.5173 27.6934 37.5853 27.6841C37.6546 27.6734 37.718 27.6574 37.7753 27.6361C37.834 27.6147 37.888 27.5881 37.9373 27.5561C37.988 27.5227 38.038 27.4834 38.0873 27.4381C38.11 27.4181 38.1326 27.4081 38.1553 27.4081Z" fill="#243962"/>
<path d="M41.1372 25.1341V28.0001H40.7492V26.6961H39.2032V28.0001H38.8152V25.1341H39.2032V26.4121H40.7492V25.1341H41.1372Z" fill="#243962"/>
<path d="M42.2578 28.0001H41.8698V25.1341H42.2578V28.0001Z" fill="#243962"/>
<path d="M45.3129 25.1341V28.0001H45.1189C45.0883 28.0001 45.0623 27.9947 45.0409 27.9841C45.0209 27.9734 45.0009 27.9554 44.9809 27.9301L43.3229 25.7701C43.3256 25.8034 43.3276 25.8361 43.3289 25.8681C43.3303 25.9001 43.3309 25.9301 43.3309 25.9581V28.0001H42.9909V25.1341H43.1909C43.2083 25.1341 43.2229 25.1354 43.2349 25.1381C43.2469 25.1394 43.2576 25.1427 43.2669 25.1481C43.2763 25.1521 43.2856 25.1587 43.2949 25.1681C43.3043 25.1761 43.3143 25.1867 43.3249 25.2001L44.9829 27.3581C44.9803 27.3234 44.9776 27.2901 44.9749 27.2581C44.9736 27.2247 44.9729 27.1934 44.9729 27.1641V25.1341H45.3129Z" fill="#243962"/>
<path d="M48.3736 26.6221V27.7221C48.2296 27.8261 48.0756 27.9041 47.9116 27.9561C47.749 28.0067 47.5703 28.0321 47.3756 28.0321C47.145 28.0321 46.937 27.9967 46.7516 27.9261C46.5663 27.8541 46.4076 27.7541 46.2756 27.6261C46.145 27.4967 46.0443 27.3421 45.9736 27.1621C45.903 26.9821 45.8676 26.7841 45.8676 26.5681C45.8676 26.3494 45.9016 26.1501 45.9696 25.9701C46.039 25.7901 46.137 25.6361 46.2636 25.5081C46.3903 25.3787 46.5443 25.2787 46.7256 25.2081C46.907 25.1374 47.1096 25.1021 47.3336 25.1021C47.447 25.1021 47.5523 25.1107 47.6496 25.1281C47.747 25.1441 47.837 25.1681 47.9196 25.2001C48.0023 25.2307 48.079 25.2687 48.1496 25.3141C48.2203 25.3581 48.2863 25.4081 48.3476 25.4641L48.2376 25.6401C48.2203 25.6667 48.1976 25.6841 48.1696 25.6921C48.143 25.6987 48.113 25.6921 48.0796 25.6721C48.0476 25.6534 48.011 25.6307 47.9696 25.6041C47.9283 25.5774 47.8776 25.5521 47.8176 25.5281C47.759 25.5027 47.689 25.4814 47.6076 25.4641C47.5276 25.4467 47.4323 25.4381 47.3216 25.4381C47.1603 25.4381 47.0143 25.4647 46.8836 25.5181C46.753 25.5701 46.6416 25.6454 46.5496 25.7441C46.4576 25.8414 46.387 25.9601 46.3376 26.1001C46.2883 26.2387 46.2636 26.3947 46.2636 26.5681C46.2636 26.7481 46.289 26.9094 46.3396 27.0521C46.3916 27.1934 46.465 27.3141 46.5596 27.4141C46.6556 27.5127 46.7716 27.5881 46.9076 27.6401C47.0436 27.6921 47.1963 27.7181 47.3656 27.7181C47.499 27.7181 47.617 27.7034 47.7196 27.6741C47.8236 27.6434 47.925 27.6014 48.0236 27.5481V26.9181H47.5776C47.5523 26.9181 47.5316 26.9107 47.5156 26.8961C47.501 26.8814 47.4936 26.8634 47.4936 26.8421V26.6221H48.3736Z" fill="#243962"/>
</g>
</svg>
