<svg width="80" height="80" viewBox="0 0 80 80" fill="none" xmlns="http://www.w3.org/2000/svg">
<rect width="80" height="80" rx="40" fill="#F9DDBF"/>
<mask id="mask0" style="mask-type:alpha" maskUnits="userSpaceOnUse" x="0" y="0" width="80" height="80">
<rect width="80" height="80" rx="40" fill="#C4C4C4"/>
</mask>
<g mask="url(#mask0)">
<rect x="-9" y="55" width="100" height="25" rx="12.5" fill="#4EC231"/>
<path d="M38.179 48H2.17896V71H38.179V48Z" fill="#C4D4B5"/>
<path d="M29.6207 50.3038H25.8625V53.932H29.6207V50.3038Z" fill="#39828F"/>
<path d="M28.8322 50.308L25.8625 51.8515V53.4538L29.6207 51.6586V50.308H28.8322Z" fill="#619BA5"/>
<path d="M25.8625 53.6551L29.6207 51.8809V52.2038L25.8625 53.9319V53.6551Z" fill="#619BA5"/>
<path d="M27.8716 50.3038H27.5654V53.932H27.8716V50.3038Z" fill="#DFC2C2"/>
<path d="M29.6207 51.9816H25.8625V52.2752H29.6207V51.9816Z" fill="#DFC2C2"/>
<path d="M29.6207 49.9808H25.8625V50.308H29.6207V49.9808Z" fill="white"/>
<path d="M25.8627 49.9808H25.5229V53.9361H25.8627V49.9808Z" fill="white"/>
<path d="M29.9855 49.9808H29.6206V53.9361H29.9855V49.9808Z" fill="white"/>
<path d="M29.9858 53.932H25.5229V54.3179H29.9858V53.932Z" fill="white"/>
<path d="M36.2059 50.3038H32.4478V53.932H36.2059V50.3038Z" fill="#39828F"/>
<path d="M35.4132 50.308L32.4478 51.8515V53.4538L36.2059 51.6586V50.308H35.4132Z" fill="#619BA5"/>
<path d="M32.4478 53.6551L36.2059 51.8809V52.2038L32.4478 53.9319V53.6551Z" fill="#619BA5"/>
<path d="M34.4568 50.3038H34.1506V53.932H34.4568V50.3038Z" fill="#DFC2C2"/>
<path d="M36.2059 51.9816H32.4478V52.2752H36.2059V51.9816Z" fill="#DFC2C2"/>
<path d="M36.2059 49.9808H32.4478V50.308H36.2059V49.9808Z" fill="white"/>
<path d="M32.4477 49.9808H32.1079V53.9361H32.4477V49.9808Z" fill="white"/>
<path d="M36.5707 49.9808H36.2058V53.9361H36.5707V49.9808Z" fill="white"/>
<path d="M36.5707 53.932H32.1079V54.3179H36.5707V53.932Z" fill="white"/>
<path d="M20.3595 57.4133H16.6013V57.7069H20.3595V57.4133Z" fill="#DFC2C2"/>
<path d="M29.4154 57.4091H25.6572V61.0372H29.4154V57.4091Z" fill="#39828F"/>
<path d="M28.6268 57.4091L25.6572 58.9568V60.559L29.4154 58.7638V57.4091H28.6268Z" fill="#619BA5"/>
<path d="M25.6572 60.7604L29.4154 58.9862V59.305L25.6572 61.0373V60.7604Z" fill="#619BA5"/>
<path d="M27.6661 57.4091H27.3599V61.0372H27.6661V57.4091Z" fill="#DFC2C2"/>
<path d="M29.4154 59.0868H25.6572V59.3804H29.4154V59.0868Z" fill="#DFC2C2"/>
<path d="M29.4154 57.0819H25.6572V57.4091H29.4154V57.0819Z" fill="white"/>
<path d="M25.6569 57.0819H25.3171V61.0372H25.6569V57.0819Z" fill="white"/>
<path d="M29.7799 57.0819H29.415V61.0372H29.7799V57.0819Z" fill="white"/>
<path d="M29.78 61.0372H25.3171V61.4231H29.78V61.0372Z" fill="white"/>
<path d="M29.4154 64.3047H25.6572V67.9328H29.4154V64.3047Z" fill="#39828F"/>
<path d="M28.6268 64.3047L25.6572 65.8524V67.4547L29.4154 65.6595V64.3047H28.6268Z" fill="#619BA5"/>
<path d="M25.6572 67.6559L29.4154 65.8817V66.2047L25.6572 67.9328V67.6559Z" fill="#619BA5"/>
<path d="M27.6661 64.3047H27.3599V67.9328H27.6661V64.3047Z" fill="#DFC2C2"/>
<path d="M29.4154 65.9824H25.6572V66.276H29.4154V65.9824Z" fill="#DFC2C2"/>
<path d="M29.4154 63.9775H25.6572V64.3047H29.4154V63.9775Z" fill="#DFC2C2"/>
<path d="M25.6569 63.9775H25.3171V67.9328H25.6569V63.9775Z" fill="#DFC2C2"/>
<path d="M29.7799 63.9775H29.415V67.9328H29.7799V63.9775Z" fill="#DFC2C2"/>
<path d="M29.78 67.9327H25.3171V68.3186H29.78V67.9327Z" fill="#DFC2C2"/>
<path d="M36.3988 57.3293H32.6406V60.9575H36.3988V57.3293Z" fill="#39828F"/>
<path d="M35.6102 57.3293L32.6448 58.8771V60.4793L36.3987 58.6841V57.3293H35.6102Z" fill="#619BA5"/>
<path d="M32.6448 60.6806L36.3987 58.9022V59.2252L32.6448 60.9575V60.6806Z" fill="#619BA5"/>
<path d="M34.6499 57.3293H34.3438V60.9575H34.6499V57.3293Z" fill="#DFC2C2"/>
<path d="M36.3988 59.0029H32.6406V59.2965H36.3988V59.0029Z" fill="#DFC2C2"/>
<path d="M36.3988 57.0022H32.6406V57.3294H36.3988V57.0022Z" fill="white"/>
<path d="M32.6408 57.0022H32.301V60.9575H32.6408V57.0022Z" fill="white"/>
<path d="M36.7634 57.0022H36.3984V60.9575H36.7634V57.0022Z" fill="white"/>
<path d="M36.7639 60.9575H32.301V61.3434H36.7639V60.9575Z" fill="white"/>
<path d="M36.3988 64.225H32.6406V67.8531H36.3988V64.225Z" fill="#39828F"/>
<path d="M35.6102 64.225L32.6448 65.7727V67.375L36.3987 65.5798V64.225H35.6102Z" fill="#619BA5"/>
<path d="M32.6448 67.5763L36.3987 65.7979V66.1208L32.6448 67.8531V67.5763Z" fill="#619BA5"/>
<path d="M34.6499 64.225H34.3438V67.8531H34.6499V64.225Z" fill="#DFC2C2"/>
<path d="M36.3988 65.8986H32.6406V66.1922H36.3988V65.8986Z" fill="#DFC2C2"/>
<path d="M36.3988 63.8978H32.6406V64.225H36.3988V63.8978Z" fill="#DFC2C2"/>
<path d="M32.6408 63.8978H32.301V67.8531H32.6408V63.8978Z" fill="#DFC2C2"/>
<path d="M36.7634 63.8978H36.3984V67.8531H36.7634V63.8978Z" fill="#DFC2C2"/>
<path d="M36.7639 67.8531H32.301V68.239H36.7639V67.8531Z" fill="#DFC2C2"/>
<path d="M24.4157 47.5312H22.7715V70.3068H24.4157V47.5312Z" fill="#84AAA0"/>
<path d="M30.5728 54.6533H28.1484V55.2154H30.5728V54.6533Z" fill="#AFC4A7"/>
<path d="M31.6131 55.4838H29.1887V56.0458H31.6131V55.4838Z" fill="#AFC4A7"/>
<path d="M33.3411 54.6533H30.9167V55.2154H33.3411V54.6533Z" fill="#AFC4A7"/>
<path d="M32.8294 56.264H30.405V56.8261H32.8294V56.264Z" fill="#AFC4A7"/>
<path d="M34.5113 62.4297H32.7119V62.8449H34.5113V62.4297Z" fill="#AFC4A7"/>
<path d="M35.7908 61.809H33.9915V62.2242H35.7908V61.809Z" fill="#AFC4A7"/>
<path d="M35.4132 63.0043H33.6138V63.4195H35.4132V63.0043Z" fill="#AFC4A7"/>
<path d="M32.7121 69.7615H29.8347V70.3361H32.7121V69.7615Z" fill="#619BA5"/>
<path d="M32.6784 47.9255H29.801V48.496H32.6784V47.9255Z" fill="#619BA5"/>
<path d="M32.0619 48.496H30.4177V70.3571H32.0619V48.496Z" fill="#619BA5"/>
<path d="M32.1373 48.496H31.2397V69.7573H32.1373V48.496Z" fill="#538B91"/>
<path d="M77.179 48H42.179V71H77.179V48Z" fill="#C4D4B5"/>
<path d="M45.6138 50.094H45.3076V53.7221H45.6138V50.094Z" fill="#DFC2C2"/>
<path d="M47.3629 51.7677H43.6047V52.0613H47.3629V51.7677Z" fill="#DFC2C2"/>
<path d="M47.3629 49.7668H43.6047V50.094H47.3629V49.7668Z" fill="white"/>
<path d="M43.6049 49.7668H43.2651V53.7222H43.6049V49.7668Z" fill="white"/>
<path d="M53.7425 51.7677H49.9844V52.0613H53.7425V51.7677Z" fill="#DFC2C2"/>
<path d="M53.7425 49.7668H49.9844V50.094H53.7425V49.7668Z" fill="white"/>
<path d="M54.1076 49.7668H53.7427V53.7222H54.1076V49.7668Z" fill="white"/>
<path d="M45.4085 57.4091H45.1023V61.0372H45.4085V57.4091Z" fill="#DFC2C2"/>
<path d="M43.3991 57.0819H43.0593V61.0372H43.3991V57.0819Z" fill="white"/>
<path d="M45.4085 64.3047H45.1023V67.9328H45.4085V64.3047Z" fill="#DFC2C2"/>
<path d="M43.3991 63.9775H43.0593V67.9328H43.3991V63.9775Z" fill="#DFC2C2"/>
<path d="M54.5102 56.998H54.1453V60.9534H54.5102V56.998Z" fill="white"/>
<path d="M54.5102 63.8937H54.1453V67.849H54.5102V63.8937Z" fill="#DFC2C2"/>
<path d="M56.5612 47.5271H54.917V70.3026H56.5612V47.5271Z" fill="#84AAA0"/>
<path d="M45.3624 62.4255H43.563V62.8408H45.3624V62.4255Z" fill="#AFC4A7"/>
<path d="M46.2642 63.0043H44.4648V63.4195H46.2642V63.0043Z" fill="#AFC4A7"/>
<path d="M50.1859 47.8711H47.3086V48.4415H50.1859V47.8711Z" fill="#619BA5"/>
<path d="M63.179 42H16.179V71H63.179V42Z" fill="#C4D4B5"/>
<path d="M58.2668 51H52.2668V57H58.2668V51Z" fill="#92A383"/>
<path d="M12.2668 50H6.26685V56H12.2668V50Z" fill="#92A383"/>
<path d="M58.179 61H52.179V67H58.179V61Z" fill="#92A383"/>
<path d="M12.179 60H6.17896V66H12.179V60Z" fill="#92A383"/>
<path d="M70.179 51H64.179V57H70.179V51Z" fill="#92A383"/>
<path d="M26.179 50H20.179V56H26.179V50Z" fill="#92A383"/>
<path d="M70.0911 61H64.0911V67H70.0911V61Z" fill="#92A383"/>
<path d="M26.0911 60H20.0911V66H26.0911V60Z" fill="#92A383"/>
<path d="M16.1936 41.9609L32.4035 34.4113H46.6904L63.2339 41.9609H16.1936Z" fill="#FE4B26"/>
<path d="M16.1399 46.349L32.4393 39.6379H46.805L63.44 46.349H16.1399Z" fill="#FE4B26"/>
<path d="M34.1965 45.4454H31.8735V70.4175H34.1965V45.4454Z" fill="#92A383"/>
<path d="M46.9731 46.0261H44.6501V70.4174H46.9731V46.0261Z" fill="#92A383"/>
<path d="M0 46.5582L12.9942 41.1223H24.4449L37.7033 46.5582H0Z" fill="#FE4B26"/>
<path d="M77.179 46H2.17896V48H77.179V46Z" fill="#84AAA0"/>
<path d="M77.179 46H2.17896V48H77.179V46Z" fill="#92A383"/>
<path d="M42.179 46L55.2726 41H66.8147L80.179 46H42.179Z" fill="#FE4B26"/>
<path d="M43.1433 55H35.939V70.7163H43.1433V55Z" fill="white"/>
<path d="M34.343 70.6498H32.0115V70.9491H34.343V70.6498Z" fill="#5C708D"/>
<path d="M33.2552 61.762L32.9448 61.8033L32.6206 59.7408H33.5335L33.2552 61.762Z" fill="white"/>
<path d="M34.1568 59.6893C34.1562 59.6968 34.154 59.7042 34.1502 59.7109C34.1463 59.7176 34.1411 59.7235 34.1346 59.7284C34.1282 59.7332 34.1207 59.7368 34.1126 59.7389C34.1046 59.7411 34.0962 59.7418 34.0878 59.7409H32.0667C32.0585 59.7415 32.0503 59.7406 32.0425 59.7383C32.0348 59.736 32.0276 59.7324 32.0214 59.7276C32.0152 59.7228 32.0101 59.7169 32.0064 59.7103C32.0028 59.7038 32.0006 59.6966 32 59.6893V59.6893C32.0006 59.682 32.0028 59.6748 32.0064 59.6683C32.0101 59.6617 32.0152 59.6558 32.0214 59.651C32.0276 59.6463 32.0348 59.6426 32.0425 59.6403C32.0503 59.638 32.0585 59.6371 32.0667 59.6377H34.0878C34.0962 59.6368 34.1046 59.6375 34.1126 59.6397C34.1207 59.6418 34.1282 59.6454 34.1346 59.6502C34.1411 59.6551 34.1463 59.661 34.1502 59.6677C34.154 59.6744 34.1562 59.6818 34.1568 59.6893V59.6893Z" fill="#5C708D"/>
<path d="M33.0784 59.0018C32.8752 58.9887 32.6745 59.0481 32.5199 59.1672C32.3653 59.2863 32.2694 59.4554 32.2529 59.6377H33.9062C33.8891 59.4552 33.7927 59.2861 33.6377 59.1671C33.4828 59.048 33.2818 58.9887 33.0784 59.0018Z" fill="#5C708D"/>
<path d="M32.2529 59.7408L32.6898 61.6836H32.9082L32.4852 59.7408H32.2529Z" fill="#5C708D"/>
<path d="M33.7082 61.7352C33.7059 61.7508 33.6969 61.7649 33.6832 61.7745C33.6694 61.7842 33.652 61.7886 33.6346 61.7868H32.5401C32.5228 61.7886 32.5054 61.7842 32.4916 61.7745C32.4778 61.7649 32.4689 61.7508 32.4666 61.7352C32.4689 61.7197 32.4778 61.7056 32.4916 61.6959C32.5054 61.6863 32.5228 61.6818 32.5401 61.6836H33.6346C33.652 61.6818 33.6694 61.6863 33.6832 61.6959C33.6969 61.7056 33.7059 61.7197 33.7082 61.7352V61.7352Z" fill="#5C708D"/>
<path d="M33.9107 59.7408L33.4738 61.6836H33.2554L33.6785 59.7408H33.9107Z" fill="#5C708D"/>
<path d="M33.2555 61.7352H32.9451V70.8212H33.2555V61.7352Z" fill="#5C708D"/>
<path d="M47.343 70.6498H45.0115V70.9491H47.343V70.6498Z" fill="#5C708D"/>
<path d="M46.2552 61.762L45.9448 61.8033L45.6206 59.7408H46.5335L46.2552 61.762Z" fill="white"/>
<path d="M47.1568 59.6893C47.1562 59.6968 47.154 59.7042 47.1502 59.7109C47.1463 59.7176 47.1411 59.7235 47.1346 59.7284C47.1282 59.7332 47.1207 59.7368 47.1126 59.7389C47.1046 59.7411 47.0962 59.7418 47.0878 59.7409H45.0667C45.0585 59.7415 45.0503 59.7406 45.0425 59.7383C45.0348 59.736 45.0276 59.7324 45.0214 59.7276C45.0152 59.7228 45.0101 59.7169 45.0064 59.7103C45.0028 59.7038 45.0006 59.6966 45 59.6893V59.6893C45.0006 59.682 45.0028 59.6748 45.0064 59.6683C45.0101 59.6617 45.0152 59.6558 45.0214 59.651C45.0276 59.6463 45.0348 59.6426 45.0425 59.6403C45.0503 59.638 45.0585 59.6371 45.0667 59.6377H47.0878C47.0962 59.6368 47.1046 59.6375 47.1126 59.6397C47.1207 59.6418 47.1282 59.6454 47.1346 59.6502C47.1411 59.6551 47.1463 59.661 47.1502 59.6677C47.154 59.6744 47.1562 59.6818 47.1568 59.6893V59.6893Z" fill="#5C708D"/>
<path d="M46.0784 59.0018C45.8752 58.9887 45.6745 59.0481 45.5199 59.1672C45.3653 59.2863 45.2694 59.4554 45.2529 59.6377H46.9062C46.8891 59.4552 46.7927 59.2861 46.6377 59.1671C46.4828 59.048 46.2818 58.9887 46.0784 59.0018Z" fill="#5C708D"/>
<path d="M45.2529 59.7408L45.6898 61.6836H45.9082L45.4852 59.7408H45.2529Z" fill="#5C708D"/>
<path d="M46.7082 61.7352C46.7059 61.7508 46.6969 61.7649 46.6832 61.7745C46.6694 61.7842 46.652 61.7886 46.6346 61.7868H45.5401C45.5228 61.7886 45.5054 61.7842 45.4916 61.7745C45.4778 61.7649 45.4689 61.7508 45.4666 61.7352C45.4689 61.7197 45.4778 61.7056 45.4916 61.6959C45.5054 61.6863 45.5228 61.6818 45.5401 61.6836H46.6346C46.652 61.6818 46.6694 61.6863 46.6832 61.6959C46.6969 61.7056 46.7059 61.7197 46.7082 61.7352V61.7352Z" fill="#5C708D"/>
<path d="M46.9107 59.7408L46.4738 61.6836H46.2554L46.6785 59.7408H46.9107Z" fill="#5C708D"/>
<path d="M46.2555 61.7352H45.9451V70.8212H46.2555V61.7352Z" fill="#5C708D"/>
</g>
<path d="M61 41H18V46H61V41Z" fill="black" fill-opacity="0.1"/>
<path d="M33.603 44.318C33.6323 44.318 33.6583 44.3294 33.681 44.352L33.893 44.582C33.7756 44.7274 33.631 44.8387 33.459 44.916C33.2883 44.9934 33.083 45.032 32.843 45.032C32.6283 45.032 32.435 44.9954 32.263 44.922C32.0923 44.8487 31.9463 44.7467 31.825 44.616C31.7036 44.4854 31.6103 44.3294 31.545 44.148C31.481 43.9667 31.449 43.7687 31.449 43.554C31.449 43.3367 31.4836 43.138 31.553 42.958C31.6223 42.7767 31.7196 42.6207 31.845 42.49C31.9716 42.3594 32.1223 42.258 32.297 42.186C32.4716 42.1127 32.665 42.076 32.877 42.076C33.0876 42.076 33.2743 42.1107 33.437 42.18C33.601 42.2494 33.7403 42.34 33.855 42.452L33.675 42.702C33.6643 42.718 33.6503 42.732 33.633 42.744C33.617 42.756 33.5943 42.762 33.565 42.762C33.545 42.762 33.5243 42.7567 33.503 42.746C33.4816 42.734 33.4583 42.72 33.433 42.704C33.4076 42.6867 33.3783 42.668 33.345 42.648C33.3116 42.628 33.273 42.61 33.229 42.594C33.185 42.5767 33.1336 42.5627 33.075 42.552C33.0176 42.54 32.951 42.534 32.875 42.534C32.7456 42.534 32.627 42.5574 32.519 42.604C32.4123 42.6494 32.3203 42.716 32.243 42.804C32.1656 42.8907 32.1056 42.9974 32.063 43.124C32.0203 43.2494 31.999 43.3927 31.999 43.554C31.999 43.7167 32.0216 43.8614 32.067 43.988C32.1136 44.1147 32.1763 44.2214 32.255 44.308C32.3336 44.3947 32.4263 44.4614 32.533 44.508C32.6396 44.5534 32.7543 44.576 32.877 44.576C32.9503 44.576 33.0163 44.572 33.075 44.564C33.135 44.556 33.1896 44.5434 33.239 44.526C33.2896 44.5087 33.337 44.4867 33.381 44.46C33.4263 44.432 33.471 44.398 33.515 44.358C33.5283 44.346 33.5423 44.3367 33.557 44.33C33.5716 44.322 33.587 44.318 33.603 44.318Z" fill="black" fill-opacity="0.6"/>
<path d="M36.957 43.554C36.957 43.766 36.9217 43.9627 36.851 44.144C36.7817 44.324 36.683 44.48 36.555 44.612C36.427 44.744 36.273 44.8474 36.093 44.922C35.913 44.9954 35.713 45.032 35.493 45.032C35.2743 45.032 35.075 44.9954 34.895 44.922C34.715 44.8474 34.5603 44.744 34.431 44.612C34.303 44.48 34.2037 44.324 34.133 44.144C34.0623 43.9627 34.027 43.766 34.027 43.554C34.027 43.342 34.0623 43.146 34.133 42.966C34.2037 42.7847 34.303 42.628 34.431 42.496C34.5603 42.364 34.715 42.2614 34.895 42.188C35.075 42.1134 35.2743 42.076 35.493 42.076C35.6397 42.076 35.7777 42.0934 35.907 42.128C36.0363 42.1614 36.155 42.2094 36.263 42.272C36.371 42.3334 36.4677 42.4087 36.553 42.498C36.6397 42.586 36.713 42.6847 36.773 42.794C36.833 42.9034 36.8783 43.022 36.909 43.15C36.941 43.278 36.957 43.4127 36.957 43.554ZM36.407 43.554C36.407 43.3954 36.3857 43.2534 36.343 43.128C36.3003 43.0014 36.2397 42.894 36.161 42.806C36.0823 42.718 35.9863 42.6507 35.873 42.604C35.761 42.5574 35.6343 42.534 35.493 42.534C35.3517 42.534 35.2243 42.5574 35.111 42.604C34.999 42.6507 34.903 42.718 34.823 42.806C34.7443 42.894 34.6837 43.0014 34.641 43.128C34.5983 43.2534 34.577 43.3954 34.577 43.554C34.577 43.7127 34.5983 43.8554 34.641 43.982C34.6837 44.1074 34.7443 44.214 34.823 44.302C34.903 44.3887 34.999 44.4554 35.111 44.502C35.2243 44.5487 35.3517 44.572 35.493 44.572C35.6343 44.572 35.761 44.5487 35.873 44.502C35.9863 44.4554 36.0823 44.3887 36.161 44.302C36.2397 44.214 36.3003 44.1074 36.343 43.982C36.3857 43.8554 36.407 43.7127 36.407 43.554Z" fill="black" fill-opacity="0.6"/>
<path d="M39.1235 44.556V45H37.4295V42.108H37.9675V44.556H39.1235Z" fill="black" fill-opacity="0.6"/>
<path d="M41.2016 44.556V45H39.5076V42.108H40.0456V44.556H41.2016Z" fill="black" fill-opacity="0.6"/>
<path d="M42.1257 42.536V43.338H43.1377V43.752H42.1257V44.57H43.4097V45H41.5857V42.108H43.4097V42.536H42.1257Z" fill="black" fill-opacity="0.6"/>
<path d="M46.208 43.55V44.72C46.0613 44.828 45.9047 44.9074 45.738 44.958C45.5727 45.0074 45.3953 45.032 45.206 45.032C44.97 45.032 44.756 44.9954 44.564 44.922C44.3733 44.8487 44.21 44.7467 44.074 44.616C43.9393 44.4854 43.8353 44.3294 43.762 44.148C43.6887 43.9667 43.652 43.7687 43.652 43.554C43.652 43.3367 43.6873 43.1374 43.758 42.956C43.8287 42.7747 43.9287 42.6187 44.058 42.488C44.1887 42.3574 44.3467 42.256 44.532 42.184C44.7173 42.112 44.9253 42.076 45.156 42.076C45.2733 42.076 45.3827 42.0854 45.484 42.104C45.5867 42.1227 45.6813 42.1487 45.768 42.182C45.856 42.214 45.936 42.2534 46.008 42.3C46.08 42.3467 46.146 42.398 46.206 42.454L46.052 42.698C46.028 42.7367 45.9967 42.7607 45.958 42.77C45.9193 42.778 45.8773 42.768 45.832 42.74C45.788 42.7147 45.744 42.6894 45.7 42.664C45.656 42.6387 45.6067 42.6167 45.552 42.598C45.4987 42.5794 45.438 42.564 45.37 42.552C45.3033 42.54 45.226 42.534 45.138 42.534C44.9953 42.534 44.866 42.558 44.75 42.606C44.6353 42.654 44.5373 42.7227 44.456 42.812C44.3747 42.9014 44.312 43.0087 44.268 43.134C44.224 43.2594 44.202 43.3994 44.202 43.554C44.202 43.7194 44.2253 43.8674 44.272 43.998C44.32 44.1274 44.3867 44.2374 44.472 44.328C44.5587 44.4174 44.6627 44.486 44.784 44.534C44.9053 44.5807 45.0407 44.604 45.19 44.604C45.2967 44.604 45.392 44.5927 45.476 44.57C45.56 44.5474 45.642 44.5167 45.722 44.478V43.954H45.358C45.3233 43.954 45.296 43.9447 45.276 43.926C45.2573 43.906 45.248 43.882 45.248 43.854V43.55H46.208Z" fill="black" fill-opacity="0.6"/>
<path d="M47.2663 42.536V43.338H48.2783V43.752H47.2663V44.57H48.5504V45H46.7263V42.108H48.5504V42.536H47.2663Z" fill="black" fill-opacity="0.6"/>
</svg>
