<svg width="80" height="80" viewBox="0 0 80 80" fill="none" xmlns="http://www.w3.org/2000/svg">
<rect width="80" height="80" rx="40" fill="#BBE5FF"/>
<mask id="mask0" style="mask-type:alpha" maskUnits="userSpaceOnUse" x="0" y="0" width="80" height="80">
<rect width="80" height="80" rx="40" fill="#C4C4C4"/>
</mask>
<g mask="url(#mask0)">
<path d="M25.0621 42.4415H-0.204346V79.6132H25.0621V42.4415Z" fill="#FFD980"/>
<path d="M79.6204 42.455H54.354V79.6266H79.6204V42.455Z" fill="#DB8637"/>
<path d="M79.6639 42.4415H54.3975V79.6132H79.6639V42.4415Z" fill="#FFD980"/>
<path d="M71.7368 49.6029H67C66.4477 49.6029 66 50.0506 66 50.6029V55.2889C66 55.8412 66.4477 56.2889 67 56.2889H71.7368C72.2891 56.2889 72.7368 55.8412 72.7368 55.2889V50.6029C72.7368 50.0506 72.2891 49.6029 71.7368 49.6029Z" fill="white"/>
<path d="M12.7368 49H8C7.44772 49 7 49.4477 7 50V54.686C7 55.2383 7.44771 55.686 8 55.686H12.7368C13.2891 55.686 13.7368 55.2383 13.7368 54.686V50C13.7368 49.4477 13.2891 49 12.7368 49Z" fill="white"/>
<path d="M71.7368 63H67C66.4477 63 66 63.4477 66 64V68.686C66 69.2383 66.4477 69.686 67 69.686H71.7368C72.2891 69.686 72.7368 69.2383 72.7368 68.686V64C72.7368 63.4477 72.2891 63 71.7368 63Z" fill="white"/>
<path d="M12.7368 62.3971H8C7.44772 62.3971 7 62.8448 7 63.3971V68.0831C7 68.6354 7.44771 69.0831 8 69.0831H12.7368C13.2891 69.0831 13.7368 68.6354 13.7368 68.0831V63.3971C13.7368 62.8448 13.2891 62.3971 12.7368 62.3971Z" fill="white"/>
<path d="M55.4228 41.9932H23.8997V79.6266H55.4228V41.9932Z" fill="#F6C551"/>
<path d="M0.13623 42.6253L27.6547 36.3262H51.9124L80.0001 42.6253H0.13623Z" fill="#6F88AC"/>
<path d="M79.9999 42.455H-0.208496V43.6475H79.9999V42.455Z" fill="#F6C551"/>
<path d="M45.4661 62.5629H35V78.8958H45.4661V62.5629Z" fill="#B57641"/>
<path d="M51.7574 77.4971H28.3535V78.8241H51.7574V77.4971Z" fill="#93B293"/>
<path d="M54.3544 78.6448H25.1682V79.6266H54.3544V78.6448Z" fill="#A5C3A5"/>
<path d="M79.9999 42.455H-0.208496V43.0512H79.9999V42.455Z" fill="#5C708D"/>
<path d="M56.2668 43.652H23.8948L39.9485 29.0004L56.2668 43.652Z" fill="#5C708D"/>
<path d="M25.6272 43.652L39.7185 31.0178L54.354 43.652H25.6272Z" fill="#F6C551"/>
<path d="M54.3491 51.3904H25.7471V56.8197H54.3491V51.3904Z" fill="#E8A70F"/>
<path d="M33.0773 53.0312L32.8376 53.2868C32.6442 53.1196 32.387 53.025 32.1186 53.0223C31.799 53.0223 31.5493 53.1613 31.5493 53.4706C31.5493 53.78 31.6742 53.8427 32.2434 54.0086C32.8127 54.1745 33.1772 54.3449 33.1772 54.9053C33.1784 55.0335 33.1489 55.1605 33.0908 55.2777C33.0327 55.3948 32.9473 55.4994 32.8404 55.5844C32.7334 55.6694 32.6074 55.7328 32.4708 55.7703C32.3342 55.8079 32.1903 55.8186 32.0487 55.802C31.8494 55.8071 31.6512 55.775 31.4664 55.7079C31.2816 55.6407 31.1143 55.54 30.9751 55.4119L31.2148 55.1519C31.4351 55.3487 31.7329 55.4599 32.0437 55.4612C32.1288 55.4715 32.2154 55.4653 32.2976 55.4429C32.3798 55.4205 32.4556 55.3825 32.52 55.3315C32.5844 55.2804 32.6359 55.2176 32.6709 55.1471C32.7058 55.0767 32.7235 55.0003 32.7228 54.9232C32.7228 54.6318 32.578 54.4749 32.0387 54.3404C31.4994 54.2059 31.0999 53.9414 31.0999 53.4751C31.1027 53.3629 31.1314 53.2524 31.1841 53.1506C31.2369 53.0488 31.3126 52.958 31.4064 52.8838C31.5003 52.8097 31.6103 52.7538 31.7294 52.7197C31.8486 52.6857 31.9743 52.6742 32.0986 52.686C32.2795 52.6796 32.4598 52.707 32.6283 52.7665C32.7967 52.8259 32.9496 52.916 33.0773 53.0312V53.0312Z" fill="#7A4D39"/>
<path d="M32.0488 55.8513C31.8414 55.8572 31.6349 55.8245 31.4424 55.755C31.2498 55.6855 31.0755 55.5809 30.9303 55.4478L30.8904 55.4074L31.21 55.0712L31.2599 55.107C31.3623 55.2001 31.4845 55.2738 31.6191 55.3238C31.7537 55.3739 31.8981 55.3992 32.0438 55.3985C32.3434 55.3985 32.663 55.2729 32.663 54.9187C32.663 54.6766 32.5731 54.5511 32.0189 54.3897C31.4646 54.2283 31.0202 53.9997 31.0202 53.4706C31.0223 53.3511 31.052 53.2333 31.1075 53.1247C31.163 53.0161 31.2431 52.9191 31.3427 52.8398C31.4423 52.7605 31.5592 52.7007 31.6859 52.6642C31.8126 52.6277 31.9464 52.6153 32.0788 52.6277C32.2641 52.6236 32.4483 52.6538 32.6201 52.7162C32.7919 52.7787 32.9476 52.8722 33.0775 52.9909L33.1174 53.0268L32.8028 53.363L32.7529 53.3271C32.5695 53.1707 32.3268 53.0826 32.0738 53.0806C31.954 53.0806 31.5745 53.1075 31.5745 53.4527C31.5745 53.6544 31.6394 53.7665 32.2236 53.9414C32.7229 54.0848 33.2223 54.2776 33.2223 54.9053C33.2225 55.0389 33.1913 55.1711 33.1307 55.2931C33.0702 55.4152 32.9817 55.5244 32.8709 55.6137C32.7602 55.7029 32.6298 55.7702 32.4881 55.8112C32.3464 55.8521 32.1968 55.8658 32.0488 55.8513V55.8513ZM31.0502 55.4029C31.1827 55.5166 31.3396 55.605 31.5112 55.6628C31.6828 55.7206 31.8657 55.7466 32.0488 55.7392C32.708 55.7392 33.1174 55.4209 33.1174 54.9053C33.1174 54.3897 32.693 54.1835 32.2236 54.0445C31.6494 53.8786 31.4846 53.7441 31.4846 53.4527C31.4846 53.1613 31.7343 52.9685 32.1187 52.9685C32.3808 52.9683 32.6342 53.0526 32.8328 53.2061L32.9926 53.0357C32.8729 52.9357 32.7322 52.858 32.5788 52.8072C32.4253 52.7564 32.2622 52.7335 32.0988 52.7398C31.9831 52.7287 31.8662 52.7391 31.7552 52.7704C31.6442 52.8018 31.5417 52.8534 31.454 52.922C31.3663 52.9906 31.2954 53.0748 31.2457 53.1692C31.1959 53.2636 31.1685 53.3662 31.165 53.4706C31.165 53.8741 31.4047 54.0938 32.0588 54.2821C32.6181 54.448 32.7879 54.5959 32.7879 54.9187C32.7878 55.0031 32.7679 55.0865 32.7293 55.1634C32.6907 55.2403 32.6344 55.309 32.5641 55.3649C32.4938 55.4209 32.4111 55.4628 32.3214 55.4879C32.2317 55.513 32.1371 55.5207 32.0438 55.5106C31.7409 55.5127 31.4483 55.4118 31.2249 55.2281L31.0502 55.4029Z" fill="#7A4D39"/>
<path d="M36.0832 52.9819L35.8435 53.2464C35.6793 53.1052 35.4617 53.0251 35.2343 53.0223C34.735 53.0223 34.3555 53.3316 34.3555 54.2373C34.3555 55.1429 34.735 55.4478 35.2293 55.4478C35.4795 55.4382 35.7172 55.3474 35.8984 55.1922L36.1182 55.4612C36.0025 55.5714 35.8622 55.6584 35.7064 55.7163C35.5506 55.7743 35.3829 55.802 35.2144 55.7975C34.4454 55.7975 33.8911 55.2505 33.8911 54.2373C33.8911 53.224 34.4903 52.6815 35.2044 52.6815C35.3657 52.6766 35.5266 52.7006 35.6775 52.7522C35.8284 52.8038 35.9663 52.8819 36.0832 52.9819Z" fill="#7A4D39"/>
<path d="M35.2143 55.8513C34.3605 55.8513 33.8262 55.2326 33.8262 54.2373C33.8262 53.1254 34.5203 52.6278 35.2043 52.6278C35.3727 52.622 35.5406 52.6463 35.6984 52.6995C35.8561 52.7526 36.0005 52.8334 36.1231 52.9371L36.1681 52.973L35.8535 53.3272L35.8035 53.2869C35.6486 53.1575 35.4459 53.084 35.2343 53.0806C34.7 53.0806 34.4154 53.4796 34.4154 54.2373C34.4154 54.995 34.705 55.3895 35.2293 55.3895C35.462 55.3885 35.6861 55.3102 35.8585 55.1699L35.9084 55.134L36.198 55.4837L36.1681 55.5196C36.0435 55.6313 35.8943 55.7185 35.7301 55.7756C35.5659 55.8327 35.3902 55.8585 35.2143 55.8513V55.8513ZM35.2143 52.7399C34.5902 52.7399 33.961 53.1882 33.961 54.2373C33.961 55.1654 34.4603 55.7393 35.2243 55.7393C35.5297 55.7463 35.8258 55.6448 36.0482 55.4568L35.8984 55.273C35.7152 55.416 35.482 55.4969 35.2393 55.5016C34.8898 55.5016 34.3005 55.3357 34.3005 54.2373C34.3005 53.1389 34.8898 52.9685 35.2443 52.9685C35.4636 52.9694 35.6755 53.0392 35.8435 53.1658L36.0033 52.9865C35.7831 52.8137 35.4963 52.7251 35.2043 52.7399H35.2143Z" fill="#7A4D39"/>
<path d="M38.7149 54.3314H37.3817V55.7437H36.9473V52.7354H37.3817V53.9907H38.7149V52.7354H39.1543V55.7437H38.7149V54.3314Z" fill="#7A4D39"/>
<path d="M39.2142 55.7974H38.655V54.3896H37.4466V55.7974H36.8823V52.6591H37.4466V53.9144H38.655V52.6591H39.2142V55.7974ZM38.7798 55.6853H39.0894V52.7936H38.7998V54.0489H37.3018V52.7936H36.9872V55.6853H37.3018V54.2731H38.7998L38.7798 55.6853Z" fill="#7A4D39"/>
<path d="M42.7945 54.2417C42.7945 55.237 42.2502 55.7975 41.4563 55.7975C40.6623 55.7975 40.123 55.255 40.123 54.2462C40.123 53.2375 40.6673 52.6815 41.4563 52.6815C42.2452 52.6815 42.7945 53.2285 42.7945 54.2417ZM40.5824 54.2417C40.5824 55.1115 40.942 55.4522 41.4563 55.4522C41.9706 55.4522 42.3301 55.1115 42.3301 54.2372C42.3301 53.363 42.0006 53.0178 41.4563 53.0178C40.912 53.0178 40.6024 53.3764 40.6024 54.2462L40.5824 54.2417Z" fill="#7A4D39"/>
<path d="M41.4763 55.8512C40.6124 55.8512 40.0781 55.237 40.0781 54.2462C40.0781 53.2554 40.6274 52.6277 41.4763 52.6277C42.3251 52.6277 42.8794 53.2464 42.8794 54.2417C42.8794 55.237 42.3401 55.8512 41.4763 55.8512ZM41.4763 52.7398C40.6923 52.7398 40.203 53.3181 40.203 54.2462C40.203 55.1742 40.7023 55.7391 41.4763 55.7391C42.2502 55.7391 42.7546 55.1653 42.7546 54.2417C42.7546 53.3181 42.2952 52.7398 41.4763 52.7398ZM41.4763 55.5105C41.0518 55.5105 40.5425 55.2908 40.5425 54.2462C40.5425 53.2016 41.0418 52.9684 41.4763 52.9684C42.1004 52.9684 42.415 53.4168 42.415 54.2417C42.415 55.0666 42.1004 55.5105 41.4763 55.5105V55.5105ZM41.4763 53.0805C40.942 53.0805 40.6673 53.4706 40.6673 54.2462C40.6673 55.0218 40.942 55.3984 41.4763 55.3984C42.0106 55.3984 42.2902 55.0218 42.2902 54.2417C42.2902 53.4616 42.0205 53.0805 41.4763 53.0805V53.0805Z" fill="#7A4D39"/>
<path d="M46.2901 54.2417C46.2901 55.237 45.7508 55.7975 44.9519 55.7975C44.1529 55.7975 43.6187 55.255 43.6187 54.2462C43.6187 53.2375 44.1629 52.6815 44.9519 52.6815C45.7408 52.6815 46.2901 53.2285 46.2901 54.2417ZM44.078 54.2417C44.078 55.1115 44.4376 55.4522 44.9519 55.4522C45.4662 55.4522 45.8257 55.1115 45.8257 54.2372C45.8257 53.363 45.4962 53.0178 44.9519 53.0178C44.4076 53.0178 44.0581 53.3764 44.0581 54.2462L44.078 54.2417Z" fill="#7A4D39"/>
<path d="M44.9318 55.8512C44.073 55.8512 43.5337 55.237 43.5337 54.2462C43.5337 53.2554 44.083 52.6277 44.9318 52.6277C45.7807 52.6277 46.335 53.2464 46.335 54.2417C46.335 55.237 45.7907 55.8512 44.9318 55.8512ZM44.9318 52.7398C44.1479 52.7398 43.6585 53.3181 43.6585 54.2462C43.6585 55.1742 44.1579 55.7391 44.9318 55.7391C45.7058 55.7391 46.2101 55.1653 46.2101 54.2417C46.2101 53.3181 45.7308 52.7398 44.9318 52.7398ZM44.9318 55.5105C44.5074 55.5105 43.9981 55.2908 43.9981 54.2462C43.9981 53.2016 44.4974 52.9684 44.9318 52.9684C45.556 52.9684 45.8706 53.4168 45.8706 54.2417C45.8706 55.0666 45.556 55.5105 44.9318 55.5105V55.5105ZM44.9318 53.0805C44.3975 53.0805 44.1229 53.4706 44.1229 54.2462C44.1229 55.0218 44.3975 55.3984 44.9318 55.3984C45.4661 55.3984 45.7458 55.0218 45.7458 54.2417C45.7458 53.4616 45.4811 53.0805 44.9318 53.0805V53.0805Z" fill="#7A4D39"/>
<path d="M47.6932 55.3805H48.9965L48.9465 55.7437H47.2588V52.7354H47.6932V55.3805Z" fill="#7A4D39"/>
<path d="M49.0014 55.7974H47.1938V52.6591H47.7581V55.3042H49.0664L49.0014 55.7974ZM47.3187 55.6853H48.8916L48.9265 55.4387H47.6333V52.7936H47.3187V55.6853Z" fill="#7A4D39"/>
<path d="M51.4039 77.4971H28V77.9364H51.4039V77.4971Z" fill="#A5C3A5"/>
<path d="M25.2679 79.3397H20.2046V79.9898H25.2679V79.3397Z" fill="#5C708D"/>
<path d="M22.906 60.0388L22.2319 60.1284L21.5278 55.6495H23.5102L22.906 60.0388Z" fill="white"/>
<path d="M24.8635 55.5375C24.8622 55.5539 24.8573 55.5698 24.849 55.5844C24.8408 55.599 24.8293 55.6119 24.8153 55.6224C24.8013 55.6328 24.785 55.6407 24.7676 55.6453C24.7501 55.65 24.7318 55.6515 24.7137 55.6496H20.3245C20.3068 55.6509 20.289 55.6489 20.2721 55.6439C20.2552 55.639 20.2396 55.631 20.2261 55.6206C20.2127 55.6102 20.2016 55.5975 20.1937 55.5832C20.1857 55.569 20.181 55.5535 20.1797 55.5375V55.5375C20.181 55.5216 20.1857 55.5061 20.1937 55.4918C20.2016 55.4776 20.2127 55.4649 20.2261 55.4545C20.2396 55.4441 20.2552 55.4361 20.2721 55.4312C20.289 55.4262 20.3068 55.4242 20.3245 55.4255H24.7137C24.7318 55.4236 24.7501 55.4251 24.7676 55.4298C24.785 55.4344 24.8013 55.4423 24.8153 55.4527C24.8293 55.4632 24.8408 55.4761 24.849 55.4907C24.8573 55.5053 24.8622 55.5212 24.8635 55.5375V55.5375Z" fill="#5C708D"/>
<path d="M22.5216 54.0445C22.0804 54.0161 21.6446 54.1452 21.3088 54.4038C20.9731 54.6624 20.7647 55.0296 20.729 55.4254H24.3192C24.2823 55.0292 24.0728 54.662 23.7363 54.4035C23.3998 54.145 22.9633 54.016 22.5216 54.0445Z" fill="#5C708D"/>
<path d="M20.729 55.6495L21.6777 59.8684H22.1521L21.2333 55.6495H20.729Z" fill="#5C708D"/>
<path d="M23.8898 59.9806C23.8848 60.0143 23.8653 60.045 23.8354 60.0659C23.8055 60.0869 23.7677 60.0965 23.73 60.0927H21.3531C21.3155 60.0965 21.2776 60.0869 21.2478 60.0659C21.2179 60.045 21.1983 60.0143 21.1934 59.9806C21.1983 59.9468 21.2179 59.9162 21.2478 59.8952C21.2776 59.8743 21.3155 59.8647 21.3531 59.8685H23.73C23.7677 59.8647 23.8055 59.8743 23.8354 59.8952C23.8653 59.9162 23.8848 59.9468 23.8898 59.9806V59.9806Z" fill="#5C708D"/>
<path d="M24.3294 55.6495L23.3806 59.8684H22.9062L23.825 55.6495H24.3294Z" fill="#5C708D"/>
<path d="M22.906 59.9806H22.2319V79.7119H22.906V59.9806Z" fill="#5C708D"/>
<path d="M59.7217 78.978H54.6584V79.6281H59.7217V78.978Z" fill="#5C708D"/>
<path d="M57.3599 59.6771L56.6858 59.7667L55.9817 55.2878H57.9641L57.3599 59.6771Z" fill="white"/>
<path d="M59.3176 55.1759C59.3163 55.1922 59.3114 55.2081 59.3031 55.2227C59.2949 55.2373 59.2834 55.2502 59.2694 55.2607C59.2554 55.2711 59.2391 55.279 59.2217 55.2836C59.2042 55.2883 59.1859 55.2898 59.1678 55.2879H54.7786C54.7609 55.2892 54.7431 55.2872 54.7262 55.2822C54.7093 55.2773 54.6937 55.2693 54.6802 55.2589C54.6668 55.2485 54.6557 55.2358 54.6478 55.2216C54.6398 55.2073 54.6351 55.1918 54.6338 55.1759V55.1759C54.6351 55.1599 54.6398 55.1444 54.6478 55.1302C54.6557 55.1159 54.6668 55.1032 54.6802 55.0928C54.6937 55.0824 54.7093 55.0744 54.7262 55.0695C54.7431 55.0645 54.7609 55.0625 54.7786 55.0638H59.1678C59.1859 55.0619 59.2042 55.0634 59.2217 55.0681C59.2391 55.0728 59.2554 55.0806 59.2694 55.091C59.2834 55.1015 59.2949 55.1144 59.3031 55.129C59.3114 55.1436 59.3163 55.1595 59.3176 55.1759V55.1759Z" fill="#5C708D"/>
<path d="M56.9755 53.6829C56.5343 53.6544 56.0984 53.7835 55.7627 54.0421C55.427 54.3007 55.2186 54.6679 55.1829 55.0637H58.7731C58.7361 54.6675 58.5267 54.3003 58.1902 54.0418C57.8536 53.7833 57.4172 53.6543 56.9755 53.6829Z" fill="#5C708D"/>
<path d="M55.1829 55.2878L56.1316 59.5067H56.606L55.6872 55.2878H55.1829Z" fill="#5C708D"/>
<path d="M58.3436 59.6189C58.3386 59.6526 58.3191 59.6833 58.2892 59.7042C58.2594 59.7252 58.2215 59.7348 58.1838 59.731H55.807C55.7693 59.7348 55.7315 59.7252 55.7016 59.7042C55.6717 59.6833 55.6522 59.6526 55.6472 59.6189C55.6522 59.5851 55.6717 59.5545 55.7016 59.5335C55.7315 59.5126 55.7693 59.503 55.807 59.5068H58.1838C58.2215 59.503 58.2594 59.5126 58.2892 59.5335C58.3191 59.5545 58.3386 59.5851 58.3436 59.6189V59.6189Z" fill="#5C708D"/>
<path d="M58.7832 55.2878L57.8345 59.5067H57.3601L58.2789 55.2878H58.7832Z" fill="#5C708D"/>
<path d="M57.3601 59.6189H56.686V79.3502H57.3601V59.6189Z" fill="#5C708D"/>
</g>
</svg>
