<svg width="480" height="283" viewBox="0 0 480 283" fill="none" xmlns="http://www.w3.org/2000/svg">
<g clip-path="url(#clip0_370_9605)">
<path d="M63.7161 281.845C63.7161 281.845 -50.9845 209.761 27.4063 132.468C105.797 55.1743 210.699 -23.8315 281.018 6.73453C351.337 37.3006 345.009 75.9473 422.261 131.89C499.514 187.833 481.632 232.25 467.797 254.74C453.962 277.229 451.658 283.016 451.658 283.016L63.7161 281.845Z" fill="white"/>
</g>
<path d="M127.07 267.016H102.843C101.825 267.016 101 267.84 101 268.857V275.364C101 276.381 101.825 277.206 102.843 277.206H127.07C128.088 277.206 128.914 276.381 128.914 275.364V268.857C128.914 267.84 128.088 267.016 127.07 267.016Z" fill="#DBE2EA"/>
<path d="M158.741 267.016H134.514C133.496 267.016 132.671 267.84 132.671 268.857V275.364C132.671 276.381 133.496 277.206 134.514 277.206H158.741C159.759 277.206 160.585 276.381 160.585 275.364V268.857C160.585 267.84 159.759 267.016 158.741 267.016Z" fill="#DBE2EA"/>
<path d="M142.681 253H118.454C117.436 253 116.61 253.825 116.61 254.842V261.349C116.61 262.366 117.436 263.19 118.454 263.19H142.681C143.699 263.19 144.524 262.366 144.524 261.349V254.842C144.524 253.825 143.699 253 142.681 253Z" fill="#DBE2EA"/>
<path d="M129.98 76.5879V210.37C129.982 212.04 130.647 213.641 131.829 214.821C133.012 216.001 134.615 216.664 136.286 216.664H346.183C347.011 216.665 347.831 216.502 348.596 216.186C349.361 215.869 350.057 215.405 350.642 214.82C351.228 214.235 351.692 213.54 352.009 212.776C352.326 212.011 352.489 211.192 352.489 210.364V76.5879H129.98Z" fill="white"/>
<path d="M140.975 72.9748C142.211 72.8635 143.122 71.7724 143.011 70.5377C142.899 69.303 141.807 68.3923 140.572 68.5036C139.336 68.6149 138.424 69.706 138.536 70.9407C138.647 72.1754 139.739 73.0861 140.975 72.9748Z" fill="white"/>
<path d="M149.741 72.9767C150.976 72.8654 151.888 71.7743 151.776 70.5397C151.665 69.305 150.573 68.3943 149.337 68.5055C148.101 68.6168 147.19 69.7079 147.301 70.9426C147.413 72.1773 148.505 73.088 149.741 72.9767Z" fill="white"/>
<path d="M158.506 72.9767C159.742 72.8654 160.653 71.7743 160.542 70.5396C160.431 69.305 159.339 68.3943 158.103 68.5055C156.867 68.6168 155.956 69.7079 156.067 70.9426C156.178 72.1773 157.27 73.088 158.506 72.9767Z" fill="white"/>
<path d="M352.5 71.3001C352.501 70.4727 352.338 69.6533 352.021 68.8888C351.704 68.1242 351.24 67.4296 350.654 66.8445C350.068 66.2594 349.373 65.7953 348.608 65.4789C347.843 65.1624 347.023 64.9996 346.194 65H136.298C134.626 65 133.022 65.6638 131.839 66.8453C130.657 68.0268 129.992 69.6292 129.992 71.3001V76.4658H352.5V71.3001Z" fill="white"/>
<path d="M346.194 216.883H136.298C134.537 216.881 132.85 216.181 131.606 214.937C130.361 213.694 129.662 212.007 129.66 210.249V76.1328H352.834V210.249C352.833 212.008 352.133 213.694 350.888 214.938C349.643 216.182 347.955 216.882 346.194 216.883ZM130.326 76.7984V210.249C130.328 211.831 130.957 213.348 132.077 214.467C133.196 215.586 134.714 216.215 136.298 216.217H346.194C347.778 216.215 349.296 215.586 350.416 214.467C351.536 213.348 352.166 211.831 352.168 210.249V76.7984H130.326Z" fill="#1DA1F2"/>
<path d="M352.834 76.7974H129.66V71.3003C129.662 69.5417 130.361 67.8554 131.606 66.6117C132.85 65.3679 134.537 64.6682 136.298 64.666H346.194C347.955 64.6674 349.643 65.3669 350.888 66.6107C352.133 67.8546 352.833 69.5412 352.834 71.3003V76.7974ZM130.326 76.1318H352.168V71.3003C352.166 69.7179 351.536 68.201 350.416 67.0821C349.296 65.9633 347.778 65.3337 346.194 65.3316H136.298C134.714 65.3337 133.196 65.9634 132.077 67.0823C130.957 68.2013 130.328 69.7182 130.326 71.3003V76.1318Z" fill="#1DA1F2"/>
<path d="M140.78 73.3114C140.269 73.3109 139.77 73.159 139.346 72.8751C138.921 72.5911 138.59 72.1877 138.395 71.716C138.2 71.2442 138.149 70.7252 138.249 70.2246C138.349 69.7241 138.595 69.2643 138.957 68.9036C139.318 68.5428 139.779 68.2972 140.28 68.1978C140.781 68.0985 141.3 68.1497 141.772 68.3452C142.244 68.5407 142.648 68.8715 142.932 69.296C143.215 69.7205 143.367 70.2195 143.367 70.7299C143.366 71.4148 143.093 72.0714 142.608 72.5555C142.123 73.0395 141.466 73.3114 140.78 73.3114ZM140.78 68.8221C140.403 68.8226 140.034 68.935 139.72 69.1449C139.407 69.3549 139.162 69.653 139.018 70.0017C138.874 70.3503 138.837 70.7339 138.911 71.1038C138.984 71.4737 139.167 71.8134 139.434 72.0799C139.701 72.3465 140.041 72.5279 140.411 72.6013C140.782 72.6747 141.166 72.6367 141.514 72.4923C141.863 72.3478 142.161 72.1033 142.371 71.7896C142.581 71.4759 142.693 71.1071 142.693 70.7299C142.692 70.2237 142.49 69.7384 142.132 69.3807C141.773 69.023 141.287 68.8221 140.78 68.8221Z" fill="#1F3965"/>
<path d="M149.546 73.3114C149.035 73.3109 148.536 73.159 148.111 72.8751C147.687 72.5911 147.356 72.1877 147.161 71.716C146.966 71.2442 146.915 70.7252 147.015 70.2246C147.115 69.7241 147.361 69.2643 147.723 68.9036C148.084 68.5428 148.544 68.2972 149.046 68.1978C149.547 68.0985 150.066 68.1497 150.538 68.3452C151.01 68.5407 151.413 68.8715 151.697 69.296C151.981 69.7205 152.132 70.2195 152.132 70.7299C152.132 71.4148 151.859 72.0714 151.374 72.5555C150.889 73.0395 150.231 73.3114 149.546 73.3114ZM149.546 68.8221C149.168 68.8226 148.799 68.935 148.486 69.1449C148.172 69.3549 147.928 69.653 147.784 70.0017C147.64 70.3503 147.602 70.7339 147.676 71.1038C147.75 71.4737 147.932 71.8134 148.199 72.0799C148.466 72.3465 148.807 72.5279 149.177 72.6013C149.547 72.6747 149.931 72.6367 150.28 72.4923C150.629 72.3478 150.927 72.1033 151.137 71.7896C151.346 71.4759 151.458 71.1071 151.458 70.7299C151.457 70.2237 151.256 69.7384 150.897 69.3807C150.539 69.023 150.053 68.8221 149.546 68.8221Z" fill="#1F3965"/>
<path d="M158.311 73.3114C157.8 73.3109 157.3 73.159 156.876 72.8751C156.451 72.5911 156.121 72.1877 155.925 71.716C155.73 71.2442 155.679 70.7252 155.779 70.2246C155.879 69.7241 156.126 69.2643 156.487 68.9036C156.849 68.5428 157.309 68.2972 157.81 68.1978C158.311 68.0985 158.831 68.1497 159.303 68.3452C159.775 68.5407 160.178 68.8715 160.462 69.296C160.746 69.7205 160.897 70.2195 160.897 70.7299C160.896 71.4148 160.624 72.0714 160.139 72.5555C159.654 73.0395 158.996 73.3114 158.311 73.3114ZM158.311 68.8221C157.933 68.8226 157.564 68.935 157.25 69.1449C156.937 69.3549 156.692 69.653 156.548 70.0017C156.404 70.3503 156.367 70.7339 156.441 71.1038C156.515 71.4737 156.697 71.8134 156.964 72.0799C157.231 72.3465 157.571 72.5279 157.942 72.6013C158.312 72.6747 158.696 72.6367 159.045 72.4923C159.393 72.3478 159.691 72.1033 159.901 71.7896C160.111 71.4759 160.223 71.1071 160.223 70.7299C160.222 70.2237 160.02 69.7384 159.662 69.3807C159.303 69.023 158.817 68.8221 158.311 68.8221Z" fill="#1F3965"/>
<g clip-path="url(#clip1_370_9605)">
<path opacity="0.2" d="M346.555 80.5625H135.94V210.706H346.555V80.5625Z" fill="#DBE2EA"/>
<line x1="142.046" y1="80.8965" x2="142.046" y2="211.04" stroke="#DBE2EA" stroke-width="0.289868"/>
<line x1="161.915" y1="80.8965" x2="161.915" y2="211.04" stroke="#DBE2EA" stroke-width="0.289868"/>
<line x1="181.785" y1="80.8965" x2="181.785" y2="211.04" stroke="#DBE2EA" stroke-width="0.289868"/>
<line x1="201.654" y1="80.8965" x2="201.654" y2="211.04" stroke="#DBE2EA" stroke-width="0.289868"/>
<line x1="221.524" y1="80.8965" x2="221.524" y2="211.04" stroke="#DBE2EA" stroke-width="0.289868"/>
<line x1="241.393" y1="80.8965" x2="241.393" y2="211.04" stroke="#DBE2EA" stroke-width="0.289868"/>
<line x1="261.262" y1="80.8965" x2="261.262" y2="211.04" stroke="#DBE2EA" stroke-width="0.289868"/>
<line x1="281.131" y1="80.8965" x2="281.131" y2="211.04" stroke="#DBE2EA" stroke-width="0.289868"/>
<line x1="301" y1="80.8965" x2="301" y2="211.04" stroke="#DBE2EA" stroke-width="0.289868"/>
<line x1="320.87" y1="80.8965" x2="320.87" y2="211.04" stroke="#DBE2EA" stroke-width="0.289868"/>
<line x1="340.739" y1="80.8965" x2="340.739" y2="211.04" stroke="#DBE2EA" stroke-width="0.289868"/>
<line x1="135.94" y1="199.966" x2="346.555" y2="199.966" stroke="#DBE2EA" stroke-width="0.289868"/>
<line x1="135.94" y1="180.097" x2="346.555" y2="180.097" stroke="#DBE2EA" stroke-width="0.289868"/>
<line x1="135.94" y1="160.228" x2="346.555" y2="160.228" stroke="#DBE2EA" stroke-width="0.289868"/>
<line x1="135.94" y1="140.359" x2="346.555" y2="140.359" stroke="#DBE2EA" stroke-width="0.289868"/>
<line x1="135.94" y1="120.49" x2="346.555" y2="120.49" stroke="#DBE2EA" stroke-width="0.289868"/>
<line x1="135.94" y1="100.621" x2="346.555" y2="100.621" stroke="#DBE2EA" stroke-width="0.289868"/>
<line x1="135.94" y1="80.7516" x2="346.555" y2="80.7516" stroke="#DBE2EA" stroke-width="0.289868"/>
<g clip-path="url(#clip2_370_9605)">
<path d="M273.061 173.812H208.883C208.32 173.812 207.863 173.355 207.863 172.792V133.555H274.081V172.792C274.081 173.355 273.624 173.812 273.061 173.812Z" fill="#DBE2EA"/>
<path d="M274.081 135.344H207.863V123.051C207.863 122.488 208.32 122.031 208.883 122.031H273.061C273.624 122.031 274.081 122.488 274.081 123.051V135.344H274.081Z" fill="#A6B4CD"/>
<path opacity="0.2" d="M274.079 135.34V172.791C274.079 173.355 273.624 173.811 273.059 173.811H270.331C270.894 173.811 271.351 173.355 271.351 172.791V135.34H274.079Z" fill="#6B82AB"/>
<path d="M274.079 123.051V135.344H271.351V123.051C271.351 122.488 270.894 122.031 270.331 122.031H273.059C273.624 122.031 274.079 122.488 274.079 123.051Z" fill="#6B82AB"/>
<path d="M222.024 126.557C220.809 126.557 219.824 125.572 219.824 124.357V119.251C219.824 118.036 220.809 117.051 222.024 117.051C223.239 117.051 224.224 118.036 224.224 119.251V124.357C224.224 125.572 223.239 126.557 222.024 126.557Z" fill="#DBE2EA"/>
<path d="M259.92 126.557C258.705 126.557 257.72 125.572 257.72 124.357V119.251C257.72 118.036 258.705 117.051 259.92 117.051C261.135 117.051 262.12 118.036 262.12 119.251V124.357C262.12 125.572 261.135 126.557 259.92 126.557Z" fill="#DBE2EA"/>
<path d="M224.225 119.25V124.357C224.225 125.573 223.24 126.558 222.026 126.558C221.625 126.558 221.249 126.451 220.926 126.264C221.584 125.883 222.026 125.172 222.026 124.357V119.25C222.026 118.643 221.779 118.093 221.381 117.695C221.245 117.559 221.092 117.442 220.926 117.345C221.249 117.157 221.625 117.051 222.026 117.051C222.633 117.051 223.183 117.297 223.581 117.695C223.979 118.093 224.225 118.643 224.225 119.25Z" fill="#6B82AB"/>
<path d="M262.121 119.25V124.357C262.121 125.573 261.137 126.558 259.921 126.558C259.52 126.558 259.145 126.45 258.821 126.262C259.479 125.883 259.921 125.172 259.921 124.357V119.25C259.921 118.643 259.675 118.093 259.277 117.695C259.141 117.559 258.988 117.442 258.821 117.346C259.145 117.159 259.52 117.051 259.921 117.051C260.528 117.051 261.08 117.297 261.476 117.695C261.874 118.093 262.121 118.643 262.121 119.25Z" fill="#6B82AB"/>
<path d="M259.475 150.482C259.472 150.473 259.468 150.464 259.465 150.456C259.287 150.025 258.872 149.746 258.406 149.746C258.405 149.746 258.405 149.746 258.405 149.746C257.938 149.746 257.523 150.026 257.346 150.458C257.343 150.465 257.34 150.472 257.337 150.48L254.437 158.095C254.246 158.596 254.497 159.156 254.998 159.347C255.112 159.39 255.228 159.411 255.343 159.411C255.734 159.411 256.102 159.173 256.25 158.786L256.734 157.514H260.055L260.534 158.783C260.723 159.284 261.283 159.537 261.784 159.348C262.285 159.159 262.538 158.599 262.349 158.098L259.475 150.482ZM257.473 155.574L258.402 153.134L259.323 155.574H257.473Z" fill="#A6B4CD"/>
<path d="M237.35 157.464C236.757 157.467 236.121 157.47 235.621 157.47V150.716C235.621 150.18 235.186 149.746 234.651 149.746C234.115 149.746 233.681 150.18 233.681 150.716V158.434C233.681 158.907 234.021 159.31 234.487 159.39C234.556 159.402 234.609 159.411 235.47 159.411C235.884 159.411 236.484 159.409 237.361 159.404C237.897 159.401 238.328 158.964 238.325 158.429C238.322 157.893 237.891 157.458 237.35 157.464Z" fill="#A6B4CD"/>
<path d="M241.69 149.746C241.154 149.746 240.72 150.18 240.72 150.716V158.44C240.72 158.976 241.154 159.41 241.69 159.41C242.225 159.41 242.66 158.976 242.66 158.44V150.716C242.66 150.18 242.225 149.746 241.69 149.746Z" fill="#A6B4CD"/>
<path d="M218.258 149.746C217.722 149.746 217.288 150.18 217.288 150.716V153.476H213.882V150.716C213.882 150.18 213.448 149.746 212.912 149.746C212.377 149.746 211.942 150.18 211.942 150.716V158.44C211.942 158.976 212.377 159.41 212.912 159.41C213.448 159.41 213.882 158.976 213.882 158.44V155.416H217.288V158.44C217.288 158.976 217.722 159.41 218.258 159.41C218.793 159.41 219.228 158.976 219.228 158.44V150.716C219.228 150.18 218.793 149.746 218.258 149.746Z" fill="#A6B4CD"/>
<path d="M248.744 149.975H246.621C246.364 149.975 246.117 150.077 245.935 150.259C245.753 150.442 245.651 150.689 245.651 150.947V150.952V150.952V158.319C245.651 158.383 245.658 158.446 245.67 158.507C245.686 158.741 245.785 158.963 245.953 159.129C246.135 159.309 246.381 159.411 246.637 159.411H246.64C246.704 159.41 248.218 159.404 248.823 159.394C251.094 159.354 252.741 157.377 252.741 154.692C252.741 151.871 251.135 149.975 248.744 149.975ZM248.789 157.454C248.516 157.459 248.039 157.463 247.603 157.465C247.6 156.581 247.595 152.835 247.593 151.914H248.744C249.088 151.914 250.801 152.048 250.801 154.692C250.801 156.576 249.791 157.437 248.789 157.454Z" fill="#A6B4CD"/>
<path d="M269.559 149.923C269.11 149.631 268.509 149.758 268.217 150.207L266.582 152.719L264.928 150.186C264.635 149.737 264.034 149.611 263.585 149.904C263.137 150.197 263.011 150.798 263.303 151.247L265.612 154.782L265.603 158.438C265.602 158.974 266.035 159.409 266.571 159.411H266.573C267.108 159.411 267.542 158.978 267.543 158.443L267.552 154.784L269.843 151.265C270.135 150.816 270.008 150.215 269.559 149.923Z" fill="#A6B4CD"/>
<path d="M226.455 149.746C223.791 149.746 221.623 151.914 221.623 154.578C221.623 157.243 223.791 159.41 226.455 159.41C229.12 159.41 231.287 157.243 231.287 154.578C231.287 151.914 229.12 149.746 226.455 149.746ZM226.455 157.47C224.86 157.47 223.563 156.173 223.563 154.578C223.563 152.983 224.86 151.686 226.455 151.686C228.05 151.686 229.347 152.984 229.347 154.578C229.347 156.173 228.05 157.47 226.455 157.47Z" fill="#A6B4CD"/>
</g>
</g>
<defs>
<clipPath id="clip0_370_9605">
<rect width="480" height="283" fill="white"/>
</clipPath>
<clipPath id="clip1_370_9605">
<rect width="210.614" height="130.144" fill="white" transform="translate(135.941 80.5625)"/>
</clipPath>
<clipPath id="clip2_370_9605">
<rect width="66.2178" height="66.2178" fill="white" transform="translate(207.866 112.32)"/>
</clipPath>
</defs>
</svg>
