<svg width="386" height="228" viewBox="0 0 386 228" fill="none" xmlns="http://www.w3.org/2000/svg">
<g clip-path="url(#clip0_4875_38134)">
<path d="M51.6922 226.911C51.6922 226.911 -40.4012 168.921 22.5389 106.74C85.4791 44.5593 169.705 -18.9991 226.165 5.59063C282.624 30.1804 277.543 61.2707 339.569 106.276C401.596 151.28 387.238 187.013 376.13 205.105C365.022 223.198 363.172 227.853 363.172 227.853L51.6922 226.911Z" fill="#EDF4FB"/>
</g>
<path d="M102.559 214.98H83.107C82.2896 214.98 81.627 215.644 81.627 216.462V221.697C81.627 222.515 82.2896 223.178 83.107 223.178H102.559C103.376 223.178 104.039 222.515 104.039 221.697V216.462C104.039 215.644 103.376 214.98 102.559 214.98Z" fill="#DBE2EA"/>
<path d="M127.987 214.98H108.535C107.717 214.98 107.055 215.644 107.055 216.462V221.697C107.055 222.515 107.717 223.178 108.535 223.178H127.987C128.804 223.178 129.467 222.515 129.467 221.697V216.462C129.467 215.644 128.804 214.98 127.987 214.98Z" fill="#DBE2EA"/>
<path d="M115.092 203.706H95.6402C94.8228 203.706 94.1602 204.369 94.1602 205.188V210.422C94.1602 211.241 94.8228 211.904 95.6402 211.904H115.092C115.91 211.904 116.572 211.241 116.572 210.422V205.188C116.572 204.369 115.91 203.706 115.092 203.706Z" fill="#DBE2EA"/>
<path d="M88.0488 52.998V161.331C88.05 162.683 88.5874 163.979 89.543 164.935C90.4986 165.891 91.7942 166.428 93.145 166.428H262.78C263.45 166.428 264.113 166.296 264.731 166.04C265.349 165.784 265.911 165.408 266.385 164.934C266.858 164.46 267.233 163.898 267.489 163.279C267.745 162.66 267.877 161.996 267.877 161.326V52.998H88.0488Z" fill="white"/>
<path d="M96.9351 50.0727C97.9339 49.9826 98.6706 49.0991 98.5806 48.0992C98.4905 47.0994 97.6079 46.362 96.6092 46.4521C95.6104 46.5422 94.8738 47.4257 94.9638 48.4256C95.0538 49.4254 95.9364 50.1628 96.9351 50.0727Z" fill="white"/>
<path d="M104.019 50.0727C105.018 49.9826 105.755 49.099 105.665 48.0992C105.575 47.0994 104.692 46.362 103.693 46.4521C102.694 46.5422 101.958 47.4257 102.048 48.4256C102.138 49.4254 103.02 50.1628 104.019 50.0727Z" fill="white"/>
<path d="M111.103 50.0737C112.102 49.9836 112.839 49.1 112.749 48.1002C112.659 47.1004 111.776 46.3629 110.777 46.4531C109.778 46.5432 109.042 47.4267 109.132 48.4265C109.222 49.4263 110.104 50.1638 111.103 50.0737Z" fill="white"/>
<path d="M267.897 48.7169C267.897 48.0468 267.768 47.3833 267.515 46.7642C267.262 46.1451 266.892 45.5826 266.425 45.1088C265.958 44.635 265.403 44.2593 264.793 44.003C264.183 43.7467 263.529 43.6149 262.868 43.6152H95.4647C94.1309 43.6152 92.8517 44.1527 91.9086 45.1095C90.9654 46.0662 90.4355 47.3638 90.4355 48.7169V52.8999H267.897V48.7169Z" fill="white"/>
<path d="M262.867 166.605H95.4637C94.0598 166.604 92.714 166.037 91.7215 165.03C90.7291 164.023 90.1711 162.657 90.1699 161.233V52.6299H268.163V161.233C268.162 162.657 267.603 164.023 266.61 165.03C265.617 166.038 264.271 166.604 262.867 166.605V166.605ZM90.7012 53.1689V161.233C90.7024 162.514 91.2044 163.743 92.0972 164.649C92.9901 165.555 94.2007 166.065 95.4637 166.066H262.867C264.13 166.065 265.341 165.555 266.234 164.649C267.127 163.743 267.63 162.514 267.631 161.233V53.1689H90.7012Z" fill="#1DA1F2"/>
<path d="M268.163 53.1683H90.1699V48.7169C90.1711 47.2929 90.7291 45.9274 91.7215 44.9203C92.714 43.9131 94.0598 43.3465 95.4637 43.3447H262.867C264.271 43.3459 265.617 43.9122 266.61 44.9195C267.603 45.9267 268.162 47.2925 268.163 48.7169V53.1683ZM90.7012 52.6294H267.631V48.7169C267.63 47.4356 267.127 46.2073 266.234 45.3012C265.341 44.3952 264.13 43.8854 262.867 43.8837H95.4637C94.2007 43.8854 92.9901 44.3953 92.0972 45.3014C91.2044 46.2075 90.7024 47.4358 90.7012 48.7169V52.6294Z" fill="#1DA1F2"/>
<path d="M99.039 50.3468C98.6315 50.3464 98.2333 50.2234 97.8947 49.9935C97.5561 49.7635 97.2924 49.4369 97.1367 49.0549C96.9811 48.6729 96.9406 48.2526 97.0203 47.8473C97.1001 47.4419 97.2965 47.0696 97.5848 46.7775C97.8731 46.4854 98.2403 46.2865 98.6399 46.206C99.0396 46.1255 99.4538 46.1671 99.8303 46.3254C100.207 46.4836 100.528 46.7516 100.755 47.0953C100.981 47.439 101.102 47.8431 101.102 48.2564C101.101 48.811 100.884 49.3427 100.497 49.7347C100.11 50.1267 99.5858 50.3468 99.039 50.3468V50.3468ZM99.039 46.7115C98.7379 46.712 98.4437 46.8029 98.1935 46.973C97.9433 47.143 97.7485 47.3844 97.6335 47.6667C97.5186 47.9491 97.4888 48.2596 97.5478 48.5592C97.6068 48.8587 97.752 49.1338 97.965 49.3496C98.1781 49.5654 98.4495 49.7124 98.7449 49.7718C99.0402 49.8312 99.3463 49.8005 99.6245 49.6835C99.9026 49.5665 100.14 49.3685 100.308 49.1145C100.475 48.8605 100.564 48.5619 100.564 48.2564C100.564 47.8465 100.403 47.4535 100.117 47.1639C99.8307 46.8742 99.4431 46.7115 99.039 46.7115V46.7115Z" fill="#1F3965"/>
<path d="M106.029 50.3468C105.622 50.3464 105.224 50.2234 104.885 49.9935C104.546 49.7635 104.283 49.4369 104.127 49.0549C103.971 48.6729 103.931 48.2526 104.011 47.8473C104.09 47.4419 104.287 47.0696 104.575 46.7775C104.863 46.4854 105.23 46.2865 105.63 46.206C106.03 46.1255 106.444 46.1671 106.82 46.3254C107.197 46.4836 107.519 46.7516 107.745 47.0953C107.971 47.439 108.092 47.8431 108.092 48.2564C108.092 48.811 107.874 49.3427 107.487 49.7347C107.1 50.1267 106.576 50.3468 106.029 50.3468ZM106.029 46.7115C105.728 46.712 105.434 46.8029 105.184 46.973C104.934 47.143 104.739 47.3844 104.624 47.6667C104.509 47.9491 104.479 48.2596 104.538 48.5592C104.597 48.8587 104.742 49.1338 104.955 49.3496C105.168 49.5654 105.44 49.7124 105.735 49.7718C106.03 49.8312 106.337 49.8005 106.615 49.6835C106.893 49.5665 107.131 49.3685 107.298 49.1145C107.465 48.8605 107.554 48.5619 107.554 48.2564C107.554 47.8465 107.393 47.4535 107.107 47.1639C106.821 46.8742 106.433 46.7115 106.029 46.7115V46.7115Z" fill="#1F3965"/>
<path d="M113.021 50.3468C112.614 50.3464 112.216 50.2234 111.877 49.9935C111.539 49.7635 111.275 49.4369 111.119 49.0549C110.963 48.6729 110.923 48.2526 111.003 47.8473C111.083 47.4419 111.279 47.0696 111.567 46.7775C111.855 46.4854 112.223 46.2865 112.622 46.206C113.022 46.1255 113.436 46.1671 113.813 46.3254C114.189 46.4836 114.511 46.7516 114.737 47.0953C114.963 47.439 115.084 47.8431 115.084 48.2564C115.084 48.811 114.866 49.3427 114.479 49.7347C114.093 50.1267 113.568 50.3468 113.021 50.3468ZM113.021 46.7115C112.72 46.712 112.426 46.8029 112.176 46.973C111.926 47.143 111.731 47.3844 111.616 47.6667C111.501 47.9491 111.471 48.2596 111.53 48.5592C111.589 48.8587 111.734 49.1338 111.947 49.3496C112.161 49.5654 112.432 49.7124 112.727 49.7718C113.023 49.8312 113.329 49.8005 113.607 49.6835C113.885 49.5665 114.123 49.3685 114.29 49.1145C114.457 48.8605 114.547 48.5619 114.547 48.2564C114.546 47.8465 114.385 47.4535 114.099 47.1639C113.813 46.8742 113.426 46.7115 113.021 46.7115V46.7115Z" fill="#1F3965"/>
<path d="M90.4258 52.999V161.332C90.4269 162.684 90.9573 163.98 91.9003 164.936C92.8433 165.892 94.1219 166.429 95.4549 166.429H262.858C263.519 166.429 264.173 166.297 264.783 166.041C265.393 165.785 265.948 165.409 266.415 164.935C266.882 164.461 267.253 163.899 267.505 163.28C267.758 162.661 267.888 161.997 267.887 161.327V52.999H90.4258Z" fill="white"/>
<g clip-path="url(#clip1_4875_38134)">
<path d="M159 64H108C104.686 64 102 66.6863 102 70V81C102 84.3137 104.686 87 108 87H159C162.314 87 165 84.3137 165 81V70C165 66.6863 162.314 64 159 64Z" fill="#F7F9FC"/>
<rect x="104" y="66" width="59" height="6" rx="1" fill="#DBE2EA"/>
<rect x="104.518" y="74.7275" width="30" height="1.60896" rx="0.5" fill="#A6B4CD"/>
<rect x="104.287" y="79.0127" width="13.9554" height="1.60896" rx="0.5" fill="#A6B4CD"/>
<path d="M228 64H177C173.686 64 171 66.6863 171 70V81C171 84.3137 173.686 87 177 87H228C231.314 87 234 84.3137 234 81V70C234 66.6863 231.314 64 228 64Z" fill="#F7F9FC"/>
<rect x="173" y="66" width="59" height="6" rx="1" fill="#DBE2EA"/>
<rect x="173.518" y="74.7275" width="30" height="1.60896" rx="0.5" fill="#A6B4CD"/>
<rect x="173.287" y="79.0127" width="13.9554" height="1.60896" rx="0.5" fill="#A6B4CD"/>
<path d="M159 93H108C104.686 93 102 95.6863 102 99V110C102 113.314 104.686 116 108 116H159C162.314 116 165 113.314 165 110V99C165 95.6863 162.314 93 159 93Z" fill="#F7F9FC"/>
<rect x="104" y="95" width="59" height="6" rx="1" fill="#DBE2EA"/>
<rect x="104.518" y="103.728" width="30" height="1.60896" rx="0.5" fill="#A6B4CD"/>
<rect x="104.287" y="108.013" width="13.9554" height="1.60896" rx="0.5" fill="#A6B4CD"/>
<rect x="205.314" y="140.957" width="4.75403" height="4.82687" rx="2.37702" fill="#1F3965"/>
<path d="M297 64H246C242.686 64 240 66.6863 240 70V81C240 84.3137 242.686 87 246 87H297C300.314 87 303 84.3137 303 81V70C303 66.6863 300.314 64 297 64Z" fill="#F7F9FC"/>
<rect x="242" y="66" width="59" height="6" rx="1" fill="#DBE2EA"/>
<rect x="242.518" y="74.7275" width="30" height="1.60896" rx="0.5" fill="#A6B4CD"/>
<rect x="242.287" y="79.0127" width="13.9554" height="1.60896" rx="0.5" fill="#A6B4CD"/>
<path d="M228 93H177C173.686 93 171 95.6863 171 99V110C171 113.314 173.686 116 177 116H228C231.314 116 234 113.314 234 110V99C234 95.6863 231.314 93 228 93Z" fill="#F7F9FC"/>
<rect x="173" y="95" width="59" height="6" rx="1" fill="#DBE2EA"/>
<rect x="173.518" y="103.728" width="30" height="1.60896" rx="0.5" fill="#A6B4CD"/>
<rect x="173.287" y="108.013" width="13.9554" height="1.60896" rx="0.5" fill="#A6B4CD"/>
<path d="M297 93H246C242.686 93 240 95.6863 240 99V110C240 113.314 242.686 116 246 116H297C300.314 116 303 113.314 303 110V99C303 95.6863 300.314 93 297 93Z" fill="#F7F9FC"/>
<rect x="242" y="95" width="59" height="6" rx="1" fill="#DBE2EA"/>
<rect x="242.518" y="103.728" width="30" height="1.60896" rx="0.5" fill="#A6B4CD"/>
<rect x="242.287" y="108.013" width="13.9554" height="1.60896" rx="0.5" fill="#A6B4CD"/>
<rect x="102.25" y="122.25" width="107.5" height="41.5" rx="3.75" fill="#EFF9FF" stroke="#1DA1F2" stroke-width="0.5"/>
<rect x="108.338" y="146.872" width="37.8789" height="1.73272" rx="0.5" fill="#A6B4CD"/>
<rect x="108.338" y="143.407" width="21.9299" height="1.73272" rx="0.5" fill="white"/>
<rect x="108.338" y="138.209" width="37.8789" height="1.73272" rx="0.5" fill="#6B82AB"/>
<rect x="108.338" y="134.743" width="21.9299" height="1.73272" rx="0.5" fill="white"/>
<rect x="108.338" y="155.536" width="37.8789" height="1.73272" rx="0.5" fill="#DBE2EA"/>
<rect x="108.338" y="152.071" width="21.9299" height="1.73272" rx="0.5" fill="white"/>
</g>
<defs>
<clipPath id="clip0_4875_38134">
<rect width="385.394" height="227.667" fill="white" transform="translate(0.533203 0.172852)"/>
</clipPath>
<clipPath id="clip1_4875_38134">
<rect width="167.976" height="105.387" fill="white" transform="translate(95.1797 56.2168)"/>
</clipPath>
</defs>
</svg>
